<!-- Generated by IcoMoon.io -->
<svg version="1.1" xmlns="http://www.w3.org/2000/svg" width="1581" height="1024" viewBox="0 0 1581 1024">
<title></title>
<g id="icomoon-ignore">
</g>
<path d="M816.918 1005.194h-9.85v-78.804h11.194c24.178 0 31.79 8.508 31.79 22.835 0 16.566-12.537 22.835-27.76 22.835h-5.373v33.134zM816.918 963.554h3.134c9.85 0 21.045-1.791 21.045-14.328s-11.641-13.88-21.491-13.88h-2.687v28.208z"></path>
<path d="M938.706 1005.194h-12.089l-23.283-33.134h-4.029v33.134h-9.85v-78.804h12.089c7.164 0 14.328 0 20.597 3.582 6.716 4.029 10.298 11.194 10.298 18.806 0 11.194-7.612 20.597-18.806 21.939l25.074 34.476zM899.752 963.554h3.134c9.85 0 21.045-1.791 21.045-14.328s-11.641-13.88-21.491-13.88h-2.687v28.208z"></path>
<path d="M1054.673 965.793c0 23.283-18.358 41.193-41.193 41.193s-41.193-17.462-41.193-41.193c0-22.387 18.806-41.193 41.193-41.193 22.835 0 41.193 18.806 41.193 41.193v0zM1044.822 965.793c0-17.462-12.985-31.79-31.343-31.79s-31.343 14.328-31.343 31.79c0 17.91 14.328 31.79 31.343 31.79s31.343-13.88 31.343-31.79z"></path>
<path d="M1094.97 926.391h16.119c24.178 0 44.327 12.537 44.327 38.955 0 26.865-19.701 39.849-44.327 39.849h-16.119v-78.804zM1104.821 996.24h3.582c20.149 0 37.163-7.612 37.163-30.447s-17.462-30.447-37.163-30.447h-3.582v60.894z"></path>
<path d="M1204.668 926.391v46.565c0 12.985 4.029 24.626 18.806 24.626 15.223 0 18.806-12.089 18.806-24.626v-46.565h9.85v49.7c0 17.462-10.746 30.447-28.656 30.447s-28.656-13.433-28.656-30.447v-49.7h9.85z"></path>
<path d="M1354.664 941.615c-5.821-4.925-13.433-7.612-20.597-7.612-17.462 0-30.895 14.776-30.895 32.238 0 17.014 13.433 31.79 30.895 31.79 7.612 0 15.223-3.134 21.045-8.060v11.641c-6.269 3.582-13.88 5.373-20.597 5.373-22.387 0-41.193-17.91-41.193-40.745 0-23.283 18.806-41.64 41.64-41.64 6.716 0 13.88 1.791 19.701 5.373v11.641zM1321.979 1024l-5.373-2.687 8.955-14.328 7.612 3.134-11.194 13.88z"></path>
<path d="M1408.841 985.493l-8.955 19.701h-10.746l37.611-81.937 37.611 81.937h-10.746l-8.955-19.701h-35.82zM1407.051 913.854l0.448-0.448c2.687-4.029 5.821-8.060 11.194-8.060 3.582 0 6.716 1.343 9.402 2.687s5.373 2.687 7.612 2.687c3.134 0 5.373-2.687 6.716-4.925l4.925 4.029c-2.239 4.925-6.716 8.508-12.537 8.508-3.134 0-5.821-1.343-8.508-2.687s-5.373-2.687-8.060-2.687c-2.687 0-4.925 2.687-5.821 4.925l-5.373-4.029zM1427.199 944.748l-13.88 31.79h27.76l-13.88-31.79z"></path>
<path d="M1579.433 965.793c0 23.283-18.358 41.193-41.193 41.193s-41.193-17.462-41.193-41.193c0-22.387 18.806-41.193 41.193-41.193s41.193 18.806 41.193 41.193v0zM1569.583 965.793c0-17.462-12.985-31.79-31.343-31.79s-31.343 14.328-31.343 31.79c0 17.91 14.328 31.79 31.343 31.79s31.343-13.88 31.343-31.79z"></path>
<path d="M476.63 543.119l-207.308-0.448 330.885-231.486-17.91-25.522-412.376 289.245 306.707 0.448z"></path>
<path d="M720.653 634.907l-65.371 181.338-104.773-389.988-29.551 8.060 130.294 486.255 102.534-285.216z"></path>
<path d="M906.916 421.779l173.278 121.34-405.66 0.896v31.343h503.269l-253.425-180.442z"></path>
<path d="M758.712 199.248l168.801-116.863-145.070 377.004 28.656 11.194 180.442-470.583-252.082 174.174z"></path>
<path d="M510.659 281.634l-66.267-194.323 322.827 243.127 18.358-24.626-402.077-303.125 97.161 290.588z"></path>
<path d="M25.3 760.725c0 15.671-0.448 33.581 9.402 47.013 9.402 12.985 27.312 20.149 42.536 20.149s31.343-7.164 41.193-18.806c11.194-13.433 10.298-31.79 10.298-48.357v-125.369h23.283v132.085c0 22.835-1.791 41.193-18.358 58.207-14.328 15.671-35.372 24.178-56.864 24.178-19.701 0-40.297-7.612-54.625-21.491-18.358-17.462-20.597-36.715-20.597-60.894v-132.085h23.283v125.369z"></path>
<path d="M230.369 625.952l164.324 172.382v-163.428h23.283v220.292l-164.324-171.936v162.532h-23.283z"></path>
<path d="M497.227 634.907h23.283v210.889h-23.283v-210.889z"></path>
<path d="M807.964 634.907h109.251v21.939h-85.968v62.685h83.281v21.939h-83.281v82.385h85.968v21.939h-109.251z"></path>
<path d="M1015.271 845.796h-23.283v-210.889h30.447c39.849 0 77.012 10.746 77.012 58.207 0 32.238-20.597 55.521-52.834 58.207l67.162 94.474h-28.656l-63.58-92.684h-5.821v92.684h-0.448zM1015.271 732.516h7.164c26.417 0 53.282-4.925 53.282-37.611 0-34.476-25.522-38.059-53.73-38.059h-7.164v75.669z"></path>
<path d="M1274.070 676.1c-8.508-14.328-18.358-22.835-36.268-22.835-18.806 0-34.924 13.433-34.924 32.686 0 18.358 18.806 26.417 33.134 33.134l13.88 6.269c27.312 12.089 50.596 25.522 50.596 59.102 0 36.715-29.551 64.923-66.267 64.923-33.581 0-59.102-21.939-65.819-54.625l22.835-6.269c3.134 21.491 19.701 38.955 42.088 38.955 22.835 0 43.432-17.462 43.432-41.193 0-24.626-19.253-33.134-38.955-42.088l-12.985-5.821c-24.626-11.194-45.67-23.731-45.67-53.73 0-32.686 27.76-53.73 59.102-53.73 23.283 0 43.432 12.089 54.625 32.686l-18.806 12.537z"></path>
<path d="M1578.538 740.576c0 60.446-49.7 108.803-109.698 108.803s-109.698-47.909-109.698-108.803c0-60.446 49.7-109.251 109.698-109.251s109.698 48.805 109.698 109.251v0zM1382.425 740.576c0 47.461 38.507 87.311 86.416 87.311s86.416-39.849 86.416-87.311c0-47.909-38.059-87.311-86.416-87.311s-86.416 39.401-86.416 87.311z"></path>
</svg>
