<?xml version="1.0" encoding="utf-8"?>
<!-- Generator: Adobe Illustrator 19.0.0, SVG Export Plug-In . SVG Version: 6.00 Build 0)  -->
<svg version="1.1" id="Layer_1" xmlns="http://www.w3.org/2000/svg" xmlns:xlink="http://www.w3.org/1999/xlink" x="0px" y="0px"
	 viewBox="0 0 441.3 395.1" style="enable-background:new 0 0 441.3 395.1;" xml:space="preserve">
<style type="text/css">
	.st0{fill:#231F20;}
	.st1{fill:#2191A2;}
	.st2{fill:#FFFFFF;}
</style>
<g id="XMLID_42_">
	<circle id="XMLID_43_" class="st0" cx="32.3" cy="190.2" r="18.9"/>
	<circle id="XMLID_155_" class="st0" cx="116.1" cy="190.5" r="18.9"/>
	<circle id="XMLID_156_" class="st0" cx="47.9" cy="140.4" r="18.9"/>
	<circle id="XMLID_157_" class="st0" cx="74.8" cy="220.6" r="18.9"/>
	<circle id="XMLID_158_" class="st0" cx="73.8" cy="175.9" r="4.6"/>
	<circle id="XMLID_159_" class="st0" cx="100.9" cy="140.4" r="18.9"/>
	<circle id="XMLID_160_" class="st0" cx="292.7" cy="99.9" r="6.3"/>
	<circle id="XMLID_161_" class="st0" cx="330.1" cy="51" r="26"/>
	<circle id="XMLID_162_" class="st0" cx="235.5" cy="119.6" r="26"/>
	<circle id="XMLID_163_" class="st0" cx="294" cy="161.6" r="26"/>
	<circle id="XMLID_164_" class="st0" cx="257" cy="51" r="26"/>
	<circle id="XMLID_165_" class="st0" cx="351.1" cy="120.1" r="26"/>
	<path id="XMLID_196_" class="st1" d="M291.3,0C235.9,0,191,44.9,191,100.3c0,55.4,44.9,100.3,100.3,100.3
		c55.4,0,100.3-44.9,100.3-100.3C391.6,44.9,346.7,0,291.3,0z M330.1,25c14.4,0,26,11.6,26,26s-11.6,26-26,26c-14.4,0-26-11.6-26-26
		S315.7,25,330.1,25z M292.7,93.6c3.5,0,6.3,2.8,6.3,6.3c0,3.5-2.8,6.3-6.3,6.3s-6.3-2.8-6.3-6.3C286.3,96.4,289.2,93.6,292.7,93.6z
		 M257,25c14.4,0,26,11.6,26,26s-11.6,26-26,26s-26-11.6-26-26S242.6,25,257,25z M235.5,145.6c-14.4,0-26-11.6-26-26
		c0-14.4,11.6-26,26-26c14.4,0,26,11.6,26,26C261.5,134,249.9,145.6,235.5,145.6z M294,187.6c-14.4,0-26-11.6-26-26
		c0-14.4,11.6-26,26-26c14.4,0,26,11.6,26,26C320.1,176,308.4,187.6,294,187.6z M351.1,146.1c-14.4,0-26-11.6-26-26
		c0-14.4,11.6-26,26-26s26,11.6,26,26C377.1,134.5,365.5,146.1,351.1,146.1z"/>
	<path id="XMLID_202_" class="st1" d="M210.1,327.1c0.5-0.4,0.7-0.8,0.7-1.5c0-0.8-0.3-1.2-0.7-1.5c-0.4-0.3-0.7-0.4-1.3-0.4l-2.9,0
		v3.5l2.8,0C209.4,327.3,209.8,327.2,210.1,327.1z"/>
	<polygon id="XMLID_203_" class="st1" points="219.5,329.5 222.7,329.5 221.1,324.5 	"/>
	<polygon id="XMLID_204_" class="st1" points="323.4,329.5 326.6,329.5 325,324.5 	"/>
	<path id="XMLID_205_" class="st1" d="M141.2,326.3l-0.6,0.1c-0.6,0.1-1.1,0.2-1.3,0.4c-0.2,0.2-0.4,0.5-0.4,0.8
		c0,0.3,0.1,0.6,0.4,0.8c0.2,0.2,0.5,0.3,0.9,0.3c0.3,0,0.6-0.1,1-0.2c0.2-0.1,0.4-0.2,0.5-0.3c0.2-0.1,0.3-0.3,0.4-0.4
		c0.1-0.2,0.2-0.5,0.2-0.9v-0.8c-0.2,0.1-0.3,0.2-0.4,0.2C141.7,326.2,141.5,326.2,141.2,326.3z"/>
	<path id="XMLID_206_" class="st1" d="M193.5,342.7c-1.3,0-2.3,0.4-3.1,1.4c-0.8,1-1.2,2.5-1.2,4.4c0,1.7,0.3,3.2,1.2,4.2
		c0.8,1,1.9,1.4,3.1,1.4c1.3,0,2.3-0.4,3.1-1.4c0.8-1,1.1-2.5,1.1-4.2c0-1.9-0.3-3.4-1.1-4.4C195.8,343.2,194.7,342.7,193.5,342.7z"
		/>
	<path id="XMLID_207_" class="st1" d="M157.5,343.1l-3.1,0v10.8h3.1c1.6,0,2.7-0.8,3.3-2.5c0.4-0.7,0.6-1.8,0.6-3.1
		c0-1.6-0.2-2.8-0.8-3.7C160.1,343.7,159.1,343.1,157.5,343.1z"/>
	<path id="XMLID_208_" class="st1" d="M171.8,332.4c1.1,0,1.9-0.5,2.6-1.1c0.5-0.8,0.9-1.9,0.9-3.4c0-1.4-0.4-2.4-0.9-3.3
		c-0.7-0.8-1.5-1.1-2.6-1.1c-1,0-1.9,0.3-2.4,1.1c-0.7,0.8-0.9,1.9-0.9,3.3c0,1.5,0.3,2.6,0.9,3.4
		C169.9,331.9,170.7,332.4,171.8,332.4z"/>
	<path id="XMLID_209_" class="st1" d="M323.4,342.7c-1.3,0-2.4,0.4-3.2,1.4c-0.8,1-1.2,2.5-1.2,4.4c0,1.7,0.4,3.2,1.2,4.2
		c0.8,1,1.8,1.4,3.2,1.4c1.3,0,2.3-0.4,3.1-1.4c0.8-1,1.1-2.5,1.1-4.2c0-1.9-0.4-3.4-1.2-4.4C325.7,343.2,324.7,342.7,323.4,342.7z"
		/>
	<path id="XMLID_210_" class="st1" d="M315.8,284.8c1.1-0.1,2-0.6,2.9-1c0.8-0.6,1.5-1.2,2-2.1c0.6-0.9,0.8-2.1,0.8-3.6
		c0-1.5-0.2-2.7-0.8-3.6c-0.4-0.9-1.1-1.5-2-2c-0.8-0.4-1.8-0.9-2.9-1c-1.1-0.2-2.2-0.2-3.4-0.2h-8V285l8,0
		C313.6,285,314.7,284.9,315.8,284.8z"/>
	<path id="XMLID_211_" class="st1" d="M265.6,343.7c-0.4-0.4-1-0.6-1.7-0.6h-3l0,4.9h3c0.7,0,1.4-0.2,1.7-0.7c0.5-0.3,0.7-1,0.7-1.7
		C266.3,344.7,266.1,344,265.6,343.7z"/>
	<path id="XMLID_212_" class="st1" d="M280.2,343.5c-0.4-0.3-0.8-0.4-1.6-0.4H275l0,4.5l3.6,0c0.7,0,1.2-0.1,1.6-0.4
		c0.6-0.3,0.9-1,0.9-1.7C281.1,344.5,280.8,343.8,280.2,343.5z"/>
	<path id="XMLID_215_" class="st1" d="M198.2,155.1h-46.7c1.9,6.9,3,14.2,3,21.7c0,44.4-36,80.4-80.4,80.4c-4.8,0-9.5-0.4-14.1-1.3
		v121.2c0,9.9,8.1,18,18,18h265.1c9.9,0,18-8.1,18-18V182.7c-18.8,16-43.2,25.6-69.8,25.6C251.6,208.3,217,186.9,198.2,155.1z
		 M240.8,277c1-3,2.5-5.6,4.5-7.7c2-2.3,4.4-4,7.2-5.2c2.9-1.2,6-1.8,9.6-1.8c3.7,0,6.8,0.6,9.7,1.8c2.8,1.3,5.3,2.9,7.2,5.2
		c2,2.2,3.4,4.8,4.5,7.8c1.1,2.9,1.6,6.1,1.6,9.6c0,3.3-0.5,6.5-1.6,9.5c-1,2.9-2.5,5.3-4.5,7.6c-2,2.1-4.4,3.9-7.2,5.1
		c-2.8,1.2-6,1.8-9.7,1.8c-3.6,0-6.8-0.7-9.6-1.8c-2.8-1.2-5.3-2.9-7.2-5c-2-2.3-3.4-4.7-4.5-7.6c-1-2.9-1.6-6.2-1.6-9.5
		C239.2,283.1,239.8,279.9,240.8,277z M278.8,321.6v12.8h-2.6v-12.8H278.8z M266.7,331.3c0.6,0.6,1.4,1.1,2.2,1.1
		c0.8,0,1.6-0.4,2.1-0.9c0.3-0.3,0.5-0.8,0.6-1.6l2.7,0c-0.3,1.5-0.8,2.6-1.8,3.5c-0.9,0.9-2.1,1.3-3.6,1.3c-1.8,0-3.3-0.7-4.3-1.8
		c-1.1-1.2-1.5-2.7-1.5-4.7c0-2.4,0.5-3.9,1.7-5.1c1-1.1,2.3-1.6,3.9-1.6c2.1,0,3.7,0.8,4.7,2.1c0.5,0.8,0.8,1.7,0.9,2.3h-2.7
		c-0.2-0.5-0.3-1.1-0.6-1.3c-0.5-0.4-1.2-0.9-2.1-0.9c-0.9,0-1.7,0.5-2.3,1.1c-0.5,0.8-0.8,1.9-0.8,3.4
		C265.9,329.5,266.2,330.6,266.7,331.3z M250.6,326.5h6.1l0,2.2l-6.1,0v3.2h7v2.4H248v-12.8l9.3,0v2.2l-6.7,0L250.6,326.5z
		 M235.1,321.6l5.4,0c0.8,0,1.4,0.1,2,0.4c0.9,0.3,1.6,0.7,2.1,1.5c0.5,0.7,0.8,1.3,0.9,2c0.1,0.8,0.2,1.4,0.2,2.1
		c0,1.7-0.3,3.1-1,4.3c-0.9,1.6-2.3,2.5-4.2,2.5h-5.4V321.6z M200.5,264.3l31.1,0v3.6h-26.8l0,16.2h25.1v3.6l-25.1,0v17.6h27.1v3.7
		h-31.4V264.3z M155.6,264.3h4.8l26.3,37.8h0.1v-37.8h4.4l0,44.6h-4.8L160,271.2l-0.1,0l0,37.7l-4.3,0V264.3z M93.8,277.8
		c0.9-2.8,2.2-5.3,3.9-7.4c1.8-2.1,4-3.9,6.6-5.1c2.7-1.4,5.8-2,9.3-2c2.2,0,4.2,0.3,6.2,1c2.1,0.6,3.9,1.5,5.6,2.7
		c1.7,1.3,3,2.7,4.1,4.5c1.2,1.8,1.9,3.8,2.2,6.3h-4.3c-0.3-1.7-1-3.3-1.9-4.6c-0.8-1.5-1.9-2.6-3.1-3.5c-1.3-0.9-2.6-1.5-4.1-2
		c-1.5-0.4-3.1-0.8-4.7-0.8c-3,0-5.5,0.6-7.7,1.7c-2.2,1.1-4,2.7-5.3,4.6c-1.3,1.8-2.4,3.9-3,6.2c-0.7,2.4-1,4.7-1,7.3
		c0,2.3,0.3,4.8,1,7.1c0.6,2.4,1.7,4.5,3,6.4c1.3,1.8,3.1,3.4,5.3,4.5c2.2,1.1,4.7,1.6,7.7,1.6c2.1,0,4-0.3,5.7-1.1
		c1.6-0.8,3.1-1.8,4.3-3c1.2-1.2,2.2-2.8,3-4.6c0.8-1.6,1.3-3.5,1.5-5.7h4.2c-0.2,2.8-0.9,5.3-2,7.5c-1,2.3-2.2,4.2-3.9,5.7
		c-1.6,1.6-3.5,2.8-5.7,3.6c-2.1,0.8-4.5,1.2-7.2,1.2c-3.6,0-6.6-0.5-9.3-1.9c-2.7-1.2-4.8-3-6.6-5.1c-1.8-2.1-3.1-4.6-3.9-7.4
		c-0.9-2.8-1.4-5.7-1.4-8.8C92.3,283.5,92.8,280.6,93.8,277.8z M107.4,356.2h-7v-23.9h-8.1v-4.6c2.1-0.1,3.6-0.2,4.5-0.4
		c1.4-0.3,2.5-0.9,3.3-1.8c0.6-0.6,1-1.5,1.3-2.5c0.2-0.6,0.3-1.1,0.3-1.4h5.7V356.2z M131.1,353.5c-2,2.2-5,3.3-8.9,3.3
		c-4.8,0-8.2-1.6-10.1-4.7c-1-1.7-1.5-3.9-1.7-6.6h6.6c0,1.4,0.2,2.5,0.7,3.4c0.8,1.7,2.3,2.5,4.5,2.5c1.3,0,2.5-0.5,3.5-1.4
		c1-0.9,1.5-2.2,1.5-3.9c0-2.3-0.9-3.8-2.7-4.5c-1-0.4-2.7-0.6-4.9-0.6v-4.8c2.2,0,3.7-0.2,4.6-0.6c1.5-0.7,2.2-2,2.2-4
		c0-1.3-0.4-2.4-1.1-3.2c-0.8-0.8-1.8-1.2-3.2-1.2c-1.6,0-2.8,0.5-3.5,1.5c-0.7,1-1.1,2.4-1.1,4h-6.3c0.1-1.7,0.4-3.3,0.9-4.8
		c0.6-1.3,1.4-2.6,2.6-3.7c0.9-0.8,1.9-1.4,3.1-1.8c1.2-0.4,2.7-0.6,4.5-0.6c3.3,0,5.9,0.8,7.9,2.5c2,1.7,3,4,3,6.8
		c0,2-0.6,3.7-1.8,5.1c-0.8,0.9-1.5,1.5-2.4,1.8c0.6,0,1.5,0.5,2.6,1.6c1.7,1.6,2.6,3.8,2.6,6.5
		C134.1,348.8,133.1,351.3,131.1,353.5z M137.2,332.6l0-1.6l7.2,0l0,1.6H137.2z M145,330h-2.5c-0.1-0.1-0.1-0.3-0.1-0.4
		c0-0.1-0.1-0.3-0.1-0.5c-0.4,0.4-0.8,0.6-1.1,0.8c-0.5,0.3-1.1,0.4-1.7,0.4c-1.2,0-2-0.4-2.5-1.1c-0.3-0.4-0.4-0.9-0.4-1.4
		c0-0.9,0.3-1.6,1-2.1c0.5-0.3,1.2-0.5,2.1-0.6l1.6-0.2c0.2,0,0.4-0.1,0.6-0.2c0.2-0.1,0.2-0.3,0.2-0.5c0-0.4-0.2-0.7-0.6-0.8
		c-0.2-0.1-0.6-0.1-1-0.1c-0.5,0-0.8,0.1-1,0.3c-0.2,0.2-0.4,0.5-0.5,0.8h-2.2c0.1-0.7,0.3-1.3,0.7-1.8c0.6-0.7,1.6-1,3-1
		c1,0,1.8,0.1,2.4,0.3c1,0.4,1.5,1.2,1.5,2.4v4c0,0.3,0,0.6,0.1,0.8c0.1,0.2,0.2,0.4,0.4,0.4V330z M145.5,308.9h-4.3l0-44.6h4.3
		V308.9z M151.2,321.6h3.9l2.3,10l2.3-10h3.8v12.8l-2.4,0v-8.7c0-0.2,0-0.5,0-1c0-0.4,0-0.8,0-1l-2.5,10.7h-2.5l-2.4-10.7
		c0,0.2,0,0.7,0,1c0,0.5,0,0.8,0,1l0,8.7h-2.5V321.6z M163.4,353.7c-1.1,2-3,3.1-5.3,3.1h-6.9v-16.4h6.9c1,0,1.8,0.1,2.4,0.3
		c1.1,0.3,2,1.1,2.7,2.1c0.5,0.9,1,1.7,1.1,2.7c0.2,0.8,0.2,1.7,0.2,2.6C164.7,350.2,164.3,352.1,163.4,353.7z M167.6,322.7
		c1-1,2.4-1.4,4.1-1.4c1.9,0,3.2,0.4,4.2,1.4c1.3,1.1,1.9,2.9,1.9,5.2c0,2.4-0.6,4-1.9,5.4c-1,1-2.3,1.4-4.2,1.4
		c-1.8,0-3.2-0.4-4.1-1.4c-1.2-1.3-1.9-3-1.9-5.4C165.7,325.6,166.4,323.8,167.6,322.7z M179.4,356.8h-12.1l0-16.4l11.6,0v2.8h-8.4
		l0,3.6l7.8,0v2.9h-7.8v4.2h8.8V356.8z M181.1,333.5c-0.9-0.8-1.4-1.8-1.4-3.1h2.5c0.1,0.5,0.3,1,0.5,1.3c0.4,0.6,1.2,0.8,2.2,0.8
		c0.7,0,1.1-0.1,1.6-0.2c0.7-0.4,1.1-0.8,1.1-1.6c0-0.3-0.2-0.8-0.6-1c-0.3-0.2-0.9-0.3-1.8-0.5l-1.3-0.4c-1.3-0.3-2.3-0.5-2.8-1
		c-0.8-0.5-1.3-1.4-1.3-2.6c0-1.1,0.5-2.1,1.2-2.9c0.9-0.8,2.1-1.1,3.7-1.1c1.3,0,2.5,0.3,3.4,1.1c0.9,0.8,1.5,1.8,1.5,3.1l-2.6,0
		c0-0.8-0.3-1.3-1-1.7c-0.4-0.2-1-0.3-1.5-0.3c-0.8,0-1.3,0.1-1.8,0.4c-0.3,0.4-0.6,0.7-0.6,1.3c0,0.4,0.2,0.7,0.6,1
		c0.2,0.1,0.9,0.3,1.8,0.4l2.2,0.6c1,0.2,1.7,0.5,2.2,0.8c0.8,0.7,1.1,1.6,1.1,2.7c0,1.1-0.4,2.1-1.3,2.9c-0.9,0.8-2.1,1.1-3.8,1.1
		C183.5,334.6,182.1,334.3,181.1,333.5z M198.7,355.2c-1.2,1.2-3,1.9-5.2,1.9c-2.3,0-4-0.7-5.2-1.9c-1.7-1.5-2.4-3.9-2.4-6.6
		c0-3,0.7-5.4,2.4-6.8c1.2-1.2,2.9-1.9,5.2-1.9c2.2,0,4,0.7,5.2,1.9c1.7,1.4,2.4,3.8,2.4,6.8C201.1,351.4,200.3,353.7,198.7,355.2z
		 M197.8,323.8v10.6l-2.7,0v-10.6h-3.9v-2.2l10.3,0l0,2.2L197.8,323.8z M203.4,321.6h6.1c0.9,0,1.5,0.1,2,0.4
		c0.4,0.2,0.9,0.4,1.2,0.7c0.3,0.4,0.5,0.7,0.7,1.1c0.1,0.5,0.2,0.9,0.2,1.4c0,0.5-0.1,1.2-0.4,1.6c-0.3,0.7-0.8,1-1.5,1.4
		c0.6,0.2,1,0.5,1.2,1c0.3,0.4,0.4,1.1,0.4,2v0.7c0,0.6,0,1,0.1,1.3c0.1,0.3,0.2,0.5,0.4,0.6v0.4l-2.9,0c-0.1-0.4-0.1-0.6-0.2-0.7
		c-0.1-0.3-0.1-0.8-0.1-1.1l0-1.1c0-0.8-0.1-1.5-0.4-1.7c-0.3-0.2-0.8-0.3-1.5-0.3H206v5h-2.6L203.4,321.6z M215.7,354.5
		c-1,1.8-2.9,2.7-5.6,2.7c-2.7,0-4.6-0.9-5.6-2.7c-0.6-0.8-0.8-2.3-0.8-4.1l0-9.9h3.3l0,9.9c0,1.3,0.1,2,0.5,2.6
		c0.4,0.9,1.3,1.3,2.6,1.3c1.4,0,2.2-0.4,2.6-1.3c0.2-0.6,0.3-1.3,0.3-2.6v-9.9h3.4l0,9.9C216.5,352.2,216.2,353.7,215.7,354.5z
		 M217.9,334.4h-2.7l4.5-12.8l3,0l4.5,12.8l-2.8,0l-0.8-2.7h-4.7L217.9,334.4z M232.5,356.8h-3.6c-0.1-0.5-0.2-0.7-0.2-0.9
		c-0.1-0.5-0.2-0.9-0.2-1.5v-1.4c0-1-0.2-1.8-0.5-2.1c-0.4-0.5-1-0.6-1.9-0.6h-3.2v6.5l-3.3,0v-16.4h7.6c1.1,0,1.9,0.1,2.5,0.4
		c0.6,0.2,1.1,0.7,1.5,1.1c0.3,0.4,0.6,0.9,0.8,1.3c0.2,0.6,0.3,1.1,0.3,1.8c0,0.8-0.2,1.6-0.6,2.3c-0.4,0.8-1,1.4-1.8,1.7
		c0.7,0.3,1.2,0.8,1.5,1.2c0.3,0.6,0.5,1.5,0.5,2.6v1.1c0,0.6,0,1.2,0.1,1.4c0.1,0.5,0.3,0.8,0.6,0.9V356.8z M247.3,355.2
		c-1.3,1.2-2.9,1.9-5.2,1.9c-2.3,0-4-0.7-5.2-1.9c-1.6-1.5-2.4-3.9-2.4-6.6c0-3,0.8-5.4,2.4-6.8c1.2-1.2,2.9-1.9,5.2-1.9
		c2.3,0,3.9,0.7,5.2,1.9c1.5,1.4,2.4,3.8,2.4,6.8C249.6,351.4,248.8,353.7,247.3,355.2z M268.2,349.7c-0.9,0.7-2.3,1.2-4,1.2h-3.3
		v5.9h-3.3v-16.4h6.9c1.6,0,2.9,0.4,3.8,1.2c0.9,0.9,1.4,2.1,1.4,3.9C269.5,347.5,269.1,348.8,268.2,349.7z M284.7,356.8H281
		c-0.1-0.5-0.2-0.7-0.2-0.9c-0.1-0.5-0.1-0.9-0.1-1.5l0-1.4c0-1-0.2-1.8-0.6-2.1c-0.3-0.5-0.9-0.6-1.8-0.6l-3.3,0l0,6.5h-3.3l0-16.4
		l7.7,0c1.1,0,1.9,0.1,2.5,0.4c0.6,0.2,1.1,0.7,1.5,1.1c0.3,0.4,0.6,0.9,0.8,1.3c0.2,0.6,0.4,1.1,0.4,1.8c0,0.8-0.2,1.6-0.6,2.3
		c-0.3,0.8-1,1.4-1.9,1.7c0.8,0.3,1.3,0.8,1.6,1.2c0.3,0.6,0.4,1.5,0.4,2.6v1.1c0,0.6,0,1.2,0.1,1.4c0.1,0.5,0.3,0.8,0.7,0.9V356.8z
		 M299.5,356.8l-12.1,0l0-16.4h11.6l0,2.8h-8.4l0,3.6h7.7v2.9h-7.7v4.2l8.8,0V356.8z M309.5,343.2l0,13.6h-3.3l0-13.6h-4.8l0-2.8
		l12.9,0l0,2.8H309.5z M312.6,334.4h-2.5l-2.4-10.7l0,1c0,0.5,0,0.8,0,1l0,8.7h-2.5v-12.8h3.9l2.3,10l2.3-10l3.8,0l0,12.8l-2.5,0
		v-8.7c0-0.2,0-0.5,0-1c0-0.4,0-0.8,0-1L312.6,334.4z M328.6,355.2c-1.2,1.2-3,1.9-5.2,1.9c-2.3,0-4-0.7-5.2-1.9
		c-1.6-1.5-2.5-3.9-2.5-6.6c0-3,0.8-5.4,2.5-6.8c1.2-1.2,3-1.9,5.2-1.9c2.3,0,4,0.7,5.2,1.9c1.6,1.4,2.4,3.8,2.4,6.8
		C331,351.4,330.2,353.7,328.6,355.2z M328.1,334.4l-0.8-2.7h-4.7l-0.9,2.7l-2.8,0l4.5-12.8h3l4.4,12.8H328.1z M294.1,263.2h21.1
		c2.9,0,5.4,0.5,7.5,1.3c2.1,0.8,3.7,1.9,5,3.2c1.3,1.5,2.2,2.9,2.8,4.7c0.6,1.8,0.9,3.6,0.9,5.5c0,1.9-0.3,3.7-0.9,5.5
		c-0.6,1.8-1.5,3.3-2.8,4.7c-1.3,1.3-2.9,2.4-5,3.3c-2.1,0.8-4.5,1.2-7.5,1.2h-10.8v16.7h-10.2V263.2z M293.7,321.6l9.3,0l0,2.2
		h-6.7l0,2.7h6.2l0,2.2h-6.2v3.2h7l0,2.4h-9.6L293.7,321.6z M291.4,334.4l-2.6,0l-5.1-9v9l-2.5,0v-12.8l2.8,0l5,8.9l0-8.9h2.5
		L291.4,334.4z"/>
	<path id="XMLID_259_" class="st1" d="M242.7,330.3c0.3-0.7,0.4-1.6,0.4-2.5c0-1.2-0.2-2.3-0.6-3c-0.4-0.6-1.2-1-2.4-1h-2.5v8.3h2.5
		C241.4,332,242.2,331.5,242.7,330.3z"/>
	<path id="XMLID_260_" class="st1" d="M252.4,297.2c1,1.5,2.3,2.7,3.9,3.6c1.6,0.9,3.6,1.2,5.9,1.2c2.3,0,4.3-0.4,5.9-1.2
		c1.7-0.9,2.9-2.1,3.9-3.6c1-1.5,1.8-3.1,2.2-4.9c0.5-1.9,0.7-3.8,0.7-5.7c0-2-0.2-4-0.7-5.9c-0.5-1.9-1.2-3.6-2.2-5.2
		c-1-1.4-2.2-2.6-3.9-3.5c-1.6-0.9-3.6-1.4-5.9-1.4c-2.3,0-4.2,0.5-5.9,1.4c-1.7,0.9-2.9,2-3.9,3.4c-1,1.6-1.8,3.3-2.3,5.2
		c-0.4,1.9-0.6,3.8-0.6,5.9c0,1.9,0.2,3.8,0.6,5.7C250.6,294.1,251.4,295.6,252.4,297.2z"/>
	<path id="XMLID_261_" class="st1" d="M228.1,343.5c-0.3-0.3-0.9-0.4-1.6-0.4h-3.6l0,4.5l3.5,0c0.8,0,1.3-0.1,1.7-0.4
		c0.6-0.3,1-1,1-1.7C229,344.5,228.7,343.8,228.1,343.5z"/>
	<path id="XMLID_262_" class="st1" d="M242.1,342.7c-1.4,0-2.4,0.4-3.2,1.4c-0.8,1-1.2,2.5-1.2,4.4c0,1.7,0.5,3.2,1.2,4.2
		c0.8,1,1.8,1.4,3.2,1.4c1.3,0,2.4-0.4,3.1-1.4c0.7-1,1.2-2.5,1.2-4.2c0-1.9-0.5-3.4-1.2-4.4C244.4,343.2,243.4,342.7,242.1,342.7z"
		/>
	<path id="XMLID_265_" class="st1" d="M72.8,249c40.2,0,72.8-32.6,72.8-72.8c0-40.2-32.6-72.8-72.8-72.8C32.6,103.4,0,136,0,176.2
		C0,216.4,32.6,249,72.8,249z M74.8,239.5c-10.4,0-18.9-8.4-18.9-18.9c0-10.4,8.4-18.9,18.9-18.9s18.9,8.4,18.9,18.9
		C93.6,231.1,85.2,239.5,74.8,239.5z M135,190.5c0,10.4-8.4,18.9-18.9,18.9s-18.9-8.4-18.9-18.9s8.4-18.9,18.9-18.9
		S135,180.1,135,190.5z M100.9,121.6c10.4,0,18.9,8.4,18.9,18.9s-8.4,18.9-18.9,18.9S82,150.9,82,140.4S90.5,121.6,100.9,121.6z
		 M73.8,171.3c2.5,0,4.6,2.1,4.6,4.6c0,2.5-2.1,4.6-4.6,4.6s-4.6-2.1-4.6-4.6C69.2,173.3,71.2,171.3,73.8,171.3z M47.9,121.6
		c10.4,0,18.9,8.4,18.9,18.9s-8.4,18.9-18.9,18.9S29,150.9,29,140.4S37.5,121.6,47.9,121.6z M13.4,190.2c0-10.4,8.4-18.9,18.9-18.9
		s18.9,8.4,18.9,18.9S42.7,209,32.3,209S13.4,200.6,13.4,190.2z"/>
	<rect id="XMLID_271_" x="37.9" y="310.2" class="st1" width="16.1" height="27.4"/>
	<polygon id="XMLID_272_" class="st1" points="17.6,343.2 35.2,337.2 35.2,309.8 17.6,303.8 	"/>
	<rect id="XMLID_273_" x="368.1" y="206.6" class="st1" width="29.3" height="99.8"/>
	<polygon id="XMLID_274_" class="st1" points="404.5,206.3 404.5,306.1 441.3,328.6 441.3,182.3 	"/>
	<path id="XMLID_277_" class="st2" d="M245.3,303.6c2,2.1,4.4,3.8,7.2,5c2.9,1.2,6,1.8,9.6,1.8c3.7,0,6.8-0.7,9.7-1.8
		c2.8-1.2,5.3-2.9,7.2-5.1c2-2.3,3.4-4.7,4.5-7.6c1.1-2.9,1.6-6.2,1.6-9.5c0-3.5-0.5-6.7-1.6-9.6c-1-3-2.5-5.6-4.5-7.8
		c-2-2.3-4.4-3.9-7.2-5.2c-2.8-1.2-6-1.8-9.7-1.8c-3.6,0-6.8,0.6-9.6,1.8c-2.9,1.3-5.3,2.9-7.2,5.2c-2,2.1-3.4,4.8-4.5,7.7
		c-1,2.9-1.6,6.1-1.6,9.6c0,3.3,0.5,6.5,1.6,9.5C241.8,298.9,243.3,301.4,245.3,303.6z M250.1,280.7c0.5-1.9,1.3-3.6,2.3-5.2
		c1-1.4,2.3-2.6,3.9-3.4c1.6-0.9,3.6-1.4,5.9-1.4c2.3,0,4.3,0.5,5.9,1.4c1.7,0.9,2.9,2,3.9,3.5c1,1.5,1.8,3.3,2.2,5.2
		c0.5,1.9,0.7,3.8,0.7,5.9c0,1.9-0.2,3.8-0.7,5.7c-0.5,1.8-1.2,3.4-2.2,4.9c-1,1.5-2.2,2.7-3.9,3.6c-1.6,0.9-3.6,1.2-5.9,1.2
		c-2.3,0-4.2-0.4-5.9-1.2c-1.7-0.9-2.9-2.1-3.9-3.6c-1-1.5-1.8-3.1-2.3-4.9c-0.4-1.9-0.6-3.8-0.6-5.7
		C249.5,284.6,249.7,282.6,250.1,280.7z"/>
	<rect id="XMLID_278_" x="141.2" y="264.3" class="st2" width="4.3" height="44.6"/>
	<polygon id="XMLID_279_" class="st2" points="159.9,271.2 160,271.2 186.4,308.9 191.2,308.9 191.2,264.3 186.8,264.3 186.8,302 
		186.7,302 160.4,264.3 155.6,264.3 155.6,308.9 159.9,308.9 	"/>
	<polygon id="XMLID_280_" class="st2" points="231.9,305.2 204.8,305.2 204.8,287.6 229.9,287.6 229.9,284 204.8,284 204.8,267.8 
		231.6,267.8 231.6,264.3 200.5,264.3 200.5,308.9 231.9,308.9 	"/>
	<path id="XMLID_281_" class="st2" d="M153.7,325.7c0-0.2,0-0.5,0-1c0-0.4,0-0.8,0-1l2.4,10.7h2.5l2.5-10.7c0,0.2,0,0.7,0,1
		c0,0.5,0,0.8,0,1v8.7l2.4,0v-12.8h-3.8l-2.3,10l-2.3-10h-3.9v12.8h2.5L153.7,325.7z"/>
	<path id="XMLID_284_" class="st2" d="M171.8,334.7c1.8,0,3.2-0.4,4.2-1.4c1.3-1.3,1.9-3,1.9-5.4c0-2.3-0.6-4.1-1.9-5.2
		c-1-1-2.3-1.4-4.2-1.4c-1.8,0-3.2,0.4-4.1,1.4c-1.2,1.1-1.9,2.9-1.9,5.2c0,2.4,0.7,4,1.9,5.4C168.6,334.2,170,334.7,171.8,334.7z
		 M169.3,324.6c0.6-0.8,1.4-1.1,2.4-1.1c1.1,0,1.9,0.3,2.6,1.1c0.5,0.8,0.9,1.9,0.9,3.3c0,1.5-0.4,2.6-0.9,3.4
		c-0.7,0.7-1.5,1.1-2.6,1.1c-1,0-1.9-0.5-2.4-1.1c-0.7-0.8-0.9-1.9-0.9-3.4C168.4,326.5,168.7,325.4,169.3,324.6z"/>
	<path id="XMLID_285_" class="st2" d="M190.2,330.6c0-1.1-0.3-2-1.1-2.7c-0.4-0.3-1.2-0.6-2.2-0.8l-2.2-0.6
		c-0.9-0.2-1.5-0.3-1.8-0.4c-0.3-0.4-0.6-0.6-0.6-1c0-0.6,0.2-0.9,0.6-1.3c0.5-0.2,1-0.3,1.8-0.4c0.6,0,1.1,0.1,1.5,0.3
		c0.7,0.4,0.9,0.9,1,1.7l2.6,0c-0.1-1.3-0.6-2.3-1.5-3.1c-1-0.8-2.1-1.1-3.4-1.1c-1.7,0-2.9,0.3-3.7,1.1c-0.8,0.8-1.2,1.8-1.2,2.9
		c0,1.2,0.5,2.1,1.3,2.6c0.6,0.5,1.5,0.7,2.8,1l1.3,0.4c0.8,0.1,1.4,0.3,1.8,0.5c0.4,0.2,0.6,0.6,0.6,1c0,0.8-0.4,1.2-1.1,1.6
		c-0.5,0.1-0.9,0.2-1.6,0.2c-1.1,0-1.9-0.2-2.2-0.8c-0.2-0.2-0.4-0.8-0.5-1.3h-2.5c0,1.3,0.5,2.3,1.4,3.1c1,0.8,2.3,1.1,4,1.1
		c1.7,0,2.9-0.3,3.8-1.1C189.8,332.7,190.2,331.7,190.2,330.6z"/>
	<path id="XMLID_288_" class="st2" d="M206,329.4h2.5c0.8,0,1.2,0.1,1.5,0.3c0.3,0.2,0.4,0.8,0.4,1.7l0,1.1c0,0.3,0,0.8,0.1,1.1
		c0,0.1,0.1,0.3,0.2,0.7l2.9,0v-0.4c-0.2-0.1-0.4-0.3-0.4-0.6c0-0.3-0.1-0.7-0.1-1.3v-0.7c0-0.9-0.1-1.6-0.4-2
		c-0.2-0.5-0.6-0.8-1.2-1c0.7-0.4,1.2-0.7,1.5-1.4c0.3-0.5,0.4-1.1,0.4-1.6c0-0.6-0.1-1-0.2-1.4c-0.2-0.3-0.4-0.6-0.7-1.1
		c-0.3-0.3-0.7-0.6-1.2-0.7c-0.5-0.3-1.1-0.4-2-0.4h-6.1l0,12.8h2.6V329.4z M206,323.8l2.9,0c0.5,0,0.9,0.1,1.3,0.4
		c0.4,0.2,0.7,0.7,0.7,1.5c0,0.8-0.3,1.2-0.7,1.5c-0.4,0.1-0.7,0.2-1.3,0.2l-2.8,0V323.8z"/>
	<path id="XMLID_291_" class="st2" d="M244.8,331.9c0.7-1.1,1-2.5,1-4.3c0-0.7-0.1-1.3-0.2-2.1c-0.1-0.8-0.5-1.3-0.9-2
		c-0.5-0.8-1.2-1.3-2.1-1.5c-0.6-0.3-1.2-0.3-2-0.4l-5.4,0v12.8h5.4C242.4,334.4,243.8,333.5,244.8,331.9z M237.6,332v-8.3h2.5
		c1.2,0,2,0.5,2.4,1c0.4,0.7,0.6,1.8,0.6,3c0,0.9-0.1,1.8-0.4,2.5c-0.4,1.2-1.3,1.7-2.5,1.7H237.6z"/>
	<path id="XMLID_292_" class="st2" d="M268.9,323.6c0.9,0,1.6,0.4,2.1,0.9c0.3,0.3,0.5,0.8,0.6,1.3h2.7c0-0.7-0.4-1.5-0.9-2.3
		c-1-1.3-2.5-2.1-4.7-2.1c-1.5,0-2.8,0.6-3.9,1.6c-1.2,1.2-1.8,2.8-1.7,5.1c0,2,0.4,3.6,1.5,4.7c1,1.1,2.5,1.8,4.3,1.8
		c1.5,0,2.6-0.4,3.6-1.3c1-0.9,1.5-2,1.8-3.5l-2.7,0c-0.1,0.7-0.3,1.3-0.6,1.6c-0.5,0.5-1.2,0.9-2.1,0.9c-0.8,0-1.6-0.5-2.2-1.1
		c-0.5-0.8-0.9-1.8-0.9-3.2c0-1.5,0.3-2.6,0.8-3.4C267.3,324.1,268,323.6,268.9,323.6z"/>
	<path id="XMLID_293_" class="st2" d="M315.1,325.7v8.7l2.5,0l0-12.8l-3.8,0l-2.3,10l-2.3-10h-3.9v12.8h2.5l0-8.7c0-0.2,0-0.5,0-1
		l0-1l2.4,10.7h2.5l2.5-10.7c0,0.2,0,0.7,0,1C315.1,325.2,315.1,325.5,315.1,325.7z"/>
	<path id="XMLID_296_" class="st2" d="M163.3,342.8c-0.7-1-1.7-1.8-2.7-2.1c-0.6-0.2-1.4-0.3-2.4-0.3h-6.9v16.4h6.9
		c2.3,0,4.2-1,5.3-3.1c0.9-1.6,1.2-3.5,1.2-5.6c0-0.9-0.1-1.8-0.2-2.6C164.2,344.5,163.8,343.6,163.3,342.8z M160.8,351.4
		c-0.5,1.7-1.6,2.5-3.3,2.5h-3.1v-10.8l3.1,0c1.6,0,2.6,0.5,3.1,1.5c0.6,0.9,0.8,2.2,0.8,3.7C161.3,349.6,161.2,350.7,160.8,351.4z"
		/>
	<path id="XMLID_299_" class="st2" d="M193.5,339.8c-2.2,0-4,0.7-5.2,1.9c-1.7,1.4-2.4,3.8-2.4,6.8c0,2.8,0.7,5.2,2.4,6.6
		c1.2,1.2,2.9,1.9,5.2,1.9c2.2,0,4-0.7,5.2-1.9c1.7-1.5,2.4-3.9,2.4-6.6c0-3-0.7-5.4-2.4-6.8C197.5,340.5,195.7,339.8,193.5,339.8z
		 M196.6,352.8c-0.8,1-1.9,1.4-3.1,1.4c-1.3,0-2.3-0.4-3.1-1.4c-0.8-1-1.2-2.5-1.2-4.2c0-1.9,0.3-3.4,1.2-4.4c0.8-1,1.9-1.4,3.1-1.4
		c1.3,0,2.3,0.4,3.1,1.4c0.8,1,1.1,2.5,1.1,4.4C197.7,350.3,197.4,351.8,196.6,352.8z"/>
	<path id="XMLID_300_" class="st2" d="M213.1,340.5v9.9c0,1.3-0.1,2-0.3,2.6c-0.4,0.9-1.2,1.3-2.6,1.3c-1.3,0-2.2-0.4-2.6-1.3
		c-0.3-0.6-0.5-1.3-0.5-2.6l0-9.9h-3.3l0,9.9c0,1.8,0.2,3.3,0.8,4.1c1,1.8,2.9,2.7,5.6,2.7c2.8,0,4.6-0.9,5.6-2.7
		c0.5-0.8,0.8-2.3,0.8-4.1l0-9.9H213.1z"/>
	<path id="XMLID_303_" class="st2" d="M232,355.3c-0.1-0.2-0.1-0.8-0.1-1.4v-1.1c0-1.1-0.2-2-0.5-2.6c-0.2-0.5-0.8-1-1.5-1.2
		c0.8-0.3,1.5-0.9,1.8-1.7c0.4-0.6,0.6-1.4,0.6-2.3c0-0.7-0.1-1.2-0.3-1.8c-0.2-0.4-0.5-1-0.8-1.3c-0.4-0.4-0.9-0.9-1.5-1.1
		c-0.6-0.2-1.4-0.3-2.5-0.4h-7.6v16.4l3.3,0v-6.5h3.2c0.9,0,1.5,0.1,1.9,0.6c0.3,0.3,0.5,1,0.5,2.1v1.4c0,0.6,0.1,1,0.2,1.5
		c0.1,0.2,0.1,0.4,0.2,0.9h3.6v-0.5C232.2,356.1,232.1,355.8,232,355.3z M228.1,347.2c-0.4,0.3-0.9,0.4-1.7,0.4l-3.5,0l0-4.5h3.6
		c0.7,0,1.2,0.1,1.6,0.4c0.6,0.3,0.9,1,0.9,2C229,346.3,228.7,347,228.1,347.2z"/>
	<path id="XMLID_306_" class="st2" d="M242.1,339.8c-2.3,0-4,0.7-5.2,1.9c-1.6,1.4-2.4,3.8-2.4,6.8c0,2.8,0.8,5.2,2.4,6.6
		c1.2,1.2,2.9,1.9,5.2,1.9c2.3,0,3.9-0.7,5.2-1.9c1.5-1.5,2.4-3.9,2.4-6.6c0-3-0.8-5.4-2.4-6.8C246,340.5,244.3,339.8,242.1,339.8z
		 M245.2,352.8c-0.8,1-1.8,1.4-3.1,1.4c-1.4,0-2.4-0.4-3.2-1.4c-0.8-1-1.2-2.5-1.2-4.2c0-1.9,0.5-3.4,1.2-4.4c0.8-1,1.8-1.4,3.2-1.4
		c1.3,0,2.3,0.4,3.1,1.4c0.7,1,1.2,2.5,1.2,4.4C246.3,350.3,245.9,351.8,245.2,352.8z"/>
	<path id="XMLID_309_" class="st2" d="M264.4,340.4h-6.9v16.4h3.3v-5.9h3.3c1.7,0,3.1-0.5,4-1.2c0.9-0.8,1.4-2.2,1.4-4.1
		c0-1.8-0.5-3.1-1.4-3.9C267.2,340.8,266,340.4,264.4,340.4z M265.6,347.3c-0.4,0.5-1,0.7-1.7,0.7h-3l0-4.9h3c0.7,0,1.4,0.2,1.7,0.6
		c0.5,0.3,0.7,1,0.7,1.9C266.3,346.3,266.1,347,265.6,347.3z"/>
	<path id="XMLID_312_" class="st2" d="M284.1,355.3c-0.1-0.2-0.1-0.8-0.1-1.4v-1.1c0-1.1-0.1-2-0.4-2.6c-0.3-0.5-0.8-1-1.6-1.2
		c0.9-0.3,1.6-0.9,1.9-1.7c0.4-0.6,0.6-1.4,0.6-2.3c0-0.7-0.1-1.2-0.4-1.8c-0.2-0.4-0.4-1-0.8-1.3c-0.4-0.4-0.9-0.9-1.5-1.1
		c-0.6-0.2-1.4-0.3-2.5-0.4l-7.7,0l0,16.4h3.3l0-6.5l3.3,0c0.9,0,1.5,0.2,1.8,0.6c0.4,0.3,0.6,1,0.6,2.1l0,1.4c0,0.6,0,1,0.1,1.5
		c0,0.2,0.1,0.4,0.2,0.9h3.7v-0.5C284.4,356.1,284.2,355.8,284.1,355.3z M280.2,347.2c-0.4,0.3-0.9,0.4-1.6,0.4l-3.6,0l0-4.5h3.7
		c0.7,0,1.2,0.1,1.6,0.4c0.6,0.3,0.9,1,0.9,2C281.1,346.3,280.8,347,280.2,347.2z"/>
	<path id="XMLID_315_" class="st2" d="M323.4,339.8c-2.3,0-4,0.7-5.2,1.9c-1.6,1.4-2.5,3.8-2.5,6.8c0,2.8,0.8,5.2,2.5,6.6
		c1.2,1.2,3,1.9,5.2,1.9c2.3,0,4-0.7,5.2-1.9c1.6-1.5,2.4-3.9,2.4-6.6c0-3-0.8-5.4-2.4-6.8C327.4,340.5,325.6,339.8,323.4,339.8z
		 M326.5,352.8c-0.8,1-1.8,1.4-3.1,1.4c-1.3,0-2.4-0.4-3.2-1.4c-0.8-1-1.2-2.5-1.2-4.2c0-1.9,0.4-3.4,1.2-4.4c0.8-1,1.8-1.4,3.2-1.4
		c1.3,0,2.3,0.4,3.1,1.4c0.8,1,1.2,2.5,1.2,4.4C327.7,350.3,327.3,351.8,326.5,352.8z"/>
	<polygon id="XMLID_316_" class="st2" points="191.2,321.6 191.2,323.8 195.1,323.8 195.1,334.4 197.8,334.4 197.8,323.8 
		201.5,323.8 201.5,321.6 	"/>
	<path id="XMLID_319_" class="st2" d="M224.3,334.4l2.8,0l-4.5-12.8l-3,0l-4.5,12.8h2.7l0.9-2.7h4.7L224.3,334.4z M219.5,329.5
		l1.6-5l1.6,5H219.5z"/>
	<polygon id="XMLID_320_" class="st2" points="257.3,321.6 248,321.6 248,334.4 257.7,334.4 257.7,331.9 250.6,331.9 250.6,328.7 
		256.8,328.7 256.8,326.5 250.6,326.5 250.6,323.8 257.3,323.8 	"/>
	<rect id="XMLID_321_" x="276.2" y="321.6" class="st2" width="2.6" height="12.8"/>
	<polygon id="XMLID_322_" class="st2" points="288.9,330.5 283.9,321.6 281.1,321.6 281.1,334.4 283.6,334.4 283.6,325.3 
		288.8,334.4 291.4,334.4 291.4,321.6 288.9,321.6 	"/>
	<polygon id="XMLID_323_" class="st2" points="303.3,331.9 296.2,331.9 296.2,328.7 302.4,328.7 302.4,326.5 296.2,326.5 
		296.2,323.8 303,323.8 303,321.6 293.7,321.6 293.7,334.4 303.3,334.4 	"/>
	<path id="XMLID_326_" class="st2" d="M323.5,321.6l-4.5,12.8l2.8,0l0.9-2.7h4.7l0.8,2.7h2.8l-4.4-12.8H323.5z M323.4,329.5l1.6-5
		l1.6,5H323.4z"/>
	<polygon id="XMLID_327_" class="st2" points="170.6,349.6 178.4,349.6 178.4,346.7 170.6,346.7 170.6,343.2 179,343.2 179,340.4 
		167.4,340.4 167.4,356.8 179.4,356.8 179.4,353.8 170.6,353.8 	"/>
	<polygon id="XMLID_328_" class="st2" points="290.7,349.6 298.4,349.6 298.4,346.7 290.7,346.7 290.7,343.2 299.1,343.2 
		299.1,340.4 287.4,340.4 287.4,356.8 299.5,356.8 299.5,353.8 290.7,353.8 	"/>
	<polygon id="XMLID_329_" class="st2" points="301.4,340.4 301.4,343.2 306.2,343.2 306.2,356.8 309.5,356.8 309.5,343.2 
		314.3,343.2 314.3,340.4 	"/>
	<path id="XMLID_330_" class="st2" d="M97.7,302.8c1.8,2.1,4,3.8,6.6,5.1c2.7,1.4,5.8,1.9,9.3,1.9c2.6,0,5-0.4,7.2-1.2
		c2.2-0.9,4-2,5.7-3.6c1.7-1.4,2.9-3.3,3.9-5.7c1-2.2,1.7-4.7,2-7.5h-4.2c-0.2,2.2-0.7,4-1.5,5.7c-0.7,1.7-1.8,3.3-3,4.6
		c-1.2,1.2-2.7,2.2-4.3,3c-1.7,0.8-3.6,1.1-5.7,1.1c-3,0-5.5-0.5-7.7-1.6c-2.2-1.1-4-2.6-5.3-4.5c-1.3-1.9-2.4-3.9-3-6.4
		c-0.7-2.3-1-4.8-1-7.1c0-2.5,0.3-4.8,1-7.3c0.6-2.3,1.7-4.3,3-6.2c1.3-1.9,3.1-3.5,5.3-4.6c2.2-1.1,4.7-1.7,7.7-1.7
		c1.6,0,3.2,0.4,4.7,0.8c1.5,0.5,2.9,1.1,4.1,2c1.2,0.9,2.3,2,3.1,3.5c0.9,1.3,1.6,2.9,1.9,4.6h4.3c-0.4-2.4-1-4.5-2.2-6.3
		c-1.1-1.8-2.4-3.2-4.1-4.5c-1.7-1.2-3.5-2.1-5.6-2.7c-2-0.6-4.1-1-6.2-1c-3.6,0-6.6,0.6-9.3,2c-2.7,1.2-4.8,3-6.6,5.1
		c-1.8,2.1-3.1,4.6-3.9,7.4c-0.9,2.8-1.4,5.7-1.4,8.8c0,3.1,0.5,6,1.4,8.8C94.6,298.2,95.9,300.7,97.7,302.8z"/>
	<path id="XMLID_333_" class="st2" d="M304.4,292.8h10.8c2.9,0,5.4-0.4,7.5-1.2c2.1-0.9,3.7-2,5-3.3c1.3-1.5,2.2-2.9,2.8-4.7
		c0.6-1.8,0.9-3.7,0.9-5.5c0-1.9-0.3-3.7-0.9-5.5c-0.6-1.8-1.5-3.3-2.8-4.7c-1.3-1.3-2.9-2.4-5-3.2c-2.1-0.9-4.5-1.3-7.5-1.3h-21.1
		v46.3h10.2V292.8z M304.4,271.2h8c1.2,0,2.3,0.1,3.4,0.2c1.1,0.1,2,0.6,2.9,1c0.8,0.6,1.5,1.1,2,2c0.6,0.9,0.8,2.1,0.8,3.6
		c0,1.5-0.2,2.7-0.8,3.6c-0.4,0.9-1.1,1.5-2,2.1c-0.8,0.4-1.8,0.8-2.9,1c-1.1,0.1-2.2,0.2-3.4,0.2l-8,0V271.2z"/>
	<polygon id="XMLID_334_" class="st2" points="137.2,331 137.2,332.6 144.4,332.6 144.4,331 	"/>
	<path id="XMLID_337_" class="st2" d="M144.6,329.1c-0.1-0.2-0.1-0.5-0.1-0.8v-4c0-1.2-0.5-2-1.5-2.4c-0.6-0.2-1.4-0.3-2.4-0.3
		c-1.4,0-2.4,0.3-3,1c-0.4,0.4-0.6,1-0.7,1.8h2.2c0.1-0.4,0.3-0.6,0.5-0.8c0.2-0.2,0.6-0.3,1-0.3c0.4,0,0.7,0,1,0.1
		c0.4,0.1,0.6,0.4,0.6,0.8c0,0.2-0.1,0.4-0.2,0.5c-0.2,0.1-0.4,0.2-0.6,0.2l-1.6,0.2c-1,0.1-1.7,0.3-2.1,0.6c-0.7,0.5-1,1.2-1,2.1
		c0,0.6,0.1,1,0.4,1.4c0.5,0.7,1.3,1.1,2.5,1.1c0.6,0,1.2-0.1,1.7-0.4c0.3-0.2,0.7-0.4,1.1-0.8c0,0.2,0,0.4,0.1,0.5
		c0,0.1,0.1,0.3,0.1,0.4h2.5v-0.4C144.8,329.5,144.7,329.3,144.6,329.1z M142.2,326.7c0,0.5-0.1,0.8-0.2,0.9
		c-0.1,0.2-0.2,0.3-0.4,0.4c-0.1,0.1-0.3,0.2-0.5,0.3c-0.4,0.1-0.7,0.2-1,0.2c-0.4,0-0.7-0.1-0.9-0.3c-0.2-0.2-0.4-0.4-0.4-0.8
		c0-0.3,0.1-0.6,0.4-0.8c0.2-0.2,0.7-0.4,1.3-0.4l0.6-0.1c0.3,0,0.5-0.1,0.6-0.1c0.1,0,0.3-0.1,0.4-0.2V326.7z"/>
	<path id="XMLID_338_" class="st2" d="M101.4,323c-0.3,1-0.7,1.9-1.3,2.5c-0.9,0.9-2,1.5-3.3,1.8c-0.9,0.2-2.4,0.3-4.5,0.4v4.6h8.1
		v23.9h7v-34.6h-5.7C101.7,321.9,101.6,322.4,101.4,323z"/>
	<path id="XMLID_339_" class="st2" d="M128.9,337.8c0.8-0.3,1.6-0.9,2.4-1.8c1.2-1.4,1.8-3.1,1.8-5.1c0-2.8-1-5.1-3-6.8
		c-2-1.7-4.6-2.5-7.9-2.5c-1.8,0-3.2,0.2-4.5,0.6c-1.2,0.4-2.3,1-3.1,1.8c-1.2,1.1-2,2.4-2.6,3.7c-0.5,1.5-0.8,3.1-0.9,4.8h6.3
		c0-1.7,0.3-3,1.1-4c0.7-1,1.9-1.5,3.5-1.5c1.4,0,2.5,0.4,3.2,1.2c0.8,0.8,1.1,1.9,1.1,3.2c0,2-0.7,3.4-2.2,4
		c-0.9,0.4-2.4,0.6-4.6,0.6v4.8c2.2,0,3.9,0.2,4.9,0.6c1.8,0.8,2.7,2.3,2.7,4.5c0,1.7-0.5,3-1.5,3.9c-1,0.9-2.1,1.4-3.5,1.4
		c-2.2,0-3.6-0.8-4.5-2.5c-0.4-0.9-0.7-2-0.7-3.4h-6.6c0.1,2.7,0.7,4.9,1.7,6.6c1.9,3.2,5.3,4.7,10.1,4.7c3.9,0,6.9-1.1,8.9-3.3
		c2-2.2,3-4.7,3-7.6c0-2.8-0.9-4.9-2.6-6.5C130.4,338.3,129.5,337.8,128.9,337.8z"/>
</g>
</svg>
