<?xml version="1.0" encoding="utf-8"?>
<!-- Generator: Adobe Illustrator 19.0.0, SVG Export Plug-In . SVG Version: 6.00 Build 0)  -->
<svg version="1.1" id="Layer_1" xmlns="http://www.w3.org/2000/svg" xmlns:xlink="http://www.w3.org/1999/xlink" x="0px" y="0px"
	 width="113.5px" height="82.1px" viewBox="-91.5 375.5 113.5 82.1" style="enable-background:new -91.5 375.5 113.5 82.1;"
	 xml:space="preserve">
<style type="text/css">
	.st0{fill:none;}
	.st1{fill:#583839;}
	.st2{fill:#00AB8E;}
	.st3{fill:#3F393A;}
	.st4{fill:#1ABAB3;}
	.st5{fill:#9D3234;}
</style>
<g>
	<path class="st0" d="M-60.3,406.5c-2.3,4.2-3.6,9-3.6,14.1c0,12.4,7.7,23,18.6,27.2c2.5,1,5.1,1.6,7.9,1.8c0.9,0.1,1.7,0.1,2.6,0.1
		c16.1,0,29.2-13.1,29.2-29.2c0-13.9-9.8-25.6-22.9-28.5c-2-0.4-4.1-0.7-6.3-0.7C-45.8,391.4-55.4,397.5-60.3,406.5z M-17.9,420.5
		c0,10.5-8,19-17.9,19c-2,0-3.9-0.4-5.7-1c-1.2-0.4-2.3-1-3.3-1.6c-5.3-3.3-8.8-9.4-8.8-16.3c0-0.1,0-0.2,0-0.3
		c0.1-10.3,8.1-18.7,17.9-18.7c1.8,0,3.5,0.3,5.2,0.8C-23.3,404.7-17.9,412-17.9,420.5z"/>
	<polygon class="st0" points="-68.4,391.4 -83.1,391.4 -83.1,401.6 -65.8,401.6 -65.8,396.2 -65.8,391.4 	"/>
	<path class="st1" d="M-35.8,439.5c9.9,0,17.9-8.5,17.9-19c0-8.6-5.4-15.8-12.7-18.1l-10.9,36.1C-39.8,439.1-37.8,439.5-35.8,439.5z
		"/>
	<path class="st2" d="M-53.7,420.5c0,7,3.6,13,8.8,16.3l-8.8-16.6C-53.7,420.3-53.7,420.4-53.7,420.5z"/>
	<path class="st3" d="M-53.7,420.3l8.8,16.6c1,0.7,2.2,1.2,3.3,1.6l10.9-36.1c-1.6-0.5-3.4-0.8-5.2-0.8
		C-45.6,401.6-53.6,409.9-53.7,420.3z"/>
	<path class="st4" d="M-45.3,447.7l-3,9.9h15.2l-4.3-8.1C-40.2,449.3-42.8,448.7-45.3,447.7z"/>
	<polygon class="st5" points="6.5,375.5 5.6,375.5 6.5,379.6 	"/>
	<path class="st5" d="M12.9,383.4H7.3l14.6,65.8c0-0.2,0-0.4,0-0.6v-56.2C21.9,387.5,17.9,383.4,12.9,383.4z"/>
	<path class="st1" d="M6.5,383.4v-3.8l-0.9-4.1h-23.3v7.9h-8.1l-2.6,8.6c13.1,2.9,22.9,14.5,22.9,28.5c0,16.1-13.1,29.2-29.2,29.2
		c-0.9,0-1.8,0-2.6-0.1l4.3,8.1h46c4.8,0,8.7-3.7,9-8.4L7.5,383.5h-1V383.4z"/>
	<path class="st2" d="M-63.9,420.5c0-5.1,1.3-9.9,3.6-14.1l-5.5-10.2v5.4h-17.3v-10.2h14.7l-4.2-7.9h-9.9c-4.9,0-9,4-9,9v56.2
		c0,4.9,4,9,9,9h34.2l3-9.9C-56.2,443.5-63.9,432.9-63.9,420.5z"/>
	<path class="st3" d="M-65.8,391.4v4.8l5.5,10.3c5-9,14.5-15.1,25.5-15.1c2.2,0,4.3,0.2,6.3,0.7l2.6-8.6h-46.7l4.2,7.9
		C-68.4,391.4-65.8,391.4-65.8,391.4z"/>
</g>
</svg>
