<?xml version="1.0" encoding="utf-8"?>
<!-- Generator: Adobe Illustrator 19.0.0, SVG Export Plug-In . SVG Version: 6.00 Build 0)  -->
<svg version="1.1" id="Layer_1" xmlns="http://www.w3.org/2000/svg" xmlns:xlink="http://www.w3.org/1999/xlink" x="0px" y="0px"
	 width="817px" height="563.6px" viewBox="0 0 817 563.6" style="enable-background:new 0 0 817 563.6;" xml:space="preserve">
<style type="text/css">
	.st0{clip-path:url(#XMLID_459_);fill:#0BB2AF;}
	.st1{clip-path:url(#XMLID_459_);fill:#00A789;}
	.st2{clip-path:url(#XMLID_459_);fill:#73423F;}
	.st3{clip-path:url(#XMLID_459_);fill:#D82D2E;}
	.st4{clip-path:url(#XMLID_459_);fill:#0CB2B0;}
	.st5{clip-path:url(#XMLID_460_);fill:#FFFFFF;}
	.st6{fill:#FFFFFF;}
	.st7{clip-path:url(#XMLID_461_);fill:#25B4B1;}
	.st8{clip-path:url(#XMLID_462_);fill:#FFFFFF;}
	.st9{clip-path:url(#XMLID_463_);fill:#FFFFFF;}
	.st10{clip-path:url(#XMLID_464_);fill:#FFFFFF;}
	.st11{clip-path:url(#XMLID_465_);fill:#FFFFFF;}
	.st12{clip-path:url(#XMLID_466_);fill:#FFFFFF;}
	.st13{clip-path:url(#XMLID_467_);fill:#FFFFFF;}
	.st14{clip-path:url(#XMLID_468_);fill:#FFFFFF;}
	.st15{clip-path:url(#XMLID_469_);fill:#FFFFFF;}
	.st16{clip-path:url(#XMLID_470_);fill:#FFFFFF;}
	.st17{clip-path:url(#XMLID_471_);fill:#FFFFFF;}
	.st18{clip-path:url(#XMLID_472_);fill:#FFFFFF;}
	.st19{clip-path:url(#XMLID_473_);fill:#D72D26;}
	.st20{clip-path:url(#XMLID_474_);fill:#FFFFFF;}
	.st21{clip-path:url(#XMLID_475_);fill:#FFFFFF;}
	.st22{clip-path:url(#XMLID_476_);fill:#FFFFFF;}
	.st23{clip-path:url(#XMLID_477_);fill:#FFFFFF;}
	.st24{clip-path:url(#XMLID_478_);fill:#FFFFFF;}
	.st25{clip-path:url(#XMLID_479_);fill:#FFFFFF;}
	.st26{clip-path:url(#XMLID_480_);fill:#FFFFFF;}
	.st27{clip-path:url(#XMLID_481_);fill:#FFFFFF;}
	.st28{clip-path:url(#XMLID_482_);fill:#FFFFFF;}
	.st29{clip-path:url(#XMLID_483_);fill:#FFFFFF;}
	.st30{clip-path:url(#XMLID_484_);fill:#FFFFFF;}
</style>
<g id="XMLID_141_">
	<g id="XMLID_436_">
		<defs>
			<path id="XMLID_437_" d="M374.1,114.5C368.3,33.9,332-4.1,265.4,0.4c-66.6,4.5-97,47-91.2,127.6l22.4,307.7
				c5.9,80.6,42.1,118.7,108.7,114.2c66.6-4.5,97-47,91.2-127.6L374.1,114.5z M332.4,461.1c1.5,21.1-8.8,32.3-31,33.8
				c-22.2,1.5-34.1-8.3-35.6-29.4L238.4,89.1c-1.5-21.1,8.8-32.3,31-33.8c22.2-1.5,34.1,8.3,35.6,29.4L332.4,461.1z M33.5,126.4
				l36.7-2.5l32,439.6l66.6-4.5l-40-549.5L61.4,9.1l1.7,17.9c2,27.9-9.2,42.7-33.6,44.4L33.5,126.4z"/>
		</defs>
		<use xlink:href="#XMLID_437_"  style="overflow:visible;fill:#0BB2AF;"/>
		<clipPath id="XMLID_459_">
			<use xlink:href="#XMLID_437_"  style="overflow:visible;"/>
		</clipPath>
		<rect id="XMLID_445_" x="321" y="-16.4" class="st0" width="250.6" height="533.6"/>
		<polygon id="XMLID_444_" class="st1" points="208.8,-30.2 251.2,86.7 255.1,141.9 94.4,539.4 -18.5,121.7 4.4,2.1 		"/>
		<polygon id="XMLID_443_" class="st2" points="309.5,-32 79,570.6 324.8,598.2 356.4,3.9 		"/>
		<polygon id="XMLID_442_" class="st3" points="356.9,-35.7 323.7,605.6 566.9,561.4 412.7,-14.9 		"/>
		<polygon id="XMLID_441_" class="st4" points="218.7,-0.7 257,121.1 304,-15.9 		"/>
	</g>
	<g id="XMLID_430_">
		<defs>
			<rect id="XMLID_431_" y="2.3" width="934.6" height="547.7"/>
		</defs>
		<clipPath id="XMLID_460_">
			<use xlink:href="#XMLID_431_"  style="overflow:visible;"/>
		</clipPath>
		<path id="XMLID_432_" class="st5" d="M246.6,87.5c-2.6-35.2-18.4-51.9-47.5-49.9c-29.1,2-42.4,20.5-39.8,55.8l9.8,134.5
			c2.6,35.2,18.4,51.9,47.5,49.9c29.1-2,42.4-20.5,39.8-55.8L246.6,87.5z M228.4,239c0.7,9.2-3.9,14.1-13.6,14.8
			c-9.7,0.7-14.9-3.6-15.6-12.8l-12-164.5c-0.7-9.2,3.8-14.1,13.6-14.8c9.7-0.7,14.9,3.6,15.6,12.8L228.4,239z M97.8,92.7l16-1.1
			l14,192.1l29.1-2L139.4,41.6L110,41.5l0.7,7.8c0.9,12.2-4,18.7-14.7,19.4L97.8,92.7z"/>
	</g>
	<g id="XMLID_415_">
		<path id="XMLID_428_" class="st6" d="M286.5,250.4l6.2-0.4l0.6,7.8c0.7,9.3-2.2,14.1-8.5,14.5c-6.6,0.4-10.2-4-10.9-13.2
			l-2.6-35.3c-0.7-9.3,2.3-14.1,8.8-14.5c6.3-0.4,9.8,4,10.5,13.2l0.4,5.8l-6.2,0.4l-0.7-9.7c-0.2-2.4-1.4-3.6-3.5-3.4
			c-2.2,0.1-3.2,1.4-3,3.8l3.1,43.2c0.2,2.4,1.4,3.6,3.5,3.4c2.2-0.1,3.2-1.4,3-3.8L286.5,250.4z"/>
		<path id="XMLID_426_" class="st6" d="M299.4,271.3l-4.6-63.1l6.6-0.4l4.6,63.1L299.4,271.3z"/>
		<path id="XMLID_424_" class="st6" d="M315.5,233l-1.8-8.4l3.3,45.5l-5.9,0.4l-4.6-63.1l7.9-0.5l9.3,35.5l2,9.5l-3.3-45.5l5.9-0.4
			l4.6,63.1l-7.9,0.5L315.5,233z"/>
		<path id="XMLID_422_" class="st6" d="M343.8,262l10.1-0.7l0.5,6.3l-16.6,1.1l-4.6-63.1l16.6-1.1l0.5,6.3l-10.1,0.7l1.6,21.5
			l5.7-0.4l0.5,6.3l-5.7,0.4L343.8,262z"/>
		<path id="XMLID_418_" class="st6" d="M375.7,223.1c0.4,5.7-0.9,9.4-3.9,11c3.2,1.3,5,4.8,5.5,10.4l0.6,7.6
			c0.7,9.3-2.3,14.1-8.8,14.5l-9.8,0.7l-4.6-63.1l9.8-0.7c6.6-0.4,10.2,4,10.8,13.2L375.7,223.1z M368.4,213.3
			c-0.2-2.4-1.4-3.6-3.5-3.4l-3.3,0.2l1.6,21.5l3.4-0.2c2.1-0.1,3.1-1.4,2.9-3.8L368.4,213.3z M370.4,241c-0.2-2.3-1.3-3.5-3.5-3.4
			l-3.4,0.2l1.7,22.7l3.3-0.2c2.2-0.1,3.2-1.4,3-3.8L370.4,241z"/>
		<path id="XMLID_416_" class="st6" d="M388.1,229.9l6.6-0.4l-2-27.8l6.6-0.4l4.6,63.1l-6.6,0.4l-2.1-29l-6.6,0.4l2.1,29l-6.6,0.4
			l-4.6-63.1l6.6-0.4L388.1,229.9z"/>
	</g>
	<g id="XMLID_359_">
		<path id="XMLID_413_" class="st6" d="M189.2,350.3l-4.4-60.5l6.3-0.4l4.4,60.5L189.2,350.3z"/>
		<path id="XMLID_411_" class="st6" d="M204.7,313.5l-1.7-8l3.2,43.6l-5.7,0.4l-4.4-60.5l7.5-0.5l8.9,34l1.9,9.1l-3.2-43.6l5.7-0.4
			l4.4,60.5l-7.5,0.5L204.7,313.5z"/>
		<path id="XMLID_409_" class="st6" d="M219.8,287.5l18.9-1.3l0.4,6l-6.3,0.4l4,54.4l-6.3,0.4l-4-54.4l-6.3,0.4L219.8,287.5z"/>
		<path id="XMLID_407_" class="st6" d="M251.1,340l9.7-0.6l0.4,6l-16,1.1l-4.4-60.5l15.9-1.1l0.4,6l-9.7,0.6l1.5,20.6l5.5-0.4l0.4,6
			l-5.5,0.4L251.1,340z"/>
		<path id="XMLID_404_" class="st6" d="M271.5,344.7l-6.3,0.4l-4.4-60.5l9.7-0.7c7-0.5,10.8,3.5,11.4,12l0.5,6.7
			c0.4,5.6-0.9,9.7-4,12.3l6.8,28.9l-6.4,0.4l-6-27.5l-3.3,0.2L271.5,344.7z M272.5,310.6c2.7-0.2,4-1.6,3.8-4.4l-0.9-12.4
			c-0.2-2.7-1.7-4-4.5-3.8l-3.4,0.2l1.5,20.6L272.5,310.6z"/>
		<path id="XMLID_402_" class="st6" d="M294,307.5l-1.7-8l3.2,43.6l-5.7,0.4l-4.4-60.5l7.5-0.5l9,34l1.9,9.1l-3.2-43.6l5.7-0.4
			l4.4,60.5l-7.5,0.5L294,307.5z"/>
		<path id="XMLID_399_" class="st6" d="M313.2,341.9l3.9-61l6.4-0.4l12.7,59.9l-6.4,0.4l-1.8-9l-8,0.5l-0.4,9.1L313.2,341.9z
			 M320.4,325.8l6.3-0.4l-3.4-16.9l-1.8-10.7l-0.2,10.7L320.4,325.8z"/>
		<path id="XMLID_397_" class="st6" d="M329.4,280.1l18.9-1.3l0.4,6l-6.3,0.4l4,54.4l-6.3,0.4l-4-54.4l-6.3,0.4L329.4,280.1z"/>
		<path id="XMLID_395_" class="st6" d="M355.4,339.1l-4.4-60.5l6.3-0.4l4.4,60.5L355.4,339.1z"/>
		<path id="XMLID_392_" class="st6" d="M384.6,323.8c0.6,8.9-2.2,13.5-8.5,13.9c-6.3,0.4-9.8-3.8-10.4-12.7l-2.5-33.9
			c-0.6-8.9,2.2-13.5,8.5-13.9c6.3-0.4,9.8,3.8,10.4,12.7L384.6,323.8z M375.6,286.5c-0.2-2.3-1.3-3.4-3.4-3.3
			c-2.1,0.1-3.1,1.4-2.9,3.7l3,41.4c0.2,2.3,1.3,3.4,3.4,3.3c2.1-0.1,3.1-1.4,2.9-3.7L375.6,286.5z"/>
		<path id="XMLID_390_" class="st6" d="M394.8,300.7l-1.7-8l3.2,43.6l-5.7,0.4l-4.4-60.5l7.5-0.5l9,34l1.9,9.1l-3.2-43.6l5.7-0.4
			l4.4,60.5l-7.5,0.5L394.8,300.7z"/>
		<path id="XMLID_387_" class="st6" d="M414,335.1l3.9-61l6.4-0.4l12.7,59.9l-6.4,0.4l-1.8-9l-8,0.5l-0.4,9.1L414,335.1z M421.2,319
			l6.3-0.4l-3.4-16.9l-1.8-10.7l-0.2,10.7L421.2,319z"/>
		<path id="XMLID_385_" class="st6" d="M444.5,327l9.7-0.6l0.4,6l-16,1.1l-4.4-60.5l6.3-0.4L444.5,327z"/>
		<path id="XMLID_383_" class="st6" d="M474.1,331.1l-6.3,0.4l-4.4-60.5l16-1.1l0.4,6l-9.7,0.7l1.5,20.6l5.5-0.4l0.4,6l-5.5,0.4
			L474.1,331.1z"/>
		<path id="XMLID_381_" class="st6" d="M488.2,330.2l-4.4-60.5l6.3-0.4l4.4,60.5L488.2,330.2z"/>
		<path id="XMLID_379_" class="st6" d="M504.5,323l9.7-0.6l0.4,6l-16,1.1l-4.4-60.5l6.3-0.4L504.5,323z"/>
		<path id="XMLID_377_" class="st6" d="M518.8,328.1l-4.4-60.5l9.2-0.6l6.5,32.3L532,310l0.2-10.7l1.8-32.9l9.4-0.6l4.4,60.5
			l-5.7,0.4l-3.4-47.3l-0.3,7.3l-2.6,40.4l-5.2,0.4l-8.5-40.2l-1.1-6.6l3.4,47.2L518.8,328.1z"/>
		<path id="XMLID_375_" class="st6" d="M568,324.8l-6.3,0.4l-4.4-60.5l16-1.1l0.4,6l-9.7,0.6l1.5,20.6l5.5-0.4l0.4,6L566,297
			L568,324.8z"/>
		<path id="XMLID_373_" class="st6" d="M587.5,317.4l9.7-0.6l0.4,6l-16,1.1l-4.4-60.5l16-1.1l0.4,6l-9.7,0.7l1.5,20.6l5.5-0.4l0.4,6
			l-5.5,0.4L587.5,317.4z"/>
		<path id="XMLID_371_" class="st6" d="M610,270.8c-0.2-2.3-1.1-3.4-2.9-3.3c-1.8,0.1-2.6,1.3-2.4,3.7l0.6,8.2
			c0.2,2.6,2.4,6.3,6.6,10.9c4.2,4.7,6.5,8.8,6.7,12.4l0.4,5.3c0.6,8.9-2,13.5-8,13.9c-6,0.4-9.3-3.8-9.9-12.7l-0.5-7.5l6.3-0.4
			l0.8,11.3c0.2,2.3,1.1,3.4,2.9,3.3c1.8-0.1,2.6-1.3,2.4-3.7l-0.5-6.9c-0.3-3.7-2.5-7.9-6.7-12.4c-4.2-4.5-6.5-9.1-6.8-13.7
			l-0.3-3.9c-0.6-8.9,2-13.5,8-13.9c6-0.4,9.3,3.8,9.9,12.7l0.4,5.5l-6.3,0.4L610,270.8z"/>
		<path id="XMLID_369_" class="st6" d="M618.4,260.6l18.9-1.3l0.4,6l-6.3,0.4l4,54.4l-6.3,0.4l-4-54.4l-6.3,0.4L618.4,260.6z"/>
		<path id="XMLID_367_" class="st6" d="M644.4,319.7l-4.4-60.5l6.3-0.4l4.4,60.5L644.4,319.7z"/>
		<path id="XMLID_365_" class="st6" d="M671.8,257l-3.9,61l-6.4,0.4l-12.7-59.9l6.4-0.4l6.5,32.3l1.7,10.7l0.2-10.7l1.9-32.9
			L671.8,257z"/>
		<path id="XMLID_362_" class="st6" d="M672.8,317.7l3.9-61l6.4-0.4l12.7,59.9l-6.4,0.4l-1.8-9l-8,0.5l-0.4,9.1L672.8,317.7z
			 M680,301.6l6.3-0.4l-3.4-16.9l-1.8-10.7l-0.2,10.7L680,301.6z"/>
		<path id="XMLID_360_" class="st6" d="M703.3,309.6l9.7-0.6l0.4,6l-16,1.1l-4.4-60.5l6.3-0.4L703.3,309.6z"/>
	</g>
	<g id="XMLID_356_">
		<defs>
			<rect id="XMLID_357_" y="2.3" width="934.6" height="547.7"/>
		</defs>
		<clipPath id="XMLID_461_">
			<use xlink:href="#XMLID_357_"  style="overflow:visible;"/>
		</clipPath>
		<path id="XMLID_358_" class="st7" d="M628.5,152.1l162.6-10.9c1.3,9.7,9.1,17.1,18.3,17.6l0.1,1.9c-1.8,0.1-3.1,1.7-3,3.6
			c0.1,1.9,1.7,3.3,3.5,3.2l0.1,1.2c-1.8,0.1-3.1,1.7-3,3.6c0.1,1.9,1.7,3.3,3.5,3.2l0.1,1.2c-1.8,0.1-3.1,1.7-3,3.6
			c0.1,1.9,1.7,3.3,3.5,3.2l0.1,1.2c-1.8,0.1-3.1,1.7-3,3.6c0.1,1.9,1.7,3.3,3.5,3.2l0.1,1.2c-1.8,0.1-3.1,1.7-3,3.6
			c0.1,1.9,1.7,3.3,3.5,3.2l0.1,1.2c-1.8,0.1-3.1,1.7-3,3.6c0.1,1.9,1.7,3.3,3.4,3.2l0.1,1.2c-1.8,0.1-3.1,1.7-3,3.6
			c0.1,1.9,1.7,3.3,3.5,3.2l0.1,1.9c-9.1,1.7-15.7,10-15.6,19.9l-162.6,10.9c-1.3-9.7-9.1-17.1-18.3-17.6l-0.1-1.9
			c0.1,0,0.2,0,0.4,0c1.8-0.1,3.1-1.7,3-3.6c-0.1-1.9-1.7-3.3-3.5-3.2c-0.1,0-0.2,0-0.4,0l-0.1-1.2c0.1,0,0.2,0,0.4,0
			c1.8-0.1,3.1-1.7,3-3.6c-0.1-1.9-1.7-3.3-3.5-3.2c-0.1,0-0.2,0-0.4,0l-0.1-1.2c0.1,0,0.2,0,0.4,0c1.8-0.1,3.1-1.7,3-3.6
			c-0.1-1.9-1.7-3.3-3.5-3.2c-0.1,0-0.2,0-0.4,0l-0.1-1.2c0.1,0,0.2,0,0.4,0c1.8-0.1,3.1-1.7,3-3.6c-0.1-1.9-1.7-3.3-3.5-3.2
			c-0.1,0-0.2,0-0.4,0l-0.1-1.2c0.1,0,0.2,0,0.4,0c1.8-0.1,3.1-1.7,3-3.6c-0.1-1.9-1.7-3.3-3.5-3.2c-0.1,0-0.2,0-0.4,0l-0.1-1.2
			c0.1,0,0.2,0,0.4,0c1.8-0.1,3.1-1.7,3-3.6c-0.1-1.9-1.7-3.3-3.5-3.2c-0.1,0-0.2,0-0.4,0l-0.1-1.2c0.1,0,0.2,0,0.4,0
			c1.8-0.1,3.1-1.7,3-3.6c-0.1-1.9-1.7-3.3-3.5-3.2c-0.1,0-0.2,0-0.4,0l-0.1-1.9C621.9,170.3,628.5,161.9,628.5,152.1"/>
	</g>
	<polygon id="XMLID_355_" class="st6" points="681.1,199.6 681,197.3 667.8,198.2 693.6,181.5 692.3,179.6 666.5,196.3 672.3,184.9 
		670.1,183.9 664.3,195.3 663.4,182.6 661,182.8 661.9,195.4 654.6,184.9 652.6,186.2 659.9,196.7 648.1,191.2 647,193.2 
		658.9,198.8 645.7,199.7 645.9,202 659.1,201.1 648.1,208.2 649.5,210.1 660.4,203 654.6,214.4 656.8,215.4 662.6,204 663.5,216.7 
		665.9,216.5 664.9,203.8 672.3,214.4 674.3,213.1 666.9,202.6 693.6,215.1 694.7,213 668,200.5 	"/>
	<g id="XMLID_346_">
		<defs>
			<rect id="XMLID_347_" y="2.3" width="934.6" height="547.7"/>
		</defs>
		<clipPath id="XMLID_462_">
			<use xlink:href="#XMLID_347_"  style="overflow:visible;"/>
		</clipPath>
		<path id="XMLID_351_" class="st8" d="M693,197.5l-1.6,0.1l-0.2-3l1.2-0.1c1.1-0.1,2,0.1,2.1,1.5
			C694.6,196.6,694.2,197.5,693,197.5 M690.9,191l1.6-0.1c0.9-0.1,1.4,0.5,1.5,1.2c0.1,0.8-0.3,1.4-1.2,1.4l-1.6,0.1L690.9,191z
			 M693.7,194L693.7,194c1.1-0.4,1.4-1.1,1.4-2.2c0-0.2-0.1-0.7-0.4-1.1c-0.4-0.4-0.8-0.8-2-0.7l-2.9,0.2l0.6,8.5l2.8-0.2
			c1-0.1,2.6-0.4,2.5-2.6C695.6,194.7,695,194,693.7,194"/>
		<path id="XMLID_348_" class="st8" d="M699.7,193.9l-1.4,0.1l-0.2-2.3l1.5-0.1c0.7,0,1.1,0.5,1.1,1
			C700.6,193.2,700.4,193.8,699.7,193.9 M700.3,194.2L700.3,194.2c0.9-0.2,1.3-0.9,1.3-1.8c-0.1-0.9-0.6-1.8-1.9-1.7l-2.6,0.2
			l0.5,7.3l1-0.1l-0.2-3.3l1.1-0.1c0.3,0,1.1,0,1.2,0.8c0.2,1,0.2,1.9,0.5,2.4l1-0.1c-0.2-0.4-0.4-1.6-0.4-1.9
			C701.5,194.5,701.2,194.3,700.3,194.2"/>
	</g>
	<path id="XMLID_343_" class="st6" d="M704.3,195.2l0.9-4l0,0l1.5,3.8L704.3,195.2z M704.6,190.4l-1.9,7.4l1-0.1l0.4-1.8l2.9-0.2
		l0.7,1.7l1.1-0.1l-3-7.1L704.6,190.4z"/>
	<g id="XMLID_340_">
		<defs>
			<rect id="XMLID_341_" y="2.3" width="934.6" height="547.7"/>
		</defs>
		<clipPath id="XMLID_463_">
			<use xlink:href="#XMLID_341_"  style="overflow:visible;"/>
		</clipPath>
		<path id="XMLID_342_" class="st9" d="M710.3,191.8c-0.1-0.8,0.5-1.1,1.1-1.1c0.9-0.1,1.2,0.4,1.3,1.2l1-0.1c0-1.5-0.9-2.1-2.2-2
			c-1.3,0.1-2.2,0.8-2.1,2.1c0.2,2.2,3.5,1.8,3.6,3.4c0.1,0.9-0.5,1.2-1.3,1.3c-0.6,0-1.3-0.2-1.4-1.2l0-0.2l-1,0.1
			c0,0.7,0.2,2.3,2.4,2.2c1.2-0.1,2.3-0.7,2.2-2.2C713.8,192.9,710.5,193.4,710.3,191.8"/>
	</g>
	<polygon id="XMLID_339_" class="st6" points="715.2,189.7 715.7,197 716.7,196.9 716.2,189.6 	"/>
	<polygon id="XMLID_338_" class="st6" points="722.2,195.7 719.4,195.9 719,189.5 718,189.5 718.5,196.8 722.3,196.5 	"/>
	<g id="XMLID_335_">
		<defs>
			<rect id="XMLID_336_" y="2.3" width="934.6" height="547.7"/>
		</defs>
		<clipPath id="XMLID_464_">
			<use xlink:href="#XMLID_336_"  style="overflow:visible;"/>
		</clipPath>
		<path id="XMLID_337_" class="st10" d="M731,193.4l-1.2,0.1c0.1,1.7-0.9,1.9-1.3,1.9c-0.9,0.1-1.6-0.1-1.8-2.2l-0.2-2.3
			c-0.1-1.5,0.1-1.7,0.1-1.8c0-0.1,0.4-0.7,1.3-0.8c0.2,0,0.8,0,1,0.3c0.2,0.3,0.3,0.7,0.3,1.2l1.2-0.1c0-1.7-0.7-2.5-2.5-2.4
			c-1.7,0.1-2.8,0.9-2.6,3.3l0.2,2.4c0.2,3.3,1.9,3.3,3,3.2C729.3,196.2,731.3,196.1,731,193.4"/>
	</g>
	<polygon id="XMLID_334_" class="st6" points="732.3,188.6 732.8,195.8 733.8,195.8 733.2,188.5 	"/>
	<polygon id="XMLID_333_" class="st6" points="740.3,188 739.4,188.1 739.9,194.3 739.9,194.3 736.5,188.3 735.1,188.4 735.6,195.6 
		736.5,195.6 736,189.3 736.1,189.3 739.5,195.4 740.8,195.3 	"/>
	<polygon id="XMLID_332_" class="st6" points="746.5,194.1 743.5,194.3 743.3,191.8 746,191.6 745.9,190.8 743.2,191 743.1,188.6 
		746,188.4 745.9,187.6 742,187.9 742.6,195.2 746.5,194.9 	"/>
	<polygon id="XMLID_331_" class="st6" points="752.3,193.1 752.2,193.1 749.5,186.1 747.6,186.3 748.3,194.8 749.3,194.7 
		748.8,187.1 748.8,187.1 751.8,194.5 752.8,194.5 754.8,186.7 754.8,186.7 755.3,194.3 756.5,194.2 755.9,185.7 754,185.8 	"/>
	<g id="XMLID_328_">
		<defs>
			<rect id="XMLID_329_" y="2.3" width="934.6" height="547.7"/>
		</defs>
		<clipPath id="XMLID_465_">
			<use xlink:href="#XMLID_329_"  style="overflow:visible;"/>
		</clipPath>
		<path id="XMLID_330_" class="st11" d="M762.9,191.1l-0.3-4.6l-1,0.1l0.3,4.6c0.1,1.6-0.4,2-1.3,2.1c-0.9,0.1-1.4-0.3-1.6-1.9
			l-0.3-4.6l-1,0.1l0.3,4.6c0.1,2,1,2.8,2.6,2.6C762.3,194,763,193.1,762.9,191.1"/>
	</g>
	<polygon id="XMLID_327_" class="st6" points="770,193.3 769.4,186.1 768.6,186.1 769,192.3 769,192.3 765.6,186.3 764.2,186.4 
		764.8,193.7 765.6,193.6 765.2,187.3 765.2,187.3 768.6,193.4 	"/>
	<g id="XMLID_322_">
		<defs>
			<rect id="XMLID_323_" y="2.3" width="934.6" height="547.7"/>
		</defs>
		<clipPath id="XMLID_466_">
			<use xlink:href="#XMLID_323_"  style="overflow:visible;"/>
		</clipPath>
		<path id="XMLID_324_" class="st12" d="M775.2,190c0.1,1.7-0.3,2.2-1.7,2.3l-0.9,0.1l-0.4-5.7l1.3-0.1c1-0.1,1.5,0.4,1.6,1.9
			L775.2,190z M773.5,185.8l-2.3,0.2l0.5,7.3l1.7-0.1c1.3-0.1,2.1-0.5,2.4-1.1c0.3-0.5,0.4-1.4,0.2-3c0-0.2-0.2-1.7-0.5-2.3
			C775.2,186,774.5,185.7,773.5,185.8"/>
	</g>
	<polygon id="XMLID_321_" class="st6" points="777.7,185.5 778.2,192.8 779.2,192.7 778.7,185.4 	"/>
	
		<rect id="XMLID_320_" x="697.2" y="203.1" transform="matrix(-7.187484e-002 -0.9974 0.9974 -7.187484e-002 546.4474 915.2914)" class="st6" width="3.8" height="0.5"/>
	<g id="XMLID_307_">
		<defs>
			<rect id="XMLID_308_" y="2.3" width="934.6" height="547.7"/>
		</defs>
		<clipPath id="XMLID_467_">
			<use xlink:href="#XMLID_308_"  style="overflow:visible;"/>
		</clipPath>
		<path id="XMLID_319_" class="st13" d="M701.5,202.4c-0.4,0-0.6,0.1-0.7,0.4h0l0-0.3l-0.5,0c0,0.2,0.1,0.4,0.1,0.6l0.2,2.1l0.4,0
			l-0.1-1.6c0-0.4,0-0.8,0.5-0.8c0.4,0,0.5,0.2,0.5,0.5l0.1,1.8l0.5,0l-0.1-1.8C702.2,202.7,702,202.4,701.5,202.4"/>
		<path id="XMLID_318_" class="st13" d="M703.7,204.3l-0.1-1.6l0.6,0l0-0.3l-0.6,0l-0.1-0.7l-0.4,0.2l0,0.5l-0.5,0l0,0.3l0.5,0
			l0.1,1.9c0,0.3,0.2,0.5,0.7,0.4c0.1,0,0.3,0,0.4-0.1l0-0.3c-0.1,0-0.2,0-0.2,0C703.7,204.7,703.7,204.5,703.7,204.3"/>
		<path id="XMLID_315_" class="st13" d="M705.2,203.4c0-0.7,0.2-0.9,0.5-0.9c0.3,0,0.6,0.1,0.6,0.8L705.2,203.4z M705.7,202.1
			c-1,0.1-1,0.7-0.9,1.5c0.1,1.2,0.6,1.3,1.1,1.3c0.6,0,0.9-0.3,0.9-0.9l-0.5,0c0,0.3-0.1,0.5-0.4,0.5c-0.4,0-0.6-0.1-0.6-0.9
			l1.6-0.1l0-0.2C706.7,202.5,706.5,202.1,705.7,202.1"/>
		<path id="XMLID_314_" class="st13" d="M708,202.4L708,202.4l0-0.4l-0.4,0l0.2,2.7l0.4,0l-0.1-1.6c0-0.4,0.1-0.7,0.6-0.8
			c0,0,0.1,0,0.1,0c0,0,0.1,0,0.1,0l0-0.4C708.4,202,708.1,202,708,202.4"/>
		<path id="XMLID_313_" class="st13" d="M710.6,201.8c-0.4,0-0.6,0.1-0.7,0.4h0l0-0.3l-0.5,0c0,0.2,0.1,0.4,0.1,0.6l0.2,2.1l0.5,0
			l-0.1-1.6c0-0.4,0-0.8,0.5-0.8c0.4,0,0.5,0.2,0.5,0.5l0.1,1.8l0.5,0l-0.1-1.8C711.3,202.1,711.2,201.8,710.6,201.8"/>
		<path id="XMLID_310_" class="st13" d="M713.2,204.1c-0.3,0-0.4-0.2-0.5-0.5c0-0.6,0.5-0.6,1-0.6
			C713.8,203.9,713.5,204,713.2,204.1 M714.1,202.4c0-0.4-0.2-0.8-1-0.7c-0.6,0-0.9,0.3-0.9,0.9l0.5,0c0-0.3,0.1-0.5,0.4-0.5
			c0.5,0,0.5,0.4,0.5,0.7c-0.6,0-1.5,0.1-1.4,0.9c0,0.5,0.2,0.9,0.8,0.8c0.3,0,0.5-0.2,0.7-0.5h0l0,0.4l0.5,0c0-0.2-0.1-0.4-0.1-0.6
			L714.1,202.4z"/>
		<path id="XMLID_309_" class="st13" d="M715.6,203.5l-0.1-1.6l0.6,0l0-0.3l-0.6,0l-0.1-0.7l-0.4,0.2l0,0.5l-0.5,0l0,0.3l0.5,0
			l0.1,1.9c0,0.3,0.2,0.5,0.7,0.4c0.1,0,0.3,0,0.4-0.1l0-0.3c-0.1,0-0.2,0-0.2,0C715.7,203.9,715.7,203.7,715.6,203.5"/>
	</g>
	
		<rect id="XMLID_306_" x="715.6" y="202.6" transform="matrix(-7.339907e-002 -0.9973 0.9973 -7.339907e-002 567.2946 932.634)" class="st6" width="2.7" height="0.4"/>
	
		<rect id="XMLID_305_" x="716.5" y="200.3" transform="matrix(-7.287903e-002 -0.9973 0.9973 -7.287903e-002 568.9775 929.9864)" class="st6" width="0.5" height="0.5"/>
	<g id="XMLID_296_">
		<defs>
			<rect id="XMLID_297_" y="2.3" width="934.6" height="547.7"/>
		</defs>
		<clipPath id="XMLID_468_">
			<use xlink:href="#XMLID_297_"  style="overflow:visible;"/>
		</clipPath>
		<path id="XMLID_302_" class="st14" d="M719,203.7c-0.5,0-0.6-0.3-0.7-1.1c-0.1-0.7,0.2-0.9,0.5-0.9c0.3,0,0.6,0.1,0.6,0.8
			C719.6,203.3,719.5,203.6,719,203.7 M718.9,201.3c-1,0.1-1,0.7-1,1.5c0.1,1.2,0.6,1.3,1.1,1.3c0.6,0,1-0.2,1-1.4
			C720,201.8,719.8,201.2,718.9,201.3"/>
		<path id="XMLID_301_" class="st14" d="M721.9,201c-0.4,0-0.6,0.1-0.7,0.4h0l0-0.3l-0.5,0c0,0.2,0.1,0.4,0.1,0.6l0.2,2.1l0.5,0
			l-0.1-1.6c0-0.4,0-0.8,0.5-0.8c0.4,0,0.5,0.2,0.5,0.5l0.1,1.8l0.5,0l-0.1-1.8C722.7,201.3,722.5,201,721.9,201"/>
		<path id="XMLID_298_" class="st14" d="M724.5,203.3c-0.3,0-0.4-0.2-0.5-0.5c0-0.6,0.5-0.6,1-0.6
			C725.1,203.1,724.8,203.3,724.5,203.3 M725.4,201.6c0-0.5-0.2-0.8-1-0.7c-0.6,0-0.9,0.3-0.9,0.9l0.5,0c0-0.3,0.1-0.5,0.4-0.5
			c0.5,0,0.5,0.4,0.5,0.7c-0.6,0-1.4,0.1-1.4,0.9c0,0.5,0.2,0.9,0.8,0.8c0.3,0,0.6-0.2,0.7-0.5l0,0l0,0.4l0.5,0
			c0-0.2-0.1-0.4-0.1-0.6L725.4,201.6z"/>
	</g>
	<polygon id="XMLID_295_" class="st6" points="726.2,199.7 726.5,203.5 727,203.4 726.7,199.6 	"/>
	<g id="XMLID_276_">
		<defs>
			<rect id="XMLID_277_" y="2.3" width="934.6" height="547.7"/>
		</defs>
		<clipPath id="XMLID_469_">
			<use xlink:href="#XMLID_277_"  style="overflow:visible;"/>
		</clipPath>
		<path id="XMLID_294_" class="st15" d="M730.8,202.9c-0.4,0-0.7-0.1-0.8-1l-0.1-1c0-0.7,0-0.8,0.1-0.8c0-0.1,0.2-0.3,0.6-0.3
			c0.1,0,0.3,0,0.5,0.1c0.1,0.1,0.1,0.3,0.2,0.5l0.5,0c0-0.7-0.3-1.1-1.1-1.1c-0.8,0.1-1.3,0.4-1.2,1.5l0.1,1.1
			c0.1,1.5,0.9,1.5,1.4,1.4c0.3,0,1.1-0.1,1-1.3l-0.5,0C731.4,202.8,730.9,202.8,730.8,202.9"/>
		<path id="XMLID_291_" class="st15" d="M733.6,202.7c-0.5,0-0.6-0.3-0.7-1.1c-0.1-0.7,0.2-0.9,0.5-0.9c0.3,0,0.6,0.1,0.6,0.8
			C734.2,202.3,734.1,202.7,733.6,202.7 M733.5,200.3c-1,0.1-1,0.7-0.9,1.5c0.1,1.2,0.6,1.3,1.2,1.3c0.6,0,1-0.2,1-1.4
			C734.6,200.8,734.4,200.2,733.5,200.3"/>
		<path id="XMLID_288_" class="st15" d="M736.5,202.5c-0.5,0-0.6-0.5-0.6-0.9c0-0.4-0.1-1.1,0.4-1.2c0.6,0,0.6,0.5,0.6,0.9
			C737,202.1,737,202.5,736.5,202.5 M736.4,200.1c-0.3,0-0.5,0.2-0.6,0.4h0l0-0.3l-0.5,0l0.3,3.7l0.5,0l-0.1-1.3h0
			c0.2,0.2,0.4,0.3,0.6,0.3c0.9-0.1,0.9-0.8,0.8-1.5C737.4,200.2,736.9,200,736.4,200.1"/>
		<path id="XMLID_287_" class="st15" d="M738.6,200.4L738.6,200.4l0-0.4l-0.5,0l0.2,2.7l0.5,0l-0.1-1.6c0-0.4,0.1-0.7,0.6-0.8
			c0,0,0.1,0,0.1,0c0,0,0.1,0,0.1,0l0-0.5C739,199.9,738.8,200,738.6,200.4"/>
		<path id="XMLID_284_" class="st15" d="M741.2,202.2c-0.5,0-0.6-0.3-0.7-1.1c-0.1-0.7,0.2-0.9,0.5-0.9c0.3,0,0.6,0.1,0.6,0.8
			C741.7,201.8,741.6,202.2,741.2,202.2 M741,199.8c-1,0.1-1,0.7-1,1.5c0.1,1.2,0.6,1.3,1.2,1.3c0.6,0,1-0.2,1-1.4
			C742.1,200.3,742,199.7,741,199.8"/>
		<path id="XMLID_281_" class="st15" d="M744,202c-0.6,0-0.6-0.5-0.6-0.9c-0.1-0.7,0-1.1,0.5-1.1c0.5,0,0.6,0.5,0.6,0.9
			C744.4,201.4,744.5,202,744,202 M744.3,199.9L744.3,199.9c-0.2-0.2-0.4-0.3-0.6-0.3c-0.9,0.1-0.9,0.8-0.8,1.5
			c0.1,1.2,0.5,1.3,1,1.3c0.3,0,0.5-0.2,0.6-0.4h0l0,0.3l0.4,0l-0.3-3.8l-0.5,0L744.3,199.9z"/>
		<path id="XMLID_280_" class="st15" d="M747.6,199.4l-0.4,0l0.1,1.8c0,0.4-0.3,0.6-0.5,0.7c-0.3,0-0.5-0.2-0.5-0.5l-0.1-1.8l-0.5,0
			l0.1,2c0,0.5,0.3,0.7,0.8,0.6c0.3,0,0.5-0.2,0.7-0.4h0l0,0.3l0.5,0c0-0.2-0.1-0.4-0.1-0.6L747.6,199.4z"/>
		<path id="XMLID_279_" class="st15" d="M749.7,201.6c-0.5,0-0.6-0.3-0.7-1.1c-0.1-0.7,0.2-0.9,0.5-0.9c0.2,0,0.4,0.1,0.4,0.5l0.5,0
			c0-0.6-0.4-0.9-0.9-0.9c-1,0.1-1,0.7-0.9,1.5c0.1,1.2,0.6,1.3,1.2,1.3c0.3,0,0.9-0.3,0.8-1l-0.5,0
			C750.1,201.5,749.8,201.6,749.7,201.6"/>
		<path id="XMLID_278_" class="st15" d="M751.9,201.1l-0.1-1.6l0.6,0l0-0.3l-0.6,0l-0.1-0.7l-0.4,0.2l0,0.5l-0.5,0l0,0.3l0.5,0
			l0.1,1.9c0,0.3,0.2,0.5,0.7,0.4c0.1,0,0.3,0,0.4-0.1l0-0.3c-0.1,0-0.2,0-0.2,0C751.9,201.4,751.9,201.2,751.9,201.1"/>
	</g>
	
		<rect id="XMLID_275_" x="751.8" y="200.1" transform="matrix(-7.239871e-002 -0.9974 0.9974 -7.239871e-002 607.9008 966.0511)" class="st6" width="2.7" height="0.5"/>
	<polygon id="XMLID_274_" class="st6" points="752.8,197.9 752.8,198.3 753.3,198.3 753.3,197.8 	"/>
	<g id="XMLID_268_">
		<defs>
			<rect id="XMLID_269_" y="2.3" width="934.6" height="547.7"/>
		</defs>
		<clipPath id="XMLID_470_">
			<use xlink:href="#XMLID_269_"  style="overflow:visible;"/>
		</clipPath>
		<path id="XMLID_271_" class="st16" d="M755.3,201.2c-0.5,0-0.6-0.3-0.7-1.1c-0.1-0.7,0.2-0.9,0.5-0.9c0.3,0,0.6,0.1,0.6,0.8
			C755.9,200.9,755.8,201.2,755.3,201.2 M755.1,198.8c-1,0.1-1,0.7-0.9,1.5c0.1,1.2,0.6,1.3,1.2,1.3c0.6,0,1-0.2,1-1.4
			C756.2,199.4,756.1,198.8,755.1,198.8"/>
		<path id="XMLID_270_" class="st16" d="M758.2,198.6c-0.4,0-0.6,0.1-0.7,0.4h0l0-0.3l-0.5,0c0,0.2,0.1,0.4,0.1,0.6l0.2,2.1l0.5,0
			l-0.1-1.6c0-0.4,0-0.8,0.5-0.8c0.4,0,0.5,0.2,0.5,0.5l0.1,1.8l0.4,0l-0.1-1.8C758.9,198.9,758.8,198.6,758.2,198.6"/>
	</g>
	<polygon id="XMLID_267_" class="st6" points="763.6,200.4 763.6,200.4 762.3,197.2 761.5,197.3 761.8,201.1 762.3,201.1 762,197.7 
		762,197.7 763.4,201 763.8,201 764.7,197.5 764.7,197.5 765,200.9 765.5,200.9 765.2,197 764.4,197.1 	"/>
	<g id="XMLID_258_">
		<defs>
			<rect id="XMLID_259_" y="2.3" width="934.6" height="547.7"/>
		</defs>
		<clipPath id="XMLID_471_">
			<use xlink:href="#XMLID_259_"  style="overflow:visible;"/>
		</clipPath>
		<path id="XMLID_264_" class="st17" d="M766.7,199.2c0-0.7,0.2-0.9,0.5-0.9c0.3,0,0.6,0.1,0.6,0.8L766.7,199.2z M767.2,198
			c-1,0.1-1,0.7-0.9,1.5c0.1,1.2,0.6,1.3,1.2,1.3c0.6,0,0.9-0.3,0.9-0.9l-0.5,0c0,0.3-0.1,0.5-0.4,0.5c-0.4,0-0.6-0.1-0.6-0.9
			l1.6-0.1l0-0.2C768.2,198.4,768,198,767.2,198"/>
		<path id="XMLID_261_" class="st17" d="M769.5,199.1c0-0.7,0.2-0.9,0.5-0.9c0.3,0,0.6,0.1,0.6,0.8L769.5,199.1z M770,197.8
			c-1,0.1-1,0.7-0.9,1.5c0.1,1.2,0.6,1.3,1.2,1.3c0.6,0,0.9-0.3,0.9-0.9l-0.5,0c0,0.3-0.1,0.5-0.4,0.5c-0.4,0-0.6-0.1-0.6-0.9
			l1.6-0.1l0-0.2C771,198.2,770.8,197.8,770,197.8"/>
		<path id="XMLID_260_" class="st17" d="M772.5,199.7l-0.1-1.6l0.6,0l0-0.3l-0.6,0l-0.1-0.7l-0.4,0.2l0,0.5l-0.5,0l0,0.3l0.5,0
			l0.1,1.9c0,0.3,0.2,0.5,0.7,0.4c0.2,0,0.3,0,0.4-0.1l0-0.3c-0.1,0-0.2,0-0.2,0C772.5,200.1,772.5,199.8,772.5,199.7"/>
	</g>
	
		<rect id="XMLID_257_" x="772.4" y="198.7" transform="matrix(-7.236889e-002 -0.9974 0.9974 -7.236889e-002 631.2839 985.0522)" class="st6" width="2.7" height="0.4"/>
	<polygon id="XMLID_256_" class="st6" points="773.3,196.5 773.3,197 773.8,196.9 773.8,196.5 	"/>
	<g id="XMLID_247_">
		<defs>
			<rect id="XMLID_248_" y="2.3" width="934.6" height="547.7"/>
		</defs>
		<clipPath id="XMLID_472_">
			<use xlink:href="#XMLID_248_"  style="overflow:visible;"/>
		</clipPath>
		<path id="XMLID_255_" class="st18" d="M775.9,197.4c-0.4,0-0.6,0.1-0.7,0.4h0l0-0.3l-0.5,0c0,0.2,0.1,0.4,0.1,0.6l0.2,2.1l0.5,0
			l-0.1-1.6c0-0.4,0-0.8,0.5-0.8c0.4,0,0.5,0.2,0.5,0.5l0.1,1.8l0.4,0l-0.1-1.8C776.7,197.7,776.5,197.4,775.9,197.4"/>
		<path id="XMLID_252_" class="st18" d="M779.1,198.6c0,0.4,0.1,1-0.5,1c-0.3,0-0.6-0.2-0.6-1c0-0.4-0.1-0.9,0.5-1
			C779,197.6,779.1,198.2,779.1,198.6 M779,197.6L779,197.6c-0.2-0.2-0.4-0.4-0.7-0.3c-0.2,0-0.9,0.1-0.8,1.4c0.1,0.8,0.2,1.4,1,1.4
			c0.2,0,0.5-0.2,0.6-0.4h0l0,0.6c0,0.3-0.1,0.5-0.5,0.5c-0.2,0-0.4-0.1-0.5-0.4l-0.5,0c0,0.5,0.4,0.7,0.9,0.7c0.6,0,1-0.2,1-0.8
			l-0.2-2.9l-0.5,0L779,197.6z"/>
		<path id="XMLID_251_" class="st18" d="M691.1,205.9l0.6,0c0-0.8,0.2-1.5,0.4-2.1c0.2-0.6,0.5-1.1,0.7-1.4l0-0.4l-2.3,0.2l0,0.4
			l1.8-0.1c-0.4,0.5-0.6,1.1-0.8,1.7C691.3,204.7,691.2,205.3,691.1,205.9"/>
		<path id="XMLID_250_" class="st18" d="M693.2,201.7l0,0.5l-0.3,0l0,0.2l0.3,0l0.1,1.2c0,0.2,0.1,0.3,0.4,0.3c0.1,0,0.2,0,0.2,0
			l0-0.2c0,0-0.1,0-0.1,0c-0.1,0-0.2,0-0.2-0.2l-0.1-1.1l0.3,0l0-0.2l-0.3,0l0-0.5L693.2,201.7z"/>
		<path id="XMLID_249_" class="st18" d="M694.7,202.1c-0.2,0-0.3,0.1-0.4,0.3h0l-0.1-0.8l-0.3,0l0.2,2.3l0.3,0l-0.1-1.2
			c0-0.2,0.2-0.4,0.3-0.4c0.3,0,0.3,0.2,0.3,0.3l0.1,1.2l0.3,0l-0.1-1.2C695.2,202.4,695.2,202,694.7,202.1"/>
	</g>
	<path id="XMLID_244_" class="st6" d="M790.9,225.3l-150.1,10.1l-5.2-71.6l150.1-10.1L790.9,225.3z M634.4,162.8l5.4,73.8
		l152.3-10.2l-5.4-73.8L634.4,162.8z"/>
	<g id="XMLID_241_">
		<defs>
			<rect id="XMLID_242_" y="2.3" width="934.6" height="547.7"/>
		</defs>
		<clipPath id="XMLID_473_">
			<use xlink:href="#XMLID_242_"  style="overflow:visible;"/>
		</clipPath>
		<path id="XMLID_243_" class="st19" d="M431.9,165.3l162.6-10.9c1.3,9.7,9.1,17.1,18.3,17.6l0.1,1.9c-1.8,0.1-3.1,1.7-3,3.6
			c0.1,1.9,1.7,3.3,3.5,3.2l0.1,1.2c-1.8,0.1-3.1,1.7-3,3.6c0.1,1.9,1.7,3.3,3.5,3.2l0.1,1.2c-1.8,0.1-3.1,1.7-3,3.6
			c0.1,1.9,1.7,3.3,3.4,3.2l0.1,1.2c-1.8,0.1-3.1,1.7-3,3.6c0.1,1.9,1.7,3.3,3.4,3.2l0.1,1.2c-1.8,0.1-3.1,1.7-3,3.6
			c0.1,1.9,1.7,3.3,3.5,3.2l0.1,1.2c-1.8,0.1-3.1,1.7-3,3.6c0.1,1.9,1.7,3.3,3.4,3.2l0.1,1.2c-1.8,0.1-3.1,1.7-3,3.6
			c0.1,1.9,1.7,3.3,3.5,3.2l0.1,1.9c-9.1,1.7-15.7,10-15.6,19.9l-162.6,10.9c-1.3-9.7-9.1-17.1-18.3-17.6l-0.1-1.9
			c0.1,0,0.2,0,0.4,0c1.8-0.1,3.1-1.7,3-3.6c-0.1-1.9-1.7-3.3-3.5-3.2c-0.1,0-0.2,0-0.4,0l-0.1-1.2c0.1,0,0.2,0,0.4,0
			c1.8-0.1,3.1-1.7,3-3.6c-0.1-1.9-1.7-3.3-3.5-3.2c-0.1,0-0.2,0-0.4,0l-0.1-1.2c0.1,0,0.2,0,0.4,0c1.8-0.1,3.1-1.7,3-3.6
			c-0.1-1.9-1.7-3.3-3.5-3.2c-0.1,0-0.2,0-0.4,0l-0.1-1.2c0.1,0,0.2,0,0.4,0c1.8-0.1,3.1-1.7,3-3.6c-0.1-1.9-1.7-3.3-3.5-3.2
			c-0.1,0-0.2,0-0.4,0l-0.1-1.2c0.1,0,0.2,0,0.4,0c1.8-0.1,3.1-1.7,3-3.6c-0.1-1.9-1.7-3.3-3.5-3.2c-0.1,0-0.2,0-0.4,0l-0.1-1.2
			c0.1,0,0.2,0,0.4,0c1.8-0.1,3.1-1.7,3-3.6c-0.1-1.9-1.7-3.3-3.5-3.2c-0.1,0-0.2,0-0.4,0l-0.1-1.2c0.1,0,0.2,0,0.4,0
			c1.8-0.1,3.1-1.7,3-3.6c-0.1-1.9-1.7-3.3-3.5-3.2c-0.1,0-0.2,0-0.4,0l-0.1-1.9C425.4,183.5,432,175.2,431.9,165.3"/>
	</g>
	<path id="XMLID_237_" class="st6" d="M594.4,238.5l-19.5,1.3l-5.2-71.6l19.5-1.3L594.4,238.5z M439,177l129.5-8.7l5.2,71.6
		l-129.5,8.7L439,177z M437.8,176l5.4,73.8l152.3-10.2l-5.4-73.8L437.8,176z"/>
	<g id="XMLID_228_">
		<defs>
			<rect id="XMLID_229_" y="2.3" width="934.6" height="547.7"/>
		</defs>
		<clipPath id="XMLID_474_">
			<use xlink:href="#XMLID_229_"  style="overflow:visible;"/>
		</clipPath>
		<path id="XMLID_234_" class="st20" d="M509.6,236.3c0,0.5-0.4,0.7-0.7,0.8c-0.3,0-0.5-0.3-0.5-0.6c0-0.4,0.1-0.6,0.6-0.8
			c0.1,0,0.3-0.1,0.5-0.3L509.6,236.3z M510.6,234.3c-0.1-0.8-0.4-1.4-1.8-1.3c-0.9,0.1-1.6,0.5-1.6,1.5l0,0.1l1.1-0.1l0-0.1
			c0-0.4,0.2-0.6,0.5-0.6c0.4,0,0.6,0.2,0.6,0.5c0,0.3-0.1,0.5-0.4,0.6l-0.7,0.2c-0.8,0.3-1.2,0.6-1.1,1.5c0,0.6,0.4,1.3,1.2,1.2
			c0.6,0,0.9-0.2,1.2-0.7h0c0,0.1,0.1,0.3,0.2,0.5l1.2-0.1c-0.1-0.3-0.2-0.5-0.2-0.9L510.6,234.3z"/>
		<path id="XMLID_230_" class="st20" d="M456.3,240.4l-0.5,0l-0.1-1.8l0.5,0c0.6,0,1,0.1,1,0.8C457.4,240.1,457,240.3,456.3,240.4
			 M455.5,236.1l0.5,0c0.6,0,0.9,0.1,1,0.7c0,0.6-0.3,0.8-0.9,0.9l-0.4,0L455.5,236.1z M457.4,238L457.4,238
			c0.6-0.2,0.9-0.7,0.9-1.4c-0.1-1.2-0.9-1.5-1.9-1.4l-2.1,0.1l0.4,6l2.1-0.1c1.5-0.1,1.9-1,1.8-1.9
			C458.6,238.5,458.1,238,457.4,238"/>
	</g>
	<polygon id="XMLID_227_" class="st6" points="511.5,231.5 511.9,237.5 513.1,237.4 512.7,231.4 	"/>
	<g id="XMLID_221_">
		<defs>
			<rect id="XMLID_222_" y="2.3" width="934.6" height="547.7"/>
		</defs>
		<clipPath id="XMLID_475_">
			<use xlink:href="#XMLID_222_"  style="overflow:visible;"/>
		</clipPath>
		<path id="XMLID_224_" class="st21" d="M500.1,237.6c-0.6,0-0.7-0.6-0.8-1.6c-0.1-0.9-0.1-1.6,0.5-1.6c0.5,0,0.7,0.4,0.8,1.6
			C500.7,237.1,500.6,237.6,500.1,237.6 M499.8,233.6c-1.4,0.1-1.8,1-1.7,2.5c0.1,1.6,0.6,2.4,2,2.3c1.4-0.1,1.8-1,1.7-2.5
			C501.7,234.3,501.3,233.5,499.8,233.6"/>
		<path id="XMLID_223_" class="st21" d="M504.9,233.3c-0.5,0-0.9,0.3-1.2,0.7h0l0-0.5l-1.2,0.1l0.3,4.6l1.2-0.1l-0.2-3
			c0-0.5,0.2-0.8,0.6-0.8c0.4,0,0.5,0.1,0.6,0.6l0.2,3.1l1.2-0.1l-0.2-3.4C506.1,233.6,505.7,233.2,504.9,233.3"/>
	</g>
	<polygon id="XMLID_220_" class="st6" points="522.7,230.7 523.1,236.8 524.3,236.7 523.9,230.6 	"/>
	<polygon id="XMLID_219_" class="st6" points="516.5,237.2 517.8,237.1 517.6,234.5 519.7,234.4 519.6,233.4 517.5,233.5 
		517.4,232.1 519.7,231.9 519.6,230.9 516.1,231.2 	"/>
	<polygon id="XMLID_218_" class="st6" points="495.9,234 496.2,238.6 497.4,238.5 497.1,233.9 	"/>
	<polygon id="XMLID_217_" class="st6" points="534.6,236 535.8,235.9 535.6,233.3 537.7,233.1 537.7,232.1 535.6,232.3 535.5,230.9 
		537.7,230.7 537.6,229.7 534.1,230 	"/>
	<g id="XMLID_214_">
		<defs>
			<rect id="XMLID_215_" y="2.3" width="934.6" height="547.7"/>
		</defs>
		<clipPath id="XMLID_476_">
			<use xlink:href="#XMLID_215_"  style="overflow:visible;"/>
		</clipPath>
		<path id="XMLID_216_" class="st22" d="M529.7,231.6c-0.6,0-1,0.3-1.1,0.8l0,0c-0.2-0.5-0.6-0.7-1.1-0.7c-0.5,0-0.9,0.2-1.2,0.7h0
			l0-0.5l-1.2,0.1l0.3,4.6l1.2-0.1l-0.2-3c0-0.5,0.2-0.8,0.6-0.8c0.3,0,0.5,0.2,0.5,0.6l0.2,3.2l1.2-0.1l-0.2-3
			c0-0.5,0.2-0.8,0.6-0.8c0.3,0,0.5,0.2,0.5,0.6l0.2,3.2l1.2-0.1l-0.2-3.3C530.9,232,530.5,231.6,529.7,231.6"/>
	</g>
	<polygon id="XMLID_213_" class="st6" points="520.5,232.4 520.8,236.9 522,236.8 521.7,232.3 	"/>
	<polygon id="XMLID_212_" class="st6" points="466.7,234.5 467.2,240.5 468.5,240.4 468,234.4 	"/>
	<polygon id="XMLID_211_" class="st6" points="462.2,237.1 460.7,237.2 460.6,234.9 459.3,235 459.7,241 461,240.9 460.8,238.3 
		462.3,238.2 462.5,240.8 463.8,240.8 463.3,234.7 462,234.8 	"/>
	<g id="XMLID_195_">
		<defs>
			<rect id="XMLID_196_" y="2.3" width="934.6" height="547.7"/>
		</defs>
		<clipPath id="XMLID_477_">
			<use xlink:href="#XMLID_196_"  style="overflow:visible;"/>
		</clipPath>
		<path id="XMLID_210_" class="st23" d="M471.6,235.5c-0.5,0-0.9,0.3-1.2,0.7h0l0-0.5l-1.2,0.1l0.3,4.6l1.2-0.1l-0.2-3
			c0-0.5,0.2-0.8,0.6-0.8c0.4,0,0.5,0.1,0.6,0.6l0.2,3.1l1.2-0.1l-0.2-3.4C472.8,235.9,472.4,235.5,471.6,235.5"/>
		<path id="XMLID_209_" class="st23" d="M482.1,235.6L482.1,235.6L482,235l-1.2,0.1l0.3,4.6l1.2-0.1l-0.2-2.7c0-0.6,0.4-0.9,0.8-0.9
			c0.1,0,0.3,0,0.4,0l-0.1-1.1c-0.1,0-0.1,0-0.2,0C482.6,234.8,482.3,235.1,482.1,235.6"/>
		<path id="XMLID_208_" class="st23" d="M486.4,234.5c-0.5,0-0.9,0.3-1.2,0.7h0l0-0.5l-1.2,0.1l0.3,4.6l1.2-0.1l-0.2-3
			c0-0.5,0.2-0.8,0.6-0.8c0.4,0,0.5,0.1,0.6,0.6l0.2,3.1l1.2-0.1l-0.2-3.4C487.6,234.9,487.1,234.5,486.4,234.5"/>
		<path id="XMLID_205_" class="st23" d="M491,237.5c0,0.5-0.4,0.7-0.7,0.8c-0.3,0-0.5-0.3-0.5-0.6c0-0.4,0.1-0.6,0.6-0.8
			c0.1,0,0.3-0.1,0.5-0.3L491,237.5z M492.1,235.6c-0.1-0.8-0.4-1.4-1.8-1.3c-0.9,0.1-1.6,0.5-1.6,1.5l0,0.1l1.1-0.1l0-0.1
			c0-0.4,0.1-0.6,0.5-0.6c0.4,0,0.6,0.2,0.6,0.5c0,0.3-0.1,0.5-0.4,0.6l-0.7,0.2c-0.8,0.3-1.2,0.6-1.1,1.5c0,0.6,0.4,1.3,1.2,1.2
			c0.6,0,0.9-0.2,1.2-0.7h0c0.1,0.1,0.1,0.3,0.2,0.5l1.2-0.1c-0.1-0.3-0.2-0.4-0.2-0.9L492.1,235.6z"/>
		<path id="XMLID_204_" class="st23" d="M494.4,232.8l-1.2,0.1l0.1,1.3l-0.6,0l0.1,0.8l0.6,0l0.2,2.6c0.1,0.9,0.3,1.2,1.2,1.1
			c0.3,0,0.5-0.1,0.8-0.1l-0.1-0.8c-0.1,0-0.2,0-0.3,0c-0.4,0-0.4-0.1-0.5-0.5l-0.2-2.5l0.7,0l-0.1-0.8l-0.7,0L494.4,232.8z"/>
		<path id="XMLID_201_" class="st23" d="M477.8,237l0-0.2c0-0.4,0.1-0.9,0.6-1c0.5,0,0.6,0.3,0.7,1L477.8,237z M478.3,235.1
			c-1.6,0.1-1.8,1.3-1.7,2.5c0.1,1.1,0.2,2.4,2,2.3c1.1-0.1,1.6-0.7,1.6-1.8l-1.1,0.1c0,0.6-0.2,0.9-0.6,0.9c-0.4,0-0.6-0.5-0.7-1
			l0-0.4l2.4-0.2l0-0.3C480.1,235.9,479.7,235,478.3,235.1"/>
		<path id="XMLID_200_" class="st23" d="M475.2,234.1l-1.2,0.1l0.1,1.3l-0.6,0l0.1,0.8l0.6,0l0.2,2.6c0.1,0.9,0.3,1.2,1.2,1.1
			c0.3,0,0.5-0.1,0.8-0.1l-0.1-0.8c-0.1,0-0.2,0-0.3,0c-0.4,0-0.4-0.1-0.5-0.5l-0.2-2.5l0.7,0l-0.1-0.8l-0.7,0L475.2,234.1z"/>
		<path id="XMLID_197_" class="st23" d="M539.5,232.9l0-0.2c0-0.4,0.1-0.9,0.6-1c0.5,0,0.6,0.3,0.7,1L539.5,232.9z M540,230.9
			c-1.6,0.1-1.8,1.3-1.7,2.5c0.1,1.1,0.2,2.4,2,2.3c1.1-0.1,1.6-0.7,1.6-1.8l-1.1,0.1c0,0.6-0.2,0.9-0.6,0.9c-0.5,0-0.6-0.5-0.7-1
			l0-0.4l2.4-0.2l0-0.3C541.8,231.7,541.4,230.8,540,230.9"/>
	</g>
	<polygon id="XMLID_194_" class="st6" points="553.6,233.4 553.6,233.4 552.7,230.2 551.4,230.3 552.9,234.8 554.4,234.7 555.2,230 
		554,230.1 	"/>
	<g id="XMLID_189_">
		<defs>
			<rect id="XMLID_190_" y="2.3" width="934.6" height="547.7"/>
		</defs>
		<clipPath id="XMLID_478_">
			<use xlink:href="#XMLID_190_"  style="overflow:visible;"/>
		</clipPath>
		<path id="XMLID_191_" class="st24" d="M558.2,233c0,0.5-0.4,0.7-0.7,0.8c-0.3,0-0.5-0.3-0.5-0.6c0-0.4,0.1-0.6,0.6-0.8
			c0.1,0,0.3-0.1,0.5-0.3L558.2,233z M559.2,231.1c-0.1-0.8-0.4-1.4-1.8-1.3c-0.9,0.1-1.6,0.5-1.6,1.5l0,0.1l1.1-0.1l0-0.1
			c0-0.4,0.1-0.6,0.5-0.6c0.4,0,0.6,0.2,0.6,0.5c0,0.3-0.1,0.4-0.4,0.6l-0.7,0.2c-0.8,0.3-1.2,0.6-1.1,1.5c0,0.6,0.4,1.3,1.2,1.2
			c0.6,0,0.9-0.2,1.2-0.7h0c0.1,0.1,0.1,0.3,0.2,0.5l1.2-0.1c-0.1-0.3-0.2-0.4-0.2-0.9L559.2,231.1z"/>
	</g>
	<polygon id="XMLID_188_" class="st6" points="560.1,228.2 560.5,234.3 561.7,234.2 561.3,228.1 	"/>
	<polygon id="XMLID_187_" class="st6" points="549.5,230.4 549.8,235 551,234.9 550.7,230.3 	"/>
	<g id="XMLID_183_">
		<defs>
			<rect id="XMLID_184_" y="2.3" width="934.6" height="547.7"/>
		</defs>
		<clipPath id="XMLID_479_">
			<use xlink:href="#XMLID_184_"  style="overflow:visible;"/>
		</clipPath>
		<path id="XMLID_186_" class="st25" d="M544.9,232.7l-0.8-0.2c-0.4-0.1-0.5-0.3-0.6-0.5c0-0.3,0.2-0.5,0.5-0.5
			c0.4,0,0.6,0.2,0.6,0.7l1.1-0.1l0-0.2c-0.1-0.8-0.6-1.3-1.7-1.2c-1.3,0.1-1.7,0.7-1.6,1.5c0.1,0.6,0.4,1,1.1,1.2l0.9,0.2
			c0.2,0.1,0.5,0.2,0.5,0.5c0,0.4-0.2,0.6-0.6,0.6c-0.4,0-0.7-0.2-0.7-0.6l0-0.2l-1.1,0.1l0,0.2c0.1,0.9,0.5,1.4,1.8,1.3
			c1-0.1,1.7-0.6,1.7-1.5C546,233.2,545.7,232.9,544.9,232.7"/>
		<path id="XMLID_185_" class="st25" d="M548,229.2l-1.2,0.1l0.1,1.3l-0.6,0l0.1,0.8l0.6,0l0.2,2.6c0.1,0.9,0.3,1.2,1.2,1.1
			c0.3,0,0.5-0.1,0.8-0.1l-0.1-0.8c-0.1,0-0.2,0-0.3,0c-0.4,0-0.4-0.1-0.5-0.5l-0.2-2.5l0.7,0l-0.1-0.8l-0.7,0L548,229.2z"/>
	</g>
	<polygon id="XMLID_182_" class="st6" points="518.2,206.7 517,191.5 515.1,191.6 516.3,206.8 	"/>
	<g id="XMLID_178_">
		<defs>
			<rect id="XMLID_179_" y="2.3" width="934.6" height="547.7"/>
		</defs>
		<clipPath id="XMLID_480_">
			<use xlink:href="#XMLID_179_"  style="overflow:visible;"/>
		</clipPath>
		<path id="XMLID_181_" class="st26" d="M511.8,220c2.2-0.2,3.5-1.5,3.7-4.1c0,0,0,0,0,0c0,0,0-0.1,0-0.1l0-0.5c0-0.5,0-1.1,0-1.7
			l-0.3-3.5l-2.8,0.2l0.4,5.2c0,0.1,0,0.2,0,0.3c0,0,0,0.1,0,0.2c0,0.6-0.3,1-0.8,1.2c-0.1,0-0.1,0-0.2,0c-0.1,0-0.2,0.1-0.4,0.1
			c-1,0.1-1.5-0.4-1.6-1.5l-1.5-19.2c-0.1-1.1,0.4-1.6,1.3-1.7c1-0.1,1.5,0.4,1.6,1.5l0.3,4.3l2.8-0.2l-0.2-2.5
			c-0.3-4.1-1.9-6-4.7-5.8c-2.9,0.2-4.2,2.4-3.9,6.5l1.2,15.7C507.2,218.3,508.8,220.3,511.8,220"/>
		<path id="XMLID_180_" class="st26" d="M487.9,195.5l1.1,13.4l1.9-0.1l-1.1-13.4l1.5-0.1l-0.1-1.8l-2.4,0.2c0,0,0,0-0.1,0l-2.5,0.2
			l0.1,1.8L487.9,195.5z"/>
	</g>
	<polygon id="XMLID_177_" class="st6" points="463.6,210.7 461.8,188.8 466.4,210.5 468.8,210.3 470,188.2 471.7,210.1 474.3,209.9 
		472.1,181.9 467.7,182.3 467,202.5 463,182.6 458.7,182.9 460.9,210.9 	"/>
	<g id="XMLID_174_">
		<defs>
			<rect id="XMLID_175_" y="2.3" width="934.6" height="547.7"/>
		</defs>
		<clipPath id="XMLID_481_">
			<use xlink:href="#XMLID_175_"  style="overflow:visible;"/>
		</clipPath>
		<path id="XMLID_176_" class="st27" d="M481.2,198.6l0,0.3c0,0.6,0.3,1.2,0.7,1.8c0,0,0,0,0,0c0.3,0.4,0.6,0.9,1,1.3
			c0.4,0.5,0.7,0.9,1,1.2c0.4,0.6,0.6,1.2,0.6,1.7l0.1,1.7c0,0.3,0,0.4-0.1,0.6c-0.1,0.1-0.2,0.2-0.4,0.2c-0.1,0-0.2,0-0.2,0
			c-0.1,0-0.1-0.1-0.1-0.1c-0.1-0.1-0.2-0.3-0.2-0.5l-0.2-2.4h0l0-0.5l-1.9,0.1l0.1,1.6l0,0.4c0,0,0,0,0,0c0,0.2,0.1,0.5,0.1,0.7
			c0,0.1,0.1,0.3,0.1,0.4c0,0.1,0,0.1,0.1,0.2c0,0.2,0.1,0.3,0.2,0.4c0,0,0,0,0,0.1c0.1,0.1,0.1,0.3,0.2,0.4c0,0,0,0,0,0
			c0,0,0,0.1,0.1,0.2c0,0,0,0,0,0c0,0,0,0,0,0c0,0,0.1,0.1,0.1,0.1c0,0,0.1,0.1,0.1,0.1c0,0,0,0,0,0h0c0,0,0,0,0.1,0c0,0,0,0,0,0
			c0.1,0.1,0.1,0.1,0.2,0.2c0,0,0,0,0,0l0,0h0c0,0,0.1,0,0.1,0.1l0,0c0,0,0,0,0.1,0c0.1,0.1,0.3,0.1,0.5,0.2c0,0,0,0,0,0
			c0,0,0,0,0,0c0.1,0,0.2,0,0.3,0c0,0,0,0,0,0c0.1,0,0.2,0,0.3,0c0,0,0,0,0,0h0c0,0,0,0,0,0c0.1,0,0.2,0,0.3-0.1h0c0,0,0.1,0,0.1,0
			l0,0c0,0,0,0,0.1,0l0,0c0,0,0,0,0.1,0c0,0,0,0,0,0v0c0,0,0,0,0.1,0c0,0,0,0,0,0c0,0,0.1,0,0.1,0c0,0,0,0,0,0c0,0,0,0,0.1,0
			c0,0,0.1,0,0.1-0.1c0,0,0.1,0,0.1,0c0,0,0,0,0,0c0,0,0,0,0,0c0,0,0,0,0,0c0.1-0.1,0.2-0.2,0.3-0.2c0,0,0,0,0,0c0,0,0,0,0,0
			c0,0,0,0,0,0c0.1-0.1,0.2-0.2,0.3-0.3c0.3-0.6,0.5-1.5,0.4-2.6l-0.1-0.9c0,0,0,0,0,0l0-0.3c0-0.6-0.3-1.2-0.7-1.8c0,0,0,0,0,0
			c-0.3-0.4-0.6-0.9-1-1.3c-0.4-0.4-0.7-0.9-1-1.2c-0.4-0.6-0.6-1.2-0.6-1.7l-0.1-1.7c0-0.3,0-0.5,0.1-0.6c0.1-0.1,0.2-0.2,0.3-0.2
			c0.1,0,0.2,0,0.2,0c0.1,0,0.1,0.1,0.1,0.1c0.1,0.1,0.2,0.3,0.2,0.5l0.2,2.4l1.9-0.1l-0.1-1.5c0,0,0,0,0,0c0-0.2-0.1-0.5-0.1-0.7
			c0-0.1-0.1-0.3-0.1-0.4c0-0.1,0-0.1,0-0.2c0-0.2-0.1-0.3-0.2-0.4c0,0,0,0,0-0.1c-0.1-0.1-0.1-0.3-0.2-0.4c0,0,0,0,0,0
			c0,0,0-0.1-0.1-0.2c0,0,0,0,0,0c0,0,0,0,0,0c0,0-0.1-0.1-0.1-0.1c0,0,0-0.1-0.1-0.1c0,0,0,0,0,0c0,0,0,0,0,0c0,0,0,0-0.1,0
			c0,0,0,0,0,0c-0.1-0.1-0.1-0.1-0.2-0.2c0,0,0,0,0,0v0c0,0-0.1,0-0.1-0.1v0c0,0,0,0,0,0c-0.2-0.1-0.3-0.1-0.5-0.2c0,0,0,0,0,0h0
			c0,0,0,0,0,0c-0.1,0-0.2,0-0.3,0c0,0,0,0,0,0c-0.1,0-0.2,0-0.3,0c0,0,0,0,0,0h0c0,0,0,0,0,0c-0.1,0-0.2,0-0.3,0c0,0,0,0,0,0
			c0,0-0.1,0-0.1,0l0,0c0,0,0,0-0.1,0l0,0c0,0,0,0-0.1,0c0,0,0,0,0,0c0,0,0,0,0,0c0,0,0,0-0.1,0c0,0,0,0,0,0c0,0-0.1,0-0.1,0v0
			c0,0,0,0-0.1,0c0,0-0.1,0-0.1,0.1c0,0-0.1,0-0.1,0c0,0,0,0,0,0c0,0,0,0,0,0c0,0,0,0,0,0c-0.1,0.1-0.2,0.2-0.3,0.2c0,0,0,0,0,0
			c0,0,0,0,0,0c0,0,0,0,0,0c-0.1,0.1-0.2,0.2-0.3,0.3c-0.3,0.6-0.5,1.5-0.4,2.6L481.2,198.6C481.2,198.5,481.2,198.6,481.2,198.6"/>
	</g>
	<polygon id="XMLID_173_" class="st6" points="521.4,206.5 520.7,198 523,206.3 525.1,206.2 523.9,191 522.2,191.1 522.9,199.6 
		520.6,191.2 518.4,191.4 519.6,206.6 	"/>
	<polygon id="XMLID_172_" class="st6" points="530.8,205.8 530.7,203.9 528.3,204.1 527.9,199.1 529.3,199 529.1,197.2 527.8,197.3 
		527.4,192.6 529.8,192.4 529.6,190.6 525.4,190.9 526.6,206.1 	"/>
	<polygon id="XMLID_171_" class="st6" points="546.3,217.5 545.3,204.6 548.2,204.4 549.3,217.3 552.2,217.1 549.9,189.1 547,189.3 
		548,201.6 545.1,201.8 544.1,189.5 541.2,189.8 543.4,217.7 	"/>
	<g id="XMLID_159_">
		<defs>
			<rect id="XMLID_160_" y="2.3" width="934.6" height="547.7"/>
		</defs>
		<clipPath id="XMLID_482_">
			<use xlink:href="#XMLID_160_"  style="overflow:visible;"/>
		</clipPath>
		<path id="XMLID_168_" class="st28" d="M495,194.9c0.2,0,0.3,0,0.4,0c0,0,0.1,0,0.3,0.1c0.1,0.1,0.2,0.3,0.2,0.6l0.2,3
			c0,0.3,0,0.5-0.1,0.7c-0.1,0.1-0.3,0.2-0.6,0.2l-0.7,0.1l-0.4-4.7L495,194.9z M495.4,208.4l-0.5-6.8l0.5,0l1.5,6.8l1.9-0.1
			l-1.8-7.2c0.3-0.3,0.6-0.7,0.7-1.1c0,0,0,0,0,0c0.1-0.1,0.1-0.2,0.1-0.2c0.1-0.5,0.2-1.1,0.1-1.8l-0.1-1.6
			c-0.1-1.1-0.4-1.9-0.9-2.4c-0.5-0.5-1.2-0.8-2.1-0.7l-2.6,0.2l1.2,15.2L495.4,208.4z"/>
		<path id="XMLID_164_" class="st28" d="M535.7,193c1-0.1,1.5,0.4,1.6,1.5l0.5,6.3c0.1,0.9-0.2,1.5-0.9,1.7c-0.1,0-0.3,0.1-0.4,0.1
			l-1.5,0.1l-0.8-9.5L535.7,193z M538.8,213.6c0.1,0.9-0.2,1.5-0.9,1.7c-0.1,0-0.3,0.1-0.4,0.1l-1.5,0.1l-0.8-10.1l1.4-0.1
			c1-0.1,1.5,0.4,1.6,1.5L538.8,213.6z M533.3,217.6C533.3,217.6,533.3,217.7,533.3,217.6l0,0.9l4.4-0.3c1.1-0.1,2-0.4,2.6-1.1
			c0.3-0.2,0.5-0.6,0.5-0.6c0.7-1.1,1-2.7,0.8-4.9l-0.2-2.9l0-0.4c-0.2-2.5-1-4-2.4-4.6c0.2-0.1,0.4-0.3,0.6-0.4c-0.1,0.1,0,0,0,0
			c0.4-0.3,0.6-0.8,0.8-1.3c0,0,0,0,0,0c0.3-0.8,0.4-1.9,0.3-3.2l-0.2-2.8c-0.3-4.1-1.9-6-4.9-5.8l-4.4,0.3L533.3,217.6
			C533.3,217.6,533.3,217.6,533.3,217.6"/>
		<path id="XMLID_161_" class="st28" d="M476.8,196.4c0.1-0.1,0.2-0.2,0.4-0.2c0.2,0,0.4,0,0.5,0.1c0.1,0.1,0.2,0.3,0.2,0.5
			l0.8,10.2c0,0.3,0,0.4-0.1,0.5c-0.1,0.1-0.2,0.2-0.4,0.2c-0.2,0-0.4,0-0.5-0.1c-0.1-0.1-0.2-0.3-0.2-0.5l-0.8-10.2
			C476.6,196.7,476.7,196.5,476.8,196.4 M475.6,206.8L475.6,206.8c0,0.2,0.1,0.4,0.1,0.6c0.1,0.6,0.3,1,0.6,1.4c0,0,0,0,0,0h0
			c0,0,0,0,0,0c0,0,0,0,0,0c0,0,0,0,0,0c0.1,0,0.1,0.1,0.2,0.1c0,0,0,0,0.1,0.1v0c0.1,0.1,0.2,0.1,0.2,0.1c0.4,0.3,1,0.4,1.6,0.4h0
			c0.1,0,0.2,0,0.3,0c0.3-0.1,0.6-0.2,0.9-0.4l0,0c0.2-0.2,0.4-0.4,0.5-0.6c0.4-0.6,0.5-1.5,0.4-2.6c0,0-0.7-8.5-0.7-8.7
			c0,0,0,0,0,0c0-0.2-0.1-0.4-0.1-0.6c-0.1-0.6-0.3-1-0.6-1.4c0,0,0,0,0,0h0c0,0,0,0,0,0c0,0,0,0,0,0c0,0,0,0,0,0
			c0,0-0.1-0.1-0.2-0.1c0,0,0,0-0.1-0.1v0c-0.1-0.1-0.2-0.1-0.2-0.1c-0.4-0.3-0.9-0.4-1.5-0.4l0,0c-0.1,0-0.2,0-0.3,0
			c-0.3,0.1-0.6,0.2-0.9,0.4l-0.1,0c-0.2,0.2-0.4,0.4-0.5,0.6c-0.4,0.6-0.5,1.5-0.4,2.6C474.8,198.1,475.6,206.6,475.6,206.8"/>
	</g>
	<path id="XMLID_156_" class="st6" d="M501.6,199.7l0-0.8l0.1,0.8l0.8,4l-1.2,0.1L501.6,199.7z M501.3,205.7l1.7-0.1l0.5,2.2
		l1.9-0.1l-3.3-15l-1.9,0.1l-0.9,15.3l1.9-0.1L501.3,205.7z"/>
	<polygon id="XMLID_155_" class="st6" points="453.8,229.6 453.9,230.4 560.9,223.2 560.9,222.4 	"/>
	<g id="XMLID_148_">
		<defs>
			<rect id="XMLID_149_" y="2.3" width="934.6" height="547.7"/>
		</defs>
		<clipPath id="XMLID_483_">
			<use xlink:href="#XMLID_149_"  style="overflow:visible;"/>
		</clipPath>
		<path id="XMLID_154_" class="st29" d="M579.1,205.1l-0.1-1.2c0-0.5,0.3-0.9,0.7-0.9l0.7,0c0.8-0.1,0.9,0,1.8,0.5l2.5,1.5l0.9-0.1
			l-0.2-3.3l-0.8,0.1l0.2,2.4l-2.3-1.3c-0.8-0.5-1.1-0.6-2.2-0.6l-0.4,0c-1.2,0.1-1.7,0.8-1.7,1.9l0.1,1.1L579.1,205.1z"/>
		<path id="XMLID_150_" class="st29" d="M578.6,198.1c0-0.5,0.3-0.9,0.7-0.9l3,1.7l-2.8,0.2c-0.4,0-0.8-0.3-0.9-0.8L578.6,198.1z
			 M583.5,196.9c0.4,0,0.8,0.3,0.9,0.8l0,0.2c0,0.5-0.3,0.9-0.7,0.9l-3-1.7L583.5,196.9z M579.7,199.9l3.8-0.3
			c1.2-0.1,1.7-0.8,1.7-1.8l0-0.2c-0.1-1-0.7-1.7-1.9-1.6l-3.8,0.3c-1.2,0.1-1.7,0.8-1.7,1.8l0,0.2
			C577.9,199.3,578.5,200,579.7,199.9"/>
	</g>
	<polygon id="XMLID_147_" class="st6" points="578.9,194.4 578.3,193 584,192.6 584.1,193.9 584.9,193.9 584.7,190.6 583.9,190.6 
		584,191.7 577.4,192.2 577.5,193.1 578.1,194.4 	"/>
	<g id="XMLID_142_">
		<defs>
			<rect id="XMLID_143_" y="2.3" width="934.6" height="547.7"/>
		</defs>
		<clipPath id="XMLID_484_">
			<use xlink:href="#XMLID_143_"  style="overflow:visible;"/>
		</clipPath>
		<path id="XMLID_144_" class="st30" d="M580.5,186.9c0-0.5,0.2-0.8,0.6-0.8l1.6-0.1c0.4,0,0.8,0.2,0.9,0.7l0,0.3
			c0,0.5-0.3,0.8-0.7,0.8l-2.2,0.2L580.5,186.9z M578.9,188.9l3.8-0.3c1.2-0.1,1.7-0.9,1.7-1.7l0-0.4c-0.1-0.9-0.7-1.6-1.9-1.5
			l-1.2,0.1c-1.2,0.1-1.6,0.7-1.6,1.8l0.1,1l-1.1,0.1c-0.4,0-0.8-0.3-0.8-0.8l-0.1-1.4l-0.8,0.1l0.1,1.3
			C577.1,188.4,577.8,189,578.9,188.9"/>
	</g>
</g>
<g id="XMLID_107_">
	<path id="XMLID_139_" class="st6" d="M538.4,366.9l3.3-0.2l0.3,4.1c0.4,4.8-1.1,7.4-4.4,7.6c-3.4,0.2-5.3-2.1-5.7-6.9l-1.3-18.4
		c-0.4-4.8,1.2-7.4,4.6-7.6c3.3-0.2,5.1,2.1,5.5,6.9l0.2,3l-3.3,0.2l-0.4-5.1c-0.1-1.3-0.7-1.9-1.8-1.8c-1.1,0.1-1.7,0.7-1.6,2
		l1.6,22.5c0.1,1.3,0.7,1.9,1.9,1.8c1.1-0.1,1.7-0.7,1.6-2L538.4,366.9z"/>
	<path id="XMLID_137_" class="st6" d="M545.2,377.8l-2.4-32.9l3.4-0.2l2.4,32.9L545.2,377.8z"/>
	<path id="XMLID_135_" class="st6" d="M553.6,357.8l-0.9-4.4l1.7,23.7l-3.1,0.2l-2.4-32.9l4.1-0.3l4.9,18.5l1,4.9l-1.7-23.7l3.1-0.2
		l2.4,32.9l-4.1,0.3L553.6,357.8z"/>
	<path id="XMLID_133_" class="st6" d="M568.4,373l5.3-0.4l0.2,3.3l-8.7,0.6l-2.4-32.9l8.7-0.6l0.2,3.3l-5.3,0.4l0.8,11.2l3-0.2
		l0.2,3.3l-3,0.2L568.4,373z"/>
	<path id="XMLID_131_" class="st6" d="M576.4,375.7l-2.4-32.9l5-0.3l3.6,17.6l1,5.8l0.1-5.8l1-17.9l5.1-0.3l2.4,32.9l-3.1,0.2
		l-1.9-25.8l-0.1,4l-1.4,22l-2.8,0.2l-4.6-21.9l-0.6-3.6l1.9,25.7L576.4,375.7z"/>
	<path id="XMLID_128_" class="st6" d="M593.5,374.6l2.1-33.2l3.5-0.2l6.9,32.6l-3.5,0.2l-1-4.9l-4.4,0.3l-0.2,5L593.5,374.6z
		 M597.4,365.8l3.4-0.2l-1.8-9.2l-1-5.8l-0.1,5.8L597.4,365.8z"/>
	<path id="XMLID_126_" class="st6" d="M615.6,369.8l5.3-0.4l0.2,3.3l-8.7,0.6l-2.4-32.9l8.7-0.6l0.2,3.3l-5.3,0.4l0.8,11.2l3-0.2
		l0.2,3.3l-3,0.2L615.6,369.8z"/>
	<path id="XMLID_124_" class="st6" d="M628.8,372.2l-2.4-32.9l5-0.3l3.6,17.6l1,5.8l0.1-5.8l1-17.9l5.1-0.3l2.4,32.9l-3.1,0.2
		l-1.9-25.8l-0.1,4l-1.4,22l-2.8,0.2l-4.6-21.9l-0.6-3.6l1.9,25.7L628.8,372.2z"/>
	<path id="XMLID_122_" class="st6" d="M650.2,367.5l5.3-0.4l0.2,3.3L647,371l-2.4-32.9l8.7-0.6l0.2,3.3l-5.3,0.4l0.8,11.2l3-0.2
		l0.2,3.3l-3,0.2L650.2,367.5z"/>
	<path id="XMLID_119_" class="st6" d="M661.3,370l-3.4,0.2l-2.4-32.9l5.3-0.4c3.8-0.3,5.9,1.9,6.2,6.5l0.3,3.6
		c0.2,3-0.5,5.3-2.2,6.7l3.7,15.7l-3.5,0.2l-3.3-15l-1.8,0.1L661.3,370z M661.8,351.5c1.5-0.1,2.2-0.9,2.1-2.4l-0.5-6.7
		c-0.1-1.5-0.9-2.2-2.4-2.1l-1.8,0.1l0.8,11.2L661.8,351.5z"/>
	<path id="XMLID_117_" class="st6" d="M677.2,357.6l3.3-0.2l0.3,4.1c0.4,4.8-1.1,7.4-4.4,7.6c-3.4,0.2-5.3-2.1-5.7-6.9l-1.3-18.4
		c-0.4-4.8,1.2-7.4,4.6-7.6c3.3-0.2,5.1,2.1,5.5,6.9l0.2,3l-3.3,0.2l-0.4-5.1c-0.1-1.3-0.7-1.9-1.8-1.8c-1.1,0.1-1.7,0.7-1.6,2
		l1.6,22.5c0.1,1.3,0.7,1.9,1.9,1.8c1.1-0.1,1.7-0.7,1.6-2L677.2,357.6z"/>
	<path id="XMLID_114_" class="st6" d="M682.5,368.6l2.1-33.2l3.5-0.2l6.9,32.6l-3.5,0.2l-1-4.9l-4.4,0.3l-0.2,5L682.5,368.6z
		 M686.4,359.8l3.4-0.2l-1.8-9.2l-1-5.8l-0.1,5.8L686.4,359.8z"/>
	<path id="XMLID_111_" class="st6" d="M706.2,359.7c0.3,4.8-1.2,7.4-4.6,7.6l-5.1,0.3l-2.4-32.9l5.1-0.3c3.4-0.2,5.3,2.1,5.7,6.9
		L706.2,359.7z M701.3,339.5c-0.1-1.3-0.7-1.9-1.9-1.8l-1.7,0.1l1.9,26.3l1.7-0.1c1.1-0.1,1.7-0.7,1.6-2L701.3,339.5z"/>
	<path id="XMLID_108_" class="st6" d="M719.2,358.9c0.4,4.8-1.2,7.4-4.6,7.6c-3.4,0.2-5.3-2.1-5.7-6.9l-1.3-18.4
		c-0.4-4.8,1.2-7.4,4.6-7.6c3.4-0.2,5.3,2.1,5.7,6.9L719.2,358.9z M714.3,338.6c-0.1-1.3-0.7-1.9-1.8-1.8c-1.1,0.1-1.7,0.7-1.6,2
		l1.6,22.5c0.1,1.3,0.7,1.9,1.9,1.8c1.1-0.1,1.7-0.7,1.6-2L714.3,338.6z"/>
</g>
<g id="XMLID_101_">
	<path id="XMLID_105_" class="st6" d="M464.7,420.9c-0.2-2.9,0.7-6,2.7-9.4c2-3.4,3-6.5,2.8-9.3L470,399c-0.1-1.3-0.7-1.9-1.9-1.8
		c-1.1,0.1-1.7,0.7-1.6,2l0.4,5.1l-3.4,0.2l-0.2-3c-0.4-4.8,1.2-7.4,4.6-7.6c3.4-0.2,5.3,2.1,5.7,6.9l0.1,1.8c0.2,3-0.7,6.1-2.7,9.5
		c-2,3.4-2.9,6.4-2.8,9l0.2,2.5l6.8-0.5l0.2,3.3l-10.3,0.7L464.7,420.9z"/>
	<path id="XMLID_102_" class="st6" d="M487.9,418.4c0.4,4.8-1.2,7.4-4.6,7.6c-3.4,0.2-5.3-2.1-5.7-6.9l-1.3-18.4
		c-0.4-4.8,1.2-7.4,4.6-7.6c3.4-0.2,5.3,2.1,5.7,6.9L487.9,418.4z M483,398.1c-0.1-1.3-0.7-1.9-1.9-1.8c-1.1,0.1-1.7,0.7-1.6,2
		l1.6,22.5c0.1,1.3,0.7,1.9,1.8,1.8c1.1-0.1,1.7-0.7,1.6-2L483,398.1z"/>
</g>
<g id="XMLID_98_">
	<path id="XMLID_99_" class="st6" d="M489.2,407.4l5.7-0.4l0.2,2.6l-5.7,0.4L489.2,407.4z"/>
</g>
<g id="XMLID_54_">
	<path id="XMLID_96_" class="st6" d="M495.8,418.6c-0.2-2.9,0.7-6,2.7-9.4c2-3.4,3-6.5,2.8-9.3l-0.2-3.3c-0.1-1.3-0.7-1.9-1.8-1.8
		c-1.1,0.1-1.7,0.7-1.6,2l0.4,5.1l-3.4,0.2l-0.2-3c-0.3-4.8,1.2-7.4,4.6-7.6c3.4-0.2,5.3,2.1,5.7,6.9l0.1,1.8c0.2,3-0.7,6.1-2.7,9.5
		c-2,3.4-2.9,6.4-2.8,9l0.2,2.5l6.8-0.5l0.2,3.3l-10.3,0.7L495.8,418.6z"/>
	<path id="XMLID_94_" class="st6" d="M506.6,391.1l10.3-0.7l0.3,3.7c-1.6,4.2-2.6,8.7-2.9,13.7c-0.4,5-0.4,10.3,0,15.9l-3.4,0.2
		c-0.4-5.5-0.3-10.8,0.2-15.8c0.5-5,1.5-9.8,3.1-14.2l-7.3,0.5L506.6,391.1z"/>
	<path id="XMLID_91_" class="st6" d="M536.9,414.9c0.4,4.8-1.2,7.4-4.6,7.6l-5.1,0.3l-2.4-32.9l5.1-0.3c3.4-0.2,5.3,2.1,5.7,6.9
		L536.9,414.9z M532,394.6c-0.1-1.3-0.7-1.9-1.8-1.8l-1.7,0.1l1.9,26.3l1.7-0.1c1.1-0.1,1.7-0.7,1.6-2L532,394.6z"/>
	<path id="XMLID_89_" class="st6" d="M543.1,418.4l5.3-0.4l0.2,3.3l-8.7,0.6l-2.4-32.9l8.7-0.6l0.2,3.3l-5.3,0.4l0.8,11.2l3-0.2
		l0.2,3.3l-3,0.2L543.1,418.4z"/>
	<path id="XMLID_86_" class="st6" d="M566.1,412.9c0.4,4.8-1.2,7.4-4.6,7.6c-3.4,0.2-5.3-2.1-5.7-6.9l-1.3-18.4
		c-0.4-4.8,1.2-7.4,4.6-7.6c3.4-0.2,5.3,2.1,5.7,6.9L566.1,412.9z M561.2,392.7c-0.1-1.3-0.7-1.9-1.9-1.8c-1.1,0.1-1.7,0.7-1.6,2
		l1.6,22.5c0.1,1.3,0.7,1.9,1.8,1.8c1.1-0.1,1.7-0.7,1.6-2L561.2,392.7z"/>
	<path id="XMLID_84_" class="st6" d="M573.8,386.6l3.4-0.2l1.9,25.7c0.4,4.8-1.2,7.4-4.6,7.6c-3.4,0.2-5.3-2.1-5.7-6.9l-1.9-25.7
		l3.4-0.2l2,27.7c0.1,1.3,0.7,1.9,1.8,1.8c1.1-0.1,1.7-0.7,1.6-2L573.8,386.6z"/>
	<path id="XMLID_82_" class="st6" d="M578.7,386.3l10.3-0.7l0.2,3.3l-3.4,0.2l2.2,29.6l-3.4,0.2l-2.2-29.6l-3.4,0.2L578.7,386.3z"/>
	<path id="XMLID_80_" class="st6" d="M597.3,385l3.4-0.2l1.9,25.7c0.4,4.8-1.2,7.4-4.6,7.6c-3.4,0.2-5.3-2.1-5.7-6.9l-1.9-25.7
		l3.4-0.2l2,27.7c0.1,1.3,0.7,1.9,1.8,1.8c1.1-0.1,1.7-0.7,1.6-2L597.3,385z"/>
	<path id="XMLID_76_" class="st6" d="M614.5,394.4c0.2,3-0.5,4.9-2,5.8c1.7,0.7,2.6,2.5,2.8,5.4l0.3,4c0.4,4.8-1.2,7.4-4.6,7.6
		l-5.1,0.3l-2.4-32.9l5.1-0.3c3.4-0.2,5.3,2.1,5.7,6.9L614.5,394.4z M610.7,389.3c-0.1-1.3-0.7-1.9-1.8-1.8l-1.7,0.1l0.8,11.2
		l1.8-0.1c1.1-0.1,1.6-0.7,1.5-2L610.7,389.3z M611.8,403.8c-0.1-1.2-0.7-1.8-1.8-1.8l-1.8,0.1l0.9,11.8l1.7-0.1
		c1.1-0.1,1.7-0.7,1.6-2L611.8,403.8z"/>
	<path id="XMLID_73_" class="st6" d="M622,416.4l-3.4,0.2l-2.4-32.9l5.3-0.4c3.8-0.3,5.9,1.9,6.2,6.5l0.3,3.6c0.2,3-0.5,5.3-2.2,6.7
		l3.7,15.7l-3.5,0.2l-3.3-15l-1.8,0.1L622,416.4z M622.5,397.9c1.5-0.1,2.2-0.9,2.1-2.4l-0.5-6.7c-0.1-1.5-0.9-2.2-2.4-2.1l-1.8,0.1
		l0.8,11.2L622.5,397.9z"/>
	<path id="XMLID_70_" class="st6" d="M641.7,407.8c0.4,4.8-1.2,7.4-4.6,7.6c-3.4,0.2-5.3-2.1-5.7-6.9l-1.3-18.4
		c-0.4-4.8,1.2-7.4,4.6-7.6c3.4-0.2,5.3,2.1,5.7,6.9L641.7,407.8z M636.8,387.6c-0.1-1.3-0.7-1.9-1.9-1.8c-1.1,0.1-1.7,0.7-1.6,2
		l1.6,22.5c0.1,1.3,0.7,1.9,1.9,1.8c1.1-0.1,1.7-0.7,1.6-2L636.8,387.6z"/>
	<path id="XMLID_67_" class="st6" d="M659.9,406.6c0.4,4.8-1.2,7.4-4.6,7.6l-5.1,0.3l-2.4-32.9l5.1-0.3c3.4-0.2,5.3,2.1,5.7,6.9
		L659.9,406.6z M655,386.4c-0.1-1.3-0.7-1.9-1.9-1.8l-1.7,0.1l1.9,26.3l1.7-0.1c1.1-0.1,1.7-0.7,1.6-2L655,386.4z"/>
	<path id="XMLID_65_" class="st6" d="M666.1,410.2l5.3-0.4l0.2,3.3l-8.7,0.6l-2.4-32.9l8.7-0.6l0.2,3.3l-5.3,0.4L665,395l3-0.2
		l0.2,3.3l-3,0.2L666.1,410.2z"/>
	<path id="XMLID_63_" class="st6" d="M678.9,406.3c-0.2-2.9,0.7-6,2.7-9.4c2-3.4,3-6.5,2.8-9.3l-0.2-3.3c-0.1-1.3-0.7-1.9-1.8-1.8
		c-1.1,0.1-1.7,0.7-1.6,2l0.4,5.1l-3.4,0.2l-0.2-3c-0.4-4.8,1.2-7.4,4.6-7.6c3.4-0.2,5.3,2.1,5.7,6.9l0.1,1.8c0.2,3-0.7,6.1-2.7,9.5
		c-2,3.4-2.9,6.4-2.8,9l0.2,2.5l6.8-0.5l0.2,3.3l-10.3,0.7L678.9,406.3z"/>
	<path id="XMLID_60_" class="st6" d="M702.1,403.8c0.4,4.8-1.2,7.4-4.6,7.6c-3.4,0.2-5.3-2.1-5.7-6.9l-1.3-18.4
		c-0.4-4.8,1.2-7.4,4.6-7.6c3.4-0.2,5.3,2.1,5.7,6.9L702.1,403.8z M697.2,383.5c-0.1-1.3-0.7-1.9-1.9-1.8c-1.1,0.1-1.7,0.7-1.6,2
		l1.6,22.5c0.1,1.3,0.7,1.9,1.8,1.8c1.1-0.1,1.7-0.7,1.6-2L697.2,383.5z"/>
	<path id="XMLID_58_" class="st6" d="M702.8,381.2c1.3-0.1,1.8-1,1.7-2.6l-0.1-0.8l3.4-0.2l2.4,32.9l-3.4,0.2l-1.9-26.3l-1.9,0.1
		L702.8,381.2z"/>
	<path id="XMLID_55_" class="st6" d="M721.3,387l-3.4,0.2l-0.4-5.1c-0.1-1.3-0.7-1.9-1.8-1.8c-1.1,0.1-1.7,0.7-1.6,2l0.6,8
		c0.5-0.4,1-0.7,1.7-0.7c3.4-0.2,5.3,2.1,5.7,6.9l0.4,5.8c0.4,4.8-1.2,7.4-4.6,7.6c-3.4,0.2-5.3-2.1-5.7-6.9l-1.3-18.4
		c-0.4-4.8,1.2-7.4,4.6-7.6c3.4-0.2,5.3,2.1,5.7,6.9L721.3,387z M718.4,394.8c-0.1-1.3-0.7-1.9-1.9-1.8c-1.1,0.1-1.6,0.7-1.6,1.9
		l0.7,10.1c0.1,1.3,0.7,1.9,1.8,1.8c1.1-0.1,1.7-0.7,1.6-2L718.4,394.8z"/>
</g>
<g id="XMLID_4_">
	<path id="XMLID_51_" class="st6" d="M574,451l-2.2,0.1l-1.5-21.2l3.4-0.2c2.4-0.2,3.8,1.4,4,4.6l0.1,0.8c0.2,3.2-0.9,5-3.3,5.1
		l-1.2,0.1L574,451z M574.3,438.2c1-0.1,1.4-0.6,1.3-1.5l-0.3-3.5c-0.1-1-0.6-1.4-1.6-1.3l-1.2,0.1l0.5,6.4L574.3,438.2z"/>
	<path id="XMLID_48_" class="st6" d="M582.5,450.4l-2.2,0.1l-1.5-21.2l3.4-0.2c2.4-0.2,3.8,1.2,4,4.2l0.2,2.3c0.1,2-0.3,3.4-1.4,4.3
		l2.4,10.1l-2.2,0.1l-2.1-9.7l-1.2,0.1L582.5,450.4z M582.8,438.5c1-0.1,1.4-0.6,1.3-1.5l-0.3-4.3c-0.1-1-0.6-1.4-1.6-1.3l-1.2,0.1
		l0.5,7.2L582.8,438.5z"/>
	<path id="XMLID_45_" class="st6" d="M595.1,444.9c0.2,3.1-0.8,4.7-3,4.9c-2.2,0.1-3.4-1.3-3.6-4.4l-0.9-11.9
		c-0.2-3.1,0.8-4.7,3-4.9c2.2-0.1,3.4,1.3,3.6,4.4L595.1,444.9z M592,431.8c-0.1-0.8-0.5-1.2-1.2-1.1c-0.7,0.1-1.1,0.5-1,1.3
		l1.1,14.5c0.1,0.8,0.5,1.2,1.2,1.1c0.7,0,1.1-0.5,1-1.3L592,431.8z"/>
	<path id="XMLID_43_" class="st6" d="M599.8,439.4l3.4-0.2l0.7,9.7l-1.2-1.4c-0.4,1-1.1,1.5-2.2,1.6c-2.2,0.1-3.4-1.3-3.6-4.4
		l-0.9-11.9c-0.2-3.1,0.8-4.7,3-4.9c2.3-0.2,3.5,1.3,3.7,4.4l0.1,1.9l-2.1,0.1l-0.2-3.3c-0.1-0.8-0.5-1.2-1.4-1.1
		c-0.8,0-1.1,0.5-1,1.3l1.1,14.5c0.1,0.8,0.5,1.2,1.2,1.1c0.8-0.1,1.2-0.5,1.2-1.3l-0.3-4.3l-1.2,0.1L599.8,439.4z"/>
	<path id="XMLID_40_" class="st6" d="M607.5,448.7l-2.2,0.1l-1.5-21.2l3.4-0.2c2.4-0.2,3.8,1.2,4,4.2l0.2,2.3c0.1,2-0.3,3.4-1.4,4.3
		l2.4,10.1l-2.2,0.1l-2.1-9.7l-1.2,0.1L607.5,448.7z M607.9,436.8c1-0.1,1.4-0.6,1.3-1.5l-0.3-4.3c-0.1-1-0.6-1.4-1.6-1.3l-1.2,0.1
		l0.5,7.2L607.9,436.8z"/>
	<path id="XMLID_37_" class="st6" d="M613.1,448.3l1.4-21.4l2.2-0.1l4.5,21l-2.2,0.1l-0.6-3.2l-2.8,0.2l-0.2,3.2L613.1,448.3z
		 M615.6,442.7l2.2-0.1l-1.2-5.9l-0.6-3.7l-0.1,3.8L615.6,442.7z"/>
	<path id="XMLID_35_" class="st6" d="M622,447.7l-1.5-21.2l3.2-0.2l2.3,11.3l0.6,3.7l0.1-3.8l0.6-11.5l3.3-0.2l1.5,21.2l-2,0.1
		l-1.2-16.6l-0.1,2.6l-0.9,14.2l-1.8,0.1l-3-14.1l-0.4-2.3l1.2,16.6L622,447.7z"/>
	<path id="XMLID_32_" class="st6" d="M633,447l1.4-21.4l2.2-0.1l4.5,21l-2.2,0.1l-0.6-3.1l-2.8,0.2l-0.2,3.2L633,447z M635.6,441.3
		l2.2-0.1l-1.2-5.9l-0.6-3.7l-0.1,3.8L635.6,441.3z"/>
	<path id="XMLID_30_" class="st6" d="M645.8,438.8l2.1-0.1l0.2,2.6c0.2,3.1-0.7,4.7-2.9,4.9c-2.2,0.1-3.4-1.3-3.6-4.4l-0.9-11.9
		c-0.2-3.1,0.8-4.7,3-4.9c2.1-0.1,3.3,1.3,3.5,4.5l0.1,1.9l-2.1,0.1l-0.2-3.3c-0.1-0.8-0.5-1.2-1.2-1.1c-0.7,0.1-1.1,0.5-1,1.3
		l1.1,14.5c0.1,0.8,0.5,1.2,1.2,1.1c0.7,0,1.1-0.5,1-1.3L645.8,438.8z"/>
	<path id="XMLID_27_" class="st6" d="M649.3,445.9l1.4-21.4l2.2-0.1l4.5,21l-2.2,0.1l-0.6-3.2l-2.8,0.2l-0.2,3.2L649.3,445.9z
		 M651.8,440.3l2.2-0.1l-1.2-5.9l-0.6-3.7l-0.1,3.8L651.8,440.3z"/>
	<path id="XMLID_24_" class="st6" d="M664.5,440.2c0.2,3.1-0.8,4.7-3,4.9c-2.2,0.1-3.4-1.3-3.6-4.4l-0.9-11.9
		c-0.2-3.1,0.8-4.7,3-4.9c2.2-0.1,3.4,1.3,3.6,4.4L664.5,440.2z M661.3,427.2c-0.1-0.8-0.5-1.2-1.2-1.1c-0.7,0-1.1,0.5-1,1.3
		l1.1,14.5c0.1,0.8,0.5,1.2,1.2,1.1c0.7,0,1.1-0.5,1-1.3L661.3,427.2z"/>
	<path id="XMLID_22_" class="st6" d="M672.5,434.5l3.4-0.2l0.7,9.7l-1.2-1.4c-0.4,1-1.1,1.5-2.2,1.6c-2.2,0.1-3.4-1.3-3.6-4.4
		l-0.9-11.9c-0.2-3.1,0.8-4.7,3-4.9c2.3-0.1,3.5,1.3,3.7,4.4l0.1,1.9l-2.1,0.1l-0.2-3.3c-0.1-0.8-0.5-1.2-1.4-1.1
		c-0.8,0.1-1.1,0.5-1,1.3l1.1,14.5c0.1,0.8,0.5,1.2,1.2,1.1c0.8-0.1,1.2-0.5,1.2-1.3l-0.3-4.3l-1.2,0.1L672.5,434.5z"/>
	<path id="XMLID_19_" class="st6" d="M680.2,443.8L678,444l-1.5-21.2l3.4-0.2c2.4-0.2,3.8,1.2,4,4.2l0.2,2.3c0.1,2-0.3,3.4-1.4,4.3
		l2.4,10.1l-2.2,0.1l-2.1-9.7l-1.2,0.1L680.2,443.8z M680.6,431.9c1-0.1,1.4-0.6,1.3-1.5l-0.3-4.3c-0.1-1-0.6-1.4-1.6-1.3l-1.2,0.1
		l0.5,7.2L680.6,431.9z"/>
	<path id="XMLID_16_" class="st6" d="M685.8,443.5l1.4-21.4l2.2-0.1l4.5,21l-2.2,0.1l-0.6-3.2l-2.8,0.2l-0.2,3.2L685.8,443.5z
		 M688.3,437.8l2.2-0.1l-1.2-5.9l-0.6-3.7l-0.1,3.8L688.3,437.8z"/>
	<path id="XMLID_14_" class="st6" d="M691.5,421.8l6.6-0.4l0.2,2.1l-2.2,0.1l1.4,19.1l-2.2,0.1l-1.4-19.1l-2.2,0.1L691.5,421.8z"/>
	<path id="XMLID_12_" class="st6" d="M703.4,421l2.2-0.1l1.2,16.5c0.2,3.1-0.8,4.7-3,4.9c-2.2,0.1-3.4-1.3-3.6-4.4l-1.2-16.5
		l2.2-0.1l1.3,17.9c0.1,0.8,0.5,1.2,1.2,1.1c0.7,0,1.1-0.5,1-1.3L703.4,421z"/>
	<path id="XMLID_10_" class="st6" d="M709,441.9l-1.5-21.2l2.2-0.1l1.5,21.2L709,441.9z"/>
	<path id="XMLID_8_" class="st6" d="M710.6,420.5l6.6-0.4l0.2,2.1l-2.2,0.1l1.4,19.1l-2.2,0.1l-1.4-19.1l-2.2,0.1L710.6,420.5z"/>
	<path id="XMLID_5_" class="st6" d="M717.8,441.3l1.4-21.4l2.2-0.1l4.5,21l-2.2,0.1l-0.6-3.2l-2.8,0.2l-0.2,3.2L717.8,441.3z
		 M720.3,435.6l2.2-0.1l-1.2-5.9l-0.6-3.7l-0.1,3.8L720.3,435.6z"/>
</g>
<path id="XMLID_3_" class="st6" d="M652.6,423.5c-0.3,0-0.5,0-0.7-0.1c-0.2-0.1-0.4-0.2-0.6-0.3c-0.1-0.1-0.2-0.2-0.3-0.2
	c-0.1-0.1-0.1-0.1-0.2-0.2c-0.1,0-0.1-0.1-0.2-0.1c-0.1,0-0.1,0-0.2,0c-0.1,0-0.2,0-0.2,0.1c0,0.1-0.1,0.2-0.1,0.3v0.5h-1.2
	c0,0,0-0.1,0-0.1c0,0,0-0.1,0-0.2c0-0.1,0-0.1,0-0.2c0,0,0-0.1,0-0.1c0-0.3,0-0.5,0.1-0.7c0.1-0.2,0.2-0.4,0.3-0.5
	c0.1-0.1,0.3-0.2,0.5-0.3c0.2,0,0.4-0.1,0.6-0.1c0.3,0,0.5,0,0.7,0.1c0.2,0.1,0.4,0.2,0.5,0.3c0.1,0.1,0.1,0.1,0.2,0.2
	c0.1,0.1,0.1,0.1,0.2,0.2c0.1,0.1,0.1,0.1,0.2,0.1c0.1,0,0.1,0.1,0.2,0.1c0.1,0,0.2,0,0.2-0.1c0.1-0.1,0.1-0.2,0.1-0.3v-0.5h1.1
	c0,0.2,0,0.3,0.1,0.4c0,0.1,0,0.2,0,0.3c0,0.2,0,0.4-0.1,0.6c-0.1,0.2-0.2,0.3-0.3,0.4c-0.1,0.1-0.3,0.2-0.4,0.3
	C653,423.4,652.8,423.5,652.6,423.5z"/>
<path id="XMLID_2_" class="st6" d="M645.6,446.8c0,0.3,0,0.5,0,0.7c0,0.2-0.1,0.3-0.2,0.5c-0.1,0.1-0.2,0.2-0.2,0.3
	c-0.1,0.1-0.2,0.1-0.3,0.2c-0.1,0-0.2,0.1-0.3,0.1c-0.1,0-0.2,0-0.2,0c-0.2,0-0.3,0-0.4,0c-0.1,0-0.3-0.1-0.4-0.1l0-0.8
	c0,0,0.1,0,0.1,0s0.1,0,0.1,0c0.1,0,0.2,0,0.3,0s0.2-0.1,0.3-0.1c0.1-0.1,0.1-0.2,0.2-0.3c0-0.1,0.1-0.3,0.1-0.5l0-0.2l0.5-0.8
	l0.4,0.8L645.6,446.8z"/>
</svg>
