<?xml version="1.0" encoding="utf-8"?>
<!-- Generator: Adobe Illustrator 19.0.0, SVG Export Plug-In . SVG Version: 6.00 Build 0)  -->
<svg version="1.1" id="Layer_1" xmlns="http://www.w3.org/2000/svg" xmlns:xlink="http://www.w3.org/1999/xlink" x="0px" y="0px"
	 width="255px" height="346px" viewBox="0 0 255 346" style="enable-background:new 0 0 255 346;" xml:space="preserve">
<style type="text/css">
	.st0{fill:none;}
	.st1{fill:#FFFFFF;}
</style>
<g>
	<path class="st0" d="M163.8,332.9c-0.2-0.2-0.5-0.3-0.9-0.3l-0.8,0.1l0.4,5.2l0.9-0.1c0.4,0,0.7-0.1,0.8-0.3
		c0.2-0.2,0.2-0.5,0.2-0.9l-0.2-2.7C164.1,333.5,164,333.1,163.8,332.9z"/>
	<path class="st0" d="M158.3,333.3c-0.2-0.2-0.5-0.3-0.9-0.2l-0.9,0.1l0.3,4.8l0.9-0.1c0.4,0,0.7-0.1,0.8-0.4c0.2-0.2,0.2-0.5,0.2-1
		l-0.2-2.4C158.6,333.8,158.5,333.5,158.3,333.3z"/>
	<path class="st0" d="M198.7,335.8c-0.1,1.2-0.1,2.4-0.2,3.7l1.8-0.1c-0.2-1.2-0.5-2.4-0.7-3.6c-0.2-1.2-0.5-2.4-0.7-3.6
		C198.9,333.4,198.8,334.6,198.7,335.8z"/>
	<path class="st0" d="M104.8,209.1c-0.2-2.3-1.3-3.3-3.6-3.1l-2.7,0.2l1.2,17l2.8-0.2c2.2-0.2,3.2-1.4,3-3.6L104.8,209.1z"/>
	<path class="st0" d="M168.4,332.1c-0.6,0-0.9,0.4-0.8,1.1l0.7,9.7c0.1,0.7,0.4,1.1,1,1.1c0.6,0,0.9-0.4,0.9-1.2l-0.7-9.7
		C169.4,332.4,169,332.1,168.4,332.1z"/>
	<path class="st0" d="M185.2,336.7c-0.1,1.2-0.1,2.4-0.2,3.7l1.8-0.1c-0.2-1.2-0.5-2.4-0.7-3.6c-0.2-1.2-0.5-2.4-0.7-3.6
		C185.4,334.3,185.3,335.5,185.2,336.7z"/>
	<path class="st0" d="M174.2,324.5l-0.7-9.7c-0.1-0.7-0.4-1.1-1.1-1c-0.7,0-1,0.4-0.9,1.2l0.7,9.7c0.1,0.7,0.4,1.1,1.1,1
		C173.9,325.6,174.2,325.2,174.2,324.5z"/>
	<path class="st0" d="M195.4,312.2c-0.6,0-0.9,0.4-0.8,1.1l0.7,9.7c0.1,0.7,0.4,1.1,1,1.1c0.6,0,0.9-0.4,0.9-1.2l-0.7-9.7
		C196.3,312.5,196,312.1,195.4,312.2z"/>
	<path class="st0" d="M180.4,331.7c-0.2-0.2-0.5-0.3-0.9-0.3l-0.8,0.1l0.4,5.2l0.9-0.1c0.4,0,0.7-0.1,0.8-0.3
		c0.2-0.2,0.2-0.5,0.2-0.9l-0.2-2.7C180.7,332.3,180.6,331.9,180.4,331.7z"/>
	<path class="st0" d="M184.1,203c-0.1-1.9-1-2.8-2.7-2.7c-1.7,0.1-2.4,1.1-2.3,3.1l2.4,34.3c0.1,1.9,1,2.8,2.7,2.7
		c1.7-0.1,2.4-1.1,2.3-3.1L184.1,203z"/>
	<polygon class="st0" points="222.8,215.6 221.3,206.8 221.2,215.7 220.4,229.9 225.4,229.6 	"/>
	<polygon class="st0" points="225.4,265.7 225.2,274.6 224.5,288.9 229.5,288.5 226.8,274.6 	"/>
	<path class="st0" d="M223.8,315.3c0.2-0.2,0.2-0.5,0.2-0.9l-0.2-2.7c0-0.5-0.1-0.9-0.3-1.1c-0.2-0.2-0.5-0.3-0.9-0.3l-0.8,0.1
		l0.4,5.2l0.9-0.1C223.3,315.6,223.6,315.5,223.8,315.3z"/>
	<path class="st0" d="M209.5,335.1c-0.1,1.2-0.1,2.4-0.2,3.7l1.8-0.1c-0.2-1.2-0.5-2.4-0.7-3.6c-0.2-1.2-0.5-2.4-0.7-3.6
		C209.6,332.6,209.6,333.8,209.5,335.1z"/>
	<path class="st0" d="M80.2,164.4c0.5,7.4,4.6,10.9,12.1,10.4c7.5-0.5,11.1-4.5,10.5-12l-9.3-133C93.1,22.5,89,19,81.5,19.5
		c-7.5,0.5-11.1,4.5-10.5,12L80.2,164.4z"/>
	<polygon class="st0" points="141,212.4 140.9,221.3 140.1,235.5 145.1,235.2 142.5,221.2 	"/>
	<path class="st0" d="M205.4,155.3c1.7-0.1,2.5-1.2,2.3-3.2l-0.8-11.8c-0.1-2-1.1-2.9-2.8-2.8l-2.6,0.2l1.2,17.8L205.4,155.3z"/>
	<path class="st0" d="M205.8,160.5l-2.7,0.2l1.3,18.8l2.6-0.2c1.7-0.1,2.5-1.2,2.4-3.2l-0.9-12.8
		C208.4,161.4,207.5,160.5,205.8,160.5z"/>
	<path class="st0" d="M217.4,315.8c0.3,0,0.5-0.1,0.6-0.3c0.1-0.2,0.2-0.4,0.1-0.7l-0.2-3c0-0.4-0.1-0.7-0.3-0.8
		c-0.1-0.2-0.4-0.2-0.7-0.2l-0.9,0.1l0.3,5L217.4,315.8z"/>
	<path class="st0" d="M216.6,317l0.4,5.4l0.9-0.1c0.6,0,0.9-0.4,0.9-1.2l-0.2-3.1c0-0.4-0.1-0.7-0.2-0.9c-0.1-0.2-0.4-0.2-0.8-0.2
		L216.6,317z"/>
	<path class="st0" d="M224,328.7c-0.2-0.2-0.5-0.3-0.9-0.3l-0.8,0.1l0.4,5.2l0.9-0.1c0.4,0,0.7-0.1,0.8-0.3c0.2-0.2,0.2-0.5,0.2-0.9
		l-0.2-2.7C224.3,329.2,224.2,328.9,224,328.7z"/>
	<path class="st0" d="M228.9,321.7c0.6,0,0.9-0.4,0.9-1.2l-0.7-9.7c-0.1-0.7-0.4-1.1-1-1c-0.6,0-0.9,0.4-0.8,1.1l0.7,9.7
		C227.9,321.4,228.3,321.8,228.9,321.7z"/>
	<path class="st0" d="M251.6,319l-0.3-4.1c0-0.4-0.1-0.8-0.3-1c-0.2-0.2-0.4-0.3-0.7-0.3c-0.3,0-0.5,0.1-0.6,0.3
		c-0.1,0.2-0.2,0.4-0.2,0.6l0.3,4.2c0,0.4,0.1,0.8,0.3,1c0.1,0.2,0.4,0.4,0.7,0.3c0.3,0,0.6-0.1,0.7-0.3
		C251.5,319.7,251.6,319.4,251.6,319z"/>
	<path class="st0" d="M241.3,308.9c-0.7,0-1,0.4-0.9,1.2l0.7,9.7c0.1,0.7,0.4,1.1,1.1,1c0.7,0,1-0.4,0.9-1.2l-0.7-9.7
		C242.3,309.2,241.9,308.9,241.3,308.9z"/>
	<path class="st0" d="M228.8,333.7c-0.1,1.2-0.1,2.4-0.2,3.7l1.8-0.1c-0.2-1.2-0.5-2.4-0.7-3.6c-0.2-1.2-0.5-2.4-0.7-3.6
		C229,331.3,228.9,332.5,228.8,333.7z"/>
	<path class="st0" d="M251.6,328.5c-0.1,1.2-0.1,2.5-0.2,3.7c-0.1,1.2-0.1,2.4-0.2,3.7l1.8-0.1c-0.2-1.2-0.5-2.4-0.7-3.6
		C252,330.9,251.8,329.7,251.6,328.5z"/>
	<path class="st1" d="M56.8,153.9c2,28.5,14.3,41.9,36.9,40.3c22.6-1.6,33-16.6,31-45.1l-7.6-108.7c-2-28.5-14.3-41.9-36.9-40.3
		c-22.6,1.6-33,16.6-31,45.1L56.8,153.9z M81.5,19.5C89,19,93.1,22.5,93.6,29.9l9.3,133c0.5,7.4-3,11.4-10.5,12
		c-7.5,0.5-11.6-2.9-12.1-10.4l-9.3-133C70.4,24,73.9,20.1,81.5,19.5z"/>
	<path class="st1" d="M33.7,3.4L10.8,3.2l0.6,6.3C12.1,19.4,8.3,24.7,0,25.2l1.4,19.4l12.4-0.9L24.7,199l22.6-1.6L33.7,3.4z"/>
	<path class="st1" d="M131.8,178.3c0.5,7.7,3.4,11.3,8.6,10.9c5.1-0.4,7.3-4.4,6.8-12l-0.5-6.5l-5,0.3l0.7,9.7
		c0.1,2-0.7,3.1-2.4,3.2c-1.7,0.1-2.7-0.8-2.8-2.8l-2.5-35.8c-0.1-2,0.7-3.1,2.4-3.2c1.7-0.1,2.7,0.8,2.8,2.8l0.6,8l5-0.3l-0.3-4.8
		c-0.5-7.7-3.3-11.3-8.4-11c-5.2,0.4-7.6,4.4-7,12L131.8,178.3z"/>
	
		<rect x="126.6" y="159.5" transform="matrix(6.976057e-002 0.9976 -0.9976 6.976057e-002 303.815 -1.585)" class="st1" width="52.4" height="5.2"/>
	<polygon class="st1" points="166.1,187.4 163.4,149.7 164.8,156.7 172.5,187 178.8,186.5 175.1,134.3 170.4,134.6 173,172.3 
		171.4,164.5 164,135.1 157.7,135.5 161.4,187.8 	"/>
	<polygon class="st1" points="196.2,185.3 195.8,180.1 187.8,180.7 186.5,161.9 191,161.5 190.7,156.3 186.1,156.6 184.9,138.9 
		192.9,138.3 192.5,133.1 179.3,134 182.9,186.3 	"/>
	<path class="st1" d="M207.4,184.5c5.2-0.4,7.6-4.4,7-12l-0.4-6.3c-0.3-4.7-1.8-7.5-4.3-8.6c2.4-1.4,3.4-4.4,3.1-9.1l-0.4-5.2
		c-0.5-7.7-3.4-11.3-8.6-10.9l-7.8,0.5l3.7,52.3L207.4,184.5z M209.5,176.1c0.1,2-0.7,3.1-2.4,3.2l-2.6,0.2l-1.3-18.8l2.7-0.2
		c1.7,0,2.6,0.9,2.8,2.8L209.5,176.1z M204.1,137.5c1.7-0.1,2.7,0.8,2.8,2.8l0.8,11.8c0.1,2-0.6,3.1-2.3,3.2l-2.7,0.2l-1.2-17.8
		L204.1,137.5z"/>
	<polygon class="st1" points="224.7,183.3 223,159.3 228.2,158.9 229.9,183 235.1,182.6 231.5,130.3 226.2,130.7 227.8,153.7 
		222.6,154.1 221,131.1 215.8,131.4 219.4,183.7 	"/>
	
		<rect x="11.3" y="228.1" transform="matrix(-6.975356e-002 -0.9976 0.9976 -6.975356e-002 -191.107 282.9869)" class="st1" width="50.2" height="5"/>
	<polygon class="st1" points="48,225.4 55.3,254.4 61.3,254 57.8,203.9 53.3,204.3 55.8,240.4 54.3,232.9 47.2,204.7 41.1,205.1 
		44.7,255.2 49.2,254.9 46.6,218.8 	"/>
	<polygon class="st1" points="75,202.7 60,203.8 60.3,208.8 65.3,208.4 68.5,253.5 73.5,253.2 70.4,208.1 75.4,207.7 	"/>
	<polygon class="st1" points="93.4,251.8 93.1,246.8 85.4,247.3 84.1,229.3 88.5,229 88.1,224 83.7,224.3 82.6,207.2 90.3,206.7 
		89.9,201.7 77.2,202.6 80.7,252.7 	"/>
	<path class="st1" d="M110.3,216.4l-0.4-5.5c-0.5-7-3.5-10.3-9.1-9.9l-7.7,0.5l3.5,50.1l5-0.3l-1.6-23l2.6-0.2l4.8,22.8l5.1-0.4
		l-5.4-23.9C109.6,224.4,110.6,221,110.3,216.4z M102.5,223l-2.8,0.2l-1.2-17l2.7-0.2c2.2-0.2,3.4,0.9,3.6,3.1l0.7,10.3
		C105.6,221.6,104.6,222.8,102.5,223z"/>
	<polygon class="st1" points="126.4,249.5 132.4,249 128.9,199 124.4,199.3 126.9,235.4 125.4,227.9 118.3,199.7 112.2,200.1 
		115.7,250.2 120.3,249.9 117.7,213.8 119.1,220.4 	"/>
	<path class="st1" d="M137.5,198.4l-3.1,50.5l5.1-0.4l0.4-7.6l6.4-0.4l1.5,7.4l5.1-0.4L142.6,198L137.5,198.4z M140.1,235.5
		l0.8-14.3l0.1-8.9l1.4,8.8l2.7,14L140.1,235.5z"/>
	<polygon class="st1" points="160.8,247.1 157.7,202 162.7,201.6 162.3,196.6 147.3,197.7 147.6,202.7 152.6,202.3 155.8,247.4 	"/>
	
		<rect x="143.7" y="218.8" transform="matrix(6.975353e-002 0.9976 -0.9976 6.975353e-002 377.7888 37.5571)" class="st1" width="50.2" height="5"/>
	<path class="st1" d="M191.3,233.9l-2-28c-0.5-7.3-3.3-10.8-8.3-10.5c-5,0.4-7.3,4.2-6.7,11.5l2,28c0.5,7.3,3.3,10.8,8.3,10.5
		C189.5,245,191.8,241.2,191.3,233.9z M184.2,240.4c-1.7,0.1-2.6-0.8-2.7-2.7l-2.4-34.3c-0.1-1.9,0.6-2.9,2.3-3.1
		c1.7-0.1,2.6,0.8,2.7,2.7l2.4,34.3C186.6,239.3,185.8,240.3,184.2,240.4z"/>
	<polygon class="st1" points="198.5,194.1 192.5,194.5 196,244.6 200.5,244.3 198,208.2 199.4,214.8 206.7,243.8 212.7,243.4 
		209.2,193.4 204.7,193.7 207.2,229.8 205.7,222.3 	"/>
	<path class="st1" d="M220.1,235.4l6.4-0.4l1.5,7.4l5.1-0.4l-10.1-49.6l-5.1,0.4l-3.1,50.5l5.1-0.4L220.1,235.4z M221.2,215.7
		l0.1-8.9l1.4,8.8l2.7,14l-5,0.4L221.2,215.7z"/>
	<polygon class="st1" points="235,241.9 247.7,241 247.4,236 239.7,236.5 236.5,191.4 231.5,191.8 	"/>
	<polygon class="st1" points="65.4,262.7 52.7,263.5 56.2,313.6 61.2,313.3 59.6,290.2 63.9,289.9 63.6,284.9 59.2,285.2 58,268.2 
		65.7,267.7 	"/>
	
		<rect x="47.5" y="284.8" transform="matrix(-6.975120e-002 -0.9976 0.9976 -6.975120e-002 -208.9951 379.735)" class="st1" width="50.2" height="5"/>
	<polygon class="st1" points="85.5,306.5 82.3,261.5 77.3,261.8 80.8,311.9 93.5,311 93.2,306 	"/>
	<polygon class="st1" points="108.2,259.7 106.8,286.9 106.7,295.8 105.2,287 100,260.2 92.7,260.7 96.2,310.8 100.7,310.5 
		98,271.4 98.9,276.9 105.6,310.2 109.7,309.9 111.8,276.4 112,270.3 114.7,309.5 119.2,309.2 115.7,259.1 	"/>
	<polygon class="st1" points="140.2,257.4 127.4,258.3 130.9,308.4 136,308 134.3,285 138.7,284.7 138.4,279.7 134,280 132.8,263 
		140.5,262.4 	"/>
	<polygon class="st1" points="158.9,301.4 151.3,301.9 150,283.9 154.4,283.6 154,278.6 149.6,278.9 148.4,261.9 156.1,261.3 
		155.8,256.3 143.1,257.2 146.6,307.3 159.3,306.4 	"/>
	<path class="st1" d="M176.1,294.2l-0.3-4.4c-0.2-3-2-6.4-5.4-10.3c-3.4-3.9-5.1-6.9-5.3-9.1l-0.5-6.8c-0.1-1.9,0.5-2.9,1.9-3
		c1.4-0.1,2.2,0.8,2.3,2.7l0.5,7.7l5-0.3l-0.3-4.6c-0.5-7.3-3.1-10.8-7.9-10.5c-4.8,0.3-6.9,4.2-6.4,11.5l0.2,3.2
		c0.3,3.8,2.1,7.6,5.4,11.3c3.4,3.7,5.2,7.2,5.4,10.3l0.4,5.8c0.1,1.9-0.5,2.9-1.9,3c-1.4,0.1-2.2-0.8-2.3-2.7l-0.7-9.3l-5,0.3
		l0.4,6.2c0.5,7.3,3.1,10.8,7.9,10.5C174.4,305.3,176.6,301.5,176.1,294.2z"/>
	<polygon class="st1" points="190.5,253.9 175.5,255 175.9,260 180.9,259.6 184,304.7 189,304.3 185.9,259.3 190.9,258.9 	"/>
	
		<rect x="171.9" y="276.1" transform="matrix(6.975240e-002 0.9976 -0.9976 6.975240e-002 461.1714 62.6841)" class="st1" width="50.2" height="5"/>
	<polygon class="st1" points="214.9,302.5 218.1,252 213,252.3 211.5,279.6 211.4,288.5 210,279.7 204.8,252.9 199.7,253.3 
		209.9,302.9 	"/>
	<path class="st1" d="M237.1,301L227,251.4l-5.1,0.4l-3.1,50.5l5.1-0.4l0.4-7.6l6.4-0.4l1.5,7.4L237.1,301z M224.5,288.9l0.8-14.3
		l0.1-8.9l1.4,8.8l2.7,14L224.5,288.9z"/>
	<polygon class="st1" points="240.6,250.4 235.6,250.8 239.1,300.8 251.8,299.9 251.4,294.9 243.8,295.5 	"/>
	<path class="st1" d="M167.8,318.4c-0.1,0.3-0.3,0.6-0.5,1c-0.2,0.4-0.5,0.8-0.8,1.3c-0.3,0.4-0.5,0.8-0.6,1.1
		c-0.2,0.3-0.3,0.6-0.3,0.9c-0.1,0.3-0.1,0.6-0.1,0.9c0,0.3,0,0.7,0,1.1l0.2,2.6l4.4-0.3l-0.1-1.3l-3.1,0.2l-0.1-1.3
		c0-0.4,0-0.7,0-0.9c0-0.3,0.1-0.5,0.1-0.8c0.1-0.3,0.2-0.6,0.4-0.9c0.2-0.3,0.4-0.7,0.8-1.2c0.2-0.3,0.4-0.7,0.6-1
		c0.2-0.3,0.3-0.6,0.4-1c0.1-0.3,0.2-0.6,0.2-1c0-0.3,0.1-0.7,0-1.1l-0.1-1.6c-0.1-0.8-0.3-1.5-0.7-1.8c-0.4-0.4-1-0.5-1.7-0.5
		c-0.7,0.1-1.3,0.3-1.6,0.7c-0.3,0.4-0.5,1.1-0.4,1.9l0.2,2.4l1.3-0.1l-0.2-2.4c0-0.4,0-0.7,0.1-0.9c0.1-0.2,0.3-0.3,0.7-0.3
		c0.6,0,1,0.3,1,1.1l0.1,1.5c0,0.3,0,0.6,0,0.9C168,317.9,167.9,318.2,167.8,318.4z"/>
	<path class="st1" d="M173.3,326.9c0.8-0.1,1.4-0.3,1.7-0.7c0.3-0.4,0.5-1,0.4-1.8l-0.7-9.7c-0.1-0.8-0.3-1.4-0.7-1.8
		c-0.4-0.4-1-0.5-1.8-0.5c-0.8,0.1-1.4,0.3-1.7,0.7c-0.3,0.4-0.5,1-0.4,1.8l0.7,9.7c0.1,0.8,0.3,1.4,0.7,1.8
		C172,326.8,172.5,327,173.3,326.9z M172.2,324.6l-0.7-9.7c-0.1-0.7,0.3-1.1,0.9-1.2c0.7,0,1,0.3,1.1,1l0.7,9.7
		c0.1,0.7-0.3,1.1-0.9,1.2C172.6,325.7,172.2,325.3,172.2,324.6z"/>
	
		<rect x="176.7" y="318.7" transform="matrix(-0.9976 6.951635e-002 -6.951635e-002 -0.9976 377.7915 625.2894)" class="st1" width="2.7" height="1"/>
	<path class="st1" d="M183.5,317.4c-0.1,0.3-0.3,0.6-0.5,1c-0.2,0.4-0.5,0.8-0.8,1.3c-0.3,0.4-0.5,0.8-0.6,1.1
		c-0.2,0.3-0.3,0.6-0.3,0.9c-0.1,0.3-0.1,0.6-0.1,0.9c0,0.3,0,0.7,0,1.1l0.2,2.6l4.4-0.3l-0.1-1.3l-3.1,0.2l-0.1-1.3
		c0-0.4,0-0.7,0-0.9c0-0.3,0.1-0.5,0.1-0.8c0.1-0.3,0.2-0.6,0.4-0.9c0.2-0.3,0.4-0.7,0.8-1.2c0.2-0.3,0.4-0.7,0.6-1
		c0.2-0.3,0.3-0.6,0.4-1c0.1-0.3,0.2-0.6,0.2-1c0-0.3,0.1-0.7,0-1.1l-0.1-1.6c-0.1-0.8-0.3-1.5-0.7-1.8c-0.4-0.4-1-0.5-1.7-0.5
		c-0.7,0.1-1.3,0.3-1.6,0.7c-0.3,0.4-0.5,1.1-0.4,1.9l0.2,2.4l1.3-0.1l-0.2-2.4c0-0.4,0-0.7,0.1-0.9c0.1-0.2,0.3-0.3,0.7-0.3
		c0.6,0,1,0.3,1,1.1l0.1,1.5c0,0.3,0,0.6,0,0.9C183.7,316.8,183.7,317.1,183.5,317.4z"/>
	<path class="st1" d="M189.2,315.3c0.2-0.9,0.5-1.8,0.8-2.7l-0.1-1.2l-4.5,0.3l0.1,1.3l3.2-0.2c-0.1,0.3-0.3,0.8-0.5,1.5
		c-0.2,0.7-0.4,1.5-0.6,2.6c-0.2,1.1-0.3,2.3-0.4,3.8c-0.1,1.5-0.1,3.2,0.1,5.2l1.3-0.1c-0.1-1.4-0.1-2.7-0.1-4
		c0-1.2,0.1-2.4,0.2-3.4C188.8,317.3,189,316.3,189.2,315.3z"/>
	<path class="st1" d="M198.3,322.8l-0.7-9.7c-0.1-0.8-0.3-1.4-0.7-1.8s-1-0.5-1.7-0.5c-0.7,0.1-1.3,0.3-1.6,0.7
		c-0.3,0.4-0.5,1-0.4,1.8l0.7,9.7c0.1,0.8,0.3,1.4,0.7,1.8c0.4,0.4,1,0.5,1.7,0.5c0.8-0.1,1.3-0.3,1.6-0.7
		C198.3,324.2,198.4,323.5,198.3,322.8z M196.2,324c-0.6,0-0.9-0.3-1-1.1l-0.7-9.7c-0.1-0.7,0.2-1.1,0.8-1.1c0.6,0,1,0.3,1,1
		l0.7,9.7C197.1,323.6,196.8,324,196.2,324z"/>
	<path class="st1" d="M201.9,324.9c1.5-0.1,2.2-1,2.1-2.6l-0.8-11.9l-1.3,0.1l0.8,11.9c0.1,0.7-0.2,1.1-0.8,1.2
		c-0.6,0-0.9-0.3-1-1.1l-0.8-11.9l-1.3,0.1l0.8,11.9C199.6,324.3,200.4,325,201.9,324.9z"/>
	<polygon class="st1" points="208.3,310.1 203.8,310.4 203.9,311.7 205.5,311.6 206.4,324.5 207.7,324.4 206.8,311.5 208.4,311.4 	
		"/>
	<path class="st1" d="M213.5,309.7l-1.3,0.1l0.8,11.9c0.1,0.7-0.2,1.1-0.8,1.2c-0.6,0-0.9-0.3-1-1.1l-0.8-11.9l-1.3,0.1l0.8,11.9
		c0.1,1.6,0.9,2.4,2.4,2.3c1.5-0.1,2.2-1,2.1-2.6L213.5,309.7z"/>
	<path class="st1" d="M218,323.6c0.8-0.1,1.3-0.3,1.7-0.7c0.4-0.4,0.5-1,0.4-1.9l-0.2-3.4c0-0.5-0.2-0.9-0.4-1.1
		c-0.2-0.2-0.5-0.3-0.8-0.4c0.6-0.2,0.8-0.7,0.8-1.6l-0.2-2.8c-0.1-0.8-0.3-1.5-0.6-1.8c-0.3-0.4-0.9-0.5-1.7-0.5l-2.3,0.2l1,14.2
		L218,323.6z M218.5,318l0.2,3.1c0.1,0.7-0.2,1.1-0.9,1.2l-0.9,0.1l-0.4-5.4l1-0.1c0.4,0,0.6,0,0.8,0.2
		C218.4,317.4,218.5,317.6,218.5,318z M217.1,310.8c0.3,0,0.6,0,0.7,0.2c0.1,0.2,0.2,0.4,0.3,0.8l0.2,3c0,0.3,0,0.6-0.1,0.7
		c-0.1,0.2-0.3,0.2-0.6,0.3l-1,0.1l-0.3-5L217.1,310.8z"/>
	<path class="st1" d="M223,316.8c0,0,0.1,0,0.2,0c0.3,1.1,0.5,2.1,0.8,3.2c0.2,1.1,0.5,2.1,0.7,3.2l1.4-0.1
		c-0.2-1.1-0.5-2.2-0.8-3.3c-0.3-1.1-0.6-2.2-0.9-3.3c0.7-0.4,1-1.1,0.9-2.2l-0.2-2.8c-0.1-0.9-0.3-1.6-0.7-1.9
		c-0.4-0.4-1.1-0.5-1.9-0.4l-2.1,0.2l1,14.2l1.3-0.1l-0.4-6.4l0.7,0C222.9,316.9,223,316.9,223,316.8z M222.1,315.7l-0.4-5.2
		l0.8-0.1c0.5,0,0.8,0.1,0.9,0.3c0.2,0.2,0.3,0.6,0.3,1.1l0.2,2.7c0,0.4,0,0.7-0.2,0.9c-0.2,0.2-0.4,0.3-0.8,0.3L222.1,315.7z"/>
	<path class="st1" d="M227.2,322.5c0.4,0.4,1,0.5,1.7,0.5c0.8-0.1,1.3-0.3,1.6-0.7c0.3-0.4,0.5-1,0.4-1.8l-0.7-9.7
		c-0.1-0.8-0.3-1.4-0.7-1.8c-0.4-0.4-1-0.5-1.7-0.5c-0.7,0.1-1.3,0.3-1.6,0.7c-0.3,0.4-0.5,1-0.4,1.8l0.7,9.7
		C226.6,321.6,226.9,322.2,227.2,322.5z M228,309.9c0.6,0,1,0.3,1,1l0.7,9.7c0.1,0.7-0.2,1.1-0.9,1.2c-0.6,0-0.9-0.3-1-1.1l-0.7-9.7
		C227.2,310.3,227.4,309.9,228,309.9z"/>
	<path class="st1" d="M236.7,313.6c-0.1,0.3-0.3,0.6-0.5,1c-0.2,0.4-0.5,0.8-0.8,1.3c-0.3,0.4-0.5,0.8-0.6,1.1
		c-0.2,0.3-0.3,0.6-0.3,0.9c-0.1,0.3-0.1,0.6-0.1,0.9c0,0.3,0,0.7,0,1.1l0.2,2.6l4.4-0.3l-0.1-1.3l-3.1,0.2l-0.1-1.3
		c0-0.4,0-0.7,0-0.9c0-0.3,0.1-0.5,0.1-0.8c0.1-0.3,0.2-0.6,0.4-0.9c0.2-0.3,0.4-0.7,0.8-1.2c0.2-0.3,0.4-0.7,0.6-1
		c0.2-0.3,0.3-0.6,0.4-1c0.1-0.3,0.2-0.6,0.2-1c0-0.3,0.1-0.7,0-1.1l-0.1-1.6c-0.1-0.8-0.3-1.5-0.7-1.8c-0.4-0.4-1-0.5-1.7-0.5
		c-0.7,0.1-1.3,0.3-1.6,0.7c-0.3,0.4-0.5,1.1-0.4,1.9l0.2,2.4l1.3-0.1l-0.2-2.4c0-0.4,0-0.7,0.1-0.9c0.1-0.2,0.3-0.3,0.7-0.3
		c0.6,0,1,0.3,1,1.1l0.1,1.5c0,0.3,0,0.6,0,0.9C236.9,313.1,236.8,313.4,236.7,313.6z"/>
	<path class="st1" d="M244.3,319.5l-0.7-9.7c-0.1-0.8-0.3-1.4-0.7-1.8c-0.4-0.4-1-0.5-1.8-0.5c-0.8,0.1-1.4,0.3-1.7,0.7
		c-0.3,0.4-0.5,1-0.4,1.8l0.7,9.7c0.1,0.8,0.3,1.4,0.7,1.8c0.4,0.4,1,0.5,1.8,0.5c0.8-0.1,1.4-0.3,1.7-0.7
		C244.3,320.9,244.4,320.3,244.3,319.5z M242.1,320.8c-0.7,0-1-0.3-1.1-1l-0.7-9.7c-0.1-0.7,0.2-1.1,0.9-1.2c0.7,0,1,0.3,1.1,1
		l0.7,9.7C243.1,320.4,242.8,320.8,242.1,320.8z"/>
	<path class="st1" d="M244.8,308.6l-0.4,0l0.1,1.3l0.7-0.1l0.8,11.8l1.3-0.1l-1-14.2l-1.2,0.1l0,0.4c0,0.2,0,0.4-0.1,0.5
		C245.1,308.5,245,308.6,244.8,308.6z"/>
	<path class="st1" d="M252.4,320.8c0.3-0.5,0.5-1.1,0.4-1.8l-0.3-4.4c-0.1-0.8-0.2-1.4-0.6-1.7c-0.3-0.3-0.8-0.5-1.4-0.4
		c-0.4,0-0.7,0.1-0.9,0.3c-0.2,0.2-0.4,0.3-0.5,0.6l-0.3-3.7c0-0.3,0-0.6,0.2-0.8c0.1-0.2,0.4-0.3,0.7-0.3c0.3,0,0.5,0.1,0.7,0.2
		c0.2,0.2,0.2,0.4,0.3,0.8l0.2,2.4l1.3-0.1l-0.2-2.4c-0.1-0.8-0.3-1.3-0.6-1.7c-0.4-0.4-0.9-0.6-1.7-0.5c-0.7,0.1-1.3,0.3-1.6,0.8
		c-0.3,0.5-0.5,1.1-0.4,1.8l0.7,9.7c0.1,0.7,0.3,1.3,0.7,1.7c0.4,0.4,1,0.6,1.7,0.5C251.6,321.5,252.1,321.2,252.4,320.8z
		 M250,319.9c-0.1-0.2-0.2-0.6-0.3-1l-0.3-4.2c0-0.3,0.1-0.5,0.2-0.6c0.1-0.2,0.4-0.3,0.6-0.3c0.3,0,0.6,0.1,0.7,0.3
		c0.2,0.2,0.3,0.5,0.3,1l0.3,4.1c0,0.4,0,0.6-0.2,0.8c-0.1,0.2-0.4,0.3-0.7,0.3C250.4,320.2,250.1,320.1,250,319.9z"/>
	<path class="st1" d="M160,334.1c-0.1-0.9-0.3-1.5-0.7-1.9c-0.4-0.4-1.1-0.5-1.9-0.5l-2.2,0.2l1,14.2l1.3-0.1l-0.5-6.7l0.9-0.1
		c0.8-0.1,1.4-0.3,1.8-0.7c0.4-0.4,0.5-1.1,0.5-2L160,334.1z M158.6,337.5c-0.2,0.2-0.4,0.3-0.8,0.4l-0.9,0.1l-0.3-4.8l0.9-0.1
		c0.4,0,0.7,0.1,0.9,0.2c0.2,0.2,0.3,0.5,0.3,0.9l0.2,2.4C158.8,337,158.8,337.3,158.6,337.5z"/>
	<path class="st1" d="M164.7,338.7c0.7-0.4,1-1.1,0.9-2.2l-0.2-2.8c-0.1-0.9-0.3-1.6-0.7-1.9c-0.4-0.4-1.1-0.5-1.9-0.4l-2.1,0.1
		l1,14.2l1.3-0.1l-0.4-6.4l0.7,0c0.1,0,0.1,0,0.2,0c0,0,0.1,0,0.2,0c0.3,1.1,0.5,2.1,0.8,3.2c0.2,1,0.5,2.1,0.7,3.2l1.4-0.1
		c-0.2-1.1-0.5-2.2-0.8-3.3C165.3,340.9,165.1,339.8,164.7,338.7z M164.1,337.5c-0.2,0.2-0.4,0.3-0.8,0.3l-0.9,0.1l-0.4-5.2l0.8-0.1
		c0.5,0,0.8,0.1,0.9,0.3c0.2,0.2,0.3,0.6,0.3,1.1l0.2,2.7C164.4,337,164.3,337.3,164.1,337.5z"/>
	<path class="st1" d="M170.7,333c-0.1-0.8-0.3-1.4-0.7-1.8c-0.4-0.4-1-0.5-1.7-0.5c-0.7,0.1-1.3,0.3-1.6,0.7c-0.3,0.4-0.5,1-0.4,1.8
		l0.7,9.7c0.1,0.8,0.3,1.4,0.7,1.8c0.4,0.4,1,0.5,1.7,0.5c0.8-0.1,1.3-0.3,1.6-0.7c0.3-0.4,0.5-1,0.4-1.8L170.7,333z M169.2,344
		c-0.6,0-0.9-0.3-1-1.1l-0.7-9.7c-0.1-0.7,0.2-1.1,0.8-1.1c0.6,0,1,0.3,1,1l0.7,9.7C170.1,343.5,169.9,343.9,169.2,344z"/>
	<path class="st1" d="M174.3,338.1l0.1,1.2l1.1-0.1l0.2,3.2c0,0.7-0.3,1-0.9,1.1c-0.3,0-0.5-0.1-0.7-0.2c-0.2-0.2-0.3-0.4-0.3-0.8
		l-0.7-9.6c0-0.4,0-0.6,0.2-0.8c0.1-0.2,0.4-0.3,0.7-0.3c0.4,0,0.6,0,0.8,0.2c0.2,0.2,0.3,0.4,0.3,0.8l0.2,2.5l1.2-0.1l-0.2-2.5
		c-0.1-0.8-0.3-1.4-0.6-1.8c-0.4-0.4-0.9-0.6-1.7-0.5c-0.7,0.1-1.3,0.3-1.6,0.7c-0.3,0.4-0.5,1.1-0.4,1.8l0.7,9.6
		c0,0.4,0.1,0.8,0.2,1.1c0.1,0.3,0.3,0.5,0.5,0.7c0.2,0.2,0.4,0.3,0.7,0.4c0.3,0.1,0.6,0.1,0.9,0.1c0.4,0,0.7-0.1,1-0.3
		c0.3-0.2,0.5-0.4,0.6-0.7l0.5,0.7l0.2,0l-0.5-6.7L174.3,338.1z"/>
	<path class="st1" d="M181.3,337.5c0.7-0.4,1-1.1,0.9-2.2l-0.2-2.8c-0.1-0.9-0.3-1.6-0.7-1.9c-0.4-0.4-1.1-0.5-1.9-0.4l-2.1,0.2
		l1,14.2l1.3-0.1l-0.4-6.4l0.7,0c0.1,0,0.1,0,0.2,0c0,0,0.1,0,0.2,0c0.3,1.1,0.5,2.1,0.8,3.2c0.2,1.1,0.5,2.1,0.7,3.2l1.4-0.1
		c-0.2-1.1-0.5-2.2-0.8-3.3C181.9,339.7,181.7,338.6,181.3,337.5z M180.7,336.4c-0.2,0.2-0.4,0.3-0.8,0.3l-0.9,0.1l-0.4-5.2l0.8-0.1
		c0.5,0,0.8,0.1,0.9,0.3c0.2,0.2,0.3,0.6,0.3,1.1l0.2,2.7C181,335.9,180.9,336.2,180.7,336.4z"/>
	<path class="st1" d="M184.5,329.8l-1,14.3l1.3-0.1l0.1-2.4l2.1-0.1l0.5,2.4l1.3-0.1l-2.8-14L184.5,329.8z M186.8,340.3l-1.8,0.1
		c0.1-1.2,0.1-2.4,0.2-3.7c0.1-1.2,0.1-2.4,0.2-3.7c0.2,1.2,0.5,2.4,0.7,3.6C186.3,337.9,186.6,339.1,186.8,340.3z"/>
	<path class="st1" d="M193.4,329.2l-0.7,11.2l-2.3-11l-1.8,0.1l1,14.2l1.2-0.1l-0.3-4.3c-0.1-1-0.1-2.1-0.2-3.1
		c-0.1-1-0.2-2-0.2-3.1l2.2,10.3l1.2-0.1l0.8-10.5c0.1,1,0.1,2.1,0.2,3.1c0.1,1,0.1,2,0.2,3.1l0.3,4.3l1.2-0.1l-1-14.2L193.4,329.2z
		"/>
	<path class="st1" d="M198,328.9l-1,14.3l1.3-0.1l0.1-2.4l2.1-0.1l0.5,2.4l1.3-0.1l-2.8-14L198,328.9z M200.3,339.3l-1.8,0.1
		c0.1-1.2,0.1-2.4,0.2-3.7c0.1-1.2,0.1-2.4,0.2-3.7c0.2,1.2,0.5,2.4,0.7,3.6C199.9,336.9,200.1,338.1,200.3,339.3z"/>
	<path class="st1" d="M204.8,343l0.1,1.2l0.5,0l0,0.3c0,0.1,0,0.2-0.2,0.2l-0.1,0l0,0.4l0.2,0c0.2,0,0.4-0.1,0.5-0.2
		c0.1-0.1,0.1-0.3,0.1-0.5l-0.1-1.5L204.8,343z"/>
	<path class="st1" d="M206.9,337.2l-1.2,0.1l0.2,2.9c0,0.4,0,0.7-0.1,0.9c-0.1,0.2-0.3,0.3-0.7,0.3c-0.6,0-1-0.3-1-1.1l-0.7-9.6
		c-0.1-0.7,0.2-1.1,0.9-1.2c0.3,0,0.6,0,0.7,0.2c0.1,0.2,0.2,0.4,0.2,0.8l0.2,2.5l1.2-0.1l-0.2-2.5c-0.1-1.6-0.9-2.4-2.2-2.3
		c-1.5,0.1-2.2,1-2.1,2.6l0.7,9.6c0.1,1.6,0.9,2.3,2.4,2.2c0.7-0.1,1.2-0.3,1.5-0.7c0.3-0.4,0.4-1,0.4-1.9L206.9,337.2z"/>
	<path class="st1" d="M208.8,326.4c0.2,0,0.3,0.1,0.5,0.2c0.2,0.1,0.3,0.1,0.5,0.2s0.4,0.1,0.6,0c0.2,0,0.4-0.1,0.6-0.2
		c0.2-0.1,0.3-0.2,0.4-0.3l-0.1-1.1c-0.1,0.2-0.3,0.3-0.4,0.4c-0.2,0.1-0.3,0.2-0.5,0.2c-0.2,0-0.4,0-0.5,0c-0.2,0-0.3-0.1-0.5-0.2
		c-0.2-0.1-0.3-0.1-0.5-0.2c-0.2,0-0.4-0.1-0.6,0c-0.2,0-0.4,0.1-0.6,0.2c-0.2,0.1-0.3,0.2-0.4,0.4l0.1,1.1c0.1-0.2,0.3-0.3,0.4-0.4
		c0.2-0.1,0.3-0.2,0.5-0.2C208.5,326.4,208.6,326.4,208.8,326.4z"/>
	<path class="st1" d="M208.7,328.1l-1,14.3l1.3-0.1l0.1-2.4l2.1-0.1l0.5,2.4l1.3-0.1l-2.8-14L208.7,328.1z M211.1,338.6l-1.8,0.1
		c0.1-1.2,0.1-2.4,0.2-3.7c0.1-1.2,0.1-2.4,0.2-3.7c0.2,1.2,0.5,2.4,0.7,3.6C210.6,336.2,210.8,337.4,211.1,338.6z"/>
	<path class="st1" d="M217.9,335.1l0.1,1.2l1.1-0.1l0.2,3.2c0,0.7-0.3,1-0.9,1.1c-0.3,0-0.5-0.1-0.7-0.2c-0.2-0.2-0.3-0.4-0.3-0.8
		l-0.7-9.6c0-0.4,0-0.6,0.2-0.8c0.1-0.2,0.4-0.3,0.7-0.3c0.4,0,0.6,0,0.8,0.2c0.2,0.2,0.3,0.4,0.3,0.8l0.2,2.5l1.2-0.1l-0.2-2.5
		c-0.1-0.8-0.3-1.4-0.6-1.8c-0.4-0.4-0.9-0.6-1.7-0.5c-0.7,0.1-1.3,0.3-1.6,0.7c-0.3,0.4-0.5,1.1-0.4,1.8l0.7,9.6
		c0,0.4,0.1,0.8,0.2,1.1c0.1,0.3,0.3,0.5,0.5,0.7c0.2,0.2,0.4,0.3,0.7,0.4c0.3,0.1,0.5,0.1,0.9,0.1c0.4,0,0.7-0.1,1-0.3
		c0.3-0.2,0.5-0.4,0.6-0.7l0.5,0.7l0.2,0l-0.5-6.7L217.9,335.1z"/>
	<path class="st1" d="M225,334.5c0.7-0.4,1-1.1,0.9-2.2l-0.2-2.8c-0.1-0.9-0.3-1.6-0.7-1.9c-0.4-0.4-1.1-0.5-1.9-0.4l-2.1,0.2
		l1,14.2l1.3-0.1l-0.4-6.4l0.7,0c0.1,0,0.1,0,0.2,0c0,0,0.1,0,0.2,0c0.3,1.1,0.5,2.1,0.8,3.2c0.2,1.1,0.5,2.1,0.7,3.2l1.4-0.1
		c-0.2-1.1-0.5-2.2-0.8-3.3C225.5,336.7,225.3,335.6,225,334.5z M224.3,333.3c-0.2,0.2-0.4,0.3-0.8,0.3l-0.9,0.1l-0.4-5.2l0.8-0.1
		c0.5,0,0.8,0.1,0.9,0.3c0.2,0.2,0.3,0.6,0.3,1.1l0.2,2.7C224.6,332.8,224.5,333.1,224.3,333.3z"/>
	<path class="st1" d="M228.1,326.8l-1,14.3l1.3-0.1l0.1-2.4l2.1-0.1l0.5,2.4l1.3-0.1l-2.8-14L228.1,326.8z M230.4,337.2l-1.8,0.1
		c0.1-1.2,0.1-2.4,0.2-3.7c0.1-1.2,0.1-2.4,0.2-3.7c0.2,1.2,0.5,2.4,0.7,3.6C230,334.8,230.2,336,230.4,337.2z"/>
	<polygon class="st1" points="235.8,326.2 231.3,326.5 231.4,327.9 233,327.8 233.9,340.6 235.2,340.5 234.3,327.7 235.9,327.5 	"/>
	<path class="st1" d="M241,325.9l-1.3,0.1l0.8,11.9c0.1,0.7-0.2,1.1-0.8,1.2c-0.6,0-0.9-0.3-1-1.1l-0.8-11.9l-1.3,0.1l0.8,11.9
		c0.1,1.6,0.9,2.4,2.4,2.3c1.5-0.1,2.2-1,2.1-2.6L241,325.9z"/>
	
		<rect x="236.3" y="332.2" transform="matrix(-6.978868e-002 -0.9976 0.9976 -6.978868e-002 -71.6439 598.8047)" class="st1" width="14.2" height="1.3"/>
	<polygon class="st1" points="248.9,325.3 244.4,325.6 244.5,326.9 246.1,326.8 247,339.7 248.3,339.6 247.4,326.7 249,326.6 	"/>
	<path class="st1" d="M252.1,325.1l-1.5,0.1l-1,14.3l1.3-0.1l0.1-2.4l2.1-0.1l0.5,2.4l1.3-0.1L252.1,325.1z M251.1,335.8
		c0.1-1.2,0.1-2.4,0.2-3.7c0.1-1.2,0.1-2.4,0.2-3.7c0.2,1.2,0.5,2.4,0.7,3.6c0.2,1.2,0.5,2.4,0.7,3.6L251.1,335.8z"/>
</g>
</svg>
