<?xml version="1.0" encoding="utf-8"?>
<!-- Generator: Adobe Illustrator 19.0.0, SVG Export Plug-In . SVG Version: 6.00 Build 0)  -->
<svg version="1.1" id="Layer_1" xmlns="http://www.w3.org/2000/svg" xmlns:xlink="http://www.w3.org/1999/xlink" x="0px" y="0px"
	 width="285.3px" height="210px" viewBox="0 0 285.3 210" style="enable-background:new 0 0 285.3 210;" xml:space="preserve">
<style type="text/css">
	.st0{fill:#364CA0;}
	.st1{fill:#FFFFFF;}
	.st2{font-family:'SteelTongs';}
	.st3{font-size:14.7774px;}
	.st4{fill:none;}
	.st5{fill:#05AE90;}
	.st6{fill:#6A4040;}
	.st7{fill:#00B9B2;}
	.st8{fill:#1CBBB4;}
	.st9{fill:#DA3833;}
	.st10{fill:#DB383A;}
</style>
<path class="st0" d="M34.5,188.8"/>
<text transform="matrix(0.9976 -6.975999e-002 6.975999e-002 0.9976 182.9162 135.8593)" class="st1 st2 st3">CINEMA E MERCADO </text>
<g>
	<path class="st4" d="M198.8,157l-0.4,0l0.2,2.3l0.4,0c0.3,0,0.5-0.2,0.5-0.5l-0.1-1.3C199.3,157.1,199.1,156.9,198.8,157z"/>
	<path class="st4" d="M201.7,156.8l-0.4,0l0.2,2.6l0.4,0c0.3,0,0.5-0.2,0.5-0.5l-0.1-1.6C202.2,156.9,202,156.7,201.7,156.8z"/>
	<path class="st4" d="M211.2,145.3l-0.6,0l0.3,4.2l0.6,0c0.4,0,0.6-0.3,0.5-0.7l-0.2-2.9C211.8,145.5,211.6,145.3,211.2,145.3z"/>
	<path class="st4" d="M212.7,68.3c0,0.7,0.6,1.2,1.2,1.2l0,0c0,0,0.1,0,0.1,0c0.6,0,1.1-0.6,1-1.3c0-0.7-0.6-1.2-1.2-1.2
		c0,0-0.1,0-0.1,0l0-0.2l0,0.2C213.1,67.1,212.7,67.7,212.7,68.3z"/>
	<path class="st4" d="M204.6,156.5c-0.3,0-0.4,0.2-0.3,0.5l0.4,5.2c0,0.3,0.2,0.4,0.4,0.4c0.3,0,0.4-0.2,0.3-0.5L205,157
		C205,156.7,204.9,156.5,204.6,156.5z"/>
	<path class="st4" d="M216.2,143l-0.2-2.4c0-0.5-0.3-0.8-0.8-0.7l-0.6,0l0.3,4l0.6,0C216,143.8,216.3,143.5,216.2,143z"/>
	<path class="st4" d="M211.7,143.4l-0.2-2.7c0-0.5-0.2-0.7-0.6-0.6l-0.6,0l0.3,4l0.6,0C211.5,144.1,211.7,143.8,211.7,143.4z"/>
	<path class="st4" d="M212.5,65.5c0,0.7,0.6,1.2,1.2,1.2l0,0c0,0,0.1,0,0.1,0c0.6,0,1.1-0.6,1-1.3c0-0.7-0.6-1.2-1.2-1.2
		c0,0-0.1,0-0.1,0l0,0C212.9,64.2,212.5,64.8,212.5,65.5z"/>
	<path class="st4" d="M226.1,139l-0.6,0l0.7,9.4l0.6,0c0.4,0,0.6-0.3,0.5-0.7l-0.6-8.1C226.7,139.2,226.5,139,226.1,139z"/>
	<path class="st4" d="M248.3,147c0.4,0,0.6-0.3,0.5-0.7l-0.2-3.6c0-0.5-0.2-0.7-0.6-0.7c-0.4,0-0.6,0.3-0.5,0.7l0.3,3.6
		C247.7,146.8,247.9,147,248.3,147z"/>
	<path class="st4" d="M219.8,139.5c-0.4,0-0.6,0.3-0.5,0.7l0.6,8.1c0,0.5,0.2,0.7,0.6,0.6c0.4,0,0.6-0.3,0.5-0.7l-0.6-8.1
		C220.4,139.7,220.2,139.4,219.8,139.5z"/>
	<path class="st4" d="M228.5,154.9c-0.3,0-0.4,0.2-0.3,0.5l0.4,5.2c0,0.3,0.2,0.4,0.4,0.4c0.3,0,0.4-0.2,0.3-0.5l-0.4-5.2
		C228.9,155,228.8,154.9,228.5,154.9z"/>
	<polygon class="st4" points="225.8,156.5 225.7,157.8 225.6,160 226.4,159.9 226,157.8 	"/>
	<polygon class="st4" points="111.9,113.2 111.6,119.2 112.3,119.1 	"/>
	<polygon class="st4" points="213.3,157.3 213.3,158.7 213.2,160.9 213.9,160.8 213.5,158.7 	"/>
	<polygon class="st4" points="220.2,156.9 220.1,158.2 220,160.4 220.8,160.3 220.4,158.2 	"/>
	<path class="st4" d="M240.6,138c-0.4,0-0.6,0.3-0.5,0.7l0.6,8.1c0,0.5,0.2,0.7,0.6,0.6c0.4,0,0.6-0.3,0.5-0.7l-0.6-8.1
		C241.2,138.2,241,138,240.6,138z"/>
	<path class="st4" d="M210.3,156.1l-0.4,0l0.2,2.6l0.4,0c0.3,0,0.5-0.2,0.5-0.5l-0.1-1.6C210.8,156.3,210.6,156.1,210.3,156.1z"/>
	<path class="st4" d="M183.7,142l-0.6,0l0.7,9.4l0.6,0c0.4,0,0.6-0.3,0.5-0.7l-0.6-8.1C184.3,142.2,184.1,142,183.7,142z"/>
	<polygon class="st4" points="238.3,155.6 238.3,156.9 238.2,159.1 239,159 238.6,156.9 	"/>
	<polygon class="st4" points="249.4,154.8 249.4,156.2 249.3,158.3 250,158.3 249.6,156.2 	"/>
	<path class="st4" d="M94.3,106.3l-1.2,0.1l0.5,7.4l1.2-0.1c0.9-0.1,1.4-0.6,1.3-1.6l-0.3-4.5C95.8,106.6,95.3,106.2,94.3,106.3z"/>
	<path class="st4" d="M235.4,154.4l-0.4,0l0.2,2.6l0.4,0c0.3,0,0.5-0.2,0.5-0.5l-0.1-1.6C235.9,154.5,235.7,154.4,235.4,154.4z"/>
	<polygon class="st4" points="147.1,106.6 147,110.5 146.7,116.7 148.9,116.6 147.7,110.5 	"/>
	<polygon class="st4" points="237.3,100.3 237.2,104.2 236.9,110.4 239.1,110.3 237.9,104.2 	"/>
	<path class="st4" d="M111.4,121.6l-0.2,3.3l-2.2,0.2l1.4-22.1l0.7-0.1L110,86.1l-0.1-0.5l-0.6-3l1.2,16.5l-2.1,0.1l-1.6-22.9
		l2.6-0.2l-3.1-44.3c-0.4-6.4-3.4-9.9-8.9-10.6c-1.1-0.1-2.3-0.2-3.5-0.1c-4.4,0.3-7.4,1.8-9.2,4.4c0.6,2.1,1.1,4.6,1.2,7.3
		l3.4,48.7c0.4,5.6-0.3,10-2,13.3l0.7,9.6l1.5-0.1l0.2,2.2l-1.5,0.1l0.5,7.4l0,0l0.2,2.2l0,0l0.6,7.9l1.5-0.1l0.2,2.2l-1.5,0.1
		l3,43.4c0.5,7.6,4.7,11.2,12.4,10.6c5.3-0.4,8.7-2.4,10.1-6.1c0.6-1.7,0.9-3.7,0.7-6.1l-0.2-3.5l-3-43.2L111.4,121.6z M104.9,76.4
		l1.6,22.9l-2.3,0.2l-1.6-22.9L104.9,76.4z M97.6,77c2.2-0.2,3.4,1.4,3.7,4.8l0.1,2.1L99.2,84L99,80.5c-0.1-0.9-0.5-1.3-1.2-1.2
		c-0.8,0.1-1.1,0.5-1.1,1.4l1.1,15.7c0.1,0.9,0.5,1.3,1.2,1.2c0.8-0.1,1.1-0.5,1.1-1.4l-0.3-4.3l2.2-0.2l0.2,2.8
		c0.2,3.4-0.8,5.1-3,5.3c-2.3,0.2-3.5-1.4-3.8-4.8l-0.9-12.8C94.2,78.9,95.3,77.1,97.6,77z M97.1,125.9l-2.1-10l-1.2,0.1l0.7,10.1
		l-2.2,0.2l-1.5-21.9l3.4-0.2c2.4-0.2,3.7,1.3,4,4.3l0.2,2.4c0.1,2-0.3,3.5-1.4,4.4l2.4,10.5L97.1,125.9z M105.6,125.3l-3.2-12.7
		l-0.6-2.9l1.1,15.8l-2,0.1l-1.5-21.9l2.6-0.2l3.1,12.3l0.7,3.3l-1.1-15.8l2-0.1l1.5,21.9L105.6,125.3z"/>
	<path class="st4" d="M193.8,141.3c-0.4,0-0.6,0.3-0.5,0.7l0.6,8.1c0,0.5,0.2,0.7,0.6,0.6c0.4,0,0.6-0.3,0.5-0.7l-0.6-8.1
		C194.4,141.5,194.2,141.3,193.8,141.3z"/>
	<path class="st4" d="M212.9,71.2c0,0.7,0.6,1.2,1.2,1.2l0,0.4c-0.6,0-1.1,0.6-1,1.3c0,0.7,0.6,1.2,1.2,1.2l0,0.4
		c-0.6,0-1.1,0.6-1,1.3c0,0.7,0.6,1.2,1.2,1.2l0,0.2l0-0.2c0,0,0.1,0,0.1,0c0.6,0,1.1-0.6,1-1.3c0-0.7-0.6-1.2-1.2-1.2
		c0,0-0.1,0-0.1,0l0-0.4c0,0,0.1,0,0.1,0c0.6,0,1.1-0.6,1-1.3c0-0.7-0.6-1.2-1.2-1.2c0,0-0.1,0-0.1,0l0-0.4c0,0,0.1,0,0.1,0
		c0.6,0,1.1-0.6,1-1.3c0-0.7-0.6-1.2-1.2-1.2c0,0-0.1,0-0.1,0l0-0.1l0,0.1C213.3,70,212.9,70.5,212.9,71.2z"/>
	<path class="st4" d="M213.5,79.9c0,0.7,0.6,1.2,1.2,1.2l0,0c0,0,0.1,0,0.1,0c0.6,0,1.1-0.6,1-1.3c0-0.7-0.6-1.2-1.2-1.2
		c0,0-0.1,0-0.1,0l0,0C213.9,78.6,213.5,79.2,213.5,79.9z"/>
	<path class="st4" d="M213.7,82.7c0,0.7,0.6,1.2,1.2,1.2l0,0c0,0,0.1,0,0.1,0c0.6,0,1.1-0.6,1-1.3c0-0.7-0.6-1.2-1.2-1.2
		c0,0-0.1,0-0.1,0l0,0C214.1,81.5,213.7,82.1,213.7,82.7z"/>
	<path class="st5" d="M51.7,103.4l-7.3,0.5l-4.9-69.6L34,34.7L33.4,26c3.7-0.3,5.4-2.6,5.1-7l-0.3-2.8l7.4,0L44.8,4.6L21.3,4.5
		l0.6,6.5c0.7,10.1-3.2,15.5-11.7,16.1l1.4,19.9L24.4,46l10,143l0.1-0.3l19.5-53L51.7,103.4z"/>
	<path class="st5" d="M67,100.4c-1-0.5-2-1.2-2.8-2l0.5,7.8l0.2,0L67,100.4z"/>
	<path class="st5" d="M70.3,91.5l8-21.6l-2.9-41.7c-0.2-3.3-2-4.9-5.4-4.6c-3.4,0.2-5,2-4.7,5.4l4.2,59.6
		C69.5,89.7,69.8,90.7,70.3,91.5z"/>
	<path class="st5" d="M81.8,19.7L77.4,5.1c-4.7,2.3-8.3,5.7-11.1,10.2c0.9-0.2,1.9-0.4,3-0.4C74.9,14.4,79.1,16,81.8,19.7z"/>
	<path class="st6" d="M106.2,31.8l3.1,44.3l0.2,0l3.3,12.9l0.7,3.4l-1.2-16.5l2.1-0.1l1.6,22.9l-2.7,0.2L110,86.1l1.2,16.8l1.5-0.1
		l4.4,21.7l-2.2,0.2l-0.6-3.3l-1.8,0.1l3,43.2l2.4-48.1l-0.8-12l-2.2,0.2l-0.2-2.2l3.9-0.3l0.2-3.9l-1.2,0.1L116,75.7l3.9-0.3
		l3-60.1C118.5,8,112.1,3.5,103.7,1.9l-6.4,19.4C102.8,21.9,105.8,25.5,106.2,31.8z"/>
	<polygon class="st6" points="119,85.6 119.4,85.5 119.8,77.7 118.5,77.8 	"/>
	<polygon class="st6" points="119.3,89.2 119.3,87.8 119.2,87.8 	"/>
	<polygon class="st6" points="113.8,119 112.6,112.9 112,109.1 111.9,112.9 111.9,113.2 112.3,119.1 	"/>
	<polygon class="st6" points="34.5,188.8 57.6,186.8 54,135.8 	"/>
	<path class="st6" d="M74.8,93.1c3.4-0.2,5-2,4.7-5.4l-1.3-17.9l-8,21.6C71.2,92.7,72.7,93.2,74.8,93.1z"/>
	<path class="st7" d="M84.6,25.5c1.7-2.6,4.8-4,9.2-4.4c1.3-0.1,2.5-0.1,3.5,0.1l6.4-19.4c-3.4-0.7-7.2-0.9-11.3-0.6
		c-5.8,0.4-10.8,1.7-15,3.8l4.4,14.7C83,21.3,84,23.2,84.6,25.5z"/>
	<path class="st1" d="M38.5,19c0.3,4.4-1.4,6.8-5.1,7l0.6,8.7l5.6-0.4l4.9,69.6l7.3-0.5l2.9-0.2l-6.1-87l-2.9,0l-7.4,0L38.5,19z"/>
	<path class="st1" d="M75.4,101.8c5.7-0.4,9.7-2.7,11.9-6.9c1.7-3.3,2.4-7.7,2-13.3l-3.4-48.7c-0.2-2.8-0.6-5.2-1.2-7.3
		c-0.7-2.3-1.6-4.2-2.8-5.8c-2.8-3.7-7-5.3-12.5-4.9c-1.1,0.1-2.1,0.2-3,0.4c-8,1.8-11.7,8.3-10.9,19.8l3.4,48.7
		c0.5,6.8,2.3,11.6,5.4,14.6c0.8,0.8,1.8,1.5,2.8,2C69.3,101.5,72.1,102,75.4,101.8z M69.9,23.5c3.4-0.2,5.2,1.3,5.4,4.6l2.9,41.7
		l1.3,17.9c0.2,3.3-1.3,5.1-4.7,5.4c-2.1,0.1-3.6-0.4-4.5-1.6c-0.5-0.8-0.9-1.8-0.9-3l-4.2-59.6C65,25.5,66.5,23.7,69.9,23.5z"/>
	<path class="st8" d="M263.1,73.3c-0.1,0-0.2,0.1-0.2,0.3c0,0.3,0.1,0.4,0.2,0.4c0.2,0,0.2-0.1,0.2-0.4
		C263.3,73.4,263.2,73.3,263.1,73.3z"/>
	<path class="st8" d="M259.1,73.6c-0.2,0-0.2,0.1-0.2,0.4c0,0.1,0,0.4,0.2,0.3c0.2,0,0.2-0.2,0.1-0.4
		C259.3,73.8,259.3,73.6,259.1,73.6z"/>
	<path class="st8" d="M241.8,70.8c0-0.3-0.2-0.5-0.5-0.4l-0.6,0l0.1,1l0.6,0C241.6,71.3,241.8,71.1,241.8,70.8z"/>
	<path class="st8" d="M258.2,73.7c-0.1,0-0.2,0.1-0.2,0.3c0,0.3,0.1,0.4,0.2,0.4c0.2,0,0.2-0.1,0.2-0.4
		C258.4,73.7,258.3,73.6,258.2,73.7z"/>
	<path class="st8" d="M269.5,70.8c0.5,0,0.6-0.2,0.6-0.8l0-0.5c0-0.5-0.2-0.7-0.6-0.7l-0.4,0l0.1,2L269.5,70.8z"/>
	<path class="st8" d="M267.3,73c-0.1,0-0.2,0.1-0.2,0.3l0.4,0C267.5,73,267.4,73,267.3,73z"/>
	<path class="st8" d="M248.3,74.9c0,0.1,0.1,0.2,0.2,0.2c0.1,0,0.2-0.1,0.2-0.4C248.5,74.7,248.3,74.7,248.3,74.9z"/>
	<path class="st8" d="M283.4,79.1c-0.6,0-1.2-0.5-1.2-1.2c0-0.7,0.4-1.3,1-1.3l0-0.4c-0.6,0-1.2-0.5-1.2-1.2c0-0.7,0.4-1.3,1-1.3
		l0-0.4c-0.6,0-1.2-0.5-1.2-1.2c0-0.7,0.4-1.3,1-1.3l0-0.4c-0.6,0-1.2-0.5-1.2-1.2c0-0.7,0.4-1.3,1-1.3l0-0.4
		c-0.6,0-1.2-0.5-1.2-1.2c0-0.7,0.4-1.3,1-1.3l0-0.4c-0.6,0-1.2-0.5-1.2-1.2c0-0.7,0.4-1.3,1-1.3l0-0.4c-0.6,0-1.2-0.5-1.2-1.2
		c0-0.7,0.4-1.3,1-1.3l0-0.7c-3.2-0.2-5.9-2.8-6.4-6.4l-56.7,4c0,3.6-2.3,6.6-5.4,7.2l0,0.5l0,0.2c0,0,0,0,0,0l0,0c0,0,0.1,0,0.1,0
		c0.6,0,1.2,0.5,1.2,1.2c0,0.7-0.4,1.3-1,1.3c0,0-0.1,0-0.1,0l0,0c0,0,0,0,0,0l0,0.2l0,0.2c0,0,0.1,0,0.1,0c0.6,0,1.2,0.5,1.2,1.2
		c0,0.7-0.4,1.3-1,1.3c0,0-0.1,0-0.1,0l0,0c0,0,0,0,0,0l0,0.4l0,0.1c0,0,0.1,0,0.1,0c0.6,0,1.2,0.5,1.2,1.2c0,0.7-0.4,1.3-1,1.3
		c0,0-0.1,0-0.1,0l0,0.4c0,0,0.1,0,0.1,0c0.6,0,1.2,0.5,1.2,1.2c0,0.7-0.4,1.3-1,1.3c0,0-0.1,0-0.1,0l0,0.4c0,0,0.1,0,0.1,0
		c0.6,0,1.2,0.5,1.2,1.2c0,0.7-0.4,1.3-1,1.3c0,0-0.1,0-0.1,0l0,0.2l0,0.2c0,0,0,0,0,0l0,0c0,0,0.1,0,0.1,0c0.6,0,1.2,0.5,1.2,1.2
		c0,0.7-0.4,1.3-1,1.3c0,0-0.1,0-0.1,0l0,0c0,0,0,0,0,0l0,0.4c0,0,0,0,0,0l0,0c0,0,0.1,0,0.1,0c0.6,0,1.2,0.5,1.2,1.2
		c0,0.7-0.4,1.3-1,1.3c0,0-0.1,0-0.1,0l0,0c0,0,0,0,0,0l0,0.7c3.2,0.2,5.9,2.8,6.4,6.4l56.7-4c0-3.6,2.3-6.6,5.4-7.2L283.4,79.1z
		 M222.9,86.8L221,60.1l53.1-3.7l1.9,26.7L222.9,86.8z"/>
	<path class="st8" d="M268.2,72.9c-0.1,0-0.2,0.1-0.2,0.3l0.4,0C268.4,73,268.4,72.9,268.2,72.9z"/>
	<path class="st8" d="M221.4,60.5l1.8,25.9l52.3-3.7l-1.8-25.9L221.4,60.5z M271.3,68.3l0.2,2.6l-0.3,0l-0.2-2.6L271.3,68.3z
		 M250.5,69.8l0.2,2.3l1-0.1l0,0.3l-1.3,0.1l-0.2-2.6L250.5,69.8z M249.5,69.9l0.2,2.6l-0.3,0l-0.2-2.6L249.5,69.9z M241.6,79.1
		l-9.3-4.5l2.6,3.8l-0.7,0.5l-2.6-3.8l0.3,4.6l-0.8,0.1l-0.3-4.6l-2,4.1l-0.8-0.4l2-4.1l-3.8,2.6l-0.5-0.7l3.8-2.6l-4.6,0.3
		l-0.1-0.8l4.6-0.3l-4.1-2l0.4-0.8l4.1,2l-2.6-3.8l0.7-0.5l2.6,3.8l-0.3-4.6l0.8-0.1l0.3,4.6l2-4.1l0.8,0.4l-2,4.1l9-6.1l0.5,0.7
		l-9,6.1l4.6-0.3l0.1,0.8l-4.6,0.3l9.3,4.5L241.6,79.1z M240.5,74.5l0-0.2l0.8-0.1l0,0.1c-0.1,0.1-0.2,0.3-0.2,0.5
		c-0.1,0.2-0.1,0.5-0.1,0.8l-0.2,0c0-0.2,0.1-0.4,0.1-0.7c0.1-0.2,0.2-0.4,0.3-0.6L240.5,74.5z M241.5,74.2L241.5,74.2l0.1,0.2
		l0.1,0l0,0.1l-0.1,0l0,0.4c0,0,0,0.1,0.1,0.1c0,0,0,0,0,0l0,0.1c0,0,0,0-0.1,0c-0.1,0-0.1,0-0.1-0.1l0-0.4l-0.1,0l0-0.1l0.1,0
		L241.5,74.2z M242.1,75l0-0.4c0,0,0-0.1-0.1-0.1c-0.1,0-0.1,0-0.1,0.1l0,0.4l-0.1,0l-0.1-0.8l0.1,0l0,0.3h0c0-0.1,0.1-0.1,0.1-0.1
		c0.2,0,0.2,0.1,0.2,0.2L242.1,75L242.1,75z M241.5,73.1l-1,0.1l-0.2-3.1l1-0.1c0.4,0,0.6,0.1,0.7,0.3c0.1,0.2,0.1,0.3,0.2,0.4
		c0,0.4-0.1,0.7-0.5,0.8l0,0c0.4,0,0.7,0.3,0.7,0.7C242.4,72.9,241.8,73,241.5,73.1z M243.5,75.5l-0.1-1.4l0.2,0l0.1,1.4L243.5,75.5
		z M243.7,71.7l-0.4,0l0.1,1.2l-0.3,0l-0.2-2.6l0.9-0.1c0.5,0,0.7,0.3,0.7,0.6c0,0.3-0.1,0.6-0.4,0.6l0,0c0.3,0,0.4,0.1,0.5,0.6
		c0,0.1,0.1,0.5,0.1,0.7l-0.3,0c-0.1-0.2-0.1-0.5-0.2-0.9C244,71.7,243.8,71.7,243.7,71.7z M244.5,75.5l0-0.7c0-0.1,0-0.2-0.2-0.2
		c-0.2,0-0.2,0.2-0.2,0.3l0,0.6l-0.2,0l-0.1-0.8c0-0.1,0-0.1,0-0.2l0.2,0l0,0.1h0c0.1-0.1,0.1-0.2,0.2-0.2c0.2,0,0.3,0.1,0.3,0.3
		l0,0.7L244.5,75.5z M245.2,75.4c-0.1,0-0.2,0-0.2-0.2l0-0.7l-0.2,0l0-0.1l0.2,0l0-0.2l0.2-0.1l0,0.3l0.2,0l0,0.1l-0.2,0l0,0.6
		c0,0.1,0,0.1,0.2,0.1c0,0,0,0,0.1,0l0,0.1C245.3,75.4,245.3,75.4,245.2,75.4z M245.9,75.4c-0.2,0-0.4,0-0.4-0.5
		c0-0.3,0-0.5,0.3-0.5c0.3,0,0.4,0.1,0.4,0.4l0,0.1l-0.5,0c0,0.3,0.1,0.3,0.2,0.3c0.1,0,0.2-0.1,0.2-0.2l0.2,0
		C246.2,75.3,246.1,75.4,245.9,75.4z M245.3,72.2l-0.2,0.6l-0.3,0l0.7-2.7l0.4,0l1,2.6l-0.4,0l-0.2-0.6L245.3,72.2z M246.9,74.5
		C246.9,74.5,246.9,74.5,246.9,74.5c-0.2,0-0.3,0.1-0.2,0.3l0,0.6l-0.2,0l-0.1-1l0.2,0l0,0.1h0c0.1-0.2,0.1-0.2,0.3-0.2L246.9,74.5
		C246.9,74.5,246.9,74.5,246.9,74.5z M247.7,75.2l0-0.7c0-0.1,0-0.2-0.2-0.2c-0.2,0-0.2,0.2-0.2,0.3l0,0.6l-0.2,0l-0.1-0.8
		c0-0.1,0-0.1,0-0.2l0.2,0l0,0.1h0c0.1-0.1,0.1-0.2,0.2-0.2c0.2,0,0.3,0.1,0.3,0.3l0,0.7L247.7,75.2z M247.1,71.9l0.3,0l0,0.1
		c0,0.4,0.3,0.5,0.5,0.4c0.3,0,0.5-0.1,0.4-0.5c0-0.6-1.2-0.4-1.3-1.2c0-0.5,0.3-0.7,0.7-0.8c0.5,0,0.8,0.2,0.8,0.7l-0.4,0
		c0-0.3-0.1-0.5-0.4-0.4c-0.2,0-0.4,0.1-0.4,0.4c0,0.6,1.2,0.4,1.3,1.2c0,0.6-0.3,0.8-0.8,0.8C247.2,72.7,247.2,72.1,247.1,71.9z
		 M248.7,75.2l0-0.1h0c0,0.1-0.1,0.2-0.2,0.2c-0.2,0-0.3-0.1-0.3-0.3c0-0.3,0.3-0.3,0.5-0.3c0-0.1,0-0.3-0.2-0.3
		c-0.1,0-0.2,0.1-0.1,0.2l-0.2,0c0-0.2,0.1-0.3,0.3-0.3c0.2,0,0.3,0.1,0.3,0.3l0,0.5c0,0.1,0,0.2,0,0.2L248.7,75.2z M249.4,75.1
		c-0.1,0-0.2,0-0.2-0.2l0-0.7l-0.2,0l0-0.1l0.2,0l0-0.2l0.2-0.1l0,0.3l0.2,0l0,0.1l-0.2,0l0,0.6c0,0.1,0,0.1,0.2,0.1c0,0,0,0,0.1,0
		l0,0.1C249.5,75.1,249.4,75.1,249.4,75.1z M249.6,73.7l0.2,0l0,0.2l-0.2,0L249.6,73.7z M249.7,75.1l-0.1-1l0.2,0l0.1,1L249.7,75.1z
		 M250.5,75.1c-0.2,0-0.4,0-0.4-0.5c0-0.3,0-0.5,0.3-0.5c0.3,0,0.4,0.2,0.4,0.5C250.9,75,250.7,75.1,250.5,75.1z M251.7,75l0-0.7
		c0-0.1,0-0.2-0.2-0.2c-0.2,0-0.2,0.2-0.2,0.3l0,0.6l-0.2,0l-0.1-0.8c0-0.1,0-0.1,0-0.2l0.2,0l0,0.1h0c0.1-0.1,0.1-0.2,0.2-0.2
		c0.2,0,0.3,0.1,0.3,0.3l0,0.7L251.7,75z M252.6,74.9l0-0.1l0,0c0,0.1-0.1,0.2-0.2,0.2c-0.2,0-0.3-0.1-0.3-0.3
		c0-0.3,0.3-0.3,0.5-0.3c0-0.1,0-0.3-0.2-0.3c-0.1,0-0.2,0.1-0.1,0.2l-0.2,0c0-0.2,0.1-0.3,0.3-0.3c0.2,0,0.3,0.1,0.3,0.3l0,0.5
		c0,0.1,0,0.2,0,0.2L252.6,74.9z M253.1,74.9l-0.1-1.4l0.2,0l0.1,1.4L253.1,74.9z M252.8,71.1l-0.1-0.9c-0.1-0.9,0.3-1.1,0.9-1.2
		c0.6,0,0.9,0.3,0.9,0.9l-0.4,0c0-0.2,0-0.4-0.1-0.4c-0.1-0.1-0.3-0.1-0.4-0.1c-0.3,0-0.4,0.2-0.4,0.3c0,0-0.1,0.1,0,0.6l0.1,0.8
		c0.1,0.8,0.3,0.8,0.6,0.8c0.1,0,0.5-0.1,0.4-0.7l0.4,0c0.1,1-0.6,1-0.8,1C253.5,72.3,252.9,72.3,252.8,71.1z M254.6,74.8
		c-0.2,0-0.4,0-0.5-0.5l0-0.4c0-0.4,0.1-0.5,0.4-0.5c0.3,0,0.4,0.1,0.4,0.4l-0.2,0c0-0.1,0-0.2-0.1-0.2c0,0-0.1-0.1-0.2,0
		c-0.1,0-0.2,0.1-0.2,0.1c0,0,0,0.1,0,0.3l0,0.4c0,0.3,0.1,0.4,0.3,0.4c0.1,0,0.2,0,0.2-0.3l0.2,0C255,74.8,254.7,74.8,254.6,74.8z
		 M255.4,69.4l0.2,2.6l-0.3,0l-0.2-2.6L255.4,69.4z M255.6,74.7c-0.2,0-0.4,0-0.4-0.5c0-0.3,0-0.5,0.3-0.5c0.3,0,0.4,0.2,0.4,0.5
		C256,74.6,255.8,74.7,255.6,74.7z M256.6,74.6c-0.1,0-0.2,0-0.2-0.1h0l0,0.5l-0.2,0l-0.1-1.3l0.2,0l0,0.1h0c0-0.1,0.1-0.1,0.2-0.2
		c0.2,0,0.3,0,0.3,0.5C256.9,74.3,256.9,74.6,256.6,74.6z M257.6,73.7C257.6,73.7,257.5,73.7,257.6,73.7c-0.2,0-0.3,0.1-0.2,0.3
		l0,0.6l-0.2,0l-0.1-1l0.2,0l0,0.1h0c0.1-0.2,0.1-0.2,0.3-0.2L257.6,73.7C257.6,73.7,257.6,73.7,257.6,73.7z M256.4,69.7L256.4,69.7
		l0.2,2.3l-0.3,0l-0.2-2.6l0.5,0l1.2,2.2h0l-0.2-2.3l0.3,0l0.2,2.6l-0.5,0L256.4,69.7z M258.2,74.5c-0.2,0-0.4,0-0.4-0.5
		c0-0.3,0-0.5,0.3-0.5c0.3,0,0.4,0.2,0.4,0.5C258.6,74.4,258.4,74.5,258.2,74.5z M258.5,69.2l1.4-0.1l0,0.3l-1,0.1l0.1,0.8l0.9-0.1
		l0,0.3l-0.9,0.1l0.1,0.9l1-0.1l0,0.3l-1.4,0.1L258.5,69.2z M259.4,74.4l0-0.1h0c0,0.1-0.1,0.1-0.2,0.1c-0.2,0-0.3,0-0.3-0.5
		c0-0.2,0-0.5,0.3-0.5c0.1,0,0.2,0,0.2,0.1h0l0-0.5l0.2,0l0.1,1.4L259.4,74.4z M260.3,74.4l0-0.1h0c0,0.1-0.1,0.1-0.2,0.2
		c-0.2,0-0.3-0.1-0.3-0.2l-0.1-0.7l0.2,0l0,0.7c0,0.1,0.1,0.2,0.2,0.2c0.1,0,0.2-0.1,0.2-0.2l0-0.6l0.2,0l0.1,0.8c0,0.1,0,0.1,0,0.2
		L260.3,74.4z M261.2,74.3c-0.2,0-0.4,0-0.4-0.5c0-0.3,0-0.5,0.3-0.5c0.2,0,0.3,0.1,0.3,0.3l-0.2,0c0-0.2-0.1-0.2-0.1-0.2
		c-0.1,0-0.2,0.1-0.2,0.3c0,0.3,0.1,0.4,0.2,0.4c0,0,0.1,0,0.1-0.2l0.2,0C261.5,74.2,261.3,74.3,261.2,74.3z M262,74.3
		c-0.1,0-0.2,0-0.2-0.2l0-0.7l-0.2,0l0-0.1l0.2,0l0-0.2l0.2-0.1l0,0.3l0.2,0l0,0.1l-0.2,0l0,0.6c0,0.1,0,0.1,0.2,0.1c0,0,0,0,0.1,0
		l0,0.1C262.1,74.2,262.1,74.3,262,74.3z M262.2,72.8l0.2,0l0,0.2l-0.2,0L262.2,72.8z M262.3,74.2l-0.1-1l0.2,0l0.1,1L262.3,74.2z
		 M263.1,74.2c-0.2,0-0.4,0-0.4-0.5c0-0.3,0-0.5,0.3-0.5c0.3,0,0.4,0.2,0.4,0.5C263.5,74.1,263.3,74.2,263.1,74.2z M263.1,71.5
		l-0.2-2.7h0l-0.7,2.8l-0.4,0l-1-2.7l0,0l0.2,2.7l-0.4,0l-0.2-3.1l0.6,0l1,2.5l0,0l0.6-2.6l0.7,0l0.2,3.1L263.1,71.5z M264.3,74.1
		l0-0.7c0-0.1,0-0.2-0.2-0.2c-0.2,0-0.2,0.2-0.2,0.3l0,0.6l-0.2,0l-0.1-0.8c0-0.1,0-0.1,0-0.2l0.2,0l0,0.1h0
		c0.1-0.1,0.1-0.2,0.2-0.2c0.2,0,0.3,0.1,0.3,0.3l0,0.7L264.3,74.1z M264.1,70.5l-0.1-1.7l0.3,0l0.1,1.7c0,0.6,0.2,0.7,0.5,0.7
		c0.3,0,0.5-0.2,0.4-0.8l-0.1-1.7l0.3,0l0.1,1.7c0.1,0.7-0.2,1-0.8,1.1C264.4,71.5,264.2,71.2,264.1,70.5z M266.5,73.9l-0.1-1.2h0
		l-0.3,1.3l-0.2,0l-0.5-1.2l0,0l0.1,1.2l-0.2,0l-0.1-1.4l0.3,0l0.4,1.1h0l0.3-1.2l0.3,0l0.1,1.4L266.5,73.9z M267.3,73.9
		c-0.2,0-0.4,0-0.4-0.5c0-0.3,0-0.5,0.3-0.5c0.3,0,0.4,0.1,0.4,0.4l0,0.1l-0.5,0c0,0.3,0.1,0.3,0.2,0.3c0.1,0,0.2-0.1,0.2-0.2l0.2,0
		C267.7,73.8,267.5,73.9,267.3,73.9z M266.6,69L266.6,69l0.2,2.3l-0.3,0l-0.2-2.6l0.5,0l1.2,2.2h0l-0.2-2.3l0.3,0l0.2,2.6l-0.5,0
		L266.6,69z M268.3,73.8c-0.2,0-0.4,0-0.4-0.5c0-0.3,0-0.5,0.3-0.5c0.3,0,0.4,0.1,0.4,0.4l0,0.1l-0.5,0c0,0.3,0.1,0.3,0.2,0.3
		c0.1,0,0.2-0.1,0.2-0.2l0.2,0C268.7,73.7,268.5,73.8,268.3,73.8z M269.5,68.5c0.3,0,0.6,0.1,0.7,0.4c0.1,0.2,0.2,0.7,0.2,0.8
		c0,0.6,0,0.9-0.1,1.1c-0.1,0.2-0.4,0.4-0.8,0.4l-0.6,0l-0.2-2.6L269.5,68.5z M269.2,73.8c-0.1,0-0.2,0-0.2-0.2l0-0.7l-0.2,0l0-0.1
		l0.2,0l0-0.2l0.2-0.1l0,0.3l0.2,0l0,0.1l-0.2,0l0,0.6c0,0.1,0,0.1,0.2,0.1c0,0,0,0,0.1,0l0,0.1C269.3,73.7,269.2,73.8,269.2,73.8z
		 M269.4,72.3l0.2,0l0,0.2l-0.2,0L269.4,72.3z M269.5,73.7l-0.1-1l0.2,0l0.1,1L269.5,73.7z M270.5,73.7l0-0.7c0-0.1,0-0.2-0.2-0.2
		c-0.2,0-0.2,0.2-0.2,0.3l0,0.6l-0.2,0l-0.1-0.8c0-0.1,0-0.1,0-0.2l0.2,0l0,0.1h0c0.1-0.1,0.1-0.2,0.2-0.2c0.2,0,0.3,0.1,0.3,0.3
		l0,0.7L270.5,73.7z M271.3,74c-0.2,0-0.3-0.1-0.3-0.2l0.2,0c0,0.1,0.1,0.1,0.2,0.1c0.1,0,0.2-0.1,0.2-0.2l0-0.2h0
		c0,0.1-0.1,0.1-0.2,0.1c-0.3,0-0.3-0.2-0.3-0.5c0-0.4,0.2-0.5,0.3-0.5c0.1,0,0.2,0,0.2,0.1h0l0-0.1l0.2,0l0.1,1.1
		C271.6,73.9,271.5,74,271.3,74z"/>
	<path class="st8" d="M245.8,74.5c-0.1,0-0.2,0.1-0.2,0.3l0.4,0C246,74.5,245.9,74.5,245.8,74.5z"/>
	<polygon class="st8" points="245.7,70.4 245.4,71.9 246.2,71.8 245.7,70.4 	"/>
	<path class="st8" d="M252.2,74.6c0,0.1,0.1,0.2,0.2,0.2c0.1,0,0.2-0.1,0.2-0.4C252.4,74.4,252.2,74.4,252.2,74.6z"/>
	<path class="st8" d="M241.2,71.6l-0.4,0l0.1,1.1l0.6,0c0.4,0,0.5-0.3,0.5-0.6C241.9,71.7,241.6,71.6,241.2,71.6z"/>
	<path class="st8" d="M250.4,74.2c-0.1,0-0.2,0.1-0.2,0.3c0,0.3,0.1,0.4,0.2,0.4c0.2,0,0.2-0.1,0.2-0.4
		C250.6,74.2,250.6,74.2,250.4,74.2z"/>
	<path class="st8" d="M256.5,73.8c-0.2,0-0.2,0.3-0.1,0.4c0,0.1,0,0.3,0.2,0.3c0.2,0,0.2-0.1,0.2-0.4
		C256.7,74,256.7,73.8,256.5,73.8z"/>
	<path class="st8" d="M271.2,72.7c-0.2,0-0.2,0.2-0.2,0.4c0,0.3,0.1,0.4,0.2,0.4c0.2,0,0.2-0.2,0.2-0.4
		C271.4,73,271.4,72.7,271.2,72.7z"/>
	<path class="st8" d="M255.5,73.8c-0.1,0-0.2,0.1-0.2,0.3c0,0.3,0.1,0.4,0.2,0.4c0.2,0,0.2-0.1,0.2-0.4
		C255.7,73.9,255.6,73.8,255.5,73.8z"/>
	<path class="st8" d="M244.1,70.9c0-0.2-0.1-0.4-0.4-0.4l-0.5,0l0.1,0.8l0.5,0C244,71.4,244.1,71.2,244.1,70.9z"/>
	<polygon class="st1" points="237.3,73.5 237.2,72.6 232.6,73 241.6,66.9 241.2,66.2 232.2,72.3 234.2,68.1 233.4,67.8 231.4,71.9 
		231.1,67.3 230.3,67.4 230.6,72 228,68.1 227.3,68.6 229.9,72.4 225.8,70.4 225.4,71.2 229.5,73.2 224.9,73.5 225,74.3 229.6,74 
		225.8,76.6 226.3,77.3 230.1,74.7 228,78.8 228.8,79.2 230.8,75.1 231.1,79.7 232,79.6 231.6,75 234.2,78.8 234.9,78.4 232.3,74.5 
		241.6,79.1 242,78.3 232.7,73.8 	"/>
	<path class="st1" d="M241.7,71.4L241.7,71.4c0.4-0.1,0.5-0.4,0.5-0.8c0-0.1,0-0.2-0.2-0.4c-0.1-0.2-0.3-0.3-0.7-0.3l-1,0.1l0.2,3.1
		l1-0.1c0.4,0,0.9-0.1,0.9-0.9C242.3,71.7,242.1,71.5,241.7,71.4z M240.7,70.4l0.6,0c0.3,0,0.5,0.2,0.5,0.4c0,0.3-0.1,0.5-0.4,0.5
		l-0.6,0L240.7,70.4z M241.4,72.7l-0.6,0l-0.1-1.1l0.4,0c0.4,0,0.7,0,0.7,0.5C242,72.4,241.8,72.7,241.4,72.7z"/>
	<path class="st1" d="M244.1,72c0.1,0.3,0.1,0.7,0.2,0.9l0.3,0c-0.1-0.2-0.1-0.6-0.1-0.7c-0.1-0.5-0.2-0.6-0.5-0.6l0,0
		c0.3-0.1,0.5-0.3,0.4-0.6c0-0.3-0.2-0.6-0.7-0.6l-0.9,0.1L243,73l0.3,0l-0.1-1.2l0.4,0C243.8,71.7,244,71.7,244.1,72z M243.7,71.4
		l-0.5,0l-0.1-0.8l0.5,0c0.3,0,0.4,0.2,0.4,0.4C244.1,71.2,244,71.4,243.7,71.4z"/>
	<path class="st1" d="M246.9,72.7l-1-2.6l-0.4,0l-0.7,2.7l0.3,0l0.2-0.6l1-0.1l0.2,0.6L246.9,72.7z M245.4,71.9l0.3-1.4l0,0l0.5,1.4
		L245.4,71.9z"/>
	<path class="st1" d="M248.7,71.9c-0.1-0.8-1.2-0.7-1.3-1.2c0-0.3,0.2-0.4,0.4-0.4c0.3,0,0.4,0.2,0.4,0.4l0.4,0
		c0-0.5-0.3-0.8-0.8-0.7c-0.4,0-0.8,0.3-0.7,0.8c0.1,0.8,1.2,0.6,1.3,1.2c0,0.3-0.2,0.4-0.4,0.5c-0.2,0-0.4-0.1-0.5-0.4l0-0.1
		l-0.3,0c0,0.3,0.1,0.8,0.8,0.8C248.4,72.6,248.8,72.4,248.7,71.9z"/>
	
		<rect x="248.1" y="71" transform="matrix(6.999238e-002 0.9975 -0.9975 6.999238e-002 302.9698 -182.6022)" class="st1" width="2.6" height="0.3"/>
	<polygon class="st1" points="251.6,72.4 251.6,72.1 250.6,72.1 250.5,69.8 250.1,69.8 250.3,72.4 	"/>
	<path class="st1" d="M254.7,71.2l-0.4,0c0,0.6-0.3,0.7-0.4,0.7c-0.3,0-0.6-0.1-0.6-0.8l-0.1-0.8c0-0.5,0-0.6,0-0.6
		c0,0,0.1-0.2,0.4-0.3c0.1,0,0.3,0,0.4,0.1c0.1,0.1,0.1,0.3,0.1,0.4l0.4,0c0-0.6-0.3-0.9-0.9-0.9c-0.6,0-1,0.3-0.9,1.2l0.1,0.9
		c0.1,1.2,0.7,1.2,1.1,1.2C254.1,72.2,254.8,72.2,254.7,71.2z"/>
	
		<rect x="254" y="70.6" transform="matrix(6.993664e-002 0.9976 -0.9976 6.993664e-002 308.1005 -188.9195)" class="st1" width="2.6" height="0.3"/>
	<polygon class="st1" points="257.9,69.3 257.6,69.3 257.8,71.5 257.7,71.5 256.6,69.4 256.1,69.4 256.3,72 256.6,72 256.4,69.7 
		256.4,69.7 257.6,71.9 258.1,71.9 	"/>
	<polygon class="st1" points="260,71.5 259,71.5 258.9,70.6 259.9,70.6 259.9,70.3 258.9,70.3 258.9,69.5 259.9,69.4 259.9,69.1 
		258.5,69.2 258.7,71.9 260.1,71.8 	"/>
	<polygon class="st1" points="262.7,68.5 262.1,71.1 262.1,71.1 261.1,68.6 260.5,68.6 260.7,71.7 261,71.7 260.9,69 260.9,68.9 
		261.9,71.6 262.3,71.6 262.9,68.8 263,68.8 263.1,71.5 263.5,71.5 263.3,68.4 	"/>
	<path class="st1" d="M265.8,70.4l-0.1-1.7l-0.3,0l0.1,1.7c0,0.6-0.1,0.7-0.4,0.8c-0.3,0-0.5-0.1-0.5-0.7l-0.1-1.7l-0.3,0l0.1,1.7
		c0.1,0.7,0.3,1,0.9,1C265.6,71.4,265.8,71.1,265.8,70.4z"/>
	<polygon class="st1" points="268,68.6 267.8,68.6 267.9,70.8 267.9,70.8 266.7,68.7 266.2,68.7 266.4,71.3 266.7,71.3 266.6,69 
		266.6,69 267.8,71.2 268.2,71.2 	"/>
	<path class="st1" d="M269.5,71.1c0.5,0,0.7-0.2,0.8-0.4c0.1-0.2,0.1-0.5,0.1-1.1c0-0.1-0.1-0.6-0.2-0.8c-0.2-0.3-0.4-0.4-0.7-0.4
		l-0.8,0.1l0.2,2.6L269.5,71.1z M269.5,68.8c0.4,0,0.5,0.2,0.6,0.7l0,0.5c0,0.6-0.1,0.8-0.6,0.8l-0.3,0l-0.1-2L269.5,68.8z"/>
	
		<rect x="269.9" y="69.5" transform="matrix(6.924849e-002 0.9976 -0.9976 6.924849e-002 321.906 -205.7011)" class="st1" width="2.6" height="0.3"/>
	
		<rect x="242.8" y="74.8" transform="matrix(-6.914715e-002 -0.9976 0.9976 -6.914715e-002 185.7119 322.9727)" class="st1" width="1.4" height="0.2"/>
	<path class="st1" d="M244.4,74.5c-0.1,0-0.2,0-0.2,0.2h0l0-0.1l-0.2,0c0,0.1,0,0.1,0,0.2l0.1,0.8l0.2,0l0-0.6c0-0.1,0-0.3,0.2-0.3
		c0.1,0,0.2,0.1,0.2,0.2l0,0.7l0.2,0l0-0.7C244.6,74.6,244.6,74.5,244.4,74.5z"/>
	<path class="st1" d="M245.3,75.3c-0.1,0-0.1-0.1-0.2-0.1l0-0.6l0.2,0l0-0.1l-0.2,0l0-0.3l-0.2,0.1l0,0.2l-0.2,0l0,0.1l0.2,0l0,0.7
		c0,0.1,0.1,0.2,0.2,0.2c0.1,0,0.1,0,0.2,0L245.3,75.3C245.3,75.3,245.3,75.3,245.3,75.3z"/>
	<path class="st1" d="M245.9,75.3c-0.1,0-0.2,0-0.2-0.3l0.5,0l0-0.1c0-0.3-0.1-0.5-0.4-0.4c-0.3,0-0.4,0.3-0.3,0.5
		c0,0.4,0.2,0.5,0.4,0.5c0.2,0,0.3-0.1,0.3-0.3l-0.2,0C246,75.2,246,75.3,245.9,75.3z M245.8,74.5c0.1,0,0.2,0,0.2,0.3l-0.4,0
		C245.6,74.6,245.7,74.5,245.8,74.5z"/>
	<path class="st1" d="M246.6,74.5L246.6,74.5l0-0.1l-0.2,0l0.1,1l0.2,0l0-0.6c0-0.1,0-0.3,0.2-0.3c0,0,0,0,0,0c0,0,0,0,0,0l0-0.2
		C246.8,74.3,246.7,74.3,246.6,74.5z"/>
	<path class="st1" d="M247.5,74.3c-0.1,0-0.2,0-0.2,0.2h0l0-0.1l-0.2,0c0,0.1,0,0.1,0,0.2l0.1,0.8l0.2,0l0-0.6c0-0.1,0-0.3,0.2-0.3
		c0.1,0,0.2,0.1,0.2,0.2l0,0.7l0.2,0l0-0.7C247.8,74.4,247.8,74.3,247.5,74.3z"/>
	<path class="st1" d="M248.8,74.5c0-0.2-0.1-0.3-0.3-0.3c-0.2,0-0.3,0.1-0.3,0.3l0.2,0c0-0.1,0-0.2,0.1-0.2c0.2,0,0.2,0.1,0.2,0.3
		c-0.2,0-0.5,0-0.5,0.3c0,0.2,0.1,0.3,0.3,0.3c0.1,0,0.2-0.1,0.2-0.2h0l0,0.1l0.2,0c0-0.1,0-0.2,0-0.2L248.8,74.5z M248.5,75.1
		c-0.1,0-0.2-0.1-0.2-0.2c0-0.2,0.2-0.2,0.3-0.2C248.7,75,248.6,75.1,248.5,75.1z"/>
	<path class="st1" d="M249.5,75c-0.1,0-0.1-0.1-0.2-0.1l0-0.6l0.2,0l0-0.1l-0.2,0l0-0.3l-0.2,0.1l0,0.2l-0.2,0l0,0.1l0.2,0l0,0.7
		c0,0.1,0.1,0.2,0.2,0.2c0.1,0,0.1,0,0.2,0L249.5,75C249.5,75,249.5,75,249.5,75z"/>
	
		<rect x="249.3" y="74.5" transform="matrix(-7.057088e-002 -0.9975 0.9975 -7.057088e-002 192.9424 329.0098)" class="st1" width="1" height="0.2"/>
	
		<rect x="249.6" y="73.7" transform="matrix(0.9974 -7.200973e-002 7.200973e-002 0.9974 -4.6664 18.1719)" class="st1" width="0.2" height="0.2"/>
	<path class="st1" d="M250.4,74.1c-0.3,0-0.4,0.3-0.3,0.5c0,0.4,0.2,0.5,0.4,0.5c0.2,0,0.4-0.1,0.3-0.5
		C250.8,74.3,250.8,74,250.4,74.1z M250.5,74.9c-0.2,0-0.2-0.1-0.2-0.4c0-0.3,0.1-0.3,0.2-0.3c0.1,0,0.2,0,0.2,0.3
		C250.7,74.8,250.7,74.9,250.5,74.9z"/>
	<path class="st1" d="M251.5,74c-0.1,0-0.2,0-0.2,0.2h0l0-0.1l-0.2,0c0,0.1,0,0.1,0,0.2l0.1,0.8l0.2,0l0-0.6c0-0.1,0-0.3,0.2-0.3
		c0.1,0,0.2,0.1,0.2,0.2l0,0.7l0.2,0l0-0.7C251.8,74.1,251.7,74,251.5,74z"/>
	<path class="st1" d="M252.7,74.2c0-0.2-0.1-0.3-0.3-0.3c-0.2,0-0.3,0.1-0.3,0.3l0.2,0c0-0.1,0-0.2,0.1-0.2c0.2,0,0.2,0.1,0.2,0.3
		c-0.2,0-0.5,0-0.5,0.3c0,0.2,0.1,0.3,0.3,0.3c0.1,0,0.2-0.1,0.2-0.2l0,0l0,0.1l0.2,0c0-0.1,0-0.2,0-0.2L252.7,74.2z M252.4,74.8
		c-0.1,0-0.2-0.1-0.2-0.2c0-0.2,0.2-0.2,0.3-0.2C252.6,74.7,252.5,74.8,252.4,74.8z"/>
	
		<rect x="252.4" y="74.1" transform="matrix(-6.910022e-002 -0.9976 0.9976 -6.910022e-002 196.621 331.8196)" class="st1" width="1.4" height="0.2"/>
	<path class="st1" d="M254.6,74.6c-0.1,0-0.2,0-0.3-0.4l0-0.4c0-0.2,0-0.3,0-0.3c0,0,0.1-0.1,0.2-0.1c0,0,0.1,0,0.2,0
		c0,0,0.1,0.1,0.1,0.2l0.2,0c0-0.3-0.1-0.4-0.4-0.4c-0.3,0-0.4,0.1-0.4,0.5l0,0.4c0,0.5,0.3,0.5,0.5,0.5c0.1,0,0.4,0,0.4-0.5l-0.2,0
		C254.8,74.6,254.6,74.6,254.6,74.6z"/>
	<path class="st1" d="M255.5,73.7c-0.3,0-0.4,0.3-0.3,0.5c0,0.4,0.2,0.5,0.4,0.5c0.2,0,0.4-0.1,0.3-0.5
		C255.9,73.9,255.9,73.7,255.5,73.7z M255.6,74.6c-0.2,0-0.2-0.1-0.2-0.4c0-0.3,0.1-0.3,0.2-0.3c0.1,0,0.2,0,0.2,0.3
		C255.8,74.5,255.7,74.6,255.6,74.6z"/>
	<path class="st1" d="M256.6,73.6c-0.1,0-0.2,0.1-0.2,0.2h0l0-0.1l-0.2,0l0.1,1.3l0.2,0l0-0.5h0c0.1,0.1,0.1,0.1,0.2,0.1
		c0.3,0,0.3-0.3,0.3-0.5C256.9,73.7,256.7,73.6,256.6,73.6z M256.6,74.5c-0.2,0-0.2-0.2-0.2-0.3c0-0.1,0-0.4,0.1-0.4
		c0.2,0,0.2,0.2,0.2,0.3C256.8,74.4,256.7,74.5,256.6,74.5z"/>
	<path class="st1" d="M257.3,73.7L257.3,73.7l0-0.1l-0.2,0l0.1,1l0.2,0l0-0.6c0-0.1,0-0.3,0.2-0.3c0,0,0,0,0,0c0,0,0,0,0,0l0-0.2
		C257.5,73.6,257.4,73.6,257.3,73.7z"/>
	<path class="st1" d="M258.1,73.5c-0.3,0-0.4,0.3-0.3,0.5c0,0.4,0.2,0.5,0.4,0.5c0.2,0,0.4-0.1,0.3-0.5
		C258.5,73.7,258.5,73.5,258.1,73.5z M258.2,74.4c-0.2,0-0.2-0.1-0.2-0.4c0-0.3,0.1-0.3,0.2-0.3c0.1,0,0.2,0,0.2,0.3
		C258.4,74.3,258.4,74.4,258.2,74.4z"/>
	<path class="st1" d="M259.3,73l0,0.5h0c-0.1-0.1-0.1-0.1-0.2-0.1c-0.3,0-0.3,0.3-0.3,0.5c0,0.4,0.2,0.5,0.3,0.5
		c0.1,0,0.2-0.1,0.2-0.1h0l0,0.1l0.2,0l-0.1-1.4L259.3,73z M259.2,74.3c-0.2,0-0.2-0.2-0.2-0.3c0-0.3,0-0.4,0.2-0.4
		c0.2,0,0.2,0.2,0.2,0.3C259.3,74.1,259.4,74.3,259.2,74.3z"/>
	<path class="st1" d="M260.4,73.4l-0.2,0l0,0.6c0,0.2-0.1,0.2-0.2,0.2c-0.1,0-0.2-0.1-0.2-0.2l0-0.7l-0.2,0l0.1,0.7
		c0,0.2,0.1,0.2,0.3,0.2c0.1,0,0.2-0.1,0.2-0.2h0l0,0.1l0.2,0c0-0.1,0-0.1,0-0.2L260.4,73.4z"/>
	<path class="st1" d="M261.2,74.2c-0.2,0-0.2-0.1-0.2-0.4c0-0.3,0.1-0.3,0.2-0.3c0.1,0,0.1,0,0.1,0.2l0.2,0c0-0.2-0.1-0.3-0.3-0.3
		c-0.3,0-0.4,0.3-0.3,0.5c0,0.4,0.2,0.5,0.4,0.5c0.1,0,0.3-0.1,0.3-0.4l-0.2,0C261.3,74.1,261.2,74.2,261.2,74.2z"/>
	<path class="st1" d="M262.1,74.1c-0.1,0-0.1-0.1-0.2-0.1l0-0.6l0.2,0l0-0.1l-0.2,0l0-0.3l-0.2,0.1l0,0.2l-0.2,0l0,0.1l0.2,0l0,0.7
		c0,0.1,0.1,0.2,0.2,0.2c0.1,0,0.1,0,0.2,0L262.1,74.1C262.1,74.1,262.1,74.1,262.1,74.1z"/>
	
		<rect x="261.9" y="73.7" transform="matrix(-6.962454e-002 -0.9976 0.9976 -6.962454e-002 207.1045 340.6213)" class="st1" width="1" height="0.2"/>
	
		<rect x="262.2" y="72.8" transform="matrix(0.9978 -6.649602e-002 6.649602e-002 0.9978 -4.2683 17.6056)" class="st1" width="0.2" height="0.2"/>
	<path class="st1" d="M263.1,73.2c-0.3,0-0.4,0.3-0.3,0.5c0,0.4,0.2,0.5,0.4,0.5c0.2,0,0.4-0.1,0.3-0.5
		C263.5,73.4,263.4,73.2,263.1,73.2z M263.1,74.1c-0.2,0-0.2-0.1-0.2-0.4c0-0.3,0.1-0.3,0.2-0.3c0.1,0,0.2,0,0.2,0.3
		C263.3,73.9,263.3,74,263.1,74.1z"/>
	<path class="st1" d="M264.1,73.1c-0.1,0-0.2,0-0.2,0.2h0l0-0.1l-0.2,0c0,0.1,0,0.1,0,0.2l0.1,0.8l0.2,0l0-0.6c0-0.1,0-0.3,0.2-0.3
		c0.1,0,0.2,0.1,0.2,0.2l0,0.7l0.2,0l0-0.7C264.4,73.2,264.3,73.1,264.1,73.1z"/>
	<polygon class="st1" points="266.3,72.6 266,73.7 266,73.7 265.6,72.6 265.3,72.6 265.4,74 265.6,74 265.5,72.8 265.5,72.8 
		265.9,74 266.1,74 266.4,72.7 266.4,72.7 266.5,73.9 266.7,73.9 266.6,72.5 	"/>
	<path class="st1" d="M267.3,73.8c-0.1,0-0.2,0-0.2-0.3l0.5,0l0-0.1c0-0.3-0.1-0.5-0.4-0.4c-0.3,0-0.4,0.3-0.3,0.5
		c0,0.4,0.2,0.5,0.4,0.5c0.2,0,0.3-0.1,0.3-0.3l-0.2,0C267.5,73.7,267.4,73.8,267.3,73.8z M267.3,73c0.1,0,0.2,0,0.2,0.3l-0.4,0
		C267.1,73.1,267.2,73,267.3,73z"/>
	<path class="st1" d="M268.3,73.7c-0.1,0-0.2,0-0.2-0.3l0.5,0l0-0.1c0-0.3-0.1-0.5-0.4-0.4c-0.3,0-0.4,0.3-0.3,0.5
		c0,0.4,0.2,0.5,0.4,0.5c0.2,0,0.3-0.1,0.3-0.3l-0.2,0C268.5,73.6,268.4,73.7,268.3,73.7z M268.2,72.9c0.1,0,0.2,0,0.2,0.3l-0.4,0
		C268.1,73,268.1,72.9,268.2,72.9z"/>
	<path class="st1" d="M269.3,73.6c-0.1,0-0.1-0.1-0.2-0.1l0-0.6l0.2,0l0-0.1l-0.2,0l0-0.3l-0.2,0.1l0,0.2l-0.2,0l0,0.1l0.2,0l0,0.7
		c0,0.1,0.1,0.2,0.2,0.2c0.1,0,0.1,0,0.2,0L269.3,73.6C269.3,73.6,269.3,73.6,269.3,73.6z"/>
	
		<rect x="269.1" y="73.2" transform="matrix(-6.960264e-002 -0.9976 0.9976 -6.960264e-002 215.254 347.2251)" class="st1" width="1" height="0.2"/>
	
		<rect x="269.4" y="72.3" transform="matrix(0.9976 -6.925367e-002 6.925367e-002 0.9976 -4.3683 18.8372)" class="st1" width="0.2" height="0.2"/>
	<path class="st1" d="M270.3,72.7c-0.1,0-0.2,0-0.2,0.2h0l0-0.1l-0.2,0c0,0.1,0,0.1,0,0.2l0.1,0.8l0.2,0l0-0.6c0-0.1,0-0.3,0.2-0.3
		c0.1,0,0.2,0.1,0.2,0.2l0,0.7l0.2,0l0-0.7C270.6,72.8,270.5,72.7,270.3,72.7z"/>
	<path class="st1" d="M271.4,72.6l0,0.1h0c0-0.1-0.1-0.1-0.2-0.1c-0.1,0-0.3,0.1-0.3,0.5c0,0.3,0.1,0.5,0.3,0.5
		c0.1,0,0.2-0.1,0.2-0.1h0l0,0.2c0,0.1,0,0.2-0.2,0.2c-0.1,0-0.1,0-0.2-0.1l-0.2,0c0,0.2,0.1,0.2,0.3,0.2c0.2,0,0.4-0.1,0.3-0.3
		l-0.1-1.1L271.4,72.6z M271.3,73.5c-0.1,0-0.2-0.1-0.2-0.4c0-0.1,0-0.3,0.2-0.4c0.2,0,0.2,0.2,0.2,0.4
		C271.4,73.2,271.4,73.5,271.3,73.5z"/>
	<path class="st1" d="M240.8,75.8l0.2,0c0-0.3,0.1-0.5,0.1-0.8c0.1-0.2,0.2-0.4,0.2-0.5l0-0.1l-0.8,0.1l0,0.2l0.6,0
		c-0.1,0.2-0.2,0.4-0.3,0.6C240.8,75.3,240.8,75.5,240.8,75.8z"/>
	<path class="st1" d="M241.4,74.5L241.4,74.5l0.1,0.4c0,0.1,0,0.1,0.1,0.1c0,0,0.1,0,0.1,0l0-0.1c0,0,0,0,0,0c-0.1,0-0.1,0-0.1-0.1
		l0-0.4l0.1,0l0-0.1l-0.1,0l0-0.2l-0.1,0L241.4,74.5L241.4,74.5L241.4,74.5z"/>
	<path class="st1" d="M242,74.4c-0.1,0-0.1,0-0.1,0.1h0l0-0.3l-0.1,0l0.1,0.8l0.1,0l0-0.4C241.9,74.5,241.9,74.4,242,74.4
		c0.1,0.1,0.1,0.2,0.1,0.2l0,0.4l0.1,0l0-0.4C242.2,74.5,242.2,74.3,242,74.4z"/>
	<path class="st1" d="M221,60.1l1.9,26.7l53.1-3.7l-1.9-26.7L221,60.1z M223.2,86.4l-1.8-25.9l52.3-3.7l1.8,25.9L223.2,86.4z"/>
	<path class="st9" d="M203.6,72.8L203.6,72.8c0-0.3-0.2-0.4-0.3-0.4l-1,0.1l1,0.6C203.5,73.2,203.6,73,203.6,72.8z"/>
	<path class="st9" d="M203,69.2c0.1,0,0.3-0.1,0.3-0.3l0-0.1c0-0.2-0.2-0.3-0.3-0.3l-0.5,0c-0.1,0-0.2,0.1-0.2,0.3l0,0.4L203,69.2z"
		/>
	<path class="st9" d="M158.9,87.6l-0.2,0l0,0.7l0.2,0c0.2,0,0.4-0.1,0.3-0.4C159.3,87.6,159.1,87.6,158.9,87.6z"/>
	<path class="st9" d="M166.6,86.6c-0.2,0-0.2,0.2-0.2,0.3l0,0.1l0.4,0C166.8,86.7,166.8,86.6,166.6,86.6z"/>
	<path class="st9" d="M201.9,73.3l1-0.1l-1-0.6c-0.1,0-0.3,0.1-0.3,0.3l0,0.1C201.6,73.2,201.7,73.3,201.9,73.3z"/>
	<path class="st9" d="M166.4,76.4c0,0,0.1,0.1,0.2,0c0.1,0,0.1,0,0.2-0.1c0,0,0-0.1,0-0.2l-0.3-3.7c0-0.1,0-0.2-0.1-0.2
		c0,0-0.1-0.1-0.2,0c-0.1,0-0.1,0-0.2,0.1c0,0,0,0.1,0,0.2l0.3,3.7C166.3,76.3,166.3,76.4,166.4,76.4z"/>
	<path class="st9" d="M152.9,65.3l1.8,25.9l45.1-3.2L198,62.1L152.9,65.3z M189.5,69.8l0.3,4.5l1-0.1l-0.3-4.5l1-0.1l0.8,10.1
		l-1,0.1l-0.4-4.7l-1,0.1l0.4,4.7l-1,0.1l-0.8-10.1L189.5,69.8z M186.5,70.1c1-0.1,1.6,0.6,1.7,2.1l0.1,1c0,0.5,0,0.9-0.1,1.2
		c0,0,0,0,0,0c-0.1,0.2-0.2,0.3-0.3,0.5c0,0,0,0,0,0c-0.1,0.1-0.1,0.1-0.2,0.1c0.5,0.2,0.8,0.8,0.9,1.7l0,0.2l0.1,1.1
		c0.1,0.8,0,1.4-0.3,1.8c0,0-0.1,0.1-0.2,0.2c-0.2,0.2-0.5,0.4-0.9,0.4l-1.5,0.1l0-0.3c0,0,0,0,0,0c0,0,0,0,0,0l-0.8-9.8L186.5,70.1
		z M184.5,70.2l0.1,0.7l-0.8,0.1l0.1,1.7l0.5,0l0,0.7l-0.5,0l0.1,1.8l0.8-0.1l0.1,0.7l-1.5,0.1l-0.4-5.5L184.5,70.2z M181.3,70.4
		l0.8,3l-0.2-3.1l0.6,0l0.4,5.5l-0.8,0.1l-0.8-3l0.2,3.1l-0.6,0l-0.4-5.5L181.3,70.4z M180.1,70.5l0.4,5.5l-0.7,0l-0.4-5.5
		L180.1,70.5z M177.5,70.7c1-0.1,1.5,0.6,1.6,2.1l0.1,0.9l-1,0.1l-0.1-1.6c0-0.4-0.2-0.6-0.5-0.5c-0.3,0-0.5,0.2-0.5,0.6l0.5,6.9
		c0,0.4,0.2,0.6,0.6,0.5c0,0,0.1,0,0.1,0c0,0,0,0,0.1,0c0.2-0.1,0.3-0.2,0.3-0.4c0,0,0-0.1,0-0.1c0,0,0-0.1,0-0.1l-0.1-1.9l1-0.1
		l0.1,1.3c0,0.2,0,0.4,0,0.6l0,0.2c0,0,0,0,0,0c0,0,0,0,0,0c-0.1,0.9-0.5,1.4-1.3,1.5c-1,0.1-1.6-0.6-1.7-2.1l-0.4-5.7
		C176,71.6,176.5,70.8,177.5,70.7z M174.2,71l0.7-0.1l1.2,5.5l-0.7,0.1l-0.2-0.8l-0.6,0l0,0.8l-0.7,0.1L174.2,71z M172.4,71.1
		c0.3,0,0.6,0.1,0.7,0.3c0.2,0.2,0.3,0.5,0.3,0.9l0,0.6c0,0.2,0,0.5,0,0.6c0,0,0,0,0,0.1c0,0,0,0,0,0c-0.1,0.2-0.1,0.3-0.3,0.4
		l0.6,2.6l-0.7,0l-0.5-2.4l-0.2,0l0.2,2.5l-0.7,0.1l-0.4-5.5L172.4,71.1z M170.3,71.3C170.3,71.3,170.3,71.3,170.3,71.3l0.9-0.1
		l0,0.7l-0.5,0l0.4,4.9l-0.7,0L170,72l-0.5,0l-0.1-0.7L170.3,71.3z M167.7,71.8c0,0,0.1-0.1,0.1-0.1c0,0,0,0,0,0c0,0,0,0,0,0
		c0,0,0,0,0,0c0,0,0.1-0.1,0.1-0.1c0,0,0,0,0,0c0,0,0,0,0,0c0,0,0,0,0,0c0,0,0,0,0,0c0,0,0,0,0,0c0,0,0,0,0,0v0c0,0,0,0,0,0
		c0,0,0,0,0,0c0,0,0,0,0,0c0,0,0,0,0,0c0,0,0,0,0,0c0,0,0,0,0,0l0,0c0,0,0,0,0,0l0,0c0,0,0,0,0,0c0,0,0,0,0,0c0,0,0.1,0,0.1,0
		c0,0,0,0,0,0h0c0,0,0,0,0,0c0,0,0.1,0,0.1,0c0,0,0,0,0,0c0,0,0.1,0,0.1,0c0,0,0,0,0,0c0,0,0,0,0,0c0.1,0,0.1,0,0.2,0.1c0,0,0,0,0,0
		v0c0,0,0,0,0,0v0c0,0,0,0,0,0c0,0,0.1,0,0.1,0.1c0,0,0,0,0,0c0,0,0,0,0,0c0,0,0,0,0,0c0,0,0,0,0,0c0,0,0,0,0,0c0,0,0,0,0,0
		c0,0,0,0,0,0c0,0,0,0,0,0c0,0,0,0.1,0,0.1c0,0,0,0,0,0c0,0,0.1,0.1,0.1,0.1c0,0,0,0,0,0c0,0.1,0,0.1,0.1,0.2c0,0,0,0.1,0,0.1
		c0,0,0,0.1,0,0.1c0,0.1,0,0.2,0,0.2c0,0,0,0,0,0l0,0.6l-0.7,0l-0.1-0.9c0-0.1,0-0.2-0.1-0.2c0,0,0,0-0.1,0c0,0,0,0-0.1,0
		c-0.1,0-0.1,0-0.1,0.1c0,0,0,0.1,0,0.2l0,0.6c0,0.2,0.1,0.4,0.2,0.6c0.1,0.1,0.2,0.3,0.3,0.4c0.1,0.2,0.3,0.3,0.4,0.5c0,0,0,0,0,0
		c0.1,0.2,0.2,0.4,0.2,0.7l0,0.1c0,0,0,0,0,0l0,0.3c0,0.4,0,0.7-0.1,0.9c0,0-0.1,0.1-0.1,0.1c0,0,0,0,0,0c0,0,0,0,0,0c0,0,0,0,0,0
		c0,0-0.1,0.1-0.1,0.1c0,0,0,0,0,0c0,0,0,0,0,0c0,0,0,0,0,0c0,0,0,0,0,0c0,0,0,0,0,0c0,0,0,0,0,0c0,0,0,0,0,0c0,0,0,0,0,0
		c0,0,0,0,0,0c0,0,0,0,0,0v0c0,0,0,0,0,0c0,0,0,0,0,0l0,0c0,0,0,0,0,0l0,0c0,0,0,0,0,0h0c0,0-0.1,0-0.1,0c0,0,0,0,0,0h0c0,0,0,0,0,0
		c0,0-0.1,0-0.1,0c0,0,0,0,0,0c0,0-0.1,0-0.1,0c0,0,0,0,0,0c0,0,0,0,0,0c-0.1,0-0.1,0-0.2-0.1c0,0,0,0,0,0l0,0c0,0,0,0,0,0h0l0,0
		c0,0,0,0,0,0c0,0,0,0-0.1-0.1c0,0,0,0,0,0c0,0,0,0,0,0h0c0,0,0,0,0,0c0,0,0,0,0,0c0,0,0,0,0,0c0,0,0,0,0,0c0,0,0,0,0,0
		c0,0,0-0.1,0-0.1c0,0,0,0,0,0c0,0,0-0.1-0.1-0.1c0,0,0,0,0,0c0-0.1,0-0.1-0.1-0.2c0,0,0-0.1,0-0.1c0,0,0-0.1,0-0.1
		c0-0.1,0-0.2,0-0.2c0,0,0,0,0,0l0-0.2l0-0.6l0.7-0.1l0,0.2h0l0.1,0.9c0,0.1,0,0.2,0.1,0.2c0,0,0,0,0.1,0c0,0,0,0,0.1,0
		c0.1,0,0.1,0,0.1-0.1c0,0,0-0.1,0-0.2l0-0.6c0-0.2-0.1-0.4-0.2-0.6c-0.1-0.1-0.2-0.3-0.3-0.4c-0.1-0.2-0.3-0.3-0.4-0.5c0,0,0,0,0,0
		c-0.1-0.2-0.2-0.4-0.2-0.7l0-0.1c0,0,0,0,0,0l0-0.3C167.5,72.3,167.6,72,167.7,71.8z M165.5,72c0-0.1,0.1-0.2,0.2-0.2l0,0
		c0.1-0.1,0.2-0.1,0.3-0.1c0,0,0.1,0,0.1,0l0,0c0.2,0,0.4,0,0.5,0.1c0,0,0,0,0.1,0v0c0,0,0,0,0,0c0,0,0,0,0.1,0.1c0,0,0,0,0,0
		c0,0,0,0,0,0c0,0,0,0,0,0h0c0,0,0,0,0,0c0.1,0.1,0.2,0.3,0.2,0.5c0,0.1,0,0.1,0,0.2c0,0,0,0,0,0c0,0.1,0.3,3.2,0.3,3.2
		c0,0.4,0,0.7-0.1,0.9c0,0.1-0.1,0.2-0.2,0.2l0,0c-0.1,0.1-0.2,0.1-0.3,0.1c0,0-0.1,0-0.1,0h0c-0.2,0-0.4,0-0.5-0.1c0,0,0,0-0.1,0v0
		c0,0,0,0,0,0c0,0,0,0-0.1-0.1c0,0,0,0,0,0c0,0,0,0,0,0c0,0,0,0,0,0h0c0,0,0,0,0,0c-0.1-0.1-0.2-0.3-0.2-0.5c0-0.1,0-0.1,0-0.2v0
		c0-0.1-0.3-3.2-0.3-3.2C165.4,72.5,165.4,72.2,165.5,72z M161.3,67.3l1.4,7.2l0.3-7.3l1.5-0.1l0.8,10.1l-0.9,0.1l-0.6-7.9l-0.4,8
		l-0.8,0.1l-1.6-7.8l0.6,7.9l-0.9,0.1l-0.8-10.1L161.3,67.3z M158.1,84.3l37.3-2.6l0,0.3l-37.3,2.6L158.1,84.3z M159.1,88.5
		l-0.7,0.1l-0.2-2.2l0.7-0.1c0.4,0,0.6,0.1,0.7,0.5c0,0.2-0.1,0.4-0.3,0.5v0c0.2,0,0.4,0.2,0.4,0.5
		C159.8,88.2,159.6,88.5,159.1,88.5z M161.1,88.4l-0.1-1l-0.5,0l0.1,1l-0.4,0l-0.2-2.2l0.4,0l0.1,0.8l0.5,0l-0.1-0.8l0.4,0l0.2,2.2
		L161.1,88.4z M162.7,88.3l-0.2-2.2l0.4,0l0.2,2.2L162.7,88.3z M164.4,88.2l-0.1-1.1c0-0.2-0.1-0.2-0.2-0.2c-0.1,0-0.2,0.1-0.2,0.3
		l0.1,1.1l-0.4,0l-0.1-1.6l0.4,0l0,0.2h0c0.1-0.2,0.2-0.3,0.4-0.3c0.3,0,0.4,0.1,0.5,0.4l0.1,1.2L164.4,88.2z M165.6,88.1
		c-0.3,0-0.4-0.1-0.4-0.4l-0.1-0.9l-0.2,0l0-0.3l0.2,0l0-0.5l0.4,0l0,0.5l0.2,0l0,0.3l-0.2,0l0.1,0.9c0,0.1,0,0.2,0.2,0.2
		c0,0,0.1,0,0.1,0l0,0.3C165.8,88.1,165.7,88.1,165.6,88.1z M166.4,87.4c0,0.2,0.1,0.4,0.2,0.4c0.1,0,0.2-0.1,0.2-0.3l0.4,0
		c0,0.4-0.2,0.6-0.6,0.6c-0.6,0-0.7-0.4-0.7-0.8c0-0.4,0-0.9,0.6-0.9c0.5,0,0.6,0.3,0.7,0.8l0,0.1l-0.8,0.1L166.4,87.4z M168.3,86.6
		c-0.1,0-0.3,0.1-0.3,0.3l0.1,1l-0.4,0l-0.1-1.6l0.4,0l0,0.2h0c0.1-0.2,0.2-0.3,0.4-0.3c0,0,0.1,0,0.1,0l0,0.4
		C168.4,86.6,168.3,86.6,168.3,86.6z M169.5,87.8l-0.1-1.1c0-0.2-0.1-0.2-0.2-0.2c-0.1,0-0.2,0.1-0.2,0.3l0.1,1.1l-0.4,0l-0.1-1.7
		l0.4,0l0,0.2h0c0.1-0.2,0.2-0.3,0.4-0.3c0.3,0,0.4,0.1,0.5,0.4l0.1,1.2L169.5,87.8z M171.1,87.7c0-0.1,0-0.1-0.1-0.2h0
		c-0.1,0.2-0.2,0.2-0.4,0.2c-0.3,0-0.4-0.2-0.4-0.4c0-0.3,0.1-0.4,0.4-0.5l0.2-0.1c0.1,0,0.2-0.1,0.2-0.2c0-0.1-0.1-0.2-0.2-0.2
		c-0.1,0-0.2,0.1-0.2,0.2l0,0l-0.4,0l0,0c0-0.4,0.2-0.5,0.5-0.5c0.5,0,0.6,0.2,0.6,0.5l0.1,0.9c0,0.2,0,0.2,0.1,0.3L171.1,87.7z
		 M172.3,87.6c-0.3,0-0.4-0.1-0.4-0.4l-0.1-0.9l-0.2,0l0-0.3l0.2,0l0-0.5l0.4,0l0,0.5l0.2,0l0,0.3l-0.2,0l0.1,0.9
		c0,0.1,0,0.2,0.2,0.2c0,0,0.1,0,0.1,0l0,0.3C172.5,87.6,172.4,87.6,172.3,87.6z M172.8,87.6l-0.1-1.6l0.4,0l0.1,1.6L172.8,87.6z
		 M174.2,87.5c-0.5,0-0.7-0.2-0.7-0.8c0-0.6,0.1-0.9,0.6-0.9c0.5,0,0.7,0.2,0.7,0.8C174.9,87.2,174.7,87.5,174.2,87.5z M176,87.4
		l-0.1-1.1c0-0.2-0.1-0.2-0.2-0.2c-0.1,0-0.2,0.1-0.2,0.3l0.1,1.1l-0.4,0l-0.1-1.6l0.4,0l0,0.2h0c0.1-0.2,0.2-0.3,0.4-0.3
		c0.3,0,0.4,0.1,0.5,0.4l0.1,1.2L176,87.4z M177.6,87.3c0-0.1,0-0.1-0.1-0.2h0c-0.1,0.2-0.2,0.2-0.4,0.2c-0.3,0-0.4-0.2-0.4-0.4
		c0-0.3,0.1-0.4,0.4-0.5l0.2-0.1c0.1,0,0.2-0.1,0.2-0.2c0-0.1-0.1-0.2-0.2-0.2c-0.1,0-0.2,0.1-0.2,0.2l0,0l-0.4,0l0,0
		c0-0.4,0.2-0.5,0.5-0.5c0.5,0,0.6,0.2,0.6,0.5l0.1,0.9c0,0.2,0,0.2,0.1,0.3L177.6,87.3z M178.3,87.2l-0.2-2.2l0.4,0l0.2,2.2
		L178.3,87.2z M180.4,87.1l-0.4,0l-0.2-2.2l1.2-0.1l0,0.4l-0.8,0.1l0,0.5l0.7-0.1l0,0.4l-0.7,0.1L180.4,87.1z M181.4,87l-0.1-1.7
		l0.4,0l0.1,1.6L181.4,87z M182.2,86.9l-0.2-2.2l0.4,0l0.2,2.2L182.2,86.9z M184.6,86.8l-0.1-1.2c0-0.1-0.1-0.2-0.2-0.2
		c-0.1,0-0.2,0.1-0.2,0.3l0.1,1.1l-0.4,0l-0.1-1.2c0-0.1-0.1-0.2-0.2-0.2c-0.1,0-0.2,0.1-0.2,0.3l0.1,1.1l-0.4,0l-0.1-1.6l0.4,0
		l0,0.2h0c0.1-0.2,0.2-0.2,0.4-0.2c0.2,0,0.3,0.1,0.4,0.2l0,0c0.1-0.2,0.2-0.3,0.4-0.3c0.3,0,0.4,0.1,0.4,0.5l0.1,1.2L184.6,86.8z
		 M186.7,86.6l-0.4,0l-0.2-2.2l1.2-0.1l0,0.4l-0.8,0.1l0,0.5l0.7-0.1l0,0.4l-0.7,0.1L186.7,86.6z M187.9,85.9c0,0.2,0.1,0.4,0.2,0.4
		c0.1,0,0.2-0.1,0.2-0.3l0.4,0c0,0.4-0.2,0.6-0.6,0.6c-0.6,0-0.7-0.4-0.7-0.8c0-0.4,0-0.9,0.6-0.9c0.5,0,0.6,0.3,0.7,0.8l0,0.1
		l-0.8,0.1L187.9,85.9z M189.6,86.5c-0.5,0-0.6-0.2-0.6-0.5l0-0.1l0.4,0l0,0.1c0,0.1,0.1,0.2,0.2,0.2c0.1,0,0.2-0.1,0.2-0.2
		c0-0.1-0.1-0.2-0.2-0.2l-0.3-0.1c-0.2-0.1-0.4-0.2-0.4-0.4c0-0.3,0.1-0.5,0.6-0.5c0.4,0,0.6,0.1,0.6,0.4l0,0.1l-0.4,0
		c0-0.2-0.1-0.2-0.2-0.2c-0.1,0-0.2,0.1-0.2,0.2c0,0.1,0.1,0.1,0.2,0.2l0.3,0.1c0.3,0.1,0.4,0.2,0.4,0.4
		C190.3,86.2,190,86.4,189.6,86.5z M191,86.3c-0.3,0-0.4-0.1-0.4-0.4l-0.1-0.9l-0.2,0l0-0.3l0.2,0l0-0.5l0.4,0l0,0.5l0.2,0l0,0.3
		l-0.2,0l0.1,0.9c0,0.1,0,0.2,0.2,0.2c0,0,0.1,0,0.1,0l0,0.3C191.2,86.3,191.1,86.3,191,86.3z M191.5,86.3l-0.1-1.6l0.4,0l0.1,1.6
		L191.5,86.3z M193.1,86.2l-0.5,0l-0.5-1.6l0.4,0l0.3,1.2h0l0.1-1.2l0.4,0L193.1,86.2z M194.5,86.1c0,0,0-0.1-0.1-0.2h0
		c-0.1,0.2-0.2,0.2-0.4,0.2c-0.3,0-0.4-0.2-0.4-0.4c0-0.3,0.1-0.4,0.4-0.5l0.2-0.1c0.1,0,0.2-0.1,0.2-0.2c0-0.1-0.1-0.2-0.2-0.2
		c-0.1,0-0.2,0.1-0.2,0.2l0,0l-0.4,0l0,0c0-0.4,0.2-0.5,0.5-0.5c0.5,0,0.6,0.2,0.6,0.5l0.1,0.9c0,0.2,0,0.2,0.1,0.3L194.5,86.1z
		 M195.3,86l-0.2-2.2l0.4,0l0.2,2.2L195.3,86z"/>
	<path class="st9" d="M172.6,73.5c0.1,0,0.2,0,0.2-0.1c0,0,0.1-0.1,0.1-0.2l-0.1-1.1c0-0.1,0-0.2-0.1-0.2c-0.1,0-0.1,0-0.1,0
		c0,0-0.1,0-0.1,0l-0.2,0l0.1,1.7L172.6,73.5z"/>
	<path class="st9" d="M186.9,74.5c0,0,0.1,0,0.1,0c0.2-0.1,0.3-0.3,0.3-0.6l-0.2-2.3c0-0.4-0.2-0.6-0.6-0.5l-0.5,0l0.3,3.4
		L186.9,74.5z"/>
	<path class="st9" d="M186.4,75.6l0.3,3.6l0.5,0c0,0,0.1,0,0.1,0c0.2-0.1,0.3-0.3,0.3-0.6l-0.2-2.5c0-0.4-0.2-0.6-0.6-0.5
		L186.4,75.6z"/>
	<path class="st9" d="M177.3,86.5c-0.2,0-0.2,0.1-0.2,0.3c0,0.1,0.1,0.2,0.2,0.2c0.1,0,0.3-0.1,0.2-0.3l0-0.3
		C177.4,86.5,177.4,86.5,177.3,86.5z"/>
	<path class="st9" d="M198.4,62.1l1.8,25.9l6.8-0.5l-1.8-25.9L198.4,62.1z M201,68.5l0.3,0l0,0.5c0,0.2,0.1,0.3,0.3,0.3l0.4,0l0-0.4
		c0-0.4,0.1-0.6,0.5-0.7l0.4,0c0.4,0,0.6,0.2,0.7,0.5l0,0.1c0,0.3-0.2,0.6-0.6,0.6l-1.3,0.1c-0.4,0-0.6-0.2-0.7-0.6L201,68.5z
		 M201.1,70.8l2.3-0.2l0-0.4l0.3,0l0.1,1.2l-0.3,0l0-0.5l-2,0.1l0.2,0.5l-0.3,0l-0.2-0.5L201.1,70.8z M201.3,72.9
		c0-0.4,0.2-0.6,0.6-0.7l1.3-0.1c0.4,0,0.6,0.2,0.7,0.6l0,0.1c0,0.4-0.2,0.6-0.6,0.7l-1.3,0.1C201.5,73.6,201.3,73.4,201.3,72.9
		L201.3,72.9z M203.7,75.4l-0.9-0.5c-0.3-0.2-0.3-0.2-0.6-0.2l-0.3,0c-0.1,0-0.3,0.1-0.3,0.3l0,0.4l-0.3,0l0-0.4
		c0-0.4,0.2-0.7,0.6-0.7l0.2,0c0.4,0,0.5,0,0.8,0.2l0.8,0.5l-0.1-0.9l0.3,0l0.1,1.2L203.7,75.4z"/>
	<path class="st9" d="M188.1,85.1c-0.2,0-0.2,0.2-0.2,0.3l0,0.1l0.4,0C188.3,85.2,188.3,85.1,188.1,85.1z"/>
	<polygon class="st9" points="174.8,73.5 174.7,73.2 174.7,73.5 174.7,75 175.1,74.9 	"/>
	<path class="st9" d="M174.1,86.1c-0.2,0-0.2,0.3-0.2,0.6c0,0.3,0.1,0.6,0.3,0.6c0.2,0,0.2-0.2,0.2-0.6
		C174.4,86.2,174.3,86.1,174.1,86.1z"/>
	<path class="st9" d="M170.8,87c-0.2,0-0.2,0.1-0.2,0.3c0,0.1,0.1,0.2,0.2,0.2c0.1,0,0.3-0.1,0.2-0.3l0-0.3
		C171,86.9,170.9,87,170.8,87z"/>
	<path class="st9" d="M194.2,85.3c-0.2,0-0.2,0.1-0.2,0.3c0,0.1,0.1,0.2,0.2,0.2c0.1,0,0.3-0.1,0.2-0.3l0-0.3
		C194.4,85.3,194.3,85.3,194.2,85.3z"/>
	<path class="st9" d="M159.2,87c0-0.2-0.1-0.3-0.3-0.3l-0.2,0l0,0.6l0.1,0C159.1,87.3,159.2,87.2,159.2,87z"/>
	<path class="st9" d="M214.9,83.9c-0.6,0-1.2-0.5-1.2-1.2c0-0.7,0.4-1.3,1-1.3c0,0,0,0,0,0l0-0.4c0,0,0,0,0,0
		c-0.6,0-1.2-0.5-1.2-1.2c0-0.7,0.4-1.3,1-1.3c0,0,0,0,0,0l0-0.2l0-0.2c-0.6,0-1.2-0.5-1.2-1.2c0-0.7,0.4-1.3,1-1.3l0-0.4
		c-0.6,0-1.2-0.5-1.2-1.2c0-0.7,0.4-1.3,1-1.3l0-0.4c-0.6,0-1.2-0.5-1.2-1.2c0-0.7,0.4-1.3,1-1.3l0-0.1l0-0.4c0,0,0,0,0,0
		c-0.6,0-1.2-0.5-1.2-1.2c0-0.7,0.4-1.3,1-1.3l0-0.2l0-0.2c0,0,0,0,0,0c-0.6,0-1.2-0.5-1.2-1.2c0-0.7,0.4-1.3,1-1.3c0,0,0,0,0,0
		l0-0.2l0-0.5c-3.2-0.2-5.9-2.8-6.4-6.4l-56.7,4c0,3.6-2.3,6.6-5.4,7.2l0,0.7c0,0,0.1,0,0.1,0c0.6,0,1.2,0.5,1.2,1.2
		c0,0.7-0.4,1.3-1,1.3c0,0-0.1,0-0.1,0l0,0.4c0,0,0.1,0,0.1,0c0.6,0,1.2,0.5,1.2,1.2c0,0.7-0.4,1.3-1,1.3c0,0-0.1,0-0.1,0l0,0.4
		c0,0,0.1,0,0.1,0c0.6,0,1.2,0.5,1.2,1.2c0,0.7-0.4,1.3-1,1.3c0,0-0.1,0-0.1,0l0,0.4c0,0,0.1,0,0.1,0c0.6,0,1.2,0.5,1.2,1.2
		c0,0.7-0.4,1.3-1,1.3c0,0-0.1,0-0.1,0l0,0.4c0,0,0.1,0,0.1,0c0.6,0,1.2,0.5,1.2,1.2c0,0.7-0.4,1.3-1,1.3c0,0-0.1,0-0.1,0l0,0.4
		c0,0,0.1,0,0.1,0c0.6,0,1.2,0.5,1.2,1.2c0,0.7-0.4,1.3-1,1.3c0,0-0.1,0-0.1,0l0,0.4c0,0,0.1,0,0.1,0c0.6,0,1.2,0.5,1.2,1.2
		c0,0.7-0.4,1.3-1,1.3c0,0-0.1,0-0.1,0l0,0.7c3.2,0.2,5.9,2.8,6.4,6.4l56.7-4c0-3.6,2.3-6.6,5.4-7.2L214.9,83.9
		C214.9,83.9,214.9,83.9,214.9,83.9z M154.4,91.6l-1.9-26.7l53.1-3.7l1.9,26.7L154.4,91.6z"/>
	<path class="st1" d="M152.5,64.9l1.9,26.7l53.1-3.7l-1.9-26.7L152.5,64.9z M154.7,91.2l-1.8-25.9l45.1-3.2l1.8,25.9L154.7,91.2z
		 M200.2,88l-1.8-25.9l6.8-0.5l1.8,25.9L200.2,88z"/>
	<path class="st1" d="M177.9,86c0-0.3-0.1-0.5-0.6-0.5c-0.3,0-0.6,0.2-0.5,0.5l0,0l0.4,0l0,0c0-0.1,0.1-0.2,0.2-0.2
		c0.1,0,0.2,0.1,0.2,0.2c0,0.1,0,0.2-0.2,0.2l-0.2,0.1c-0.3,0.1-0.4,0.2-0.4,0.5c0,0.2,0.1,0.5,0.4,0.4c0.2,0,0.3-0.1,0.4-0.2h0
		c0,0.1,0,0.1,0.1,0.2l0.4,0c-0.1-0.1-0.1-0.2-0.1-0.3L177.9,86z M177.3,87c-0.1,0-0.2-0.1-0.2-0.2c0-0.1,0.1-0.2,0.2-0.3
		c0.1,0,0.1,0,0.2-0.1l0,0.3C177.5,86.9,177.4,87,177.3,87z"/>
	<path class="st1" d="M159.3,87.4L159.3,87.4c0.2-0.1,0.3-0.3,0.3-0.5c0-0.4-0.3-0.5-0.7-0.5l-0.7,0.1l0.2,2.2l0.7-0.1
		c0.5,0,0.7-0.3,0.6-0.7C159.7,87.6,159.6,87.4,159.3,87.4z M158.7,86.7l0.2,0c0.2,0,0.3,0.1,0.3,0.3c0,0.2-0.1,0.3-0.3,0.3l-0.1,0
		L158.7,86.7z M159,88.2l-0.2,0l0-0.7l0.2,0c0.2,0,0.3,0.1,0.4,0.3C159.3,88.1,159.2,88.2,159,88.2z"/>
	
		<rect x="177.4" y="85.9" transform="matrix(-6.990223e-002 -0.9976 0.9976 -6.990223e-002 105.0454 270.1325)" class="st1" width="2.2" height="0.4"/>
	<path class="st1" d="M174.1,85.8c-0.5,0-0.6,0.3-0.6,0.9c0,0.6,0.2,0.9,0.7,0.8c0.5,0,0.6-0.3,0.6-0.9
		C174.8,86,174.6,85.8,174.1,85.8z M174.2,87.2c-0.2,0-0.2-0.2-0.3-0.6c0-0.3,0-0.6,0.2-0.6c0.2,0,0.2,0.2,0.3,0.6
		C174.4,87.1,174.4,87.2,174.2,87.2z"/>
	<path class="st1" d="M175.9,85.7c-0.2,0-0.3,0.1-0.4,0.3h0l0-0.2l-0.4,0l0.1,1.6l0.4,0l-0.1-1.1c0-0.2,0.1-0.3,0.2-0.3
		c0.1,0,0.2,0.1,0.2,0.2l0.1,1.1l0.4,0l-0.1-1.2C176.3,85.8,176.1,85.7,175.9,85.7z"/>
	
		<rect x="181.3" y="85.6" transform="matrix(-6.943531e-002 -0.9976 0.9976 -6.943531e-002 109.3986 273.6944)" class="st1" width="2.2" height="0.4"/>
	<polygon class="st1" points="181,85.7 180.3,85.7 180.2,85.2 181,85.2 181,84.8 179.8,84.9 179.9,87.1 180.4,87.1 180.3,86.1 
		181,86.1 	"/>
	
		<rect x="172.2" y="86.5" transform="matrix(-6.963670e-002 -0.9976 0.9976 -6.963670e-002 98.5008 265.3606)" class="st1" width="1.7" height="0.4"/>
	<polygon class="st1" points="187.3,85.3 186.6,85.3 186.5,84.8 187.3,84.7 187.3,84.4 186.1,84.5 186.2,86.7 186.7,86.6 
		186.6,85.7 187.3,85.6 	"/>
	<path class="st1" d="M184.5,85.1c-0.2,0-0.3,0.1-0.4,0.3l0,0c-0.1-0.2-0.2-0.3-0.4-0.2c-0.2,0-0.3,0.1-0.4,0.2h0l0-0.2l-0.4,0
		l0.1,1.6l0.4,0l-0.1-1.1c0-0.2,0.1-0.3,0.2-0.3c0.1,0,0.2,0.1,0.2,0.2l0.1,1.2l0.4,0l-0.1-1.1c0-0.2,0.1-0.3,0.2-0.3
		c0.1,0,0.2,0.1,0.2,0.2l0.1,1.2l0.4,0l-0.1-1.2C184.9,85.2,184.8,85.1,184.5,85.1z"/>
	
		<rect x="180.7" y="85.9" transform="matrix(-6.972633e-002 -0.9976 0.9976 -6.972633e-002 108.2886 273.2807)" class="st1" width="1.7" height="0.4"/>
	
		<rect x="161.8" y="87" transform="matrix(-6.990223e-002 -0.9976 0.9976 -6.990223e-002 87.2909 255.7577)" class="st1" width="2.2" height="0.4"/>
	<polygon class="st1" points="160.9,86.2 161,87.1 160.5,87.1 160.4,86.3 160,86.3 160.1,88.5 160.6,88.4 160.5,87.5 161,87.4 
		161.1,88.4 161.5,88.4 161.4,86.2 	"/>
	<path class="st1" d="M164.3,86.5c-0.2,0-0.3,0.1-0.4,0.3h0l0-0.2l-0.4,0l0.1,1.6l0.4,0l-0.1-1.1c0-0.2,0.1-0.3,0.2-0.3
		c0.1,0,0.2,0.1,0.2,0.2l0.1,1.1l0.4,0l-0.1-1.2C164.7,86.6,164.5,86.5,164.3,86.5z"/>
	<path class="st1" d="M168.3,86.2c-0.2,0-0.3,0.1-0.4,0.3h0l0-0.2l-0.4,0l0.1,1.6l0.4,0l-0.1-1c0-0.2,0.1-0.3,0.3-0.3
		c0,0,0.1,0,0.1,0L168.3,86.2C168.3,86.2,168.3,86.2,168.3,86.2z"/>
	<path class="st1" d="M169.4,86.1c-0.2,0-0.3,0.1-0.4,0.3h0l0-0.2l-0.4,0l0.1,1.7l0.4,0l-0.1-1.1c0-0.2,0.1-0.3,0.2-0.3
		c0.1,0,0.2,0.1,0.2,0.2l0.1,1.1l0.4,0l-0.1-1.2C169.8,86.2,169.7,86.1,169.4,86.1z"/>
	<path class="st1" d="M171.4,86.5c0-0.3-0.1-0.5-0.6-0.5c-0.3,0-0.6,0.2-0.5,0.5l0,0l0.4,0l0,0c0-0.1,0.1-0.2,0.2-0.2
		c0.1,0,0.2,0.1,0.2,0.2c0,0.1,0,0.2-0.2,0.2l-0.2,0.1c-0.3,0.1-0.4,0.2-0.4,0.5c0,0.2,0.1,0.5,0.4,0.4c0.2,0,0.3-0.1,0.4-0.2h0
		c0,0.1,0,0.1,0.1,0.2l0.4,0c0-0.1-0.1-0.2-0.1-0.3L171.4,86.5z M170.8,87.5c-0.1,0-0.2-0.1-0.2-0.2c0-0.1,0.1-0.2,0.2-0.3
		c0.1,0,0.1,0,0.2-0.1l0,0.3C171.1,87.4,170.9,87.5,170.8,87.5z"/>
	<path class="st1" d="M172.5,87.3c-0.1,0-0.2,0-0.2-0.2l-0.1-0.9l0.2,0l0-0.3l-0.2,0l0-0.5l-0.4,0l0,0.5l-0.2,0l0,0.3l0.2,0l0.1,0.9
		c0,0.3,0.1,0.4,0.4,0.4c0.1,0,0.2,0,0.3,0L172.5,87.3C172.6,87.3,172.5,87.3,172.5,87.3z"/>
	<path class="st1" d="M167.3,87.1c0-0.5-0.2-0.8-0.7-0.8c-0.6,0-0.6,0.5-0.6,0.9c0,0.4,0.1,0.9,0.7,0.8c0.4,0,0.6-0.3,0.6-0.6
		l-0.4,0c0,0.2-0.1,0.3-0.2,0.3c-0.2,0-0.2-0.2-0.2-0.4l0-0.1L167.3,87.1L167.3,87.1z M166.4,87L166.4,87c0-0.2,0-0.4,0.2-0.4
		c0.2,0,0.2,0.1,0.2,0.4L166.4,87z"/>
	<path class="st1" d="M165.8,87.8c-0.1,0-0.2,0-0.2-0.2l-0.1-0.9l0.2,0l0-0.3l-0.2,0l0-0.5l-0.4,0l0,0.5l-0.2,0l0,0.3l0.2,0l0.1,0.9
		c0,0.3,0.1,0.4,0.4,0.4c0.1,0,0.2,0,0.3,0L165.8,87.8C165.9,87.8,165.8,87.8,165.8,87.8z"/>
	<path class="st1" d="M188.8,85.6c0-0.5-0.2-0.8-0.7-0.8c-0.6,0-0.6,0.5-0.6,0.9c0,0.4,0.1,0.9,0.7,0.8c0.4,0,0.6-0.3,0.6-0.6
		l-0.4,0c0,0.2-0.1,0.3-0.2,0.3c-0.2,0-0.2-0.2-0.2-0.4l0-0.1L188.8,85.6L188.8,85.6z M187.9,85.5L187.9,85.5c0-0.2,0-0.4,0.2-0.4
		c0.2,0,0.2,0.1,0.2,0.4L187.9,85.5z"/>
	<polygon class="st1" points="192.8,85.7 192.8,85.7 192.5,84.6 192.1,84.6 192.6,86.2 193.1,86.2 193.4,84.5 193,84.5 	"/>
	<path class="st1" d="M194.8,84.9c0-0.3-0.1-0.5-0.6-0.5c-0.3,0-0.6,0.2-0.5,0.5l0,0l0.4,0l0,0c0-0.1,0.1-0.2,0.2-0.2
		c0.1,0,0.2,0.1,0.2,0.2c0,0.1,0,0.2-0.2,0.2l-0.2,0.1c-0.3,0.1-0.4,0.2-0.4,0.5c0,0.2,0.1,0.5,0.4,0.4c0.2,0,0.3-0.1,0.4-0.2h0
		c0,0.1,0,0.1,0.1,0.2l0.4,0c-0.1-0.1-0.1-0.2-0.1-0.3L194.8,84.9z M194.2,85.8c-0.1,0-0.2-0.1-0.2-0.2c0-0.1,0.1-0.2,0.2-0.3
		c0.1,0,0.1,0,0.2-0.1l0,0.3C194.4,85.8,194.3,85.8,194.2,85.8z"/>
	
		<rect x="194.3" y="84.7" transform="matrix(-6.987260e-002 -0.9976 0.9976 -6.987260e-002 124.3356 285.754)" class="st1" width="2.2" height="0.4"/>
	
		<rect x="190.9" y="85.2" transform="matrix(-6.967342e-002 -0.9976 0.9976 -6.967342e-002 119.8037 282.6105)" class="st1" width="1.7" height="0.4"/>
	<path class="st1" d="M189.8,85.4l-0.3-0.1c-0.1,0-0.2-0.1-0.2-0.2c0-0.1,0.1-0.2,0.2-0.2c0.1,0,0.2,0.1,0.2,0.2l0.4,0l0-0.1
		c0-0.3-0.2-0.5-0.6-0.4c-0.4,0-0.6,0.3-0.6,0.5c0,0.2,0.1,0.4,0.4,0.4l0.3,0.1c0.1,0,0.2,0.1,0.2,0.2c0,0.1-0.1,0.2-0.2,0.2
		c-0.1,0-0.2-0.1-0.2-0.2l0-0.1l-0.4,0l0,0.1c0,0.3,0.2,0.5,0.6,0.5c0.4,0,0.6-0.2,0.6-0.6C190.2,85.6,190.1,85.5,189.8,85.4z"/>
	<path class="st1" d="M191.2,86c-0.1,0-0.2,0-0.2-0.2L191,85l0.2,0l0-0.3l-0.2,0l0-0.5l-0.4,0l0,0.5l-0.2,0l0,0.3l0.2,0l0.1,0.9
		c0,0.3,0.1,0.4,0.4,0.4c0.1,0,0.2,0,0.3,0L191.2,86C191.3,86,191.2,86,191.2,86z"/>
	
		<rect x="177.2" y="73" transform="matrix(7.642259e-002 0.9971 -0.9971 7.642259e-002 239.306 -111.7357)" class="st1" width="5.5" height="0.7"/>
	<path class="st1" d="M176.6,78.8c0.1,1.5,0.7,2.2,1.7,2.1c0.8-0.1,1.2-0.6,1.3-1.5c0,0,0,0,0,0c0,0,0,0,0,0l0-0.2
		c0-0.2,0-0.4,0-0.6l-0.1-1.3l-1,0.1l0.1,1.9c0,0,0,0.1,0,0.1c0,0,0,0,0,0.1c0,0.2-0.1,0.4-0.3,0.4c0,0,0,0-0.1,0c0,0-0.1,0-0.1,0
		c-0.3,0-0.5-0.2-0.6-0.5l-0.5-6.9c0-0.4,0.1-0.6,0.5-0.6c0.3,0,0.5,0.2,0.5,0.5l0.1,1.6l1-0.1l-0.1-0.9c-0.1-1.5-0.7-2.2-1.6-2.1
		c-1,0.1-1.5,0.9-1.3,2.3L176.6,78.8z"/>
	<path class="st1" d="M170,72l0.4,4.8l0.7,0l-0.4-4.9l0.5,0l0-0.7l-0.8,0.1c0,0,0,0,0,0l-0.9,0.1l0.1,0.7L170,72z"/>
	<polygon class="st1" points="161.5,77.5 160.9,69.6 162.5,77.4 163.3,77.3 163.7,69.3 164.3,77.3 165.2,77.2 164.4,67.1 
		162.9,67.2 162.7,74.5 161.3,67.3 159.8,67.4 160.6,77.6 	"/>
	<path class="st1" d="M167.6,73.1l0,0.1c0,0.2,0.1,0.4,0.2,0.7c0,0,0,0,0,0c0.1,0.2,0.2,0.3,0.4,0.5c0.1,0.2,0.3,0.3,0.3,0.4
		c0.1,0.2,0.2,0.4,0.2,0.6l0,0.6c0,0.1,0,0.2,0,0.2c0,0-0.1,0.1-0.1,0.1c0,0-0.1,0-0.1,0c0,0,0,0-0.1,0c0,0-0.1-0.1-0.1-0.2
		l-0.1-0.9h0l0-0.2l-0.7,0.1l0,0.6l0,0.2c0,0,0,0,0,0c0,0.1,0,0.2,0,0.2c0,0,0,0.1,0,0.1c0,0,0,0.1,0,0.1c0,0.1,0,0.1,0.1,0.2
		c0,0,0,0,0,0c0,0.1,0,0.1,0.1,0.1c0,0,0,0,0,0c0,0,0,0,0,0.1c0,0,0,0,0,0c0,0,0,0,0,0c0,0,0,0,0,0c0,0,0,0,0,0c0,0,0,0,0,0h0
		c0,0,0,0,0,0c0,0,0,0,0,0c0,0,0,0,0.1,0.1c0,0,0,0,0,0l0,0h0c0,0,0,0,0,0l0,0c0,0,0,0,0,0c0.1,0,0.1,0,0.2,0.1c0,0,0,0,0,0
		c0,0,0,0,0,0c0,0,0.1,0,0.1,0c0,0,0,0,0,0c0,0,0.1,0,0.1,0c0,0,0,0,0,0h0c0,0,0,0,0,0c0,0,0.1,0,0.1,0h0c0,0,0,0,0,0l0,0
		c0,0,0,0,0,0l0,0c0,0,0,0,0,0c0,0,0,0,0,0v0c0,0,0,0,0,0c0,0,0,0,0,0c0,0,0,0,0,0c0,0,0,0,0,0c0,0,0,0,0,0c0,0,0,0,0,0c0,0,0,0,0,0
		c0,0,0,0,0,0c0,0,0,0,0,0c0,0,0,0,0,0c0,0,0.1-0.1,0.1-0.1c0,0,0,0,0,0c0,0,0,0,0,0c0,0,0,0,0,0c0,0,0.1-0.1,0.1-0.1
		c0.1-0.2,0.2-0.5,0.1-0.9l0-0.3c0,0,0,0,0,0l0-0.1c0-0.2-0.1-0.4-0.2-0.7c0,0,0,0,0,0c-0.1-0.2-0.2-0.3-0.4-0.5
		c-0.1-0.2-0.3-0.3-0.3-0.4c-0.1-0.2-0.2-0.4-0.2-0.6l0-0.6c0-0.1,0-0.2,0-0.2c0,0,0.1-0.1,0.1-0.1c0,0,0.1,0,0.1,0c0,0,0,0,0.1,0
		c0,0,0.1,0.1,0.1,0.2l0.1,0.9l0.7,0l0-0.6c0,0,0,0,0,0c0-0.1,0-0.2,0-0.2c0,0,0-0.1,0-0.1c0,0,0-0.1,0-0.1c0-0.1,0-0.1-0.1-0.2
		c0,0,0,0,0,0c0-0.1,0-0.1-0.1-0.1c0,0,0,0,0,0c0,0,0,0,0-0.1c0,0,0,0,0,0c0,0,0,0,0,0c0,0,0,0,0,0c0,0,0,0,0,0c0,0,0,0,0,0
		c0,0,0,0,0,0c0,0,0,0,0,0c0,0,0,0,0,0c0,0,0,0-0.1-0.1c0,0,0,0,0,0v0c0,0,0,0,0,0v0c0,0,0,0,0,0c-0.1,0-0.1,0-0.2-0.1c0,0,0,0,0,0
		c0,0,0,0,0,0c0,0-0.1,0-0.1,0c0,0,0,0,0,0c0,0-0.1,0-0.1,0c0,0,0,0,0,0h0c0,0,0,0,0,0c0,0-0.1,0-0.1,0c0,0,0,0,0,0c0,0,0,0,0,0l0,0
		c0,0,0,0,0,0l0,0c0,0,0,0,0,0c0,0,0,0,0,0c0,0,0,0,0,0c0,0,0,0,0,0c0,0,0,0,0,0c0,0,0,0,0,0v0c0,0,0,0,0,0c0,0,0,0,0,0c0,0,0,0,0,0
		c0,0,0,0,0,0c0,0,0,0,0,0c0,0,0,0,0,0c0,0-0.1,0.1-0.1,0.1c0,0,0,0,0,0c0,0,0,0,0,0c0,0,0,0,0,0c0,0-0.1,0.1-0.1,0.1
		c-0.1,0.2-0.2,0.5-0.1,0.9L167.6,73.1C167.6,73.1,167.6,73.1,167.6,73.1z"/>
	<polygon class="st1" points="181.6,76 181.4,72.9 182.2,75.9 182.9,75.9 182.5,70.3 181.9,70.4 182.1,73.4 181.3,70.4 180.6,70.5 
		181,76 	"/>
	<polygon class="st1" points="184.9,75.7 184.9,75 184,75.1 183.9,73.3 184.4,73.2 184.3,72.6 183.8,72.6 183.7,70.9 184.5,70.9 
		184.5,70.2 183,70.3 183.4,75.8 	"/>
	<polygon class="st1" points="190.3,80 190,75.3 191,75.2 191.3,79.9 192.3,79.8 191.6,69.7 190.6,69.7 190.9,74.2 189.9,74.3 
		189.5,69.8 188.5,69.9 189.3,80 	"/>
	<path class="st1" d="M172.6,76.6l-0.2-2.5l0.2,0l0.5,2.4l0.7,0l-0.6-2.6c0.1-0.1,0.2-0.2,0.3-0.4c0,0,0,0,0,0c0-0.1,0-0.1,0-0.1
		c0-0.2,0.1-0.4,0-0.6l0-0.6c0-0.4-0.1-0.7-0.3-0.9c-0.2-0.2-0.4-0.3-0.7-0.3l-0.9,0.1l0.4,5.5L172.6,76.6z M172.4,71.8
		c0.1,0,0.1,0,0.1,0c0,0,0,0,0.1,0c0,0,0.1,0.1,0.1,0.2l0.1,1.1c0,0.1,0,0.2-0.1,0.2c0,0-0.1,0.1-0.2,0.1l-0.2,0l-0.1-1.7
		L172.4,71.8z"/>
	<path class="st1" d="M185.8,80C185.8,80,185.8,80,185.8,80l0,0.3l1.5-0.1c0.4,0,0.7-0.2,0.9-0.4c0.1-0.1,0.2-0.2,0.2-0.2
		c0.3-0.4,0.3-1,0.3-1.8l-0.1-1.1l0-0.2c-0.1-0.9-0.4-1.5-0.9-1.7c0.1,0,0.1-0.1,0.2-0.1c0,0,0,0,0,0c0.1-0.1,0.2-0.3,0.3-0.5
		c0,0,0,0,0,0c0.1-0.3,0.1-0.7,0.1-1.2l-0.1-1c-0.1-1.5-0.7-2.2-1.7-2.1l-1.5,0.1L185.8,80C185.8,80,185.8,80,185.8,80z M187.5,76.1
		l0.2,2.5c0,0.3-0.1,0.5-0.3,0.6c0,0-0.1,0-0.1,0l-0.5,0l-0.3-3.6l0.5,0C187.3,75.5,187.5,75.7,187.5,76.1z M186.6,71.1
		c0.3,0,0.5,0.2,0.6,0.5l0.2,2.3c0,0.3-0.1,0.5-0.3,0.6c0,0-0.1,0-0.1,0l-0.5,0l-0.3-3.4L186.6,71.1z"/>
	<path class="st1" d="M165.7,76.1c0,0.1,0,0.2,0,0.2c0,0.2,0.1,0.4,0.2,0.5c0,0,0,0,0,0h0c0,0,0,0,0,0c0,0,0,0,0,0c0,0,0,0,0,0
		c0,0,0,0,0.1,0.1c0,0,0,0,0,0v0c0,0,0.1,0,0.1,0c0.1,0.1,0.3,0.2,0.5,0.1h0c0,0,0.1,0,0.1,0c0.1,0,0.2-0.1,0.3-0.1l0,0
		c0.1-0.1,0.1-0.1,0.2-0.2c0.1-0.2,0.2-0.5,0.1-0.9c0,0-0.2-3.1-0.3-3.2c0,0,0,0,0,0c0-0.1,0-0.2,0-0.2c0-0.2-0.1-0.4-0.2-0.5
		c0,0,0,0,0,0h0c0,0,0,0,0,0c0,0,0,0,0,0c0,0,0,0,0,0c0,0,0,0-0.1-0.1c0,0,0,0,0,0v0c0,0-0.1,0-0.1,0c-0.1-0.1-0.3-0.2-0.5-0.1l0,0
		c0,0-0.1,0-0.1,0c-0.1,0-0.2,0.1-0.3,0.1l0,0c-0.1,0.1-0.1,0.1-0.2,0.2c-0.1,0.2-0.2,0.5-0.1,0.9C165.4,72.9,165.7,76,165.7,76.1
		L165.7,76.1z M166.1,72.3c0,0,0.1-0.1,0.2-0.1c0.1,0,0.1,0,0.2,0c0,0,0.1,0.1,0.1,0.2l0.3,3.7c0,0.1,0,0.2,0,0.2
		c0,0-0.1,0.1-0.2,0.1c-0.1,0-0.1,0-0.2,0c0,0-0.1-0.1-0.1-0.2l-0.3-3.7C166,72.4,166,72.4,166.1,72.3z"/>
	<path class="st1" d="M174.6,75.7l0.6,0l0.2,0.8l0.7-0.1l-1.2-5.5l-0.7,0.1l-0.3,5.6l0.7-0.1L174.6,75.7z M174.7,73.5l0-0.3
		L174.7,73.5l0.3,1.4l-0.4,0L174.7,73.5z"/>
	
		<rect x="158" y="83" transform="matrix(0.9976 -6.975851e-002 6.975851e-002 0.9976 -5.3708 12.5311)" class="st1" width="37.4" height="0.3"/>
	<path class="st1" d="M203.7,74.2l0.1,0.9l-0.8-0.5c-0.3-0.2-0.4-0.2-0.8-0.2l-0.2,0c-0.4,0-0.6,0.3-0.6,0.7l0,0.4l0.3,0l0-0.4
		c0-0.2,0.1-0.3,0.3-0.3l0.3,0c0.3,0,0.3,0,0.6,0.2l0.9,0.5l0.3,0l-0.1-1.2L203.7,74.2z"/>
	<path class="st1" d="M202,73.6l1.3-0.1c0.4,0,0.6-0.3,0.6-0.7l0-0.1c0-0.4-0.2-0.6-0.7-0.6l-1.3,0.1c-0.4,0-0.6,0.3-0.6,0.7l0,0.1
		C201.3,73.4,201.5,73.6,202,73.6z M203.3,72.5c0.1,0,0.3,0.1,0.3,0.3l0,0.1c0,0.2-0.1,0.3-0.3,0.3l-1-0.6L203.3,72.5z M201.8,72.6
		l1,0.6l-1,0.1c-0.1,0-0.3-0.1-0.3-0.3l0-0.1C201.5,72.7,201.7,72.6,201.8,72.6z"/>
	<polygon class="st1" points="201.7,71.6 201.4,71.1 203.4,70.9 203.5,71.4 203.8,71.4 203.7,70.2 203.4,70.2 203.4,70.6 
		201.1,70.8 201.2,71.1 201.4,71.6 	"/>
	<path class="st1" d="M201.7,69.6l1.3-0.1c0.4,0,0.6-0.3,0.6-0.6l0-0.1c0-0.3-0.2-0.6-0.7-0.5l-0.4,0c-0.4,0-0.6,0.2-0.5,0.7l0,0.4
		l-0.4,0c-0.1,0-0.3-0.1-0.3-0.3l0-0.5l-0.3,0l0,0.5C201,69.4,201.3,69.6,201.7,69.6z M202.5,68.6l0.5,0c0.1,0,0.3,0.1,0.3,0.3
		l0,0.1c0,0.2-0.1,0.3-0.3,0.3l-0.8,0.1l0-0.4C202.2,68.7,202.3,68.6,202.5,68.6z"/>
	
		<rect x="86.5" y="106.7" transform="matrix(-0.9976 6.911533e-002 -6.911533e-002 -0.9976 182.2897 214.644)" class="st6" width="1.9" height="7.5"/>
	
		<rect x="87.2" y="116.4" transform="matrix(-0.9976 6.970945e-002 -6.970945e-002 -0.9976 184.4153 234.2305)" class="st6" width="1.9" height="7.9"/>
	<path class="st6" d="M104.9,180.5c-7.7,0.5-11.9-3-12.4-10.6l-3-43.4l-4.1,0.3l-1.5-21.9l4.1-0.3l-0.7-9.6
		c-2.2,4.2-6.2,6.5-11.9,6.9c-3.3,0.2-6.1-0.3-8.4-1.4l-2.1,5.7l1.6-0.1l1.5,21.9l-1.8,0.1l2.2,31c0.7,10.5,2.9,19.1,6.3,25.6
		l39.8-0.9l0.5-9.3C113.6,178.1,110.3,180.1,104.9,180.5z M74.5,127.5l-3.2-12.7l-0.6-2.9l1.1,15.8l-2,0.1l-1.5-21.9l2.6-0.2L74,118
		l0.7,3.3l-1.1-15.8l2-0.1l1.5,21.9L74.5,127.5z M82.4,126.9l-2.2,0.2l-1.4-19.7l-2.2,0.2l-0.2-2.2l6.6-0.5l0.2,2.2l-2.2,0.2
		L82.4,126.9z"/>
	<path class="st10" d="M127.6,85c0.7-0.1,1.1-0.5,1-1.4l-0.4-5.1c-0.1-0.9-0.5-1.3-1.2-1.2l-1.1,0.1l0.5,7.8L127.6,85z"/>
	<path class="st10" d="M129.6,103.8c-0.7,0.1-1.1,0.5-1,1.3l1,15c0.1,0.8,0.5,1.2,1.2,1.2c0.7-0.1,1.1-0.5,1-1.3l-1-15
		C130.8,104.1,130.4,103.7,129.6,103.8z"/>
	<path class="st10" d="M127.8,87.2l-1.2,0.1l0.6,8.2l1.1-0.1c0.8-0.1,1.1-0.5,1.1-1.4l-0.4-5.6C128.9,87.6,128.5,87.2,127.8,87.2z"
		/>
	<path class="st10" d="M134.1,97.4l-0.4,0l-1.6-22.9l0.4,0l-2.2-31.9c-0.8-11.5-3.3-20.6-7.4-27.3l-3,60.1l1.9-0.1l0.2,2.3l-2.1,0.1
		l-0.4,7.8l1.6-0.1l0.2,2.3l-1.8,0.1l-0.1,1.4l0.5,6.9l3.5-0.2l0.2,2.3l-4.6,0.3l-0.2,3.9l2.7-0.2l0.2,2.2l-2.2,0.2l1.4,19.7
		l-2.2,0.2l-0.5-7.7l-2.4,48.1l0.2,3.5c0.2,2.4-0.1,4.4-0.7,6.1l-0.5,9.3l20-1.2c3.2-7.3,4.4-16.7,3.6-28.3L134.1,97.4z M126.9,74.9
		c2.3-0.2,3.5,1.4,3.8,4.8l0.2,2.3c0.1,2.1-0.3,3.4-1.4,4c1.1,0.5,1.8,1.7,1.9,3.8l0.2,2.7c0.2,3.4-0.8,5.1-3.1,5.3l-3.4,0.2
		l-1.6-22.9L126.9,74.9z M123.8,124l-1.5-21.9l2.2-0.2l1.5,21.9L123.8,124z M131,123.5c-2.2,0.2-3.4-1.4-3.6-4.6l-0.9-12.3
		c-0.2-3.2,0.8-4.9,2.9-5c2.2-0.2,3.4,1.4,3.6,4.6l0.9,12.3C134.2,121.7,133.2,123.3,131,123.5z"/>
	<path class="st1" d="M95.4,95c0.2,3.4,1.5,4.9,3.8,4.8c2.2-0.2,3.2-1.9,3-5.3l-0.2-2.8l-2.2,0.2l0.3,4.3c0.1,0.9-0.3,1.3-1.1,1.4
		c-0.8,0.1-1.2-0.4-1.2-1.2l-1.1-15.7c-0.1-0.9,0.3-1.3,1.1-1.4c0.8-0.1,1.2,0.4,1.2,1.2l0.2,3.5l2.2-0.2l-0.1-2.1
		c-0.2-3.4-1.5-5-3.7-4.8c-2.3,0.2-3.3,1.9-3.1,5.3L95.4,95z"/>
	
		<rect x="93.1" y="86.8" transform="matrix(6.975407e-002 0.9976 -0.9976 6.975407e-002 185.0276 -22.5204)" class="st1" width="22.9" height="2.3"/>
	<polygon class="st1" points="108.4,99.2 110.4,99 109.3,82.5 109.9,85.6 110,86.1 113.2,98.8 116,98.6 114.4,75.8 112.3,75.9 
		113.5,92.4 112.8,89 109.5,76.1 109.3,76.1 106.8,76.3 	"/>
	<polygon class="st1" points="117.6,98.5 118.8,98.4 123.4,98.1 123.3,95.8 119.7,96.1 119.3,89.2 119.2,87.8 119.3,87.8 
		121.2,87.7 121,85.4 119.4,85.5 119,85.6 118.5,77.8 119.8,77.7 122,77.5 121.8,75.3 120,75.4 116,75.7 	"/>
	<path class="st1" d="M128.5,97.8c2.3-0.2,3.3-1.9,3.1-5.3l-0.2-2.7c-0.1-2-0.8-3.3-1.9-3.8c1-0.6,1.5-1.9,1.4-4l-0.2-2.3
		c-0.2-3.4-1.5-4.9-3.8-4.8l-3.4,0.2l1.6,22.9L128.5,97.8z M129.4,94.1c0.1,0.9-0.3,1.3-1.1,1.4l-1.1,0.1l-0.6-8.2l1.2-0.1
		c0.7,0,1.1,0.4,1.2,1.2L129.4,94.1z M127.1,77.2c0.8-0.1,1.2,0.4,1.2,1.2l0.4,5.1c0.1,0.9-0.3,1.3-1,1.4l-1.2,0.1l-0.5-7.8
		L127.1,77.2z"/>
	<polygon class="st1" points="133.8,97.4 134.1,97.4 136.1,97.2 135.3,86.7 137.6,86.6 138.3,97.1 140.6,96.9 139,74.1 136.7,74.2 
		137.4,84.3 135.2,84.4 134.5,74.4 132.5,74.5 132.2,74.5 	"/>
	<polygon class="st1" points="66.5,106 64.9,106.1 64.7,106.1 64.3,106.1 65.9,128.1 66.3,128 68.1,127.9 	"/>
	<polygon class="st1" points="73.6,105.5 74.7,121.3 74,118 70.9,105.7 68.3,105.9 69.8,127.8 71.8,127.6 70.7,111.8 71.3,114.7 
		74.5,127.5 77.1,127.3 75.6,105.4 	"/>
	<polygon class="st1" points="83.1,104.8 76.5,105.3 76.7,107.5 78.9,107.3 80.2,127 82.4,126.9 81.1,107.2 83.2,107 	"/>
	<polygon class="st1" points="90.8,124.1 89.3,124.2 87.5,124.3 86.9,116.5 88.8,116.3 88.8,116.3 88.7,114.1 88.6,114.1 
		86.7,114.3 86.2,106.8 88.1,106.7 89.6,106.6 89.4,104.4 88,104.5 83.9,104.8 85.4,126.7 89.5,126.4 91,126.3 	"/>
	<path class="st1" d="M98.3,110.8l-0.2-2.4c-0.2-3.1-1.5-4.5-4-4.3l-3.4,0.2l1.5,21.9l2.2-0.2L93.8,116l1.2-0.1l2.1,10l2.2-0.2
		l-2.4-10.5C98,114.3,98.5,112.8,98.3,110.8z M94.9,113.7l-1.2,0.1l-0.5-7.4l1.2-0.1c1-0.1,1.5,0.4,1.6,1.4l0.3,4.5
		C96.3,113.1,95.8,113.6,94.9,113.7z"/>
	<polygon class="st1" points="104.7,103.3 105.8,119.1 105.1,115.8 102,103.5 99.4,103.7 100.9,125.6 102.9,125.5 101.8,109.7 
		102.4,112.6 105.6,125.3 108.2,125.1 106.7,103.2 	"/>
	<path class="st1" d="M109.1,125l2.2-0.2l0.2-3.3l1-0.1l1.8-0.1l0.6,3.3l2.2-0.2l-4.4-21.7l-1.5,0.1l-0.7,0.1L109.1,125z
		 M111.9,113.2l0-0.2l0.1-3.9l0.6,3.9l1.2,6.1l-1.5,0.1l-0.7,0.1L111.9,113.2z"/>
	<polygon class="st1" points="114.9,104.8 117.1,104.7 117.9,116.7 118.4,124.4 120.6,124.2 119.2,104.5 121.4,104.4 121.3,102.2 
		118.6,102.4 114.7,102.6 	"/>
	
		<rect x="113.1" y="111.9" transform="matrix(-6.977426e-002 -0.9976 0.9976 -6.977426e-002 20.0655 244.6583)" class="st1" width="22" height="2.2"/>
	<path class="st1" d="M133.1,106.2c-0.2-3.2-1.4-4.7-3.6-4.6c-2.2,0.2-3.2,1.8-2.9,5l0.9,12.3c0.2,3.2,1.4,4.7,3.6,4.6
		c2.2-0.2,3.2-1.8,2.9-5L133.1,106.2z M130.9,121.3c-0.7,0.1-1.1-0.3-1.2-1.2l-1-15c-0.1-0.8,0.3-1.3,1-1.3c0.7-0.1,1.1,0.3,1.2,1.2
		l1,15C131.9,120.8,131.6,121.3,130.9,121.3z"/>
	<polygon class="st1" points="139.8,100.9 140.9,116.7 140.3,113.4 137.1,101.1 134.5,101.2 136,123.1 138,123 136.9,107.2 
		137.5,110.1 140.7,122.8 143.3,122.6 141.8,100.7 	"/>
	<path class="st1" d="M145.6,100.5l-1.4,22.1l2.2-0.2l0.2-3.3l2.8-0.2l0.6,3.3l2.2-0.2l-4.4-21.7L145.6,100.5z M146.7,116.7l0.3-6.2
		l0.1-3.9l0.6,3.9l1.2,6.1L146.7,116.7z"/>
	<polygon class="st1" points="154.8,119.6 153.5,99.9 151.3,100.1 152.8,122 158.4,121.6 158.2,119.4 	"/>
	<polygon class="st1" points="167,99 161.4,99.4 163,121.3 165.1,121.1 164.4,111 166.4,110.9 166.2,108.7 164.3,108.8 163.8,101.4 
		167.1,101.2 	"/>
	
		<rect x="169.3" y="98.8" transform="matrix(0.9976 -6.979374e-002 6.979374e-002 0.9976 -7.2435 12.1589)" class="st1" width="2.2" height="22"/>
	<polygon class="st1" points="179.2,120.1 179.1,117.9 175.7,118.2 174.3,98.5 172.2,98.6 173.7,120.5 	"/>
	<polygon class="st1" points="186,97.6 185.4,109.6 185.3,113.5 184.7,109.6 182.4,97.9 179.2,98.1 180.7,120 182.7,119.9 
		181.5,102.8 181.9,105.2 184.8,119.7 186.6,119.6 187.5,105 187.6,102.3 188.8,119.5 190.8,119.3 189.3,97.4 	"/>
	<polygon class="st1" points="199.7,96.7 194.1,97.1 195.7,119 197.9,118.8 197.2,108.7 199.1,108.6 198.9,106.4 197,106.6 
		196.5,99.1 199.9,98.9 	"/>
	<polygon class="st1" points="206.6,96.2 201.1,96.6 202.6,118.5 208.2,118.1 208,115.9 204.6,116.1 204.1,108.3 206,108.1 
		205.9,105.9 203.9,106.1 203.4,98.6 206.8,98.4 	"/>
	<path class="st1" d="M211.5,98.1c0.6,0,1,0.4,1,1.2l0.2,3.4l2.2-0.2l-0.1-2c-0.2-3.2-1.4-4.7-3.5-4.6c-2.1,0.1-3,1.8-2.8,5l0.1,1.4
		c0.1,1.7,0.9,3.3,2.4,5c1.5,1.6,2.3,3.1,2.4,4.5l0.2,2.5c0.1,0.8-0.2,1.3-0.8,1.3c-0.6,0-1-0.4-1-1.2l-0.3-4.1l-2.2,0.2l0.2,2.7
		c0.2,3.2,1.4,4.7,3.5,4.6c2.1-0.1,3-1.8,2.8-5l-0.1-1.9c-0.1-1.3-0.9-2.8-2.3-4.5c-1.5-1.7-2.2-3-2.3-4l-0.2-3
		C210.6,98.5,210.9,98.1,211.5,98.1z"/>
	<polygon class="st1" points="215.4,95.6 215.6,97.8 217.8,97.6 219.1,117.3 221.3,117.2 220,97.5 222.1,97.3 222,95.1 	"/>
	
		<rect x="213.8" y="104.8" transform="matrix(-6.973309e-002 -0.9976 0.9976 -6.973309e-002 134.8125 337.5809)" class="st1" width="22" height="2.2"/>
	<polygon class="st1" points="234,94.3 231.8,94.4 231.2,106.4 231.1,110.3 230.5,106.4 228.2,94.7 226,94.8 230.4,116.5 
		232.7,116.4 	"/>
	<path class="st1" d="M235.7,94.2l-1.4,22.1l2.2-0.2l0.2-3.3l2.8-0.2l0.6,3.3l2.2-0.2L238,94L235.7,94.2z M236.9,110.4l0.3-6.2
		l0.1-3.9l0.6,3.9l1.2,6.1L236.9,110.4z"/>
	<polygon class="st1" points="245,113.3 243.6,93.6 241.4,93.8 243,115.7 248.5,115.3 248.4,113.1 	"/>
	<path class="st1" d="M173.1,152.2l-0.1-0.9c-0.1-0.9,0.3-2,1-3.2c0.7-1.2,1-2.4,0.9-3.4l0-0.6c-0.1-1.7-0.8-2.6-2-2.5
		c-1.2,0.1-1.7,1-1.6,2.7l0.1,1.1l1.2-0.1l-0.1-1.8c0-0.5,0.1-0.7,0.5-0.7c0.4,0,0.6,0.2,0.6,0.6l0.1,1.2c0.1,1-0.3,2.1-1,3.3
		c-0.7,1.2-1,2.3-0.9,3.4l0.2,2.2l3.5-0.2l-0.1-1.2L173.1,152.2z"/>
	<path class="st1" d="M179.3,142.4l-0.1-1.3l-3.6,0.2l0.1,1.2l2.5-0.2c-0.5,1.6-0.9,3.3-1.1,5.1s-0.2,3.7-0.1,5.7l1.2-0.1
		c-0.1-2-0.1-3.9,0-5.7C178.4,145.6,178.7,143.9,179.3,142.4z"/>
	<path class="st1" d="M185.6,143.3c-0.1-1.7-0.8-2.6-2-2.5l-1.8,0.1l0.8,11.8l1.8-0.1c1.2-0.1,1.7-1,1.6-2.7L185.6,143.3z
		 M184.4,151.4l-0.6,0l-0.7-9.4l0.6,0c0.4,0,0.6,0.2,0.6,0.6l0.6,8.1C184.9,151.2,184.8,151.4,184.4,151.4z"/>
	<polygon class="st1" points="188.2,151.2 187.9,146.9 188.9,146.8 188.8,145.7 187.8,145.7 187.5,141.7 189.3,141.6 189.2,140.4 
		186.2,140.6 187.1,152.4 190.1,152.2 190,151 	"/>
	<path class="st1" d="M195.6,142.6c-0.1-1.7-0.8-2.6-2-2.5c-1.2,0.1-1.7,1-1.6,2.7l0.5,6.6c0.1,1.7,0.8,2.6,2,2.5
		c1.2-0.1,1.7-1,1.6-2.7L195.6,142.6z M194.4,150.7c-0.4,0-0.6-0.2-0.6-0.6l-0.6-8.1c0-0.5,0.1-0.7,0.5-0.7c0.4,0,0.6,0.2,0.6,0.6
		l0.6,8.1C195,150.5,194.8,150.7,194.4,150.7z"/>
	<path class="st1" d="M199,151.6c1.2-0.1,1.7-1,1.6-2.7l-0.6-9.2l-1.2,0.1l0.7,9.9c0,0.5-0.1,0.7-0.5,0.7c-0.4,0-0.6-0.2-0.6-0.6
		l-0.7-9.9l-1.2,0.1l0.6,9.2C197.2,150.9,197.8,151.7,199,151.6z"/>
	<polygon class="st1" points="200.5,140.8 201.7,140.7 202.4,151.4 203.6,151.3 202.9,140.7 204.1,140.6 204,139.4 200.4,139.6 	"/>
	<path class="st1" d="M206.9,139.2l0.7,9.9c0,0.5-0.1,0.7-0.5,0.7c-0.4,0-0.6-0.2-0.6-0.6l-0.7-9.9l-1.2,0.1l0.6,9.2
		c0.1,1.7,0.8,2.6,2,2.5c1.2-0.1,1.7-1,1.6-2.7l-0.6-9.2L206.9,139.2z"/>
	<path class="st1" d="M212.8,142.6l-0.1-1.2c-0.1-1.7-0.8-2.6-2-2.5L209,139l0.8,11.8l1.8-0.1c1.2-0.1,1.7-1,1.6-2.7l-0.1-1.4
		c-0.1-1.1-0.4-1.7-1-1.9C212.6,144.3,212.9,143.6,212.8,142.6z M210.2,140.1l0.6,0c0.4,0,0.6,0.2,0.6,0.6l0.2,2.7
		c0,0.5-0.1,0.7-0.5,0.7l-0.6,0L210.2,140.1z M211.5,149.5l-0.6,0l-0.3-4.2l0.6,0c0.4,0,0.6,0.2,0.6,0.6l0.2,2.9
		C212.1,149.3,211.9,149.5,211.5,149.5z"/>
	<path class="st1" d="M216.7,150.4l1.2-0.1l-1.3-5.6c0.6-0.5,0.8-1.3,0.8-2.4l-0.1-1.3c-0.1-1.7-0.8-2.4-2.1-2.3l-1.8,0.1l0.8,11.8
		l1.2-0.1L215,145l0.6,0L216.7,150.4z M214.9,143.8l-0.3-4l0.6,0c0.5,0,0.8,0.2,0.8,0.7l0.2,2.4c0,0.5-0.2,0.8-0.7,0.8L214.9,143.8z
		"/>
	<path class="st1" d="M219.7,138.3c-1.2,0.1-1.7,1-1.6,2.7l0.5,6.6c0.1,1.7,0.8,2.6,2,2.5c1.2-0.1,1.7-1,1.6-2.7l-0.5-6.6
		C221.6,139,220.9,138.2,219.7,138.3z M220.5,148.9c-0.4,0-0.6-0.2-0.6-0.6l-0.6-8.1c0-0.5,0.1-0.7,0.5-0.7c0.4,0,0.6,0.2,0.6,0.6
		l0.6,8.1C221,148.6,220.9,148.9,220.5,148.9z"/>
	<path class="st1" d="M226,137.9l-1.8,0.1l0.8,11.8l1.8-0.1c1.2-0.1,1.7-1,1.6-2.7l-0.5-6.6C227.8,138.6,227.2,137.8,226,137.9z
		 M226.8,148.5l-0.6,0l-0.7-9.4l0.6,0c0.4,0,0.6,0.2,0.6,0.6l0.6,8.1C227.3,148.2,227.2,148.4,226.8,148.5z"/>
	<polygon class="st1" points="231.6,137.5 228.6,137.7 229.5,149.5 232.5,149.3 232.4,148.1 230.6,148.2 230.3,144 231.3,143.9 
		231.2,142.7 230.2,142.8 229.9,138.8 231.7,138.6 	"/>
	<path class="st1" d="M235,146.8l0.2,2.2l3.5-0.2l-0.1-1.2l-2.3,0.2l-0.1-0.9c-0.1-0.9,0.3-2,1-3.2c0.7-1.2,1-2.4,0.9-3.4l0-0.6
		c-0.1-1.7-0.8-2.6-2-2.5c-1.2,0.1-1.7,1-1.6,2.7l0.1,1.1l1.2-0.1l-0.1-1.8c0-0.5,0.1-0.7,0.5-0.7c0.4,0,0.6,0.2,0.6,0.6l0.1,1.2
		c0.1,1-0.3,2.1-1,3.3C235.2,144.7,234.9,145.8,235,146.8z"/>
	<path class="st1" d="M240.6,136.8c-1.2,0.1-1.7,1-1.6,2.7l0.5,6.6c0.1,1.7,0.8,2.6,2,2.5c1.2-0.1,1.7-1,1.6-2.7l-0.5-6.6
		C242.4,137.6,241.7,136.8,240.6,136.8z M241.3,147.5c-0.4,0-0.6-0.2-0.6-0.6l-0.6-8.1c0-0.5,0.1-0.7,0.5-0.7c0.4,0,0.6,0.2,0.6,0.6
		l0.6,8.1C241.9,147.2,241.7,147.4,241.3,147.5z"/>
	<path class="st1" d="M245,136.5l-1.2,0.1l0,0.3c0,0.6-0.2,0.9-0.6,0.9l0.1,1.2l0.6,0l0.7,9.4l1.2-0.1L245,136.5z"/>
	<path class="st1" d="M247.6,137.5c0.4,0,0.6,0.2,0.6,0.6l0.1,1.8l1.2-0.1l-0.1-1.1c-0.1-1.7-0.8-2.6-2-2.5c-1.2,0.1-1.7,1-1.6,2.7
		l0.5,6.6c0.1,1.7,0.8,2.6,2,2.5c1.2-0.1,1.7-1,1.6-2.7l-0.1-2.1c-0.1-1.7-0.8-2.6-2-2.5c-0.2,0-0.4,0.1-0.6,0.3l-0.2-2.9
		C247.1,137.8,247.2,137.6,247.6,137.5z M248,142c0.4,0,0.6,0.2,0.6,0.7l0.2,3.6c0,0.5-0.1,0.7-0.5,0.7c-0.4,0-0.6-0.2-0.6-0.6
		l-0.3-3.6C247.4,142.3,247.6,142.1,248,142z"/>
	<path class="st1" d="M198.7,156.2l-1.2,0.1l0.5,7.6l0.8-0.1l-0.3-3.8l0.4,0c0.8-0.1,1.2-0.7,1.1-1.8l0-0.3
		C200,156.7,199.5,156.1,198.7,156.2z M198.9,159.2l-0.4,0l-0.2-2.3l0.4,0c0.3,0,0.5,0.1,0.5,0.5l0.1,1.3
		C199.4,159,199.3,159.2,198.9,159.2z"/>
	<path class="st1" d="M203,158.3l-0.1-0.8c-0.1-1.1-0.5-1.6-1.4-1.5l-1.2,0.1l0.5,7.6l0.8-0.1l-0.2-3.5l0.4,0l0.7,3.5l0.8-0.1
		l-0.8-3.6C202.9,159.6,203.1,159,203,158.3z M201.9,159.3l-0.4,0l-0.2-2.6l0.4,0c0.3,0,0.5,0.1,0.5,0.5l0.1,1.6
		C202.3,159.1,202.2,159.3,201.9,159.3z"/>
	<path class="st1" d="M204.6,155.8c-0.8,0.1-1.1,0.6-1,1.8l0.3,4.3c0.1,1.1,0.5,1.6,1.3,1.6s1.1-0.6,1-1.8l-0.3-4.3
		C205.7,156.3,205.3,155.7,204.6,155.8z M205,162.6c-0.3,0-0.4-0.1-0.4-0.4l-0.4-5.2c0-0.3,0.1-0.4,0.3-0.5c0.3,0,0.4,0.1,0.4,0.4
		l0.4,5.2C205.4,162.5,205.3,162.6,205,162.6z"/>
	<path class="st1" d="M207.7,159.7l0.1,0.8l0.4,0l0.1,1.5c0,0.3-0.1,0.4-0.4,0.5c-0.3,0-0.4-0.1-0.4-0.4l-0.4-5.2
		c0-0.3,0.1-0.4,0.4-0.5c0.3,0,0.4,0.1,0.5,0.4l0.1,1.2l0.7-0.1l0-0.7c-0.1-1.1-0.5-1.6-1.3-1.6c-0.8,0.1-1.1,0.6-1,1.8l0.3,4.3
		c0.1,1.1,0.5,1.6,1.3,1.6c0.4,0,0.6-0.2,0.8-0.6l0.4,0.5l-0.2-3.5L207.7,159.7z"/>
	<path class="st1" d="M211.7,157.7l-0.1-0.8c-0.1-1.1-0.5-1.6-1.4-1.5l-1.2,0.1l0.5,7.6l0.8-0.1l-0.2-3.5l0.4,0l0.7,3.5l0.8-0.1
		l-0.8-3.6C211.6,158.9,211.7,158.4,211.7,157.7z M210.5,158.7l-0.4,0l-0.2-2.6l0.4,0c0.3,0,0.5,0.1,0.5,0.5l0.1,1.6
		C211,158.5,210.8,158.7,210.5,158.7z"/>
	<path class="st1" d="M212.8,155.2l-0.5,7.7l0.8-0.1l0.1-1.1l1-0.1l0.2,1.1l0.8-0.1l-1.5-7.5L212.8,155.2z M213.2,160.9l0.1-2.2
		l0-1.3l0.2,1.3l0.4,2.1L213.2,160.9z"/>
	<polygon class="st1" points="217.2,154.9 217,159 217,160.4 216.7,159 215.9,155 214.8,155.1 215.4,162.7 216.1,162.6 215.6,156.7 
		215.8,157.5 216.8,162.6 217.4,162.5 217.7,157.4 217.8,156.5 218.2,162.5 218.9,162.4 218.3,154.8 	"/>
	<path class="st1" d="M219.6,154.7l-0.5,7.7l0.8-0.1l0.1-1.1l1-0.1l0.2,1.1l0.8-0.1l-1.5-7.5L219.6,154.7z M220,160.4l0.1-2.2l0-1.3
		l0.2,1.3l0.4,2.1L220,160.4z"/>
	<path class="st1" d="M223.6,159.5l0.1,1.4c0,0.3-0.1,0.4-0.3,0.5s-0.4-0.1-0.4-0.4l-0.4-5.2c0-0.3,0.1-0.4,0.3-0.5s0.4,0.1,0.4,0.4
		l0.1,1.2l0.7-0.1l0-0.7c-0.1-1.1-0.5-1.6-1.2-1.6c-0.8,0.1-1.1,0.6-1,1.8l0.3,4.3c0.1,1.1,0.5,1.6,1.3,1.6c0.7-0.1,1.1-0.6,1-1.7
		l-0.1-0.9L223.6,159.5z"/>
	<path class="st1" d="M225.2,154.3l-0.5,7.7l0.8-0.1l0.1-1.1l1-0.1l0.2,1.1l0.8-0.1l-1.5-7.5L225.2,154.3z M225.6,160l0.1-2.2l0-1.3
		l0.2,1.3l0.4,2.1L225.6,160z"/>
	<path class="st1" d="M228.4,154.1c-0.8,0.1-1.1,0.6-1,1.8l0.3,4.3c0.1,1.1,0.5,1.6,1.3,1.6c0.8-0.1,1.1-0.6,1-1.7l-0.3-4.3
		C229.6,154.6,229.2,154.1,228.4,154.1z M228.9,161c-0.3,0-0.4-0.1-0.4-0.4l-0.4-5.2c0-0.3,0.1-0.4,0.3-0.5c0.3,0,0.4,0.1,0.4,0.4
		l0.4,5.2C229.3,160.8,229.2,160.9,228.9,161z"/>
	<path class="st1" d="M232.8,157.9l0.1,0.8l0.4,0l0.1,1.5c0,0.3-0.1,0.4-0.4,0.5c-0.3,0-0.4-0.1-0.4-0.4l-0.4-5.2
		c0-0.3,0.1-0.4,0.4-0.5c0.3,0,0.4,0.1,0.5,0.4l0.1,1.2l0.7-0.1l0-0.7c-0.1-1.1-0.5-1.6-1.3-1.6c-0.8,0.1-1.1,0.6-1,1.8l0.3,4.3
		c0.1,1.1,0.5,1.6,1.3,1.6c0.4,0,0.6-0.2,0.8-0.6l0.4,0.5l-0.2-3.5L232.8,157.9z"/>
	<path class="st1" d="M236.7,156l-0.1-0.8c-0.1-1.1-0.5-1.6-1.4-1.5l-1.2,0.1l0.5,7.6l0.8-0.1l-0.2-3.5l0.4,0l0.7,3.5l0.8-0.1
		l-0.8-3.6C236.6,157.2,236.8,156.7,236.7,156z M235.6,157l-0.4,0l-0.2-2.6l0.4,0c0.3,0,0.5,0.1,0.5,0.5l0.1,1.6
		C236,156.8,235.9,157,235.6,157z"/>
	<path class="st1" d="M237.8,153.5l-0.5,7.7l0.8-0.1l0.1-1.1l1-0.1l0.2,1.1l0.8-0.1l-1.5-7.5L237.8,153.5z M238.2,159.1l0.1-2.2
		l0-1.3l0.2,1.3l0.4,2.1L238.2,159.1z"/>
	<polygon class="st1" points="241.6,153.2 239.3,153.4 239.3,154.1 240.1,154.1 240.6,160.9 241.3,160.8 240.9,154 241.6,154 	"/>
	<path class="st1" d="M243.4,153.1l0.4,6.4c0,0.3-0.1,0.4-0.3,0.5c-0.3,0-0.4-0.1-0.4-0.4l-0.4-6.4l-0.8,0.1l0.4,5.9
		c0.1,1.1,0.5,1.6,1.3,1.6c0.8-0.1,1.1-0.6,1-1.8l-0.4-5.9L243.4,153.1z"/>
	
		<rect x="241.6" y="156.4" transform="matrix(-6.978828e-002 -0.9976 0.9976 -6.978828e-002 106.2028 412.5247)" class="st1" width="7.6" height="0.8"/>
	<polygon class="st1" points="248.2,152.7 245.9,152.9 245.9,153.7 246.7,153.6 247.2,160.4 247.9,160.4 247.5,153.6 248.2,153.5 	
		"/>
	<path class="st1" d="M248.9,152.7l-0.5,7.7l0.8-0.1l0.1-1.1l1-0.1l0.2,1.1l0.8-0.1l-1.5-7.5L248.9,152.7z M249.3,158.3l0.1-2.2
		l0-1.3l0.2,1.3l0.4,2.1L249.3,158.3z"/>
</g>
</svg>
