<?xml version="1.0" encoding="utf-8"?>
<!-- Generator: Adobe Illustrator 19.0.0, SVG Export Plug-In . SVG Version: 6.00 Build 0)  -->
<svg version="1.1" id="Layer_1" xmlns="http://www.w3.org/2000/svg" xmlns:xlink="http://www.w3.org/1999/xlink" x="0px" y="0px"
	 viewBox="-86 362.7 422.9 117.2" style="enable-background:new -86 362.7 422.9 117.2;" xml:space="preserve">
<style type="text/css">
	.st0{fill:#FFFFFF;}
	.st1{opacity:0.75;}
	.st2{fill:#7EA539;}
	.st3{opacity:0.8;}
	.st4{fill:#FFE300;}
	.st5{fill:#004273;}
	.st6{font-family:'HelveticaNeueLTStd-Cn';}
	.st7{font-size:10.7129px;}
</style>
<g>
	<g>
		<g>
			<g>
				
					<rect id="XMLID_82_" x="-33.8" y="366.4" transform="matrix(-0.8661 0.4998 -0.4998 -0.8661 155.1404 803.2513)" class="st0" width="7.6" height="112"/>
			</g>
		</g>
		<g>
			<g>
				<rect id="XMLID_81_" x="-33.8" y="366.4" class="st0" width="7.6" height="112"/>
			</g>
		</g>
		<g>
			<g>
				<rect id="XMLID_80_" x="-86" y="418.6" class="st0" width="112" height="7.6"/>
			</g>
		</g>
		<g>
			<g>
				
					<rect id="XMLID_79_" x="-11.1" y="353.3" transform="matrix(-0.5 0.866 -0.866 -0.5 366.1996 659.575)" class="st0" width="7.6" height="164.4"/>
			</g>
		</g>
		<g>
			<g>
				<polygon id="XMLID_78_" class="st0" points="65.8,362.7 69.6,369.3 -76.6,453.7 -80.4,447.1 				"/>
			</g>
		</g>
		<g>
			<g>
				
					<rect id="XMLID_77_" x="-33.8" y="366.4" transform="matrix(0.8661 0.4998 -0.4998 0.8661 207.1193 71.5184)" class="st0" width="7.6" height="112"/>
			</g>
		</g>
	</g>
	<g>
		<g class="st1">
			<g>
				
					<rect id="XMLID_76_" x="-33.8" y="366.4" transform="matrix(-0.8661 0.4998 -0.4998 -0.8661 155.1404 803.2513)" class="st2" width="7.6" height="112"/>
			</g>
		</g>
		<g class="st3">
			<g>
				<rect id="XMLID_75_" x="-33.8" y="366.4" class="st4" width="7.6" height="112"/>
			</g>
		</g>
		<g class="st1">
			<g>
				
					<rect id="XMLID_74_" x="-11.1" y="353.3" transform="matrix(-0.5 0.866 -0.866 -0.5 366.1996 659.575)" class="st5" width="7.6" height="164.4"/>
			</g>
		</g>
		<g class="st1">
			<g>
				<polygon id="XMLID_73_" class="st5" points="65.8,362.7 69.6,369.3 -76.6,453.7 -80.4,447.1 				"/>
			</g>
		</g>
		<g class="st3">
			<g>
				<rect id="XMLID_72_" x="-86" y="418.6" class="st4" width="112" height="7.6"/>
			</g>
		</g>
		<g class="st1">
			<g>
				
					<rect id="XMLID_71_" x="-33.8" y="366.4" transform="matrix(0.8661 0.4998 -0.4998 0.8661 207.1193 71.5184)" class="st2" width="7.6" height="112"/>
			</g>
		</g>
	</g>
</g>
<g>
	<g>
		<g>
			<g>
				<path class="st0" d="M54.3,424.5v-28.2h9.2c3.9,0,5.2,1.3,6.3,2.9c1,1.5,1.1,3.2,1.1,3.7c0,3.5-1.2,5.8-4.8,6.7v0.2
					c4,0.5,5.8,2.9,5.8,6.7c0,7.2-5.3,7.9-8.5,7.9h-9.1V424.5z M57.9,408.2h5.2c2.8,0,4.2-1.8,4.2-4.5c0-2.3-1.3-4.3-4.3-4.3h-5.1
					L57.9,408.2L57.9,408.2z M57.9,421.4H63c3.8,0,5.2-2.7,5.2-4.8c0-4.5-2.8-5.3-6.4-5.3H58v10.1H57.9z"/>
			</g>
		</g>
		<g>
			<g>
				<path class="st0" d="M80.4,413.4v11h-3.1v-24h8.3c4.3,0,5.8,3,5.8,6c0,2.8-1.6,5-4.4,5.5v0.1c2.8,0.4,3.8,1.4,3.9,6.2
					c0,1,0.4,4.8,0.8,6.3h-3.2c-0.9-1.7-0.7-4.8-0.9-8c-0.2-2.9-2.6-3.1-3.6-3.1H80.4z M80.4,410.8H85c2.2,0,3.3-1.9,3.3-4
					c0-1.7-0.9-3.7-3.2-3.7h-4.6v7.7H80.4z"/>
			</g>
		</g>
		<g>
			<g>
				<path class="st0" d="M101.3,400.5h3.9l7.8,24h-3.4l-1.7-5.7h-9.3l-1.8,5.7h-3.1L101.3,400.5z M103.1,403.3L103.1,403.3
					l-3.8,12.8h7.7L103.1,403.3z"/>
			</g>
		</g>
		<g>
			<g>
				<path class="st0" d="M118.6,417.3v0.7c0,3.3,2.1,4.3,4,4.3c2.4,0,4.3-1,4.3-3.9c0-5.3-10.8-4.7-10.8-11.9c0-4.3,3-6.5,7.1-6.5
					c4.4,0,6.9,2.1,6.6,7h-3.2c0-2.6-0.8-4.4-3.7-4.4c-1.8,0-3.7,0.9-3.7,3.5c0,5.3,10.8,4.5,10.8,12.1c0,5.1-3.5,6.7-7.4,6.7
					c-7.1,0.1-7.1-5.4-7-7.7h3V417.3z"/>
			</g>
		</g>
		<g>
			<g>
				<path class="st0" d="M138.1,424.5H135v-24h3.1V424.5z"/>
			</g>
		</g>
		<g>
			<g>
				<path class="st0" d="M143.9,424.5v-24h3.1v21.4h8.8v2.7h-11.9V424.5z"/>
			</g>
		</g>
		<g>
			<g>
				<path class="st0" d="M180.1,404.1c0-1.6-0.1-3.2-0.8-4.1c-0.7-0.9-2.4-1.2-3.2-1.2c-3,0-4.1,1.8-4.2,2.2c-0.1,0.3-0.8,1-0.8,5.8
					v7.5c0,6.9,2.3,7.7,5,7.7c1.1,0,4.4-0.4,4.4-5.9h3.7c0.2,8.9-6.1,8.9-8,8.9c-3.5,0-8.9-0.2-8.9-11.2v-8c0-8,3.5-10.2,9-10.2
					c5.6,0,7.7,2.9,7.4,8.3h-3.6V404.1z"/>
			</g>
		</g>
		<g>
			<g>
				<path class="st0" d="M192.4,424.5h-3.1v-24h3.1V424.5z"/>
			</g>
		</g>
		<g>
			<g>
				<path class="st0" d="M214.8,400.5v24h-4.2l-9.4-20.8h-0.1v20.8h-2.7v-24h4.3l9.3,20.6h0.1v-20.6H214.8z"/>
			</g>
		</g>
		<g>
			<g>
				<path class="st0" d="M220.4,424.5v-24h12.4v2.7h-9.3v7.7h8.6v2.7h-8.6v8.3h9.5v2.7h-12.6V424.5z"/>
			</g>
		</g>
		<g>
			<g>
				<path class="st0" d="M241.9,424.5h-3.4v-28.2h5.8l7.1,23.6h0.1l7.2-23.6h5.9v28.2H261v-25h-0.1l-7.9,25h-3.4l-7.7-25h-0.1v25
					H241.9z"/>
			</g>
		</g>
		<g>
			<g>
				<path class="st0" d="M270.4,400.5h3.1v15.4c0,5.3,1.6,6.6,4.5,6.6s4.5-1.3,4.5-6.6v-15.4h3.1v15.2c0,6.7-2.5,9.3-7.5,9.3
					c-5.1,0-7.5-2.6-7.5-9.3v-15.2H270.4z"/>
			</g>
		</g>
		<g>
			<g>
				<path class="st0" d="M307.5,400.5v24h-4.2l-9.5-20.8h-0.1v20.8H291v-24h4.3l9.3,20.6h0.1v-20.6H307.5z"/>
			</g>
		</g>
		<g>
			<g>
				<path class="st0" d="M313.1,400.5h7.4c3.1,0,5.3,1.1,6.5,3.7c1,2,1.1,6.8,1.1,7.6c0,5.1-0.5,8.1-1.5,9.7
					c-1.3,2.1-3.7,3.1-7.9,3.1h-5.5v-24.1H313.1z M316.1,421.8h2.9c4.3,0,5.8-1.6,5.8-7.2v-4.9c0-4.9-1.5-6.7-4.7-6.7h-4
					L316.1,421.8L316.1,421.8z"/>
			</g>
		</g>
		<g>
			<g>
				<path class="st0" d="M336.8,424.5h-3.1v-24h3.1V424.5z"/>
			</g>
		</g>
	</g>
	<g>
		<g>
			<path class="st0" d="M82.1,448.4h-1.6v-12.6h1.6V448.4z"/>
			<path class="st0" d="M89.9,448.4v-6.1c0-0.9-0.3-1.7-1.6-1.7c-1.6,0-1.8,1.4-1.8,2.6v5.2h-1.4v-7c0-0.6,0-1.2-0.1-1.8h1.5v1.1
				h0.1c0.6-1,1.2-1.3,2.4-1.3c1.9,0,2.4,1.1,2.4,2.9v6.1H89.9z"/>
			<path class="st0" d="M94.3,439.6v-1.7l1.4-0.6v2.3h1.9v1.1h-1.9v5.4c0,0.6,0,1.3,1.3,1.3c0.1,0,0.3,0,0.6-0.1v1.1
				c-0.5,0-0.9,0.1-1.4,0.1c-1.4,0-2-0.6-2-1.6v-6.2h-1.4v-1.1H94.3z"/>
			<path class="st0" d="M100.6,444.5c0,2.5,0.7,3,1.8,3c1,0,1.5-0.8,1.5-1.7h1.6c0,2-1.2,2.8-3.1,2.8c-1.9,0-3.3-0.6-3.3-4.4
				c0-2.6,0.3-4.7,3.3-4.7c2.5,0,3.1,1.4,3.1,4.3v0.7C105.5,444.5,100.6,444.5,100.6,444.5z M104,443.4c0-2.6-0.7-2.9-1.8-2.9
				c-0.9,0-1.7,0.4-1.7,2.9H104z"/>
			<path class="st0" d="M109.6,440.9L109.6,440.9c0.6-1.3,1.4-1.5,2.8-1.5v1.5c-0.1,0-0.3,0-0.4,0c-0.1,0-0.2,0-0.4,0
				c-1.6,0-2,1.2-2,2.4v5.2h-1.4v-8.8h1.4L109.6,440.9L109.6,440.9z"/>
			<path class="st0" d="M118.9,448.4v-6.1c0-0.9-0.3-1.7-1.6-1.7c-1.6,0-1.8,1.4-1.8,2.6v5.2h-1.4v-7c0-0.6,0-1.2-0.1-1.8h1.5v1.1
				h0.1c0.6-1,1.2-1.3,2.4-1.3c1.9,0,2.4,1.1,2.4,2.9v6.1H118.9z"/>
			<path class="st0" d="M127.6,447.1L127.6,447.1c-0.5,1-1.2,1.4-2.3,1.4c-1.9,0-2.4-1.2-2.4-2.9c0-2.7,2.6-2.8,4.6-2.7
				c0-1.2,0.1-2.4-1.5-2.4c-1,0-1.5,0.6-1.4,1.6H123c0.1-2,1.1-2.7,3-2.7c2.3,0,2.9,1.2,2.9,2.7v4.2c0,0.7,0.1,1.4,0.2,2.1h-1.6
				v-1.3H127.6z M124.4,445.8c0,0.9,0.4,1.6,1.4,1.6c0.9,0,2-0.5,1.8-3.4C126.2,444.1,124.4,443.9,124.4,445.8z"/>
			<path class="st0" d="M132.2,439.6v-1.7l1.4-0.6v2.3h1.9v1.1h-1.9v5.4c0,0.6,0,1.3,1.3,1.3c0.1,0,0.3,0,0.6-0.1v1.1
				c-0.5,0-0.9,0.1-1.4,0.1c-1.4,0-2-0.6-2-1.6v-6.2h-1.4v-1.1H132.2z"/>
			<path class="st0" d="M137,435.8h1.6v1.5H137V435.8z M138.5,448.4h-1.4v-8.8h1.4V448.4z"/>
			<path class="st0" d="M141,444.1c0-2.6,0.3-4.7,3.3-4.7c3.1,0,3.3,2.1,3.3,4.7c0,3.9-1.5,4.4-3.3,4.4
				C142.5,448.6,141,448,141,444.1z M146.2,443.5c0-2.4-0.7-2.9-1.8-2.9s-1.9,0.5-1.9,2.9c0,2.9,0.4,3.9,1.9,3.9
				C145.8,447.4,146.2,446.4,146.2,443.5z"/>
			<path class="st0" d="M154.9,448.4v-6.1c0-0.9-0.3-1.7-1.6-1.7c-1.6,0-1.8,1.4-1.8,2.6v5.2h-1.4v-7c0-0.6,0-1.2-0.1-1.8h1.5v1.1
				h0.1c0.6-1,1.2-1.3,2.4-1.3c1.9,0,2.4,1.1,2.4,2.9v6.1H154.9z"/>
			<path class="st0" d="M163.6,447.1L163.6,447.1c-0.5,1-1.2,1.4-2.2,1.4c-1.9,0-2.4-1.2-2.4-2.9c0-2.7,2.6-2.8,4.6-2.7
				c0-1.2,0.1-2.4-1.5-2.4c-1,0-1.5,0.6-1.4,1.6h-1.6c0.1-2,1.1-2.7,3-2.7c2.3,0,2.9,1.2,2.9,2.7v4.2c0,0.7,0.1,1.4,0.2,2.1h-1.6
				V447.1z M160.4,445.8c0,0.9,0.4,1.6,1.4,1.6c0.9,0,2-0.5,1.8-3.4C162.3,444.1,160.4,443.9,160.4,445.8z"/>
			<path class="st0" d="M169.5,448.4H168v-12.6h1.4v12.6H169.5z"/>
			<path class="st0" d="M183.5,439.3c0-0.7,0-1.4-0.4-1.8c-0.3-0.4-1.1-0.5-1.4-0.5c-1.3,0-1.9,0.8-1.9,1c0,0.1-0.4,0.5-0.4,2.6v3.4
				c0,3.1,1,3.5,2.2,3.5c0.5,0,2-0.2,2-2.6h1.7c0.1,4-2.7,4-3.6,4c-1.6,0-4-0.1-4-5v-3.6c0-3.6,1.6-4.6,4-4.6c2.5,0,3.5,1.3,3.3,3.7
				h-1.5V439.3z"/>
			<path class="st0" d="M187.4,444.1c0-2.6,0.3-4.7,3.3-4.7c3.1,0,3.3,2.1,3.3,4.7c0,3.9-1.5,4.4-3.3,4.4
				C188.9,448.6,187.4,448,187.4,444.1z M192.6,443.5c0-2.4-0.8-2.9-1.9-2.9s-1.8,0.5-1.8,2.9c0,2.9,0.4,3.9,1.8,3.9
				C192.3,447.4,192.6,446.4,192.6,443.5z"/>
			<path class="st0" d="M198.2,440.7L198.2,440.7c0.5-0.8,1.1-1.2,2.1-1.2c1.4,0,2.8,0.6,2.8,4.4c0,2.2-0.1,4.7-2.9,4.7
				c-0.8,0-1.4-0.4-1.9-1.1h-0.1v4.2h-1.4v-12.1h1.4V440.7z M201.6,443.9c0-1.3,0-3.3-1.8-3.3s-1.6,2.4-1.6,3.8c0,1.2,0.1,3,1.7,3
				C201.4,447.4,201.6,446.2,201.6,443.9z"/>
			<path class="st0" d="M207.1,440.9L207.1,440.9c0.6-1.3,1.4-1.5,2.8-1.5v1.5c-0.1,0-0.3,0-0.4,0s-0.2,0-0.4,0c-1.6,0-2,1.2-2,2.4
				v5.2h-1.4v-8.8h1.4V440.9z"/>
			<path class="st0" d="M211.4,444.1c0-2.6,0.3-4.7,3.3-4.7c3.1,0,3.3,2.1,3.3,4.7c0,3.9-1.5,4.4-3.3,4.4
				C212.8,448.6,211.4,448,211.4,444.1z M216.6,443.5c0-2.4-0.8-2.9-1.9-2.9s-1.8,0.5-1.8,2.9c0,2.9,0.4,3.9,1.8,3.9
				C216.2,447.4,216.6,446.4,216.6,443.5z"/>
			<path class="st0" d="M225.2,435.8h1.4v12.6h-1.4v-1l0,0c-0.5,0.8-1.1,1.2-2,1.2c-1.4,0-2.8-0.6-2.8-4.4c0-2.2,0.1-4.7,2.9-4.7
				c0.8,0,1.4,0.4,1.9,1.1h0.1v-4.8H225.2z M223.5,440.6c-1.5,0-1.7,1.2-1.7,3.6c0,1.3,0,3.2,1.8,3.2c1.6,0,1.6-2,1.6-3.8
				C225.2,442.5,225.1,440.6,223.5,440.6z"/>
			<path class="st0" d="M234.2,439.6h1.4v7c0,0.6,0,1.2,0.1,1.8h-1.5v-1.1h-0.1c-0.5,0.8-1.3,1.2-2.2,1.2c-1.5,0-2.4-0.8-2.4-2.3
				v-6.7h1.4v6.2c0,1.1,0.5,1.8,1.5,1.8c0.8,0,1.7-0.6,1.7-2v-5.9H234.2z"/>
			<path class="st0" d="M243,442.4c0-1.4-0.7-1.8-1.2-1.8c-1.1,0-1.8,0.5-1.8,2.9c0,2.9,0.4,3.9,1.8,3.9c0.3,0,1.3-0.3,1.3-1.9h1.5
				c0.1,2.5-1.8,3.1-2.8,3.1c-1.9,0-3.3-0.6-3.3-4.4c0-2.6,0.3-4.7,3.3-4.7c1.8,0,2.8,1,2.7,3H243V442.4z"/>
			<path class="st0" d="M247.5,439.6v-1.7l1.4-0.6v2.3h1.9v1.1H249v5.4c0,0.6,0,1.3,1.3,1.3c0.1,0,0.3,0,0.6-0.1v1.1
				c-0.5,0-0.9,0.1-1.4,0.1c-1.4,0-2-0.6-2-1.6v-6.2h-1.4v-1.1H247.5z"/>
			<path class="st0" d="M252.3,435.8h1.6v1.5h-1.6V435.8z M253.9,448.4h-1.4v-8.8h1.4V448.4z"/>
			<path class="st0" d="M256.3,444.1c0-2.6,0.3-4.7,3.3-4.7c3.1,0,3.3,2.1,3.3,4.7c0,3.9-1.5,4.4-3.3,4.4
				C257.8,448.6,256.3,448,256.3,444.1z M261.5,443.5c0-2.4-0.7-2.9-1.8-2.9c-1.1,0-1.9,0.5-1.9,2.9c0,2.9,0.4,3.9,1.9,3.9
				C261.1,447.4,261.5,446.4,261.5,443.5z"/>
			<path class="st0" d="M270.3,448.4v-6.1c0-0.9-0.3-1.7-1.6-1.7c-1.6,0-1.8,1.4-1.8,2.6v5.2h-1.4v-7c0-0.6,0-1.2-0.1-1.8h1.5v1.1
				h0.1c0.6-1,1.2-1.3,2.4-1.3c1.9,0,2.4,1.1,2.4,2.9v6.1H270.3z"/>
			<path class="st0" d="M281.7,448.4h-1.5v-12.6h2.6l3.2,10.6l0,0l3.2-10.6h2.7v12.6h-1.6v-11.2l0,0l-3.5,11.2h-1.5l-3.5-11.2l0,0
				v11.2H281.7z"/>
			<path class="st0" d="M296.2,444.5c0,2.5,0.7,3,1.8,3c1,0,1.5-0.8,1.5-1.7h1.6c0,2-1.2,2.8-3.1,2.8s-3.3-0.6-3.3-4.4
				c0-2.6,0.3-4.7,3.3-4.7c2.5,0,3.1,1.4,3.1,4.3v0.7C301.1,444.5,296.2,444.5,296.2,444.5z M299.6,443.4c0-2.6-0.7-2.9-1.8-2.9
				c-0.9,0-1.7,0.4-1.7,2.9H299.6z"/>
			<path class="st0" d="M305.1,444.5c0,2.5,0.7,3,1.8,3c1,0,1.5-0.8,1.5-1.7h1.6c0,2-1.2,2.8-3.1,2.8s-3.3-0.6-3.3-4.4
				c0-2.6,0.3-4.7,3.3-4.7c2.5,0,3.1,1.4,3.1,4.3v0.7C310,444.5,305.1,444.5,305.1,444.5z M308.6,443.4c0-2.6-0.7-2.9-1.8-2.9
				c-0.9,0-1.7,0.4-1.7,2.9H308.6z"/>
			<path class="st0" d="M312.8,439.6v-1.7l1.4-0.6v2.3h1.9v1.1h-1.9v5.4c0,0.6,0,1.3,1.3,1.3c0.1,0,0.3,0,0.6-0.1v1.1
				c-0.5,0-0.9,0.1-1.4,0.1c-1.4,0-2-0.6-2-1.6v-6.2h-1.4v-1.1H312.8z"/>
			<path class="st0" d="M317.6,435.8h1.6v1.5h-1.6V435.8z M319.2,448.4h-1.4v-8.8h1.4V448.4z"/>
			<path class="st0" d="M326.6,448.4v-6.1c0-0.9-0.3-1.7-1.6-1.7c-1.6,0-1.8,1.4-1.8,2.6v5.2h-1.4v-7c0-0.6,0-1.2-0.1-1.8h1.5v1.1
				h0.1c0.6-1,1.2-1.3,2.4-1.3c1.9,0,2.4,1.1,2.4,2.9v6.1H326.6z"/>
			<path class="st0" d="M335.5,439.6h1.4v9.7c0,2-1.3,2.4-3.2,2.4c-1.5,0-2.8-0.7-2.7-2.4h1.6c0,0.8,0.6,1.3,1.3,1.3
				c1,0,1.5-0.6,1.5-1.5v-1.8h-0.1c-0.4,0.7-1.2,1.1-1.9,1.1c-2.4,0-2.9-2.1-2.9-4.7c0-4,2-4.3,2.8-4.3c0.9,0,1.7,0.4,2.1,1.3l0,0
				v-1.1H335.5z M333.8,440.6c-1.6,0-1.7,2-1.7,3.1c0,2.8,0.6,3.5,1.7,3.5c1.7,0,1.7-2,1.7-3.3C335.5,442.7,335.6,440.6,333.8,440.6
				z"/>
		</g>
	</g>
	<g>
		<path class="st0" d="M54.4,437.9c1.6-0.1,3.1-0.3,3.2-2.1h1.1v13h-1.5V439h-2.8V437.9z"/>
		<path class="st0" d="M60.8,437.9c1.6-0.1,3.1-0.3,3.2-2.1h1.1v13h-1.5V439h-2.8V437.9z"/>
	</g>
	<text id="XMLID_1_" transform="matrix(1 0 0 1 68.2593 442.6609)" class="st0 st6 st7">th</text>
</g>
</svg>
