<?xml version="1.0" encoding="utf-8"?>
<!-- Generator: Adobe Illustrator 19.0.0, SVG Export Plug-In . SVG Version: 6.00 Build 0)  -->
<svg version="1.1" id="Layer_1" xmlns="http://www.w3.org/2000/svg" xmlns:xlink="http://www.w3.org/1999/xlink" x="0px" y="0px"
	 viewBox="0 0 334.3 226.8" style="enable-background:new 0 0 334.3 226.8;" xml:space="preserve">
<style type="text/css">
	.st0{fill:#FFFFFF;}
	.st1{fill:none;}
</style>
<g>
	<path class="st0" d="M2.7,215.4c-1.5-0.6-2.2-1.6-2.2-3.3c0-2.5,1.5-3.9,3.9-3.9c2.4,0,3.9,1.4,3.9,3.9c0,1.6-0.7,2.6-2.2,3.3
		c1.8,0.6,2.7,1.9,2.7,4c0,2-1,4.5-4.4,4.5c-3.5,0-4.4-2.5-4.4-4.5C0,217.2,0.9,216,2.7,215.4z M4.4,222.4c1.8,0,2.5-1.4,2.5-3.2
		s-0.7-3.2-2.5-3.2s-2.5,1.4-2.5,3.2S2.6,222.4,4.4,222.4z M2.4,212.1c0,1.4,0.6,2.5,2,2.5c1.4,0,2-1.1,2-2.5c0-1.5-0.6-2.5-2-2.5
		C3,209.6,2.4,210.7,2.4,212.1z"/>
</g>
<g>
	<path class="st0" d="M10.6,207.5h1.1v2h1.2v0.8h-1.2v4.4c0,0.5,0.1,0.8,0.7,0.8c0.2,0,0.4,0,0.5,0v0.9c-0.1,0-0.4,0.1-0.9,0.1
		c-1.1,0-1.4-0.5-1.4-1.3v-4.7h-1v-0.8h1V207.5z"/>
	<path class="st0" d="M13.6,207.3h1.1v3h0c0.3-0.6,1-1,1.6-1c1.7,0,1.7,1.4,1.7,2.2v4.8H17v-4.7c0-0.5,0-1.4-1-1.4
		c-0.6,0-1.3,0.4-1.3,1.4v4.7h-1.1V207.3z"/>
</g>
<path class="st1" d="M15.9,170.2c0-2.8-1.6-5-5.1-5h-6v10.3H11C14.3,175.4,15.9,173.4,15.9,170.2z"/>
<path class="st1" d="M36.7,169.5h-5.5v9h5.4c2.6,0,3.9-2.2,3.9-4.7C40.6,171.8,39.5,169.5,36.7,169.5z"/>
<path class="st1" d="M56.7,213.5c-1.1,0-2,0.5-2,3.4h4.1C58.8,213.9,58,213.5,56.7,213.5z"/>
<polygon class="st1" points="58.1,169.7 53.7,184.8 62.8,184.8 58.2,169.7 "/>
<path class="st1" d="M4.8,179.2v11.9h6c4.5,0,6.1-3.2,6.1-5.7c0-5.3-3.3-6.2-7.6-6.2H4.8z"/>
<path class="st1" d="M330.3,213.6c-1.9,0-2,2.3-2,3.7c0,3.3,0.8,4.1,2,4.1c2,0,2-2.4,2-3.9C332.3,216,332.4,213.6,330.3,213.6z"/>
<path class="st1" d="M200.1,213.6c-1.8,0-2.1,1.4-2.1,4.2c0,1.6,0,3.8,2.1,3.8c1.9,0,1.9-2.4,1.9-4.5
	C202,215.8,201.9,213.6,200.1,213.6z"/>
<path class="st1" d="M240.5,217.1c0,3.4,0.4,4.6,2.2,4.6c1.8,0,2.2-1.2,2.2-4.6c0-2.8-0.9-3.5-2.2-3.5
	C241.4,213.6,240.5,214.2,240.5,217.1z"/>
<path class="st1" d="M298.4,213.5c-1.1,0-2,0.5-2,3.4h4.1C300.5,213.9,299.7,213.5,298.4,213.5z"/>
<path class="st1" d="M314.6,169.5h-4.8v22.1h3.4c5,0,6.9-1.9,6.9-8.5v-5.7C320.2,171.6,318.4,169.5,314.6,169.5z"/>
<path class="st1" d="M125.5,219.7c0,1,0.5,1.9,1.6,1.9c1,0,2.3-0.6,2.1-4C127.6,217.7,125.5,217.5,125.5,219.7z"/>
<path class="st1" d="M82.9,219.7c0,1,0.5,1.9,1.6,1.9c1,0,2.3-0.6,2.1-4C85.1,217.7,82.9,217.5,82.9,219.7z"/>
<path class="st1" d="M104.3,217.1c0,3.4,0.4,4.6,2.2,4.6c1.8,0,2.2-1.2,2.2-4.6c0-2.8-0.9-3.5-2.2-3.5
	C105.2,213.6,104.3,214.2,104.3,217.1z"/>
<path class="st1" d="M170.1,218.1c0,1.4,0.1,3.6,2,3.6c1.8,0,2.1-1.4,2.1-4.2c0-1.6,0-3.9-2.1-3.9
	C169.9,213.6,170.1,216.5,170.1,218.1z"/>
<path class="st1" d="M189.6,221.7c1.8,0,2.2-1.2,2.2-4.6c0-2.8-0.9-3.5-2.2-3.5c-1.3,0-2.2,0.6-2.2,3.5
	C187.4,220.4,187.9,221.7,189.6,221.7z"/>
<path class="st1" d="M287.9,213.5c-1.1,0-2,0.5-2,3.4h4.1C289.9,213.9,289.1,213.5,287.9,213.5z"/>
<path class="st1" d="M161.3,221.7c1.8,0,2.2-1.2,2.2-4.6c0-2.8-0.9-3.5-2.2-3.5c-1.3,0-2.2,0.6-2.2,3.5
	C159.2,220.4,159.6,221.7,161.3,221.7z"/>
<polygon class="st0" points="217.9,130.7 217.9,130.7 171,103.6 121.5,75 121.5,75 121.5,75 170.9,75 170.9,75 170.9,75 170.9,66.1 
	121.5,66.1 222.4,7.8 217.9,0 117,58.3 117,58.3 117,58.3 117,58.3 117,58.3 117,58.3 117,58.3 141.7,15.5 133.9,11 109.2,53.8 
	109.2,53.8 109.2,53.8 109.2,4.4 109.2,4.4 100.2,4.4 100.2,4.4 100.2,53.8 75.5,11 67.7,15.5 92.5,58.3 49.6,33.6 49.6,33.6 
	49.6,33.6 47.6,37 45.2,41.3 88,66.1 38.5,66.1 38.5,66.1 38.5,75 38.5,75 88,75 52.9,95.3 45.2,99.7 49.6,107.5 92.5,82.8 
	74.5,113.9 67.7,125.6 75.5,130.1 75.5,130.1 75.5,130.1 100.2,87.3 100.2,136.7 109.2,136.7 109.2,136.7 109.2,87.3 133.9,130.1 
	133.9,130.1 133.9,130.1 139.6,126.8 141.7,125.6 130.3,105.8 117,82.8 194,127.3 213.4,138.5 217.9,130.7 "/>
<path class="st0" d="M20.1,169.3c0-0.6-0.2-2.6-1.3-4.4c-1.2-1.8-2.8-3.4-7.4-3.4H0.6v33.3h10.7c3.8,0,10-0.8,10-9.4
	c0-4.6-2.1-7.4-6.8-8v-0.2C18.7,176.2,20.1,173.4,20.1,169.3z M16.9,185.4c0,2.4-1.6,5.7-6.1,5.7h-6v-11.9h4.5
	C13.6,179.2,16.9,180.1,16.9,185.4z M11,175.5H4.8v-10.3h6c3.6,0,5.1,2.3,5.1,5C15.9,173.4,14.3,175.4,11,175.5z"/>
<path class="st0" d="M43.7,187.3c-0.2-5.7-1.4-6.8-4.6-7.3v-0.1c3.3-0.6,5.2-3.1,5.2-6.5c0-3.5-1.8-7.1-6.8-7.1h-9.8v28.4h3.6v-13
	h4.2c1.2,0,4,0.2,4.3,3.6c0.3,3.8,0.1,7.5,1.1,9.4h3.8C44.1,193,43.7,188.5,43.7,187.3z M36.7,178.5h-5.4v-9h5.5
	c2.8,0,3.8,2.3,3.8,4.3C40.6,176.3,39.3,178.5,36.7,178.5z"/>
<path class="st0" d="M60.6,166.4H56l-9,28.4h3.7l2.1-6.8h11l2,6.8h4L60.6,166.4z M53.7,184.8l4.4-15.1h0.1l4.6,15.1H53.7z"/>
<path class="st0" d="M77.2,173.1c0-3.1,2.2-4.2,4.4-4.2c3.4,0,4.4,2,4.4,5.1h3.8c0.2-5.8-2.7-8.3-7.9-8.3c-4.8,0-8.3,2.7-8.3,7.7
	c0,8.5,12.7,7.8,12.7,14.1c0,3.4-2.2,4.6-5.1,4.6c-2.3,0-4.8-1.2-4.8-5.1v-0.8h-3.6c-0.1,2.7-0.1,9.1,8.3,9c4.7,0,8.8-1.9,8.8-7.9
	C89.9,178.4,77.2,179.3,77.2,173.1z"/>
<rect x="95.9" y="166.4" class="st0" width="3.6" height="28.4"/>
<polygon class="st0" points="120.4,191.6 110,191.6 110,166.4 106.4,166.4 106.4,194.7 120.4,194.7 "/>
<path class="st0" d="M144.6,195.4c2.2,0,9.6,0,9.4-10.5h-4.4c0,6.5-4,7-5.3,7c-3.3,0-5.9-1-5.9-9.1v-8.9c0-5.7,0.8-6.5,1-6.9
	c0.1-0.5,1.5-2.6,5-2.6c0.9,0,2.9,0.4,3.7,1.4c0.9,1.1,1,2.9,1,4.8h4.4c0.4-6.4-2.1-9.9-8.7-9.9c-6.5,0-10.7,2.7-10.7,12.1v9.4
	C134.1,195.2,140.5,195.4,144.6,195.4z"/>
<rect x="160.1" y="166.4" class="st0" width="3.6" height="28.4"/>
<polygon class="st0" points="190.2,194.7 190.2,166.4 186.9,166.4 186.9,190.7 186.9,190.7 175.8,166.4 170.7,166.4 170.7,194.7 
	173.9,194.7 173.9,170.1 174,170.1 185.2,194.7 "/>
<polygon class="st0" points="211.6,191.6 200.3,191.6 200.3,181.8 210.6,181.8 210.6,178.6 200.3,178.6 200.3,169.5 211.3,169.5 
	211.3,166.4 196.7,166.4 196.7,194.7 211.6,194.7 "/>
<polygon class="st0" points="249,161.5 242,161.5 233.5,189.4 233.4,189.4 225,161.5 218.1,161.5 218.1,194.7 222.1,194.7 
	222.1,165.2 222.2,165.2 231.3,194.7 235.3,194.7 244.6,165.2 244.7,165.2 244.7,194.7 249,194.7 "/>
<path class="st0" d="M264.7,195.3c6,0,8.9-3.1,8.9-11v-18H270v18.2c0,6.2-1.9,7.8-5.3,7.8s-5.3-1.6-5.3-7.8v-18.2h-3.6v18
	C255.8,192.2,258.7,195.3,264.7,195.3z"/>
<polygon class="st0" points="299.6,194.7 299.6,166.4 296.4,166.4 296.4,190.7 296.3,190.7 285.3,166.4 280.1,166.4 280.1,194.7 
	283.4,194.7 283.4,170.1 283.4,170.1 294.6,194.7 "/>
<path class="st0" d="M322.6,170.7c-1.4-3-4-4.3-7.6-4.3h-8.7v28.4h6.5c4.9,0,7.8-1.2,9.4-3.7c1.2-1.9,1.7-5.4,1.7-11.4
	C323.8,178.7,323.7,173.1,322.6,170.7z M320.2,183.1c0,6.6-1.8,8.5-6.9,8.5h-3.4v-22.1h4.8c3.8,0,5.5,2.1,5.5,7.9V183.1z"/>
<rect x="330.7" y="166.4" class="st0" width="3.6" height="28.4"/>
<rect x="31" y="208" class="st0" width="1.9" height="14.9"/>
<path class="st0" d="M43.9,222.8v-7.2c0-2.1-0.6-3.4-2.8-3.4c-1.3,0-2.1,0.4-2.8,1.5h-0.1v-1.3h-1.8c0.1,0.7,0.1,1.4,0.1,2.2v8.2
	h1.7v-6.2c0-1.4,0.3-3.1,2.1-3.1c1.4,0,1.8,0.9,1.8,2v7.2H43.9z"/>
<path class="st0" d="M49.6,223c0.6,0,1.1-0.1,1.7-0.2v-1.3c-0.4,0-0.6,0.1-0.8,0.1c-1.5,0-1.5-0.8-1.5-1.5v-6.4h2.3v-1.3H49v-2.8
	l-1.7,0.8v2h-1.7v1.3h1.7v7.4C47.3,222.3,48,223,49.6,223z"/>
<path class="st0" d="M60.6,217.3c0-3.4-0.7-5.1-3.7-5.1c-3.6,0-4,2.5-4,5.6c0,4.6,1.8,5.3,4,5.3c2.2,0,3.6-1.1,3.6-3.4h-1.9
	c-0.1,1.1-0.7,2-1.8,2c-1.3,0-2.1-0.6-2.1-3.5h5.9V217.3z M54.8,216.9c0-2.9,0.9-3.4,2-3.4c1.2,0,2.1,0.4,2.1,3.4H54.8z"/>
<path class="st0" d="M63.7,212.4v10.4h1.7v-6.1c0-1.4,0.5-2.8,2.4-2.8l0.5,0l0.5,0.1v-1.8c-1.6,0-2.5,0.2-3.2,1.8h0v-1.6H63.7z"/>
<path class="st0" d="M78.1,222.8v-7.2c0-2.1-0.6-3.4-2.8-3.4c-1.3,0-2.1,0.4-2.8,1.5h-0.1v-1.3h-1.8c0.1,0.7,0.1,1.4,0.1,2.2v8.2
	h1.7v-6.2c0-1.4,0.3-3.1,2.1-3.1c1.4,0,1.8,0.9,1.8,2v7.2H78.1z"/>
<path class="st0" d="M88.6,222.8c-0.1-0.8-0.2-1.6-0.2-2.5v-5c0-1.8-0.7-3.1-3.4-3.1c-2.2,0-3.4,0.8-3.5,3.1h1.8
	c-0.1-1.1,0.5-1.9,1.6-1.9c1.8,0,1.8,1.5,1.8,2.9c-2.4-0.1-5.5,0.1-5.5,3.2c0,2,0.6,3.4,2.8,3.4c1.3,0,2.1-0.5,2.6-1.7h0v1.5H88.6z
	 M84.6,221.7c-1.1,0-1.6-0.9-1.6-1.9c0-2.2,2.2-2.1,3.8-2.1C86.9,221,85.6,221.7,84.6,221.7z"/>
<path class="st0" d="M94.5,223c0.6,0,1.1-0.1,1.7-0.2v-1.3c-0.4,0-0.6,0.1-0.8,0.1c-1.5,0-1.5-0.8-1.5-1.5v-6.4h2.3v-1.3h-2.3v-2.8
	l-1.7,0.8v2h-1.7v1.3h1.7v7.4C92.1,222.3,92.9,223,94.5,223z"/>
<rect x="97.9" y="212.4" class="st0" width="1.7" height="10.4"/>
<rect x="97.8" y="208" class="st0" width="1.9" height="1.8"/>
<path class="st0" d="M102.5,217.8c0,4.6,1.8,5.3,4,5.3c2.2,0,4-0.7,4-5.3c0-3.1-0.3-5.6-4-5.6C102.8,212.2,102.5,214.7,102.5,217.8z
	 M108.6,217.1c0,3.4-0.4,4.6-2.2,4.6c-1.8,0-2.2-1.2-2.2-4.6c0-2.8,0.9-3.5,2.2-3.5C107.8,213.6,108.6,214.2,108.6,217.1z"/>
<path class="st0" d="M120.7,222.8v-7.2c0-2.1-0.6-3.4-2.8-3.4c-1.3,0-2.1,0.4-2.8,1.5H115v-1.3h-1.8c0.1,0.7,0.1,1.4,0.1,2.2v8.2
	h1.7v-6.2c0-1.4,0.3-3.1,2.1-3.1c1.4,0,1.8,0.9,1.8,2v7.2H120.7z"/>
<path class="st0" d="M131.1,222.8c-0.1-0.8-0.2-1.6-0.2-2.5v-5c0-1.8-0.7-3.1-3.4-3.1c-2.2,0-3.4,0.8-3.5,3.1h1.8
	c-0.1-1.1,0.5-1.9,1.6-1.9c1.8,0,1.8,1.5,1.8,2.9c-2.4-0.1-5.5,0.1-5.5,3.2c0,2,0.6,3.4,2.8,3.4c1.3,0,2.1-0.5,2.6-1.7h0v1.5H131.1z
	 M127.1,221.7c-1.1,0-1.6-0.9-1.6-1.9c0-2.2,2.2-2.1,3.8-2.1C129.4,221,128.1,221.7,127.1,221.7z"/>
<rect x="134.4" y="208" class="st0" width="1.7" height="14.9"/>
<path class="st0" d="M150.7,223.1c1,0,4.3,0,4.2-4.7h-2c0,2.9-1.8,3.1-2.4,3.1c-1.5,0-2.7-0.4-2.7-4.1v-4c0-2.6,0.4-2.9,0.4-3.1
	c0.1-0.2,0.7-1.2,2.3-1.2c0.4,0,1.3,0.2,1.7,0.6c0.4,0.5,0.5,1.3,0.4,2.2h2c0.2-2.9-1-4.4-3.9-4.4c-2.9,0-4.8,1.2-4.8,5.4v4.2
	C146,223,148.8,223.1,150.7,223.1z"/>
<path class="st0" d="M157.4,217.8c0,4.6,1.8,5.3,4,5.3c2.2,0,4-0.7,4-5.3c0-3.1-0.3-5.6-4-5.6C157.7,212.2,157.4,214.7,157.4,217.8z
	 M161.3,213.6c1.3,0,2.2,0.6,2.2,3.5c0,3.4-0.4,4.6-2.2,4.6c-1.8,0-2.2-1.2-2.2-4.6C159.2,214.2,160,213.6,161.3,213.6z"/>
<path class="st0" d="M168.4,212.4v14.3h1.7v-5h0.1c0.6,0.8,1.3,1.3,2.3,1.3c3.4,0,3.4-3,3.4-5.6c0-4.6-1.7-5.2-3.4-5.2
	c-1.1,0-1.8,0.5-2.4,1.4h0v-1.2H168.4z M172,213.6c2.1,0,2.1,2.3,2.1,3.9c0,2.8-0.2,4.2-2.1,4.2c-1.9,0-2-2.2-2-3.6
	C170.1,216.5,169.9,213.6,172,213.6z"/>
<path class="st0" d="M178.9,212.4v10.4h1.7v-6.1c0-1.4,0.5-2.8,2.3-2.8l0.5,0l0.5,0.1v-1.8c-1.6,0-2.5,0.2-3.2,1.8h0v-1.6H178.9z"/>
<path class="st0" d="M189.6,223c2.2,0,4-0.7,4-5.3c0-3.1-0.3-5.6-4-5.6c-3.6,0-4,2.5-4,5.6C185.6,222.4,187.4,223,189.6,223z
	 M189.6,213.6c1.3,0,2.2,0.6,2.2,3.5c0,3.4-0.4,4.6-2.2,4.6c-1.8,0-2.2-1.2-2.2-4.6C187.4,214.2,188.3,213.6,189.6,213.6z"/>
<path class="st0" d="M203.7,222.8V208H202v5.5h-0.1c-0.6-0.8-1.3-1.3-2.3-1.3c-3.4,0-3.4,3-3.4,5.6c0,4.6,1.7,5.2,3.4,5.2
	c1.1,0,1.8-0.5,2.4-1.4h0v1.2H203.7z M200.1,221.7c-2.1,0-2.1-2.3-2.1-3.8c0-2.8,0.2-4.2,2.1-4.2c1.9,0,2,2.2,2,3.6
	C202,219.3,202,221.7,200.1,221.7z"/>
<path class="st0" d="M214.4,222.8c-0.1-0.7-0.1-1.4-0.1-2.2v-8.2h-1.7v6.9c0,1.7-1.1,2.4-2,2.4c-1.2,0-1.8-0.8-1.8-2.1v-7.2h-1.7
	v7.9c0,1.8,1,2.7,2.8,2.7c1.1,0,2.1-0.5,2.6-1.5h0.1v1.3H214.4z"/>
<path class="st0" d="M221.6,223c1.2,0,3.3-0.7,3.3-3.7h-1.8c0.1,1.9-1.1,2.3-1.5,2.3c-1.8,0-2.2-1.2-2.2-4.6c0-2.8,0.9-3.5,2.2-3.5
	c0.6,0,1.5,0.5,1.4,2.2h1.8c0.1-2.3-1.1-3.5-3.2-3.5c-3.6,0-4,2.5-4,5.6C217.7,222.4,219.4,223,221.6,223z"/>
<path class="st0" d="M230.7,223c0.6,0,1.1-0.1,1.7-0.2v-1.3c-0.4,0-0.6,0.1-0.8,0.1c-1.5,0-1.5-0.8-1.5-1.5v-6.4h2.3v-1.3h-2.3v-2.8
	l-1.7,0.8v2h-1.7v1.3h1.7v7.4C228.4,222.3,229.1,223,230.7,223z"/>
<rect x="234.1" y="208" class="st0" width="1.9" height="1.8"/>
<rect x="234.2" y="212.4" class="st0" width="1.7" height="10.4"/>
<path class="st0" d="M238.8,217.8c0,4.6,1.8,5.3,4,5.3c2.2,0,4-0.7,4-5.3c0-3.1-0.3-5.6-4-5.6C239.1,212.2,238.8,214.7,238.8,217.8z
	 M244.9,217.1c0,3.4-0.4,4.6-2.2,4.6c-1.8,0-2.2-1.2-2.2-4.6c0-2.8,0.9-3.5,2.2-3.5C244,213.6,244.9,214.2,244.9,217.1z"/>
<path class="st0" d="M257,222.8v-7.2c0-2.1-0.6-3.4-2.8-3.4c-1.3,0-2.1,0.4-2.8,1.5h-0.1v-1.3h-1.8c0.1,0.7,0.1,1.4,0.1,2.2v8.2h1.7
	v-6.2c0-1.4,0.3-3.1,2.1-3.1c1.4,0,1.8,0.9,1.8,2v7.2H257z"/>
<polygon class="st0" points="280.8,222.8 280.8,208 277.7,208 273.9,220.4 273.8,220.4 270.1,208 267,208 267,222.8 268.8,222.8 
	268.8,209.6 268.8,209.6 272.9,222.8 274.7,222.8 278.9,209.6 278.9,209.6 278.9,222.8 "/>
<path class="st0" d="M291.7,217.3c0-3.4-0.7-5.1-3.7-5.1c-3.6,0-4,2.5-4,5.6c0,4.6,1.8,5.3,4,5.3c2.2,0,3.6-1.1,3.6-3.4h-1.9
	c-0.1,1.1-0.7,2-1.8,2c-1.3,0-2.1-0.6-2.1-3.5h5.9V217.3z M285.9,216.9c0-2.9,0.9-3.4,2-3.4c1.2,0,2.1,0.4,2.1,3.4H285.9z"/>
<path class="st0" d="M302.3,217.3c0-3.4-0.7-5.1-3.7-5.1c-3.6,0-4,2.5-4,5.6c0,4.6,1.8,5.3,4,5.3c2.2,0,3.6-1.1,3.6-3.4h-1.9
	c-0.1,1.1-0.7,2-1.8,2c-1.3,0-2.1-0.6-2.1-3.5h5.9V217.3z M296.5,216.9c0-2.9,0.9-3.4,2-3.4c1.2,0,2.1,0.4,2.1,3.4H296.5z"/>
<path class="st0" d="M307.9,223c0.6,0,1.1-0.1,1.7-0.2v-1.3c-0.4,0-0.6,0.1-0.8,0.1c-1.5,0-1.5-0.8-1.5-1.5v-6.4h2.3v-1.3h-2.3v-2.8
	l-1.7,0.8v2h-1.7v1.3h1.7v7.4C305.6,222.3,306.3,223,307.9,223z"/>
<rect x="311.3" y="212.4" class="st0" width="1.7" height="10.4"/>
<rect x="311.2" y="208" class="st0" width="1.9" height="1.8"/>
<path class="st0" d="M323.5,222.8v-7.2c0-2.1-0.6-3.4-2.8-3.4c-1.3,0-2.1,0.4-2.8,1.5h-0.1v-1.3h-1.8c0.1,0.7,0.1,1.4,0.1,2.2v8.2
	h1.7v-6.2c0-1.4,0.3-3.1,2.1-3.1c1.4,0,1.8,0.9,1.8,2v7.2H323.5z"/>
<path class="st0" d="M330.5,225.5c-0.9,0-1.6-0.5-1.6-1.5H327c-0.1,1.9,1.4,2.8,3.2,2.8c2.3,0,3.8-0.6,3.8-2.9v-11.5h-1.7v1.3h0
	c-0.5-1-1.3-1.5-2.4-1.5c-0.8,0-3.3,0.3-3.3,5.1c0,3.1,0.6,5.5,3.4,5.5c0.9,0,1.9-0.5,2.3-1.3h0.1v2.2
	C332.3,224.8,331.6,225.5,330.5,225.5z M330.3,221.4c-1.3,0-2-0.8-2-4.1c0-1.4,0.1-3.7,2-3.7c2.1,0,2,2.4,2,4
	C332.3,219,332.4,221.4,330.3,221.4z"/>
</svg>
