<?xml version="1.0" encoding="utf-8"?>
<!-- Generator: Adobe Illustrator 19.0.0, SVG Export Plug-In . SVG Version: 6.00 Build 0)  -->
<svg version="1.1" id="Layer_1" xmlns="http://www.w3.org/2000/svg" xmlns:xlink="http://www.w3.org/1999/xlink" x="0px" y="0px"
	 viewBox="0 0 406.7 233" style="enable-background:new 0 0 406.7 233;" xml:space="preserve">
<style type="text/css">
	.st0{fill:none;}
	.st1{fill:#FFFFFF;}
</style>
<path class="st0" d="M260.4,113.6l-4.5,0l0.2,32.4l2.7,0l1.9,0c0.1,0,0.5-0.1,0.9-0.1c0.1,0,0.2,0,0.3,0c1-0.2,1.8-0.7,2.4-1.5
	c0,0,0,0,0.1-0.1c0.1-0.2,0.2-0.4,0.3-0.7c0,0,0,0,0,0c0.3-0.8,0.4-1.7,0.4-2.8l-0.1-22C265,115.3,263.4,113.6,260.4,113.6z"/>
<polygon class="st0" points="154.2,88.3 154,85.8 153.8,88.3 152.3,101.2 155.9,101.1 "/>
<path class="st0" d="M401.9,99.1h-8.7l8.7,6c0.6,0,1.2-0.2,1.7-0.7c0.5-0.5,0.7-1.1,0.7-2v-0.6c0-0.8-0.2-1.5-0.7-2
	C403.1,99.3,402.5,99.1,401.9,99.1z"/>
<path class="st0" d="M255.9,104.7l2.7,0l1.9,0c0.1,0,0.8-0.1,1.2-0.1c0.4-0.1,0.8-0.2,1.1-0.4c1.4-0.7,2.1-2.3,2.1-4.7l-0.1-20.2
	c0-3.4-1.6-5.2-4.5-5.2l-2,0l-2.5,0l0.1,15.4L255.9,104.7z"/>
<path class="st0" d="M387.3,99.8c-0.5,0.5-0.7,1.1-0.7,2v0.6c0,0.8,0.2,1.5,0.7,2c0.5,0.5,1.1,0.7,1.7,0.7h8.8l-8.8-6
	C388.4,99.1,387.8,99.3,387.3,99.8z"/>
<path class="st0" d="M138.7,204.1c0,3,0.2,5.1,2,5.1c1.5,0,2-1.5,2-5.1c0-3.6-0.5-5.1-2-5.1C138.8,199,138.7,201.2,138.7,204.1z"/>
<path class="st0" d="M166.3,207.2c0,1.1,0.4,2,1.4,2c1,0,2.3-0.7,2.3-2.3v-2.9c-0.5,0.4-1.1,0.6-1.6,0.7
	C166.9,205.2,166.3,205.9,166.3,207.2z"/>
<path class="st0" d="M109,207.2c0,1.1,0.4,2,1.4,2c1,0,2.3-0.7,2.3-2.3v-2.9c-0.5,0.4-1.1,0.6-1.6,0.7
	C109.6,205.2,109,205.9,109,207.2z"/>
<path class="st0" d="M316.6,207.2c0,1.1,0.4,2,1.4,2c1,0,2.3-0.7,2.3-2.3v-2.9c-0.5,0.4-1.1,0.6-1.6,0.7
	C317.2,205.2,316.6,205.9,316.6,207.2z"/>
<path class="st0" d="M77.9,107.6c0.1,0.5,0.2,0.8,0.4,1.1c0,0,0,0,0,0c0.3,0.3,0.7,0.5,1.4,0.5c0.5,0,0.9-0.1,1.1-0.3c0,0,0,0,0,0
	c0,0,0,0,0,0c0.1-0.1,0.2-0.1,0.2-0.2c0.1-0.1,0.1-0.1,0.1-0.2c0.2-0.3,0.3-0.8,0.3-1.5l-0.2-32.7c0-0.9-0.2-1.4-0.5-1.7
	c-0.3-0.3-0.7-0.5-1.4-0.5c-0.7,0-1.1,0.2-1.4,0.5c-0.1,0.1-0.1,0.1-0.2,0.2c-0.1,0.2-0.2,0.4-0.2,0.7c0,0.2-0.1,0.5-0.1,0.8
	l0.2,32.7C77.8,107.2,77.9,107.4,77.9,107.6z"/>
<path class="st0" d="M264.7,199c-1.5,0-1.9,1.5-1.9,2.9v0.6h3.8C266.5,200.3,266.3,199,264.7,199z"/>
<path class="st0" d="M133.1,86.8l1.5,0c0.6,0,1.1-0.1,1.5-0.3c0.2-0.1,0.3-0.2,0.5-0.3c0.2-0.2,0.3-0.5,0.5-0.8
	c0.1-0.2,0.1-0.5,0.1-0.7c0-0.2,0-0.3,0-0.5l0-3.1l0-6.7c0-0.8-0.2-1.3-0.4-1.7c-0.1-0.1-0.1-0.2-0.2-0.3c-0.2-0.2-0.4-0.3-0.6-0.4
	c-0.1-0.1-0.2-0.1-0.2-0.1c-0.3-0.1-0.7-0.2-1.3-0.2l-2,0l0.1,15.2L133.1,86.8z"/>
<path class="st0" d="M74,199c-1.5,0-1.9,1.5-1.9,2.9v0.6h3.8C75.9,200.3,75.6,199,74,199z"/>
<path class="st0" d="M5.6,202.7H3.9v5.8h1.5c1.9,0,3.2-0.7,3.2-2.9C8.6,203.4,7.3,202.7,5.6,202.7z"/>
<path class="st0" d="M8.2,197.5c0-1.9-0.9-2.5-2.8-2.5H3.9v5.1H5C7.2,200,8.2,199.3,8.2,197.5z"/>
<rect x="363.4" class="st1" width="3.5" height="233"/>
<path class="st1" d="M168.6,202.5l-2.1,0.6c-2.6,0.7-3.7,1.8-3.7,4.6c0,2,0.9,4.2,3.5,4.2c1.8,0,2.9-0.4,3.7-1.9h0.1
	c0.1,0.5,0.2,1.1,0.5,1.5h3.6c-0.4-0.8-0.5-1.5-0.5-2.8v-7.7c0-2.6-0.9-4.5-5.3-4.5c-2.8,0-5.1,1.1-5.1,4.5v0.3h3.4v-0.4
	c0-1.1,0.6-1.9,1.7-1.9c1.2,0,1.7,0.7,1.7,1.8C170.1,201.8,169.7,202.2,168.6,202.5z M170.1,207c0,1.6-1.3,2.3-2.3,2.3
	c-1,0-1.4-0.9-1.4-2c0-1.3,0.6-2,2.1-2.4c0.5-0.1,1.1-0.4,1.6-0.7V207z"/>
<path class="st1" d="M12.1,197c0-3.7-2.3-4.9-5.5-4.9H0v19.4h6.6c4.6,0,6.1-2.6,6.1-5.7c0-2.6-1.4-4.2-3.5-4.5v0
	C11.1,200.7,12.1,199.1,12.1,197z M3.9,194.9h1.4c1.9,0,2.8,0.7,2.8,2.5c0,1.8-1,2.6-3.1,2.6H3.9V194.9z M5.4,208.6H3.9v-5.8h1.7
	c1.7,0,3,0.6,3,2.9C8.6,207.9,7.3,208.6,5.4,208.6z"/>
<rect x="177" y="192" class="st1" width="3.8" height="19.4"/>
<path class="st1" d="M134.9,204.1c0,5.1,1.3,7.8,5.8,7.7c4.3,0,5.8-2.7,5.8-7.7c0-5.1-1.3-7.8-5.8-7.7
	C136.4,196.5,134.9,199.1,134.9,204.1z M142.7,204.1c0,3.6-0.5,5.1-2,5.1c-1.8,0-2-2.2-2-5.1c0-3,0.2-5.1,2-5.1
	C142.2,199,142.7,200.5,142.7,204.1z"/>
<path class="st1" d="M160.1,211.5v-10.9c0-2.9-1.4-4.2-3.7-4.2c-1.6,0-2.9,0.6-3.7,2.1h0v-1.7H149v14.6h3.8v-9.7
	c0-1.6,0.7-2.4,2-2.4c1.1,0,1.6,0.6,1.6,2v10.1H160.1z"/>
<rect x="211.6" y="192" class="st1" width="3.8" height="19.4"/>
<polygon class="st1" points="202.1,195.3 202.1,192 191.3,192 191.3,211.5 195.2,211.5 195.2,203 201.7,203 201.7,199.8 
	195.2,199.8 195.2,195.3 "/>
<rect x="128.4" y="196.8" class="st1" width="3.7" height="14.6"/>
<polygon class="st1" points="257.9,195.3 257.9,192 247.1,192 247.1,211.5 251,211.5 251,203 257.5,203 257.5,199.8 251,199.8 
	251,195.3 "/>
<path class="st1" d="M236.7,211.5v-10.6c0-2.8-1.2-4.4-3.7-4.4c-1.8,0-3.1,0.8-3.7,2.3h-0.1c-0.4-1.5-1.7-2.3-3.4-2.3
	c-1.6,0-2.7,0.5-3.7,1.9h-0.1v-1.5h-3.6v14.6h3.8v-9.6c0-1.7,0.8-2.5,2-2.5c1.1,0,1.5,0.7,1.5,1.9v10.2h3.7v-9.6
	c0-1.7,0.8-2.5,2-2.5c1.1,0,1.5,0.7,1.5,1.9v10.2H236.7z"/>
<rect x="204.5" y="196.8" class="st1" width="3.7" height="14.6"/>
<rect x="38.7" y="192" class="st1" width="3.9" height="19.4"/>
<polygon class="st1" points="28.1,211.5 28.1,192 24.2,192 24.2,199.5 19.6,199.5 19.6,192 15.7,192 15.7,211.5 19.6,211.5 
	19.6,202.8 24.2,202.8 24.2,211.5 "/>
<path class="st1" d="M57.2,211.5v-10.9c0-2.9-1.4-4.2-3.7-4.2c-1.6,0-2.9,0.6-3.7,2.1h-0.1v-1.7h-3.6v14.6h3.8v-9.7
	c0-1.6,0.7-2.4,2-2.4c1.1,0,1.6,0.6,1.6,2v10.1H57.2z"/>
<path class="st1" d="M82.1,196.8v14.6h3.8v-8.8c0-2,1.5-2.6,2.8-2.6c0.4,0,0.8,0,1.2,0v-3.6c-0.2,0-0.5-0.1-0.7-0.1
	c-1.6,0-2.6,0.9-3.4,2.3h0v-2H82.1z"/>
<path class="st1" d="M102.8,211.5v-10.9c0-2.9-1.4-4.2-3.7-4.2c-1.6,0-2.9,0.6-3.7,2.1h-0.1v-1.7h-3.6v14.6h3.8v-9.7
	c0-1.6,0.7-2.4,2-2.4c1.1,0,1.6,0.6,1.6,2v10.1H102.8z"/>
<path class="st1" d="M111.3,202.5l-2.1,0.6c-2.6,0.7-3.7,1.8-3.7,4.6c0,2,0.9,4.2,3.5,4.2c1.8,0,2.9-0.4,3.7-1.9h0.1
	c0.1,0.5,0.2,1.1,0.5,1.5h3.6c-0.4-0.8-0.5-1.5-0.5-2.8v-7.7c0-2.6-0.8-4.5-5.3-4.5c-2.8,0-5.1,1.1-5.1,4.5v0.3h3.4v-0.4
	c0-1.1,0.6-1.9,1.7-1.9c1.2,0,1.7,0.7,1.7,1.8C112.8,201.8,112.4,202.2,111.3,202.5z M112.8,207c0,1.6-1.3,2.3-2.3,2.3
	c-1,0-1.4-0.9-1.4-2c0-1.3,0.6-2,2.1-2.4c0.5-0.1,1.1-0.4,1.6-0.7V207z"/>
<path class="st1" d="M126.4,199.4v-2.6h-2.2v-4.2h-3.8v4.2h-1.9v2.6h1.9v8.4c0,3,0.5,3.9,3.5,3.9c0.9,0,1.6-0.1,2.4-0.2v-2.6
	c-0.2,0-0.5,0.1-0.8,0.1c-1.1,0-1.3-0.5-1.3-1.6v-7.9H126.4z"/>
<path class="st1" d="M79.5,204.7v-0.8c0-4.5-1-7.4-5.4-7.4c-5.1,0-5.8,3.6-5.8,7.6c0,3.6,0.2,7.8,5.6,7.8c3.5,0,5.2-1.9,5.3-5.3
	h-3.4c-0.2,1.8-0.7,2.7-2,2.7c-1.4,0-1.8-1.7-1.8-3.4v-1.2H79.5z M72.1,201.9c0-1.4,0.4-2.9,1.9-2.9c1.6,0,1.8,1.2,1.9,3.5h-3.8
	V201.9z"/>
<path class="st1" d="M67,199.4v-2.6h-2.2v-4.2h-3.8v4.2h-1.9v2.6h1.9v8.4c0,3,0.5,3.9,3.5,3.9c0.9,0,1.6-0.1,2.5-0.2v-2.6
	c-0.3,0-0.5,0.1-0.8,0.1c-1.1,0-1.3-0.5-1.3-1.6v-7.9H67z"/>
<path class="st1" d="M270.2,204.7v-0.8c0-4.5-1-7.4-5.4-7.4c-5,0-5.8,3.6-5.8,7.6c0,3.6,0.2,7.8,5.6,7.8c3.5,0,5.2-1.9,5.3-5.3h-3.4
	c-0.2,1.8-0.7,2.7-2,2.7c-1.4,0-1.8-1.7-1.8-3.4v-1.2H270.2z M262.8,201.9c0-1.4,0.4-2.9,1.9-2.9c1.6,0,1.8,1.2,1.9,3.5h-3.8V201.9z
	"/>
<polygon class="st1" points="306.1,207.3 304,196.8 300.1,196.8 303.9,211.5 308.2,211.5 311.9,196.8 308.2,196.8 306.2,207.3 "/>
<path class="st1" d="M318.8,202.5l-2.1,0.6c-2.6,0.7-3.7,1.8-3.7,4.6c0,2,0.9,4.2,3.5,4.2c1.8,0,2.9-0.4,3.7-1.9h0.1
	c0.1,0.5,0.2,1.1,0.5,1.5h3.6c-0.4-0.8-0.5-1.5-0.5-2.8v-7.7c0-2.6-0.8-4.5-5.3-4.5c-2.8,0-5.1,1.1-5.1,4.5v0.3h3.4v-0.4
	c0-1.1,0.6-1.9,1.7-1.9c1.3,0,1.7,0.7,1.7,1.8C320.3,201.8,319.9,202.2,318.8,202.5z M320.3,207c0,1.6-1.3,2.3-2.3,2.3
	c-1,0-1.4-0.9-1.4-2c0-1.3,0.6-2,2.1-2.4c0.5-0.1,1.1-0.4,1.6-0.7V207z"/>
<rect x="327.3" y="192" class="st1" width="3.8" height="19.4"/>
<rect x="294.2" y="196.8" class="st1" width="3.8" height="14.6"/>
<path class="st1" d="M272.1,206.7v0.5c0,2.8,1.2,4.7,5.4,4.7c3.2,0,5.4-1.5,5.4-4.6c0-2.2-0.9-3.4-3.2-4.2l-2.3-0.8
	c-1.2-0.4-1.6-1-1.6-1.7c0-1,0.8-1.6,1.8-1.6c1.2,0,1.7,0.7,1.7,2.2h3.4v-0.6c0-2.6-1.6-4.2-5-4.2c-3.9,0-5.4,2-5.4,4.4
	c0,2.1,1,3.4,3.1,4.1l2.6,0.9c0.7,0.3,1.4,0.7,1.4,1.7c0,1.2-0.8,1.7-1.9,1.7c-1.3,0-2-0.8-2-2.1v-0.5H272.1z"/>
<path class="st1" d="M292.2,199.4v-2.6H290v-4.2h-3.8v4.2h-1.9v2.6h1.9v8.4c0,3,0.5,3.9,3.5,3.9c0.9,0,1.6-0.1,2.5-0.2v-2.6
	c-0.2,0-0.5,0.1-0.8,0.1c-1.1,0-1.3-0.5-1.3-1.6v-7.9H292.2z"/>
<polygon class="st1" points="207.7,114.2 207.7,114.2 213.1,114.1 212.9,86.8 218,114.1 218,114.1 218,114.1 219.2,114.1 
	224.7,114.1 224.5,86.7 224.3,65.2 224.3,65.2 224.3,65.2 219,65.2 219,65.2 219,65.2 219.1,81.1 219.2,92.4 216.8,79.6 214.1,65.3 
	207.4,65.3 207.7,114.2 "/>
<path class="st1" d="M91.2,80.2L91.2,80.2v1.1c0,0.8,0.1,1.6,0.3,2.4c0.3,1.1,0.7,2.3,1.4,3.5l0,0.1c0.1,0.2,0.3,0.5,0.4,0.7
	c0.7,1.2,1.5,2.4,2.4,3.7c0.3,0.4,0.7,0.9,1,1.3c0.7,1,1.3,2,1.8,2.9c1,2,1.6,3.8,1.6,5.5l0,5.5c0,0.1,0,0.3,0,0.4
	c0,0.6-0.2,1.1-0.4,1.4c-0.1,0.1-0.2,0.2-0.3,0.2c-0.2,0.1-0.4,0.2-0.7,0.2c-0.1,0-0.1,0-0.2,0c-0.2,0-0.3,0-0.4,0
	c-0.1,0-0.2,0-0.2-0.1c-0.1,0-0.1-0.1-0.2-0.1c-0.1-0.1-0.2-0.1-0.2-0.2c0,0-0.1-0.1-0.1-0.2c-0.2-0.3-0.3-0.8-0.3-1.6l0-5.6l0-2.3
	h0v-1.6l-5.9,0v0h0l0,5l0,1.4l0,0.1c0,0.3,0,0.6,0,1c0,0.1,0,0.2,0,0.4c0,0.3,0,0.6,0.1,0.9c0,0.1,0,0.1,0,0.2
	c0,0.4,0.1,0.7,0.2,1.1c0,0.2,0.1,0.5,0.1,0.7c0,0.3,0.1,0.5,0.2,0.7c0,0,0,0,0,0c0,0,0,0,0,0.1c0.1,0.2,0.1,0.4,0.2,0.7l0.1,0.2
	c0.2,0.5,0.3,0.9,0.5,1.3l0,0.1c0,0,0,0.1,0.1,0.2c0.1,0.1,0.1,0.3,0.3,0.5l0,0.1l0.1,0.1c0,0.1,0.1,0.1,0.1,0.2
	c0,0.1,0.1,0.1,0.1,0.2c0.1,0.1,0.2,0.2,0.2,0.3l0,0l0,0l0,0l0,0l0,0l0.2,0.2l0,0l0,0c0.1,0.1,0.2,0.2,0.3,0.3
	c0.1,0.1,0.2,0.2,0.3,0.2l0.1,0.1v0l0,0v0h0l0.3,0.2l0,0l0,0l0.2,0.1c0.4,0.3,0.9,0.5,1.4,0.6l0.1,0v0l0,0v0l0,0
	c0.3,0.1,0.6,0.2,0.9,0.2l0.1,0c0.1,0,0.2,0,0.3,0c0.2,0,0.3,0,0.5,0c0.1,0,0.2,0,0.3,0l0,0l0,0h0.1l0,0l0,0c0.4,0,0.7,0,1.1-0.1h0
	c0.1,0,0.2,0,0.4,0l0,0c0,0,0,0,0,0l0,0l0.2,0l0,0l0,0c0,0,0.1,0,0.2-0.1l0,0l0,0l0,0l0,0l0,0l0,0l0.2,0l0,0l0.2-0.1l0,0l0.2-0.1
	l0,0c0.1,0,0.2-0.1,0.4-0.2c0.1,0,0.2-0.1,0.3-0.1v0c0,0,0,0,0,0v0l0.1-0.1v0l0,0l0,0c0.3-0.2,0.7-0.5,1-0.7l0,0l0,0l0,0l0,0
	l0.1-0.1l0.1-0.1l0.1-0.1c0.3-0.3,0.6-0.6,0.9-1c1.2-1.9,1.7-4.6,1.7-8.2l0-3.1v0l0-1.1c0-0.3,0-0.7-0.1-1c-0.2-1.5-0.7-3.1-1.6-4.9
	l0,0l0,0c-0.6-1.2-1.4-2.4-2.3-3.7c-0.2-0.2-0.3-0.5-0.5-0.7c-0.2-0.3-0.4-0.5-0.6-0.8c-0.9-1.2-1.6-2.3-2.2-3.4
	c-0.6-1.2-1.1-2.4-1.3-3.5c-0.2-0.7-0.3-1.3-0.3-2l0-5.5c0-0.3,0-0.6,0.1-0.8c0-0.2,0.1-0.4,0.1-0.5c0.1-0.2,0.1-0.3,0.2-0.4
	c0.1-0.1,0.2-0.2,0.3-0.3c0.2-0.1,0.4-0.2,0.8-0.2c0.1,0,0.2,0,0.4,0c0.1,0,0.2,0,0.3,0.1c0.1,0,0.1,0.1,0.2,0.1
	c0,0,0.1,0.1,0.1,0.1c0,0,0.1,0.1,0.1,0.1c0.2,0.2,0.3,0.5,0.3,0.9c0,0.3,0.1,0.5,0.1,0.9l0,7.9l5.9,0l0-3.4l0-1.5l0-0.1
	c0-0.2,0-0.3,0-0.4c0-0.5,0-0.9-0.1-1.4c0-0.1,0-0.3,0-0.4c0-0.4-0.1-0.8-0.2-1.2c0-0.2-0.1-0.5-0.1-0.7c-0.1-0.5-0.2-1-0.4-1.5
	l-0.1-0.2c0,0,0,0,0,0l0,0c-0.2-0.5-0.3-0.9-0.5-1.3l0-0.1c0,0,0,0,0,0c0,0,0,0,0,0c0,0,0,0,0,0c0-0.1-0.1-0.2-0.2-0.3
	c0-0.1-0.1-0.2-0.2-0.3l0-0.1l0,0l0,0c-0.1-0.1-0.1-0.1-0.2-0.2c0,0-0.1-0.1-0.1-0.1c-0.1-0.1-0.1-0.2-0.2-0.3l0,0l0,0l0,0l0,0l0,0
	l0,0l-0.2-0.1l0,0l0,0c-0.2-0.2-0.4-0.4-0.6-0.6l-0.1,0l0,0v0l-0.3-0.2l0,0l-0.1,0L102,67c-0.4-0.3-0.9-0.5-1.4-0.6l-0.1,0l0,0l0,0
	l0,0l0,0l0,0l0,0c-0.2-0.1-0.4-0.1-0.7-0.1c-0.1,0-0.1,0-0.2,0l-0.1,0c-0.3,0-0.7-0.1-1-0.1l-0.1,0h-0.1l0,0c-0.4,0-0.7,0-1.1,0.1h0
	c-0.1,0-0.2,0-0.3,0.1l0,0c0,0,0,0,0,0l0,0l-0.2,0l0,0c0,0-0.1,0-0.2,0.1l-0.1,0l0,0l0,0l0,0l0,0l-0.2,0l0,0l0,0
	c-0.1,0-0.2,0.1-0.3,0.1v0l-0.2,0.1c0,0,0,0-0.1,0c-0.1,0-0.2,0.1-0.3,0.1c-0.1,0-0.2,0.1-0.3,0.1c0,0,0,0,0,0v0c0,0,0,0,0,0v0
	l-0.1,0.1l0,0v0l0,0l0,0c0,0,0,0,0,0c-0.3,0.2-0.6,0.4-0.9,0.7c0,0,0,0,0,0l0-0.1l0,0l0,0l0,0l-0.1,0.1l-0.1,0.1
	c-0.3,0.3-0.5,0.5-0.7,0.8c0,0.1-0.1,0.1-0.1,0.2c-1.2,1.9-1.7,4.6-1.7,8.2l0,1L91.2,80.2z"/>
<path class="st1" d="M71.9,84.7c0,0,0,0.1,0,0.1c0.1,7.2,0.2,17.3,0.2,19.9c0,0.4,0,0.6,0,0.6v0c0,0.2,0,0.3,0,0.5
	c0,0.4,0.1,0.8,0.1,1.1c0,0.1,0,0.3,0.1,0.4c0.2,1.1,0.4,2.1,0.8,3c0.2,0.6,0.5,1.2,0.8,1.6l0,0l0,0h0l0,0.1l0,0l0.1,0.1l0,0
	c0.1,0.2,0.3,0.3,0.4,0.5l0.2,0.2l0,0v0l0,0v0c0,0,0,0,0.1,0.1c0.2,0.2,0.4,0.4,0.4,0.4c1.2,1,2.8,1.6,4.7,1.5h0
	c0.4,0,0.7,0,1.1-0.1c0.9-0.1,1.7-0.4,2.4-0.8c0.1-0.1,0.3-0.1,0.4-0.2l0.1,0l0.1-0.1c0.7-0.5,1.3-1,1.8-1.8
	c1.3-1.9,1.9-4.6,1.8-8.2v0c0,0-0.3-27.4-0.3-28.1l0,0c0-0.2,0-0.4-0.1-0.6c0-0.3-0.1-0.6-0.1-0.9c0-0.1,0-0.3-0.1-0.4
	c0-0.2-0.1-0.3-0.1-0.4c-0.3-1.7-0.8-3.1-1.5-4.2l0,0l0,0l0,0l0,0L85.3,69l0-0.1l0,0l0,0l-0.1-0.1c0,0,0,0,0,0
	c-0.1-0.2-0.3-0.3-0.4-0.5l-0.2-0.2v0l0,0v0c-0.3-0.3-0.5-0.5-0.5-0.5c-0.1-0.1-0.2-0.1-0.3-0.2c-1-0.8-2.3-1.2-3.7-1.3
	c-0.2,0-0.4,0-0.7,0h-0.1c-0.4,0-0.7,0-1.1,0.1c-0.7,0.1-1.4,0.3-2.1,0.6c-0.2,0.1-0.5,0.2-0.7,0.4l-0.1,0l-0.1,0.1
	c-0.7,0.5-1.3,1-1.7,1.8c-1.3,1.9-1.9,4.6-1.8,8.2c0,0,0,2.2,0.1,5.4C71.9,83.3,71.9,84,71.9,84.7z M77.7,73.4
	c0.1-0.3,0.1-0.5,0.2-0.7c0-0.1,0.1-0.2,0.2-0.2c0.3-0.3,0.7-0.5,1.4-0.5c0.7,0,1.1,0.2,1.4,0.5c0.3,0.3,0.5,0.9,0.5,1.7l0.2,32.7
	c0,0.7-0.1,1.2-0.3,1.5c0,0.1-0.1,0.2-0.1,0.2c-0.1,0.1-0.1,0.1-0.2,0.2c0,0,0,0,0,0c0,0,0,0,0,0c-0.3,0.2-0.6,0.3-1.1,0.3
	c-0.7,0-1.1-0.2-1.4-0.5c0,0,0,0,0,0c-0.2-0.2-0.3-0.6-0.4-1.1c0-0.2,0-0.4,0-0.6l-0.2-32.7C77.6,73.9,77.7,73.7,77.7,73.4z"/>
<path class="st1" d="M107.9,71.8L107.9,71.8l4.8,0l0.3,43h0v0l5.9,0l-0.3-43.1l2.7,0l2.1,0v0h0l0-3.5l0-2.4h0v0l-7.4,0.1
	c-0.1,0-0.1,0-0.2,0l-7.8,0L107.9,71.8L107.9,71.8z"/>
<polygon class="st1" points="197.4,114.2 197.4,114.2 203.2,114.2 202.9,65.3 202.9,65.3 202.9,65.3 197.1,65.3 197.4,114.2 "/>
<path class="st1" d="M166.8,135.8c0.1,10.7,3.1,17.1,9,19c1.4,0.5,2.9,0.7,4.6,0.7c5.3,0,9-2.5,11-7.5c0.6-1.4,1-3.1,1.4-4.9l0,0
	l0,0l0-0.3l0-0.1l0.2-1.7c0.1-1.4,0.2-2.9,0.2-4.4c0-0.3,0-0.7,0-1l0-4.6l0-6.6l-8.5,0.1v0h0l0.1,9.4l0.1,7.3c0,0.2,0,0.4,0,0.6
	c0,0.1,0,0.2,0,0.3c0,0,0,0.2,0,0.5c-0.1,0.4-0.2,0.8-0.3,1.2c-0.3,1-0.9,1.7-1.6,2.1c-0.2,0.1-0.5,0.3-0.7,0.3c0,0,0,0-0.1,0
	c-0.2,0.1-0.3,0.1-0.5,0.1c-0.1,0-0.1,0-0.2,0c-0.3,0.1-0.6,0.1-1,0.1c-2.1,0-3.4-0.8-4-2.4c-0.3-0.7-0.5-1.6-0.5-2.7l-0.2-36.3
	l-0.2-25.3c0-1.3,0.2-2.4,0.6-3.2c0.7-1.3,1.9-2,3.6-2c0.1,0,0.2,0,0.2,0c0.2,0,0.4,0,0.5,0c1.6,0.1,2.7,0.8,3.3,2
	c0.1,0.3,0.3,0.6,0.4,0.9c0.2,0.6,0.3,1.4,0.3,2.3l0.1,13.8h0v0l8.6-0.1v0h0l0-4.6l0-3.6c0-6.4-1.1-11.3-3.2-14.6
	c-2.2-3.4-5.5-5.1-9.9-5.1c-2.5,0-4.6,0.6-6.4,1.6c-4.7,2.7-7,8.8-6.9,18.3l0.2,29.7L166.8,135.8z"/>
<polygon class="st1" points="26.2,115.3 31.6,115.2 34.3,115.2 34.3,115.2 34.3,115.2 33.8,45 43,115.2 45.2,115.2 50.4,115.1 
	59,44.7 59.4,115.1 67.5,115 67.5,115 67.5,115 67.4,90.8 66.9,25.1 66.9,25.1 66.9,25.1 53.4,25.2 53.4,25.2 53.4,25.2 46.5,89.6 
	38.7,25.3 38.7,25.3 38.7,25.3 29.4,25.3 25.6,25.4 25.6,25.4 25.6,25.4 25.8,51.8 "/>
<polygon class="st1" points="242.4,114 242.4,114 242.4,114 242.3,108.1 235,108.1 234.9,92 239,92 239,88 239,86.1 234.8,86.2 
	234.8,75.7 234.7,71 242.1,70.9 242.1,70.9 242.1,70.9 242.1,69.1 242,65.1 242,65.1 242,65.1 228.8,65.2 228.8,65.2 228.8,65.2 
	229.1,114 "/>
<polygon class="st1" points="278.5,154.9 278.5,154.9 278.5,154.9 281.1,154.9 287.4,154.8 287.2,113.5 289.8,113.4 296.2,113.4 
	296.4,154.8 305.4,154.7 305.4,154.7 305.4,154.7 305.2,118.5 304.8,64.8 304.8,64.8 304.8,64.8 295.9,64.9 295.9,64.9 295.9,64.9 
	296.1,104.4 293.3,104.4 287.1,104.5 286.9,64.9 286.9,64.9 286.9,64.9 280.5,65 277.9,65 277.9,65 277.9,65 278.1,102.2 "/>
<path class="st1" d="M126.8,114.7L126.8,114.7L126.8,114.7l1.7,0l4.1,0v0h0l0-7.4l-0.1-14.6l0.4,0l1.1,0l3.2,21.9h0l0,0h5.9
	l-3.8-23.3c0.7-0.6,1.3-1.2,1.7-2c0.3-0.4,0.5-0.9,0.7-1.3l0,0l0,0c0.1-0.2,0.1-0.3,0.2-0.4c0.1-0.2,0.1-0.3,0.1-0.3
	c0.5-1.6,0.8-3.5,0.8-5.6l0-5.3c0-0.9-0.1-1.7-0.2-2.5c-0.3-2.2-0.9-4-2-5.3c-0.1-0.1-0.2-0.2-0.3-0.3c-1.4-1.6-3.5-2.4-6.1-2.4
	l-7.9,0.1v0h0l0.2,34.6L126.8,114.7z M134.4,71.6c0.5,0,0.9,0.1,1.3,0.2c0,0,0.1,0,0.2,0.1c0.1,0.1,0.3,0.2,0.6,0.4
	c0.1,0.1,0.1,0.2,0.2,0.3c0.3,0.4,0.4,1,0.4,1.7l0,6.7l0,3.1c0,0.2,0,0.3,0,0.5c0,0.3-0.1,0.5-0.1,0.7c-0.1,0.3-0.3,0.6-0.5,0.8
	c-0.1,0.1-0.3,0.2-0.5,0.3c-0.4,0.2-0.8,0.3-1.5,0.3l-1.5,0l-0.6,0l-0.1-15.2L134.4,71.6z"/>
<path class="st1" d="M247.2,152.4L247.2,152.4c0,0.1,0,0.1,0,0.2c0,0.1,0,0.1,0,0.2l0,1.2l0,1.2h0v0l7.6-0.1l5.9,0
	c3.3,0,6-1,8.1-2.8c0,0,0,0,0.1,0c0,0,0,0,0.1-0.1c0.3-0.3,0.6-0.6,0.8-0.8c0.4-0.4,0.6-0.8,0.6-0.8c2.5-3.3,3.7-8.4,3.6-15.3
	l-0.1-9.4l0-1.4c0-5.4-1-9.5-3-12.2c-0.9-1.3-2.1-2.3-3.5-3c0.2-0.1,0.5-0.3,0.7-0.4c0.4-0.2,0.7-0.5,1.1-0.8
	c-0.1,0.1-0.1,0.1-0.1,0.1c0,0,0,0,0.1-0.1c0.1-0.1,0.1-0.1,0.1-0.1c0,0,0,0,0,0c0,0,0,0,0,0c0.4-0.4,0.8-0.8,1.2-1.2
	c0.2-0.2,0.4-0.5,0.6-0.8c0.4-0.6,0.8-1.2,1.1-2l0,0l0,0c0,0,0,0,0,0l0,0c1.1-2.6,1.7-6,1.6-10.1l0-4.5l0-4.5c0-2-0.2-3.9-0.4-5.6
	c-1.2-9.4-5.6-14.1-13.3-14.1l-7.5,0l-5.9,0L247.2,152.4L247.2,152.4z M265.1,140.8c0,1.1-0.1,2.1-0.4,2.8c0,0,0,0,0,0
	c-0.1,0.2-0.2,0.5-0.3,0.7c0,0,0,0-0.1,0.1c-0.5,0.8-1.3,1.3-2.4,1.5c-0.1,0-0.2,0-0.3,0c-0.3,0-0.8,0.1-0.9,0.1l-1.9,0l-2.7,0
	l-0.2-32.4l4.5,0c3,0,4.5,1.7,4.5,5.1L265.1,140.8z M258.2,74.1l2,0c3,0,4.5,1.7,4.5,5.2l0.1,20.2c0,2.4-0.7,4-2.1,4.7
	c-0.3,0.2-0.7,0.3-1.1,0.4c-0.3,0-1,0.1-1.2,0.1l-1.9,0l-2.7,0l-0.1-15.2l-0.1-15.4L258.2,74.1z"/>
<path class="st1" d="M151.5,107.4l5.1,0l0.9,7.2l5.9,0l-6.8-48.8l-5.8,0l-6.1,48.9l5.9,0L151.5,107.4z M153.8,88.3l0.2-2.4l0.2,2.5
	l1.6,12.8l-3.6,0L153.8,88.3z"/>
<rect y="173.6" class="st1" width="331" height="2.5"/>
<path class="st1" d="M386.6,120.3c0-0.8,0.2-1.5,0.7-2c0.5-0.5,1.1-0.7,1.7-0.7h2.3c0.6,0,1.1,0,1.4,0.1c0.4,0,0.7,0.1,1.1,0.3
	c0.4,0.1,0.7,0.3,1.1,0.6c0.4,0.3,0.9,0.6,1.6,1.1l7.4,5.2h2.8v-10.7h-2.5v7.7l-6.8-4.8c-0.6-0.4-1.1-0.8-1.5-1
	c-0.5-0.3-0.9-0.5-1.4-0.7c-0.5-0.2-1-0.3-1.5-0.4c-0.6-0.1-1.3-0.1-2.1-0.1h-1.4c-1.8,0-3.2,0.5-4.1,1.5c-0.9,1-1.4,2.4-1.4,4.3
	v3.6h2.5V120.3z"/>
<path class="st1" d="M401.3,96.3h-11.6c-1.9,0-3.3,0.5-4.2,1.5c-0.9,1-1.3,2.3-1.3,3.9v0.6c0,1.6,0.4,2.9,1.3,3.9
	c0.9,1,2.3,1.5,4.2,1.5h11.6c1.9,0,3.2-0.5,4.1-1.5c0.9-1,1.4-2.3,1.4-3.9v-0.6c0-1.6-0.5-2.9-1.4-3.9
	C404.5,96.8,403.1,96.3,401.3,96.3z M389,105.1c-0.6,0-1.2-0.2-1.7-0.7c-0.5-0.5-0.7-1.1-0.7-2v-0.6c0-0.8,0.2-1.5,0.7-2
	c0.5-0.5,1.1-0.7,1.7-0.7l8.8,6H389z M404.3,102.4c0,0.8-0.2,1.5-0.7,2c-0.5,0.5-1.1,0.7-1.7,0.7l-8.7-6h8.7c0.6,0,1.2,0.2,1.7,0.7
	c0.5,0.5,0.7,1.1,0.7,2V102.4z"/>
<polygon class="st1" points="388.4,90.1 386.7,85.5 404.3,85.5 404.3,89.7 406.7,89.7 406.7,79.2 404.3,79.2 404.3,82.8 384.1,82.8 
	384.1,85.8 385.7,90.1 "/>
<polygon class="st1" points="386.6,64.7 406.7,70.6 406.7,67.7 387.3,62 384.1,62 384.1,72.6 386.6,72.6 "/>
</svg>
