<?xml version="1.0" encoding="utf-8"?>
<!-- Generator: Adobe Illustrator 19.0.0, SVG Export Plug-In . SVG Version: 6.00 Build 0)  -->
<svg version="1.1" id="Layer_1" xmlns="http://www.w3.org/2000/svg" xmlns:xlink="http://www.w3.org/1999/xlink" x="0px" y="0px"
	 width="60.9px" height="88px" viewBox="-98.9 371.9 60.9 88" style="enable-background:new -98.9 371.9 60.9 88;"
	 xml:space="preserve">
<style type="text/css">
	.st0{fill:none;}
	.st1{fill:#1ABAB3;}
	.st2{fill:#583839;}
	.st3{fill:#00AB8E;}
	.st4{fill:#3F393A;}
</style>
<g>
	<path class="st0" d="M-68.4,389.6c-7.1,0-12.8,5.7-12.8,12.8c0,0.4,0,0.9,0.1,1.3l0,0c0.4,3.4,2,6.4,4.5,8.5l0,0
		c2.2,1.9,5.1,3,8.2,3c2.4,0,4.7-0.7,6.7-1.9l0,0c3.7-2.2,6.1-6.3,6.1-10.9c0-1.9-0.4-3.7-1.2-5.4l0,0
		C-58.9,392.6-63.3,389.6-68.4,389.6z"/>
	<path class="st1" d="M-67,430.4L-67,430.4l-7,23.3l2.6,4.4c0,0.1,0.1,0.2,0.1,0.3c0.6,0.9,1.7,1.5,2.9,1.5c1.2,0,2.3-0.6,2.9-1.5
		l0.1-0.2l6.9-12L-67,430.4L-67,430.4z"/>
	<path class="st2" d="M-50.9,377.4l-5.9,19.6c0.8,1.6,1.2,3.5,1.2,5.4c0,4.6-2.5,8.7-6.1,10.9l-5.3,17.1l8.4,15.8l16.1-27.9l0.8-1.4
		c1.1-2,1.9-4.2,2.6-6.4c0.7-2.6,1.1-5.3,1.1-8.1C-37.9,392.1-43.1,382.9-50.9,377.4z"/>
	<path class="st3" d="M-76.7,412.2c-2.5-2.1-4.1-5.1-4.5-8.5l-10.9-20.6c-4.3,5.2-6.8,11.9-6.8,19.2c0,2.8,0.4,5.5,1.1,8.1
		c0.6,2.2,1.5,4.4,2.6,6.4c0.3,0.5,0.5,1,0.8,1.4l20.4,35.5l7.1-23.3L-76.7,412.2z"/>
	<path class="st4" d="M-68.4,415.2c-3.1,0-6-1.1-8.2-3l0,0l9.7,18.2l0,0l0,0l5.2-17.1l0,0C-63.7,414.5-66,415.2-68.4,415.2z"/>
	<path class="st4" d="M-81.2,403.7c0-0.4-0.1-0.9-0.1-1.3c0-7.1,5.7-12.8,12.8-12.8c5.1,0,9.6,3,11.6,7.4l0,0l5.9-19.6l0,0
		c-5-3.5-11-5.5-17.5-5.5c-9.6,0-18.1,4.4-23.7,11.3l0,0L-81.2,403.7L-81.2,403.7z"/>
</g>
</svg>
