<?xml version="1.0" encoding="utf-8"?>
<!-- Generator: Adobe Illustrator 19.0.0, SVG Export Plug-In . SVG Version: 6.00 Build 0)  -->
<svg version="1.1" id="Layer_1" xmlns="http://www.w3.org/2000/svg" xmlns:xlink="http://www.w3.org/1999/xlink" x="0px" y="0px"
	 width="102.4px" height="82.3px" viewBox="-94.3 363.3 102.4 82.3" style="enable-background:new -94.3 363.3 102.4 82.3;"
	 xml:space="preserve">
<style type="text/css">
	.st0{fill:none;}
	.st1{fill:#583839;}
	.st2{fill:#00AB8E;}
	.st3{fill:#3F393A;}
</style>
<g>
	<path class="st0" d="M-45.1,427.4c1.2,0.2,2.3,0.3,3.5,0.3c12.8,0,23.3-10.5,23.3-23.3c0-12.8-10.5-23.3-23.3-23.3
		c-9.3,0-17.3,5.5-21.1,13.4c-1.4,3-2.2,6.4-2.2,9.9C-64.9,416-56.3,425.7-45.1,427.4z M-41.6,383.8c11.3,0,20.6,9.2,20.6,20.6
		c0,11.3-9.2,20.6-20.6,20.6c-1.8,0-3.5-0.3-5.2-0.7c-8.8-2.3-15.3-10.3-15.3-19.9c0-2.4,0.4-4.7,1.2-6.8
		C-58.2,389.6-50.5,383.8-41.6,383.8z"/>
	<path class="st1" d="M-9.6,404.4c0-3.6-0.6-7-1.7-10.2L-22,429.7C-14.5,423.9-9.6,414.7-9.6,404.4z"/>
	<path class="st2" d="M-64.9,404.4c0-3.6,0.8-6.9,2.2-9.9l-4.7-8.9c-3.9,5.3-6.2,11.8-6.2,18.9c0,17.7,14.3,32,32,32
		c0.4,0,0.8,0,1.2,0l-4.7-8.9C-56.3,425.7-64.9,416-64.9,404.4z"/>
	<path class="st3" d="M-41.6,372.4c-10.6,0-20,5.2-25.8,13.1l4.7,8.9c3.7-7.9,11.8-13.4,21.1-13.4c12.8,0,23.3,10.5,23.3,23.3
		c0,12.8-10.5,23.3-23.3,23.3c-1.2,0-2.4-0.1-3.5-0.3l4.7,8.9c6.9-0.3,13.2-2.7,18.3-6.6l10.8-35.4
		C-15.5,381.5-27.5,372.4-41.6,372.4z"/>
	<path class="st2" d="M-62.1,404.4c0,9.5,6.5,17.5,15.3,19.9L-61,397.6C-61.7,399.7-62.1,402-62.1,404.4z"/>
	<path class="st3" d="M-46.8,424.3c1.7,0.4,3.4,0.7,5.2,0.7c11.3,0,20.6-9.2,20.6-20.6c0-11.3-9.2-20.6-20.6-20.6
		c-9,0-16.6,5.8-19.4,13.8L-46.8,424.3z"/>
	<path class="st3" d="M-4.1,382.9c-2.9,15.8,6.2,18.8,6.2,21.8c0,2.3-3.5,36.7-3.5,36.7c0,2.3,2.1,4.2,4.7,4.2s4.7-1.9,4.7-4.2
		l0.1-76.1C8.1,359.4-1.2,367.1-4.1,382.9z"/>
	<path class="st2" d="M-78.9,387.9v-23.8c0-0.5-0.5-0.8-1.1-0.8s-1.1,0.4-1.1,0.8v18.4c0,0.5-0.5,0.8-1.1,0.8l0,0
		c-0.6,0-1.1-0.4-1.1-0.8v-18.4c0-0.5-0.5-0.8-1.1-0.8s-1.1,0.4-1.1,0.8v18.4c0,0.5-0.5,0.8-1.1,0.8l0,0c-0.6,0-1.1-0.4-1.1-0.8
		v-18.4c0-0.5-0.5-0.8-1.1-0.8s-1.1,0.4-1.1,0.8v18.4c0,0.5-0.5,0.8-1.1,0.8l0,0c-0.6,0-1.1-0.4-1.1-0.8v-18.4
		c0-0.5-0.5-0.8-1.1-0.8s-1.1,0.4-1.1,0.8v23.8c0.2,3.4,4.9,4.3,4.9,7.9v2.8c0,4.2-2,40.7-2,42.7c0,2.3,2.1,4.2,4.7,4.2
		s4.7-1.9,4.7-4.2c0-2.1-2.1-38.5-2.1-42.7v-2.8C-83.8,392.2-79.1,391.3-78.9,387.9z"/>
</g>
</svg>
