<?xml version="1.0" encoding="utf-8"?>
<!-- Generator: Adobe Illustrator 19.0.0, SVG Export Plug-In . SVG Version: 6.00 Build 0)  -->
<svg version="1.1" id="Layer_1" xmlns="http://www.w3.org/2000/svg" xmlns:xlink="http://www.w3.org/1999/xlink" x="0px" y="0px"
	 viewBox="0 0 338.8 361.7" style="enable-background:new 0 0 338.8 361.7;" xml:space="preserve">
<style type="text/css">
	.st0{fill:none;}
	.st1{fill:#D93932;}
	.st2{fill:#FFFFFF;}
	.st3{fill:#1CBAB3;}
</style>
<g>
	<path class="st0" d="M204.2,326.3c-0.6,0-0.9,0.4-0.9,1.2l0.7,10.1c0.1,0.8,0.4,1.1,1,1.1c0.6,0,0.9-0.5,0.9-1.2l-0.7-10.1
		C205.2,326.7,204.9,326.3,204.2,326.3z"/>
	<path class="st0" d="M207.8,351c-0.1,1.3-0.2,2.5-0.2,3.8l1.9-0.1c-0.2-1.3-0.5-2.5-0.7-3.8c-0.2-1.2-0.5-2.5-0.7-3.8
		C207.9,348.5,207.8,349.8,207.8,351z"/>
	<path class="st0" d="M176,347.2c-0.6,0-0.9,0.4-0.9,1.2l0.7,10.1c0.1,0.8,0.4,1.1,1,1.1c0.6,0,0.9-0.5,0.9-1.2l-0.7-10.1
		C177,347.5,176.7,347.1,176,347.2z"/>
	<path class="st0" d="M235.9,80.3c0.1,1,0.9,1.7,1.7,1.7l0,0c0.1,0,0.1,0,0.2,0c0.9-0.1,1.6-0.9,1.5-1.9c-0.1-1-0.9-1.7-1.7-1.7
		c-0.1,0-0.1,0-0.2,0l-0.1-1l0.1,1C236.5,78.4,235.8,79.3,235.9,80.3z"/>
	<path class="st0" d="M219,350.3c-0.1,1.3-0.2,2.5-0.2,3.8l1.9-0.1c-0.2-1.3-0.5-2.5-0.7-3.8c-0.2-1.2-0.5-2.5-0.7-3.8
		C219.2,347.7,219.1,349,219,350.3z"/>
	<path class="st0" d="M188.6,346.8c-0.2-0.2-0.5-0.3-1-0.3l-0.9,0.1l0.4,5.5l0.9-0.1c0.4,0,0.7-0.1,0.9-0.4c0.2-0.2,0.2-0.5,0.2-0.9
		l-0.2-2.8C188.9,347.4,188.8,347,188.6,346.8z"/>
	<path class="st0" d="M226.4,331.4l0.4,5.6l1-0.1c0.6,0,0.9-0.5,0.9-1.2l-0.2-3.3c0-0.4-0.1-0.7-0.3-0.9c-0.1-0.2-0.4-0.3-0.8-0.2
		L226.4,331.4z"/>
	<path class="st0" d="M182.1,339.2l-0.7-10.1c-0.1-0.8-0.4-1.1-1.1-1.1c-0.7,0-1,0.5-0.9,1.2l0.7,10.1c0.1,0.8,0.4,1.1,1.1,1.1
		C181.8,340.4,182.1,340,182.1,339.2z"/>
	<path class="st0" d="M236.1,84.5c0.1,1,0.9,1.7,1.7,1.7l0,0.6c-0.9,0.1-1.6,0.9-1.5,1.9c0.1,1,0.9,1.7,1.7,1.7l0,0.3l0-0.3
		c0.1,0,0.1,0,0.2,0c0.9-0.1,1.6-0.9,1.5-1.9c-0.1-1-0.9-1.7-1.8-1.7c-0.1,0-0.1,0-0.2,0l0-0.6c0.1,0,0.1,0,0.2,0
		c0.9-0.1,1.6-0.9,1.5-1.9c-0.1-1-0.9-1.7-1.8-1.7c-0.1,0-0.1,0-0.2,0l0-0.3l0,0.3C236.7,82.6,236.1,83.5,236.1,84.5z"/>
	<path class="st0" d="M262.8,347.2c-0.1,1.3-0.2,2.5-0.2,3.8l1.9-0.1c-0.2-1.3-0.5-2.5-0.7-3.8c-0.2-1.2-0.5-2.5-0.7-3.8
		C262.9,344.7,262.8,345.9,262.8,347.2z"/>
	<path class="st0" d="M227.3,330.2c0.3,0,0.5-0.1,0.7-0.3c0.1-0.2,0.2-0.4,0.2-0.8l-0.2-3.1c0-0.4-0.1-0.7-0.3-0.9
		c-0.2-0.2-0.4-0.2-0.7-0.2l-1,0.1l0.4,5.2L227.3,330.2z"/>
	<path class="st0" d="M236.7,92.8c0.1,1,0.8,1.7,1.7,1.7l0,0.6c-0.9,0.1-1.6,0.9-1.5,1.9c0.1,1,0.9,1.7,1.7,1.7l0,0
		c0.1,0,0.1,0,0.2,0c0.9-0.1,1.6-0.9,1.5-1.9c-0.1-1-0.9-1.7-1.7-1.7c-0.1,0-0.1,0-0.2,0l0-0.6c0.1,0,0.1,0,0.2,0
		c0.9-0.1,1.6-0.9,1.5-1.9c-0.1-1-0.9-1.7-1.8-1.7c-0.1,0-0.1,0-0.2,0l0,0C237.3,91,236.7,91.8,236.7,92.8z"/>
	<path class="st0" d="M171.3,348c-0.2-0.2-0.5-0.3-1-0.3l-0.9,0.1l0.4,5.5l0.9-0.1c0.4,0,0.7-0.1,0.9-0.4c0.2-0.2,0.2-0.5,0.2-0.9
		l-0.2-2.8C171.6,348.6,171.5,348.2,171.3,348z"/>
	<path class="st0" d="M263,333.5l-0.3-4.3c0-0.5-0.1-0.8-0.3-1c-0.2-0.2-0.4-0.3-0.8-0.3c-0.3,0-0.5,0.1-0.7,0.3
		c-0.2,0.2-0.2,0.4-0.2,0.7l0.3,4.4c0,0.5,0.1,0.8,0.3,1.1c0.1,0.3,0.4,0.4,0.8,0.3c0.3,0,0.6-0.1,0.7-0.4
		C263,334.2,263,333.9,263,333.5z"/>
	<path class="st0" d="M252.2,323c-0.7,0-1,0.5-0.9,1.2l0.7,10.1c0.1,0.8,0.4,1.1,1.1,1.1c0.7,0,1-0.5,1-1.2l-0.7-10.1
		C253.3,323.3,252.9,322.9,252.2,323z"/>
	<path class="st0" d="M234.2,343.6c-0.2-0.2-0.5-0.3-1-0.3l-0.9,0.1l0.4,5.5l0.9-0.1c0.4,0,0.7-0.1,0.9-0.4c0.2-0.2,0.2-0.5,0.2-0.9
		l-0.2-2.8C234.5,344.2,234.4,343.8,234.2,343.6z"/>
	<path class="st0" d="M239.2,348.8c-0.1,1.3-0.2,2.5-0.2,3.8l1.9-0.1c-0.2-1.3-0.5-2.5-0.7-3.8c-0.2-1.2-0.5-2.5-0.7-3.8
		C239.4,346.3,239.3,347.6,239.2,348.8z"/>
	<path class="st0" d="M193.6,352c-0.1,1.3-0.1,2.5-0.2,3.8l1.9-0.1c-0.2-1.3-0.5-2.5-0.7-3.8c-0.2-1.2-0.5-2.5-0.7-3.8
		C193.8,349.5,193.7,350.8,193.6,352z"/>
	<path class="st0" d="M218,170.7c-0.1-2-1.1-3-2.9-3l-2.8,0.2l1.4,19.7l2.7-0.2c1.8-0.1,2.7-1.2,2.5-3.3L218,170.7z"/>
	<path class="st0" d="M239.3,336.3c0.6,0,0.9-0.5,0.9-1.2l-0.7-10.1c-0.1-0.8-0.4-1.1-1.1-1.1c-0.6,0-0.9,0.4-0.9,1.2l0.7,10.1
		C238.3,336,238.6,336.4,239.3,336.3z"/>
	<path class="st0" d="M233.9,329.6c0.2-0.2,0.2-0.5,0.2-0.9l-0.2-2.8c0-0.5-0.1-0.9-0.3-1.1c-0.2-0.2-0.5-0.3-1-0.3l-0.9,0.1
		l0.4,5.5l0.9-0.1C233.5,330,233.8,329.8,233.9,329.6z"/>
	<path class="st0" d="M217.2,159l-0.9-12.3c-0.1-2.1-1.1-3.1-3-2.9l-2.7,0.2l1.3,18.6l2.8-0.2C216.5,162.2,217.4,161.1,217.2,159z"
		/>
	<path class="st0" d="M165.5,348.4c-0.2-0.2-0.5-0.3-0.9-0.3l-0.9,0.1l0.4,5.1l1-0.1c0.4,0,0.7-0.2,0.9-0.4c0.2-0.2,0.3-0.6,0.2-1
		l-0.2-2.5C165.8,348.9,165.7,348.6,165.5,348.4z"/>
	<path class="st0" d="M83.9,171.9c0.5,7.8,4.8,11.4,12.6,10.8c7.9-0.6,11.6-4.7,11-12.5l-9.7-139c-0.5-7.8-4.8-11.4-12.6-10.8
		c-7.9,0.6-11.6,4.7-11,12.5L83.9,171.9z"/>
	<polygon class="st0" points="147.4,222 147.3,231.3 146.5,246.2 151.7,245.9 148.9,231.3 	"/>
	<polygon class="st0" points="235.6,277.8 235.5,287.1 234.7,302 239.9,301.6 237.1,287 	"/>
	<path class="st0" d="M109.5,218.6c-0.2-2.4-1.4-3.5-3.7-3.3l-2.8,0.2l1.2,17.8l2.9-0.2c2.3-0.2,3.3-1.4,3.2-3.8L109.5,218.6z"/>
	<polygon class="st0" points="232.9,225.4 231.4,216.2 231.2,225.5 230.4,240.4 235.7,240 	"/>
	<path class="st0" d="M189.7,248.5c0.1,2,1.1,2.9,2.8,2.8c1.7-0.1,2.5-1.2,2.4-3.2l-2.5-35.9c-0.1-2-1.1-2.9-2.8-2.8
		c-1.7,0.1-2.5,1.2-2.4,3.2L189.7,248.5z"/>
	<path class="st1" d="M281.7,88.2c0-0.3-0.2-0.6-0.6-0.5l-0.7,0.1l0.1,1.2l0.7-0.1C281.5,88.9,281.7,88.5,281.7,88.2z"/>
	<path class="st1" d="M277.5,89.2l-0.6,0l0.1,1.6l0.8-0.1c0.6,0,0.8-0.5,0.8-0.8C278.5,89.3,278.1,89.2,277.5,89.2z"/>
	<path class="st1" d="M284.2,93.4c-0.1,0-0.3,0.1-0.2,0.5l0.5,0C284.5,93.4,284.4,93.4,284.2,93.4z"/>
	<polygon class="st1" points="284,87.5 283.5,89.6 284.8,89.5 284,87.5 	"/>
	<path class="st1" d="M287.8,94c0,0.1,0.1,0.3,0.2,0.2c0.1,0,0.3-0.1,0.3-0.6C288.1,93.7,287.8,93.7,287.8,94z"/>
	<path class="st1" d="M248.8,73l2.6,37.7l75.9-5.3l-2.6-37.7L248.8,73z M321.1,84.4l0.3,3.8l-0.5,0l-0.3-3.8L321.1,84.4z
		 M290.9,86.6l0.2,3.4l1.4-0.1l0,0.4l-1.9,0.1l-0.3-3.8L290.9,86.6z M289.5,86.6l0.3,3.8l-0.5,0l-0.3-3.8L289.5,86.6z M278.1,100
		l-13.5-6.6l3.7,5.5l-1,0.7l-3.7-5.5l0.5,6.7l-1.2,0.1l-0.5-6.7l-2.9,6l-1.1-0.5l2.9-6l-5.5,3.7l-0.7-1l5.5-3.7l-6.7,0.5l-0.1-1.2
		l6.7-0.5l-6-2.9l0.5-1.1l6,2.9l-3.7-5.5l1-0.7l3.7,5.5l-0.5-6.7l1.2-0.1l0.5,6.7l2.9-6l1.1,0.5l-2.9,6l13-8.8l0.7,1l-13,8.8
		l6.7-0.5l0.1,1.2l-6.7,0.5l13.5,6.6L278.1,100z M276.5,93.4l0-0.2l1.2-0.1l0,0.2c-0.1,0.2-0.2,0.4-0.4,0.7
		c-0.1,0.3-0.2,0.7-0.2,1.1l-0.3,0c0-0.3,0.1-0.6,0.2-0.9c0.1-0.3,0.2-0.6,0.4-0.9L276.5,93.4z M277.9,93l0.1,0l0,0.3l0.2,0l0,0.1
		l-0.2,0l0,0.6c0,0.1,0,0.1,0.1,0.1c0,0,0,0,0.1,0l0,0.1c0,0-0.1,0-0.1,0c-0.1,0-0.2,0-0.2-0.2l0-0.6l-0.1,0l0-0.1l0.1,0L277.9,93z
		 M278.9,94.1l0-0.6c0-0.1,0-0.2-0.1-0.2c-0.1,0-0.2,0.1-0.2,0.2l0,0.6l-0.1,0l-0.1-1.2l0.1,0l0,0.4l0,0c0-0.1,0.1-0.1,0.2-0.1
		c0.2,0,0.2,0.2,0.3,0.3l0,0.6L278.9,94.1z M277.9,91.3l-1.4,0.1l-0.3-4.5l1.5-0.1c0.6,0,0.8,0.2,1,0.4c0.2,0.2,0.2,0.5,0.2,0.6
		c0,0.6-0.1,0.9-0.7,1.1l0,0c0.6,0,0.9,0.4,1,1C279.2,91.1,278.4,91.3,277.9,91.3z M280.1,91.1l-0.3-3.8l1.3-0.1
		c0.7,0,0.9,0.4,1,0.9c0,0.5-0.2,0.8-0.6,0.9l0,0c0.4,0,0.6,0.2,0.7,0.9c0,0.2,0.1,0.8,0.2,1l-0.5,0c-0.2-0.3-0.2-0.8-0.2-1.3
		c-0.1-0.5-0.4-0.5-0.6-0.4l-0.6,0l0.1,1.8L280.1,91.1z M280.8,94.9l-0.1-2l0.3,0l0.1,2L280.8,94.9z M282.3,94.8l-0.1-1
		c0-0.1-0.1-0.3-0.3-0.3c-0.2,0-0.3,0.2-0.3,0.4l0.1,0.8l-0.2,0l-0.1-1.1c0-0.1,0-0.2,0-0.3l0.2,0l0,0.2l0,0
		c0.1-0.2,0.2-0.2,0.4-0.2c0.3,0,0.4,0.2,0.4,0.4l0.1,1L282.3,94.8z M283.3,94.7c-0.2,0-0.3-0.1-0.3-0.2l-0.1-1l-0.2,0l0-0.2l0.2,0
		l0-0.3l0.2-0.1l0,0.4l0.3,0l0,0.2l-0.3,0l0.1,0.9c0,0.1,0,0.2,0.2,0.2c0,0,0.1,0,0.1,0l0,0.2C283.5,94.7,283.4,94.7,283.3,94.7z
		 M284.3,94.7c-0.3,0-0.5-0.1-0.6-0.7c0-0.4,0-0.8,0.5-0.8c0.4,0,0.5,0.2,0.5,0.6l0,0.1L284,94c0,0.4,0.1,0.5,0.3,0.4
		c0.2,0,0.2-0.1,0.2-0.3l0.3,0C284.8,94.5,284.6,94.7,284.3,94.7z M283.4,90l-0.2,0.9l-0.5,0l0.9-3.9l0.6,0l1.5,3.7l-0.5,0l-0.3-0.9
		L283.4,90z M285.8,93.3C285.7,93.3,285.7,93.3,285.8,93.3c-0.3,0-0.4,0.2-0.4,0.4l0.1,0.8l-0.2,0l-0.1-1.4l0.2,0l0,0.2l0,0
		c0.1-0.2,0.2-0.3,0.4-0.3L285.8,93.3C285.8,93.3,285.8,93.3,285.8,93.3z M287,94.5l-0.1-1c0-0.2-0.1-0.3-0.3-0.3
		c-0.2,0-0.3,0.2-0.3,0.4l0.1,0.8l-0.2,0l-0.1-1.1c0-0.1,0-0.2,0-0.3l0.2,0l0,0.2l0,0c0.1-0.2,0.2-0.2,0.4-0.2
		c0.3,0,0.4,0.2,0.4,0.4l0.1,1L287,94.5z M286.1,89.6l0.5,0l0,0.1c0,0.5,0.4,0.7,0.7,0.6c0.4,0,0.7-0.2,0.6-0.7
		c-0.1-0.8-1.8-0.6-1.8-1.8c0-0.7,0.4-1.1,1.1-1.1c0.7,0,1.1,0.3,1.1,1l-0.5,0c0-0.4-0.2-0.7-0.6-0.7c-0.3,0-0.6,0.2-0.5,0.6
		c0.1,0.8,1.8,0.6,1.8,1.8c0.1,0.8-0.5,1.1-1.1,1.1C286.2,90.8,286.1,89.9,286.1,89.6z M288.3,94.4l0-0.2h0
		c-0.1,0.2-0.2,0.2-0.3,0.3c-0.3,0-0.4-0.2-0.4-0.4c0-0.4,0.4-0.5,0.7-0.5c0-0.2,0-0.4-0.3-0.4c-0.2,0-0.2,0.1-0.2,0.3l-0.2,0
		c0-0.3,0.1-0.4,0.4-0.5c0.4,0,0.5,0.2,0.5,0.4l0,0.7c0,0.1,0,0.2,0.1,0.3L288.3,94.4z M289.4,94.3c-0.2,0-0.3-0.1-0.3-0.2l-0.1-1
		l-0.2,0l0-0.2l0.2,0l0-0.3l0.2-0.1l0,0.4l0.3,0l0,0.2l-0.3,0l0.1,0.9c0,0.1,0,0.2,0.2,0.2c0,0,0.1,0,0.1,0l0,0.2
		C289.5,94.3,289.5,94.3,289.4,94.3z M289.7,92.3l0.3,0l0,0.2l-0.3,0L289.7,92.3z M289.8,94.3l-0.1-1.4l0.2,0l0.1,1.4L289.8,94.3z
		 M291,94.2c-0.3,0-0.5-0.1-0.6-0.7c0-0.4,0-0.8,0.5-0.8c0.5,0,0.6,0.3,0.6,0.7C291.5,94.1,291.3,94.2,291,94.2z M292.7,94.1l-0.1-1
		c0-0.1-0.1-0.3-0.3-0.3c-0.3,0-0.3,0.2-0.3,0.4l0.1,0.8l-0.2,0l-0.1-1.1c0-0.1,0-0.2,0-0.3l0.2,0l0,0.2l0,0
		c0.1-0.2,0.2-0.2,0.4-0.2c0.3,0,0.4,0.2,0.4,0.4l0.1,1L292.7,94.1z M294.1,94l0-0.2h0c-0.1,0.2-0.2,0.2-0.3,0.3
		c-0.3,0-0.4-0.2-0.4-0.4c0-0.4,0.4-0.5,0.7-0.5c0-0.2,0-0.4-0.3-0.4c-0.2,0-0.2,0.1-0.2,0.3l-0.2,0c0-0.3,0.1-0.4,0.4-0.5
		c0.4,0,0.5,0.2,0.5,0.4l0,0.7c0,0.1,0,0.2,0.1,0.3L294.1,94z M294.8,93.9l-0.1-2l0.2,0l0.1,2L294.8,93.9z M294.3,88.5l-0.1-1.3
		c-0.1-1.3,0.4-1.7,1.3-1.7c0.9-0.1,1.3,0.4,1.3,1.2l-0.6,0c0-0.3,0-0.5-0.2-0.6c-0.1-0.1-0.4-0.2-0.5-0.2c-0.5,0-0.6,0.3-0.7,0.4
		c0,0.1-0.1,0.2-0.1,0.9l0.1,1.2c0.1,1.1,0.4,1.2,0.9,1.2c0.2,0,0.7-0.1,0.6-1l0.6,0c0.1,1.4-0.9,1.5-1.2,1.5
		C295.3,90.2,294.5,90.2,294.3,88.5z M297,93.8c-0.2,0-0.6,0-0.7-0.8l0-0.6c0-0.6,0.2-0.7,0.6-0.8c0.4,0,0.6,0.2,0.6,0.6l-0.3,0
		c0-0.1,0-0.2-0.1-0.3c-0.1-0.1-0.2-0.1-0.2-0.1c-0.2,0-0.3,0.1-0.3,0.2c0,0-0.1,0.1,0,0.4l0,0.5c0,0.5,0.2,0.5,0.4,0.5
		c0.1,0,0.3,0,0.3-0.4l0.3,0C297.5,93.8,297.1,93.8,297,93.8z M298.2,86l0.3,3.8l-0.5,0l-0.3-3.8L298.2,86z M298.4,93.7
		c-0.3,0-0.5-0.1-0.6-0.7c0-0.4,0-0.8,0.5-0.8c0.5,0,0.6,0.3,0.6,0.7C298.9,93.6,298.7,93.7,298.4,93.7z M299.9,93.6
		c-0.1,0-0.2,0-0.3-0.1h0l0,0.7l-0.2,0l-0.1-1.9l0.2,0l0,0.2h0c0.1-0.1,0.2-0.2,0.3-0.2c0.2,0,0.5,0.1,0.5,0.7
		C300.3,93.2,300.3,93.6,299.9,93.6z M301.3,92.3C301.2,92.3,301.2,92.3,301.3,92.3c-0.3,0-0.4,0.2-0.4,0.4l0.1,0.8l-0.2,0l-0.1-1.4
		l0.2,0l0,0.2l0,0c0.1-0.2,0.2-0.3,0.4-0.3L301.3,92.3C301.3,92.3,301.3,92.3,301.3,92.3z M299.6,86.5L299.6,86.5l0.2,3.3l-0.4,0
		l-0.3-3.8l0.7,0l1.7,3.2l0,0l-0.2-3.3l0.4,0l0.3,3.8l-0.7,0L299.6,86.5z M302.2,93.4c-0.3,0-0.5-0.1-0.6-0.7c0-0.4,0-0.8,0.5-0.8
		c0.5,0,0.6,0.3,0.6,0.7C302.7,93.3,302.5,93.4,302.2,93.4z M302.6,85.7l2-0.1l0,0.4l-1.5,0.1l0.1,1.2l1.4-0.1l0,0.4l-1.4,0.1
		l0.1,1.3l1.5-0.1l0,0.4l-2,0.1L302.6,85.7z M303.9,93.3l0-0.2h0c-0.1,0.1-0.2,0.2-0.3,0.2c-0.2,0-0.5-0.1-0.5-0.7
		c0-0.3,0-0.8,0.4-0.8c0.1,0,0.2,0,0.3,0.1l0,0l-0.1-0.7l0.2,0l0.1,2L303.9,93.3z M305.3,93.2l0-0.2l0,0c-0.1,0.1-0.2,0.2-0.3,0.2
		c-0.2,0-0.4-0.1-0.4-0.3l-0.1-1.1l0.2,0l0.1,1c0,0.2,0.1,0.3,0.3,0.3c0.1,0,0.3-0.1,0.3-0.3l-0.1-0.9l0.2,0l0.1,1.1
		c0,0.1,0,0.2,0,0.3L305.3,93.2z M306.5,93.1c-0.3,0-0.5-0.1-0.6-0.7c0-0.4,0-0.8,0.5-0.8c0.3,0,0.5,0.1,0.5,0.4l-0.2,0
		c0-0.2-0.1-0.3-0.2-0.3c-0.2,0-0.3,0.1-0.3,0.5c0,0.5,0.1,0.6,0.3,0.6c0.1,0,0.2-0.1,0.2-0.3l0.2,0C307,93,306.7,93.1,306.5,93.1z
		 M307.7,93c-0.2,0-0.3-0.1-0.3-0.2l-0.1-1l-0.2,0l0-0.2l0.2,0l0-0.3l0.2-0.1l0,0.4l0.3,0l0,0.2l-0.3,0l0.1,0.9c0,0.1,0,0.2,0.2,0.2
		c0,0,0.1,0,0.1,0l0,0.2C307.9,93,307.8,93,307.7,93z M308,91l0.3,0l0,0.2l-0.3,0L308,91z M308.2,93l-0.1-1.4l0.2,0l0.1,1.4
		L308.2,93z M309.3,92.9c-0.3,0-0.5-0.1-0.6-0.7c0-0.4,0-0.8,0.5-0.8c0.5,0,0.6,0.3,0.6,0.7C309.9,92.8,309.6,92.9,309.3,92.9z
		 M309.3,89.1l-0.3-4l0,0l-1,4.1l-0.5,0l-1.5-3.9l0,0l0.3,4l-0.5,0l-0.3-4.5l0.9-0.1l1.4,3.7l0,0l0.9-3.8l0.9-0.1l0.3,4.5
		L309.3,89.1z M311,92.8l-0.1-1c0-0.2-0.1-0.3-0.3-0.3c-0.3,0-0.3,0.2-0.3,0.4l0.1,0.8l-0.2,0l-0.1-1.1c0-0.1,0-0.2,0-0.3l0.2,0
		l0,0.2l0,0c0.1-0.2,0.2-0.2,0.4-0.2c0.3,0,0.4,0.2,0.4,0.4l0.1,1L311,92.8z M310.7,87.6l-0.2-2.4l0.5,0l0.2,2.4
		c0.1,0.8,0.3,1,0.8,1c0.5,0,0.7-0.3,0.6-1.1l-0.2-2.4l0.5,0l0.2,2.4c0.1,1.1-0.3,1.5-1.1,1.6C311.2,89.1,310.8,88.7,310.7,87.6z
		 M314.2,92.6l-0.1-1.8l0,0l-0.4,1.8l-0.2,0l-0.7-1.7l0,0l0.1,1.8l-0.2,0l-0.1-2l0.4,0l0.6,1.6l0,0l0.4-1.7l0.4,0l0.1,2L314.2,92.6z
		 M315.4,92.5c-0.3,0-0.5-0.1-0.6-0.7c0-0.4,0-0.8,0.5-0.8c0.4,0,0.5,0.2,0.5,0.6l0,0.1l-0.8,0.1c0,0.4,0.1,0.5,0.3,0.4
		c0.2,0,0.2-0.1,0.2-0.3l0.3,0C315.9,92.3,315.7,92.5,315.4,92.5z M314.3,85.4L314.3,85.4l0.2,3.3l-0.4,0l-0.3-3.8l0.7,0l1.7,3.2
		l0,0l-0.2-3.3l0.4,0l0.3,3.8l-0.7,0L314.3,85.4z M316.9,92.4c-0.3,0-0.5-0.1-0.6-0.7c0-0.4,0-0.8,0.5-0.8c0.4,0,0.5,0.2,0.5,0.6
		l0,0.1l-0.8,0.1c0,0.4,0.1,0.5,0.3,0.4c0.2,0,0.2-0.1,0.2-0.3l0.3,0C317.3,92.2,317.2,92.4,316.9,92.4z M318.5,84.6
		c0.5,0,0.8,0.1,1.1,0.5c0.2,0.3,0.2,1.1,0.3,1.2c0.1,0.8,0,1.3-0.1,1.6c-0.2,0.3-0.6,0.5-1.2,0.6l-0.9,0.1l-0.3-3.8L318.5,84.6z
		 M318.1,92.3c-0.2,0-0.3-0.1-0.3-0.2l-0.1-1l-0.2,0l0-0.2l0.2,0l0-0.3l0.2-0.1l0,0.4l0.3,0l0,0.2l-0.3,0l0.1,0.9
		c0,0.1,0,0.2,0.2,0.2c0,0,0.1,0,0.1,0l0,0.2C318.3,92.3,318.2,92.3,318.1,92.3z M318.4,90.3l0.3,0l0,0.2l-0.3,0L318.4,90.3z
		 M318.6,92.3l-0.1-1.4l0.2,0l0.1,1.4L318.6,92.3z M320,92.2l-0.1-1c0-0.1-0.1-0.3-0.3-0.3c-0.3,0-0.3,0.2-0.3,0.4l0.1,0.8l-0.2,0
		l-0.1-1.1c0-0.1,0-0.2,0-0.3l0.2,0l0,0.2l0,0c0.1-0.2,0.2-0.2,0.4-0.2c0.3,0,0.4,0.2,0.4,0.4l0.1,1L320,92.2z M321.2,92.6
		c-0.2,0-0.5-0.1-0.4-0.3l0.3,0c0,0.1,0.1,0.2,0.2,0.2c0.2,0,0.2-0.1,0.2-0.3l0-0.3l0,0c0,0.1-0.2,0.2-0.3,0.2
		c-0.4,0-0.5-0.3-0.5-0.7c0-0.6,0.3-0.7,0.4-0.7c0.1,0,0.3,0,0.3,0.2l0,0l0-0.2l0.2,0l0.1,1.5C321.7,92.5,321.5,92.6,321.2,92.6z"/>
	<path class="st1" d="M318.6,88c0.7,0,0.9-0.3,0.8-1.2l-0.1-0.8c-0.1-0.8-0.3-1-0.8-1l-0.6,0l0.2,3L318.6,88z"/>
	<path class="st1" d="M315.3,91.2c-0.1,0-0.3,0.1-0.2,0.5l0.5,0C315.6,91.3,315.5,91.2,315.3,91.2z"/>
	<path class="st1" d="M316.8,91.1c-0.1,0-0.3,0.1-0.2,0.5l0.5,0C317,91.2,316.9,91.1,316.8,91.1z"/>
	<path class="st1" d="M302.1,92.2c-0.2,0-0.3,0.1-0.3,0.5c0,0.5,0.1,0.6,0.3,0.6c0.2,0,0.3-0.2,0.3-0.6
		C302.4,92.2,302.3,92.1,302.1,92.2z"/>
	<path class="st1" d="M303.5,92.1c-0.2,0-0.3,0.2-0.2,0.6c0,0.2,0,0.5,0.3,0.5c0.3,0,0.2-0.3,0.2-0.6
		C303.8,92.3,303.8,92,303.5,92.1z"/>
	<path class="st1" d="M321.1,90.8c-0.3,0-0.2,0.3-0.2,0.5c0,0.5,0.1,0.5,0.3,0.5c0.3,0,0.2-0.3,0.2-0.5
		C321.3,91.1,321.3,90.8,321.1,90.8z"/>
	<path class="st1" d="M338.8,100.1c-0.9,0.1-1.7-0.7-1.7-1.7c-0.1-1,0.6-1.8,1.5-1.9l0-0.6c-0.9,0.1-1.7-0.7-1.7-1.7
		c-0.1-1,0.6-1.8,1.5-1.9l0-0.6c-0.9,0.1-1.7-0.7-1.7-1.7c-0.1-1,0.6-1.8,1.5-1.9l0-0.6c-0.9,0.1-1.7-0.7-1.7-1.7
		c-0.1-1,0.6-1.8,1.5-1.9l0-0.6c-0.9,0.1-1.7-0.7-1.7-1.7c-0.1-1,0.6-1.8,1.5-1.9l0-0.6c-0.9,0.1-1.7-0.7-1.7-1.7
		c-0.1-1,0.6-1.8,1.5-1.9l0-0.6c-0.9,0.1-1.7-0.7-1.7-1.7c-0.1-1,0.6-1.8,1.5-1.9l-0.1-1c-4.7-0.2-8.6-4.1-9.3-9.2l-82.2,5.8
		c0,5.2-3.3,9.6-7.9,10.4l0.1,1c0.1,0,0.1,0,0.2,0c0.9-0.1,1.7,0.7,1.7,1.7c0.1,1-0.6,1.8-1.5,1.9c-0.1,0-0.1,0-0.2,0l0,0
		c0,0,0,0,0,0l0,0.3l0,0.3c0.1,0,0.1,0,0.2,0c0.9-0.1,1.7,0.7,1.8,1.7c0.1,1-0.6,1.8-1.5,1.9c-0.1,0-0.1,0-0.2,0l0,0.6
		c0.1,0,0.1,0,0.2,0c0.9-0.1,1.7,0.7,1.8,1.7c0.1,1-0.6,1.8-1.5,1.9c-0.1,0-0.1,0-0.2,0l0,0.3l0,0.3c0,0,0,0,0,0l0,0
		c0.1,0,0.1,0,0.2,0c0.9-0.1,1.7,0.7,1.8,1.7c0.1,1-0.6,1.8-1.5,1.9c-0.1,0-0.1,0-0.2,0l0,0.6c0.1,0,0.1,0,0.2,0
		c0.9-0.1,1.7,0.7,1.7,1.7c0.1,1-0.6,1.8-1.5,1.9c-0.1,0-0.1,0-0.2,0l0,0c0,0,0,0,0,0l0,0.3l0,0.4c0.1,0,0.1,0,0.2,0
		c0.9-0.1,1.7,0.7,1.8,1.7c0.1,1-0.6,1.8-1.5,1.9c-0.1,0-0.1,0-0.2,0l0,0.6c0.1,0,0.1,0,0.2,0c0.9-0.1,1.7,0.7,1.7,1.7
		c0.1,1-0.6,1.8-1.5,1.9c-0.1,0-0.1,0-0.2,0l0.1,1c4.7,0.2,8.6,4.1,9.3,9.2l82.2-5.8c0-5.2,3.3-9.6,7.9-10.4L338.8,100.1z
		 M250.9,111.3l-2.7-38.8l77.1-5.4l2.7,38.8L250.9,111.3z"/>
	<path class="st1" d="M278.3,88c0-0.4-0.3-0.7-0.7-0.6l-0.8,0.1l0.1,1.4l0.8-0.1C278.1,88.7,278.3,88.4,278.3,88z"/>
	<path class="st1" d="M290.9,92.9c-0.2,0-0.3,0.1-0.3,0.5c0,0.5,0.1,0.6,0.3,0.6c0.2,0,0.3-0.2,0.3-0.6
		C291.2,93,291.1,92.9,290.9,92.9z"/>
	<path class="st1" d="M298.3,92.4c-0.2,0-0.3,0.1-0.3,0.5c0,0.5,0.1,0.6,0.3,0.6c0.2,0,0.3-0.2,0.3-0.6
		C298.6,92.5,298.5,92.4,298.3,92.4z"/>
	<path class="st1" d="M293.5,93.6c0,0.1,0.1,0.3,0.2,0.2c0.1,0,0.3-0.1,0.3-0.6C293.8,93.3,293.5,93.3,293.5,93.6z"/>
	<path class="st1" d="M309.3,91.7c-0.2,0-0.3,0.1-0.3,0.5c0,0.5,0.1,0.6,0.3,0.6c0.2,0,0.3-0.2,0.3-0.6
		C309.6,91.7,309.4,91.6,309.3,91.7z"/>
	<path class="st1" d="M299.7,92.3c-0.3,0-0.2,0.4-0.2,0.6c0,0.2,0,0.5,0.3,0.5c0.2,0,0.3-0.2,0.2-0.6C300,92.6,300,92.3,299.7,92.3z
		"/>
	<polygon class="st2" points="271.8,91.9 271.7,90.7 265.1,91.1 278.1,82.4 277.4,81.3 264.4,90.1 267.3,84.1 266.2,83.6 
		263.3,89.6 262.8,83 261.6,83 262.1,89.7 258.4,84.2 257.4,84.8 261.1,90.4 255.1,87.4 254.6,88.5 260.6,91.5 253.9,91.9 254,93.1 
		260.7,92.7 255.1,96.4 255.8,97.4 261.3,93.7 258.4,99.7 259.5,100.2 262.4,94.2 262.9,100.9 264.1,100.8 263.6,94.1 267.4,99.7 
		268.4,99 264.6,93.4 278.1,100 278.7,98.9 265.2,92.4 	"/>
	<path class="st2" d="M278.2,88.9L278.2,88.9c0.6-0.2,0.7-0.6,0.7-1.1c0-0.1,0-0.4-0.2-0.6c-0.2-0.2-0.4-0.4-1-0.4l-1.5,0.1l0.3,4.5
		l1.4-0.1c0.5,0,1.3-0.2,1.3-1.4C279.1,89.3,278.8,89,278.2,88.9z M276.8,87.4l0.8-0.1c0.5,0,0.7,0.3,0.7,0.6c0,0.4-0.2,0.7-0.6,0.8
		l-0.8,0.1L276.8,87.4z M277.8,90.8l-0.8,0.1l-0.1-1.6l0.6,0c0.6,0,1,0.1,1.1,0.8C278.6,90.3,278.4,90.8,277.8,90.8z"/>
	<path class="st2" d="M281.1,89.3c0.2,0,0.5,0,0.6,0.4c0.1,0.5,0.1,1,0.2,1.3l0.5,0c-0.1-0.2-0.2-0.8-0.2-1
		c-0.1-0.8-0.2-0.9-0.7-0.9l0,0c0.4-0.1,0.7-0.5,0.6-0.9c0-0.5-0.3-0.9-1-0.9l-1.3,0.1l0.3,3.8l0.5,0l-0.1-1.8L281.1,89.3z
		 M280.4,87.7l0.7-0.1c0.4,0,0.5,0.3,0.6,0.5c0,0.3-0.1,0.6-0.5,0.7l-0.7,0.1L280.4,87.7z"/>
	<path class="st2" d="M285.8,90.7l-1.5-3.7l-0.6,0l-0.9,3.9l0.5,0l0.2-0.9l1.5-0.1l0.3,0.9L285.8,90.7z M283.5,89.6l0.5-2.1l0,0
		l0.8,2L283.5,89.6z"/>
	<path class="st2" d="M288.4,89.6c-0.1-1.2-1.8-1-1.8-1.8c0-0.4,0.3-0.6,0.5-0.6c0.5,0,0.6,0.2,0.6,0.7l0.5,0c0-0.8-0.4-1.1-1.1-1
		c-0.6,0-1.1,0.4-1.1,1.1c0.1,1.1,1.8,0.9,1.8,1.8c0,0.5-0.3,0.6-0.6,0.7c-0.3,0-0.7-0.1-0.7-0.6l0-0.1l-0.5,0
		c0,0.4,0.1,1.2,1.2,1.1C288,90.7,288.5,90.4,288.4,89.6z"/>
	
		<rect x="287.5" y="88.3" transform="matrix(6.986973e-002 0.9976 -0.9976 6.986973e-002 357.5641 -206.3312)" class="st2" width="3.8" height="0.5"/>
	<polygon class="st2" points="292.6,90.3 292.6,89.8 291.2,89.9 290.9,86.6 290.5,86.6 290.7,90.4 	"/>
	<path class="st2" d="M297,88.6l-0.6,0c0.1,0.9-0.5,1-0.6,1c-0.4,0-0.8-0.1-0.9-1.2l-0.1-1.2c-0.1-0.8,0.1-0.9,0.1-0.9
		c0-0.1,0.2-0.4,0.7-0.4c0.1,0,0.4,0,0.5,0.2c0.1,0.1,0.2,0.4,0.2,0.6l0.6,0c0-0.9-0.4-1.3-1.3-1.2c-0.9,0.1-1.4,0.5-1.3,1.7
		l0.1,1.3c0.1,1.7,1,1.7,1.5,1.7C296.2,90.1,297.2,90,297,88.6z"/>
	
		<rect x="296.1" y="87.7" transform="matrix(6.960712e-002 0.9976 -0.9976 6.960712e-002 365.0712 -215.4862)" class="st2" width="3.8" height="0.5"/>
	<polygon class="st2" points="301.7,85.8 301.3,85.8 301.5,89.1 301.5,89.1 299.8,85.9 299.1,86 299.4,89.8 299.8,89.8 299.6,86.5 
		299.6,86.5 301.3,89.7 302,89.6 	"/>
	<polygon class="st2" points="304.9,89 303.3,89.1 303.3,87.8 304.6,87.7 304.6,87.3 303.2,87.4 303.1,86.1 304.6,86 304.6,85.6 
		302.6,85.7 302.9,89.6 304.9,89.4 	"/>
	<polygon class="st2" points="308.7,84.6 307.8,88.5 307.8,88.5 306.4,84.8 305.5,84.9 305.8,89.4 306.3,89.3 306,85.3 306,85.3 
		307.5,89.2 308.1,89.2 309.1,85.1 309.1,85.1 309.3,89.1 309.9,89.1 309.6,84.6 	"/>
	<path class="st2" d="M313.1,87.4L313,85l-0.5,0l0.2,2.4c0.1,0.8-0.2,1.1-0.6,1.1c-0.5,0-0.7-0.2-0.8-1l-0.2-2.4l-0.5,0l0.2,2.4
		c0.1,1.1,0.5,1.4,1.3,1.4C312.9,88.9,313.2,88.5,313.1,87.4z"/>
	<polygon class="st2" points="316.5,84.8 316,84.8 316.3,88.1 316.3,88.1 314.5,84.9 313.9,84.9 314.1,88.8 314.6,88.7 314.3,85.4 
		314.3,85.4 316.1,88.6 316.7,88.6 	"/>
	<path class="st2" d="M318.5,88.5c0.7,0,1-0.2,1.2-0.6c0.1-0.3,0.2-0.7,0.1-1.6c0-0.1-0.1-0.9-0.3-1.2c-0.2-0.4-0.6-0.5-1.1-0.5
		l-1.2,0.1l0.3,3.8L318.5,88.5z M318.5,85c0.5,0,0.8,0.2,0.8,1l0.1,0.8c0.1,0.9-0.2,1.2-0.8,1.2l-0.5,0l-0.2-3L318.5,85z"/>
	
		<rect x="319.1" y="86.1" transform="matrix(6.990448e-002 0.9976 -0.9976 6.990448e-002 384.7448 -239.917)" class="st2" width="3.8" height="0.5"/>
	
		<rect x="279.9" y="93.8" transform="matrix(-6.953637e-002 -0.9976 0.9976 -6.953637e-002 206.7626 380.6276)" class="st2" width="2" height="0.3"/>
	<path class="st2" d="M282.1,93.4c-0.2,0-0.3,0.1-0.4,0.2l0,0l0-0.2l-0.2,0c0,0.1,0,0.2,0,0.3l0.1,1.1l0.2,0l-0.1-0.8
		c0-0.2,0-0.4,0.3-0.4c0.2,0,0.3,0.1,0.3,0.3l0.1,1l0.2,0l-0.1-1C282.5,93.5,282.4,93.4,282.1,93.4z"/>
	<path class="st2" d="M283.5,94.5c-0.2,0-0.2-0.1-0.2-0.2l-0.1-0.9l0.3,0l0-0.2l-0.3,0l0-0.4l-0.2,0.1l0,0.3l-0.2,0l0,0.2l0.2,0
		l0.1,1c0,0.2,0.1,0.2,0.3,0.2c0.1,0,0.1,0,0.2,0l0-0.2C283.5,94.5,283.5,94.5,283.5,94.5z"/>
	<path class="st2" d="M284.3,94.5c-0.2,0-0.3-0.1-0.3-0.4l0.8-0.1l0-0.1c0-0.5-0.1-0.7-0.5-0.6c-0.5,0-0.5,0.4-0.5,0.8
		c0,0.6,0.3,0.7,0.6,0.7c0.3,0,0.5-0.2,0.5-0.5l-0.3,0C284.5,94.4,284.5,94.5,284.3,94.5z M284.2,93.4c0.2,0,0.3,0,0.3,0.4l-0.5,0
		C284,93.5,284.1,93.4,284.2,93.4z"/>
	<path class="st2" d="M285.4,93.4L285.4,93.4l0-0.2l-0.2,0l0.1,1.4l0.2,0l-0.1-0.8c0-0.2,0-0.4,0.3-0.4c0,0,0,0,0.1,0c0,0,0,0,0.1,0
		l0-0.2C285.6,93.1,285.5,93.2,285.4,93.4z"/>
	<path class="st2" d="M286.7,93.1c-0.2,0-0.3,0.1-0.4,0.2l0,0l0-0.2l-0.2,0c0,0.1,0,0.2,0,0.3l0.1,1.1l0.2,0l-0.1-0.8
		c0-0.2,0-0.4,0.3-0.4c0.2,0,0.3,0.1,0.3,0.3l0.1,1l0.2,0l-0.1-1C287.1,93.2,287,93,286.7,93.1z"/>
	<path class="st2" d="M288.5,93.4c0-0.2-0.1-0.4-0.5-0.4c-0.3,0-0.5,0.1-0.4,0.5l0.2,0c0-0.1,0-0.3,0.2-0.3c0.2,0,0.3,0.2,0.3,0.4
		c-0.3,0-0.7,0.1-0.7,0.5c0,0.3,0.1,0.5,0.4,0.4c0.2,0,0.3-0.1,0.3-0.3h0l0,0.2l0.2,0c0-0.1,0-0.2-0.1-0.3L288.5,93.4z M288,94.2
		c-0.2,0-0.2-0.1-0.2-0.2c0-0.3,0.3-0.3,0.5-0.3C288.3,94.1,288.2,94.2,288,94.2z"/>
	<path class="st2" d="M289.5,94.1c-0.2,0-0.2-0.1-0.2-0.2l-0.1-0.9l0.3,0l0-0.2l-0.3,0l0-0.4l-0.2,0.1l0,0.3l-0.2,0l0,0.2l0.2,0
		l0.1,1c0,0.2,0.1,0.2,0.3,0.2c0.1,0,0.1,0,0.2,0l0-0.2C289.5,94.1,289.5,94.1,289.5,94.1z"/>
	
		<rect x="289.2" y="93.4" transform="matrix(-6.947157e-002 -0.9976 0.9976 -6.947157e-002 216.7152 389.2679)" class="st2" width="1.4" height="0.2"/>
	
		<rect x="289.7" y="92.3" transform="matrix(0.9975 -7.070383e-002 7.070383e-002 0.9975 -5.8062 20.723)" class="st2" width="0.3" height="0.2"/>
	<path class="st2" d="M290.9,92.8c-0.5,0-0.5,0.4-0.5,0.8c0,0.6,0.3,0.7,0.6,0.7c0.3,0,0.5-0.1,0.5-0.7
		C291.5,93.1,291.4,92.7,290.9,92.8z M291,94c-0.2,0-0.3-0.1-0.3-0.6c0-0.4,0.1-0.5,0.3-0.5c0.2,0,0.3,0.1,0.3,0.4
		C291.3,93.8,291.2,94,291,94z"/>
	<path class="st2" d="M292.4,92.6c-0.2,0-0.3,0.1-0.4,0.2l0,0l0-0.2l-0.2,0c0,0.1,0,0.2,0,0.3l0.1,1.1l0.2,0l-0.1-0.8
		c0-0.2,0-0.4,0.3-0.4c0.2,0,0.3,0.1,0.3,0.3l0.1,1l0.2,0l-0.1-1C292.8,92.8,292.7,92.6,292.4,92.6z"/>
	<path class="st2" d="M294.2,92.9c0-0.2-0.1-0.4-0.5-0.4c-0.3,0-0.5,0.1-0.4,0.5l0.2,0c0-0.1,0.1-0.3,0.2-0.3c0.2,0,0.3,0.2,0.3,0.4
		c-0.3,0-0.7,0.1-0.7,0.5c0,0.3,0.1,0.5,0.4,0.4c0.2,0,0.3-0.1,0.3-0.3h0l0,0.2l0.3,0c0-0.1,0-0.2-0.1-0.3L294.2,92.9z M293.8,93.8
		c-0.2,0-0.2-0.1-0.2-0.2c0-0.3,0.3-0.3,0.5-0.3C294.1,93.7,293.9,93.8,293.8,93.8z"/>
	
		<rect x="293.8" y="92.8" transform="matrix(-6.999904e-002 -0.9975 0.9975 -6.999904e-002 222.7589 393.5042)" class="st2" width="2" height="0.2"/>
	<path class="st2" d="M296.9,93.6c-0.2,0-0.4,0-0.4-0.5l0-0.5c0-0.3,0-0.4,0-0.4c0,0,0.1-0.2,0.3-0.2c0.1,0,0.2,0,0.2,0.1
		c0.1,0.1,0.1,0.2,0.1,0.3l0.3,0c0-0.4-0.2-0.6-0.6-0.6c-0.4,0-0.6,0.2-0.6,0.8l0,0.6c0.1,0.8,0.4,0.8,0.7,0.8c0.1,0,0.6,0,0.5-0.7
		l-0.3,0C297.2,93.6,297,93.6,296.9,93.6z"/>
	<path class="st2" d="M298.3,92.2c-0.5,0-0.5,0.4-0.5,0.8c0,0.6,0.3,0.7,0.6,0.7c0.3,0,0.5-0.1,0.5-0.7
		C298.8,92.5,298.8,92.2,298.3,92.2z M298.4,93.5c-0.2,0-0.3-0.1-0.3-0.6c0-0.4,0.1-0.5,0.3-0.5c0.2,0,0.3,0.1,0.3,0.4
		C298.7,93.3,298.6,93.5,298.4,93.5z"/>
	<path class="st2" d="M299.8,92.1c-0.1,0-0.2,0.1-0.3,0.2h0l0-0.2l-0.2,0l0.1,1.9l0.2,0l0-0.7h0c0.1,0.1,0.2,0.2,0.3,0.1
		c0.5,0,0.4-0.4,0.4-0.8C300.2,92.2,300,92.1,299.8,92.1z M299.8,93.4c-0.3,0-0.3-0.3-0.3-0.5c0-0.2-0.1-0.6,0.2-0.6
		c0.3,0,0.3,0.3,0.3,0.5C300.1,93.2,300.1,93.4,299.8,93.4z"/>
	<path class="st2" d="M300.9,92.3L300.9,92.3l0-0.2l-0.2,0l0.1,1.4l0.2,0l-0.1-0.8c0-0.2,0-0.4,0.3-0.4c0,0,0,0,0.1,0c0,0,0,0,0.1,0
		l0-0.2C301.1,92,301,92.1,300.9,92.3z"/>
	<path class="st2" d="M302.1,92c-0.5,0-0.5,0.4-0.5,0.8c0,0.6,0.3,0.7,0.6,0.7c0.3,0,0.5-0.1,0.5-0.7
		C302.6,92.3,302.6,91.9,302.1,92z M302.2,93.2c-0.2,0-0.3-0.1-0.3-0.6c0-0.4,0.1-0.5,0.3-0.5c0.2,0,0.3,0.1,0.3,0.4
		C302.5,93.1,302.4,93.2,302.2,93.2z"/>
	<path class="st2" d="M303.7,91.3l0.1,0.7l0,0c-0.1-0.1-0.2-0.2-0.3-0.1c-0.5,0-0.4,0.4-0.4,0.8c0,0.6,0.3,0.7,0.5,0.7
		c0.1,0,0.2-0.1,0.3-0.2h0l0,0.2l0.2,0l-0.1-2L303.7,91.3z M303.6,93.1c-0.3,0-0.3-0.3-0.3-0.5c0-0.4,0-0.6,0.2-0.6
		c0.3,0,0.3,0.3,0.3,0.5C303.8,92.8,303.9,93.1,303.6,93.1z"/>
	<path class="st2" d="M305.4,91.8l-0.2,0l0.1,0.9c0,0.2-0.1,0.3-0.3,0.3c-0.2,0-0.2-0.1-0.3-0.3l-0.1-1l-0.2,0l0.1,1.1
		c0,0.2,0.2,0.4,0.4,0.3c0.1,0,0.3-0.1,0.3-0.2l0,0l0,0.2l0.2,0c0-0.1,0-0.2,0-0.3L305.4,91.8z"/>
	<path class="st2" d="M306.5,92.9c-0.2,0-0.3-0.1-0.3-0.6c0-0.4,0.1-0.5,0.3-0.5c0.1,0,0.2,0,0.2,0.3l0.2,0c0-0.3-0.2-0.5-0.5-0.4
		c-0.5,0-0.5,0.4-0.5,0.8c0,0.6,0.3,0.7,0.6,0.7c0.2,0,0.4-0.1,0.4-0.5l-0.2,0C306.7,92.9,306.5,92.9,306.5,92.9z"/>
	<path class="st2" d="M307.8,92.8c-0.2,0-0.2-0.1-0.2-0.2l-0.1-0.9l0.3,0l0-0.2l-0.3,0l0-0.4l-0.2,0.1l0,0.3l-0.2,0l0,0.2l0.2,0
		l0.1,1c0,0.2,0.1,0.2,0.3,0.2c0.1,0,0.1,0,0.2,0l0-0.2C307.9,92.8,307.9,92.8,307.8,92.8z"/>
	
		<rect x="307.6" y="92.2" transform="matrix(-7.020655e-002 -0.9975 0.9975 -7.020655e-002 237.8499 406.2518)" class="st2" width="1.4" height="0.2"/>
	
		<rect x="308" y="91" transform="matrix(0.9976 -6.852446e-002 6.852446e-002 0.9976 -5.5179 21.3317)" class="st2" width="0.3" height="0.2"/>
	<path class="st2" d="M309.2,91.5c-0.5,0-0.5,0.4-0.5,0.8c0,0.6,0.3,0.7,0.6,0.7c0.3,0,0.5-0.1,0.5-0.7
		C309.8,91.8,309.7,91.4,309.2,91.5z M309.3,92.7c-0.2,0-0.3-0.1-0.3-0.6c0-0.4,0.1-0.5,0.3-0.5c0.2,0,0.3,0.1,0.3,0.4
		C309.6,92.6,309.6,92.7,309.3,92.7z"/>
	<path class="st2" d="M310.8,91.4c-0.2,0-0.3,0.1-0.4,0.2l0,0l0-0.2l-0.2,0c0,0.1,0,0.2,0,0.3l0.1,1.1l0.2,0l-0.1-0.8
		c0-0.2,0-0.4,0.3-0.4c0.2,0,0.3,0.1,0.3,0.3l0.1,1l0.2,0l-0.1-1C311.2,91.5,311.1,91.3,310.8,91.4z"/>
	<polygon class="st2" points="313.9,90.6 313.5,92.3 313.5,92.3 312.9,90.6 312.5,90.7 312.6,92.7 312.9,92.7 312.7,90.9 
		312.7,90.9 313.4,92.6 313.7,92.6 314.1,90.8 314.1,90.8 314.2,92.6 314.5,92.5 314.3,90.5 	"/>
	<path class="st2" d="M315.4,92.3c-0.2,0-0.3-0.1-0.3-0.4l0.8-0.1l0-0.1c0-0.5-0.1-0.7-0.5-0.6c-0.5,0-0.5,0.4-0.5,0.8
		c0,0.6,0.3,0.7,0.6,0.7c0.3,0,0.5-0.2,0.5-0.5l-0.3,0C315.7,92.2,315.6,92.3,315.4,92.3z M315.3,91.2c0.2,0,0.3,0,0.3,0.4l-0.5,0
		C315.1,91.3,315.2,91.2,315.3,91.2z"/>
	<path class="st2" d="M316.9,92.2c-0.2,0-0.3-0.1-0.3-0.4l0.8-0.1l0-0.1c0-0.5-0.1-0.7-0.5-0.6c-0.5,0-0.5,0.4-0.5,0.8
		c0,0.6,0.3,0.7,0.6,0.7c0.3,0,0.5-0.2,0.5-0.5l-0.3,0C317.1,92.1,317,92.2,316.9,92.2z M316.8,91.1c0.2,0,0.3,0,0.3,0.4l-0.5,0
		C316.5,91.2,316.6,91.1,316.8,91.1z"/>
	<path class="st2" d="M318.2,92.1c-0.2,0-0.2-0.1-0.2-0.2l-0.1-0.9l0.3,0l0-0.2l-0.3,0l0-0.4l-0.2,0.1l0,0.3l-0.2,0l0,0.2l0.2,0
		l0.1,1c0,0.2,0.1,0.2,0.3,0.2c0.1,0,0.2,0,0.2,0l0-0.2C318.3,92.1,318.2,92.1,318.2,92.1z"/>
	
		<rect x="317.9" y="91.4" transform="matrix(-6.952083e-002 -0.9976 0.9976 -6.952083e-002 249.4719 415.7918)" class="st2" width="1.4" height="0.2"/>
	
		<rect x="318.4" y="90.2" transform="matrix(0.9975 -7.094150e-002 7.094150e-002 0.9975 -5.6083 22.8272)" class="st2" width="0.3" height="0.2"/>
	<path class="st2" d="M319.8,90.7c-0.2,0-0.3,0.1-0.4,0.2l0,0l0-0.2l-0.2,0c0,0.1,0,0.2,0,0.3l0.1,1.1l0.2,0l-0.1-0.8
		c0-0.2,0-0.4,0.3-0.4c0.2,0,0.3,0.1,0.3,0.3l0.1,1l0.2,0l-0.1-1C320.1,90.9,320.1,90.7,319.8,90.7z"/>
	<path class="st2" d="M321.3,90.7l0,0.2l0,0c-0.1-0.1-0.2-0.2-0.3-0.2c-0.1,0-0.4,0.1-0.4,0.7c0,0.4,0.1,0.7,0.5,0.7
		c0.1,0,0.2-0.1,0.3-0.2l0,0l0,0.3c0,0.1-0.1,0.2-0.2,0.3c-0.1,0-0.2-0.1-0.2-0.2l-0.3,0c0,0.3,0.2,0.4,0.4,0.3
		c0.3,0,0.5-0.1,0.5-0.4l-0.1-1.5L321.3,90.7z M321.1,91.9c-0.2,0-0.3-0.1-0.3-0.5c0-0.2,0-0.5,0.2-0.5c0.3,0,0.3,0.3,0.3,0.5
		C321.4,91.5,321.4,91.9,321.1,91.9z"/>
	<path class="st2" d="M276.9,95.2l0.3,0c0-0.4,0.1-0.8,0.2-1.1c0.1-0.3,0.2-0.6,0.4-0.7l0-0.2l-1.2,0.1l0,0.2l0.9-0.1
		c-0.2,0.3-0.3,0.6-0.4,0.9C276.9,94.6,276.9,94.9,276.9,95.2z"/>
	<path class="st2" d="M277.8,93.4l0.1,0l0,0.6c0,0.1,0,0.2,0.2,0.2c0.1,0,0.1,0,0.1,0l0-0.1c0,0,0,0-0.1,0c-0.1,0-0.1,0-0.1-0.1
		l0-0.6l0.2,0l0-0.1l-0.2,0l0-0.3l-0.1,0l0,0.3l-0.1,0L277.8,93.4z"/>
	<path class="st2" d="M278.7,93.2c-0.1,0-0.2,0.1-0.2,0.1l0,0l0-0.4l-0.1,0l0.1,1.2l0.1,0l0-0.6c0-0.1,0.1-0.2,0.2-0.2
		c0.1,0,0.1,0.1,0.1,0.2l0,0.6l0.1,0l0-0.6C278.9,93.3,278.9,93.2,278.7,93.2z"/>
	<path class="st2" d="M248.2,72.5l2.7,38.8l77.1-5.4l-2.7-38.8L248.2,72.5z M251.4,110.7L248.8,73l75.9-5.3l2.6,37.7L251.4,110.7z"
		/>
	<path class="st3" d="M184.8,110.9c-0.2,0.1-0.3,0.2-0.3,0.4c0,0.2,0.1,0.3,0.3,0.3c0.2,0,0.4-0.1,0.4-0.4l0-0.5
		C184.9,110.8,184.8,110.8,184.8,110.9z"/>
	<path class="st3" d="M200.4,108.8c-0.2,0-0.3,0.3-0.3,0.5l0,0.1l0.6,0C200.7,109,200.7,108.8,200.4,108.8z"/>
	<path class="st3" d="M175.4,111.5c-0.2,0.1-0.3,0.2-0.3,0.4c0,0.2,0.1,0.3,0.3,0.3c0.2,0,0.4-0.1,0.4-0.4l0-0.5
		C175.5,111.4,175.5,111.5,175.4,111.5z"/>
	<path class="st3" d="M180.1,110.2c-0.3,0-0.3,0.4-0.3,0.9c0,0.5,0.1,0.8,0.4,0.8c0.2,0,0.3-0.3,0.3-0.9
		C180.5,110.4,180.4,110.2,180.1,110.2z"/>
	<path class="st3" d="M149.4,80l2.6,37.7l65.5-4.6l-2.6-37.7L149.4,80z M202.5,86.6l0.5,6.5l1.5-0.1l-0.5-6.5l1.5-0.1l1.1,14.7
		l-1.5,0.1l-0.5-6.8l-1.5,0.1l0.5,6.8l-1.5,0.1l-1.1-14.7L202.5,86.6z M198.1,86.9c1.5-0.1,2.3,0.9,2.5,3.1l0.1,1.5
		c0.1,0.7,0,1.2-0.1,1.7c0,0,0,0,0,0c-0.1,0.3-0.2,0.5-0.4,0.7c0,0,0,0,0,0c0,0,0,0,0,0c0,0,0,0,0,0c-0.1,0.1-0.2,0.2-0.3,0.2
		c0.7,0.3,1.1,1.1,1.2,2.4l0,0.2l0.1,1.5c0.1,1.1-0.1,2-0.4,2.6c0,0-0.1,0.2-0.2,0.3c-0.3,0.3-0.8,0.5-1.3,0.6l-2.2,0.2l0-0.4
		c0,0,0,0,0-0.1c0,0,0,0,0,0l-1.1-14.3L198.1,86.9z M195.2,87.1l0.1,1l-1.2,0.1l0.2,2.5l0.7-0.1l0.1,1l-0.7,0.1l0.2,2.6l1.2-0.1
		l0.1,1l-2.2,0.2l-0.6-8L195.2,87.1z M190.6,87.5l1.1,4.4l-0.3-4.4l0.9-0.1l0.6,8l-1.1,0.1l-1.1-4.4l0.3,4.5l-0.9,0.1l-0.6-8
		L190.6,87.5z M188.8,87.6l0.6,8l-1,0.1l-0.6-8L188.8,87.6z M185,87.9c1.4-0.1,2.2,0.9,2.4,3.1l0.1,1.3l-1.4,0.1l-0.2-2.3
		c0-0.6-0.3-0.8-0.8-0.8c-0.5,0-0.7,0.3-0.7,0.9l0.8,10.1c0,0.6,0.3,0.8,0.8,0.8c0.1,0,0.1,0,0.2,0c0,0,0.1,0,0.1,0
		c0.2-0.1,0.4-0.3,0.4-0.6c0,0,0-0.1,0-0.1c0,0,0-0.1,0-0.1l-0.2-2.7l1.4-0.1l0.1,1.8c0,0.3,0,0.6,0,0.9l0,0.3c0,0,0,0,0,0.1
		c0,0,0,0,0,0c-0.1,1.4-0.8,2.1-1.9,2.2c-1.5,0.1-2.3-0.9-2.5-3.1l-0.6-8.2C182.9,89.2,183.5,88,185,87.9z M180.3,88.3l0.9-0.1
		l1.7,7.9l-1,0.1l-0.2-1.2l-0.8,0.1l0,1.2l-1,0.1L180.3,88.3z M177.6,88.5c0.4,0,0.8,0.1,1.1,0.4c0.3,0.3,0.4,0.7,0.4,1.3l0.1,0.9
		c0,0.3,0,0.7-0.1,0.9c0,0,0,0.1,0,0.1c0,0,0,0,0,0c-0.1,0.2-0.2,0.4-0.4,0.6l0.9,3.8l-1,0.1l-0.8-3.6l-0.2,0l0.3,3.6l-1,0.1l-0.6-8
		L177.6,88.5z M174.5,88.7C174.5,88.7,174.5,88.7,174.5,88.7l1.2-0.1l0.1,1l-0.8,0.1l0.5,7l-1,0.1l-0.5-7l-0.8,0.1l-0.1-1
		L174.5,88.7z M170.8,89.5c0-0.1,0.1-0.1,0.1-0.2c0,0,0,0,0,0c0,0,0,0,0,0c0,0,0,0,0,0c0,0,0.1-0.1,0.1-0.1c0,0,0,0,0,0c0,0,0,0,0,0
		c0,0,0,0,0,0c0,0,0,0,0,0c0,0,0,0,0.1,0c0,0,0,0,0,0v0c0,0,0,0,0,0c0,0,0,0,0,0c0,0,0,0,0,0c0,0,0,0,0,0c0,0,0,0,0,0c0,0,0,0,0,0
		l0,0c0,0,0,0,0,0l0,0c0,0,0,0,0.1,0c0,0,0,0,0,0c0.1,0,0.1,0,0.2,0c0,0,0,0,0,0l0,0c0,0,0,0,0,0c0.1,0,0.1,0,0.2,0c0,0,0,0,0,0
		c0.1,0,0.1,0,0.1,0c0,0,0,0,0,0v0c0,0,0,0,0,0c0.1,0,0.2,0,0.2,0.1c0,0,0,0,0,0v0c0,0,0,0,0,0v0c0,0,0,0,0,0c0,0,0.1,0.1,0.1,0.1
		c0,0,0,0,0,0c0,0,0,0,0,0c0,0,0,0,0,0c0,0,0,0,0,0c0,0,0,0,0,0c0,0,0,0,0,0.1c0,0,0,0,0,0c0,0,0,0,0,0c0,0.1,0.1,0.1,0.1,0.1
		c0,0,0,0,0,0c0,0.1,0.1,0.1,0.1,0.2c0,0,0,0,0,0c0,0.1,0.1,0.2,0.1,0.2c0,0,0,0.1,0,0.1c0,0.1,0,0.1,0,0.2c0,0.1,0,0.2,0,0.4
		c0,0,0,0,0,0l0.1,0.8l-1,0.1l-0.1-1.3c0-0.1,0-0.2-0.1-0.3c0,0,0,0-0.1-0.1c0,0-0.1,0-0.1,0c-0.1,0-0.1,0-0.2,0.1
		c0,0.1-0.1,0.2,0,0.3l0.1,0.9c0,0.3,0.1,0.6,0.3,0.9c0.1,0.2,0.3,0.4,0.5,0.6c0.2,0.2,0.4,0.5,0.5,0.7c0,0,0,0,0,0
		c0.2,0.3,0.3,0.7,0.3,1l0,0.2c0,0,0,0,0,0l0,0.5c0,0.6,0,1-0.2,1.4c0,0.1-0.1,0.1-0.1,0.2c0,0,0,0,0,0c0,0,0,0,0,0c0,0,0,0,0,0
		c0,0-0.1,0.1-0.1,0.1c0,0,0,0,0,0c0,0,0,0,0,0c0,0,0,0,0,0c0,0,0,0,0,0c0,0,0,0-0.1,0c0,0,0,0,0,0l0,0c0,0,0,0,0,0c0,0,0,0,0,0
		c0,0,0,0,0,0l0,0c0,0,0,0,0,0c0,0,0,0,0,0l0,0c0,0,0,0,0,0l0,0c0,0,0,0-0.1,0h0c-0.1,0-0.1,0-0.2,0c0,0,0,0,0,0h0c0,0,0,0,0,0
		c-0.1,0-0.1,0-0.2,0c0,0,0,0,0,0c-0.1,0-0.1,0-0.2,0c0,0,0,0,0,0v0c0,0,0,0,0,0c-0.1,0-0.2,0-0.2-0.1c0,0,0,0,0,0l0,0c0,0,0,0,0,0
		h0v0c0,0,0,0,0,0c0,0-0.1-0.1-0.1-0.1c0,0,0,0,0,0c0,0,0,0,0,0c0,0,0,0,0,0c0,0,0,0,0,0c0,0,0,0,0,0c0,0,0,0,0-0.1c0,0,0,0,0,0
		c0,0,0,0,0,0c0-0.1-0.1-0.1-0.1-0.1c0,0,0,0,0,0c0-0.1-0.1-0.1-0.1-0.2c0,0,0,0,0,0c0-0.1-0.1-0.2-0.1-0.2c0,0,0-0.1,0-0.1
		c0-0.1,0-0.1,0-0.2c0-0.1,0-0.2,0-0.4c0,0,0,0,0,0l0-0.2l-0.1-0.8l1-0.1l0,0.3h0l0.1,1.3c0,0.1,0,0.2,0.1,0.3c0,0,0,0,0.1,0.1
		c0,0,0.1,0,0.1,0c0.1,0,0.1,0,0.2-0.1c0-0.1,0.1-0.2,0-0.3l-0.1-0.9c0-0.3-0.1-0.6-0.3-0.9c-0.1-0.2-0.3-0.4-0.5-0.6
		c-0.2-0.2-0.4-0.5-0.5-0.7c0,0,0,0,0,0c-0.2-0.3-0.3-0.7-0.3-1l0-0.2c0,0,0,0,0,0l0-0.5C170.6,90.3,170.6,89.8,170.8,89.5z
		 M167.7,89.7c0.1-0.1,0.2-0.2,0.3-0.3l0,0c0.1-0.1,0.3-0.2,0.4-0.2c0.1,0,0.1,0,0.2,0l0,0c0.3,0,0.6,0,0.8,0.2c0,0,0,0,0.1,0.1v0
		c0,0,0,0,0,0c0,0,0.1,0.1,0.1,0.1c0,0,0,0,0,0c0,0,0,0,0,0c0,0,0,0,0,0l0,0c0,0,0,0,0,0c0.1,0.2,0.2,0.4,0.3,0.7
		c0,0.1,0,0.2,0.1,0.3c0,0,0,0,0,0c0,0.1,0.4,4.6,0.4,4.6c0,0.6,0,1-0.2,1.4c-0.1,0.1-0.2,0.2-0.3,0.3l0,0c-0.1,0.1-0.3,0.2-0.4,0.2
		c-0.1,0-0.1,0-0.2,0h0c-0.3,0-0.6,0-0.8-0.2c0,0,0,0-0.1-0.1v0c0,0,0,0,0,0c0,0-0.1-0.1-0.1-0.1c0,0,0,0,0,0c0,0,0,0,0,0
		c0,0,0,0,0,0h0c0,0,0,0,0,0c-0.1-0.2-0.2-0.4-0.3-0.7c0-0.1,0-0.2-0.1-0.3v0c0-0.1-0.4-4.6-0.4-4.6C167.4,90.5,167.5,90,167.7,89.7
		z M161.5,83l2,10.4l0.4-10.6l2.2-0.2l1.1,14.7l-1.3,0.1L165,85.9l-0.6,11.6l-1.2,0.1l-2.3-11.4l0.9,11.5l-1.3,0.1l-1.1-14.7
		L161.5,83z M156.8,107.7l54.2-3.8l0,0.4l-54.2,3.8L156.8,107.7z M158.3,113.8l-1.1,0.1l-0.2-3.2l1.1-0.1c0.5,0,0.9,0.1,1,0.7
		c0,0.3-0.1,0.6-0.4,0.7l0,0c0.4,0,0.6,0.3,0.6,0.7C159.3,113.3,159.1,113.7,158.3,113.8z M161.2,113.6l-0.1-1.4l-0.7,0.1l0.1,1.4
		l-0.6,0l-0.2-3.2l0.6,0l0.1,1.2l0.7-0.1l-0.1-1.2l0.6,0l0.2,3.2L161.2,113.6z M163.6,113.4l-0.2-3.2l0.6,0l0.2,3.2L163.6,113.4z
		 M166,113.2l-0.1-1.6c0-0.2-0.1-0.3-0.3-0.3c-0.2,0-0.3,0.1-0.3,0.4l0.1,1.6l-0.6,0l-0.2-2.4l0.6,0l0,0.3h0
		c0.1-0.2,0.3-0.4,0.6-0.4c0.4,0,0.6,0.2,0.7,0.6l0.1,1.8L166,113.2z M167.8,113.1c-0.5,0-0.6-0.1-0.6-0.6l-0.1-1.4l-0.3,0l0-0.4
		l0.3,0l0-0.7l0.6,0l0,0.7l0.4,0l0,0.4l-0.4,0l0.1,1.3c0,0.2,0.1,0.3,0.2,0.2c0,0,0.1,0,0.1,0l0,0.4
		C168.1,113.1,168,113.1,167.8,113.1z M169,112.1c0,0.3,0.1,0.6,0.3,0.5c0.2,0,0.3-0.2,0.3-0.5l0.6,0c0,0.6-0.2,0.9-0.8,0.9
		c-0.9,0.1-1-0.6-1-1.2c0-0.6,0-1.2,0.9-1.3c0.7,0,0.9,0.4,1,1.2l0,0.1l-1.2,0.1L169,112.1z M171.6,111c-0.2,0-0.4,0.1-0.4,0.5
		l0.1,1.4l-0.6,0l-0.2-2.4l0.6,0l0,0.3l0,0c0.1-0.2,0.3-0.4,0.5-0.4c0,0,0.1,0,0.1,0l0,0.6C171.8,111,171.7,111,171.6,111z
		 M173.5,112.7l-0.1-1.7c0-0.2-0.1-0.3-0.3-0.3c-0.2,0-0.3,0.1-0.3,0.4l0.1,1.6l-0.6,0l-0.2-2.4l0.6,0l0,0.3h0
		c0.1-0.2,0.3-0.4,0.6-0.4c0.4,0,0.6,0.2,0.7,0.6l0.1,1.8L173.5,112.7z M175.8,112.6c0-0.1-0.1-0.2-0.1-0.2h0
		c-0.1,0.3-0.3,0.3-0.6,0.4c-0.4,0-0.6-0.3-0.6-0.6c0-0.4,0.1-0.6,0.6-0.8l0.3-0.1c0.2-0.1,0.2-0.1,0.2-0.3c0-0.2-0.1-0.3-0.3-0.3
		c-0.2,0-0.3,0.1-0.3,0.3l0,0.1l-0.6,0l0-0.1c0-0.6,0.3-0.8,0.8-0.8c0.7-0.1,0.9,0.2,0.9,0.7l0.1,1.3c0,0.2,0,0.3,0.1,0.5
		L175.8,112.6z M177.5,112.5c-0.5,0-0.6-0.1-0.6-0.6l-0.1-1.4l-0.3,0l0-0.4l0.3,0l0-0.7l0.6,0l0,0.7l0.4,0l0,0.4l-0.4,0l0.1,1.3
		c0,0.2,0.1,0.3,0.2,0.2c0,0,0.1,0,0.1,0l0,0.4C177.8,112.4,177.7,112.5,177.5,112.5z M178.3,112.4l-0.2-2.4l0.6,0l0.2,2.4
		L178.3,112.4z M180.3,112.3c-0.7,0.1-1-0.4-1-1.2c-0.1-0.8,0.2-1.3,0.9-1.3c0.7-0.1,1,0.4,1,1.2C181.2,111.8,181,112.3,180.3,112.3
		z M182.9,112.1l-0.1-1.6c0-0.2-0.1-0.3-0.3-0.3c-0.2,0-0.3,0.1-0.3,0.4l0.1,1.6l-0.6,0l-0.2-2.4l0.6,0l0,0.3l0,0
		c0.1-0.2,0.3-0.4,0.6-0.4c0.4,0,0.6,0.2,0.7,0.6l0.1,1.8L182.9,112.1z M185.2,111.9c0-0.1-0.1-0.2-0.1-0.2h0
		c-0.1,0.3-0.3,0.3-0.6,0.4c-0.4,0-0.6-0.3-0.6-0.6c0-0.4,0.1-0.6,0.6-0.8l0.3-0.1c0.2-0.1,0.2-0.1,0.2-0.3c0-0.2-0.1-0.3-0.3-0.3
		c-0.2,0-0.3,0.1-0.3,0.3l0,0.1l-0.6,0l0-0.1c0-0.6,0.3-0.8,0.8-0.8c0.7-0.1,0.9,0.2,0.9,0.7l0.1,1.3c0,0.2,0,0.3,0.1,0.5
		L185.2,111.9z M186.2,111.8l-0.2-3.2l0.6,0l0.2,3.2L186.2,111.8z M189.2,111.6l-0.6,0l-0.2-3.2l1.8-0.1l0,0.5L189,109l0.1,0.7
		l1.1-0.1l0,0.5l-1.1,0.1L189.2,111.6z M190.7,111.5l-0.2-2.4l0.6,0l0.2,2.4L190.7,111.5z M191.9,111.4l-0.2-3.2l0.6,0l0.2,3.2
		L191.9,111.4z M195.4,111.2l-0.1-1.7c0-0.2-0.1-0.3-0.3-0.3c-0.2,0-0.3,0.2-0.3,0.4l0.1,1.6l-0.6,0l-0.1-1.7c0-0.2-0.1-0.3-0.3-0.3
		c-0.2,0-0.3,0.2-0.3,0.4l0.1,1.6l-0.6,0l-0.2-2.4l0.6,0l0,0.2h0c0.1-0.2,0.3-0.3,0.6-0.4c0.3,0,0.5,0.1,0.6,0.3h0
		c0.1-0.3,0.3-0.4,0.6-0.4c0.4,0,0.6,0.2,0.6,0.7l0.1,1.7L195.4,111.2z M198.3,111l-0.6,0l-0.2-3.2l1.8-0.1l0,0.5l-1.1,0.1l0.1,0.7
		l1.1-0.1l0,0.5l-1.1,0.1L198.3,111z M200.2,109.9c0,0.3,0.1,0.6,0.3,0.5c0.2,0,0.3-0.2,0.3-0.5l0.6,0c0,0.6-0.2,0.9-0.8,0.9
		c-0.9,0.1-1-0.6-1-1.2c0-0.6,0-1.2,0.9-1.3c0.7-0.1,0.9,0.4,1,1.2l0,0.1l-1.2,0.1L200.2,109.9z M202.7,110.7
		c-0.7,0-0.9-0.2-0.9-0.7l0-0.1l0.6,0l0,0.1c0,0.2,0.1,0.3,0.3,0.3c0.2,0,0.3-0.1,0.3-0.3c0-0.2-0.1-0.2-0.2-0.3l-0.4-0.1
		c-0.3-0.1-0.5-0.3-0.6-0.6c0-0.4,0.2-0.7,0.8-0.8c0.6,0,0.8,0.2,0.9,0.6l0,0.1l-0.6,0c0-0.2-0.1-0.4-0.3-0.3
		c-0.2,0-0.3,0.1-0.3,0.3c0,0.1,0.1,0.2,0.3,0.3l0.4,0.1c0.4,0.1,0.6,0.3,0.6,0.6C203.5,110.4,203.2,110.7,202.7,110.7z
		 M204.7,110.6c-0.5,0-0.6-0.1-0.6-0.6l-0.1-1.4l-0.3,0l0-0.4l0.3,0l0-0.7l0.6,0l0,0.7l0.4,0l0,0.4l-0.4,0l0.1,1.3
		c0,0.2,0.1,0.3,0.2,0.2c0,0,0.1,0,0.1,0l0,0.4C204.9,110.5,204.8,110.6,204.7,110.6z M205.4,110.5l-0.2-2.4l0.6,0l0.2,2.4
		L205.4,110.5z M207.7,110.3l-0.7,0l-0.8-2.4l0.6,0l0.5,1.7h0l0.2-1.7l0.6,0L207.7,110.3z M209.7,110.2c0-0.1-0.1-0.2-0.1-0.2l0,0
		c-0.1,0.3-0.3,0.3-0.6,0.4c-0.4,0-0.6-0.3-0.6-0.6c0-0.4,0.1-0.6,0.6-0.8l0.3-0.1c0.2-0.1,0.2-0.1,0.2-0.3c0-0.2-0.1-0.3-0.3-0.3
		c-0.2,0-0.3,0.1-0.3,0.3l0,0.1l-0.6,0l0-0.1c0-0.6,0.3-0.8,0.8-0.8c0.7-0.1,0.9,0.2,0.9,0.7l0.1,1.3c0,0.2,0,0.3,0.1,0.5
		L209.7,110.2z M210.8,110.1l-0.2-3.2l0.6,0l0.2,3.2L210.8,110.1z"/>
	<path class="st3" d="M222.9,91l0-0.1c0-0.3-0.2-0.4-0.4-0.4l-1.4,0.1l1.5,0.9C222.7,91.4,222.9,91.2,222.9,91z"/>
	<path class="st3" d="M220.4,91.6l1.4-0.1l-1.5-0.9c-0.2,0-0.4,0.2-0.4,0.5l0,0.1C220,91.5,220.2,91.6,220.4,91.6z"/>
	<path class="st3" d="M215.4,75.4L218,113l9.9-0.7l-2.6-37.7L215.4,75.4z M219.1,84.7l0.4,0l0.1,0.7c0,0.3,0.2,0.4,0.4,0.4l0.6,0
		l0-0.5c0-0.6,0.2-0.9,0.8-1l0.6,0c0.6,0,0.9,0.3,1,0.8l0,0.2c0,0.5-0.2,0.9-0.8,0.9l-1.9,0.1c-0.6,0-0.9-0.3-1-0.9L219.1,84.7z
		 M219.3,88l3.3-0.2l0-0.6l0.4,0l0.1,1.7l-0.4,0l0-0.7l-2.9,0.2l0.3,0.7l-0.4,0l-0.3-0.7L219.3,88z M219.6,91.1c0-0.5,0.2-0.9,0.8-1
		l1.9-0.1c0.6,0,0.9,0.3,1,0.8l0,0.1c0,0.5-0.2,0.9-0.8,1l-1.9,0.1c-0.6,0-0.9-0.3-1-0.8L219.6,91.1z M223.1,94.7l-1.3-0.8
		c-0.5-0.3-0.5-0.3-0.9-0.3l-0.4,0c-0.2,0-0.4,0.2-0.4,0.5l0,0.6l-0.4,0l0-0.6c0-0.6,0.2-1,0.8-1l0.2,0c0.5,0,0.7,0.1,1.1,0.3
		l1.2,0.7l-0.1-1.3l0.4,0l0.1,1.8L223.1,94.7z"/>
	<path class="st3" d="M169.2,111c-0.2,0-0.3,0.3-0.3,0.5l0,0.1l0.6,0C169.5,111.2,169.5,111,169.2,111z"/>
	<path class="st3" d="M209.3,109.1c-0.2,0.1-0.3,0.2-0.3,0.4c0,0.2,0.1,0.3,0.3,0.3c0.2,0,0.4-0.1,0.4-0.4l0-0.5
		C209.5,109.1,209.4,109.1,209.3,109.1z"/>
	<path class="st3" d="M222.1,85.7c0.2,0,0.4-0.2,0.4-0.4l0-0.1c0-0.3-0.2-0.4-0.4-0.4l-0.8,0.1c-0.2,0-0.3,0.1-0.3,0.4l0,0.6
		L222.1,85.7z"/>
	<path class="st3" d="M177.9,91.9c0.2,0,0.3-0.1,0.3-0.1c0.1-0.1,0.1-0.2,0.1-0.3l-0.1-1.6c0-0.2-0.1-0.3-0.1-0.3
		c-0.1-0.1-0.1-0.1-0.1-0.1c-0.1,0-0.1,0-0.2,0l-0.3,0l0.2,2.5L177.9,91.9z"/>
	<path class="st3" d="M158.1,112.4l-0.3,0l0.1,1l0.2,0c0.3,0,0.5-0.1,0.5-0.5C158.6,112.4,158.4,112.3,158.1,112.4z"/>
	<path class="st3" d="M198.7,93.4c0,0,0.1,0,0.2,0c0.3-0.1,0.5-0.4,0.5-0.9l-0.3-3.3c0-0.6-0.3-0.8-0.8-0.8l-0.7,0.1l0.4,5
		L198.7,93.4z"/>
	<path class="st3" d="M198,94.9l0.4,5.3l0.8-0.1c0,0,0.1,0,0.2,0c0.3-0.1,0.5-0.4,0.5-0.9l-0.3-3.6c0-0.6-0.3-0.8-0.8-0.8L198,94.9z
		"/>
	<polygon class="st3" points="181.1,91.9 181,91.5 181,91.9 180.9,94.1 181.5,94 	"/>
	<path class="st3" d="M168.9,96.1c0.1,0,0.1,0.1,0.2,0.1c0.1,0,0.2,0,0.2-0.1c0-0.1,0.1-0.1,0.1-0.3l-0.4-5.4c0-0.1,0-0.2-0.1-0.3
		c-0.1,0-0.1-0.1-0.2-0.1c-0.1,0-0.2,0-0.2,0.1c0,0.1-0.1,0.1-0.1,0.3l0.4,5.4C168.8,96,168.9,96.1,168.9,96.1z"/>
	<path class="st3" d="M158.4,111.5c0-0.3-0.2-0.4-0.5-0.4l-0.2,0l0.1,0.8l0.2,0C158.3,111.9,158.5,111.8,158.4,111.5z"/>
	<path class="st3" d="M238.8,98.7c-0.9,0.1-1.7-0.7-1.7-1.7c-0.1-1,0.6-1.8,1.5-1.9l0-0.6c-0.9,0.1-1.7-0.7-1.7-1.7
		c-0.1-1,0.6-1.8,1.5-1.9c0,0,0,0,0,0l0-0.3l0-0.3c-0.9,0.1-1.7-0.7-1.7-1.7c-0.1-1,0.6-1.8,1.5-1.9l0-0.6c-0.9,0.1-1.7-0.7-1.7-1.7
		c-0.1-1,0.6-1.8,1.5-1.9l0-0.3l0-0.3c0,0,0,0,0,0c-0.9,0.1-1.7-0.7-1.7-1.7c-0.1-1,0.6-1.8,1.5-1.9l-0.1-1
		c-4.7-0.2-8.6-4.1-9.3-9.2l-82.2,5.8c0,5.2-3.3,9.6-7.9,10.4l0.1,1c0.1,0,0.1,0,0.2,0c0.9-0.1,1.7,0.7,1.7,1.7
		c0.1,1-0.6,1.8-1.5,1.9c-0.1,0-0.1,0-0.2,0l0,0.6c0.1,0,0.1,0,0.2,0c0.9-0.1,1.7,0.7,1.8,1.7c0.1,1-0.6,1.8-1.5,1.9
		c-0.1,0-0.1,0-0.2,0l0,0.6c0.1,0,0.1,0,0.2,0c0.9-0.1,1.7,0.7,1.8,1.7c0.1,1-0.6,1.8-1.5,1.9c-0.1,0-0.1,0-0.2,0l0,0.6
		c0.1,0,0.1,0,0.2,0c0.9-0.1,1.7,0.7,1.7,1.7c0.1,1-0.6,1.8-1.5,1.9c-0.1,0-0.1,0-0.2,0l0,0.6c0.1,0,0.1,0,0.2,0
		c0.9-0.1,1.7,0.7,1.7,1.7c0.1,1-0.6,1.8-1.5,1.9c-0.1,0-0.1,0-0.2,0l0,0.6c0.1,0,0.1,0,0.2,0c0.9-0.1,1.7,0.7,1.7,1.7
		c0.1,1-0.6,1.8-1.5,1.9c-0.1,0-0.1,0-0.2,0l0,0.6c0.1,0,0.1,0,0.2,0c0.9-0.1,1.7,0.7,1.8,1.7c0.1,1-0.6,1.8-1.5,1.9
		c-0.1,0-0.1,0-0.2,0l0.1,1c4.7,0.2,8.6,4.1,9.3,9.2l82.2-5.8c0-5.2,3.3-9.6,7.9-10.4l-0.1-1c-0.9,0.1-1.7-0.7-1.7-1.7
		c-0.1-1,0.6-1.8,1.5-1.9l0-0.6c-0.9,0.1-1.7-0.7-1.7-1.7c-0.1-1,0.6-1.8,1.5-1.9l0-0.4L238.8,98.7
		C238.8,98.7,238.8,98.7,238.8,98.7z M151.5,118.3l-2.7-38.8l77.1-5.4l2.7,38.8L151.5,118.3z"/>
	<path class="st2" d="M148.8,79.5l2.7,38.8l77.1-5.4l-2.7-38.8L148.8,79.5z M152,117.7L149.4,80l65.5-4.6l2.6,37.7L152,117.7z
		 M218,113l-2.6-37.7l9.9-0.7l2.6,37.7L218,113z"/>
	<path class="st2" d="M185.6,110.1c0-0.4-0.2-0.7-0.9-0.7c-0.5,0-0.8,0.2-0.8,0.8l0,0.1l0.6,0l0-0.1c0-0.2,0.1-0.3,0.3-0.3
		c0.2,0,0.3,0.1,0.3,0.3c0,0.2,0,0.2-0.2,0.3l-0.3,0.1c-0.4,0.1-0.6,0.3-0.6,0.8c0,0.3,0.2,0.7,0.6,0.6c0.3,0,0.5-0.1,0.6-0.4h0
		c0,0.1,0,0.2,0.1,0.2l0.6,0c-0.1-0.1-0.1-0.2-0.1-0.5L185.6,110.1z M184.7,111.6c-0.2,0-0.2-0.1-0.3-0.3c0-0.2,0.1-0.3,0.3-0.4
		c0.1,0,0.2-0.1,0.3-0.1l0,0.5C185.1,111.4,184.9,111.6,184.7,111.6z"/>
	<path class="st2" d="M158.6,112.1L158.6,112.1c0.3-0.1,0.5-0.4,0.4-0.7c0-0.6-0.4-0.8-1-0.7l-1.1,0.1l0.2,3.2l1.1-0.1
		c0.7-0.1,1-0.5,0.9-1C159.2,112.4,159,112.1,158.6,112.1z M157.7,111.1l0.2,0c0.3,0,0.5,0.1,0.5,0.4c0,0.3-0.1,0.4-0.5,0.5l-0.2,0
		L157.7,111.1z M158.1,113.3l-0.2,0l-0.1-1l0.3,0c0.3,0,0.5,0.1,0.5,0.4C158.6,113.2,158.4,113.3,158.1,113.3z"/>
	
		<rect x="184.8" y="109.9" transform="matrix(-6.991058e-002 -0.9976 0.9976 -6.991058e-002 89.5089 303.8947)" class="st2" width="3.2" height="0.6"/>
	<path class="st2" d="M180.1,109.8c-0.7,0-0.9,0.5-0.9,1.3c0.1,0.8,0.3,1.3,1,1.2c0.7,0,0.9-0.5,0.9-1.3
		C181.1,110.2,180.8,109.7,180.1,109.8z M180.3,111.9c-0.3,0-0.4-0.3-0.4-0.8c0-0.5,0-0.8,0.3-0.9c0.2,0,0.3,0.2,0.4,0.8
		C180.6,111.6,180.5,111.9,180.3,111.9z"/>
	<path class="st2" d="M182.7,109.6c-0.3,0-0.5,0.1-0.6,0.4l0,0l0-0.3l-0.6,0l0.2,2.4l0.6,0l-0.1-1.6c0-0.3,0.1-0.4,0.3-0.4
		c0.2,0,0.3,0.1,0.3,0.3l0.1,1.6l0.6,0l-0.1-1.8C183.3,109.8,183.1,109.6,182.7,109.6z"/>
	
		<rect x="190.5" y="109.5" transform="matrix(-6.994873e-002 -0.9976 0.9976 -6.994873e-002 95.9633 309.1172)" class="st2" width="3.2" height="0.6"/>
	<polygon class="st2" points="190.1,109.6 189.1,109.7 189,109 190.1,108.9 190.1,108.4 188.3,108.5 188.6,111.7 189.2,111.6 
		189.1,110.2 190.2,110.2 	"/>
	
		<rect x="177.3" y="110.9" transform="matrix(-6.998597e-002 -0.9975 0.9975 -6.998597e-002 80.0935 297.0048)" class="st2" width="2.4" height="0.6"/>
	<polygon class="st2" points="199.3,109 198.2,109.1 198.1,108.3 199.3,108.3 199.2,107.7 197.5,107.9 197.7,111 198.3,111 
		198.2,109.6 199.3,109.5 	"/>
	<path class="st2" d="M195.2,108.7c-0.3,0-0.5,0.2-0.6,0.4h0c-0.1-0.2-0.3-0.4-0.6-0.3c-0.3,0-0.4,0.1-0.6,0.4h0l0-0.2l-0.6,0
		l0.2,2.4l0.6,0l-0.1-1.6c0-0.3,0.1-0.4,0.3-0.4c0.2,0,0.2,0.1,0.3,0.3l0.1,1.7l0.6,0l-0.1-1.6c0-0.3,0.1-0.4,0.3-0.4
		c0.2,0,0.2,0.1,0.3,0.3l0.1,1.7l0.6,0l-0.1-1.7C195.8,108.9,195.6,108.7,195.2,108.7z"/>
	
		<rect x="189.7" y="110" transform="matrix(-6.993538e-002 -0.9976 0.9976 -6.993538e-002 94.2713 308.4851)" class="st2" width="2.4" height="0.6"/>
	
		<rect x="162.2" y="111.5" transform="matrix(-6.975531e-002 -0.9976 0.9976 -6.975531e-002 63.7127 283.0135)" class="st2" width="3.2" height="0.6"/>
	<polygon class="st2" points="161,110.4 161.1,111.6 160.3,111.7 160.3,110.5 159.6,110.5 159.8,113.7 160.5,113.6 160.4,112.2 
		161.1,112.2 161.2,113.6 161.9,113.5 161.6,110.4 	"/>
	<path class="st2" d="M165.8,110.8c-0.3,0-0.5,0.1-0.6,0.4h0l0-0.3l-0.6,0l0.2,2.4l0.6,0l-0.1-1.6c0-0.3,0.1-0.4,0.3-0.4
		c0.2,0,0.3,0.1,0.3,0.3l0.1,1.6l0.6,0l-0.1-1.8C166.5,111,166.2,110.8,165.8,110.8z"/>
	<path class="st2" d="M171.7,110.4c-0.3,0-0.4,0.2-0.5,0.4l0,0l0-0.3l-0.6,0l0.2,2.4l0.6,0l-0.1-1.4c0-0.3,0.2-0.4,0.4-0.5
		c0.1,0,0.1,0,0.2,0l0-0.6C171.7,110.4,171.7,110.4,171.7,110.4z"/>
	<path class="st2" d="M173.3,110.3c-0.3,0-0.5,0.1-0.6,0.4h0l0-0.3l-0.6,0l0.2,2.4l0.6,0l-0.1-1.6c0-0.3,0.1-0.4,0.3-0.4
		c0.2,0,0.3,0.1,0.3,0.3l0.1,1.7l0.6,0l-0.1-1.8C173.9,110.4,173.7,110.2,173.3,110.3z"/>
	<path class="st2" d="M176.2,110.8c0-0.4-0.2-0.7-0.9-0.7c-0.5,0-0.8,0.2-0.8,0.8l0,0.1l0.6,0l0-0.1c0-0.2,0.1-0.3,0.3-0.3
		c0.2,0,0.3,0.1,0.3,0.3c0,0.2,0,0.2-0.2,0.3l-0.3,0.1c-0.4,0.1-0.6,0.3-0.6,0.8c0,0.3,0.2,0.7,0.6,0.6c0.3,0,0.5-0.1,0.6-0.4h0
		c0,0.1,0,0.2,0.1,0.2l0.6,0c-0.1-0.1-0.1-0.2-0.1-0.5L176.2,110.8z M175.3,112.2c-0.2,0-0.2-0.1-0.3-0.3c0-0.2,0.1-0.3,0.3-0.4
		c0.1,0,0.2-0.1,0.3-0.1l0,0.5C175.7,112.1,175.5,112.2,175.3,112.2z"/>
	<path class="st2" d="M177.8,112c-0.2,0-0.2-0.1-0.2-0.2l-0.1-1.3l0.4,0l0-0.4l-0.4,0l0-0.7l-0.6,0l0,0.7l-0.3,0l0,0.4l0.3,0
		l0.1,1.4c0,0.5,0.1,0.6,0.6,0.6c0.1,0,0.3,0,0.4-0.1l0-0.4C177.9,112,177.8,112,177.8,112z"/>
	<path class="st2" d="M170.2,111.7c-0.1-0.7-0.2-1.2-1-1.2c-0.8,0.1-0.9,0.7-0.9,1.3c0,0.6,0.1,1.3,1,1.2c0.6,0,0.8-0.4,0.8-0.9
		l-0.6,0c0,0.3-0.1,0.5-0.3,0.5c-0.2,0-0.3-0.3-0.3-0.5l0-0.2l1.2-0.1L170.2,111.7z M169,111.6L169,111.6c0-0.3,0-0.6,0.3-0.6
		c0.3,0,0.3,0.2,0.4,0.5L169,111.6z"/>
	<path class="st2" d="M168.1,112.7c-0.2,0-0.2-0.1-0.2-0.2l-0.1-1.3l0.4,0l0-0.4l-0.4,0l0-0.7l-0.6,0l0,0.7l-0.3,0l0,0.4l0.3,0
		l0.1,1.4c0,0.5,0.1,0.6,0.6,0.6c0.1,0,0.3,0,0.4-0.1l0-0.4C168.2,112.7,168.1,112.7,168.1,112.7z"/>
	<path class="st2" d="M201.4,109.5c-0.1-0.7-0.2-1.2-1-1.2c-0.8,0.1-0.9,0.7-0.9,1.3c0,0.6,0.1,1.3,1,1.2c0.6,0,0.8-0.4,0.8-0.9
		l-0.6,0c0,0.3-0.1,0.5-0.3,0.5c-0.2,0-0.3-0.3-0.3-0.5l0-0.2l1.2-0.1L201.4,109.5z M200.2,109.4L200.2,109.4c0-0.3,0-0.6,0.3-0.6
		c0.3,0,0.3,0.2,0.4,0.5L200.2,109.4z"/>
	<polygon class="st2" points="207.3,109.7 207.3,109.7 206.8,108 206.2,108 207,110.4 207.7,110.3 208.1,107.9 207.5,107.9 	"/>
	<path class="st2" d="M210.1,108.4c0-0.4-0.2-0.7-0.9-0.7c-0.5,0-0.8,0.2-0.8,0.8l0,0.1l0.6,0l0-0.1c0-0.2,0.1-0.3,0.3-0.3
		c0.2,0,0.3,0.1,0.3,0.3c0,0.2,0,0.2-0.2,0.3l-0.3,0.1c-0.4,0.1-0.6,0.3-0.6,0.8c0,0.3,0.2,0.7,0.6,0.6c0.3,0,0.5-0.1,0.6-0.4l0,0
		c0,0.1,0,0.2,0.1,0.2l0.6,0c-0.1-0.1-0.1-0.2-0.1-0.5L210.1,108.4z M209.3,109.9c-0.2,0-0.2-0.1-0.3-0.3c0-0.2,0.1-0.3,0.3-0.4
		c0.1,0,0.2-0.1,0.3-0.1l0,0.5C209.6,109.7,209.4,109.8,209.3,109.9z"/>
	
		<rect x="209.4" y="108.2" transform="matrix(-6.962177e-002 -0.9976 0.9976 -6.962177e-002 117.4552 326.5452)" class="st2" width="3.2" height="0.6"/>
	
		<rect x="204.4" y="109" transform="matrix(-6.960003e-002 -0.9976 0.9976 -6.960003e-002 110.9312 322.0006)" class="st2" width="2.4" height="0.6"/>
	<path class="st2" d="M202.9,109.3l-0.4-0.1c-0.2-0.1-0.3-0.1-0.3-0.3c0-0.2,0.1-0.3,0.3-0.3c0.2,0,0.3,0.1,0.3,0.3l0.6,0l0-0.1
		c0-0.4-0.3-0.7-0.9-0.6c-0.6,0-0.9,0.4-0.8,0.8c0,0.3,0.2,0.5,0.6,0.6l0.4,0.1c0.1,0,0.2,0.1,0.2,0.3c0,0.2-0.1,0.3-0.3,0.3
		c-0.2,0-0.3-0.1-0.3-0.3l0-0.1l-0.6,0l0,0.1c0,0.5,0.2,0.7,0.9,0.7c0.5,0,0.9-0.3,0.8-0.8C203.5,109.6,203.3,109.4,202.9,109.3z"/>
	<path class="st2" d="M204.9,110.1c-0.2,0-0.2-0.1-0.2-0.2l-0.1-1.3l0.4,0l0-0.4l-0.4,0l0-0.7l-0.6,0l0,0.7l-0.3,0l0,0.4l0.3,0
		l0.1,1.4c0,0.5,0.1,0.6,0.6,0.6c0.1,0,0.3,0,0.4-0.1l0-0.4C205,110.1,204.9,110.1,204.9,110.1z"/>
	<polygon class="st2" points="189.4,95.6 188.8,87.6 187.8,87.7 188.4,95.7 	"/>
	<path class="st2" d="M183.7,99.6c0.2,2.2,1,3.2,2.5,3.1c1.1-0.1,1.7-0.8,1.9-2.2c0,0,0,0,0,0c0,0,0-0.1,0-0.1l0-0.3
		c0-0.3,0-0.6,0-0.9l-0.1-1.8l-1.4,0.1l0.2,2.7c0,0,0,0.1,0,0.1c0,0,0,0,0,0.1c0,0.3-0.2,0.5-0.4,0.6c0,0-0.1,0-0.1,0
		c-0.1,0-0.1,0-0.2,0c-0.5,0-0.8-0.2-0.8-0.8l-0.8-10.1c0-0.6,0.2-0.9,0.7-0.9c0.5,0,0.8,0.2,0.8,0.8l0.2,2.3l1.4-0.1l-0.1-1.3
		c-0.2-2.2-1-3.2-2.4-3.1c-1.5,0.1-2.1,1.2-2,3.4L183.7,99.6z"/>
	<path class="st2" d="M174.1,89.7l0.5,7l1-0.1l-0.5-7l0.8-0.1l-0.1-1l-1.2,0.1c0,0,0,0,0,0l-1.3,0.1l0.1,1L174.1,89.7z"/>
	<polygon class="st2" points="161.8,97.7 160.9,86.2 163.2,97.6 164.4,97.5 165,85.9 165.9,97.4 167.2,97.3 166.1,82.6 163.9,82.8 
		163.5,93.4 161.5,83 159.3,83.1 160.4,97.8 	"/>
	<path class="st2" d="M170.7,91.3l0,0.2c0,0.3,0.1,0.6,0.3,1c0,0,0,0,0,0c0.1,0.2,0.3,0.4,0.5,0.7c0.2,0.2,0.4,0.5,0.5,0.6
		c0.2,0.3,0.3,0.6,0.3,0.9l0.1,0.9c0,0.1,0,0.2,0,0.3c0,0.1-0.1,0.1-0.2,0.1c0,0-0.1,0-0.1,0c0,0-0.1,0-0.1-0.1c0,0-0.1-0.1-0.1-0.3
		l-0.1-1.3h0l0-0.3l-1,0.1L171,95l0,0.2c0,0,0,0,0,0c0,0.1,0,0.2,0,0.4c0,0.1,0,0.1,0,0.2c0,0,0,0.1,0,0.1c0,0.1,0,0.2,0.1,0.2
		c0,0,0,0,0,0c0,0.1,0.1,0.1,0.1,0.2c0,0,0,0,0,0c0,0,0,0,0.1,0.1c0,0,0,0,0,0c0,0,0,0,0,0c0,0,0,0,0,0.1c0,0,0,0,0,0c0,0,0,0,0,0
		c0,0,0,0,0,0c0,0,0,0,0,0c0,0,0,0,0,0c0,0,0.1,0.1,0.1,0.1c0,0,0,0,0,0v0h0c0,0,0,0,0,0l0,0c0,0,0,0,0,0c0.1,0,0.2,0.1,0.2,0.1
		c0,0,0,0,0,0v0c0,0,0,0,0,0c0,0,0.1,0,0.2,0c0,0,0,0,0,0c0.1,0,0.1,0,0.2,0c0,0,0,0,0,0h0c0,0,0,0,0,0c0.1,0,0.1,0,0.2,0h0
		c0,0,0,0,0.1,0l0,0c0,0,0,0,0,0l0,0c0,0,0,0,0,0c0,0,0,0,0,0l0,0c0,0,0,0,0,0c0,0,0,0,0,0c0,0,0,0,0,0l0,0c0,0,0,0,0,0
		c0,0,0,0,0.1,0c0,0,0,0,0,0c0,0,0,0,0,0c0,0,0,0,0,0c0,0,0,0,0,0c0.1,0,0.1-0.1,0.1-0.1c0,0,0,0,0,0c0,0,0,0,0,0c0,0,0,0,0,0
		c0-0.1,0.1-0.1,0.1-0.2c0.2-0.3,0.2-0.8,0.2-1.4l0-0.5c0,0,0,0,0,0l0-0.2c0-0.3-0.1-0.6-0.3-1c0,0,0,0,0,0
		c-0.1-0.2-0.3-0.4-0.5-0.7c-0.2-0.2-0.4-0.5-0.5-0.6c-0.2-0.3-0.3-0.6-0.3-0.9l-0.1-0.9c0-0.1,0-0.2,0-0.3c0-0.1,0.1-0.1,0.2-0.1
		c0,0,0.1,0,0.1,0c0,0,0.1,0,0.1,0.1c0,0,0.1,0.1,0.1,0.3l0.1,1.3l1-0.1l-0.1-0.8c0,0,0,0,0,0c0-0.1,0-0.2,0-0.4c0-0.1,0-0.1,0-0.2
		c0,0,0-0.1,0-0.1c0-0.1-0.1-0.2-0.1-0.2c0,0,0,0,0,0c0-0.1-0.1-0.1-0.1-0.2c0,0,0,0,0,0c0,0,0,0-0.1-0.1c0,0,0,0,0,0c0,0,0,0,0,0
		c0,0,0,0,0-0.1c0,0,0,0,0,0c0,0,0,0,0,0c0,0,0,0,0,0c0,0,0,0,0,0c0,0,0,0,0,0c0,0-0.1-0.1-0.1-0.1c0,0,0,0,0,0v0c0,0,0,0,0,0v0
		c0,0,0,0,0,0c-0.1,0-0.2-0.1-0.2-0.1c0,0,0,0,0,0v0c0,0,0,0,0,0c0,0-0.1,0-0.1,0c0,0,0,0,0,0c-0.1,0-0.1,0-0.2,0c0,0,0,0,0,0l0,0
		c0,0,0,0,0,0c-0.1,0-0.1,0-0.2,0c0,0,0,0,0,0c0,0,0,0-0.1,0l0,0c0,0,0,0,0,0l0,0c0,0,0,0,0,0c0,0,0,0,0,0c0,0,0,0,0,0c0,0,0,0,0,0
		c0,0,0,0,0,0c0,0,0,0,0,0v0c0,0,0,0,0,0c0,0,0,0-0.1,0c0,0,0,0,0,0c0,0,0,0,0,0c0,0,0,0,0,0c0,0,0,0,0,0c-0.1,0-0.1,0.1-0.1,0.1
		c0,0,0,0,0,0c0,0,0,0,0,0c0,0,0,0,0,0c0,0.1-0.1,0.1-0.1,0.2c-0.2,0.3-0.2,0.8-0.2,1.4L170.7,91.3
		C170.7,91.3,170.7,91.3,170.7,91.3z"/>
	<polygon class="st2" points="191,95.5 190.7,91 191.8,95.4 192.9,95.3 192.3,87.4 191.4,87.4 191.8,91.9 190.6,87.5 189.5,87.6 
		190.1,95.6 	"/>
	<polygon class="st2" points="195.8,95.1 195.7,94.2 194.5,94.3 194.3,91.6 195,91.6 194.9,90.6 194.3,90.7 194.1,88.2 195.3,88.1 
		195.2,87.1 193,87.3 193.6,95.3 	"/>
	<polygon class="st2" points="203.6,101.3 203.1,94.5 204.6,94.4 205.1,101.2 206.6,101.1 205.5,86.4 204,86.5 204.5,93 203,93.1 
		202.5,86.6 201.1,86.7 202.2,101.4 	"/>
	<path class="st2" d="M177.9,96.5l-0.3-3.6l0.2,0l0.8,3.6l1-0.1l-0.9-3.8c0.2-0.2,0.3-0.4,0.4-0.6c0,0,0,0,0,0c0-0.1,0-0.1,0-0.1
		c0.1-0.3,0.1-0.6,0.1-0.9l-0.1-0.9c0-0.6-0.2-1-0.4-1.3c-0.3-0.3-0.6-0.4-1.1-0.4l-1.3,0.1l0.6,8L177.9,96.5z M177.7,89.4
		c0.1,0,0.2,0,0.2,0c0,0,0.1,0,0.1,0.1c0.1,0.1,0.1,0.2,0.1,0.3l0.1,1.6c0,0.2,0,0.3-0.1,0.3c-0.1,0.1-0.2,0.1-0.3,0.1l-0.3,0
		l-0.2-2.5L177.7,89.4z"/>
	<path class="st2" d="M200.1,93.8C200.1,93.8,200.1,93.8,200.1,93.8C200.1,93.8,200.1,93.9,200.1,93.8z"/>
	<path class="st2" d="M197,101.4C197,101.4,197,101.4,197,101.4l0,0.4l2.2-0.2c0.6,0,1-0.2,1.3-0.6c0.1-0.1,0.2-0.3,0.2-0.3
		c0.4-0.6,0.5-1.4,0.4-2.6l-0.1-1.5l0-0.2c-0.1-1.3-0.5-2.1-1.2-2.4c0.1-0.1,0.2-0.1,0.3-0.2c0,0,0,0,0,0c0.2-0.2,0.3-0.4,0.4-0.7
		c0,0,0,0,0,0c0.2-0.4,0.2-1,0.1-1.7l-0.1-1.5c-0.2-2.2-1-3.2-2.5-3.1l-2.2,0.2L197,101.4C197,101.4,197,101.4,197,101.4z
		 M199.6,95.7l0.3,3.6c0,0.5-0.1,0.8-0.5,0.9c-0.1,0-0.2,0-0.2,0l-0.8,0.1l-0.4-5.3l0.7-0.1C199.2,94.8,199.5,95.1,199.6,95.7z
		 M198.3,88.4c0.5,0,0.8,0.2,0.8,0.8l0.3,3.3c0,0.5-0.1,0.8-0.5,0.9c-0.1,0-0.2,0-0.2,0l-0.8,0.1l-0.4-5L198.3,88.4z"/>
	<path class="st2" d="M167.8,95.7c0,0.1,0,0.2,0.1,0.3c0.1,0.3,0.2,0.6,0.3,0.7c0,0,0,0,0,0h0c0,0,0,0,0,0c0,0,0,0,0,0c0,0,0,0,0,0
		c0,0,0.1,0.1,0.1,0.1c0,0,0,0,0,0v0c0,0,0.1,0.1,0.1,0.1c0.2,0.2,0.5,0.2,0.8,0.2h0c0.1,0,0.1,0,0.2,0c0.2,0,0.3-0.1,0.4-0.2l0,0
		c0.1-0.1,0.2-0.2,0.3-0.3c0.2-0.3,0.3-0.8,0.2-1.4c0,0-0.4-4.5-0.4-4.6c0,0,0,0,0,0c0-0.1,0-0.2-0.1-0.3c-0.1-0.3-0.2-0.6-0.3-0.7
		c0,0,0,0,0,0l0,0c0,0,0,0,0,0c0,0,0,0,0,0c0,0,0,0,0,0c0,0-0.1-0.1-0.1-0.1c0,0,0,0,0,0v0c0,0-0.1-0.1-0.1-0.1
		c-0.2-0.2-0.5-0.2-0.8-0.2l0,0c-0.1,0-0.1,0-0.2,0c-0.2,0-0.3,0.1-0.4,0.2l0,0c-0.1,0.1-0.2,0.2-0.3,0.3c-0.2,0.3-0.3,0.8-0.2,1.4
		C167.5,91.1,167.8,95.6,167.8,95.7L167.8,95.7z M168.5,90.2c0-0.1,0.1-0.1,0.2-0.1c0.1,0,0.2,0,0.2,0.1c0,0,0.1,0.1,0.1,0.3
		l0.4,5.4c0,0.1,0,0.2-0.1,0.3c0,0.1-0.1,0.1-0.2,0.1c-0.1,0-0.2,0-0.2-0.1c0,0-0.1-0.1-0.1-0.3l-0.4-5.4
		C168.4,90.4,168.4,90.3,168.5,90.2z"/>
	<path class="st2" d="M180.9,95.1l0.8-0.1l0.2,1.2l1-0.1l-1.7-7.9l-0.9,0.1l-0.4,8.1l1-0.1L180.9,95.1z M181,91.9l0-0.4L181,91.9
		l0.5,2.1l-0.6,0L181,91.9z"/>
	
		<rect x="156.8" y="105.8" transform="matrix(0.9976 -6.976146e-002 6.976146e-002 0.9976 -6.944 13.0889)" class="st2" width="54.3" height="0.4"/>
	<path class="st2" d="M223,92.9l0.1,1.3l-1.2-0.7c-0.4-0.2-0.6-0.3-1.1-0.3l-0.2,0c-0.6,0-0.9,0.4-0.8,1l0,0.6l0.4,0l0-0.6
		c0-0.3,0.2-0.5,0.4-0.5l0.4,0c0.4,0,0.4,0,0.9,0.3l1.3,0.8l0.5,0l-0.1-1.8L223,92.9z"/>
	<path class="st2" d="M220.5,92l1.9-0.1c0.6,0,0.9-0.4,0.8-1l0-0.1c0-0.5-0.4-0.9-1-0.8l-1.9,0.1c-0.6,0-0.9,0.4-0.8,1l0,0.1
		C219.6,91.7,219.9,92.1,220.5,92z M222.4,90.5c0.2,0,0.4,0.1,0.4,0.4l0,0.1c0,0.3-0.2,0.5-0.4,0.5l-1.5-0.9L222.4,90.5z
		 M220.3,90.6l1.5,0.9l-1.4,0.1c-0.2,0-0.4-0.1-0.4-0.4l0-0.1C219.9,90.8,220.1,90.6,220.3,90.6z"/>
	<polygon class="st2" points="220.1,89.1 219.8,88.4 222.7,88.2 222.7,88.9 223.1,88.9 223,87.1 222.6,87.2 222.7,87.8 219.3,88 
		219.4,88.5 219.7,89.2 	"/>
	<path class="st2" d="M220.1,86.3l1.9-0.1c0.6,0,0.9-0.5,0.8-0.9l0-0.2c0-0.5-0.4-0.8-1-0.8l-0.6,0c-0.6,0-0.8,0.4-0.8,1l0,0.5
		l-0.6,0c-0.2,0-0.4-0.1-0.4-0.4l-0.1-0.7l-0.4,0l0,0.7C219.2,86,219.5,86.3,220.1,86.3z M221.3,84.8l0.8-0.1c0.2,0,0.4,0.1,0.4,0.4
		l0,0.1c0,0.3-0.2,0.4-0.4,0.4l-1.1,0.1l0-0.6C220.9,84.9,221,84.8,221.3,84.8z"/>
	<path class="st2" d="M35.3,3.5L11.3,3.4l0.6,6.6C12.7,20.3,8.7,25.8,0,26.4l1.4,20.3l13-0.9l11.3,162.3l23.7-1.7L35.3,3.5z"/>
	<path class="st2" d="M59.3,160.9c2.1,29.8,15,43.8,38.6,42.2c23.7-1.7,34.5-17.4,32.4-47.1l-7.9-113.6c-2.1-29.8-15-43.8-38.6-42.2
		C60.1,1.8,49.3,17.5,51.4,47.3L59.3,160.9z M85.2,20.4c7.9-0.6,12.1,3.1,12.6,10.8l9.7,139c0.5,7.8-3.1,11.9-11,12.5
		c-7.9,0.6-12.1-3.1-12.6-10.8l-9.7-139C73.6,25.1,77.3,21,85.2,20.4z"/>
	<path class="st2" d="M143.4,148.6c1.8-0.1,2.8,0.9,3,2.9l0.6,8.4l5.2-0.4l-0.3-5c-0.6-8-3.5-11.8-8.8-11.5
		c-5.5,0.4-7.9,4.6-7.4,12.6l2.1,30.6c0.6,8,3.6,11.8,9,11.4c5.3-0.4,7.6-4.6,7.1-12.6l-0.5-6.8l-5.2,0.4L149,189
		c0.1,2.1-0.7,3.2-2.5,3.3c-1.8,0.1-2.8-0.9-3-3l-2.6-37.4C140.8,149.9,141.6,148.8,143.4,148.6z"/>
	
		<rect x="157" y="142.1" transform="matrix(0.9976 -6.974272e-002 6.974272e-002 0.9976 -11.4303 11.5499)" class="st2" width="5.5" height="54.8"/>
	<polygon class="st2" points="171.4,141.2 164.9,141.7 168.7,196.3 173.6,195.9 170.9,156.5 172.3,163.8 180.3,195.5 186.9,195 
		183,140.4 178.1,140.7 180.9,180.1 179.2,171.9 	"/>
	<polygon class="st2" points="201.3,139.1 187.4,140.1 191.2,194.7 205.1,193.7 204.7,188.3 196.3,188.9 194.9,169.2 199.7,168.9 
		199.3,163.4 194.6,163.7 193.3,145.2 201.7,144.6 	"/>
	<path class="st2" d="M222.4,155.2l-0.4-5.5c-0.6-8-3.6-11.8-9-11.4l-8.2,0.6l3.8,54.6l8.2-0.6c5.5-0.4,7.9-4.6,7.4-12.6l-0.5-6.6
		c-0.3-4.9-1.9-7.9-4.5-9C221.7,163.3,222.8,160.1,222.4,155.2z M210.7,143.9l2.7-0.2c1.8-0.1,2.8,0.9,3,2.9l0.9,12.3
		c0.1,2.1-0.7,3.2-2.4,3.3l-2.8,0.2L210.7,143.9z M216.5,187.5l-2.7,0.2l-1.4-19.7l2.8-0.2c1.8,0,2.7,1,2.9,3l0.9,13.4
		C219.1,186.2,218.3,187.3,216.5,187.5z"/>
	<polygon class="st2" points="231,137 225.6,137.4 229.4,192 234.9,191.7 233.1,166.5 238.6,166.1 240.3,191.3 245.8,190.9 
		242,136.3 236.5,136.6 238.2,160.7 232.7,161.1 	"/>
	
		<rect x="11.8" y="238.4" transform="matrix(-6.975880e-002 -0.9976 0.9976 -6.975880e-002 -199.782 295.8332)" class="st2" width="52.5" height="5.2"/>
	<polygon class="st2" points="50.2,235.6 57.8,266 64.1,265.5 60.4,213.2 55.7,213.5 58.4,251.3 56.7,243.4 49.3,214 43,214.4 
		46.7,266.8 51.4,266.4 48.7,228.7 	"/>
	<polygon class="st2" points="78.4,211.9 62.7,213 63.1,218.3 68.3,217.9 71.6,265 76.8,264.7 73.5,217.5 78.8,217.2 	"/>
	<polygon class="st2" points="97.6,263.2 97.3,258 89.2,258.5 87.9,239.7 92.5,239.4 92.1,234.1 87.5,234.4 86.3,216.7 94.3,216.1 
		94,210.9 80.7,211.8 84.4,264.1 	"/>
	<path class="st2" d="M115.3,226.2l-0.4-5.8c-0.5-7.3-3.7-10.8-9.5-10.4l-8,0.6L101,263l5.2-0.4l-1.7-24.1l2.7-0.2l5,23.8l5.3-0.4
		l-5.7-25C114.5,234.6,115.6,231,115.3,226.2z M107.1,233.1l-2.9,0.2l-1.2-17.8l2.8-0.2c2.3-0.2,3.5,0.9,3.7,3.3l0.8,10.7
		C110.4,231.7,109.4,232.9,107.1,233.1z"/>
	<polygon class="st2" points="132.1,260.8 138.4,260.3 134.7,208 130,208.3 132.7,246.1 131.1,238.2 123.6,208.8 117.3,209.2 
		121,261.6 125.7,261.2 123.1,223.5 124.5,230.4 	"/>
	<path class="st2" d="M143.8,207.4l-3.3,52.8l5.3-0.4l0.4-7.9l6.7-0.5l1.5,7.8l5.3-0.4L149.1,207L143.8,207.4z M146.5,246.2
		l0.8-14.9l0.1-9.3l1.5,9.2l2.8,14.6L146.5,246.2z"/>
	<polygon class="st2" points="154.3,211.9 159.6,211.5 162.9,258.6 168.1,258.3 164.8,211.2 170,210.8 169.7,205.6 154,206.7 	"/>
	
		<rect x="150.2" y="228.8" transform="matrix(6.973680e-002 0.9976 -0.9976 6.973680e-002 394.9399 39.2662)" class="st2" width="52.5" height="5.2"/>
	<path class="st2" d="M182.2,216.3l2,29.3c0.5,7.7,3.4,11.3,8.7,11c5.2-0.4,7.6-4.4,7-12.1l-2-29.3c-0.5-7.7-3.4-11.3-8.7-11
		C184,204.6,181.7,208.6,182.2,216.3z M189.6,209.4c1.7-0.1,2.7,0.8,2.8,2.8l2.5,35.9c0.1,2-0.7,3.1-2.4,3.2
		c-1.7,0.1-2.7-0.8-2.8-2.8l-2.5-35.9C187.1,210.6,187.9,209.6,189.6,209.4z"/>
	<polygon class="st2" points="207.6,202.9 201.3,203.4 204.9,255.7 209.7,255.4 207,217.6 208.4,224.5 216.1,254.9 222.3,254.5 
		218.7,202.1 214,202.5 216.6,240.2 215,232.4 	"/>
	<path class="st2" d="M229.7,254l0.4-7.9l6.7-0.5l1.5,7.8l5.3-0.4L233,201.1l-5.3,0.4l-3.3,52.8L229.7,254z M231.2,225.5l0.1-9.3
		l1.5,9.2l2.8,14.6l-5.2,0.4L231.2,225.5z"/>
	<polygon class="st2" points="250.6,247.2 247.3,200.1 242,200.5 245.7,252.8 259,251.9 258.6,246.7 	"/>
	<polygon class="st2" points="68.3,274.6 55,275.5 58.7,327.9 63.9,327.5 62.3,303.4 66.8,303.1 66.5,297.9 61.9,298.2 60.6,280.4 
		68.7,279.8 	"/>
	
		<rect x="49.6" y="297.7" transform="matrix(-6.975763e-002 -0.9976 0.9976 -6.975763e-002 -218.4817 396.9734)" class="st2" width="52.5" height="5.2"/>
	<polygon class="st2" points="89.4,320.5 86.1,273.3 80.8,273.7 84.5,326.1 97.8,325.1 97.4,319.9 	"/>
	<polygon class="st2" points="113.1,271.4 111.7,300 111.5,309.2 110,300 104.6,272 96.9,272.6 100.6,324.9 105.3,324.6 
		102.4,283.7 103.4,289.4 110.4,324.2 114.7,323.9 116.9,288.9 117.1,282.6 119.9,323.6 124.7,323.2 121,270.9 	"/>
	<polygon class="st2" points="146.5,269.1 133.2,270 136.9,322.4 142.1,322 140.4,297.9 145,297.6 144.7,292.4 140.1,292.7 
		138.8,274.9 146.9,274.4 	"/>
	<polygon class="st2" points="166.2,315.1 158.1,315.6 156.8,296.8 161.4,296.5 161,291.2 156.4,291.6 155.2,273.8 163.2,273.2 
		162.9,268 149.6,268.9 153.2,321.2 166.5,320.3 	"/>
	<path class="st2" d="M184,307.5l-0.3-4.6c-0.2-3.1-2.1-6.7-5.6-10.7c-3.5-4-5.4-7.2-5.5-9.5l-0.5-7.1c-0.1-2,0.5-3.1,2-3.2
		c1.5-0.1,2.3,0.8,2.4,2.9l0.6,8l5.2-0.4l-0.3-4.8c-0.5-7.7-3.3-11.3-8.3-11c-5,0.3-7.2,4.4-6.7,12l0.2,3.3c0.3,4,2.2,7.9,5.7,11.8
		c3.5,3.9,5.4,7.5,5.6,10.7l0.4,6c0.1,2-0.5,3.1-2,3.2c-1.5,0.1-2.3-0.8-2.4-2.9l-0.7-9.7l-5.2,0.4l0.5,6.5c0.5,7.7,3.3,11.3,8.3,11
		C182.4,319.2,184.6,315.2,184,307.5z"/>
	<polygon class="st2" points="199.2,265.4 183.5,266.5 183.8,271.8 189.1,271.4 192.4,318.5 197.6,318.1 194.3,271 199.5,270.7 	"/>
	
		<rect x="179.7" y="288.6" transform="matrix(6.973796e-002 0.9976 -0.9976 6.973796e-002 482.1082 65.5341)" class="st2" width="52.5" height="5.2"/>
	<polygon class="st2" points="221.1,292.3 221,301.6 219.5,292.3 214.1,264.4 208.8,264.8 219.4,316.6 224.7,316.2 228,263.4 
		222.7,263.8 	"/>
	<path class="st2" d="M247.9,314.6l-10.6-51.9l-5.3,0.4l-3.3,52.8l5.3-0.4l0.4-7.9l6.7-0.5l1.5,7.8L247.9,314.6z M234.7,302
		l0.8-14.9l0.1-9.3l1.5,9.2l2.8,14.6L234.7,302z"/>
	<polygon class="st2" points="262.9,308.3 254.8,308.9 251.5,261.8 246.3,262.1 249.9,314.5 263.2,313.6 	"/>
	<path class="st2" d="M175.4,332.9c-0.1,0.3-0.3,0.6-0.5,1c-0.2,0.4-0.5,0.8-0.9,1.4c-0.3,0.4-0.5,0.8-0.6,1.1
		c-0.2,0.3-0.3,0.6-0.3,0.9c-0.1,0.3-0.1,0.6-0.1,1c0,0.3,0,0.7,0,1.1l0.2,2.7l4.6-0.3l-0.1-1.3l-3.3,0.2l-0.1-1.4c0-0.4,0-0.7,0-1
		c0-0.3,0.1-0.6,0.1-0.9c0.1-0.3,0.2-0.6,0.4-0.9c0.2-0.3,0.5-0.8,0.8-1.3c0.2-0.4,0.5-0.7,0.6-1c0.2-0.3,0.3-0.7,0.4-1
		c0.1-0.3,0.2-0.7,0.2-1c0-0.4,0.1-0.7,0-1.1l-0.1-1.7c-0.1-0.9-0.3-1.5-0.7-1.9c-0.4-0.4-1-0.6-1.8-0.5c-0.8,0.1-1.3,0.3-1.7,0.7
		c-0.3,0.4-0.5,1.1-0.4,2l0.2,2.6l1.3-0.1l-0.2-2.6c0-0.4,0-0.7,0.1-0.9c0.1-0.2,0.4-0.3,0.7-0.4c0.6,0,1,0.3,1.1,1.1l0.1,1.6
		c0,0.3,0,0.7,0,0.9C175.6,332.3,175.6,332.6,175.4,332.9z"/>
	<path class="st2" d="M183,341c0.4-0.5,0.5-1.1,0.4-1.9l-0.7-10.1c-0.1-0.8-0.3-1.4-0.7-1.8c-0.4-0.4-1-0.6-1.9-0.5
		c-0.8,0.1-1.4,0.3-1.8,0.8c-0.4,0.5-0.5,1.1-0.4,1.9l0.7,10.1c0.1,0.8,0.3,1.4,0.7,1.8c0.4,0.4,1,0.6,1.9,0.5
		C182,341.7,182.6,341.4,183,341z M180,339.3l-0.7-10.1c-0.1-0.8,0.3-1.2,0.9-1.2c0.7,0,1.1,0.3,1.1,1.1l0.7,10.1
		c0.1,0.8-0.3,1.2-1,1.2C180.4,340.5,180.1,340.1,180,339.3z"/>
	
		<rect x="184.7" y="333.2" transform="matrix(-0.9976 6.995390e-002 -6.995390e-002 -0.9976 395.0806 653.5811)" class="st2" width="2.8" height="1.1"/>
	<path class="st2" d="M191.9,331.8c-0.1,0.3-0.3,0.6-0.5,1c-0.2,0.4-0.5,0.8-0.9,1.4c-0.3,0.4-0.5,0.8-0.6,1.1
		c-0.2,0.3-0.3,0.6-0.3,0.9c-0.1,0.3-0.1,0.6-0.1,1c0,0.3,0,0.7,0,1.1l0.2,2.7l4.6-0.3l-0.1-1.3l-3.3,0.2l-0.1-1.4c0-0.4,0-0.7,0-1
		c0-0.3,0.1-0.6,0.1-0.9c0.1-0.3,0.2-0.6,0.4-0.9c0.2-0.3,0.5-0.8,0.8-1.3c0.2-0.4,0.5-0.7,0.6-1c0.2-0.3,0.3-0.7,0.4-1
		c0.1-0.3,0.2-0.7,0.2-1c0-0.4,0.1-0.7,0-1.1l-0.1-1.7c-0.1-0.9-0.3-1.5-0.7-1.9c-0.4-0.4-1-0.6-1.8-0.5c-0.8,0.1-1.3,0.3-1.7,0.7
		c-0.3,0.4-0.5,1.1-0.4,2l0.2,2.6l1.3-0.1l-0.2-2.6c0-0.4,0-0.7,0.1-0.9c0.1-0.2,0.4-0.3,0.7-0.4c0.6,0,1,0.3,1.1,1.1l0.1,1.6
		c0,0.3,0,0.7,0,0.9C192.1,331.2,192,331.5,191.9,331.8z"/>
	<path class="st2" d="M197.8,329.6c0.2-1,0.5-1.9,0.8-2.8l-0.1-1.3l-4.7,0.3l0.1,1.4l3.4-0.2c-0.1,0.3-0.3,0.8-0.6,1.5
		c-0.2,0.7-0.4,1.6-0.6,2.7c-0.2,1.1-0.3,2.4-0.4,4c-0.1,1.5-0.1,3.3,0.1,5.4l1.4-0.1c-0.1-1.5-0.2-2.9-0.1-4.1
		c0-1.3,0.1-2.5,0.2-3.6C197.4,331.7,197.6,330.6,197.8,329.6z"/>
	<path class="st2" d="M207.3,337.4l-0.7-10.1c-0.1-0.8-0.3-1.4-0.7-1.8c-0.4-0.4-1-0.6-1.8-0.5c-0.8,0.1-1.3,0.3-1.7,0.8
		c-0.4,0.5-0.5,1.1-0.4,1.9l0.7,10.1c0.1,0.8,0.3,1.4,0.7,1.8c0.4,0.4,1,0.6,1.8,0.5c0.8-0.1,1.4-0.3,1.7-0.8
		C207.3,338.9,207.4,338.2,207.3,337.4z M205.1,338.7c-0.6,0-1-0.3-1-1.1l-0.7-10.1c-0.1-0.8,0.2-1.2,0.9-1.2c0.6,0,1,0.3,1,1.1
		l0.7,10.1C206,338.3,205.7,338.7,205.1,338.7z"/>
	<path class="st2" d="M211,339.7c1.5-0.1,2.3-1,2.1-2.7l-0.9-12.4l-1.4,0.1l0.9,12.4c0.1,0.8-0.2,1.2-0.9,1.2c-0.6,0-1-0.3-1-1.1
		l-0.9-12.4l-1.4,0.1l0.9,12.4C208.6,339,209.5,339.8,211,339.7z"/>
	<polygon class="st2" points="217.8,324.2 213.1,324.5 213.2,325.9 214.8,325.8 215.8,339.2 217.2,339.1 216.2,325.7 217.9,325.6 	
		"/>
	<path class="st2" d="M223.2,323.8l-1.4,0.1l0.9,12.4c0.1,0.8-0.2,1.2-0.9,1.2c-0.6,0-1-0.3-1-1.1l-0.9-12.4l-1.4,0.1l0.9,12.4
		c0.1,1.7,0.9,2.5,2.5,2.4c1.5-0.1,2.3-1,2.1-2.7L223.2,323.8z"/>
	<path class="st2" d="M227.9,338.3c0.8-0.1,1.4-0.3,1.7-0.7c0.4-0.4,0.5-1.1,0.5-1.9l-0.2-3.5c0-0.5-0.2-0.9-0.4-1.2
		c-0.2-0.2-0.5-0.4-0.8-0.4c0.6-0.2,0.8-0.8,0.8-1.7l-0.2-3c-0.1-0.9-0.3-1.5-0.6-1.9c-0.4-0.4-0.9-0.5-1.7-0.5l-2.4,0.2l1,14.8
		L227.9,338.3z M228.4,332.5l0.2,3.3c0.1,0.8-0.2,1.2-0.9,1.2l-1,0.1l-0.4-5.6l1-0.1c0.4,0,0.6,0,0.8,0.2
		C228.3,331.8,228.4,332.1,228.4,332.5z M226.9,324.9c0.3,0,0.6,0,0.7,0.2c0.1,0.2,0.2,0.4,0.3,0.9l0.2,3.1c0,0.3,0,0.6-0.2,0.8
		c-0.1,0.2-0.4,0.3-0.7,0.3l-1,0.1l-0.4-5.2L226.9,324.9z"/>
	<path class="st2" d="M233.2,331.2c0,0,0.1,0,0.2,0c0.3,1.1,0.5,2.2,0.8,3.3c0.2,1.1,0.5,2.2,0.7,3.3l1.5-0.1
		c-0.3-1.1-0.5-2.3-0.8-3.4c-0.3-1.2-0.6-2.3-0.9-3.5c0.7-0.4,1-1.2,0.9-2.3l-0.2-3c-0.1-1-0.3-1.6-0.8-2c-0.5-0.4-1.1-0.5-2-0.5
		l-2.2,0.2l1,14.8l1.4-0.1l-0.5-6.7l0.7-0.1C233.1,331.2,233.1,331.2,233.2,331.2z M232.2,330.1l-0.4-5.5l0.9-0.1
		c0.5,0,0.8,0.1,1,0.3c0.2,0.2,0.3,0.6,0.3,1.1l0.2,2.8c0,0.4,0,0.7-0.2,0.9c-0.2,0.2-0.5,0.3-0.9,0.4L232.2,330.1z"/>
	<path class="st2" d="M237.6,337.2c0.4,0.4,1,0.6,1.8,0.5c0.8-0.1,1.4-0.3,1.7-0.8c0.4-0.5,0.5-1.1,0.4-1.9l-0.7-10.1
		c-0.1-0.8-0.3-1.4-0.7-1.8c-0.4-0.4-1-0.6-1.8-0.5c-0.8,0.1-1.3,0.3-1.7,0.8c-0.4,0.5-0.5,1.1-0.4,1.9l0.7,10.1
		C236.9,336.2,237.1,336.8,237.6,337.2z M238.4,324c0.6,0,1,0.3,1.1,1.1l0.7,10.1c0.1,0.8-0.2,1.2-0.9,1.2c-0.6,0-1-0.3-1-1.1
		l-0.7-10.1C237.5,324.4,237.8,324,238.4,324z"/>
	<path class="st2" d="M247.4,327.9c-0.1,0.3-0.3,0.6-0.5,1c-0.2,0.4-0.5,0.8-0.9,1.4c-0.3,0.4-0.5,0.8-0.6,1.1
		c-0.2,0.3-0.3,0.6-0.3,0.9c-0.1,0.3-0.1,0.6-0.1,1c0,0.3,0,0.7,0,1.1l0.2,2.7l4.6-0.3l-0.1-1.3l-3.3,0.2l-0.1-1.4c0-0.4,0-0.7,0-1
		c0-0.3,0.1-0.6,0.1-0.8c0.1-0.3,0.2-0.6,0.4-0.9c0.2-0.3,0.5-0.8,0.8-1.3c0.2-0.4,0.5-0.7,0.6-1c0.2-0.3,0.3-0.7,0.4-1
		c0.1-0.3,0.2-0.7,0.2-1c0-0.4,0.1-0.7,0-1.1l-0.1-1.7c-0.1-0.9-0.3-1.5-0.7-1.9c-0.4-0.4-1-0.6-1.8-0.5c-0.8,0.1-1.3,0.3-1.7,0.7
		c-0.3,0.4-0.5,1.1-0.4,2l0.2,2.6l1.3-0.1l-0.2-2.6c0-0.4,0-0.7,0.1-0.9c0.1-0.2,0.4-0.3,0.7-0.4c0.6,0,1,0.3,1.1,1.1l0.1,1.6
		c0,0.3,0,0.7,0,0.9C247.6,327.3,247.6,327.6,247.4,327.9z"/>
	<path class="st2" d="M255.4,334l-0.7-10.1c-0.1-0.8-0.3-1.4-0.7-1.8c-0.4-0.4-1-0.6-1.9-0.5c-0.8,0.1-1.4,0.3-1.8,0.8
		c-0.4,0.5-0.5,1.1-0.4,1.9l0.7,10.1c0.1,0.8,0.3,1.4,0.7,1.8c0.4,0.4,1,0.6,1.9,0.5c0.8-0.1,1.4-0.3,1.8-0.8
		C255.3,335.5,255.5,334.9,255.4,334z M253.1,335.4c-0.7,0-1.1-0.3-1.1-1.1l-0.7-10.1c-0.1-0.8,0.3-1.2,0.9-1.2
		c0.7,0,1.1,0.3,1.1,1.1l0.7,10.1C254.1,334.9,253.8,335.4,253.1,335.4z"/>
	<path class="st2" d="M255.9,322.6l-0.4,0l0.1,1.3l0.8-0.1l0.9,12.4l1.4-0.1l-1-14.8l-1.2,0.1l0,0.4c0,0.2,0,0.4-0.1,0.5
		C256.2,322.5,256.1,322.6,255.9,322.6z"/>
	<path class="st2" d="M263.9,335.3c0.4-0.5,0.5-1.1,0.4-1.9l-0.3-4.6c-0.1-0.8-0.3-1.4-0.6-1.8c-0.3-0.3-0.8-0.5-1.4-0.5
		c-0.4,0-0.7,0.1-0.9,0.3c-0.2,0.2-0.4,0.4-0.5,0.6l-0.3-3.9c0-0.4,0-0.6,0.2-0.9c0.1-0.2,0.4-0.3,0.7-0.3c0.3,0,0.6,0.1,0.7,0.2
		c0.2,0.2,0.3,0.5,0.3,0.8l0.2,2.6l1.3-0.1l-0.2-2.6c-0.1-0.8-0.3-1.4-0.7-1.8c-0.4-0.4-1-0.6-1.8-0.5c-0.8,0.1-1.3,0.3-1.7,0.8
		c-0.4,0.5-0.5,1.1-0.4,1.9l0.7,10.1c0.1,0.8,0.3,1.4,0.7,1.8c0.4,0.4,1,0.6,1.8,0.5C263,336,263.6,335.8,263.9,335.3z M261.3,334.4
		c-0.2-0.3-0.2-0.6-0.3-1.1l-0.3-4.4c0-0.3,0.1-0.5,0.2-0.7c0.2-0.2,0.4-0.3,0.7-0.3c0.3,0,0.6,0.1,0.8,0.3c0.2,0.2,0.3,0.5,0.3,1
		l0.3,4.3c0,0.4,0,0.7-0.2,0.9c-0.1,0.2-0.4,0.3-0.7,0.4C261.7,334.8,261.5,334.7,261.3,334.4z"/>
	<path class="st2" d="M167.2,349.3c-0.1-0.9-0.3-1.6-0.8-2c-0.4-0.4-1.1-0.6-2-0.5l-2.3,0.2l1,14.8l1.4-0.1l-0.5-7l1-0.1
		c0.9-0.1,1.5-0.3,1.9-0.8c0.4-0.4,0.5-1.1,0.5-2.1L167.2,349.3z M165.8,352.8c-0.2,0.2-0.5,0.3-0.9,0.4l-1,0.1l-0.4-5.1l0.9-0.1
		c0.4,0,0.7,0.1,0.9,0.3c0.2,0.2,0.3,0.5,0.3,1l0.2,2.5C166.1,352.3,166,352.6,165.8,352.8z"/>
	<path class="st2" d="M172.2,354c0.7-0.4,1-1.2,0.9-2.3l-0.2-2.9c-0.1-1-0.3-1.6-0.8-2c-0.5-0.4-1.1-0.5-2-0.5l-2.2,0.2l1,14.8
		l1.4-0.1l-0.5-6.7l0.7-0.1c0.1,0,0.1,0,0.2,0c0,0,0.1,0,0.2,0c0.3,1.1,0.5,2.2,0.8,3.3c0.2,1.1,0.5,2.2,0.7,3.3l1.5-0.1
		c-0.3-1.1-0.5-2.3-0.8-3.4C172.8,356.4,172.5,355.2,172.2,354z M171.6,352.9c-0.2,0.2-0.5,0.3-0.9,0.4l-0.9,0.1l-0.4-5.5l0.9-0.1
		c0.5,0,0.8,0.1,1,0.3c0.2,0.2,0.3,0.6,0.3,1.1l0.2,2.8C171.8,352.3,171.7,352.6,171.6,352.9z"/>
	<path class="st2" d="M178.5,348.2c-0.1-0.8-0.3-1.4-0.7-1.8c-0.4-0.4-1-0.6-1.8-0.5c-0.8,0.1-1.3,0.3-1.7,0.8
		c-0.4,0.5-0.5,1.1-0.4,1.9l0.7,10.1c0.1,0.8,0.3,1.4,0.7,1.8c0.4,0.4,1,0.6,1.8,0.5c0.8-0.1,1.4-0.3,1.7-0.8
		c0.4-0.5,0.5-1.1,0.4-1.9L178.5,348.2z M176.9,359.6c-0.6,0-1-0.3-1-1.1l-0.7-10.1c-0.1-0.8,0.2-1.2,0.9-1.2c0.6,0,1,0.3,1,1.1
		l0.7,10.1C177.9,359.1,177.6,359.5,176.9,359.6z"/>
	<path class="st2" d="M182.2,353.5l0.1,1.3l1.1-0.1l0.2,3.4c0,0.7-0.3,1.1-1,1.1c-0.3,0-0.5-0.1-0.7-0.3c-0.2-0.2-0.3-0.5-0.3-0.9
		l-0.7-10.1c0-0.4,0-0.7,0.2-0.9c0.1-0.2,0.4-0.3,0.7-0.3c0.4,0,0.6,0.1,0.8,0.2c0.2,0.2,0.3,0.5,0.3,0.8l0.2,2.6l1.2-0.1l-0.2-2.6
		c-0.1-0.8-0.3-1.4-0.7-1.8c-0.4-0.4-1-0.6-1.8-0.5c-0.8,0.1-1.3,0.3-1.7,0.8c-0.4,0.5-0.5,1.1-0.5,1.9l0.7,10.1
		c0,0.5,0.1,0.9,0.3,1.2c0.1,0.3,0.3,0.6,0.5,0.7c0.2,0.2,0.5,0.3,0.7,0.4c0.3,0.1,0.6,0.1,0.9,0.1c0.4,0,0.8-0.1,1.1-0.3
		c0.3-0.2,0.5-0.4,0.7-0.7l0.5,0.8l0.2,0l-0.5-7L182.2,353.5z"/>
	<path class="st2" d="M189.6,352.8c0.7-0.4,1-1.2,0.9-2.3l-0.2-2.9c-0.1-1-0.3-1.6-0.8-2c-0.5-0.4-1.1-0.5-2-0.5l-2.2,0.2l1,14.8
		l1.4-0.1l-0.5-6.7l0.7-0.1c0.1,0,0.1,0,0.2,0c0,0,0.1,0,0.2,0c0.3,1.1,0.5,2.2,0.8,3.3c0.2,1.1,0.5,2.2,0.7,3.3l1.5-0.1
		c-0.3-1.1-0.5-2.3-0.8-3.4C190.2,355.2,189.9,354,189.6,352.8z M188.9,351.6c-0.2,0.2-0.5,0.3-0.9,0.4l-0.9,0.1l-0.4-5.5l0.9-0.1
		c0.5,0,0.8,0.1,1,0.3c0.2,0.2,0.3,0.6,0.3,1.1l0.2,2.8C189.2,351.1,189.1,351.4,188.9,351.6z"/>
	<path class="st2" d="M192.8,344.8l-1,14.9l1.3-0.1l0.2-2.5l2.2-0.2l0.5,2.5l1.4-0.1l-3-14.7L192.8,344.8z M195.3,355.7l-1.9,0.1
		c0.1-1.3,0.2-2.6,0.2-3.8c0.1-1.3,0.1-2.5,0.2-3.8c0.2,1.3,0.5,2.5,0.7,3.8C194.8,353.2,195,354.5,195.3,355.7z"/>
	<path class="st2" d="M202.2,344.1l-0.8,11.7l-2.4-11.5l-1.8,0.1l1,14.8l1.2-0.1l-0.3-4.5c-0.1-1.1-0.2-2.1-0.2-3.2
		c-0.1-1.1-0.2-2.1-0.3-3.2l2.3,10.8l1.2-0.1l0.8-11c0.1,1.1,0.1,2.1,0.2,3.2c0.1,1.1,0.1,2.1,0.2,3.2l0.3,4.5l1.3-0.1l-1-14.8
		L202.2,344.1z"/>
	<path class="st2" d="M207,343.8l-1,14.9l1.3-0.1l0.1-2.5l2.2-0.2l0.5,2.5l1.4-0.1l-3-14.7L207,343.8z M209.4,354.7l-1.9,0.1
		c0.1-1.3,0.2-2.6,0.2-3.8c0.1-1.3,0.1-2.5,0.2-3.8c0.2,1.3,0.5,2.5,0.7,3.8C208.9,352.2,209.2,353.5,209.4,354.7z"/>
	<path class="st2" d="M214.1,358.5l0.1,1.3l0.5,0l0,0.4c0,0.1-0.1,0.2-0.2,0.2l-0.1,0l0,0.4l0.2,0c0.3,0,0.4-0.1,0.5-0.2
		c0.1-0.1,0.1-0.3,0.1-0.5l-0.1-1.6L214.1,358.5z"/>
	<path class="st2" d="M216.3,352.6l-1.2,0.1l0.2,3.1c0,0.4,0,0.7-0.1,0.9c-0.1,0.2-0.4,0.3-0.7,0.3c-0.7,0-1-0.3-1.1-1.1l-0.7-10.1
		c-0.1-0.8,0.2-1.2,0.9-1.2c0.4,0,0.6,0.1,0.7,0.2c0.1,0.2,0.2,0.5,0.3,0.9l0.2,2.6l1.2-0.1l-0.2-2.6c-0.1-1.7-0.9-2.5-2.3-2.4
		c-1.6,0.1-2.3,1-2.2,2.7L212,356c0.1,1.7,1,2.4,2.5,2.3c0.8-0.1,1.3-0.3,1.6-0.7c0.3-0.4,0.4-1.1,0.4-2L216.3,352.6z"/>
	<path class="st2" d="M218.2,343l-1,14.9l1.3-0.1l0.2-2.5l2.2-0.2l0.5,2.5l1.4-0.1l-3-14.7L218.2,343z M220.7,353.9l-1.9,0.1
		c0.1-1.3,0.2-2.6,0.2-3.8c0.1-1.3,0.1-2.5,0.2-3.8c0.2,1.3,0.5,2.5,0.7,3.8C220.2,351.4,220.4,352.7,220.7,353.9z"/>
	<path class="st2" d="M218.3,341.3c0.2,0,0.4,0.1,0.5,0.2c0.2,0.1,0.4,0.1,0.5,0.2c0.2,0,0.4,0.1,0.6,0c0.3,0,0.5-0.1,0.6-0.2
		c0.2-0.1,0.3-0.2,0.4-0.4l-0.1-1.1c-0.1,0.2-0.3,0.3-0.4,0.4c-0.2,0.1-0.4,0.2-0.5,0.2c-0.2,0-0.4,0-0.6-0.1
		c-0.2,0-0.3-0.1-0.5-0.2c-0.2-0.1-0.4-0.1-0.5-0.2c-0.2,0-0.4-0.1-0.6,0c-0.3,0-0.5,0.1-0.6,0.2c-0.2,0.1-0.3,0.2-0.4,0.4l0.1,1.1
		c0.1-0.2,0.3-0.3,0.4-0.4c0.2-0.1,0.4-0.2,0.5-0.2C217.9,341.2,218.1,341.2,218.3,341.3z"/>
	<path class="st2" d="M227.8,350.3l0.1,1.3l1.1-0.1l0.2,3.4c0,0.7-0.3,1.1-1,1.1c-0.3,0-0.5-0.1-0.7-0.2c-0.2-0.2-0.3-0.5-0.3-0.9
		l-0.7-10.1c0-0.4,0-0.7,0.2-0.9c0.1-0.2,0.4-0.3,0.7-0.3c0.4,0,0.6,0.1,0.8,0.2c0.2,0.2,0.3,0.5,0.3,0.8l0.2,2.6l1.2-0.1l-0.2-2.6
		c-0.1-0.8-0.3-1.4-0.7-1.8c-0.4-0.4-1-0.6-1.8-0.5c-0.8,0.1-1.3,0.3-1.7,0.8c-0.4,0.5-0.5,1.1-0.5,1.9l0.7,10.1
		c0,0.5,0.1,0.9,0.3,1.2c0.1,0.3,0.3,0.6,0.5,0.8c0.2,0.2,0.5,0.3,0.7,0.4c0.3,0.1,0.6,0.1,0.9,0.1c0.4,0,0.8-0.1,1.1-0.3
		c0.3-0.2,0.5-0.4,0.7-0.7l0.5,0.8l0.2,0l-0.5-7L227.8,350.3z"/>
	<path class="st2" d="M235.2,349.6c0.7-0.4,1-1.2,0.9-2.3l-0.2-3c-0.1-1-0.3-1.6-0.8-2c-0.5-0.4-1.1-0.5-2-0.5l-2.2,0.2l1,14.8
		l1.4-0.1l-0.5-6.7l0.7-0.1c0.1,0,0.1,0,0.2,0c0,0,0.1,0,0.2,0c0.3,1.1,0.5,2.2,0.8,3.3c0.2,1.1,0.5,2.2,0.7,3.3l1.5-0.1
		c-0.3-1.1-0.5-2.3-0.8-3.4C235.8,352,235.5,350.8,235.2,349.6z M234.5,348.5c-0.2,0.2-0.5,0.3-0.9,0.4l-0.9,0.1l-0.4-5.5l0.9-0.1
		c0.5,0,0.8,0.1,1,0.3c0.2,0.2,0.3,0.6,0.3,1.1l0.2,2.8C234.8,347.9,234.7,348.2,234.5,348.5z"/>
	<path class="st2" d="M238.4,341.6l-1,14.9l1.3-0.1l0.2-2.5l2.2-0.2l0.5,2.5l1.4-0.1l-3-14.7L238.4,341.6z M240.9,352.5l-1.9,0.1
		c0.1-1.3,0.2-2.6,0.2-3.8c0.1-1.3,0.1-2.5,0.2-3.8c0.2,1.3,0.5,2.5,0.7,3.8C240.4,350,240.6,351.3,240.9,352.5z"/>
	<polygon class="st2" points="246.5,341 241.8,341.4 241.9,342.7 243.5,342.6 244.5,356 245.8,355.9 244.9,342.5 246.6,342.4 	"/>
	<path class="st2" d="M251.9,340.7l-1.4,0.1l0.9,12.4c0.1,0.8-0.2,1.2-0.9,1.2c-0.6,0-1-0.3-1-1.1l-0.9-12.4l-1.4,0.1l0.9,12.4
		c0.1,1.7,0.9,2.5,2.5,2.4c1.5-0.1,2.3-1,2.1-2.7L251.9,340.7z"/>
	
		<rect x="247" y="347.2" transform="matrix(-6.971281e-002 -0.9976 0.9976 -6.971281e-002 -74.9172 625.9604)" class="st2" width="14.8" height="1.4"/>
	<polygon class="st2" points="260.2,340.1 255.5,340.4 255.6,341.8 257.2,341.7 258.2,355.1 259.5,355 258.6,341.6 260.2,341.5 	"/>
	<path class="st2" d="M262,339.9l-1,14.9l1.3-0.1l0.2-2.5l2.2-0.2l0.5,2.5l1.4-0.1l-3-14.7L262,339.9z M264.4,350.9l-1.9,0.1
		c0.1-1.3,0.2-2.6,0.2-3.8c0.1-1.3,0.1-2.5,0.2-3.8c0.2,1.3,0.5,2.5,0.7,3.8C263.9,348.4,264.2,349.6,264.4,350.9z"/>
</g>
</svg>
