<?xml version="1.0" encoding="utf-8"?>
<!-- Generator: Adobe Illustrator 19.0.0, SVG Export Plug-In . SVG Version: 6.00 Build 0)  -->
<svg version="1.1" id="Layer_1" xmlns="http://www.w3.org/2000/svg" xmlns:xlink="http://www.w3.org/1999/xlink" x="0px" y="0px"
	 width="817px" height="563.6px" viewBox="111 139.3 817 563.6" style="enable-background:new 111 139.3 817 563.6;"
	 xml:space="preserve">
<style type="text/css">
	.st0{fill:#0BB2AF;}
	.st1{clip-path:url(#SVGID_2_);fill:#0BB2AF;}
	.st2{clip-path:url(#SVGID_4_);fill:#00A789;}
	.st3{clip-path:url(#SVGID_6_);fill:#73423F;}
	.st4{clip-path:url(#SVGID_8_);fill:#D82D2E;}
	.st5{clip-path:url(#SVGID_10_);fill:#0CB2B0;}
	.st6{clip-path:url(#SVGID_12_);fill:#FFFFFF;}
	.st7{fill:#FFFFFF;}
	.st8{clip-path:url(#SVGID_14_);fill:#25B4B1;}
	.st9{clip-path:url(#SVGID_16_);fill:#FFFFFF;}
	.st10{clip-path:url(#SVGID_18_);fill:#FFFFFF;}
	.st11{clip-path:url(#SVGID_20_);fill:#FFFFFF;}
	.st12{clip-path:url(#SVGID_22_);fill:#FFFFFF;}
	.st13{clip-path:url(#SVGID_24_);fill:#FFFFFF;}
	.st14{clip-path:url(#SVGID_26_);fill:#FFFFFF;}
	.st15{clip-path:url(#SVGID_28_);fill:#FFFFFF;}
	.st16{clip-path:url(#SVGID_30_);fill:#FFFFFF;}
	.st17{clip-path:url(#SVGID_32_);fill:#FFFFFF;}
	.st18{clip-path:url(#SVGID_34_);fill:#FFFFFF;}
	.st19{clip-path:url(#SVGID_36_);fill:#FFFFFF;}
	.st20{clip-path:url(#SVGID_38_);fill:#FFFFFF;}
	.st21{clip-path:url(#SVGID_40_);fill:#FFFFFF;}
	.st22{clip-path:url(#SVGID_42_);fill:#FFFFFF;}
	.st23{clip-path:url(#SVGID_44_);fill:#FFFFFF;}
	.st24{clip-path:url(#SVGID_46_);fill:#FFFFFF;}
	.st25{clip-path:url(#SVGID_48_);fill:#FFFFFF;}
	.st26{clip-path:url(#SVGID_50_);fill:#FFFFFF;}
	.st27{clip-path:url(#SVGID_52_);fill:#FFFFFF;}
	.st28{clip-path:url(#SVGID_54_);fill:#FFFFFF;}
	.st29{clip-path:url(#SVGID_56_);fill:#FFFFFF;}
	.st30{clip-path:url(#SVGID_58_);fill:#FFFFFF;}
	.st31{clip-path:url(#SVGID_60_);fill:#FFFFFF;}
	.st32{clip-path:url(#SVGID_62_);fill:#FFFFFF;}
	.st33{clip-path:url(#SVGID_64_);fill:#FFFFFF;}
	.st34{clip-path:url(#SVGID_66_);fill:#FFFFFF;}
	.st35{clip-path:url(#SVGID_68_);fill:#FFFFFF;}
	.st36{clip-path:url(#SVGID_70_);fill:#FFFFFF;}
	.st37{clip-path:url(#SVGID_72_);fill:#FFFFFF;}
	.st38{clip-path:url(#SVGID_74_);fill:#FFFFFF;}
	.st39{clip-path:url(#SVGID_76_);fill:#FFFFFF;}
	.st40{clip-path:url(#SVGID_78_);fill:#FFFFFF;}
	.st41{clip-path:url(#SVGID_80_);fill:#FFFFFF;}
	.st42{clip-path:url(#SVGID_82_);fill:#FFFFFF;}
	.st43{clip-path:url(#SVGID_84_);fill:#FFFFFF;}
	.st44{clip-path:url(#SVGID_86_);fill:#D72D26;}
	.st45{clip-path:url(#SVGID_88_);fill:#FFFFFF;}
	.st46{clip-path:url(#SVGID_90_);fill:#FFFFFF;}
	.st47{clip-path:url(#SVGID_92_);fill:#FFFFFF;}
	.st48{clip-path:url(#SVGID_94_);fill:#FFFFFF;}
	.st49{clip-path:url(#SVGID_96_);fill:#FFFFFF;}
	.st50{clip-path:url(#SVGID_98_);fill:#FFFFFF;}
	.st51{clip-path:url(#SVGID_100_);fill:#FFFFFF;}
	.st52{clip-path:url(#SVGID_102_);fill:#FFFFFF;}
	.st53{clip-path:url(#SVGID_104_);fill:#FFFFFF;}
	.st54{clip-path:url(#SVGID_106_);fill:#FFFFFF;}
	.st55{clip-path:url(#SVGID_108_);fill:#FFFFFF;}
	.st56{clip-path:url(#SVGID_110_);fill:#FFFFFF;}
	.st57{clip-path:url(#SVGID_112_);fill:#FFFFFF;}
	.st58{clip-path:url(#SVGID_114_);fill:#FFFFFF;}
	.st59{clip-path:url(#SVGID_116_);fill:#FFFFFF;}
	.st60{clip-path:url(#SVGID_118_);fill:#FFFFFF;}
	.st61{clip-path:url(#SVGID_120_);fill:#FFFFFF;}
	.st62{clip-path:url(#SVGID_122_);fill:#FFFFFF;}
	.st63{clip-path:url(#SVGID_124_);fill:#FFFFFF;}
	.st64{clip-path:url(#SVGID_126_);fill:#FFFFFF;}
	.st65{clip-path:url(#SVGID_128_);fill:#FFFFFF;}
	.st66{clip-path:url(#SVGID_130_);fill:#FFFFFF;}
	.st67{clip-path:url(#SVGID_132_);fill:#FFFFFF;}
	.st68{clip-path:url(#SVGID_134_);fill:#FFFFFF;}
	.st69{clip-path:url(#SVGID_136_);fill:#FFFFFF;}
</style>
<g id="XMLID_141_">
	<g id="XMLID_436_">
		<g>
			<path id="XMLID_437_" class="st0" d="M485.1,253.8c-5.8-80.6-42.1-118.6-108.7-114.1s-97,47-91.2,127.6L307.6,575
				c5.9,80.6,42.1,118.7,108.7,114.2s97-47,91.2-127.6L485.1,253.8z M443.4,600.4c1.5,21.1-8.8,32.3-31,33.8s-34.1-8.3-35.6-29.4
				l-27.4-376.4c-1.5-21.1,8.8-32.3,31-33.8c22.2-1.5,34.1,8.3,35.6,29.4L443.4,600.4z M144.5,265.7l36.7-2.5l32,439.6l66.6-4.5
				l-40-549.5l-67.4-0.4l1.7,17.9c2,27.9-9.2,42.7-33.6,44.4L144.5,265.7z"/>
		</g>
		<g>
			<defs>
				<path id="SVGID_1_" d="M485.1,253.8c-5.8-80.6-42.1-118.6-108.7-114.1s-97,47-91.2,127.6L307.6,575
					c5.9,80.6,42.1,118.7,108.7,114.2s97-47,91.2-127.6L485.1,253.8z M443.4,600.4c1.5,21.1-8.8,32.3-31,33.8s-34.1-8.3-35.6-29.4
					l-27.4-376.4c-1.5-21.1,8.8-32.3,31-33.8c22.2-1.5,34.1,8.3,35.6,29.4L443.4,600.4z M144.5,265.7l36.7-2.5l32,439.6l66.6-4.5
					l-40-549.5l-67.4-0.4l1.7,17.9c2,27.9-9.2,42.7-33.6,44.4L144.5,265.7z"/>
			</defs>
			<clipPath id="SVGID_2_">
				<use xlink:href="#SVGID_1_"  style="overflow:visible;"/>
			</clipPath>
			<rect id="XMLID_445_" x="432" y="122.9" class="st1" width="250.6" height="533.6"/>
		</g>
		<g>
			<defs>
				<path id="SVGID_3_" d="M485.1,253.8c-5.8-80.6-42.1-118.6-108.7-114.1s-97,47-91.2,127.6L307.6,575
					c5.9,80.6,42.1,118.7,108.7,114.2s97-47,91.2-127.6L485.1,253.8z M443.4,600.4c1.5,21.1-8.8,32.3-31,33.8s-34.1-8.3-35.6-29.4
					l-27.4-376.4c-1.5-21.1,8.8-32.3,31-33.8c22.2-1.5,34.1,8.3,35.6,29.4L443.4,600.4z M144.5,265.7l36.7-2.5l32,439.6l66.6-4.5
					l-40-549.5l-67.4-0.4l1.7,17.9c2,27.9-9.2,42.7-33.6,44.4L144.5,265.7z"/>
			</defs>
			<clipPath id="SVGID_4_">
				<use xlink:href="#SVGID_3_"  style="overflow:visible;"/>
			</clipPath>
			<polygon id="XMLID_444_" class="st2" points="319.8,109.1 362.2,226 366.1,281.2 205.4,678.7 92.5,261 115.4,141.4 			"/>
		</g>
		<g>
			<defs>
				<path id="SVGID_5_" d="M485.1,253.8c-5.8-80.6-42.1-118.6-108.7-114.1s-97,47-91.2,127.6L307.6,575
					c5.9,80.6,42.1,118.7,108.7,114.2s97-47,91.2-127.6L485.1,253.8z M443.4,600.4c1.5,21.1-8.8,32.3-31,33.8s-34.1-8.3-35.6-29.4
					l-27.4-376.4c-1.5-21.1,8.8-32.3,31-33.8c22.2-1.5,34.1,8.3,35.6,29.4L443.4,600.4z M144.5,265.7l36.7-2.5l32,439.6l66.6-4.5
					l-40-549.5l-67.4-0.4l1.7,17.9c2,27.9-9.2,42.7-33.6,44.4L144.5,265.7z"/>
			</defs>
			<clipPath id="SVGID_6_">
				<use xlink:href="#SVGID_5_"  style="overflow:visible;"/>
			</clipPath>
			<polygon id="XMLID_443_" class="st3" points="420.5,107.3 190,709.9 435.8,737.5 467.4,143.2 			"/>
		</g>
		<g>
			<defs>
				<path id="SVGID_7_" d="M485.1,253.8c-5.8-80.6-42.1-118.6-108.7-114.1s-97,47-91.2,127.6L307.6,575
					c5.9,80.6,42.1,118.7,108.7,114.2s97-47,91.2-127.6L485.1,253.8z M443.4,600.4c1.5,21.1-8.8,32.3-31,33.8s-34.1-8.3-35.6-29.4
					l-27.4-376.4c-1.5-21.1,8.8-32.3,31-33.8c22.2-1.5,34.1,8.3,35.6,29.4L443.4,600.4z M144.5,265.7l36.7-2.5l32,439.6l66.6-4.5
					l-40-549.5l-67.4-0.4l1.7,17.9c2,27.9-9.2,42.7-33.6,44.4L144.5,265.7z"/>
			</defs>
			<clipPath id="SVGID_8_">
				<use xlink:href="#SVGID_7_"  style="overflow:visible;"/>
			</clipPath>
			<polygon id="XMLID_442_" class="st4" points="467.9,103.6 434.7,744.9 677.9,700.7 523.7,124.4 			"/>
		</g>
		<g>
			<defs>
				<path id="SVGID_9_" d="M485.1,253.8c-5.8-80.6-42.1-118.6-108.7-114.1s-97,47-91.2,127.6L307.6,575
					c5.9,80.6,42.1,118.7,108.7,114.2s97-47,91.2-127.6L485.1,253.8z M443.4,600.4c1.5,21.1-8.8,32.3-31,33.8s-34.1-8.3-35.6-29.4
					l-27.4-376.4c-1.5-21.1,8.8-32.3,31-33.8c22.2-1.5,34.1,8.3,35.6,29.4L443.4,600.4z M144.5,265.7l36.7-2.5l32,439.6l66.6-4.5
					l-40-549.5l-67.4-0.4l1.7,17.9c2,27.9-9.2,42.7-33.6,44.4L144.5,265.7z"/>
			</defs>
			<clipPath id="SVGID_10_">
				<use xlink:href="#SVGID_9_"  style="overflow:visible;"/>
			</clipPath>
			<polygon id="XMLID_441_" class="st5" points="329.7,138.6 368,260.4 415,123.4 			"/>
		</g>
	</g>
	<g id="XMLID_430_">
		<g>
			<defs>
				<rect id="SVGID_11_" x="111" y="141.6" width="934.6" height="547.7"/>
			</defs>
			<clipPath id="SVGID_12_">
				<use xlink:href="#SVGID_11_"  style="overflow:visible;"/>
			</clipPath>
			<path id="XMLID_432_" class="st6" d="M357.6,226.8c-2.6-35.2-18.4-51.9-47.5-49.9s-42.4,20.5-39.8,55.8l9.8,134.5
				c2.6,35.2,18.4,51.9,47.5,49.9s42.4-20.5,39.8-55.8L357.6,226.8z M339.4,378.3c0.7,9.2-3.9,14.1-13.6,14.8
				c-9.7,0.7-14.9-3.6-15.6-12.8l-12-164.5c-0.7-9.2,3.8-14.1,13.6-14.8c9.7-0.7,14.9,3.6,15.6,12.8L339.4,378.3z M208.8,232l16-1.1
				l14,192.1l29.1-2l-17.5-240.1l-29.4-0.1l0.7,7.8c0.9,12.2-4,18.7-14.7,19.4L208.8,232z"/>
		</g>
	</g>
	<g id="XMLID_415_">
		<path id="XMLID_428_" class="st7" d="M397.5,389.7l6.2-0.4l0.6,7.8c0.7,9.3-2.2,14.1-8.5,14.5c-6.6,0.4-10.2-4-10.9-13.2
			l-2.6-35.3c-0.7-9.3,2.3-14.1,8.8-14.5c6.3-0.4,9.8,4,10.5,13.2l0.4,5.8l-6.2,0.4l-0.7-9.7c-0.2-2.4-1.4-3.6-3.5-3.4
			c-2.2,0.1-3.2,1.4-3,3.8l3.1,43.2c0.2,2.4,1.4,3.6,3.5,3.4c2.2-0.1,3.2-1.4,3-3.8L397.5,389.7z"/>
		<path id="XMLID_426_" class="st7" d="M410.4,410.6l-4.6-63.1l6.6-0.4l4.6,63.1L410.4,410.6z"/>
		<path id="XMLID_424_" class="st7" d="M426.5,372.3l-1.8-8.4l3.3,45.5l-5.9,0.4l-4.6-63.1l7.9-0.5l9.3,35.5l2,9.5l-3.3-45.5
			l5.9-0.4l4.6,63.1l-7.9,0.5L426.5,372.3z"/>
		<path id="XMLID_422_" class="st7" d="M454.8,401.3l10.1-0.7l0.5,6.3l-16.6,1.1l-4.6-63.1l16.6-1.1l0.5,6.3l-10.1,0.7l1.6,21.5
			l5.7-0.4l0.5,6.3l-5.7,0.4L454.8,401.3z"/>
		<path id="XMLID_418_" class="st7" d="M486.7,362.4c0.4,5.7-0.9,9.4-3.9,11c3.2,1.3,5,4.8,5.5,10.4l0.6,7.6
			c0.7,9.3-2.3,14.1-8.8,14.5l-9.8,0.7l-4.6-63.1l9.8-0.7c6.6-0.4,10.2,4,10.8,13.2L486.7,362.4z M479.4,352.6
			c-0.2-2.4-1.4-3.6-3.5-3.4l-3.3,0.2l1.6,21.5l3.4-0.2c2.1-0.1,3.1-1.4,2.9-3.8L479.4,352.6z M481.4,380.3
			c-0.2-2.3-1.3-3.5-3.5-3.4l-3.4,0.2l1.7,22.7l3.3-0.2c2.2-0.1,3.2-1.4,3-3.8L481.4,380.3z"/>
		<path id="XMLID_416_" class="st7" d="M499.1,369.2l6.6-0.4l-2-27.8l6.6-0.4l4.6,63.1l-6.6,0.4l-2.1-29l-6.6,0.4l2.1,29l-6.6,0.4
			l-4.6-63.1l6.6-0.4L499.1,369.2z"/>
	</g>
	<g id="XMLID_359_">
		<path id="XMLID_413_" class="st7" d="M300.2,489.6l-4.4-60.5l6.3-0.4l4.4,60.5L300.2,489.6z"/>
		<path id="XMLID_411_" class="st7" d="M315.7,452.8l-1.7-8l3.2,43.6l-5.7,0.4l-4.4-60.5l7.5-0.5l8.9,34l1.9,9.1l-3.2-43.6l5.7-0.4
			l4.4,60.5l-7.5,0.5L315.7,452.8z"/>
		<path id="XMLID_409_" class="st7" d="M330.8,426.8l18.9-1.3l0.4,6l-6.3,0.4l4,54.4l-6.3,0.4l-4-54.4l-6.3,0.4L330.8,426.8z"/>
		<path id="XMLID_407_" class="st7" d="M362.1,479.3l9.7-0.6l0.4,6l-16,1.1l-4.4-60.5l15.9-1.1l0.4,6l-9.7,0.6l1.5,20.6l5.5-0.4
			l0.4,6l-5.5,0.4L362.1,479.3z"/>
		<path id="XMLID_404_" class="st7" d="M382.5,484l-6.3,0.4l-4.4-60.5l9.7-0.7c7-0.5,10.8,3.5,11.4,12l0.5,6.7
			c0.4,5.6-0.9,9.7-4,12.3l6.8,28.9l-6.4,0.4l-6-27.5l-3.3,0.2L382.5,484z M383.5,449.9c2.7-0.2,4-1.6,3.8-4.4l-0.9-12.4
			c-0.2-2.7-1.7-4-4.5-3.8l-3.4,0.2l1.5,20.6L383.5,449.9z"/>
		<path id="XMLID_402_" class="st7" d="M405,446.8l-1.7-8l3.2,43.6l-5.7,0.4l-4.4-60.5l7.5-0.5l9,34l1.9,9.1l-3.2-43.6l5.7-0.4
			l4.4,60.5l-7.5,0.5L405,446.8z"/>
		<path id="XMLID_399_" class="st7" d="M424.2,481.2l3.9-61l6.4-0.4l12.7,59.9l-6.4,0.4l-1.8-9l-8,0.5l-0.4,9.1L424.2,481.2z
			 M431.4,465.1l6.3-0.4l-3.4-16.9l-1.8-10.7l-0.2,10.7L431.4,465.1z"/>
		<path id="XMLID_397_" class="st7" d="M440.4,419.4l18.9-1.3l0.4,6l-6.3,0.4l4,54.4l-6.3,0.4l-4-54.4l-6.3,0.4L440.4,419.4z"/>
		<path id="XMLID_395_" class="st7" d="M466.4,478.4l-4.4-60.5l6.3-0.4l4.4,60.5L466.4,478.4z"/>
		<path id="XMLID_392_" class="st7" d="M495.6,463.1c0.6,8.9-2.2,13.5-8.5,13.9s-9.8-3.8-10.4-12.7l-2.5-33.9
			c-0.6-8.9,2.2-13.5,8.5-13.9s9.8,3.8,10.4,12.7L495.6,463.1z M486.6,425.8c-0.2-2.3-1.3-3.4-3.4-3.3s-3.1,1.4-2.9,3.7l3,41.4
			c0.2,2.3,1.3,3.4,3.4,3.3s3.1-1.4,2.9-3.7L486.6,425.8z"/>
		<path id="XMLID_390_" class="st7" d="M505.8,440l-1.7-8l3.2,43.6l-5.7,0.4l-4.4-60.5l7.5-0.5l9,34l1.9,9.1l-3.2-43.6l5.7-0.4
			l4.4,60.5l-7.5,0.5L505.8,440z"/>
		<path id="XMLID_387_" class="st7" d="M525,474.4l3.9-61l6.4-0.4l12.7,59.9l-6.4,0.4l-1.8-9l-8,0.5l-0.4,9.1L525,474.4z
			 M532.2,458.3l6.3-0.4l-3.4-16.9l-1.8-10.7l-0.2,10.7L532.2,458.3z"/>
		<path id="XMLID_385_" class="st7" d="M555.5,466.3l9.7-0.6l0.4,6l-16,1.1l-4.4-60.5l6.3-0.4L555.5,466.3z"/>
		<path id="XMLID_383_" class="st7" d="M585.1,470.4l-6.3,0.4l-4.4-60.5l16-1.1l0.4,6l-9.7,0.7l1.5,20.6l5.5-0.4l0.4,6l-5.5,0.4
			L585.1,470.4z"/>
		<path id="XMLID_381_" class="st7" d="M599.2,469.5l-4.4-60.5l6.3-0.4l4.4,60.5L599.2,469.5z"/>
		<path id="XMLID_379_" class="st7" d="M615.5,462.3l9.7-0.6l0.4,6l-16,1.1l-4.4-60.5l6.3-0.4L615.5,462.3z"/>
		<path id="XMLID_377_" class="st7" d="M629.8,467.4l-4.4-60.5l9.2-0.6l6.5,32.3l1.9,10.7l0.2-10.7l1.8-32.9l9.4-0.6l4.4,60.5
			l-5.7,0.4l-3.4-47.3l-0.3,7.3l-2.6,40.4l-5.2,0.4l-8.5-40.2L632,420l3.4,47.2L629.8,467.4z"/>
		<path id="XMLID_375_" class="st7" d="M679,464.1l-6.3,0.4l-4.4-60.5l16-1.1l0.4,6l-9.7,0.6l1.5,20.6l5.5-0.4l0.4,6l-5.4,0.6
			L679,464.1z"/>
		<path id="XMLID_373_" class="st7" d="M698.5,456.7l9.7-0.6l0.4,6l-16,1.1l-4.4-60.5l16-1.1l0.4,6l-9.7,0.7l1.5,20.6l5.5-0.4l0.4,6
			l-5.5,0.4L698.5,456.7z"/>
		<path id="XMLID_371_" class="st7" d="M721,410.1c-0.2-2.3-1.1-3.4-2.9-3.3c-1.8,0.1-2.6,1.3-2.4,3.7l0.6,8.2
			c0.2,2.6,2.4,6.3,6.6,10.9c4.2,4.7,6.5,8.8,6.7,12.4l0.4,5.3c0.6,8.9-2,13.5-8,13.9s-9.3-3.8-9.9-12.7l-0.5-7.5l6.3-0.4l0.8,11.3
			c0.2,2.3,1.1,3.4,2.9,3.3c1.8-0.1,2.6-1.3,2.4-3.7l-0.5-6.9c-0.3-3.7-2.5-7.9-6.7-12.4s-6.5-9.1-6.8-13.7l-0.3-3.9
			c-0.6-8.9,2-13.5,8-13.9s9.3,3.8,9.9,12.7l0.4,5.5l-6.3,0.4L721,410.1z"/>
		<path id="XMLID_369_" class="st7" d="M729.4,399.9l18.9-1.3l0.4,6l-6.3,0.4l4,54.4l-6.3,0.4l-4-54.4l-6.3,0.4L729.4,399.9z"/>
		<path id="XMLID_367_" class="st7" d="M755.4,459l-4.4-60.5l6.3-0.4l4.4,60.5L755.4,459z"/>
		<path id="XMLID_365_" class="st7" d="M782.8,396.3l-3.9,61l-6.4,0.4l-12.7-59.9l6.4-0.4l6.5,32.3l1.7,10.7l0.2-10.7l1.9-32.9
			L782.8,396.3z"/>
		<path id="XMLID_362_" class="st7" d="M783.8,457l3.9-61l6.4-0.4l12.7,59.9l-6.4,0.4l-1.8-9l-8,0.5l-0.4,9.1L783.8,457z M791,440.9
			l6.3-0.4l-3.4-16.9l-1.8-10.7l-0.2,10.7L791,440.9z"/>
		<path id="XMLID_360_" class="st7" d="M814.3,448.9l9.7-0.6l0.4,6l-16,1.1l-4.4-60.5l6.3-0.4L814.3,448.9z"/>
	</g>
	<g id="XMLID_356_">
		<g>
			<defs>
				<rect id="SVGID_13_" x="111" y="141.6" width="934.6" height="547.7"/>
			</defs>
			<clipPath id="SVGID_14_">
				<use xlink:href="#SVGID_13_"  style="overflow:visible;"/>
			</clipPath>
			<path id="XMLID_358_" class="st8" d="M739.5,291.4l162.6-10.9c1.3,9.7,9.1,17.1,18.3,17.6l0.1,1.9c-1.8,0.1-3.1,1.7-3,3.6
				c0.1,1.9,1.7,3.3,3.5,3.2l0.1,1.2c-1.8,0.1-3.1,1.7-3,3.6c0.1,1.9,1.7,3.3,3.5,3.2l0.1,1.2c-1.8,0.1-3.1,1.7-3,3.6
				c0.1,1.9,1.7,3.3,3.5,3.2l0.1,1.2c-1.8,0.1-3.1,1.7-3,3.6c0.1,1.9,1.7,3.3,3.5,3.2l0.1,1.2c-1.8,0.1-3.1,1.7-3,3.6
				c0.1,1.9,1.7,3.3,3.5,3.2l0.1,1.2c-1.8,0.1-3.1,1.7-3,3.6c0.1,1.9,1.7,3.3,3.4,3.2l0.1,1.2c-1.8,0.1-3.1,1.7-3,3.6
				c0.1,1.9,1.7,3.3,3.5,3.2l0.1,1.9c-9.1,1.7-15.7,10-15.6,19.9l-162.6,10.9c-1.3-9.7-9.1-17.1-18.3-17.6L728,368
				c0.1,0,0.2,0,0.4,0c1.8-0.1,3.1-1.7,3-3.6c-0.1-1.9-1.7-3.3-3.5-3.2c-0.1,0-0.2,0-0.4,0l-0.1-1.2c0.1,0,0.2,0,0.4,0
				c1.8-0.1,3.1-1.7,3-3.6c-0.1-1.9-1.7-3.3-3.5-3.2c-0.1,0-0.2,0-0.4,0l-0.1-1.2c0.1,0,0.2,0,0.4,0c1.8-0.1,3.1-1.7,3-3.6
				c-0.1-1.9-1.7-3.3-3.5-3.2c-0.1,0-0.2,0-0.4,0l-0.1-1.2c0.1,0,0.2,0,0.4,0c1.8-0.1,3.1-1.7,3-3.6c-0.1-1.9-1.7-3.3-3.5-3.2
				c-0.1,0-0.2,0-0.4,0l-0.1-1.2c0.1,0,0.2,0,0.4,0c1.8-0.1,3.1-1.7,3-3.6c-0.1-1.9-1.7-3.3-3.5-3.2c-0.1,0-0.2,0-0.4,0L725,328
				c0.1,0,0.2,0,0.4,0c1.8-0.1,3.1-1.7,3-3.6c-0.1-1.9-1.7-3.3-3.5-3.2c-0.1,0-0.2,0-0.4,0l-0.1-1.2c0.1,0,0.2,0,0.4,0
				c1.8-0.1,3.1-1.7,3-3.6c-0.1-1.9-1.7-3.3-3.5-3.2c-0.1,0-0.2,0-0.4,0l-0.1-1.9C732.9,309.6,739.5,301.2,739.5,291.4"/>
		</g>
	</g>
	<polygon id="XMLID_355_" class="st7" points="792.1,338.9 792,336.6 778.8,337.5 804.6,320.8 803.3,318.9 777.5,335.6 783.3,324.2 
		781.1,323.2 775.3,334.6 774.4,321.9 772,322.1 772.9,334.7 765.6,324.2 763.6,325.5 770.9,336 759.1,330.5 758,332.5 769.9,338.1 
		756.7,339 756.9,341.3 770.1,340.4 759.1,347.5 760.5,349.4 771.4,342.3 765.6,353.7 767.8,354.7 773.6,343.3 774.5,356 
		776.9,355.8 775.9,343.1 783.3,353.7 785.3,352.4 777.9,341.9 804.6,354.4 805.7,352.3 779,339.8 	"/>
	<g id="XMLID_346_">
		<g>
			<defs>
				<rect id="SVGID_15_" x="111" y="141.6" width="934.6" height="547.7"/>
			</defs>
			<clipPath id="SVGID_16_">
				<use xlink:href="#SVGID_15_"  style="overflow:visible;"/>
			</clipPath>
			<path id="XMLID_351_" class="st9" d="M804,336.8l-1.6,0.1l-0.2-3l1.2-0.1c1.1-0.1,2,0.1,2.1,1.5
				C805.6,335.9,805.2,336.8,804,336.8 M801.9,330.3l1.6-0.1c0.9-0.1,1.4,0.5,1.5,1.2c0.1,0.8-0.3,1.4-1.2,1.4l-1.6,0.1L801.9,330.3
				z M804.7,333.3L804.7,333.3c1.1-0.4,1.4-1.1,1.4-2.2c0-0.2-0.1-0.7-0.4-1.1c-0.4-0.4-0.8-0.8-2-0.7l-2.9,0.2l0.6,8.5l2.8-0.2
				c1-0.1,2.6-0.4,2.5-2.6C806.6,334,806,333.3,804.7,333.3"/>
		</g>
		<g>
			<defs>
				<rect id="SVGID_17_" x="111" y="141.6" width="934.6" height="547.7"/>
			</defs>
			<clipPath id="SVGID_18_">
				<use xlink:href="#SVGID_17_"  style="overflow:visible;"/>
			</clipPath>
			<path id="XMLID_348_" class="st10" d="M810.7,333.2l-1.4,0.1l-0.2-2.3l1.5-0.1c0.7,0,1.1,0.5,1.1,1
				C811.6,332.5,811.4,333.1,810.7,333.2 M811.3,333.5L811.3,333.5c0.9-0.2,1.3-0.9,1.3-1.8c-0.1-0.9-0.6-1.8-1.9-1.7l-2.6,0.2
				l0.5,7.3l1-0.1l-0.2-3.3l1.1-0.1c0.3,0,1.1,0,1.2,0.8c0.2,1,0.2,1.9,0.5,2.4l1-0.1c-0.2-0.4-0.4-1.6-0.4-1.9
				C812.5,333.8,812.2,333.6,811.3,333.5"/>
		</g>
	</g>
	<path id="XMLID_343_" class="st7" d="M815.3,334.5l0.9-4l0,0l1.5,3.8L815.3,334.5z M815.6,329.7l-1.9,7.4l1-0.1l0.4-1.8l2.9-0.2
		l0.7,1.7l1.1-0.1l-3-7.1L815.6,329.7z"/>
	<g id="XMLID_340_">
		<g>
			<defs>
				<rect id="SVGID_19_" x="111" y="141.6" width="934.6" height="547.7"/>
			</defs>
			<clipPath id="SVGID_20_">
				<use xlink:href="#SVGID_19_"  style="overflow:visible;"/>
			</clipPath>
			<path id="XMLID_342_" class="st11" d="M821.3,331.1c-0.1-0.8,0.5-1.1,1.1-1.1c0.9-0.1,1.2,0.4,1.3,1.2l1-0.1c0-1.5-0.9-2.1-2.2-2
				s-2.2,0.8-2.1,2.1c0.2,2.2,3.5,1.8,3.6,3.4c0.1,0.9-0.5,1.2-1.3,1.3c-0.6,0-1.3-0.2-1.4-1.2v-0.2l-1,0.1c0,0.7,0.2,2.3,2.4,2.2
				c1.2-0.1,2.3-0.7,2.2-2.2C824.8,332.2,821.5,332.7,821.3,331.1"/>
		</g>
	</g>
	<polygon id="XMLID_339_" class="st7" points="826.2,329 826.7,336.3 827.7,336.2 827.2,328.9 	"/>
	<polygon id="XMLID_338_" class="st7" points="833.2,335 830.4,335.2 830,328.8 829,328.8 829.5,336.1 833.3,335.8 	"/>
	<g id="XMLID_335_">
		<g>
			<defs>
				<rect id="SVGID_21_" x="111" y="141.6" width="934.6" height="547.7"/>
			</defs>
			<clipPath id="SVGID_22_">
				<use xlink:href="#SVGID_21_"  style="overflow:visible;"/>
			</clipPath>
			<path id="XMLID_337_" class="st12" d="M842,332.7l-1.2,0.1c0.1,1.7-0.9,1.9-1.3,1.9c-0.9,0.1-1.6-0.1-1.8-2.2l-0.2-2.3
				c-0.1-1.5,0.1-1.7,0.1-1.8s0.4-0.7,1.3-0.8c0.2,0,0.8,0,1,0.3c0.2,0.3,0.3,0.7,0.3,1.2l1.2-0.1c0-1.7-0.7-2.5-2.5-2.4
				c-1.7,0.1-2.8,0.9-2.6,3.3l0.2,2.4c0.2,3.3,1.9,3.3,3,3.2C840.3,335.5,842.3,335.4,842,332.7"/>
		</g>
	</g>
	<polygon id="XMLID_334_" class="st7" points="843.3,327.9 843.8,335.1 844.8,335.1 844.2,327.8 	"/>
	<polygon id="XMLID_333_" class="st7" points="851.3,327.3 850.4,327.4 850.9,333.6 850.9,333.6 847.5,327.6 846.1,327.7 
		846.6,334.9 847.5,334.9 847,328.6 847.1,328.6 850.5,334.7 851.8,334.6 	"/>
	<polygon id="XMLID_332_" class="st7" points="857.5,333.4 854.5,333.6 854.3,331.1 857,330.9 856.9,330.1 854.2,330.3 854.1,327.9 
		857,327.7 856.9,326.9 853,327.2 853.6,334.5 857.5,334.2 	"/>
	<polygon id="XMLID_331_" class="st7" points="863.3,332.4 863.2,332.4 860.5,325.4 858.6,325.6 859.3,334.1 860.3,334 859.8,326.4 
		859.8,326.4 862.8,333.8 863.8,333.8 865.8,326 865.8,326 866.3,333.6 867.5,333.5 866.9,325 865,325.1 	"/>
	<g id="XMLID_328_">
		<g>
			<defs>
				<rect id="SVGID_23_" x="111" y="141.6" width="934.6" height="547.7"/>
			</defs>
			<clipPath id="SVGID_24_">
				<use xlink:href="#SVGID_23_"  style="overflow:visible;"/>
			</clipPath>
			<path id="XMLID_330_" class="st13" d="M873.9,330.4l-0.3-4.6l-1,0.1l0.3,4.6c0.1,1.6-0.4,2-1.3,2.1c-0.9,0.1-1.4-0.3-1.6-1.9
				l-0.3-4.6l-1,0.1l0.3,4.6c0.1,2,1,2.8,2.6,2.6C873.3,333.3,874,332.4,873.9,330.4"/>
		</g>
	</g>
	<polygon id="XMLID_327_" class="st7" points="881,332.6 880.4,325.4 879.6,325.4 880,331.6 880,331.6 876.6,325.6 875.2,325.7 
		875.8,333 876.6,332.9 876.2,326.6 876.2,326.6 879.6,332.7 	"/>
	<g id="XMLID_322_">
		<g>
			<defs>
				<rect id="SVGID_25_" x="111" y="141.6" width="934.6" height="547.7"/>
			</defs>
			<clipPath id="SVGID_26_">
				<use xlink:href="#SVGID_25_"  style="overflow:visible;"/>
			</clipPath>
			<path id="XMLID_324_" class="st14" d="M886.2,329.3c0.1,1.7-0.3,2.2-1.7,2.3l-0.9,0.1l-0.4-5.7l1.3-0.1c1-0.1,1.5,0.4,1.6,1.9
				L886.2,329.3z M884.5,325.1l-2.3,0.2l0.5,7.3l1.7-0.1c1.3-0.1,2.1-0.5,2.4-1.1c0.3-0.5,0.4-1.4,0.2-3c0-0.2-0.2-1.7-0.5-2.3
				C886.2,325.3,885.5,325,884.5,325.1"/>
		</g>
	</g>
	<polygon id="XMLID_321_" class="st7" points="888.7,324.8 889.2,332.1 890.2,332 889.7,324.7 	"/>
	
		<rect id="XMLID_320_" x="808.1" y="342.4" transform="matrix(7.187583e-002 0.9974 -0.9974 7.187583e-002 1093.597 -489.8733)" class="st7" width="3.8" height="0.5"/>
	<g id="XMLID_307_">
		<g>
			<defs>
				<rect id="SVGID_27_" x="111" y="141.6" width="934.6" height="547.7"/>
			</defs>
			<clipPath id="SVGID_28_">
				<use xlink:href="#SVGID_27_"  style="overflow:visible;"/>
			</clipPath>
			<path id="XMLID_319_" class="st15" d="M812.5,341.7c-0.4,0-0.6,0.1-0.7,0.4l0,0v-0.3h-0.5c0,0.2,0.1,0.4,0.1,0.6l0.2,2.1h0.4
				l-0.1-1.6c0-0.4,0-0.8,0.5-0.8c0.4,0,0.5,0.2,0.5,0.5l0.1,1.8h0.5l-0.1-1.8C813.2,342,813,341.7,812.5,341.7"/>
		</g>
		<g>
			<defs>
				<rect id="SVGID_29_" x="111" y="141.6" width="934.6" height="547.7"/>
			</defs>
			<clipPath id="SVGID_30_">
				<use xlink:href="#SVGID_29_"  style="overflow:visible;"/>
			</clipPath>
			<path id="XMLID_318_" class="st16" d="M814.7,343.6l-0.1-1.6h0.6v-0.3h-0.6l-0.1-0.7l-0.4,0.2v0.5h-0.5v0.3h0.5l0.1,1.9
				c0,0.3,0.2,0.5,0.7,0.4c0.1,0,0.3,0,0.4-0.1v-0.3c-0.1,0-0.2,0-0.2,0C814.7,344,814.7,343.8,814.7,343.6"/>
		</g>
		<g>
			<defs>
				<rect id="SVGID_31_" x="111" y="141.6" width="934.6" height="547.7"/>
			</defs>
			<clipPath id="SVGID_32_">
				<use xlink:href="#SVGID_31_"  style="overflow:visible;"/>
			</clipPath>
			<path id="XMLID_315_" class="st17" d="M816.2,342.7c0-0.7,0.2-0.9,0.5-0.9s0.6,0.1,0.6,0.8L816.2,342.7z M816.7,341.4
				c-1,0.1-1,0.7-0.9,1.5c0.1,1.2,0.6,1.3,1.1,1.3c0.6,0,0.9-0.3,0.9-0.9h-0.5c0,0.3-0.1,0.5-0.4,0.5c-0.4,0-0.6-0.1-0.6-0.9
				l1.6-0.1v-0.2C817.7,341.8,817.5,341.4,816.7,341.4"/>
		</g>
		<g>
			<defs>
				<rect id="SVGID_33_" x="111" y="141.6" width="934.6" height="547.7"/>
			</defs>
			<clipPath id="SVGID_34_">
				<use xlink:href="#SVGID_33_"  style="overflow:visible;"/>
			</clipPath>
			<path id="XMLID_314_" class="st18" d="M819,341.7L819,341.7v-0.4h-0.4l0.2,2.7h0.4l-0.1-1.6c0-0.4,0.1-0.7,0.6-0.8h0.1h0.1v-0.4
				C819.4,341.3,819.1,341.3,819,341.7"/>
		</g>
		<g>
			<defs>
				<rect id="SVGID_35_" x="111" y="141.6" width="934.6" height="547.7"/>
			</defs>
			<clipPath id="SVGID_36_">
				<use xlink:href="#SVGID_35_"  style="overflow:visible;"/>
			</clipPath>
			<path id="XMLID_313_" class="st19" d="M821.6,341.1c-0.4,0-0.6,0.1-0.7,0.4l0,0v-0.3h-0.5c0,0.2,0.1,0.4,0.1,0.6l0.2,2.1h0.5
				l-0.1-1.6c0-0.4,0-0.8,0.5-0.8c0.4,0,0.5,0.2,0.5,0.5l0.1,1.8h0.5l-0.1-1.8C822.3,341.4,822.2,341.1,821.6,341.1"/>
		</g>
		<g>
			<defs>
				<rect id="SVGID_37_" x="111" y="141.6" width="934.6" height="547.7"/>
			</defs>
			<clipPath id="SVGID_38_">
				<use xlink:href="#SVGID_37_"  style="overflow:visible;"/>
			</clipPath>
			<path id="XMLID_310_" class="st20" d="M824.2,343.4c-0.3,0-0.4-0.2-0.5-0.5c0-0.6,0.5-0.6,1-0.6
				C824.8,343.2,824.5,343.3,824.2,343.4 M825.1,341.7c0-0.4-0.2-0.8-1-0.7c-0.6,0-0.9,0.3-0.9,0.9h0.5c0-0.3,0.1-0.5,0.4-0.5
				c0.5,0,0.5,0.4,0.5,0.7c-0.6,0-1.5,0.1-1.4,0.9c0,0.5,0.2,0.9,0.8,0.8c0.3,0,0.5-0.2,0.7-0.5l0,0v0.4h0.5c0-0.2-0.1-0.4-0.1-0.6
				V341.7z"/>
		</g>
		<g>
			<defs>
				<rect id="SVGID_39_" x="111" y="141.6" width="934.6" height="547.7"/>
			</defs>
			<clipPath id="SVGID_40_">
				<use xlink:href="#SVGID_39_"  style="overflow:visible;"/>
			</clipPath>
			<path id="XMLID_309_" class="st21" d="M826.6,342.8l-0.1-1.6h0.6v-0.3h-0.6l-0.1-0.7l-0.4,0.2v0.5h-0.5v0.3h0.5l0.1,1.9
				c0,0.3,0.2,0.5,0.7,0.4c0.1,0,0.3,0,0.4-0.1v-0.3c-0.1,0-0.2,0-0.2,0C826.7,343.2,826.7,343,826.6,342.8"/>
		</g>
	</g>
	
		<rect id="XMLID_306_" x="826.6" y="341.8" transform="matrix(7.339926e-002 0.9973 -0.9973 7.339926e-002 1108.2565 -508.7703)" class="st7" width="2.7" height="0.4"/>
	
		<rect id="XMLID_305_" x="827.5" y="339.6" transform="matrix(7.288200e-002 0.9973 -0.9973 7.288200e-002 1106.3638 -510.4715)" class="st7" width="0.5" height="0.5"/>
	<g id="XMLID_296_">
		<g>
			<defs>
				<rect id="SVGID_41_" x="111" y="141.6" width="934.6" height="547.7"/>
			</defs>
			<clipPath id="SVGID_42_">
				<use xlink:href="#SVGID_41_"  style="overflow:visible;"/>
			</clipPath>
			<path id="XMLID_302_" class="st22" d="M830,343c-0.5,0-0.6-0.3-0.7-1.1c-0.1-0.7,0.2-0.9,0.5-0.9s0.6,0.1,0.6,0.8
				C830.6,342.6,830.5,342.9,830,343 M829.9,340.6c-1,0.1-1,0.7-1,1.5c0.1,1.2,0.6,1.3,1.1,1.3c0.6,0,1-0.2,1-1.4
				C831,341.1,830.8,340.5,829.9,340.6"/>
		</g>
		<g>
			<defs>
				<rect id="SVGID_43_" x="111" y="141.6" width="934.6" height="547.7"/>
			</defs>
			<clipPath id="SVGID_44_">
				<use xlink:href="#SVGID_43_"  style="overflow:visible;"/>
			</clipPath>
			<path id="XMLID_301_" class="st23" d="M832.9,340.3c-0.4,0-0.6,0.1-0.7,0.4l0,0v-0.3h-0.5c0,0.2,0.1,0.4,0.1,0.6l0.2,2.1h0.5
				l-0.1-1.6c0-0.4,0-0.8,0.5-0.8c0.4,0,0.5,0.2,0.5,0.5l0.1,1.8h0.5l-0.1-1.8C833.7,340.6,833.5,340.3,832.9,340.3"/>
		</g>
		<g>
			<defs>
				<rect id="SVGID_45_" x="111" y="141.6" width="934.6" height="547.7"/>
			</defs>
			<clipPath id="SVGID_46_">
				<use xlink:href="#SVGID_45_"  style="overflow:visible;"/>
			</clipPath>
			<path id="XMLID_298_" class="st24" d="M835.5,342.6c-0.3,0-0.4-0.2-0.5-0.5c0-0.6,0.5-0.6,1-0.6
				C836.1,342.4,835.8,342.6,835.5,342.6 M836.4,340.9c0-0.5-0.2-0.8-1-0.7c-0.6,0-0.9,0.3-0.9,0.9h0.5c0-0.3,0.1-0.5,0.4-0.5
				c0.5,0,0.5,0.4,0.5,0.7c-0.6,0-1.4,0.1-1.4,0.9c0,0.5,0.2,0.9,0.8,0.8c0.3,0,0.6-0.2,0.7-0.5l0,0v0.4h0.5c0-0.2-0.1-0.4-0.1-0.6
				V340.9z"/>
		</g>
	</g>
	<polygon id="XMLID_295_" class="st7" points="837.2,339 837.5,342.8 838,342.7 837.7,338.9 	"/>
	<g id="XMLID_276_">
		<g>
			<defs>
				<rect id="SVGID_47_" x="111" y="141.6" width="934.6" height="547.7"/>
			</defs>
			<clipPath id="SVGID_48_">
				<use xlink:href="#SVGID_47_"  style="overflow:visible;"/>
			</clipPath>
			<path id="XMLID_294_" class="st25" d="M841.8,342.2c-0.4,0-0.7-0.1-0.8-1l-0.1-1c0-0.7,0-0.8,0.1-0.8c0-0.1,0.2-0.3,0.6-0.3
				c0.1,0,0.3,0,0.5,0.1c0.1,0.1,0.1,0.3,0.2,0.5h0.5c0-0.7-0.3-1.1-1.1-1.1c-0.8,0.1-1.3,0.4-1.2,1.5l0.1,1.1
				c0.1,1.5,0.9,1.5,1.4,1.4c0.3,0,1.1-0.1,1-1.3h-0.5C842.4,342.1,841.9,342.1,841.8,342.2"/>
		</g>
		<g>
			<defs>
				<rect id="SVGID_49_" x="111" y="141.6" width="934.6" height="547.7"/>
			</defs>
			<clipPath id="SVGID_50_">
				<use xlink:href="#SVGID_49_"  style="overflow:visible;"/>
			</clipPath>
			<path id="XMLID_291_" class="st26" d="M844.6,342c-0.5,0-0.6-0.3-0.7-1.1c-0.1-0.7,0.2-0.9,0.5-0.9s0.6,0.1,0.6,0.8
				C845.2,341.6,845.1,342,844.6,342 M844.5,339.6c-1,0.1-1,0.7-0.9,1.5c0.1,1.2,0.6,1.3,1.2,1.3c0.6,0,1-0.2,1-1.4
				C845.6,340.1,845.4,339.5,844.5,339.6"/>
		</g>
		<g>
			<defs>
				<rect id="SVGID_51_" x="111" y="141.6" width="934.6" height="547.7"/>
			</defs>
			<clipPath id="SVGID_52_">
				<use xlink:href="#SVGID_51_"  style="overflow:visible;"/>
			</clipPath>
			<path id="XMLID_288_" class="st27" d="M847.5,341.8c-0.5,0-0.6-0.5-0.6-0.9s-0.1-1.1,0.4-1.2c0.6,0,0.6,0.5,0.6,0.9
				C848,341.4,848,341.8,847.5,341.8 M847.4,339.4c-0.3,0-0.5,0.2-0.6,0.4l0,0v-0.3h-0.5l0.3,3.7h0.5l-0.1-1.3l0,0
				c0.2,0.2,0.4,0.3,0.6,0.3c0.9-0.1,0.9-0.8,0.8-1.5C848.4,339.5,847.9,339.3,847.4,339.4"/>
		</g>
		<g>
			<defs>
				<rect id="SVGID_53_" x="111" y="141.6" width="934.6" height="547.7"/>
			</defs>
			<clipPath id="SVGID_54_">
				<use xlink:href="#SVGID_53_"  style="overflow:visible;"/>
			</clipPath>
			<path id="XMLID_287_" class="st28" d="M849.6,339.7L849.6,339.7v-0.4h-0.5l0.2,2.7h0.5l-0.1-1.6c0-0.4,0.1-0.7,0.6-0.8h0.1h0.1
				v-0.5C850,339.2,849.8,339.3,849.6,339.7"/>
		</g>
		<g>
			<defs>
				<rect id="SVGID_55_" x="111" y="141.6" width="934.6" height="547.7"/>
			</defs>
			<clipPath id="SVGID_56_">
				<use xlink:href="#SVGID_55_"  style="overflow:visible;"/>
			</clipPath>
			<path id="XMLID_284_" class="st29" d="M852.2,341.5c-0.5,0-0.6-0.3-0.7-1.1c-0.1-0.7,0.2-0.9,0.5-0.9s0.6,0.1,0.6,0.8
				C852.7,341.1,852.6,341.5,852.2,341.5 M852,339.1c-1,0.1-1,0.7-1,1.5c0.1,1.2,0.6,1.3,1.2,1.3c0.6,0,1-0.2,1-1.4
				C853.1,339.6,853,339,852,339.1"/>
		</g>
		<g>
			<defs>
				<rect id="SVGID_57_" x="111" y="141.6" width="934.6" height="547.7"/>
			</defs>
			<clipPath id="SVGID_58_">
				<use xlink:href="#SVGID_57_"  style="overflow:visible;"/>
			</clipPath>
			<path id="XMLID_281_" class="st30" d="M855,341.3c-0.6,0-0.6-0.5-0.6-0.9c-0.1-0.7,0-1.1,0.5-1.1s0.6,0.5,0.6,0.9
				C855.4,340.7,855.5,341.3,855,341.3 M855.3,339.2L855.3,339.2c-0.2-0.2-0.4-0.3-0.6-0.3c-0.9,0.1-0.9,0.8-0.8,1.5
				c0.1,1.2,0.5,1.3,1,1.3c0.3,0,0.5-0.2,0.6-0.4l0,0v0.3h0.4l-0.3-3.8h-0.5L855.3,339.2z"/>
		</g>
		<g>
			<defs>
				<rect id="SVGID_59_" x="111" y="141.6" width="934.6" height="547.7"/>
			</defs>
			<clipPath id="SVGID_60_">
				<use xlink:href="#SVGID_59_"  style="overflow:visible;"/>
			</clipPath>
			<path id="XMLID_280_" class="st31" d="M858.6,338.7h-0.4l0.1,1.8c0,0.4-0.3,0.6-0.5,0.7c-0.3,0-0.5-0.2-0.5-0.5l-0.1-1.8h-0.5
				l0.1,2c0,0.5,0.3,0.7,0.8,0.6c0.3,0,0.5-0.2,0.7-0.4l0,0v0.3h0.5c0-0.2-0.1-0.4-0.1-0.6L858.6,338.7z"/>
		</g>
		<g>
			<defs>
				<rect id="SVGID_61_" x="111" y="141.6" width="934.6" height="547.7"/>
			</defs>
			<clipPath id="SVGID_62_">
				<use xlink:href="#SVGID_61_"  style="overflow:visible;"/>
			</clipPath>
			<path id="XMLID_279_" class="st32" d="M860.7,340.9c-0.5,0-0.6-0.3-0.7-1.1c-0.1-0.7,0.2-0.9,0.5-0.9c0.2,0,0.4,0.1,0.4,0.5h0.5
				c0-0.6-0.4-0.9-0.9-0.9c-1,0.1-1,0.7-0.9,1.5c0.1,1.2,0.6,1.3,1.2,1.3c0.3,0,0.9-0.3,0.8-1h-0.5
				C861.1,340.8,860.8,340.9,860.7,340.9"/>
		</g>
		<g>
			<defs>
				<rect id="SVGID_63_" x="111" y="141.6" width="934.6" height="547.7"/>
			</defs>
			<clipPath id="SVGID_64_">
				<use xlink:href="#SVGID_63_"  style="overflow:visible;"/>
			</clipPath>
			<path id="XMLID_278_" class="st33" d="M862.9,340.4l-0.1-1.6h0.6v-0.3h-0.6l-0.1-0.7l-0.4,0.2v0.5h-0.5v0.3h0.5l0.1,1.9
				c0,0.3,0.2,0.5,0.7,0.4c0.1,0,0.3,0,0.4-0.1v-0.3c-0.1,0-0.2,0-0.2,0C862.9,340.7,862.9,340.5,862.9,340.4"/>
		</g>
	</g>
	
		<rect id="XMLID_275_" x="862.9" y="339.4" transform="matrix(7.239696e-002 0.9974 -0.9974 7.239696e-002 1140.3901 -546.8801)" class="st7" width="2.7" height="0.5"/>
	<polygon id="XMLID_274_" class="st7" points="863.8,337.2 863.8,337.6 864.3,337.6 864.3,337.1 	"/>
	<g id="XMLID_268_">
		<g>
			<defs>
				<rect id="SVGID_65_" x="111" y="141.6" width="934.6" height="547.7"/>
			</defs>
			<clipPath id="SVGID_66_">
				<use xlink:href="#SVGID_65_"  style="overflow:visible;"/>
			</clipPath>
			<path id="XMLID_271_" class="st34" d="M866.3,340.5c-0.5,0-0.6-0.3-0.7-1.1c-0.1-0.7,0.2-0.9,0.5-0.9s0.6,0.1,0.6,0.8
				C866.9,340.2,866.8,340.5,866.3,340.5 M866.1,338.1c-1,0.1-1,0.7-0.9,1.5c0.1,1.2,0.6,1.3,1.2,1.3c0.6,0,1-0.2,1-1.4
				C867.2,338.7,867.1,338.1,866.1,338.1"/>
		</g>
		<g>
			<defs>
				<rect id="SVGID_67_" x="111" y="141.6" width="934.6" height="547.7"/>
			</defs>
			<clipPath id="SVGID_68_">
				<use xlink:href="#SVGID_67_"  style="overflow:visible;"/>
			</clipPath>
			<path id="XMLID_270_" class="st35" d="M869.2,337.9c-0.4,0-0.6,0.1-0.7,0.4l0,0V338H868c0,0.2,0.1,0.4,0.1,0.6l0.2,2.1h0.5
				l-0.1-1.6c0-0.4,0-0.8,0.5-0.8c0.4,0,0.5,0.2,0.5,0.5l0.1,1.8h0.4l-0.1-1.8C869.9,338.2,869.8,337.9,869.2,337.9"/>
		</g>
	</g>
	<polygon id="XMLID_267_" class="st7" points="874.6,339.7 874.6,339.7 873.3,336.5 872.5,336.6 872.8,340.4 873.3,340.4 873,337 
		873,337 874.4,340.3 874.8,340.3 875.7,336.8 875.7,336.8 876,340.2 876.5,340.2 876.2,336.3 875.4,336.4 	"/>
	<g id="XMLID_258_">
		<g>
			<defs>
				<rect id="SVGID_69_" x="111" y="141.6" width="934.6" height="547.7"/>
			</defs>
			<clipPath id="SVGID_70_">
				<use xlink:href="#SVGID_69_"  style="overflow:visible;"/>
			</clipPath>
			<path id="XMLID_264_" class="st36" d="M877.7,338.5c0-0.7,0.2-0.9,0.5-0.9s0.6,0.1,0.6,0.8L877.7,338.5z M878.2,337.3
				c-1,0.1-1,0.7-0.9,1.5c0.1,1.2,0.6,1.3,1.2,1.3c0.6,0,0.9-0.3,0.9-0.9h-0.5c0,0.3-0.1,0.5-0.4,0.5c-0.4,0-0.6-0.1-0.6-0.9
				l1.6-0.1v-0.2C879.2,337.7,879,337.3,878.2,337.3"/>
		</g>
		<g>
			<defs>
				<rect id="SVGID_71_" x="111" y="141.6" width="934.6" height="547.7"/>
			</defs>
			<clipPath id="SVGID_72_">
				<use xlink:href="#SVGID_71_"  style="overflow:visible;"/>
			</clipPath>
			<path id="XMLID_261_" class="st37" d="M880.5,338.4c0-0.7,0.2-0.9,0.5-0.9s0.6,0.1,0.6,0.8L880.5,338.4z M881,337.1
				c-1,0.1-1,0.7-0.9,1.5c0.1,1.2,0.6,1.3,1.2,1.3c0.6,0,0.9-0.3,0.9-0.9h-0.5c0,0.3-0.1,0.5-0.4,0.5c-0.4,0-0.6-0.1-0.6-0.9
				l1.6-0.1v-0.2C882,337.5,881.8,337.1,881,337.1"/>
		</g>
		<g>
			<defs>
				<rect id="SVGID_73_" x="111" y="141.6" width="934.6" height="547.7"/>
			</defs>
			<clipPath id="SVGID_74_">
				<use xlink:href="#SVGID_73_"  style="overflow:visible;"/>
			</clipPath>
			<path id="XMLID_260_" class="st38" d="M883.5,339l-0.1-1.6h0.6v-0.3h-0.6l-0.1-0.7l-0.4,0.2v0.5h-0.5v0.3h0.5l0.1,1.9
				c0,0.3,0.2,0.5,0.7,0.4c0.2,0,0.3,0,0.4-0.1v-0.3c-0.1,0-0.2,0-0.2,0C883.5,339.4,883.5,339.1,883.5,339"/>
		</g>
	</g>
	
		<rect id="XMLID_257_" x="883.3" y="338" transform="matrix(7.236730e-002 0.9974 -0.9974 7.236730e-002 1157.973 -568.6173)" class="st7" width="2.7" height="0.4"/>
	<polygon id="XMLID_256_" class="st7" points="884.3,335.8 884.3,336.3 884.8,336.2 884.8,335.8 	"/>
	<g id="XMLID_247_">
		<g>
			<defs>
				<rect id="SVGID_75_" x="111" y="141.6" width="934.6" height="547.7"/>
			</defs>
			<clipPath id="SVGID_76_">
				<use xlink:href="#SVGID_75_"  style="overflow:visible;"/>
			</clipPath>
			<path id="XMLID_255_" class="st39" d="M886.9,336.7c-0.4,0-0.6,0.1-0.7,0.4l0,0v-0.3h-0.5c0,0.2,0.1,0.4,0.1,0.6l0.2,2.1h0.5
				l-0.1-1.6c0-0.4,0-0.8,0.5-0.8c0.4,0,0.5,0.2,0.5,0.5l0.1,1.8h0.4l-0.1-1.8C887.7,337,887.5,336.7,886.9,336.7"/>
		</g>
		<g>
			<defs>
				<rect id="SVGID_77_" x="111" y="141.6" width="934.6" height="547.7"/>
			</defs>
			<clipPath id="SVGID_78_">
				<use xlink:href="#SVGID_77_"  style="overflow:visible;"/>
			</clipPath>
			<path id="XMLID_252_" class="st40" d="M890.1,337.9c0,0.4,0.1,1-0.5,1c-0.3,0-0.6-0.2-0.6-1c0-0.4-0.1-0.9,0.5-1
				C890,336.9,890.1,337.5,890.1,337.9 M890,336.9L890,336.9c-0.2-0.2-0.4-0.4-0.7-0.3c-0.2,0-0.9,0.1-0.8,1.4
				c0.1,0.8,0.2,1.4,1,1.4c0.2,0,0.5-0.2,0.6-0.4l0,0v0.6c0,0.3-0.1,0.5-0.5,0.5c-0.2,0-0.4-0.1-0.5-0.4h-0.5c0,0.5,0.4,0.7,0.9,0.7
				c0.6,0,1-0.2,1-0.8l-0.2-2.9h-0.5L890,336.9z"/>
		</g>
		<g>
			<defs>
				<rect id="SVGID_79_" x="111" y="141.6" width="934.6" height="547.7"/>
			</defs>
			<clipPath id="SVGID_80_">
				<use xlink:href="#SVGID_79_"  style="overflow:visible;"/>
			</clipPath>
			<path id="XMLID_251_" class="st41" d="M802.1,345.2h0.6c0-0.8,0.2-1.5,0.4-2.1s0.5-1.1,0.7-1.4v-0.4l-2.3,0.2v0.4l1.8-0.1
				c-0.4,0.5-0.6,1.1-0.8,1.7C802.3,344,802.2,344.6,802.1,345.2"/>
		</g>
		<g>
			<defs>
				<rect id="SVGID_81_" x="111" y="141.6" width="934.6" height="547.7"/>
			</defs>
			<clipPath id="SVGID_82_">
				<use xlink:href="#SVGID_81_"  style="overflow:visible;"/>
			</clipPath>
			<path id="XMLID_250_" class="st42" d="M804.2,341v0.5h-0.3v0.2h0.3l0.1,1.2c0,0.2,0.1,0.3,0.4,0.3c0.1,0,0.2,0,0.2,0V343h-0.1
				c-0.1,0-0.2,0-0.2-0.2l-0.1-1.1h0.3v-0.2h-0.3V341H804.2z"/>
		</g>
		<g>
			<defs>
				<rect id="SVGID_83_" x="111" y="141.6" width="934.6" height="547.7"/>
			</defs>
			<clipPath id="SVGID_84_">
				<use xlink:href="#SVGID_83_"  style="overflow:visible;"/>
			</clipPath>
			<path id="XMLID_249_" class="st43" d="M805.7,341.4c-0.2,0-0.3,0.1-0.4,0.3l0,0l-0.1-0.8h-0.3l0.2,2.3h0.3l-0.1-1.2
				c0-0.2,0.2-0.4,0.3-0.4c0.3,0,0.3,0.2,0.3,0.3l0.1,1.2h0.3l-0.1-1.2C806.2,341.7,806.2,341.3,805.7,341.4"/>
		</g>
	</g>
	<path id="XMLID_244_" class="st7" d="M901.9,364.6l-150.1,10.1l-5.2-71.6L896.7,293L901.9,364.6z M745.4,302.1l5.4,73.8l152.3-10.2
		l-5.4-73.8L745.4,302.1z"/>
	<g id="XMLID_241_">
		<g>
			<defs>
				<rect id="SVGID_85_" x="111" y="141.6" width="934.6" height="547.7"/>
			</defs>
			<clipPath id="SVGID_86_">
				<use xlink:href="#SVGID_85_"  style="overflow:visible;"/>
			</clipPath>
			<path id="XMLID_243_" class="st44" d="M542.9,304.6l162.6-10.9c1.3,9.7,9.1,17.1,18.3,17.6l0.1,1.9c-1.8,0.1-3.1,1.7-3,3.6
				s1.7,3.3,3.5,3.2l0.1,1.2c-1.8,0.1-3.1,1.7-3,3.6s1.7,3.3,3.5,3.2l0.1,1.2c-1.8,0.1-3.1,1.7-3,3.6s1.7,3.3,3.4,3.2l0.1,1.2
				c-1.8,0.1-3.1,1.7-3,3.6s1.7,3.3,3.4,3.2l0.1,1.2c-1.8,0.1-3.1,1.7-3,3.6s1.7,3.3,3.5,3.2l0.1,1.2c-1.8,0.1-3.1,1.7-3,3.6
				s1.7,3.3,3.4,3.2l0.1,1.2c-1.8,0.1-3.1,1.7-3,3.6s1.7,3.3,3.5,3.2l0.1,1.9c-9.1,1.7-15.7,10-15.6,19.9l-162.6,10.9
				c-1.3-9.7-9.1-17.1-18.3-17.6l-0.1-1.9c0.1,0,0.2,0,0.4,0c1.8-0.1,3.1-1.7,3-3.6c-0.1-1.9-1.7-3.3-3.5-3.2c-0.1,0-0.2,0-0.4,0
				l-0.1-1.2c0.1,0,0.2,0,0.4,0c1.8-0.1,3.1-1.7,3-3.6s-1.7-3.3-3.5-3.2c-0.1,0-0.2,0-0.4,0l-0.1-1.2c0.1,0,0.2,0,0.4,0
				c1.8-0.1,3.1-1.7,3-3.6c-0.1-1.9-1.7-3.3-3.5-3.2c-0.1,0-0.2,0-0.4,0l-0.1-1.2c0.1,0,0.2,0,0.4,0c1.8-0.1,3.1-1.7,3-3.6
				s-1.7-3.3-3.5-3.2c-0.1,0-0.2,0-0.4,0l-0.1-1.2c0.1,0,0.2,0,0.4,0c1.8-0.1,3.1-1.7,3-3.6c-0.1-1.9-1.7-3.3-3.5-3.2
				c-0.1,0-0.2,0-0.4,0l-0.1-1.2c0.1,0,0.2,0,0.4,0c1.8-0.1,3.1-1.7,3-3.6s-1.7-3.3-3.5-3.2c-0.1,0-0.2,0-0.4,0l-0.1-1.2
				c0.1,0,0.2,0,0.4,0c1.8-0.1,3.1-1.7,3-3.6c-0.1-1.9-1.7-3.3-3.5-3.2c-0.1,0-0.2,0-0.4,0l-0.1-1.9
				C536.4,322.8,543,314.5,542.9,304.6"/>
		</g>
	</g>
	<path id="XMLID_237_" class="st7" d="M705.4,377.8l-19.5,1.3l-5.2-71.6l19.5-1.3L705.4,377.8z M550,316.3l129.5-8.7l5.2,71.6
		l-129.5,8.7L550,316.3z M548.8,315.3l5.4,73.8l152.3-10.2l-5.4-73.8L548.8,315.3z"/>
	<g id="XMLID_228_">
		<g>
			<defs>
				<rect id="SVGID_87_" x="111" y="141.6" width="934.6" height="547.7"/>
			</defs>
			<clipPath id="SVGID_88_">
				<use xlink:href="#SVGID_87_"  style="overflow:visible;"/>
			</clipPath>
			<path id="XMLID_234_" class="st45" d="M620.6,375.6c0,0.5-0.4,0.7-0.7,0.8c-0.3,0-0.5-0.3-0.5-0.6c0-0.4,0.1-0.6,0.6-0.8
				c0.1,0,0.3-0.1,0.5-0.3L620.6,375.6z M621.6,373.6c-0.1-0.8-0.4-1.4-1.8-1.3c-0.9,0.1-1.6,0.5-1.6,1.5v0.1l1.1-0.1v-0.1
				c0-0.4,0.2-0.6,0.5-0.6c0.4,0,0.6,0.2,0.6,0.5c0,0.3-0.1,0.5-0.4,0.6l-0.7,0.2c-0.8,0.3-1.2,0.6-1.1,1.5c0,0.6,0.4,1.3,1.2,1.2
				c0.6,0,0.9-0.2,1.2-0.7l0,0c0,0.1,0.1,0.3,0.2,0.5l1.2-0.1c-0.1-0.3-0.2-0.5-0.2-0.9L621.6,373.6z"/>
		</g>
		<g>
			<defs>
				<rect id="SVGID_89_" x="111" y="141.6" width="934.6" height="547.7"/>
			</defs>
			<clipPath id="SVGID_90_">
				<use xlink:href="#SVGID_89_"  style="overflow:visible;"/>
			</clipPath>
			<path id="XMLID_230_" class="st46" d="M567.3,379.7h-0.5l-0.1-1.8h0.5c0.6,0,1,0.1,1,0.8C568.4,379.4,568,379.6,567.3,379.7
				 M566.5,375.4h0.5c0.6,0,0.9,0.1,1,0.7c0,0.6-0.3,0.8-0.9,0.9h-0.4L566.5,375.4z M568.4,377.3L568.4,377.3
				c0.6-0.2,0.9-0.7,0.9-1.4c-0.1-1.2-0.9-1.5-1.9-1.4l-2.1,0.1l0.4,6l2.1-0.1c1.5-0.1,1.9-1,1.8-1.9
				C569.6,377.8,569.1,377.3,568.4,377.3"/>
		</g>
	</g>
	<polygon id="XMLID_227_" class="st7" points="622.5,370.8 622.9,376.8 624.1,376.7 623.7,370.7 	"/>
	<g id="XMLID_221_">
		<g>
			<defs>
				<rect id="SVGID_91_" x="111" y="141.6" width="934.6" height="547.7"/>
			</defs>
			<clipPath id="SVGID_92_">
				<use xlink:href="#SVGID_91_"  style="overflow:visible;"/>
			</clipPath>
			<path id="XMLID_224_" class="st47" d="M611.1,376.9c-0.6,0-0.7-0.6-0.8-1.6c-0.1-0.9-0.1-1.6,0.5-1.6c0.5,0,0.7,0.4,0.8,1.6
				C611.7,376.4,611.6,376.9,611.1,376.9 M610.8,372.9c-1.4,0.1-1.8,1-1.7,2.5c0.1,1.6,0.6,2.4,2,2.3s1.8-1,1.7-2.5
				C612.7,373.6,612.3,372.8,610.8,372.9"/>
		</g>
		<g>
			<defs>
				<rect id="SVGID_93_" x="111" y="141.6" width="934.6" height="547.7"/>
			</defs>
			<clipPath id="SVGID_94_">
				<use xlink:href="#SVGID_93_"  style="overflow:visible;"/>
			</clipPath>
			<path id="XMLID_223_" class="st48" d="M615.9,372.6c-0.5,0-0.9,0.3-1.2,0.7l0,0v-0.5l-1.2,0.1l0.3,4.6l1.2-0.1l-0.2-3
				c0-0.5,0.2-0.8,0.6-0.8s0.5,0.1,0.6,0.6l0.2,3.1l1.2-0.1l-0.2-3.4C617.1,372.9,616.7,372.5,615.9,372.6"/>
		</g>
	</g>
	<polygon id="XMLID_220_" class="st7" points="633.7,370 634.1,376.1 635.3,376 634.9,369.9 	"/>
	<polygon id="XMLID_219_" class="st7" points="627.5,376.5 628.8,376.4 628.6,373.8 630.7,373.7 630.6,372.7 628.5,372.8 
		628.4,371.4 630.7,371.2 630.6,370.2 627.1,370.5 	"/>
	<polygon id="XMLID_218_" class="st7" points="606.9,373.3 607.2,377.9 608.4,377.8 608.1,373.2 	"/>
	<polygon id="XMLID_217_" class="st7" points="645.6,375.3 646.8,375.2 646.6,372.6 648.7,372.4 648.7,371.4 646.6,371.6 
		646.5,370.2 648.7,370 648.6,369 645.1,369.3 	"/>
	<g id="XMLID_214_">
		<g>
			<defs>
				<rect id="SVGID_95_" x="111" y="141.6" width="934.6" height="547.7"/>
			</defs>
			<clipPath id="SVGID_96_">
				<use xlink:href="#SVGID_95_"  style="overflow:visible;"/>
			</clipPath>
			<path id="XMLID_216_" class="st49" d="M640.7,370.9c-0.6,0-1,0.3-1.1,0.8l0,0c-0.2-0.5-0.6-0.7-1.1-0.7s-0.9,0.2-1.2,0.7l0,0
				v-0.5l-1.2,0.1l0.3,4.6l1.2-0.1l-0.2-3c0-0.5,0.2-0.8,0.6-0.8c0.3,0,0.5,0.2,0.5,0.6l0.2,3.2l1.2-0.1l-0.2-3
				c0-0.5,0.2-0.8,0.6-0.8c0.3,0,0.5,0.2,0.5,0.6l0.2,3.2l1.2-0.1l-0.2-3.3C641.9,371.3,641.5,370.9,640.7,370.9"/>
		</g>
	</g>
	<polygon id="XMLID_213_" class="st7" points="631.5,371.7 631.8,376.2 633,376.1 632.7,371.6 	"/>
	<polygon id="XMLID_212_" class="st7" points="577.7,373.8 578.2,379.8 579.5,379.7 579,373.7 	"/>
	<polygon id="XMLID_211_" class="st7" points="573.2,376.4 571.7,376.5 571.6,374.2 570.3,374.3 570.7,380.3 572,380.2 571.8,377.6 
		573.3,377.5 573.5,380.1 574.8,380.1 574.3,374 573,374.1 	"/>
	<g id="XMLID_195_">
		<g>
			<defs>
				<rect id="SVGID_97_" x="111" y="141.6" width="934.6" height="547.7"/>
			</defs>
			<clipPath id="SVGID_98_">
				<use xlink:href="#SVGID_97_"  style="overflow:visible;"/>
			</clipPath>
			<path id="XMLID_210_" class="st50" d="M582.6,374.8c-0.5,0-0.9,0.3-1.2,0.7l0,0V375l-1.2,0.1l0.3,4.6l1.2-0.1l-0.2-3
				c0-0.5,0.2-0.8,0.6-0.8s0.5,0.1,0.6,0.6l0.2,3.1l1.2-0.1l-0.2-3.4C583.8,375.2,583.4,374.8,582.6,374.8"/>
		</g>
		<g>
			<defs>
				<rect id="SVGID_99_" x="111" y="141.6" width="934.6" height="547.7"/>
			</defs>
			<clipPath id="SVGID_100_">
				<use xlink:href="#SVGID_99_"  style="overflow:visible;"/>
			</clipPath>
			<path id="XMLID_209_" class="st51" d="M593.1,374.9L593.1,374.9l-0.1-0.6l-1.2,0.1l0.3,4.6l1.2-0.1l-0.2-2.7
				c0-0.6,0.4-0.9,0.8-0.9c0.1,0,0.3,0,0.4,0l-0.1-1.1c-0.1,0-0.1,0-0.2,0C593.6,374.1,593.3,374.4,593.1,374.9"/>
		</g>
		<g>
			<defs>
				<rect id="SVGID_101_" x="111" y="141.6" width="934.6" height="547.7"/>
			</defs>
			<clipPath id="SVGID_102_">
				<use xlink:href="#SVGID_101_"  style="overflow:visible;"/>
			</clipPath>
			<path id="XMLID_208_" class="st52" d="M597.4,373.8c-0.5,0-0.9,0.3-1.2,0.7l0,0V374l-1.2,0.1l0.3,4.6l1.2-0.1l-0.2-3
				c0-0.5,0.2-0.8,0.6-0.8s0.5,0.1,0.6,0.6l0.2,3.1l1.2-0.1l-0.2-3.4C598.6,374.2,598.1,373.8,597.4,373.8"/>
		</g>
		<g>
			<defs>
				<rect id="SVGID_103_" x="111" y="141.6" width="934.6" height="547.7"/>
			</defs>
			<clipPath id="SVGID_104_">
				<use xlink:href="#SVGID_103_"  style="overflow:visible;"/>
			</clipPath>
			<path id="XMLID_205_" class="st53" d="M602,376.8c0,0.5-0.4,0.7-0.7,0.8c-0.3,0-0.5-0.3-0.5-0.6c0-0.4,0.1-0.6,0.6-0.8
				c0.1,0,0.3-0.1,0.5-0.3L602,376.8z M603.1,374.9c-0.1-0.8-0.4-1.4-1.8-1.3c-0.9,0.1-1.6,0.5-1.6,1.5v0.1l1.1-0.1V375
				c0-0.4,0.1-0.6,0.5-0.6c0.4,0,0.6,0.2,0.6,0.5c0,0.3-0.1,0.5-0.4,0.6l-0.7,0.2c-0.8,0.3-1.2,0.6-1.1,1.5c0,0.6,0.4,1.3,1.2,1.2
				c0.6,0,0.9-0.2,1.2-0.7l0,0c0.1,0.1,0.1,0.3,0.2,0.5l1.2-0.1c-0.1-0.3-0.2-0.4-0.2-0.9L603.1,374.9z"/>
		</g>
		<g>
			<defs>
				<rect id="SVGID_105_" x="111" y="141.6" width="934.6" height="547.7"/>
			</defs>
			<clipPath id="SVGID_106_">
				<use xlink:href="#SVGID_105_"  style="overflow:visible;"/>
			</clipPath>
			<path id="XMLID_204_" class="st54" d="M605.4,372.1l-1.2,0.1l0.1,1.3h-0.6l0.1,0.8h0.6l0.2,2.6c0.1,0.9,0.3,1.2,1.2,1.1
				c0.3,0,0.5-0.1,0.8-0.1l-0.1-0.8c-0.1,0-0.2,0-0.3,0c-0.4,0-0.4-0.1-0.5-0.5l-0.2-2.5h0.7l-0.1-0.8h-0.7V372.1z"/>
		</g>
		<g>
			<defs>
				<rect id="SVGID_107_" x="111" y="141.6" width="934.6" height="547.7"/>
			</defs>
			<clipPath id="SVGID_108_">
				<use xlink:href="#SVGID_107_"  style="overflow:visible;"/>
			</clipPath>
			<path id="XMLID_201_" class="st55" d="M588.8,376.3v-0.2c0-0.4,0.1-0.9,0.6-1c0.5,0,0.6,0.3,0.7,1L588.8,376.3z M589.3,374.4
				c-1.6,0.1-1.8,1.3-1.7,2.5c0.1,1.1,0.2,2.4,2,2.3c1.1-0.1,1.6-0.7,1.6-1.8l-1.1,0.1c0,0.6-0.2,0.9-0.6,0.9c-0.4,0-0.6-0.5-0.7-1
				V377l2.4-0.2v-0.3C591.1,375.2,590.7,374.3,589.3,374.4"/>
		</g>
		<g>
			<defs>
				<rect id="SVGID_109_" x="111" y="141.6" width="934.6" height="547.7"/>
			</defs>
			<clipPath id="SVGID_110_">
				<use xlink:href="#SVGID_109_"  style="overflow:visible;"/>
			</clipPath>
			<path id="XMLID_200_" class="st56" d="M586.2,373.4l-1.2,0.1l0.1,1.3h-0.6l0.1,0.8h0.6l0.2,2.6c0.1,0.9,0.3,1.2,1.2,1.1
				c0.3,0,0.5-0.1,0.8-0.1l-0.1-0.8c-0.1,0-0.2,0-0.3,0c-0.4,0-0.4-0.1-0.5-0.5l-0.2-2.5h0.7l-0.1-0.8h-0.7V373.4z"/>
		</g>
		<g>
			<defs>
				<rect id="SVGID_111_" x="111" y="141.6" width="934.6" height="547.7"/>
			</defs>
			<clipPath id="SVGID_112_">
				<use xlink:href="#SVGID_111_"  style="overflow:visible;"/>
			</clipPath>
			<path id="XMLID_197_" class="st57" d="M650.5,372.2V372c0-0.4,0.1-0.9,0.6-1c0.5,0,0.6,0.3,0.7,1L650.5,372.2z M651,370.2
				c-1.6,0.1-1.8,1.3-1.7,2.5c0.1,1.1,0.2,2.4,2,2.3c1.1-0.1,1.6-0.7,1.6-1.8l-1.1,0.1c0,0.6-0.2,0.9-0.6,0.9c-0.5,0-0.6-0.5-0.7-1
				v-0.4l2.4-0.2v-0.3C652.8,371,652.4,370.1,651,370.2"/>
		</g>
	</g>
	<polygon id="XMLID_194_" class="st7" points="664.6,372.7 664.6,372.7 663.7,369.5 662.4,369.6 663.9,374.1 665.4,374 666.2,369.3 
		665,369.4 	"/>
	<g id="XMLID_189_">
		<g>
			<defs>
				<rect id="SVGID_113_" x="111" y="141.6" width="934.6" height="547.7"/>
			</defs>
			<clipPath id="SVGID_114_">
				<use xlink:href="#SVGID_113_"  style="overflow:visible;"/>
			</clipPath>
			<path id="XMLID_191_" class="st58" d="M669.2,372.3c0,0.5-0.4,0.7-0.7,0.8c-0.3,0-0.5-0.3-0.5-0.6c0-0.4,0.1-0.6,0.6-0.8
				c0.1,0,0.3-0.1,0.5-0.3L669.2,372.3z M670.2,370.4c-0.1-0.8-0.4-1.4-1.8-1.3c-0.9,0.1-1.6,0.5-1.6,1.5v0.1l1.1-0.1v-0.1
				c0-0.4,0.1-0.6,0.5-0.6s0.6,0.2,0.6,0.5c0,0.3-0.1,0.4-0.4,0.6l-0.7,0.2c-0.8,0.3-1.2,0.6-1.1,1.5c0,0.6,0.4,1.3,1.2,1.2
				c0.6,0,0.9-0.2,1.2-0.7l0,0c0.1,0.1,0.1,0.3,0.2,0.5l1.2-0.1c-0.1-0.3-0.2-0.4-0.2-0.9L670.2,370.4z"/>
		</g>
	</g>
	<polygon id="XMLID_188_" class="st7" points="671.1,367.5 671.5,373.6 672.7,373.5 672.3,367.4 	"/>
	<polygon id="XMLID_187_" class="st7" points="660.5,369.7 660.8,374.3 662,374.2 661.7,369.6 	"/>
	<g id="XMLID_183_">
		<g>
			<defs>
				<rect id="SVGID_115_" x="111" y="141.6" width="934.6" height="547.7"/>
			</defs>
			<clipPath id="SVGID_116_">
				<use xlink:href="#SVGID_115_"  style="overflow:visible;"/>
			</clipPath>
			<path id="XMLID_186_" class="st59" d="M655.9,372l-0.8-0.2c-0.4-0.1-0.5-0.3-0.6-0.5c0-0.3,0.2-0.5,0.5-0.5
				c0.4,0,0.6,0.2,0.6,0.7l1.1-0.1v-0.2c-0.1-0.8-0.6-1.3-1.7-1.2c-1.3,0.1-1.7,0.7-1.6,1.5c0.1,0.6,0.4,1,1.1,1.2l0.9,0.2
				c0.2,0.1,0.5,0.2,0.5,0.5c0,0.4-0.2,0.6-0.6,0.6c-0.4,0-0.7-0.2-0.7-0.6v-0.2l-1.1,0.1v0.2c0.1,0.9,0.5,1.4,1.8,1.3
				c1-0.1,1.7-0.6,1.7-1.5C657,372.5,656.7,372.2,655.9,372"/>
		</g>
		<g>
			<defs>
				<rect id="SVGID_117_" x="111" y="141.6" width="934.6" height="547.7"/>
			</defs>
			<clipPath id="SVGID_118_">
				<use xlink:href="#SVGID_117_"  style="overflow:visible;"/>
			</clipPath>
			<path id="XMLID_185_" class="st60" d="M659,368.5l-1.2,0.1l0.1,1.3h-0.6l0.1,0.8h0.6l0.2,2.6c0.1,0.9,0.3,1.2,1.2,1.1
				c0.3,0,0.5-0.1,0.8-0.1l-0.1-0.8c-0.1,0-0.2,0-0.3,0c-0.4,0-0.4-0.1-0.5-0.5l-0.2-2.5h0.7l-0.1-0.8H659V368.5z"/>
		</g>
	</g>
	<polygon id="XMLID_182_" class="st7" points="629.2,346 628,330.8 626.1,330.9 627.3,346.1 	"/>
	<g id="XMLID_178_">
		<g>
			<defs>
				<rect id="SVGID_119_" x="111" y="141.6" width="934.6" height="547.7"/>
			</defs>
			<clipPath id="SVGID_120_">
				<use xlink:href="#SVGID_119_"  style="overflow:visible;"/>
			</clipPath>
			<path id="XMLID_181_" class="st61" d="M622.8,359.3c2.2-0.2,3.5-1.5,3.7-4.1l0,0v-0.1v-0.5c0-0.5,0-1.1,0-1.7l-0.3-3.5l-2.8,0.2
				l0.4,5.2c0,0.1,0,0.2,0,0.3c0,0,0,0.1,0,0.2c0,0.6-0.3,1-0.8,1.2c-0.1,0-0.1,0-0.2,0s-0.2,0.1-0.4,0.1c-1,0.1-1.5-0.4-1.6-1.5
				l-1.5-19.2c-0.1-1.1,0.4-1.6,1.3-1.7c1-0.1,1.5,0.4,1.6,1.5l0.3,4.3l2.8-0.2l-0.2-2.5c-0.3-4.1-1.9-6-4.7-5.8
				c-2.9,0.2-4.2,2.4-3.9,6.5l1.2,15.7C618.2,357.6,619.8,359.6,622.8,359.3"/>
		</g>
		<g>
			<defs>
				<rect id="SVGID_121_" x="111" y="141.6" width="934.6" height="547.7"/>
			</defs>
			<clipPath id="SVGID_122_">
				<use xlink:href="#SVGID_121_"  style="overflow:visible;"/>
			</clipPath>
			<path id="XMLID_180_" class="st62" d="M598.9,334.8l1.1,13.4l1.9-0.1l-1.1-13.4l1.5-0.1l-0.1-1.8l-2.4,0.2c0,0,0,0-0.1,0
				l-2.5,0.2l0.1,1.8L598.9,334.8z"/>
		</g>
	</g>
	<polygon id="XMLID_177_" class="st7" points="574.6,350 572.8,328.1 577.4,349.8 579.8,349.6 581,327.5 582.7,349.4 585.3,349.2 
		583.1,321.2 578.7,321.6 578,341.8 574,321.9 569.7,322.2 571.9,350.2 	"/>
	<g id="XMLID_174_">
		<g>
			<defs>
				<rect id="SVGID_123_" x="111" y="141.6" width="934.6" height="547.7"/>
			</defs>
			<clipPath id="SVGID_124_">
				<use xlink:href="#SVGID_123_"  style="overflow:visible;"/>
			</clipPath>
			<path id="XMLID_176_" class="st63" d="M592.2,337.9v0.3c0,0.6,0.3,1.2,0.7,1.8l0,0c0.3,0.4,0.6,0.9,1,1.3c0.4,0.5,0.7,0.9,1,1.2
				c0.4,0.6,0.6,1.2,0.6,1.7l0.1,1.7c0,0.3,0,0.4-0.1,0.6c-0.1,0.1-0.2,0.2-0.4,0.2c-0.1,0-0.2,0-0.2,0c-0.1,0-0.1-0.1-0.1-0.1
				c-0.1-0.1-0.2-0.3-0.2-0.5l-0.2-2.4l0,0v-0.5l-1.9,0.1l0.1,1.6v0.4l0,0c0,0.2,0.1,0.5,0.1,0.7c0,0.1,0.1,0.3,0.1,0.4
				s0,0.1,0.1,0.2c0,0.2,0.1,0.3,0.2,0.4c0,0,0,0,0,0.1c0.1,0.1,0.1,0.3,0.2,0.4l0,0c0,0,0,0.1,0.1,0.2l0,0l0,0l0.1,0.1l0.1,0.1l0,0
				l0,0c0,0,0,0,0.1,0l0,0c0.1,0.1,0.1,0.1,0.2,0.2l0,0l0,0l0,0c0,0,0.1,0,0.1,0.1l0,0c0,0,0,0,0.1,0c0.1,0.1,0.3,0.1,0.5,0.2l0,0
				l0,0c0.1,0,0.2,0,0.3,0l0,0c0.1,0,0.2,0,0.3,0l0,0l0,0l0,0c0.1,0,0.2,0,0.3-0.1l0,0h0.1l0,0c0,0,0,0,0.1,0l0,0c0,0,0,0,0.1,0l0,0
				l0,0c0,0,0,0,0.1,0l0,0h0.1l0,0c0,0,0,0,0.1,0c0,0,0.1,0,0.1-0.1h0.1l0,0l0,0l0,0c0.1-0.1,0.2-0.2,0.3-0.2l0,0l0,0l0,0
				c0.1-0.1,0.2-0.2,0.3-0.3c0.3-0.6,0.5-1.5,0.4-2.6l-0.1-0.9l0,0v-0.3c0-0.6-0.3-1.2-0.7-1.8l0,0c-0.3-0.4-0.6-0.9-1-1.3
				c-0.4-0.4-0.7-0.9-1-1.2c-0.4-0.6-0.6-1.2-0.6-1.7l-0.1-1.7c0-0.3,0-0.5,0.1-0.6c0.1-0.1,0.2-0.2,0.3-0.2s0.2,0,0.2,0
				c0.1,0,0.1,0.1,0.1,0.1c0.1,0.1,0.2,0.3,0.2,0.5l0.2,2.4l1.9-0.1l-0.1-1.5l0,0c0-0.2-0.1-0.5-0.1-0.7c0-0.1-0.1-0.3-0.1-0.4
				c0-0.1,0-0.1,0-0.2c0-0.2-0.1-0.3-0.2-0.4c0,0,0,0,0-0.1c-0.1-0.1-0.1-0.3-0.2-0.4l0,0c0,0,0-0.1-0.1-0.2l0,0l0,0l-0.1-0.1
				c0,0,0-0.1-0.1-0.1l0,0l0,0c0,0,0,0-0.1,0l0,0c-0.1-0.1-0.1-0.1-0.2-0.2l0,0l0,0c0,0-0.1,0-0.1-0.1l0,0l0,0
				c-0.2-0.1-0.3-0.1-0.5-0.2l0,0l0,0l0,0c-0.1,0-0.2,0-0.3,0l0,0c-0.1,0-0.2,0-0.3,0l0,0l0,0l0,0c-0.1,0-0.2,0-0.3,0l0,0h-0.1l0,0
				c0,0,0,0-0.1,0l0,0c0,0,0,0-0.1,0l0,0l0,0c0,0,0,0-0.1,0l0,0h-0.1l0,0c0,0,0,0-0.1,0c0,0-0.1,0-0.1,0.1h-0.1l0,0l0,0l0,0
				c-0.1,0.1-0.2,0.2-0.3,0.2l0,0l0,0l0,0c-0.1,0.1-0.2,0.2-0.3,0.3c-0.3,0.6-0.5,1.5-0.4,2.6V337.9
				C592.2,337.8,592.2,337.9,592.2,337.9"/>
		</g>
	</g>
	<polygon id="XMLID_173_" class="st7" points="632.4,345.8 631.7,337.3 634,345.6 636.1,345.5 634.9,330.3 633.2,330.4 633.9,338.9 
		631.6,330.5 629.4,330.7 630.6,345.9 	"/>
	<polygon id="XMLID_172_" class="st7" points="641.8,345.1 641.7,343.2 639.3,343.4 638.9,338.4 640.3,338.3 640.1,336.5 
		638.8,336.6 638.4,331.9 640.8,331.7 640.6,329.9 636.4,330.2 637.6,345.4 	"/>
	<polygon id="XMLID_171_" class="st7" points="657.3,356.8 656.3,343.9 659.2,343.7 660.3,356.6 663.2,356.4 660.9,328.4 658,328.6 
		659,340.9 656.1,341.1 655.1,328.8 652.2,329.1 654.4,357 	"/>
	<g id="XMLID_159_">
		<g>
			<defs>
				<rect id="SVGID_125_" x="111" y="141.6" width="934.6" height="547.7"/>
			</defs>
			<clipPath id="SVGID_126_">
				<use xlink:href="#SVGID_125_"  style="overflow:visible;"/>
			</clipPath>
			<path id="XMLID_168_" class="st64" d="M606,334.2c0.2,0,0.3,0,0.4,0c0,0,0.1,0,0.3,0.1c0.1,0.1,0.2,0.3,0.2,0.6l0.2,3
				c0,0.3,0,0.5-0.1,0.7c-0.1,0.1-0.3,0.2-0.6,0.2l-0.7,0.1l-0.4-4.7H606z M606.4,347.7l-0.5-6.8h0.5l1.5,6.8l1.9-0.1l-1.8-7.2
				c0.3-0.3,0.6-0.7,0.7-1.1l0,0c0.1-0.1,0.1-0.2,0.1-0.2c0.1-0.5,0.2-1.1,0.1-1.8l-0.1-1.6c-0.1-1.1-0.4-1.9-0.9-2.4
				s-1.2-0.8-2.1-0.7l-2.6,0.2l1.2,15.2L606.4,347.7z"/>
		</g>
		<g>
			<defs>
				<rect id="SVGID_127_" x="111" y="141.6" width="934.6" height="547.7"/>
			</defs>
			<clipPath id="SVGID_128_">
				<use xlink:href="#SVGID_127_"  style="overflow:visible;"/>
			</clipPath>
			<path id="XMLID_164_" class="st65" d="M646.7,332.3c1-0.1,1.5,0.4,1.6,1.5l0.5,6.3c0.1,0.9-0.2,1.5-0.9,1.7
				c-0.1,0-0.3,0.1-0.4,0.1L646,342l-0.8-9.5L646.7,332.3z M649.8,352.9c0.1,0.9-0.2,1.5-0.9,1.7c-0.1,0-0.3,0.1-0.4,0.1l-1.5,0.1
				l-0.8-10.1l1.4-0.1c1-0.1,1.5,0.4,1.6,1.5L649.8,352.9z M644.3,356.9C644.3,356.9,644.3,357,644.3,356.9v0.9l4.4-0.3
				c1.1-0.1,2-0.4,2.6-1.1c0.3-0.2,0.5-0.6,0.5-0.6c0.7-1.1,1-2.7,0.8-4.9l-0.2-2.9v-0.4c-0.2-2.5-1-4-2.4-4.6
				c0.2-0.1,0.4-0.3,0.6-0.4c-0.1,0.1,0,0,0,0c0.4-0.3,0.6-0.8,0.8-1.3l0,0c0.3-0.8,0.4-1.9,0.3-3.2l-0.2-2.8
				c-0.3-4.1-1.9-6-4.9-5.8l-4.4,0.3L644.3,356.9L644.3,356.9"/>
		</g>
		<g>
			<defs>
				<rect id="SVGID_129_" x="111" y="141.6" width="934.6" height="547.7"/>
			</defs>
			<clipPath id="SVGID_130_">
				<use xlink:href="#SVGID_129_"  style="overflow:visible;"/>
			</clipPath>
			<path id="XMLID_161_" class="st66" d="M587.8,335.7c0.1-0.1,0.2-0.2,0.4-0.2c0.2,0,0.4,0,0.5,0.1c0.1,0.1,0.2,0.3,0.2,0.5
				l0.8,10.2c0,0.3,0,0.4-0.1,0.5s-0.2,0.2-0.4,0.2c-0.2,0-0.4,0-0.5-0.1c-0.1-0.1-0.2-0.3-0.2-0.5l-0.8-10.2
				C587.6,336,587.7,335.8,587.8,335.7 M586.6,346.1L586.6,346.1c0,0.2,0.1,0.4,0.1,0.6c0.1,0.6,0.3,1,0.6,1.4l0,0l0,0l0,0l0,0l0,0
				c0.1,0,0.1,0.1,0.2,0.1c0,0,0,0,0.1,0.1l0,0c0.1,0.1,0.2,0.1,0.2,0.1c0.4,0.3,1,0.4,1.6,0.4l0,0c0.1,0,0.2,0,0.3,0
				c0.3-0.1,0.6-0.2,0.9-0.4l0,0c0.2-0.2,0.4-0.4,0.5-0.6c0.4-0.6,0.5-1.5,0.4-2.6c0,0-0.7-8.5-0.7-8.7l0,0c0-0.2-0.1-0.4-0.1-0.6
				c-0.1-0.6-0.3-1-0.6-1.4l0,0l0,0l0,0l0,0l0,0c0,0-0.1-0.1-0.2-0.1c0,0,0,0-0.1-0.1l0,0c-0.1-0.1-0.2-0.1-0.2-0.1
				c-0.4-0.3-0.9-0.4-1.5-0.4l0,0c-0.1,0-0.2,0-0.3,0c-0.3,0.1-0.6,0.2-0.9,0.4h-0.1c-0.2,0.2-0.4,0.4-0.5,0.6
				c-0.4,0.6-0.5,1.5-0.4,2.6C585.8,337.4,586.6,345.9,586.6,346.1"/>
		</g>
	</g>
	<path id="XMLID_156_" class="st7" d="M612.6,339v-0.8l0.1,0.8l0.8,4l-1.2,0.1L612.6,339z M612.3,345l1.7-0.1l0.5,2.2l1.9-0.1
		l-3.3-15l-1.9,0.1l-0.9,15.3l1.9-0.1L612.3,345z"/>
	<polygon id="XMLID_155_" class="st7" points="564.8,368.9 564.9,369.7 671.9,362.5 671.9,361.7 	"/>
	<g id="XMLID_148_">
		<g>
			<defs>
				<rect id="SVGID_131_" x="111" y="141.6" width="934.6" height="547.7"/>
			</defs>
			<clipPath id="SVGID_132_">
				<use xlink:href="#SVGID_131_"  style="overflow:visible;"/>
			</clipPath>
			<path id="XMLID_154_" class="st67" d="M690.1,344.4l-0.1-1.2c0-0.5,0.3-0.9,0.7-0.9h0.7c0.8-0.1,0.9,0,1.8,0.5l2.5,1.5l0.9-0.1
				l-0.2-3.3l-0.8,0.1l0.2,2.4l-2.3-1.3c-0.8-0.5-1.1-0.6-2.2-0.6h-0.4c-1.2,0.1-1.7,0.8-1.7,1.9l0.1,1.1L690.1,344.4z"/>
		</g>
		<g>
			<defs>
				<rect id="SVGID_133_" x="111" y="141.6" width="934.6" height="547.7"/>
			</defs>
			<clipPath id="SVGID_134_">
				<use xlink:href="#SVGID_133_"  style="overflow:visible;"/>
			</clipPath>
			<path id="XMLID_150_" class="st68" d="M689.6,337.4c0-0.5,0.3-0.9,0.7-0.9l3,1.7l-2.8,0.2c-0.4,0-0.8-0.3-0.9-0.8V337.4z
				 M694.5,336.2c0.4,0,0.8,0.3,0.9,0.8v0.2c0,0.5-0.3,0.9-0.7,0.9l-3-1.7L694.5,336.2z M690.7,339.2l3.8-0.3
				c1.2-0.1,1.7-0.8,1.7-1.8v-0.2c-0.1-1-0.7-1.7-1.9-1.6l-3.8,0.3c-1.2,0.1-1.7,0.8-1.7,1.8v0.2
				C688.9,338.6,689.5,339.3,690.7,339.2"/>
		</g>
	</g>
	<polygon id="XMLID_147_" class="st7" points="689.9,333.7 689.3,332.3 695,331.9 695.1,333.2 695.9,333.2 695.7,329.9 694.9,329.9 
		695,331 688.4,331.5 688.5,332.4 689.1,333.7 	"/>
	<g id="XMLID_142_">
		<g>
			<defs>
				<rect id="SVGID_135_" x="111" y="141.6" width="934.6" height="547.7"/>
			</defs>
			<clipPath id="SVGID_136_">
				<use xlink:href="#SVGID_135_"  style="overflow:visible;"/>
			</clipPath>
			<path id="XMLID_144_" class="st69" d="M691.5,326.2c0-0.5,0.2-0.8,0.6-0.8l1.6-0.1c0.4,0,0.8,0.2,0.9,0.7v0.3
				c0,0.5-0.3,0.8-0.7,0.8l-2.2,0.2L691.5,326.2z M689.9,328.2l3.8-0.3c1.2-0.1,1.7-0.9,1.7-1.7v-0.4c-0.1-0.9-0.7-1.6-1.9-1.5
				l-1.2,0.1c-1.2,0.1-1.6,0.7-1.6,1.8l0.1,1l-1.1,0.1c-0.4,0-0.8-0.3-0.8-0.8l-0.1-1.4l-0.8,0.1l0.1,1.3
				C688.1,327.7,688.8,328.3,689.9,328.2"/>
		</g>
	</g>
</g>
<g>
	<g id="XMLID_101_">
		<path id="XMLID_105_" class="st7" d="M575.7,524.2c-0.2-2.9,0.7-6,2.7-9.4c2-3.4,3-6.5,2.8-9.3l-0.2-3.2c-0.1-1.3-0.7-1.9-1.9-1.8
			c-1.1,0.1-1.7,0.7-1.6,2l0.4,5.1l-3.4,0.2l-0.2-3c-0.4-4.8,1.2-7.4,4.6-7.6c3.4-0.2,5.3,2.1,5.7,6.9l0.1,1.8
			c0.2,3-0.7,6.1-2.7,9.5c-2,3.4-2.9,6.4-2.8,9l0.2,2.5l6.8-0.5l0.2,3.3l-10.3,0.7L575.7,524.2z"/>
		<path id="XMLID_102_" class="st7" d="M598.9,521.7c0.4,4.8-1.2,7.4-4.6,7.6s-5.3-2.1-5.7-6.9l-1.3-18.4c-0.4-4.8,1.2-7.4,4.6-7.6
			c3.4-0.2,5.3,2.1,5.7,6.9L598.9,521.7z M594,501.4c-0.1-1.3-0.7-1.9-1.9-1.8c-1.1,0.1-1.7,0.7-1.6,2l1.6,22.5
			c0.1,1.3,0.7,1.9,1.8,1.8c1.1-0.1,1.7-0.7,1.6-2L594,501.4z"/>
	</g>
	<g id="XMLID_98_">
		<path id="XMLID_99_" class="st7" d="M600.2,510.7l5.7-0.4l0.2,2.6l-5.7,0.4L600.2,510.7z"/>
	</g>
	<g id="XMLID_54_">
		<path id="XMLID_96_" class="st7" d="M606.8,521.9c-0.2-2.9,0.7-6,2.7-9.4c2-3.4,3-6.5,2.8-9.3l-0.2-3.3c-0.1-1.3-0.7-1.9-1.8-1.8
			c-1.1,0.1-1.7,0.7-1.6,2l0.4,5.1l-3.4,0.2l-0.2-3c-0.3-4.8,1.2-7.4,4.6-7.6s5.3,2.1,5.7,6.9l0.1,1.8c0.2,3-0.7,6.1-2.7,9.5
			c-2,3.4-2.9,6.4-2.8,9l0.2,2.5l6.8-0.5l0.2,3.3l-10.3,0.7L606.8,521.9z"/>
		<path id="XMLID_94_" class="st7" d="M617.6,494.4l10.3-0.7l0.3,3.7c-1.6,4.2-2.6,8.7-2.9,13.7c-0.4,5-0.4,10.3,0,15.9l-3.4,0.2
			c-0.4-5.5-0.3-10.8,0.2-15.8s1.5-9.8,3.1-14.2l-7.3,0.5L617.6,494.4z"/>
		<path id="XMLID_91_" class="st7" d="M647.9,518.2c0.4,4.8-1.2,7.4-4.6,7.6l-5.1,0.3l-2.4-32.9l5.1-0.3c3.4-0.2,5.3,2.1,5.7,6.9
			L647.9,518.2z M643,497.9c-0.1-1.3-0.7-1.9-1.8-1.8l-1.7,0.1l1.9,26.3l1.7-0.1c1.1-0.1,1.7-0.7,1.6-2L643,497.9z"/>
		<path id="XMLID_89_" class="st7" d="M654.1,521.7l5.3-0.4l0.2,3.3l-8.7,0.6l-2.4-32.9l8.7-0.6l0.2,3.3l-5.3,0.4l0.8,11.2l3-0.2
			l0.2,3.3l-3,0.2L654.1,521.7z"/>
		<path id="XMLID_86_" class="st7" d="M677.1,516.2c0.4,4.8-1.2,7.4-4.6,7.6c-3.4,0.2-5.3-2.1-5.7-6.9l-1.3-18.4
			c-0.4-4.8,1.2-7.4,4.6-7.6c3.4-0.2,5.3,2.1,5.7,6.9L677.1,516.2z M672.2,496c-0.1-1.3-0.7-1.9-1.9-1.8c-1.1,0.1-1.7,0.7-1.6,2
			l1.6,22.5c0.1,1.3,0.7,1.9,1.8,1.8c1.1-0.1,1.7-0.7,1.6-2L672.2,496z"/>
		<path id="XMLID_84_" class="st7" d="M684.8,489.9l3.4-0.2l1.9,25.7c0.4,4.8-1.2,7.4-4.6,7.6c-3.4,0.2-5.3-2.1-5.7-6.9l-1.9-25.7
			l3.4-0.2l2,27.7c0.1,1.3,0.7,1.9,1.8,1.8c1.1-0.1,1.7-0.7,1.6-2L684.8,489.9z"/>
		<path id="XMLID_82_" class="st7" d="M689.7,489.6l10.3-0.7l0.2,3.3l-3.4,0.2L699,522l-3.4,0.2l-2.2-29.6l-3.4,0.2L689.7,489.6z"/>
		<path id="XMLID_80_" class="st7" d="M708.3,488.3l3.4-0.2l1.9,25.7c0.4,4.8-1.2,7.4-4.6,7.6c-3.4,0.2-5.3-2.1-5.7-6.9l-1.9-25.7
			l3.4-0.2l2,27.7c0.1,1.3,0.7,1.9,1.8,1.8c1.1-0.1,1.7-0.7,1.6-2L708.3,488.3z"/>
		<path id="XMLID_76_" class="st7" d="M725.5,497.7c0.2,3-0.5,4.9-2,5.8c1.7,0.7,2.6,2.5,2.8,5.4l0.3,4c0.4,4.8-1.2,7.4-4.6,7.6
			l-5.1,0.3l-2.4-32.9l5.1-0.3c3.4-0.2,5.3,2.1,5.7,6.9L725.5,497.7z M721.7,492.6c-0.1-1.3-0.7-1.9-1.8-1.8l-1.7,0.1l0.8,11.2
			l1.8-0.1c1.1-0.1,1.6-0.7,1.5-2L721.7,492.6z M722.8,507.1c-0.1-1.2-0.7-1.8-1.8-1.8l-1.8,0.1l0.9,11.8l1.7-0.1
			c1.1-0.1,1.7-0.7,1.6-2L722.8,507.1z"/>
		<path id="XMLID_73_" class="st7" d="M733,519.7l-3.4,0.2l-2.4-32.9l5.3-0.4c3.8-0.3,5.9,1.9,6.2,6.5l0.3,3.6
			c0.2,3-0.5,5.3-2.2,6.7l3.7,15.7l-3.5,0.2l-3.3-15l-1.8,0.1L733,519.7z M733.5,501.2c1.5-0.1,2.2-0.9,2.1-2.4l-0.5-6.7
			c-0.1-1.5-0.9-2.2-2.4-2.1l-1.8,0.1l0.8,11.2L733.5,501.2z"/>
		<path id="XMLID_70_" class="st7" d="M752.7,511.1c0.4,4.8-1.2,7.4-4.6,7.6c-3.4,0.2-5.3-2.1-5.7-6.9l-1.3-18.4
			c-0.4-4.8,1.2-7.4,4.6-7.6c3.4-0.2,5.3,2.1,5.7,6.9L752.7,511.1z M747.8,490.9c-0.1-1.3-0.7-1.9-1.9-1.8c-1.1,0.1-1.7,0.7-1.6,2
			l1.6,22.5c0.1,1.3,0.7,1.9,1.9,1.8c1.1-0.1,1.7-0.7,1.6-2L747.8,490.9z"/>
		<path id="XMLID_67_" class="st7" d="M770.9,509.9c0.4,4.8-1.2,7.4-4.6,7.6l-5.1,0.3l-2.4-32.9l5.1-0.3c3.4-0.2,5.3,2.1,5.7,6.9
			L770.9,509.9z M766,489.7c-0.1-1.3-0.7-1.9-1.9-1.8l-1.7,0.1l1.9,26.3l1.7-0.1c1.1-0.1,1.7-0.7,1.6-2L766,489.7z"/>
		<path id="XMLID_65_" class="st7" d="M777.1,513.5l5.3-0.4l0.2,3.3l-8.7,0.6l-2.4-32.9l8.7-0.6l0.2,3.3l-5.3,0.4l0.9,11.1l3-0.2
			l0.2,3.3l-3,0.2L777.1,513.5z"/>
		<path id="XMLID_63_" class="st7" d="M789.9,509.6c-0.2-2.9,0.7-6,2.7-9.4s3-6.5,2.8-9.3l-0.2-3.3c-0.1-1.3-0.7-1.9-1.8-1.8
			s-1.7,0.7-1.6,2l0.4,5.1l-3.4,0.2l-0.2-3c-0.4-4.8,1.2-7.4,4.6-7.6c3.4-0.2,5.3,2.1,5.7,6.9l0.1,1.8c0.2,3-0.7,6.1-2.7,9.5
			s-2.9,6.4-2.8,9l0.2,2.5l6.8-0.5l0.2,3.3l-10.3,0.7L789.9,509.6z"/>
		<path id="XMLID_60_" class="st7" d="M813.1,507.1c0.4,4.8-1.2,7.4-4.6,7.6c-3.4,0.2-5.3-2.1-5.7-6.9l-1.3-18.4
			c-0.4-4.8,1.2-7.4,4.6-7.6c3.4-0.2,5.3,2.1,5.7,6.9L813.1,507.1z M808.2,486.8c-0.1-1.3-0.7-1.9-1.9-1.8c-1.1,0.1-1.7,0.7-1.6,2
			l1.6,22.5c0.1,1.3,0.7,1.9,1.8,1.8s1.7-0.7,1.6-2L808.2,486.8z"/>
		<path id="XMLID_58_" class="st7" d="M813.8,484.5c1.3-0.1,1.8-1,1.7-2.6l-0.1-0.8l3.4-0.2l2.4,32.9l-3.4,0.2l-1.9-26.3l-1.9,0.1
			L813.8,484.5z"/>
		<path id="XMLID_55_" class="st7" d="M832.3,490.3l-3.4,0.2l-0.4-5.1c-0.1-1.3-0.7-1.9-1.8-1.8s-1.7,0.7-1.6,2l0.6,8
			c0.5-0.4,1-0.7,1.7-0.7c3.4-0.2,5.3,2.1,5.7,6.9l0.4,5.8c0.4,4.8-1.2,7.4-4.6,7.6c-3.4,0.2-5.3-2.1-5.7-6.9l-1.3-18.4
			c-0.4-4.8,1.2-7.4,4.6-7.6c3.4-0.2,5.3,2.1,5.7,6.9L832.3,490.3z M829.4,498.1c-0.1-1.3-0.7-1.9-1.9-1.8c-1.1,0.1-1.6,0.7-1.6,1.9
			l0.7,10.1c0.1,1.3,0.7,1.9,1.8,1.8s1.7-0.7,1.6-2L829.4,498.1z"/>
	</g>
	<g id="XMLID_4_">
		<path id="XMLID_51_" class="st7" d="M685,554.3l-2.2,0.1l-1.5-21.2l3.4-0.2c2.4-0.2,3.8,1.4,4,4.6l0.1,0.8c0.2,3.2-0.9,5-3.3,5.1
			l-1.2,0.1L685,554.3z M685.3,541.5c1-0.1,1.4-0.6,1.3-1.5l-0.3-3.5c-0.1-1-0.6-1.4-1.6-1.3l-1.2,0.1l0.5,6.4L685.3,541.5z"/>
		<path id="XMLID_48_" class="st7" d="M693.5,553.7l-2.2,0.1l-1.5-21.2l3.4-0.2c2.4-0.2,3.8,1.2,4,4.2l0.2,2.3
			c0.1,2-0.3,3.4-1.4,4.3l2.4,10.1l-2.2,0.1l-2.1-9.7l-1.2,0.1L693.5,553.7z M693.8,541.8c1-0.1,1.4-0.6,1.3-1.5l-0.3-4.3
			c-0.1-1-0.6-1.4-1.6-1.3l-1.2,0.1l0.5,7.2L693.8,541.8z"/>
		<path id="XMLID_45_" class="st7" d="M706.1,548.2c0.2,3.1-0.8,4.7-3,4.9c-2.2,0.1-3.4-1.3-3.6-4.4l-0.9-11.9
			c-0.2-3.1,0.8-4.7,3-4.9c2.2-0.1,3.4,1.3,3.6,4.4L706.1,548.2z M703,535.1c-0.1-0.8-0.5-1.2-1.2-1.1c-0.7,0.1-1.1,0.5-1,1.3
			l1.1,14.5c0.1,0.8,0.5,1.2,1.2,1.1c0.7,0,1.1-0.5,1-1.3L703,535.1z"/>
		<path id="XMLID_43_" class="st7" d="M710.8,542.7l3.4-0.2l0.7,9.7l-1.2-1.4c-0.4,1-1.1,1.5-2.2,1.6c-2.2,0.1-3.4-1.3-3.6-4.4
			l-0.9-11.9c-0.2-3.1,0.8-4.7,3-4.9c2.3-0.2,3.5,1.3,3.7,4.4l0.1,1.9l-2.1,0.1l-0.2-3.3c-0.1-0.8-0.5-1.2-1.4-1.1
			c-0.8,0-1.1,0.5-1,1.3l1.1,14.5c0.1,0.8,0.5,1.2,1.2,1.1c0.8-0.1,1.2-0.5,1.2-1.3l-0.3-4.3l-1.2,0.1L710.8,542.7z"/>
		<path id="XMLID_40_" class="st7" d="M718.5,552l-2.2,0.1l-1.5-21.2l3.4-0.2c2.4-0.2,3.8,1.2,4,4.2l0.2,2.3c0.1,2-0.3,3.4-1.4,4.3
			l2.4,10.1l-2.2,0.1l-2.1-9.7l-1.2,0.1L718.5,552z M718.9,540.1c1-0.1,1.4-0.6,1.3-1.5l-0.3-4.3c-0.1-1-0.6-1.4-1.6-1.3l-1.2,0.1
			l0.5,7.2L718.9,540.1z"/>
		<path id="XMLID_37_" class="st7" d="M724.1,551.6l1.4-21.4l2.2-0.1l4.5,21l-2.2,0.1l-0.6-3.2l-2.8,0.2l-0.2,3.2L724.1,551.6z
			 M726.6,546l2.2-0.1l-1.2-5.9l-0.6-3.7l-0.1,3.8L726.6,546z"/>
		<path id="XMLID_35_" class="st7" d="M733,551l-1.5-21.2l3.2-0.2l2.3,11.3l0.6,3.7l0.1-3.8l0.6-11.5l3.3-0.2l1.5,21.2l-2,0.1
			l-1.2-16.6l-0.1,2.6l-0.9,14.2l-1.8,0.1l-3-14.1l-0.4-2.3l1.2,16.6L733,551z"/>
		<path id="XMLID_32_" class="st7" d="M744,550.3l1.4-21.4l2.2-0.1l4.5,21l-2.2,0.1l-0.6-3.1l-2.8,0.2l-0.2,3.2L744,550.3z
			 M746.6,544.6l2.2-0.1l-1.2-5.9l-0.6-3.7l-0.1,3.8L746.6,544.6z"/>
		<path id="XMLID_30_" class="st7" d="M756.8,542.1l2.1-0.1l0.2,2.6c0.2,3.1-0.7,4.7-2.9,4.9c-2.2,0.1-3.4-1.3-3.6-4.4l-0.9-11.9
			c-0.2-3.1,0.8-4.7,3-4.9c2.1-0.1,3.3,1.3,3.5,4.5l0.1,1.9l-2.1,0.1l-0.2-3.3c-0.1-0.8-0.5-1.2-1.2-1.1c-0.7,0.1-1.1,0.5-1,1.3
			l1.1,14.5c0.1,0.8,0.5,1.2,1.2,1.1c0.7,0,1.1-0.5,1-1.3L756.8,542.1z"/>
		<path id="XMLID_27_" class="st7" d="M760.3,549.2l1.4-21.4l2.2-0.1l4.5,21l-2.2,0.1l-0.6-3.2l-2.8,0.2l-0.2,3.2L760.3,549.2z
			 M762.8,543.6l2.2-0.1l-1.2-5.9l-0.6-3.7l-0.1,3.8L762.8,543.6z"/>
		<path id="XMLID_24_" class="st7" d="M775.5,543.5c0.2,3.1-0.8,4.7-3,4.9c-2.2,0.1-3.4-1.3-3.6-4.4l-0.9-11.9
			c-0.2-3.1,0.8-4.7,3-4.9c2.2-0.1,3.4,1.3,3.6,4.4L775.5,543.5z M772.3,530.5c-0.1-0.8-0.5-1.2-1.2-1.1c-0.7,0-1.1,0.5-1,1.3
			l1.1,14.5c0.1,0.8,0.5,1.2,1.2,1.1c0.7,0,1.1-0.5,1-1.3L772.3,530.5z"/>
		<path id="XMLID_22_" class="st7" d="M783.5,537.8l3.4-0.2l0.7,9.7l-1.2-1.4c-0.4,1-1.1,1.5-2.2,1.6c-2.2,0.1-3.4-1.3-3.6-4.4
			l-0.9-11.9c-0.2-3.1,0.8-4.7,3-4.9c2.3-0.1,3.5,1.3,3.7,4.4l0.1,1.9l-2.1,0.1l-0.2-3.3c-0.1-0.8-0.5-1.2-1.4-1.1
			c-0.8,0.1-1.1,0.5-1,1.3l1.1,14.5c0.1,0.8,0.5,1.2,1.2,1.1c0.8-0.1,1.2-0.5,1.2-1.3l-0.3-4.3l-1.2,0.1L783.5,537.8z"/>
		<path id="XMLID_19_" class="st7" d="M791.2,547.1l-2.2,0.2l-1.5-21.2l3.4-0.2c2.4-0.2,3.8,1.2,4,4.2l0.2,2.3
			c0.1,2-0.3,3.4-1.4,4.3l2.4,10.1l-2.2,0.1l-2.1-9.7l-1.2,0.1L791.2,547.1z M791.6,535.2c1-0.1,1.4-0.6,1.3-1.5l-0.3-4.3
			c-0.1-1-0.6-1.4-1.6-1.3l-1.2,0.1l0.5,7.2L791.6,535.2z"/>
		<path id="XMLID_16_" class="st7" d="M796.8,546.8l1.4-21.4l2.2-0.1l4.5,21l-2.2,0.1l-0.6-3.2l-2.8,0.2l-0.2,3.2L796.8,546.8z
			 M799.3,541.1l2.2-0.1l-1.2-5.9l-0.6-3.7l-0.1,3.8L799.3,541.1z"/>
		<path id="XMLID_14_" class="st7" d="M802.5,525.1l6.6-0.4l0.2,2.1l-2.2,0.1l1.4,19.1l-2.2,0.1l-1.4-19.1l-2.2,0.1L802.5,525.1z"/>
		<path id="XMLID_12_" class="st7" d="M814.4,524.3l2.2-0.1l1.2,16.5c0.2,3.1-0.8,4.7-3,4.9c-2.2,0.1-3.4-1.3-3.6-4.4l-1.2-16.5
			l2.2-0.1l1.3,17.9c0.1,0.8,0.5,1.2,1.2,1.1c0.7,0,1.1-0.5,1-1.3L814.4,524.3z"/>
		<path id="XMLID_10_" class="st7" d="M820,545.2l-1.5-21.2l2.2-0.1l1.5,21.2L820,545.2z"/>
		<path id="XMLID_8_" class="st7" d="M821.6,523.8l6.6-0.4l0.2,2.1l-2.2,0.1l1.4,19.1l-2.2,0.1l-1.4-19.1l-2.2,0.1L821.6,523.8z"/>
		<path id="XMLID_5_" class="st7" d="M828.8,544.6l1.4-21.4l2.2-0.1l4.5,21l-2.2,0.1l-0.6-3.2l-2.8,0.2l-0.2,3.2L828.8,544.6z
			 M831.3,538.9l2.2-0.1l-1.2-5.9l-0.6-3.7l-0.1,3.8L831.3,538.9z"/>
	</g>
	<path id="XMLID_3_" class="st7" d="M763.6,526.8c-0.3,0-0.5,0-0.7-0.1c-0.2-0.1-0.4-0.2-0.6-0.3c-0.1-0.1-0.2-0.2-0.3-0.2
		c-0.1-0.1-0.1-0.1-0.2-0.2c-0.1,0-0.1-0.1-0.2-0.1c-0.1,0-0.1,0-0.2,0c-0.1,0-0.2,0-0.2,0.1c0,0.1-0.1,0.2-0.1,0.3v0.5h-1.2v-0.1
		c0,0,0-0.1,0-0.2c0-0.1,0-0.1,0-0.2v-0.1c0-0.3,0-0.5,0.1-0.7s0.2-0.4,0.3-0.5c0.1-0.1,0.3-0.2,0.5-0.3c0.2,0,0.4-0.1,0.6-0.1
		c0.3,0,0.5,0,0.7,0.1c0.2,0.1,0.4,0.2,0.5,0.3c0.1,0.1,0.1,0.1,0.2,0.2c0.1,0.1,0.1,0.1,0.2,0.2c0.1,0.1,0.1,0.1,0.2,0.1
		c0.1,0,0.1,0.1,0.2,0.1c0.1,0,0.2,0,0.2-0.1c0.1-0.1,0.1-0.2,0.1-0.3v-0.5h1.1c0,0.2,0,0.3,0.1,0.4c0,0.1,0,0.2,0,0.3
		c0,0.2,0,0.4-0.1,0.6s-0.2,0.3-0.3,0.4c-0.1,0.1-0.3,0.2-0.4,0.3C764,526.7,763.8,526.8,763.6,526.8z"/>
	<path id="XMLID_2_" class="st7" d="M756.6,550.1c0,0.3,0,0.5,0,0.7s-0.1,0.3-0.2,0.5c-0.1,0.1-0.2,0.2-0.2,0.3
		c-0.1,0.1-0.2,0.1-0.3,0.2c-0.1,0-0.2,0.1-0.3,0.1s-0.2,0-0.2,0c-0.2,0-0.3,0-0.4,0c-0.1,0-0.3-0.1-0.4-0.1V551h0.1h0.1
		c0.1,0,0.2,0,0.3,0s0.2-0.1,0.3-0.1c0.1-0.1,0.1-0.2,0.2-0.3c0-0.1,0.1-0.3,0.1-0.5v-0.2l0.5-0.8l0.4,0.8L756.6,550.1z"/>
</g>
</svg>
