<?xml version="1.0" encoding="utf-8"?>
<!-- Generator: Adobe Illustrator 19.0.0, SVG Export Plug-In . SVG Version: 6.00 Build 0)  -->
<svg version="1.1" id="Layer_1" xmlns="http://www.w3.org/2000/svg" xmlns:xlink="http://www.w3.org/1999/xlink" x="0px" y="0px"
	 width="397.6px" height="120.2px" viewBox="111 280.5 397.6 120.2" style="enable-background:new 111 280.5 397.6 120.2;"
	 xml:space="preserve">
<style type="text/css">
	.st0{fill:none;}
	.st1{fill:#25B4B1;}
	.st2{fill:#FFFFFF;}
	.st3{fill:#D72D26;}
	.st4{fill:none;stroke:#FFFFFF;stroke-width:0;stroke-linecap:round;stroke-linejoin:round;}
</style>
<g>
	<path class="st0" d="M312.4,324.4c-0.1-1.9-1.7-3.3-3.5-3.2c-0.1,0-0.2,0-0.4,0l-0.1-1.2l0.1,1.2c-1.8,0.1-3.1,1.7-3,3.6
		s1.7,3.3,3.5,3.2c0.1,0,0.2,0,0.4,0C311.2,327.9,312.5,326.3,312.4,324.4z"/>
	<path class="st0" d="M304.9,316.8c0.1,1.9,1.7,3.3,3.5,3.2c0.1,0,0.2,0,0.4,0c1.8-0.1,3.1-1.7,3-3.6c-0.1-1.9-1.7-3.3-3.5-3.2
		c-0.1,0-0.2,0-0.4,0l-0.1-1.9l0.1,1.9C306.1,313.3,304.8,314.9,304.9,316.8z"/>
	<path class="st1" d="M419,342.1c0.1,0.3,0.2,0.5,0.5,0.5s0.6-0.2,0.5-1.1C419.5,341.5,419,341.5,419,342.1z"/>
	<path class="st1" d="M450.1,338.5c-0.3,0-0.6,0.2-0.5,0.9c0.1,0.8,0.2,1.1,0.7,1.1s0.6-0.3,0.4-1.2
		C450.7,338.6,450.4,338.5,450.1,338.5z"/>
	<path class="st1" d="M436,339.5c-0.3,0-0.6,0.2-0.5,0.9c0.1,0.8,0.2,1.1,0.7,1.1c0.4,0,0.5-0.4,0.4-1.2
		C436.6,339.6,436.3,339.5,436,339.5z"/>
	<path class="st1" d="M438.9,339.3c-0.5,0-0.6,0.4-0.5,1.1c0,0.4,0,0.9,0.6,0.9c0.5,0,0.4-0.6,0.5-1.1
		C439.5,339.8,439.4,339.3,438.9,339.3z"/>
	<path class="st1" d="M431.3,339.7c-0.5,0.1-0.4,0.8-0.4,1.2c0,0.4,0.1,0.9,0.6,0.9s0.5-0.4,0.4-1.2
		C431.9,340.2,431.9,339.7,431.3,339.7z"/>
	<path class="st1" d="M428.4,340c-0.3,0-0.6,0.2-0.5,0.9c0.1,0.8,0.2,1.1,0.7,1.1s0.6-0.4,0.4-1.2C429,340.1,428.7,340,428.4,340z"
		/>
	<path class="st1" d="M468.5,331.6c1.4-0.1,1.8-0.6,1.7-2.3l-0.1-1.5c-0.1-1.5-0.6-2-1.6-1.9l-1.3,0.1l0.4,5.7L468.5,331.6z"/>
	<path class="st1" d="M413.8,341c-0.3,0-0.6,0.2-0.5,0.9c0.1,0.8,0.2,1.1,0.7,1.1c0.5-0.1,0.6-0.4,0.4-1.2
		C414.4,341.1,414.1,341,413.8,341z"/>
	<path class="st1" d="M400.7,341.8c-0.3,0-0.5,0.2-0.5,0.9l1.1-0.1C401.3,341.9,401,341.8,400.7,341.8z"/>
	<path class="st1" d="M387.8,332.8c0.9,0,1.3-0.6,1.2-1.4c-0.1-0.7-0.6-1.3-1.5-1.2l-1.6,0.1l0.3,2.6L387.8,332.8z"/>
	<path class="st1" d="M394.6,330.9l-1.5,0.1l0.2,2.3l1.4-0.1c0.7-0.1,0.9-0.7,1-1.3C395.7,331.4,395.3,330.9,394.6,330.9z"/>
	<polygon class="st1" points="399.3,334.5 401.7,334.3 400.2,330.5 	"/>
	<path class="st1" d="M407.7,342.9c0.1,0.3,0.2,0.5,0.5,0.5c0.3-0.1,0.6-0.2,0.5-1.1C408.2,342.3,407.7,342.3,407.7,342.9z"/>
	<path class="st1" d="M387.4,333.8l-1.2,0.1l0.2,3l1.6-0.1c1.2,0,1.6-0.9,1.5-1.5C389.4,333.9,388.5,333.7,387.4,333.8z"/>
	<path class="st1" d="M330.6,303.1l5.2,71.6l150.1-10.1l-5.2-71.6L330.6,303.1z M473.7,324.7l0.5,7.3l-1,0.1l-0.5-7.3L473.7,324.7z
		 M468.5,325.1c1-0.1,1.7,0.2,2,1c0.3,0.6,0.5,2.1,0.5,2.3c0.2,1.6,0.1,2.5-0.2,3c-0.3,0.6-1.1,1-2.4,1.1l-1.7,0.1l-0.5-7.3
		L468.5,325.1z M414,328.8l0.4,6.4l2.8-0.2l0.1,0.8l-3.8,0.3l-0.5-7.3H414z M411.2,328.9l0.5,7.3l-1,0.1l-0.5-7.3L411.2,328.9z
		 M388.6,354.4l-26.7-12.5l7.4,10.5l-2,1.3l-7.4-10.6l1,12.7l-2.4,0.2l-0.9-12.7l-5.8,11.4l-2.2-1l5.8-11.4l-10.9,7.1l-1.4-1.9
		l11-7.1l-13.2,0.9l-0.2-2.3l13.2-0.9l-11.9-5.6l1.1-2l11.8,5.5l-7.3-10.5l2-1.3l7.3,10.5l-0.9-12.6l2.4-0.2l0.9,12.7l5.8-11.4
		l2.2,1l-5.8,11.4l25.8-16.7l1.3,1.9l-25.8,16.7l13.2-0.9l0.1,2.3l-13.1,0.9l26.7,12.5L388.6,354.4z M385.5,341.9v-0.4l2.3-0.2v0.4
		c-0.2,0.3-0.5,0.8-0.7,1.4c-0.2,0.6-0.4,1.3-0.4,2.1h-0.6c0.1-0.6,0.2-1.2,0.4-1.7c0.2-0.6,0.4-1.2,0.8-1.7L385.5,341.9z
		 M388.8,341.5v0.2h-0.3l0.1,1.1c0,0.2,0.1,0.2,0.2,0.2h0.1v0.2c0,0-0.1,0-0.2,0c-0.3,0-0.4-0.1-0.4-0.3l-0.1-1.2h-0.3v-0.2h0.3V341
		h0.3v0.5H388.8z M390,343.1l-0.1-1.2c0-0.1,0-0.3-0.3-0.3c-0.1,0-0.3,0.2-0.3,0.4l0.1,1.2h-0.3l-0.2-2.3h0.3l0.1,0.8
		c0.1-0.2,0.2-0.3,0.4-0.3c0.5-0.1,0.5,0.3,0.5,0.5l0.1,1.2H390z M388.2,337.8l-2.8,0.2l-0.6-8.5l2.9-0.2c1.2-0.1,1.6,0.3,2,0.7
		c0.3,0.4,0.4,0.9,0.4,1.1c0,1.1-0.3,1.8-1.4,2.2c1.3,0,1.9,0.7,2,1.9C390.8,337.4,389.2,337.7,388.2,337.8z M393.9,344.6l-0.3-3.8
		l0.5,0l0.3,3.8L393.9,344.6z M393.4,334.1l0.2,3.3l-1,0.1l-0.5-7.3l2.6-0.2c1.3-0.1,1.8,0.8,1.9,1.7c0,0.9-0.4,1.6-1.3,1.8
		c0.9,0.1,1.2,0.3,1.5,1.7c0,0.3,0.2,1.5,0.4,1.9l-1,0.1c-0.3-0.5-0.3-1.4-0.5-2.4c-0.1-0.8-0.9-0.8-1.2-0.8L393.4,334.1z
		 M397,344.4l-0.1-1.8c0-0.3-0.1-0.5-0.5-0.5c-0.5,0-0.5,0.4-0.5,0.8l0.1,1.6h-0.4l-0.2-2.1c0-0.2-0.1-0.4-0.1-0.6h0.5v0.3
		c0.1-0.3,0.3-0.4,0.7-0.4c0.5,0,0.7,0.3,0.9,0.9l0.1,1.8H397z M399.3,344.2c-0.1,0.1-0.3,0.1-0.4,0.1c-0.5,0.1-0.7-0.1-0.7-0.4
		l-0.1-1.9h-0.5v-0.3h0.5v-0.5l0.4-0.2l0.1,0.7h0.6v0.3h-0.6l0.1,1.6c0,0.2,0,0.4,0.4,0.3c0,0,0.1,0,0.2,0V344.2z M401.9,342.8
		l-1.6,0.1c0,0.8,0.2,0.9,0.6,0.9c0.3,0,0.4-0.2,0.4-0.5h0.5c0,0.6-0.3,0.9-0.9,0.9c-0.5,0-1-0.1-1.1-1.3c-0.1-0.8-0.1-1.4,0.9-1.5
		c0.8,0,1,0.4,1.2,1.2V342.8z M399.1,335.2l-0.4,1.8l-1,0.1l1.9-7.4l1.2-0.2l3,7.1l-1.1,0.1L402,335L399.1,335.2z M403.9,341.6
		L403.9,341.6h-0.2c-0.5,0.1-0.6,0.4-0.6,0.8l0.1,1.6h-0.4l-0.2-2.7h0.4v0.4c0.1-0.4,0.4-0.4,0.9-0.5V341.6z M406.2,343.8l-0.1-1.8
		c0-0.3-0.1-0.5-0.5-0.5c-0.5,0-0.5,0.4-0.5,0.8l0.1,1.6h-0.5l-0.2-2.1c0-0.2-0.1-0.4-0.1-0.6h0.5v0.3c0.1-0.3,0.3-0.4,0.7-0.4
		c0.6,0,0.7,0.3,1,0.9l0.1,1.8H406.2z M404.3,334.6l1-0.1v0.2c0.1,1,0.8,1.2,1.4,1.2c0.8-0.1,1.4-0.4,1.3-1.3
		c-0.1-1.6-3.4-1.2-3.6-3.4c-0.1-1.3,0.8-2,2.1-2.1c1.3-0.1,2.2,0.5,2.2,2l-1,0.1c-0.1-0.8-0.4-1.3-1.3-1.2c-0.6,0-1.2,0.3-1.1,1.1
		c0.2,1.6,3.5,1.1,3.6,3.5c0.1,1.5-1,2.1-2.2,2.2C404.5,336.9,404.3,335.3,404.3,334.6z M408.7,343.7v-0.4c-0.2,0.3-0.4,0.5-0.7,0.5
		c-0.6,0.1-0.8-0.3-0.8-0.8c-0.1-0.8,0.8-0.9,1.4-0.9c0-0.3,0-0.7-0.5-0.7c-0.3,0-0.4,0.2-0.4,0.5h-0.5c0-0.6,0.3-0.9,0.9-0.9
		c0.8-0.1,1,0.3,1,0.7v1.4c0,0.2,0.1,0.4,0.1,0.6H408.7z M411.2,343.4c-0.1,0.1-0.3,0.1-0.4,0.1c-0.5,0.1-0.7-0.1-0.7-0.4l-0.1-1.9
		h-0.5v-0.3h0.5v-0.5l0.4-0.2l0.1,0.7h0.6v0.3h-0.6l0.1,1.6c0.1,0.2,0.1,0.4,0.4,0.3c0,0,0.1,0,0.2,0V343.4z M411.5,339.6l0.5,0
		l0,0.5l-0.5,0L411.5,339.6z M411.8,343.4l-0.2-2.7l0.4,0l0.2,2.7L411.8,343.4z M414,343.4c-0.5,0-1-0.1-1.1-1.3c0-0.8,0-1.4,1-1.5
		c0.9-0.1,1.1,0.5,1.1,1.4C415,343.2,414.6,343.4,414,343.4z M417.5,343l-0.1-1.8c0-0.3-0.1-0.5-0.5-0.5c-0.5,0-0.5,0.4-0.5,0.8
		l0.1,1.6H416l-0.2-2.1c0-0.2-0.1-0.4-0.1-0.6h0.5v0.3c0.1-0.3,0.3-0.4,0.7-0.4c0.6,0,0.8,0.3,1,0.9l0.1,1.8H417.5z M420,342.9v-0.4
		c-0.1,0.3-0.4,0.5-0.7,0.5c-0.6,0.1-0.8-0.3-0.8-0.8c0-0.8,0.8-0.9,1.4-0.9c0-0.3,0-0.7-0.5-0.7c-0.3,0-0.4,0.2-0.4,0.5h-0.5
		c0-0.6,0.3-0.9,0.9-0.9c0.8-0.1,1,0.2,1,0.7v1.4c0,0.2,0.1,0.4,0.1,0.6H420z M421.5,342.8l-0.3-3.8l0.5-0.1l0.3,3.8L421.5,342.8z
		 M420.5,332.3l-0.2-2.4c-0.2-2.4,0.9-3.2,2.6-3.3c1.8-0.1,2.5,0.7,2.5,2.4l-1.2,0.1c0-0.5-0.1-0.9-0.3-1.2s-0.8-0.3-1-0.3
		c-0.9,0.1-1.3,0.7-1.3,0.8c0,0.1-0.2,0.3-0.1,1.8l0.2,2.3c0.2,2.1,0.9,2.3,1.8,2.2c0.4,0,1.4-0.2,1.3-1.9l1.2-0.1
		c0.3,2.7-1.7,2.8-2.5,2.8C422.4,335.6,420.7,335.6,420.5,332.3z M426,342.6c-0.5,0.1-1.3,0.1-1.4-1.4l-0.1-1.1
		c-0.1-1.1,0.4-1.4,1.2-1.5c0.8,0,1.1,0.4,1.1,1.1h-0.5c-0.1-0.2-0.1-0.4-0.2-0.5c-0.2-0.1-0.4-0.1-0.5-0.1c-0.4,0-0.6,0.2-0.6,0.3
		c-0.1,0-0.1,0.1-0.1,0.8l0.1,1c0.1,0.9,0.4,1,0.8,1c0.1-0.1,0.6-0.1,0.7-0.9h0.5C427.1,342.5,426.3,342.6,426,342.6z M428.2,327.8
		l0.6,7.3h-1l-0.5-7.2L428.2,327.8z M428.8,342.4c-0.6,0-1.1-0.1-1.2-1.3c-0.1-0.8-0.1-1.4,0.9-1.5c0.9-0.1,1.1,0.5,1.3,1.4
		C429.8,342.2,429.4,342.4,428.8,342.4z M431.6,342.2c-0.2,0-0.4-0.1-0.6-0.3l0.1,1.3h-0.5l-0.3-3.7h0.5v0.3
		c0.1-0.2,0.3-0.4,0.6-0.4c0.5-0.1,1,0.1,1,1.3C432.5,341.4,432.5,342.1,431.6,342.2z M434.5,339.6L434.5,339.6h-0.2
		c-0.5,0.1-0.6,0.4-0.6,0.8l0.1,1.6h-0.5l-0.2-2.7h0.5v0.4c0.2-0.4,0.4-0.5,0.9-0.6V339.6z M431.1,328.6L431.1,328.6l0.4,6.3h-0.9
		l-0.5-7.2l1.4-0.1l3.4,6l-0.5-6.2l0.9-0.1l0.5,7.3l-1.3,0.1L431.1,328.6z M436.2,341.9c-0.6,0-1.1-0.1-1.2-1.3c0-0.8,0-1.4,1-1.5
		c1-0.1,1.1,0.5,1.2,1.4C437.2,341.7,436.8,341.9,436.2,341.9z M437,327.2l3.9-0.3l0.1,0.8l-2.9,0.2l0.1,2.4l2.7-0.2l0.1,0.8
		l-2.7,0.2l0.2,2.5l3-0.2v0.8l-3.9,0.3L437,327.2z M439.5,341.6v-0.3c-0.1,0.2-0.3,0.4-0.6,0.4c-0.5,0-0.9-0.1-1-1.3
		c-0.1-0.7-0.1-1.4,0.8-1.5c0.2,0,0.4,0.1,0.6,0.3l-0.2-1.4h0.5l0.3,3.8H439.5z M442.3,341.4v-0.3c-0.2,0.2-0.4,0.4-0.7,0.4
		c-0.5,0.1-0.8-0.1-0.8-0.6l-0.1-2h0.5l0.1,1.8c0,0.3,0.2,0.5,0.5,0.5c0.2-0.1,0.5-0.3,0.5-0.7l-0.1-1.8h0.4l0.1,2.1
		c0,0.2,0.1,0.4,0.1,0.6H442.3z M444.8,341.3c-0.6,0-1.1-0.1-1.2-1.3c-0.1-0.8-0.1-1.4,0.9-1.5c0.5,0,0.9,0.3,0.9,0.9h-0.5
		c0-0.4-0.2-0.5-0.4-0.5c-0.3,0-0.6,0.2-0.5,0.9c0.1,0.8,0.2,1.1,0.7,1.1c0.1,0,0.4-0.1,0.4-0.6h0.5
		C445.7,341,445.1,341.3,444.8,341.3z M447.5,341c-0.1,0.1-0.3,0.1-0.4,0.1c-0.5,0.1-0.7-0.1-0.7-0.4l-0.1-1.9h-0.5v-0.3h0.5V338
		l0.4-0.2l0.1,0.7h0.6v0.3h-0.6l0.1,1.6c0,0.1,0,0.3,0.4,0.3c0,0,0.1,0,0.2,0V341z M448.1,341l-0.2-2.7l0.5,0l0.2,2.7L448.1,341z
		 M447.8,337.6v-0.4l0.5-0.1v0.5H447.8z M450.4,340.9c-0.6,0-1.1-0.1-1.2-1.3c-0.1-0.8-0.1-1.4,0.9-1.5c1,0,1.1,0.6,1.3,1.4
		C451.4,340.7,451,340.9,450.4,340.9z M450.3,333.6l-0.5-7.6l-2,7.8h-1l-3-7.4l0.5,7.6l-1,0.1l-0.7-8.5l1.9-0.2l2.7,7h0.1l1.7-7.3
		l1.9-0.1l0.6,8.5L450.3,333.6z M453.8,340.6l-0.1-1.8c0-0.3-0.1-0.5-0.5-0.5c-0.5,0-0.5,0.4-0.5,0.8l0.1,1.6h-0.5l-0.2-2.1
		c0-0.2-0.1-0.4-0.1-0.6h0.5v0.3c0.1-0.3,0.3-0.4,0.7-0.4c0.6,0,0.7,0.3,0.9,0.9l0.1,1.8H453.8z M453,330.8l-0.3-4.6l1-0.1l0.3,4.6
		c0.2,1.6,0.7,2,1.6,1.9c0.9-0.1,1.4-0.5,1.3-2.1l-0.3-4.6l1-0.1l0.3,4.6c0.1,2-0.6,2.9-2.3,3C454,333.6,453.1,332.8,453,330.8z
		 M460,340.2l-0.3-3.4l-0.9,3.5h-0.4L457,337l0.3,3.4h-0.5l-0.3-3.8l0.8-0.1l1.3,3.2l0.8-3.3l0.8-0.1l0.3,3.9H460z M463.5,338.7
		l-1.6,0.1c0,0.8,0.2,0.9,0.6,0.9c0.3,0,0.4-0.2,0.4-0.5h0.5c0,0.6-0.3,0.9-0.9,0.9c-0.6,0-1.1-0.1-1.2-1.3
		c-0.1-0.8-0.1-1.4,0.9-1.5c0.8,0,1,0.4,1.3,1.2V338.7z M460.2,326.6l0.4,6.3l-0.8,0.1l-0.6-7.3l1.4-0.1l3.4,6l-0.4-6.2h0.8l0.6,7.2
		l-1.4,0.1L460.2,326.6z M466.3,338.5l-1.6,0.1c0,0.8,0.2,0.9,0.6,0.9c0.3,0,0.4-0.2,0.4-0.5h0.5c0,0.6-0.3,0.9-0.9,0.9
		c-0.6,0-1.1-0.1-1.2-1.3c-0.1-0.8-0.1-1.4,0.9-1.5c0.8,0,1,0.4,1.3,1.2V338.5z M468.1,339.6c-0.1,0.1-0.2,0.1-0.4,0.1
		c-0.5,0.1-0.7-0.1-0.7-0.4l-0.1-1.9h-0.5v-0.3h0.5v-0.5l0.4-0.2l0.1,0.7h0.6v0.3h-0.6l0.1,1.6c0,0.1,0,0.4,0.4,0.3c0,0,0.1,0,0.2,0
		V339.6z M468.3,335.8h0.5v0.4l-0.5,0.1V335.8z M468.6,339.6l-0.2-2.7l0.4,0l0.2,2.7L468.6,339.6z M471.5,339.4l-0.1-1.8
		c0-0.3-0.1-0.5-0.5-0.5c-0.5,0-0.5,0.4-0.5,0.8l0.1,1.6H470l-0.2-2.1c0-0.2-0.1-0.4-0.1-0.6h0.5v0.3c0.1-0.3,0.3-0.4,0.7-0.4
		c0.6,0,0.8,0.3,0.9,0.9l0.1,1.8H471.5z M473.5,340.4c-0.5,0-0.9-0.2-0.9-0.7h0.5c0.1,0.3,0.3,0.4,0.5,0.4c0.4,0,0.5-0.2,0.5-0.5
		V339c-0.1,0.2-0.4,0.4-0.6,0.4c-0.8,0-0.9-0.6-1-1.4c-0.1-1.3,0.6-1.4,0.8-1.4c0.3-0.1,0.5,0.1,0.7,0.3l-0.2-0.2h0.5l0.2,2.9
		C474.5,340.2,474.1,340.4,473.5,340.4z"/>
	<path class="st1" d="M462.2,337.6c-0.3,0-0.5,0.2-0.5,0.9l1.1-0.1C462.8,337.7,462.5,337.6,462.2,337.6z"/>
	<path class="st1" d="M473.5,336.9c-0.6,0.1-0.5,0.6-0.5,1c0,0.8,0.3,1,0.6,1c0.6,0,0.5-0.6,0.5-1
		C474.1,337.5,474,336.9,473.5,336.9z"/>
	<path class="st1" d="M505,351.6c-0.1-1.9,1.2-3.5,3-3.6l-0.1-1.2c-1.7,0.1-3.3-1.3-3.4-3.2c-0.1-1.9,1.2-3.5,3-3.6l-0.1-1.2
		c-1.8,0.1-3.4-1.3-3.5-3.2c-0.1-1.9,1.2-3.5,3-3.6l-0.1-1.2c-1.8,0.1-3.4-1.3-3.5-3.2c-0.1-1.9,1.2-3.5,3-3.6l-0.1-1.2
		c-1.8,0.1-3.4-1.3-3.5-3.2c-0.1-1.9,1.2-3.5,3-3.6l-0.1-1.2c-1.8,0.1-3.4-1.3-3.5-3.2c-0.1-1.9,1.2-3.5,3-3.6l-0.1-1.2
		c-1.8,0.1-3.4-1.3-3.5-3.2c-0.1-1.9,1.2-3.5,3-3.6l-0.1-1.9c-9.2-0.5-17-7.9-18.3-17.6l-162.6,10.9c0,9.8-6.6,18.2-15.7,19.9
		l0.1,1.9c0.2,0,0.3,0,0.4,0c1.8-0.1,3.4,1.3,3.5,3.2c0.1,1.9-1.2,3.5-3,3.6c-0.2,0-0.3,0-0.4,0l0.1,1.2c0.2,0,0.3,0,0.4,0
		c1.8-0.1,3.4,1.3,3.5,3.2c0.1,1.9-1.2,3.5-3,3.6c-0.2,0-0.3,0-0.4,0l0.1,1.2c0.2,0,0.3,0,0.4,0c1.8-0.1,3.4,1.3,3.5,3.2
		c0.1,1.9-1.2,3.5-3,3.6c-0.2,0-0.3,0-0.4,0l0.1,1.2c0.2,0,0.3,0,0.4,0c1.8-0.1,3.4,1.3,3.5,3.2c0.1,1.9-1.2,3.5-3,3.6
		c-0.2,0-0.3,0-0.4,0l0.1,1.2c0.2,0,0.3,0,0.4,0c1.8-0.1,3.4,1.3,3.5,3.2c0.1,1.9-1.2,3.5-3,3.6c-0.2,0-0.3,0-0.4,0l0.1,1.2
		c0.2,0,0.3,0,0.4,0c1.8-0.1,3.4,1.3,3.5,3.2c0.1,1.9-1.2,3.5-3,3.6c-0.2,0-0.3,0-0.4,0l0.1,1.2c0.2,0,0.3,0,0.4,0
		c1.8-0.1,3.4,1.3,3.5,3.2c0.1,1.9-1.2,3.5-3,3.6c-0.2,0-0.3,0-0.4,0l0.1,1.9c9.2,0.5,17,7.9,18.3,17.6L493,376.6
		c-0.1-9.9,6.5-18.2,15.6-19.9l-0.1-1.9C506.7,354.9,505.1,353.5,505,351.6z M334.8,375.9l-5.4-73.8l152.3-10.2l5.4,73.8
		L334.8,375.9z"/>
	<path class="st1" d="M465,337.5c-0.3,0-0.5,0.2-0.5,0.9l1.1-0.1C465.6,337.6,465.3,337.5,465,337.5z"/>
	<polygon class="st2" points="376.1,338.9 376,336.6 362.8,337.5 388.6,320.8 387.3,318.9 361.5,335.6 367.3,324.2 365.1,323.2 
		359.3,334.6 358.4,321.9 356,322.1 356.9,334.7 349.6,324.2 347.6,325.5 354.9,336 343.1,330.5 342,332.5 353.9,338.1 340.7,339 
		340.9,341.3 354.1,340.4 343.1,347.5 344.5,349.4 355.4,342.3 349.6,353.7 351.8,354.7 357.6,343.3 358.5,356 360.9,355.8 
		359.9,343.1 367.3,353.7 369.3,352.4 361.9,341.9 388.6,354.4 389.7,352.3 363,339.8 	"/>
	<path class="st2" d="M388.7,333.3c1.1-0.4,1.4-1.1,1.4-2.2c0-0.2-0.1-0.7-0.4-1.1c-0.4-0.4-0.8-0.8-2-0.7l-2.9,0.2l0.6,8.5l2.8-0.2
		c1-0.1,2.6-0.4,2.5-2.6C390.6,334,390,333.3,388.7,333.3z M387.5,330.2c0.9-0.1,1.4,0.5,1.5,1.2c0.1,0.8-0.3,1.4-1.2,1.4l-1.6,0.1
		l-0.3-2.6L387.5,330.2z M388,336.8l-1.6,0.1l-0.2-3l1.2-0.1c1.1-0.1,2,0.1,2.1,1.5C389.6,335.9,389.2,336.8,388,336.8z"/>
	<path class="st2" d="M395.7,334.8c0.2,1,0.2,1.9,0.5,2.4l1-0.1c-0.2-0.4-0.4-1.6-0.4-1.9c-0.3-1.4-0.6-1.6-1.5-1.7
		c0.9-0.2,1.3-0.9,1.3-1.8c-0.1-0.9-0.6-1.8-1.9-1.7l-2.6,0.2l0.5,7.3l1-0.1l-0.2-3.3l1.1-0.1C394.8,334,395.6,334,395.7,334.8z
		 M394.7,333.2l-1.4,0.1l-0.2-2.3l1.5-0.1c0.7,0,1.1,0.5,1.1,1C395.6,332.5,395.4,333.1,394.7,333.2z"/>
	<path class="st2" d="M403.8,336.6l-3-7.1l-1.2,0.2l-1.9,7.4l1-0.1l0.4-1.8l2.9-0.2l0.7,1.7L403.8,336.6z M399.3,334.5l0.9-4
		l1.5,3.8L399.3,334.5z"/>
	<path class="st2" d="M408.9,334.6c-0.1-2.4-3.4-1.9-3.6-3.5c-0.1-0.8,0.5-1.1,1.1-1.1c0.9-0.1,1.2,0.4,1.3,1.2l1-0.1
		c0-1.5-0.9-2.1-2.2-2c-1.3,0.1-2.2,0.8-2.1,2.1c0.2,2.2,3.5,1.8,3.6,3.4c0.1,0.9-0.5,1.2-1.3,1.3c-0.6,0-1.3-0.2-1.4-1.2v-0.2
		l-1,0.1c0,0.7,0.2,2.3,2.4,2.2C407.9,336.7,409,336.1,408.9,334.6z"/>
	<polygon class="st2" points="411.7,336.2 411.2,328.9 410.2,329 410.7,336.3 	"/>
	<polygon class="st2" points="417.3,335.8 417.2,335 414.4,335.2 414,328.8 413,328.8 413.5,336.1 	"/>
	<path class="st2" d="M426,332.7l-1.2,0.1c0.1,1.7-0.9,1.9-1.3,1.9c-0.9,0.1-1.6-0.1-1.8-2.2l-0.2-2.3c-0.1-1.5,0.1-1.7,0.1-1.8
		c0-0.1,0.4-0.7,1.3-0.8c0.2,0,0.8,0,1,0.3s0.3,0.7,0.3,1.2l1.2-0.1c0-1.7-0.7-2.5-2.5-2.4c-1.7,0.1-2.8,0.9-2.6,3.3l0.2,2.4
		c0.2,3.3,1.9,3.3,3,3.2C424.3,335.5,426.3,335.4,426,332.7z"/>
	<polygon class="st2" points="428.8,335.1 428.2,327.8 427.3,327.9 427.8,335.1 	"/>
	<polygon class="st2" points="435.3,327.3 434.4,327.4 434.9,333.6 431.5,327.6 430.1,327.7 430.6,334.9 431.5,334.9 431,328.6 
		431.1,328.6 434.5,334.7 435.8,334.6 	"/>
	<polygon class="st2" points="441.5,333.4 438.5,333.6 438.3,331.1 441,330.9 440.9,330.1 438.2,330.3 438.1,327.9 441,327.7 
		440.9,326.9 437,327.2 437.6,334.5 441.5,334.2 	"/>
	<polygon class="st2" points="449,325.1 447.3,332.4 447.2,332.4 444.5,325.4 442.6,325.6 443.3,334.1 444.3,334 443.8,326.4 
		446.8,333.8 447.8,333.8 449.8,326 450.3,333.6 451.5,333.5 450.9,325 	"/>
	<path class="st2" d="M457.9,330.4l-0.3-4.6l-1,0.1l0.3,4.6c0.1,1.6-0.4,2-1.3,2.1c-0.9,0.1-1.4-0.3-1.6-1.9l-0.3-4.6l-1,0.1
		l0.3,4.6c0.1,2,1,2.8,2.6,2.6C457.3,333.3,458,332.4,457.9,330.4z"/>
	<polygon class="st2" points="464.4,325.4 463.6,325.4 464,331.6 460.6,325.6 459.2,325.7 459.8,333 460.6,332.9 460.2,326.6 
		463.6,332.7 465,332.6 	"/>
	<path class="st2" d="M468.4,332.5c1.3-0.1,2.1-0.5,2.4-1.1c0.3-0.5,0.4-1.4,0.2-3c0-0.2-0.2-1.7-0.5-2.3c-0.3-0.8-1-1.1-2-1
		l-2.3,0.2l0.5,7.3L468.4,332.5z M468.5,325.9c1-0.1,1.5,0.4,1.6,1.9l0.1,1.5c0.1,1.7-0.3,2.2-1.7,2.3l-0.9,0.1l-0.4-5.7
		L468.5,325.9z"/>
	<polygon class="st2" points="474.2,332 473.7,324.7 472.7,324.8 473.2,332.1 	"/>
	
		<rect x="392.1" y="342.4" transform="matrix(-7.187827e-002 -0.9974 0.9974 -7.187827e-002 80.5457 760.3167)" class="st2" width="3.8" height="0.5"/>
	<path class="st2" d="M396.5,341.7c-0.4,0-0.6,0.1-0.7,0.4v-0.3h-0.5c0,0.2,0.1,0.4,0.1,0.6l0.2,2.1h0.4l-0.1-1.6
		c0-0.4,0-0.8,0.5-0.8c0.4,0,0.5,0.2,0.5,0.5l0.1,1.8h0.5l-0.1-1.8C397.2,342,397,341.7,396.5,341.7z"/>
	<path class="st2" d="M398.7,343.6l-0.1-1.6h0.6v-0.3h-0.6l-0.1-0.7l-0.4,0.2v0.5h-0.5v0.3h0.5l0.1,1.9c0,0.3,0.2,0.5,0.7,0.4
		c0.1,0,0.3,0,0.4-0.1v-0.3c-0.1,0-0.2,0-0.2,0C398.7,344,398.7,343.8,398.7,343.6z"/>
	<path class="st2" d="M400.7,341.4c-1,0.1-1,0.7-0.9,1.5c0.1,1.2,0.6,1.3,1.1,1.3c0.6,0,0.9-0.3,0.9-0.9h-0.5c0,0.3-0.1,0.5-0.4,0.5
		c-0.4,0-0.6-0.1-0.6-0.9l1.6-0.1v-0.2C401.7,341.8,401.5,341.4,400.7,341.4z M400.2,342.7c0-0.7,0.2-0.9,0.5-0.9s0.6,0.1,0.6,0.8
		L400.2,342.7z"/>
	<path class="st2" d="M403,341.7v-0.4h-0.4l0.2,2.7h0.4l-0.1-1.6c0-0.4,0.1-0.7,0.6-0.8h0.1h0.1v-0.4
		C403.4,341.3,403.1,341.3,403,341.7z"/>
	<path class="st2" d="M405.6,341.1c-0.4,0-0.6,0.1-0.7,0.4v-0.3h-0.5c0,0.2,0.1,0.4,0.1,0.6l0.2,2.1h0.5l-0.1-1.6
		c0-0.4,0-0.8,0.5-0.8c0.4,0,0.5,0.2,0.5,0.5l0.1,1.8h0.5l-0.1-1.8C406.3,341.4,406.2,341.1,405.6,341.1z"/>
	<path class="st2" d="M409.1,341.7c0-0.4-0.2-0.8-1-0.7c-0.6,0-0.9,0.3-0.9,0.9h0.5c0-0.3,0.1-0.5,0.4-0.5c0.5,0,0.5,0.4,0.5,0.7
		c-0.6,0-1.5,0.1-1.4,0.9c0,0.5,0.2,0.9,0.8,0.8c0.3,0,0.5-0.2,0.7-0.5v0.4h0.5c0-0.2-0.1-0.4-0.1-0.6V341.7z M408.2,343.4
		c-0.3,0-0.4-0.2-0.5-0.5c0-0.6,0.5-0.6,1-0.6C408.8,343.2,408.5,343.3,408.2,343.4z"/>
	<path class="st2" d="M410.6,342.8l-0.1-1.6h0.6v-0.3h-0.6l-0.1-0.7l-0.4,0.2v0.5h-0.5v0.3h0.5l0.1,1.9c0,0.3,0.2,0.5,0.7,0.4
		c0.1,0,0.3,0,0.4-0.1v-0.3c-0.1,0-0.2,0-0.2,0C410.7,343.2,410.7,343,410.6,342.8z"/>
	
		<rect x="410.6" y="341.8" transform="matrix(-7.339956e-002 -0.9973 0.9973 -7.339956e-002 101.0569 777.9415)" class="st2" width="2.7" height="0.4"/>
	
		<rect x="411.5" y="339.6" transform="matrix(0.9973 -7.287791e-002 7.287791e-002 0.9973 -23.6723 30.9112)" class="st2" width="0.5" height="0.5"/>
	<path class="st2" d="M413.9,340.6c-1,0.1-1,0.7-1,1.5c0.1,1.2,0.6,1.3,1.1,1.3c0.6,0,1-0.2,1-1.4
		C415,341.1,414.8,340.5,413.9,340.6z M414,343c-0.5,0-0.6-0.3-0.7-1.1c-0.1-0.7,0.2-0.9,0.5-0.9s0.6,0.1,0.6,0.8
		C414.6,342.6,414.5,342.9,414,343z"/>
	<path class="st2" d="M416.9,340.3c-0.4,0-0.6,0.1-0.7,0.4v-0.3h-0.5c0,0.2,0.1,0.4,0.1,0.6l0.2,2.1h0.5l-0.1-1.6
		c0-0.4,0-0.8,0.5-0.8c0.4,0,0.5,0.2,0.5,0.5l0.1,1.8h0.5l-0.1-1.8C417.7,340.6,417.5,340.3,416.9,340.3z"/>
	<path class="st2" d="M420.4,340.9c0-0.5-0.2-0.8-1-0.7c-0.6,0-0.9,0.3-0.9,0.9h0.5c0-0.3,0.1-0.5,0.4-0.5c0.5,0,0.5,0.4,0.5,0.7
		c-0.6,0-1.4,0.1-1.4,0.9c0,0.5,0.2,0.9,0.8,0.8c0.3,0,0.6-0.2,0.7-0.5v0.4h0.5c0-0.2-0.1-0.4-0.1-0.6V340.9z M419.5,342.6
		c-0.3,0-0.4-0.2-0.5-0.5c0-0.6,0.5-0.6,1-0.6C420.1,342.4,419.8,342.6,419.5,342.6z"/>
	<polygon class="st2" points="421.2,339 421.5,342.8 422,342.7 421.7,338.9 	"/>
	<path class="st2" d="M425.8,342.2c-0.4,0-0.7-0.1-0.8-1l-0.1-1c0-0.7,0-0.8,0.1-0.8c0-0.1,0.2-0.3,0.6-0.3c0.1,0,0.3,0,0.5,0.1
		c0.1,0.1,0.1,0.3,0.2,0.5h0.5c0-0.7-0.3-1.1-1.1-1.1c-0.8,0.1-1.3,0.4-1.2,1.5l0.1,1.1c0.1,1.5,0.9,1.5,1.4,1.4
		c0.3,0,1.1-0.1,1-1.3h-0.5C426.4,342.1,425.9,342.1,425.8,342.2z"/>
	<path class="st2" d="M428.5,339.6c-1,0.1-1,0.7-0.9,1.5c0.1,1.2,0.6,1.3,1.2,1.3c0.6,0,1-0.2,1-1.4
		C429.6,340.1,429.4,339.5,428.5,339.6z M428.6,342c-0.5,0-0.6-0.3-0.7-1.1c-0.1-0.7,0.2-0.9,0.5-0.9s0.6,0.1,0.6,0.8
		C429.2,341.6,429.1,342,428.6,342z"/>
	<path class="st2" d="M431.4,339.4c-0.3,0-0.5,0.2-0.6,0.4v-0.3h-0.5l0.3,3.7h0.5l-0.1-1.3c0.2,0.2,0.4,0.3,0.6,0.3
		c0.9-0.1,0.9-0.8,0.8-1.5C432.4,339.5,431.9,339.3,431.4,339.4z M431.5,341.8c-0.5,0-0.6-0.5-0.6-0.9c0-0.4-0.1-1.1,0.4-1.2
		c0.6,0,0.6,0.5,0.6,0.9C432,341.4,432,341.8,431.5,341.8z"/>
	<path class="st2" d="M433.6,339.7v-0.4h-0.5l0.2,2.7h0.5l-0.1-1.6c0-0.4,0.1-0.7,0.6-0.8h0.1h0.1v-0.5
		C434,339.2,433.8,339.3,433.6,339.7z"/>
	<path class="st2" d="M436,339.1c-1,0.1-1,0.7-1,1.5c0.1,1.2,0.6,1.3,1.2,1.3c0.6,0,1-0.2,1-1.4C437.1,339.6,437,339,436,339.1z
		 M436.2,341.5c-0.5,0-0.6-0.3-0.7-1.1c-0.1-0.7,0.2-0.9,0.5-0.9s0.6,0.1,0.6,0.8C436.7,341.1,436.6,341.5,436.2,341.5z"/>
	<path class="st2" d="M439.1,337.8l0.2,1.4c-0.2-0.2-0.4-0.3-0.6-0.3c-0.9,0.1-0.9,0.8-0.8,1.5c0.1,1.2,0.5,1.3,1,1.3
		c0.3,0,0.5-0.2,0.6-0.4v0.3h0.4l-0.3-3.8H439.1z M439,341.3c-0.6,0-0.6-0.5-0.6-0.9c-0.1-0.7,0-1.1,0.5-1.1s0.6,0.5,0.6,0.9
		C439.4,340.7,439.5,341.3,439,341.3z"/>
	<path class="st2" d="M442.6,338.7h-0.4l0.1,1.8c0,0.4-0.3,0.6-0.5,0.7c-0.3,0-0.5-0.2-0.5-0.5l-0.1-1.8h-0.5l0.1,2
		c0,0.5,0.3,0.7,0.8,0.6c0.3,0,0.5-0.2,0.7-0.4v0.3h0.5c0-0.2-0.1-0.4-0.1-0.6L442.6,338.7z"/>
	<path class="st2" d="M445.1,340.3c0,0.5-0.3,0.6-0.4,0.6c-0.5,0-0.6-0.3-0.7-1.1c-0.1-0.7,0.2-0.9,0.5-0.9c0.2,0,0.4,0.1,0.4,0.5
		h0.5c0-0.6-0.4-0.9-0.9-0.9c-1,0.1-1,0.7-0.9,1.5c0.1,1.2,0.6,1.3,1.2,1.3c0.3,0,0.9-0.3,0.8-1H445.1z"/>
	<path class="st2" d="M446.9,340.4l-0.1-1.6h0.6v-0.3h-0.6l-0.1-0.7l-0.4,0.2v0.5h-0.5v0.3h0.5l0.1,1.9c0,0.3,0.2,0.5,0.7,0.4
		c0.1,0,0.3,0,0.4-0.1v-0.3c-0.1,0-0.2,0-0.2,0C446.9,340.7,446.9,340.5,446.9,340.4z"/>
	
		<rect x="446.9" y="339.4" transform="matrix(-7.240364e-002 -0.9974 0.9974 -7.240364e-002 141.9016 811.2623)" class="st2" width="2.7" height="0.5"/>
	<polygon class="st2" points="448.3,337.1 447.8,337.2 447.8,337.6 448.3,337.6 	"/>
	<path class="st2" d="M450.1,338.1c-1,0.1-1,0.7-0.9,1.5c0.1,1.2,0.6,1.3,1.2,1.3c0.6,0,1-0.2,1-1.4
		C451.2,338.7,451.1,338.1,450.1,338.1z M450.3,340.5c-0.5,0-0.6-0.3-0.7-1.1c-0.1-0.7,0.2-0.9,0.5-0.9s0.6,0.1,0.6,0.8
		C450.9,340.2,450.8,340.5,450.3,340.5z"/>
	<path class="st2" d="M453.2,337.9c-0.4,0-0.6,0.1-0.7,0.4V338H452c0,0.2,0.1,0.4,0.1,0.6l0.2,2.1h0.5l-0.1-1.6c0-0.4,0-0.8,0.5-0.8
		c0.4,0,0.5,0.2,0.5,0.5l0.1,1.8h0.4l-0.1-1.8C453.9,338.2,453.8,337.9,453.2,337.9z"/>
	<polygon class="st2" points="459.4,336.4 458.6,339.7 457.3,336.5 456.5,336.6 456.8,340.4 457.3,340.4 457,337 458.4,340.3 
		458.8,340.3 459.7,336.8 460,340.2 460.5,340.2 460.2,336.3 	"/>
	<path class="st2" d="M462.2,337.3c-1,0.1-1,0.7-0.9,1.5c0.1,1.2,0.6,1.3,1.2,1.3c0.6,0,0.9-0.3,0.9-0.9h-0.5c0,0.3-0.1,0.5-0.4,0.5
		c-0.4,0-0.6-0.1-0.6-0.9l1.6-0.1v-0.2C463.2,337.7,463,337.3,462.2,337.3z M461.7,338.5c0-0.7,0.2-0.9,0.5-0.9s0.6,0.1,0.6,0.8
		L461.7,338.5z"/>
	<path class="st2" d="M465,337.1c-1,0.1-1,0.7-0.9,1.5c0.1,1.2,0.6,1.3,1.2,1.3c0.6,0,0.9-0.3,0.9-0.9h-0.5c0,0.3-0.1,0.5-0.4,0.5
		c-0.4,0-0.6-0.1-0.6-0.9l1.6-0.1v-0.2C466,337.5,465.8,337.1,465,337.1z M464.5,338.4c0-0.7,0.2-0.9,0.5-0.9s0.6,0.1,0.6,0.8
		L464.5,338.4z"/>
	<path class="st2" d="M467.5,339l-0.1-1.6h0.6v-0.3h-0.6l-0.1-0.7l-0.4,0.2v0.5h-0.5v0.3h0.5l0.1,1.9c0,0.3,0.2,0.5,0.7,0.4
		c0.2,0,0.3,0,0.4-0.1v-0.3c-0.1,0-0.2,0-0.2,0C467.5,339.4,467.5,339.1,467.5,339z"/>
	
		<rect x="467.3" y="338" transform="matrix(-7.235867e-002 -0.9974 0.9974 -7.235867e-002 165.2606 830.1251)" class="st2" width="2.7" height="0.4"/>
	<polygon class="st2" points="468.8,335.8 468.3,335.8 468.3,336.3 468.8,336.2 	"/>
	<path class="st2" d="M470.9,336.7c-0.4,0-0.6,0.1-0.7,0.4v-0.3h-0.5c0,0.2,0.1,0.4,0.1,0.6l0.2,2.1h0.5l-0.1-1.6
		c0-0.4,0-0.8,0.5-0.8c0.4,0,0.5,0.2,0.5,0.5l0.1,1.8h0.4l-0.1-1.8C471.7,337,471.5,336.7,470.9,336.7z"/>
	<path class="st2" d="M473.8,336.7l0.2,0.2c-0.2-0.2-0.4-0.4-0.7-0.3c-0.2,0-0.9,0.1-0.8,1.4c0.1,0.8,0.2,1.4,1,1.4
		c0.2,0,0.5-0.2,0.6-0.4v0.6c0,0.3-0.1,0.5-0.5,0.5c-0.2,0-0.4-0.1-0.5-0.4h-0.5c0,0.5,0.4,0.7,0.9,0.7c0.6,0,1-0.2,1-0.8l-0.2-2.9
		H473.8z M473.6,338.9c-0.3,0-0.6-0.2-0.6-1c0-0.4-0.1-0.9,0.5-1c0.5,0,0.6,0.6,0.6,1C474.1,338.3,474.2,338.9,473.6,338.9z"/>
	<path class="st2" d="M386.1,345.2h0.6c0-0.8,0.2-1.5,0.4-2.1c0.2-0.6,0.5-1.1,0.7-1.4v-0.4l-2.3,0.2v0.4l1.8-0.1
		c-0.4,0.5-0.6,1.1-0.8,1.7C386.3,344,386.2,344.6,386.1,345.2z"/>
	<path class="st2" d="M388.2,341v0.5h-0.3v0.2h0.3l0.1,1.2c0,0.2,0.1,0.3,0.4,0.3c0.1,0,0.2,0,0.2,0V343h-0.1c-0.1,0-0.2,0-0.2-0.2
		l-0.1-1.1h0.3v-0.2h-0.3V341H388.2z"/>
	<path class="st2" d="M389.7,341.4c-0.2,0-0.3,0.1-0.4,0.3l-0.1-0.8h-0.3l0.2,2.3h0.3l-0.1-1.2c0-0.2,0.2-0.4,0.3-0.4
		c0.3,0,0.3,0.2,0.3,0.3l0.1,1.2h0.3l-0.1-1.2C390.2,341.7,390.2,341.3,389.7,341.4z"/>
	<path class="st2" d="M329.4,302.1l5.4,73.8l152.3-10.2l-5.4-73.8L329.4,302.1z M335.8,374.7l-5.2-71.6L480.7,293l5.2,71.6
		L335.8,374.7z"/>
	<path class="st3" d="M194.8,373.7c-0.6,0-0.6,0.7-0.5,1.6c0.1,1,0.2,1.6,0.8,1.6c0.5,0,0.6-0.5,0.5-1.6
		C195.5,374.1,195.3,373.7,194.8,373.7z"/>
	<path class="st3" d="M185.4,376.2c-0.5,0.2-0.6,0.4-0.6,0.8c0,0.3,0.2,0.6,0.5,0.6c0.3-0.1,0.7-0.3,0.7-0.8l-0.1-0.9
		C185.7,376.1,185.5,376.2,185.4,376.2z"/>
	<path class="st3" d="M173.4,375.1c-0.5,0.1-0.6,0.6-0.6,1v0.2l1.3-0.2C174,375.4,173.9,375.1,173.4,375.1z"/>
	<path class="st3" d="M252.6,371.7c-0.5,0.2-0.6,0.4-0.6,0.8c0,0.3,0.2,0.6,0.5,0.6c0.3-0.1,0.7-0.3,0.7-0.8l-0.1-0.9
		C252.9,371.6,252.7,371.7,252.6,371.7z"/>
	<path class="st3" d="M235.1,371c-0.5,0.1-0.6,0.6-0.6,1v0.2l1.3-0.2C235.7,371.3,235.6,371,235.1,371z"/>
	<path class="st3" d="M204,375c-0.5,0.2-0.6,0.4-0.6,0.8c0,0.3,0.2,0.6,0.5,0.6c0.3-0.1,0.7-0.3,0.7-0.8l-0.1-0.9
		C204.3,374.9,204.1,375,204,375z"/>
	<path class="st3" d="M279.4,337.2V337c-0.1-0.5-0.5-0.8-0.9-0.8l-2.8,0.2l3,1.7C279.1,338.1,279.4,337.7,279.4,337.2z"/>
	<path class="st3" d="M134,316.3l5.2,71.6l129.5-8.7l-5.2-71.6L134,316.3z M239.1,328.8l1,12.3l2.9-0.2l-1-12.3l2.9-0.2l2.3,28
		l-2.9,0.2l-1.1-12.9l-2.9,0.2l1,12.9l-2.9,0.2l-2.2-27.9L239.1,328.8z M230.6,329.5c3-0.2,4.6,1.7,4.9,5.8l0.2,2.8
		c0.1,1.3,0,2.4-0.3,3.2c-0.2,0.5-0.4,1-0.8,1.3c0,0,0,0,0,0c0,0,0,0,0,0c0,0,0,0,0,0c-0.2,0.1-0.4,0.3-0.6,0.4
		c1.4,0.6,2.2,2.1,2.4,4.6v0.4l0.2,2.9c0.2,2.2-0.1,3.8-0.8,4.9c0,0-0.2,0.4-0.5,0.6c-0.6,0.7-1.5,1-2.6,1.1l-4.4,0.3v-0.9
		c0,0,0,0,0,0l-2.1-27.1L230.6,329.5z M224.6,329.9l0.2,1.8l-2.4,0.2l0.4,4.7l1.3-0.1l0.2,1.8l-1.4,0.1l0.4,5l2.4-0.2l0.1,1.9
		l-4.2,0.3l-1.2-15.2L224.6,329.9z M215.6,330.5l2.3,8.4l-0.7-8.5l1.7-0.1l1.2,15.2l-2.1,0.1l-2.3-8.3l0.7,8.5l-1.8,0.1l-1.2-15.2
		L215.6,330.5z M212,330.8l1.2,15.2l-1.9,0.1l-1.2-15.2L212,330.8z M204.4,331.5c2.8-0.2,4.4,1.7,4.7,5.8l0.2,2.5l-2.8,0.2l-0.3-4.3
		c-0.1-1.1-0.6-1.6-1.6-1.5c-0.9,0.1-1.4,0.6-1.3,1.7l1.5,19.2c0.1,1.1,0.6,1.6,1.6,1.5c0.2,0,0.3-0.1,0.4-0.1c0.1,0,0.1,0,0.2,0
		c0.5-0.2,0.8-0.6,0.8-1.2c0-0.1,0-0.2,0-0.2c0-0.1,0-0.2,0-0.3l-0.4-5.2l2.8-0.2l0.3,3.5c0,0.6,0,1.2,0,1.7v0.5v0.1
		c-0.2,2.6-1.5,3.9-3.7,4.1c-3,0.3-4.6-1.7-5.1-5.6l-1.2-15.7C200.2,333.9,201.5,331.7,204.4,331.5z M195.2,332.1l1.9-0.1l3.3,15
		l-1.9,0.1l-0.5-2.2l-1.7,0.1l-0.1,2.3l-1.9,0.1L195.2,332.1z M189.8,332.6c0.9-0.1,1.6,0.2,2.1,0.7s0.8,1.3,0.9,2.4l0.1,1.6
		c0.1,0.7,0,1.3-0.1,1.8c0,0,0,0.1-0.1,0.2c-0.1,0.4-0.4,0.8-0.7,1.1l1.8,7.2l-1.9,0.1l-1.5-6.8h-0.5l0.5,6.8l-2,0.3l-1.2-15.2
		L189.8,332.6z M183.7,333C183.8,333,183.8,333,183.7,333l2.5-0.2l0.1,1.8l-1.5,0.1l1.1,13.4l-1.9,0.1l-1.1-13.4l-1.6,0.2l-0.1-1.8
		L183.7,333z M176.6,334.3c0.1-0.1,0.2-0.2,0.3-0.3c0.1,0,0.2-0.1,0.3-0.2h0.1c0-0.1,0.1-0.1,0.1-0.1c0.1,0,0.1,0,0.1,0h0.1
		c0.1,0,0.1,0,0.1,0c0.1,0,0.1,0,0.1,0c0.1,0,0.1,0,0.1,0h0.1c0.1,0,0.2,0,0.3,0c0.1,0,0.2,0,0.3,0c0.1,0,0.2,0,0.3,0
		c0.2,0.1,0.3,0.1,0.5,0.2c0,0.1,0.1,0.1,0.1,0.1c0.1,0.1,0.1,0.1,0.2,0.2c0.1,0,0.1,0,0.1,0c0.1,0,0.1,0.1,0.1,0.1l0.1,0.1
		c0.1,0.1,0.1,0.2,0.1,0.2c0.1,0.1,0.1,0.3,0.2,0.4c0,0.1,0,0.1,0,0.1c0.1,0.1,0.2,0.2,0.2,0.4c0,0.1,0,0.1,0,0.2
		c0,0.1,0.1,0.3,0.1,0.4c0,0.2,0.1,0.5,0.1,0.7l0.1,1.5l-1.9,0.1l-0.2-2.4c0-0.2-0.1-0.4-0.2-0.5c0,0,0-0.1-0.1-0.1c0,0-0.1,0-0.2,0
		s-0.2,0.1-0.3,0.2c-0.1,0.1-0.1,0.3-0.1,0.6l0.1,1.7c0,0.5,0.2,1.1,0.6,1.7c0.3,0.3,0.6,0.8,1,1.2c0.4,0.4,0.7,0.9,1,1.3
		c0.4,0.6,0.7,1.2,0.7,1.8v0.3l0.1,0.9c0.1,1.1-0.1,2-0.4,2.6c-0.1,0.1-0.2,0.2-0.3,0.3c-0.1,0-0.2,0.1-0.3,0.2h-0.1
		c0,0.1-0.1,0.1-0.1,0.1c-0.1,0-0.1,0-0.1,0h-0.1c-0.1,0-0.1,0-0.1,0c-0.1,0-0.1,0-0.1,0c-0.1,0-0.1,0-0.1,0h-0.1
		c-0.1,0.1-0.2,0.1-0.3,0.1c-0.1,0-0.2,0-0.3,0c-0.1,0-0.2,0-0.3,0c-0.2-0.1-0.4-0.1-0.5-0.2c-0.1,0-0.1,0-0.1,0
		c0-0.1-0.1-0.1-0.1-0.1c-0.1-0.1-0.1-0.1-0.2-0.2c-0.1,0-0.1,0-0.1,0l-0.1-0.1l-0.1-0.1c-0.1-0.1-0.1-0.2-0.1-0.2
		c-0.1-0.1-0.1-0.3-0.2-0.4c0-0.1,0-0.1,0-0.1c-0.1-0.1-0.2-0.2-0.2-0.4c-0.1-0.1-0.1-0.1-0.1-0.2c0-0.1-0.1-0.3-0.1-0.4
		c0-0.2-0.1-0.5-0.1-0.7v-0.4l-0.1-1.6l1.9-0.1v0.5l0.2,2.4c0,0.2,0.1,0.4,0.2,0.5c0,0,0,0.1,0.1,0.1c0,0,0.1,0,0.2,0
		c0.2,0,0.3-0.1,0.4-0.2c0.1-0.2,0.1-0.3,0.1-0.6l-0.1-1.7c0-0.5-0.2-1.1-0.6-1.7c-0.3-0.3-0.6-0.7-1-1.2c-0.4-0.4-0.7-0.9-1-1.3
		c-0.4-0.6-0.7-1.2-0.7-1.8v-0.3v0v-1C176.1,335.8,176.3,334.9,176.6,334.3z M170.3,334.8c0.1-0.2,0.3-0.4,0.5-0.6h0.1
		c0.3-0.2,0.6-0.3,0.9-0.4c0.1,0,0.2,0,0.3,0c0.6,0,1.1,0.1,1.5,0.4c0,0,0.1,0,0.2,0.1c0.1,0.1,0.1,0.1,0.1,0.1
		c0.1,0,0.2,0.1,0.2,0.1c0.3,0.4,0.5,0.8,0.6,1.4c0,0.2,0.1,0.4,0.1,0.6s0.7,8.7,0.7,8.7c0.1,1.1,0,2-0.4,2.6
		c-0.1,0.2-0.3,0.4-0.5,0.6c-0.3,0.2-0.6,0.3-0.9,0.4c-0.1,0-0.2,0-0.3,0c-0.6,0-1.2-0.1-1.6-0.4c0,0-0.1,0-0.2-0.1
		c-0.1-0.1-0.1-0.1-0.1-0.1c-0.1,0-0.1-0.1-0.2-0.1c-0.3-0.4-0.5-0.8-0.6-1.4c0-0.2-0.1-0.4-0.1-0.6s-0.8-8.7-0.7-8.7
		C169.8,336.3,169.9,335.4,170.3,334.8z M158,321.9l4,19.9l0.7-20.2l4.4-0.4l2.2,28l-2.6,0.2l-1.7-21.9l-1.2,22.1l-2.4,0.2
		l-4.6-21.7l1.8,21.9l-2.7,0.2l-2.2-28L158,321.9z M148.8,368.9l107.1-7.2v0.8l-107,7.2L148.8,368.9z M151.8,380.5l-2.1,0.1l-0.4-6
		l2.1-0.1c1-0.1,1.8,0.2,1.9,1.4c0,0.7-0.3,1.2-0.9,1.4c0.7,0,1.2,0.5,1.2,1.3C153.7,379.5,153.3,380.4,151.8,380.5z M157.5,380.1
		l-0.2-2.6l-1.5,0.1l0.2,2.6l-1.3,0.1l-0.4-6l1.3-0.1l0.1,2.3l1.5-0.1l-0.2-2.3l1.3-0.1l0.5,6.1H157.5z M162.2,379.8l-0.5-6l1.3-0.1
		l0.5,6L162.2,379.8z M166.9,379.5l-0.2-3.1c-0.1-0.5-0.2-0.6-0.6-0.6c-0.4,0-0.6,0.3-0.6,0.8l0.2,3l-1.2,0.1l-0.3-4.6l1.2-0.1v0.5
		c0.3-0.4,0.7-0.7,1.2-0.7c0.8,0,1.2,0.4,1.3,1.2l0.2,3.4L166.9,379.5z M170.6,379.3c-0.9,0.1-1.1-0.2-1.2-1.1l-0.2-2.6h-0.6
		l-0.1-0.8h0.6l-0.1-1.3l1.2-0.1v1.2h0.7l0.1,0.8h-0.7l0.2,2.5c0.1,0.4,0.1,0.5,0.5,0.5c0.1,0,0.2,0,0.3,0l0.1,0.8
		C171.1,379.2,170.9,379.3,170.6,379.3z M173.6,379.2c-1.8,0.1-1.9-1.2-2-2.3c-0.1-1.2,0.1-2.4,1.7-2.5c1.4-0.1,1.8,0.8,1.9,2.1v0.3
		l-2.4,0.2v0.4c0.1,0.5,0.3,1,0.7,1c0.4,0,0.6-0.3,0.6-0.9l1.1-0.1C175.2,378.5,174.7,379.1,173.6,379.2z M177.9,375.3
		c-0.4,0-0.8,0.3-0.8,0.9l0.2,2.7l-1.2,0.1l-0.3-4.6l1.2-0.1l0.1,0.6c0.2-0.5,0.5-0.8,0.9-0.7c0.1,0,0.1,0,0.2,0l0.1,1.1
		C178.2,375.3,178,375.3,177.9,375.3z M181.7,378.5l-0.2-3.1c-0.1-0.5-0.2-0.6-0.6-0.6c-0.4,0-0.6,0.3-0.6,0.8l0.2,3l-1.2,0.1
		l-0.3-4.6l1.2-0.1v0.5c0.3-0.4,0.7-0.7,1.2-0.7c0.7,0,1.2,0.4,1.3,1.2l0.2,3.4L181.7,378.5z M186.3,378.2c-0.1-0.2-0.1-0.4-0.2-0.5
		c-0.3,0.5-0.6,0.7-1.2,0.7c-0.8,0.1-1.2-0.6-1.2-1.2c-0.1-0.9,0.3-1.2,1.1-1.5l0.7-0.2c0.3-0.1,0.4-0.3,0.4-0.6s-0.2-0.5-0.6-0.5
		c-0.4,0-0.5,0.2-0.5,0.6v0.1l-1.1,0.1v-0.1c0-1,0.7-1.4,1.6-1.5c1.4-0.1,1.7,0.5,1.8,1.3l0.2,2.3c0,0.5,0.1,0.6,0.2,0.9
		L186.3,378.2z M189.8,378c-0.9,0.1-1.1-0.2-1.2-1.1l-0.2-2.6h-0.6l-0.1-0.8h0.6l-0.1-1.3l1.2-0.1v1.2h0.7l0.1,0.8h-0.7l0.2,2.5
		c0.1,0.4,0.1,0.5,0.5,0.5c0.1,0,0.2,0,0.3,0l0.1,0.8C190.3,377.9,190.1,378,189.8,378z M191.2,377.9l-0.3-4.6l1.2-0.1l0.3,4.6
		L191.2,377.9z M195.1,377.7c-1.4,0.1-1.9-0.7-2-2.3c-0.1-1.5,0.3-2.4,1.7-2.5c1.5-0.1,1.9,0.7,2,2.3
		C196.9,376.7,196.5,377.6,195.1,377.7z M200.2,377.3l-0.2-3.1c-0.1-0.5-0.2-0.6-0.6-0.6c-0.4,0-0.6,0.3-0.6,0.8l0.2,3l-1.2,0.1
		l-0.3-4.6l1.2-0.1v0.5c0.3-0.4,0.7-0.7,1.2-0.7c0.8-0.1,1.2,0.3,1.3,1.2l0.2,3.4L200.2,377.3z M204.8,376.9
		c-0.1-0.2-0.2-0.4-0.2-0.5c-0.3,0.5-0.6,0.7-1.2,0.7c-0.8,0.1-1.2-0.6-1.2-1.2c-0.1-0.9,0.3-1.2,1.1-1.5l0.7-0.2
		c0.3-0.1,0.4-0.3,0.4-0.6s-0.2-0.5-0.6-0.5c-0.3,0-0.5,0.2-0.5,0.6v0.1l-1.1,0.1v-0.1c0-1,0.7-1.4,1.6-1.5c1.4-0.1,1.7,0.5,1.8,1.3
		l0.2,2.3c0,0.4,0.1,0.6,0.2,0.9L204.8,376.9z M206.9,376.8l-0.4-6l1.2-0.1l0.4,6L206.9,376.8z M212.5,372.8l2.1-0.1l0.1,1l-2.1,0.1
		l0.2,2.6l-1.3,0.1l-0.4-6l3.5-0.3l0.1,1l-2.3,0.2L212.5,372.8z M215.8,376.2l-0.3-4.5l1.2-0.1l0.3,4.5L215.8,376.2z M218.1,376.1
		l-0.4-6.1l1.2-0.1l0.4,6.1L218.1,376.1z M225,375.7l-0.2-3.2c0-0.4-0.2-0.6-0.5-0.6c-0.4,0-0.6,0.3-0.6,0.8l0.2,3l-1.2,0.1
		l-0.2-3.2c0-0.4-0.2-0.6-0.5-0.6c-0.4,0-0.6,0.3-0.6,0.8l0.2,3l-1.2,0.1l-0.3-4.6l1.2-0.1v0.5c0.3-0.5,0.7-0.7,1.2-0.7
		s0.9,0.2,1.1,0.7c0.1-0.5,0.5-0.8,1.1-0.8c0.8,0,1.2,0.4,1.3,1.4l0.2,3.3L225,375.7z M230.6,371.6l2.1-0.2v1l-2.1,0.2l0.2,2.6
		l-1.2,0.1l-0.5-6l3.5-0.3l0.1,1l-2.2,0.2L230.6,371.6z M236.9,372.6l-2.4,0.2v0.4c0.1,0.5,0.2,1,0.7,1c0.4,0,0.6-0.3,0.6-0.9
		l1.1-0.1c0,1.1-0.5,1.7-1.6,1.8c-1.8,0.1-1.9-1.2-2-2.3c-0.1-1.2,0.1-2.4,1.7-2.5c1.4-0.1,1.8,0.8,1.9,2.1V372.6z M239.3,374.8
		c-1.3,0.1-1.7-0.4-1.8-1.3v-0.2l1.1-0.1v0.2c0,0.4,0.3,0.6,0.7,0.6c0.4,0,0.6-0.2,0.6-0.6c0-0.3-0.3-0.4-0.5-0.5l-0.9-0.2
		c-0.7-0.2-1-0.6-1.1-1.2c-0.1-0.8,0.3-1.4,1.6-1.5c1.1-0.1,1.6,0.4,1.7,1.2v0.2l-1.1,0.1c0-0.5-0.2-0.7-0.6-0.7
		c-0.3,0-0.5,0.2-0.5,0.5c0.1,0.2,0.2,0.4,0.6,0.5l0.8,0.2c0.8,0.2,1.1,0.5,1.1,1.3C241,374.2,240.3,374.7,239.3,374.8z
		 M243.4,374.4c-0.9,0.1-1.1-0.2-1.2-1.1l-0.2-2.6h-0.6l-0.1-0.8h0.6l-0.1-1.3l1.2-0.1v1.2h0.7l0.1,0.8h-0.7l0.2,2.5
		c0.1,0.4,0.1,0.5,0.5,0.5c0.1,0,0.2,0,0.3,0l0.1,0.8C243.9,374.3,243.7,374.4,243.4,374.4z M244.8,374.3l-0.3-4.6l1.2-0.1l0.3,4.6
		L244.8,374.3z M249.4,374l-1.5,0.1l-1.5-4.5l1.3-0.1l0.9,3.2l0.4-3.3l1.2-0.1L249.4,374z M253.4,373.7c-0.1-0.2-0.1-0.4-0.2-0.5
		c-0.3,0.5-0.6,0.7-1.2,0.7c-0.8,0.1-1.2-0.6-1.2-1.2c-0.1-0.9,0.3-1.2,1.1-1.5l0.7-0.2c0.3-0.2,0.4-0.3,0.4-0.6s-0.2-0.5-0.6-0.5
		s-0.5,0.2-0.5,0.6v0.1l-1.1,0.1v-0.1c0-1,0.7-1.4,1.6-1.5c1.4-0.1,1.7,0.5,1.8,1.3l0.2,2.3c0,0.5,0.1,0.6,0.2,0.9L253.4,373.7z
		 M255.5,373.6l-0.4-6.1l1.2-0.1l0.4,6.1L255.5,373.6z"/>
	<path class="st3" d="M277.9,327.1c0.4,0,0.7-0.3,0.7-0.8V326c-0.1-0.5-0.5-0.7-0.9-0.7l-1.6,0.1c-0.4,0-0.6,0.3-0.6,0.8l0.2,1.1
		L277.9,327.1z"/>
	<path class="st3" d="M151.2,377.9h-0.5l0.1,1.8h0.5c0.7-0.1,1.1-0.3,0.9-1C152.2,378,151.8,377.9,151.2,377.9z"/>
	<path class="st3" d="M231.6,344.6l-1.4,0.1l0.8,10.1l1.5-0.1c0.1,0,0.3-0.1,0.4-0.1c0.7-0.2,1-0.8,0.9-1.7l-0.6-6.8
		C233.1,345,232.6,344.5,231.6,344.6z"/>
	<path class="st3" d="M231.5,341.9c0.1,0,0.3-0.1,0.4-0.1c0.7-0.2,1-0.8,0.9-1.7l-0.5-6.3c-0.1-1.1-0.6-1.6-1.6-1.5l-1.5,0.2
		l0.8,9.5L231.5,341.9z"/>
	<path class="st3" d="M305.5,324.8c-0.1-1.9,1.2-3.5,3-3.6l-0.1-1.2c-1.8,0.1-3.4-1.3-3.5-3.2s1.2-3.5,3-3.6l-0.1-1.9
		c-9.2-0.5-17-7.9-18.3-17.6l-162.6,10.9c0.1,9.9-6.5,18.2-15.9,19.9l0.1,1.9c0.2,0,0.3,0,0.4,0c1.8-0.1,3.4,1.3,3.5,3.2
		c0.1,1.9-1.2,3.5-3,3.6c-0.2,0-0.3,0-0.4,0l0.1,1.2c0.2,0,0.3,0,0.4,0c1.8-0.1,3.4,1.3,3.5,3.2c0.1,1.9-1.2,3.5-3,3.6
		c-0.2,0-0.3,0-0.4,0l0.1,1.2c0.2,0,0.3,0,0.4,0c1.8-0.1,3.4,1.3,3.5,3.2c0.1,1.9-1.2,3.5-3,3.6c-0.2,0-0.3,0-0.4,0l0.1,1.2
		c0.2,0,0.3,0,0.4,0c1.8-0.1,3.4,1.3,3.5,3.2c0.1,1.9-1.2,3.5-3,3.6c-0.2,0-0.3,0-0.4,0l0.1,1.2c0.2,0,0.3,0,0.4,0
		c1.8-0.1,3.4,1.3,3.5,3.2c0.1,1.9-1.2,3.5-3,3.6c-0.2,0-0.3,0-0.4,0l0.1,1.2c0.2,0,0.3,0,0.4,0c1.8-0.1,3.4,1.3,3.5,3.2
		c0.1,1.9-1.2,3.5-3,3.6c-0.2,0-0.3,0-0.4,0l0.1,1.2c0.2,0,0.3,0,0.4,0c1.8-0.1,3.4,1.3,3.5,3.2c0.1,1.9-1.2,3.5-3,3.6
		c-0.2,0-0.3,0-0.4,0l0.1,1.9c9.2,0.5,17,7.9,18.3,17.6l162.6-10.9c-0.1-9.9,6.5-18.2,15.6-19.9l-0.1-1.9c-1.8,0.1-3.4-1.3-3.5-3.2
		s1.2-3.5,3-3.6l-0.1-1.2c-1.7,0.1-3.3-1.3-3.4-3.2s1.2-3.5,3-3.6l-0.1-1.2c-1.8,0.1-3.4-1.3-3.5-3.2s1.2-3.5,3-3.6L310,344
		c-1.7,0.1-3.3-1.3-3.4-3.2s1.2-3.5,3-3.6l-0.1-1.2c-1.7,0.1-3.3-1.3-3.4-3.2s1.2-3.5,3-3.6L309,328
		C307.2,328.1,305.6,326.7,305.5,324.8z M138.2,389.1l-5.4-73.8l152.3-10.2l5.4,73.8L138.2,389.1z"/>
	<path class="st3" d="M264.7,307.5l5.2,71.6l19.5-1.3l-5.2-71.6L264.7,307.5z M272,325.2l0.8-0.1l0.1,1.4c0,0.5,0.4,0.8,0.8,0.8
		l1.1-0.1l-0.1-1c0-1.1,0.4-1.7,1.6-1.8l1.2-0.1c1.2-0.1,1.8,0.6,1.9,1.5v0.4c0,0.8-0.5,1.6-1.7,1.7l-3.8,0.3
		c-1.1,0.1-1.8-0.5-1.8-1.7L272,325.2z M272.4,331.5l6.6-0.5l-0.1-1.1h0.8l0.2,3.3h-0.8l-0.1-1.3l-5.7,0.4l0.6,1.4h-0.8l-0.6-1.3
		L272.4,331.5z M272.8,337.4c0-1,0.5-1.7,1.7-1.8l3.8-0.3c1.2-0.1,1.8,0.6,1.9,1.6v0.2c0,1-0.5,1.7-1.7,1.8l-3.8,0.3
		c-1.2,0.1-1.8-0.6-1.9-1.6V337.4z M279.7,344.3l-2.5-1.5c-0.9-0.5-1-0.6-1.8-0.5h-0.7c-0.4,0-0.7,0.4-0.7,0.9l0.1,1.2l-0.8,0.1
		l-0.1-1.1c0-1.1,0.5-1.8,1.7-1.9h0.4c1.1,0,1.4,0.1,2.2,0.6l2.3,1.3l-0.2-2.4l0.8-0.1l0.2,3.3L279.7,344.3z"/>
	<path class="st3" d="M190.4,338.8c0.3,0,0.5-0.1,0.6-0.2c0.1-0.2,0.1-0.4,0.1-0.7l-0.2-3c0-0.3-0.1-0.5-0.2-0.6
		c-0.2-0.1-0.3-0.1-0.3-0.1c-0.1,0-0.2,0-0.4,0l-0.7,0l0.4,4.7L190.4,338.8z"/>
	<path class="st3" d="M172.5,346.4c0,0.2,0.1,0.4,0.2,0.5c0.1,0.1,0.3,0.1,0.5,0.1c0.2,0,0.3-0.1,0.4-0.2c0.1-0.1,0.1-0.2,0.1-0.5
		l-0.8-10.2c0-0.2-0.1-0.4-0.2-0.5c-0.1-0.1-0.3-0.1-0.5-0.1s-0.3,0.1-0.4,0.2c-0.1,0.1-0.2,0.3-0.1,0.5L172.5,346.4z"/>
	<path class="st3" d="M151.1,377c0.6-0.1,0.9-0.3,0.9-0.9c-0.1-0.6-0.4-0.7-1-0.7h-0.5l0.2,1.6H151.1z"/>
	<path class="st3" d="M274.5,338.4l2.8-0.2l-3-1.7c-0.4,0-0.7,0.4-0.7,0.9v0.2C273.7,338.1,274.1,338.4,274.5,338.4z"/>
	<polygon class="st3" points="196.7,339 196.6,338.2 196.6,339 196.3,343.1 197.5,343 	"/>
	<path class="st2" d="M132.8,315.3l5.4,73.8l152.3-10.2l-5.4-73.8L132.8,315.3z M139.2,387.9l-5.2-71.6l129.5-8.7l5.2,71.6
		L139.2,387.9z M269.9,379.1l-5.2-71.6l19.5-1.3l5.2,71.6L269.9,379.1z"/>
	<path class="st2" d="M205.6,373.6c-0.1-0.8-0.4-1.4-1.8-1.3c-0.9,0.1-1.6,0.5-1.6,1.5v0.1l1.1-0.1v-0.1c0-0.4,0.2-0.6,0.5-0.6
		c0.4,0,0.6,0.2,0.6,0.5s-0.1,0.5-0.4,0.6l-0.7,0.2c-0.8,0.3-1.2,0.6-1.1,1.5c0,0.6,0.4,1.3,1.2,1.2c0.6,0,0.9-0.2,1.2-0.7
		c0,0.1,0.1,0.3,0.2,0.5l1.2-0.1c-0.1-0.3-0.2-0.5-0.2-0.9L205.6,373.6z M203.9,376.4c-0.3,0-0.5-0.3-0.5-0.6c0-0.4,0.1-0.6,0.6-0.8
		c0.1,0,0.3-0.1,0.5-0.3l0.1,0.9C204.6,376.1,204.2,376.3,203.9,376.4z"/>
	<path class="st2" d="M152.4,377.3c0.6-0.2,0.9-0.7,0.9-1.4c-0.1-1.2-0.9-1.5-1.9-1.4l-2.1,0.1l0.4,6l2.1-0.1c1.5-0.1,1.9-1,1.8-1.9
		C153.6,377.8,153.1,377.3,152.4,377.3z M151,375.4c0.6,0,0.9,0.1,1,0.7c0,0.6-0.3,0.8-0.9,0.9h-0.4l-0.2-1.6H151z M151.3,379.7
		h-0.5l-0.1-1.8h0.5c0.6,0,1,0.1,1,0.8C152.4,379.4,152,379.6,151.3,379.7z"/>
	<polygon class="st2" points="206.5,370.8 206.9,376.8 208.1,376.7 207.7,370.7 	"/>
	<path class="st2" d="M194.8,372.9c-1.4,0.1-1.8,1-1.7,2.5c0.1,1.6,0.6,2.4,2,2.3c1.4-0.1,1.8-1,1.7-2.5
		C196.7,373.6,196.3,372.8,194.8,372.9z M195.1,376.9c-0.6,0-0.7-0.6-0.8-1.6c-0.1-0.9-0.1-1.6,0.5-1.6c0.5,0,0.7,0.4,0.8,1.6
		C195.7,376.4,195.6,376.9,195.1,376.9z"/>
	<path class="st2" d="M199.9,372.6c-0.5,0-0.9,0.3-1.2,0.7v-0.5l-1.2,0.1l0.3,4.6l1.2-0.1l-0.2-3c0-0.5,0.2-0.8,0.6-0.8
		c0.4,0,0.5,0.1,0.6,0.6l0.2,3.1l1.2-0.1l-0.2-3.4C201.1,372.9,200.7,372.5,199.9,372.6z"/>
	<polygon class="st2" points="217.7,370 218.1,376.1 219.3,376 218.9,369.9 	"/>
	<polygon class="st2" points="214.6,370.2 211.1,370.5 211.5,376.5 212.8,376.4 212.6,373.8 214.7,373.7 214.6,372.7 212.5,372.8 
		212.4,371.4 214.7,371.2 	"/>
	<polygon class="st2" points="190.9,373.3 191.2,377.9 192.4,377.8 192.1,373.2 	"/>
	<polygon class="st2" points="232.6,369 229.1,369.3 229.6,375.3 230.8,375.2 230.6,372.6 232.7,372.4 232.7,371.4 230.6,371.6 
		230.5,370.2 232.7,370 	"/>
	<path class="st2" d="M224.7,370.9c-0.6,0-1,0.3-1.1,0.8c-0.2-0.5-0.6-0.7-1.1-0.7s-0.9,0.2-1.2,0.7v-0.5l-1.2,0.1l0.3,4.6l1.2-0.1
		l-0.2-3c0-0.5,0.2-0.8,0.6-0.8c0.3,0,0.5,0.2,0.5,0.6l0.2,3.2l1.2-0.1l-0.2-3c0-0.5,0.2-0.8,0.6-0.8c0.3,0,0.5,0.2,0.5,0.6l0.2,3.2
		l1.2-0.1l-0.2-3.3C225.9,371.3,225.5,370.9,224.7,370.9z"/>
	<polygon class="st2" points="215.5,371.7 215.8,376.2 217,376.1 216.7,371.6 	"/>
	<polygon class="st2" points="161.7,373.8 162.2,379.8 163.5,379.7 163,373.7 	"/>
	<polygon class="st2" points="157,374.1 157.2,376.4 155.7,376.5 155.6,374.2 154.3,374.3 154.7,380.3 156,380.2 155.8,377.6 
		157.3,377.5 157.5,380.1 158.8,380.1 158.3,374 	"/>
	<path class="st2" d="M166.6,374.8c-0.5,0-0.9,0.3-1.2,0.7V375l-1.2,0.1l0.3,4.6l1.2-0.1l-0.2-3c0-0.5,0.2-0.8,0.6-0.8
		c0.4,0,0.5,0.1,0.6,0.6l0.2,3.1l1.2-0.1l-0.2-3.4C167.8,375.2,167.4,374.8,166.6,374.8z"/>
	<path class="st2" d="M178,374.2c-0.4-0.1-0.7,0.2-0.9,0.7l-0.1-0.6l-1.2,0.1l0.3,4.6l1.2-0.1l-0.2-2.7c0-0.6,0.4-0.9,0.8-0.9
		c0.1,0,0.3,0,0.4,0l-0.1-1.1C178.1,374.2,178.1,374.2,178,374.2z"/>
	<path class="st2" d="M181.4,373.8c-0.5,0-0.9,0.3-1.2,0.7V374l-1.2,0.1l0.3,4.6l1.2-0.1l-0.2-3c0-0.5,0.2-0.8,0.6-0.8
		c0.4,0,0.5,0.1,0.6,0.6l0.2,3.1l1.2-0.1l-0.2-3.4C182.6,374.2,182.1,373.8,181.4,373.8z"/>
	<path class="st2" d="M187.1,374.9c-0.1-0.8-0.4-1.4-1.8-1.3c-0.9,0.1-1.6,0.5-1.6,1.5v0.1l1.1-0.1V375c0-0.4,0.1-0.6,0.5-0.6
		c0.4,0,0.6,0.2,0.6,0.5s-0.1,0.5-0.4,0.6l-0.7,0.2c-0.8,0.3-1.2,0.6-1.1,1.5c0,0.6,0.4,1.3,1.2,1.2c0.6,0,0.9-0.2,1.2-0.7
		c0.1,0.1,0.1,0.3,0.2,0.5l1.2-0.1c-0.1-0.3-0.2-0.4-0.2-0.9L187.1,374.9z M185.3,377.6c-0.3,0-0.5-0.3-0.5-0.6
		c0-0.4,0.1-0.6,0.6-0.8c0.1,0,0.3-0.1,0.5-0.3l0.1,0.9C186,377.3,185.6,377.5,185.3,377.6z"/>
	<path class="st2" d="M190.2,377.1c-0.4,0-0.4-0.1-0.5-0.5l-0.2-2.5h0.7l-0.1-0.8h-0.7v-1.2l-1.2,0.1l0.1,1.3h-0.6l0.1,0.8h0.6
		l0.2,2.6c0.1,0.9,0.3,1.2,1.2,1.1c0.3,0,0.5-0.1,0.8-0.1l-0.1-0.8C190.4,377.1,190.3,377.1,190.2,377.1z"/>
	<path class="st2" d="M173.5,378.4c-0.4,0-0.6-0.5-0.7-1V377l2.4-0.2v-0.3c-0.1-1.3-0.5-2.2-1.9-2.1c-1.6,0.1-1.8,1.3-1.7,2.5
		c0.1,1.1,0.2,2.4,2,2.3c1.1-0.1,1.6-0.7,1.6-1.8l-1.1,0.1C174.1,378.1,173.9,378.4,173.5,378.4z M172.8,376.1c0-0.4,0.1-0.9,0.6-1
		c0.5,0,0.6,0.3,0.7,1l-1.3,0.2V376.1z"/>
	<path class="st2" d="M171,378.4c-0.4,0-0.4-0.1-0.5-0.5l-0.2-2.5h0.7l-0.1-0.8h-0.7v-1.2l-1.2,0.1l0.1,1.3h-0.6l0.1,0.8h0.6
		l0.2,2.6c0.1,0.9,0.3,1.2,1.2,1.1c0.3,0,0.5-0.1,0.8-0.1l-0.1-0.8C171.2,378.4,171.1,378.4,171,378.4z"/>
	<path class="st2" d="M235,370.2c-1.6,0.1-1.8,1.3-1.7,2.5c0.1,1.1,0.2,2.4,2,2.3c1.1-0.1,1.6-0.7,1.6-1.8l-1.1,0.1
		c0,0.6-0.2,0.9-0.6,0.9c-0.5,0-0.6-0.5-0.7-1v-0.4l2.4-0.2v-0.3C236.8,371,236.4,370.1,235,370.2z M234.5,372.2V372
		c0-0.4,0.1-0.9,0.6-1c0.5,0,0.6,0.3,0.7,1L234.5,372.2z"/>
	<polygon class="st2" points="248.6,372.7 247.7,369.5 246.4,369.6 247.9,374.1 249.4,374 250.2,369.3 249,369.4 	"/>
	<path class="st2" d="M254.2,370.4c-0.1-0.8-0.4-1.4-1.8-1.3c-0.9,0.1-1.6,0.5-1.6,1.5v0.1l1.1-0.1v-0.1c0-0.4,0.1-0.6,0.5-0.6
		s0.6,0.2,0.6,0.5s-0.1,0.4-0.4,0.6l-0.7,0.2c-0.8,0.3-1.2,0.6-1.1,1.5c0,0.6,0.4,1.3,1.2,1.2c0.6,0,0.9-0.2,1.2-0.7
		c0.1,0.1,0.1,0.3,0.2,0.5l1.2-0.1c-0.1-0.3-0.2-0.4-0.2-0.9L254.2,370.4z M252.5,373.1c-0.3,0-0.5-0.3-0.5-0.6
		c0-0.4,0.1-0.6,0.6-0.8c0.1,0,0.3-0.1,0.5-0.3l0.1,0.9C253.2,372.8,252.8,373,252.5,373.1z"/>
	<polygon class="st2" points="255.1,367.5 255.5,373.6 256.7,373.5 256.3,367.4 	"/>
	<polygon class="st2" points="244.5,369.7 244.8,374.3 246,374.2 245.7,369.6 	"/>
	<path class="st2" d="M239.9,372l-0.8-0.2c-0.4-0.1-0.5-0.3-0.6-0.5c0-0.3,0.2-0.5,0.5-0.5c0.4,0,0.6,0.2,0.6,0.7l1.1-0.1v-0.2
		c-0.1-0.8-0.6-1.3-1.7-1.2c-1.3,0.1-1.7,0.7-1.6,1.5c0.1,0.6,0.4,1,1.1,1.2l0.9,0.2c0.2,0.1,0.5,0.2,0.5,0.5c0,0.4-0.2,0.6-0.6,0.6
		c-0.4,0-0.7-0.2-0.7-0.6v-0.2l-1.1,0.1v0.2c0.1,0.9,0.5,1.4,1.8,1.3c1-0.1,1.7-0.6,1.7-1.5C241,372.5,240.7,372.2,239.9,372z"/>
	<path class="st2" d="M243.8,373.5c-0.4,0-0.4-0.1-0.5-0.5l-0.2-2.5h0.7l-0.1-0.8H243v-1.2l-1.2,0.1l0.1,1.3h-0.6l0.1,0.8h0.6
		l0.2,2.6c0.1,0.9,0.3,1.2,1.2,1.1c0.3,0,0.5-0.1,0.8-0.1l-0.1-0.8C244,373.5,243.9,373.5,243.8,373.5z"/>
	<polygon class="st2" points="213.2,346 212,330.8 210.1,330.9 211.3,346.1 	"/>
	<path class="st2" d="M201.7,353.7c0.5,3.9,2.1,5.9,5.1,5.6c2.2-0.2,3.5-1.5,3.7-4.1v-0.1v-0.5c0-0.5,0-1.1,0-1.7l-0.3-3.5l-2.8,0.2
		l0.4,5.2c0,0.1,0,0.2,0,0.3c0,0,0,0.1,0,0.2c0,0.6-0.3,1-0.8,1.2c-0.1,0-0.1,0-0.2,0c-0.1,0-0.2,0.1-0.4,0.1
		c-1,0.1-1.5-0.4-1.6-1.5l-1.5-19.2c-0.1-1.1,0.4-1.6,1.3-1.7c1-0.1,1.5,0.4,1.6,1.5l0.3,4.3l2.8-0.2l-0.2-2.5
		c-0.3-4.1-1.9-6-4.7-5.8c-2.9,0.2-4.2,2.4-3.9,6.5L201.7,353.7z"/>
	<path class="st2" d="M182.9,334.8l1.1,13.4l1.9-0.1l-1.1-13.4l1.5-0.1l-0.1-1.8l-2.4,0.2c0,0,0,0-0.1,0l-2.5,0.2l0.1,1.8
		L182.9,334.8z"/>
	<polygon class="st2" points="158.6,350 156.8,328.1 161.4,349.8 163.8,349.6 165,327.5 166.7,349.4 169.3,349.2 167.1,321.2 
		162.7,321.6 162,341.8 158,321.9 153.7,322.2 155.9,350.2 	"/>
	<path class="st2" d="M176.2,337.8L176.2,337.8v0.3c0,0.6,0.3,1.2,0.7,1.8c0.3,0.4,0.6,0.9,1,1.3c0.4,0.5,0.7,0.9,1,1.2
		c0.4,0.6,0.6,1.2,0.6,1.7l0.1,1.7c0,0.3,0,0.4-0.1,0.6c-0.1,0.1-0.2,0.2-0.4,0.2c-0.1,0-0.2,0-0.2,0c-0.1,0-0.1-0.1-0.1-0.1
		c-0.1-0.1-0.2-0.3-0.2-0.5l-0.2-2.4v-0.5l-1.9,0.1l0.1,1.6v0.4c0,0.2,0.1,0.5,0.1,0.7c0,0.1,0.1,0.3,0.1,0.4c0,0.1,0,0.1,0.1,0.2
		c0,0.2,0.1,0.3,0.2,0.4c0,0,0,0,0,0.1c0.1,0.1,0.1,0.3,0.2,0.4c0,0,0,0.1,0.1,0.2l0.1,0.1l0.1,0.1c0,0,0,0,0.1,0
		c0.1,0.1,0.1,0.1,0.2,0.2c0,0,0.1,0,0.1,0.1c0,0,0,0,0.1,0c0.1,0.1,0.3,0.1,0.5,0.2c0.1,0,0.2,0,0.3,0c0.1,0,0.2,0,0.3,0
		c0.1,0,0.2,0,0.3-0.1h0.1c0,0,0,0,0.1,0c0,0,0,0,0.1,0c0,0,0,0,0.1,0h0.1c0,0,0,0,0.1,0c0,0,0.1,0,0.1-0.1h0.1
		c0.1-0.1,0.2-0.2,0.3-0.2c0.1-0.1,0.2-0.2,0.3-0.3c0.3-0.6,0.5-1.5,0.4-2.6l-0.1-0.9v-0.3c0-0.6-0.3-1.2-0.7-1.8
		c-0.3-0.4-0.6-0.9-1-1.3c-0.4-0.4-0.7-0.9-1-1.2c-0.4-0.6-0.6-1.2-0.6-1.7l-0.1-1.7c0-0.3,0-0.5,0.1-0.6c0.1-0.1,0.2-0.2,0.3-0.2
		s0.2,0,0.2,0c0.1,0,0.1,0.1,0.1,0.1c0.1,0.1,0.2,0.3,0.2,0.5l0.2,2.4l1.9-0.1l-0.1-1.5c0-0.2-0.1-0.5-0.1-0.7
		c0-0.1-0.1-0.3-0.1-0.4c0-0.1,0-0.1,0-0.2c0-0.2-0.1-0.3-0.2-0.4c0,0,0,0,0-0.1c-0.1-0.1-0.1-0.3-0.2-0.4c0,0,0-0.1-0.1-0.2
		l-0.1-0.1c0,0,0-0.1-0.1-0.1c0,0,0,0-0.1,0c-0.1-0.1-0.1-0.1-0.2-0.2c0,0-0.1,0-0.1-0.1c-0.2-0.1-0.3-0.1-0.5-0.2
		c-0.1,0-0.2,0-0.3,0c-0.1,0-0.2,0-0.3,0c-0.1,0-0.2,0-0.3,0h-0.1c0,0,0,0-0.1,0c0,0,0,0-0.1,0c0,0,0,0-0.1,0h-0.1c0,0,0,0-0.1,0
		c0,0-0.1,0-0.1,0.1h-0.1c-0.1,0.1-0.2,0.2-0.3,0.2c-0.1,0.1-0.2,0.2-0.3,0.3c-0.3,0.6-0.5,1.5-0.4,2.6V337.8z"/>
	<polygon class="st2" points="216.4,345.8 215.7,337.3 218,345.6 220.1,345.5 218.9,330.3 217.2,330.4 217.9,338.9 215.6,330.5 
		213.4,330.7 214.6,345.9 	"/>
	<polygon class="st2" points="225.8,345.1 225.7,343.2 223.3,343.4 222.9,338.4 224.3,338.3 224.1,336.5 222.8,336.6 222.4,331.9 
		224.8,331.7 224.6,329.9 220.4,330.2 221.6,345.4 	"/>
	<polygon class="st2" points="241.3,356.8 240.3,343.9 243.2,343.7 244.3,356.6 247.2,356.4 244.9,328.4 242,328.6 243,340.9 
		240.1,341.1 239.1,328.8 236.2,329.1 238.4,357 	"/>
	<path class="st2" d="M190.4,347.7l-0.5-6.8h0.5l1.5,6.8l1.9-0.1l-1.8-7.2c0.3-0.3,0.6-0.7,0.7-1.1c0.1-0.1,0.1-0.2,0.1-0.2
		c0.1-0.5,0.2-1.1,0.1-1.8l-0.1-1.6c-0.1-1.1-0.4-1.9-0.9-2.4s-1.2-0.8-2.1-0.7l-2.6,0.2l1.2,15.2L190.4,347.7z M190,334.2
		c0.2,0,0.3,0,0.4,0c0,0,0.1,0,0.3,0.1c0.1,0.1,0.2,0.3,0.2,0.6l0.2,3c0,0.3,0,0.5-0.1,0.7c-0.1,0.1-0.3,0.2-0.6,0.2l-0.7,0.1
		l-0.4-4.7L190,334.2z"/>
	<path class="st4" d="M234.6,342.6C234.6,342.6,234.6,342.6,234.6,342.6"/>
	<path class="st2" d="M234.6,342.6C234.5,342.6,234.6,342.6,234.6,342.6L234.6,342.6z"/>
	<path class="st2" d="M228.3,356.9v0.9l4.4-0.3c1.1-0.1,2-0.4,2.6-1.1c0.3-0.2,0.5-0.6,0.5-0.6c0.7-1.1,1-2.7,0.8-4.9l-0.2-2.9v-0.4
		c-0.2-2.5-1-4-2.4-4.6c0.2-0.1,0.4-0.3,0.6-0.4c0.4-0.3,0.6-0.8,0.8-1.3c0.3-0.8,0.4-1.9,0.3-3.2l-0.2-2.8c-0.3-4.1-1.9-6-4.9-5.8
		l-4.4,0.3L228.3,356.9C228.3,356.9,228.3,356.9,228.3,356.9z M233.8,352.9c0.1,0.9-0.2,1.5-0.9,1.7c-0.1,0-0.3,0.1-0.4,0.1
		l-1.5,0.1l-0.8-10.1l1.4-0.1c1-0.1,1.5,0.4,1.6,1.5L233.8,352.9z M230.7,332.3c1-0.1,1.5,0.4,1.6,1.5l0.5,6.3
		c0.1,0.9-0.2,1.5-0.9,1.7c-0.1,0-0.3,0.1-0.4,0.1L230,342l-0.8-9.5L230.7,332.3z"/>
	<path class="st2" d="M170.6,346.1c0,0.2,0.1,0.4,0.1,0.6c0.1,0.6,0.3,1,0.6,1.4c0.1,0,0.1,0.1,0.2,0.1c0,0,0,0,0.1,0.1
		c0.1,0.1,0.2,0.1,0.2,0.1c0.4,0.3,1,0.4,1.6,0.4c0.1,0,0.2,0,0.3,0c0.3-0.1,0.6-0.2,0.9-0.4c0.2-0.2,0.4-0.4,0.5-0.6
		c0.4-0.6,0.5-1.5,0.4-2.6c0,0-0.7-8.5-0.7-8.7s-0.1-0.4-0.1-0.6c-0.1-0.6-0.3-1-0.6-1.4c0,0-0.1-0.1-0.2-0.1c0,0,0,0-0.1-0.1
		c-0.1-0.1-0.2-0.1-0.2-0.1c-0.4-0.3-0.9-0.4-1.5-0.4c-0.1,0-0.2,0-0.3,0c-0.3,0.1-0.6,0.2-0.9,0.4h-0.1c-0.2,0.2-0.4,0.4-0.5,0.6
		c-0.4,0.6-0.5,1.5-0.4,2.6C169.8,337.4,170.6,345.9,170.6,346.1z M171.8,335.7c0.1-0.1,0.2-0.2,0.4-0.2s0.4,0,0.5,0.1
		c0.1,0.1,0.2,0.3,0.2,0.5l0.8,10.2c0,0.3,0,0.4-0.1,0.5c-0.1,0.1-0.2,0.2-0.4,0.2c-0.2,0-0.4,0-0.5-0.1c-0.1-0.1-0.2-0.3-0.2-0.5
		l-0.8-10.2C171.6,336,171.7,335.8,171.8,335.7z"/>
	<path class="st2" d="M196.3,345l1.7-0.1l0.5,2.2l1.9-0.1l-3.3-15l-1.9,0.1l-0.9,15.3l1.9-0.1L196.3,345z M196.6,339v-0.8V339l0.9,4
		l-1.2,0.1L196.6,339z"/>
	<polygon class="st2" points="255.9,361.7 148.8,368.9 148.9,369.7 255.9,362.5 	"/>
	<path class="st2" d="M279.6,341l0.2,2.4l-2.3-1.3c-0.8-0.5-1.1-0.6-2.2-0.6h-0.4c-1.2,0.1-1.7,0.8-1.7,1.9l0.1,1.1l0.8-0.1
		l-0.1-1.2c0-0.5,0.3-0.9,0.7-0.9h0.7c0.8-0.1,0.9,0,1.8,0.5l2.5,1.5l0.9-0.1l-0.2-3.3L279.6,341z"/>
	<path class="st2" d="M274.7,339.2l3.8-0.3c1.2-0.1,1.7-0.8,1.7-1.8v-0.2c-0.1-1-0.7-1.7-1.9-1.6l-3.8,0.3c-1.2,0.1-1.7,0.8-1.7,1.8
		v0.2C272.9,338.6,273.5,339.3,274.7,339.2z M278.5,336.2c0.4,0,0.8,0.3,0.9,0.8v0.2c0,0.5-0.3,0.9-0.7,0.9l-3-1.7L278.5,336.2z
		 M273.6,337.4c0-0.5,0.3-0.9,0.7-0.9l3,1.7l-2.8,0.2c-0.4,0-0.8-0.3-0.9-0.8V337.4z"/>
	<polygon class="st2" points="273.9,333.7 273.3,332.3 279,331.9 279.1,333.2 279.9,333.2 279.7,329.9 278.9,329.9 279,331 
		272.4,331.5 272.5,332.4 273.1,333.7 	"/>
	<path class="st2" d="M273.9,328.2l3.8-0.3c1.2-0.1,1.7-0.9,1.7-1.7v-0.4c-0.1-0.9-0.7-1.6-1.9-1.5l-1.2,0.1
		c-1.2,0.1-1.6,0.7-1.6,1.8l0.1,1l-1.1,0.1c-0.4,0-0.8-0.3-0.8-0.8l-0.1-1.4l-0.8,0.1l0.1,1.3C272.1,327.7,272.8,328.3,273.9,328.2z
		 M276.1,325.4l1.6-0.1c0.4,0,0.8,0.2,0.9,0.7v0.3c0,0.5-0.3,0.8-0.7,0.8l-2.2,0.2l-0.2-1.1C275.5,325.7,275.7,325.4,276.1,325.4z"
		/>
</g>
</svg>
