<?xml version="1.0" encoding="utf-8"?>
<!-- Generator: Adobe Illustrator 19.0.0, SVG Export Plug-In . SVG Version: 6.00 Build 0)  -->
<svg version="1.1" id="Layer_1" xmlns="http://www.w3.org/2000/svg" xmlns:xlink="http://www.w3.org/1999/xlink" x="0px" y="0px"
	 viewBox="0 0 392.1 214.3" style="enable-background:new 0 0 392.1 214.3;" xml:space="preserve">
<style type="text/css">
	.st0{fill:none;}
	.st1{fill:#FFFFFF;}
</style>
<g id="XMLID_1_">
	<path id="XMLID_2_" class="st0" d="M184.1,149l-2,0.4l2.5,14.3l2-0.4c3.3-0.6,5-2.8,4-8.1C189.8,149.8,187.5,148.4,184.1,149z"/>
	<polygon id="XMLID_51_" class="st0" points="316.5,127.8 316,135.4 319.6,134.8 316.6,127.8 	"/>
	<path id="XMLID_56_" class="st0" d="M295.7,172.3c3.3-0.6,5-2.8,4.1-8.1c-1-5.3-3.3-6.8-6.6-6.2l-2,0.4l2.5,14.3L295.7,172.3z"/>
	<path id="XMLID_57_" class="st0" d="M148.2,72.3c-0.9,0.3-1.6,0.8-1.2,1.8c0.3,1,1.1,1.3,2.1,1.1c0.8-0.1,1.9-0.8,2.5-1.4l-0.4-2.7
		L148.2,72.3z"/>
	<path id="XMLID_58_" class="st0" d="M256.9,107.5l-2.5,0.4l1,5.7l2.3-0.4c1.3-0.2,3.2-0.5,2.7-3.4
		C259.9,107.1,258.4,107.3,256.9,107.5z"/>
	<path id="XMLID_59_" class="st0" d="M191.6,190.9c3.3-0.6,5-2.8,4.1-8.1c-0.9-5.3-3.3-6.8-6.6-6.2l-2,0.4l2.5,14.3L191.6,190.9z"/>
	<polygon id="XMLID_60_" class="st0" points="275.9,106.5 275.9,106.5 275.3,114.2 278.9,113.5 	"/>
	<path id="XMLID_61_" class="st0" d="M260.9,166.7c-0.5-2.8-2-2.6-3.5-2.3l-2.5,0.4l1,5.7l2.3-0.4
		C259.6,169.8,261.4,169.6,260.9,166.7z"/>
	<path id="XMLID_62_" class="st0" d="M21.7,120.4l5-0.9c-6.2-42.2,21.3-82.2,63-91.4l-0.9-5C44.4,32.8,15,75.4,21.7,120.4z"/>
	<path id="XMLID_63_" class="st0" d="M22.8,126.3c9.7,44.4,52.3,73.8,97.3,67.1l-0.9-5c-42.2,6.2-82.2-21.3-91.4-63L22.8,126.3z"/>
	<polygon id="XMLID_64_" class="st0" points="275.8,163.5 275.7,163.5 275.2,171.2 278.8,170.5 	"/>
	<path id="XMLID_65_" class="st0" d="M187,90l5-0.9c-9.7-44.4-52.3-73.8-97.3-67.1l0.9,5C137.8,20.8,177.8,48.4,187,90z"/>
	<path id="XMLID_66_" class="st0" d="M205.3,116.4c-3.3,0.6-3.7,3.1-2.8,8.2c0.9,5.3,2.2,7.3,5.5,6.7c3.3-0.6,3.8-2.9,2.8-8.2
		C209.8,118,208.6,115.8,205.3,116.4z"/>
	<polygon id="XMLID_67_" class="st1" points="326.8,147.4 321,148.4 325.1,171.7 330.4,170.8 328.1,158 328.2,158 337.2,169.6 
		343.1,168.5 338.9,145.2 333.6,146.2 335.9,159 335.8,159 	"/>
	<polygon id="XMLID_68_" class="st1" points="356,142.2 340.4,145 341.2,149.5 346.4,148.5 349.7,167.3 355,166.4 351.7,147.6 
		356.8,146.7 	"/>
	<path id="XMLID_71_" class="st1" d="M265.9,108.8c-0.7-3.7-3.1-7-8.5-6l-9.2,1.6l4.2,23.3l5.3-0.9l-1.5-8.6l1.6-0.3l5.7,7.9
		l6.4-1.1l4.8-0.9l0.3-4.9l5.7-1l1.9,4.5l5.8-1L278,99l-6.8,1.2l-2.2,23.3l-5.9-7.2C265.8,114.7,266.4,111.8,265.9,108.8z
		 M275.9,106.5L275.9,106.5l3.1,7l-3.6,0.6L275.9,106.5z M257.7,113.2l-2.3,0.4l-1-5.7l2.5-0.4c1.5-0.3,3-0.5,3.5,2.3
		C260.9,112.7,259,113,257.7,113.2z"/>
	<polygon id="XMLID_73_" class="st1" points="250.9,184.9 246.8,161.6 241.5,162.6 245.6,185.9 	"/>
	<polygon id="XMLID_74_" class="st1" points="308.8,174.6 323.6,172 322.8,167.5 313.3,169.2 312.4,164 320.2,162.6 319.4,158.2 
		311.6,159.5 310.8,154.9 319.9,153.3 319.1,148.8 304.7,151.3 	"/>
	<polygon id="XMLID_75_" class="st1" points="210.1,139.7 195.6,142.3 199.8,165.6 214.6,162.9 213.8,158.4 204.3,160.1 203.4,155 
		211.2,153.6 210.4,149.1 202.6,150.5 201.8,145.8 210.9,144.2 	"/>
	<polygon id="XMLID_76_" class="st1" points="372,139.4 357.5,141.9 361.7,165.2 376.5,162.6 375.7,158.1 366.2,159.8 365.3,154.6 
		373.1,153.2 372.3,148.7 364.5,150.1 363.7,145.5 372.8,143.8 	"/>
	<polygon id="XMLID_77_" class="st1" points="280.5,127.2 266,129.8 270.1,153 284.9,150.4 284.1,145.9 274.6,147.6 273.7,142.4 
		281.6,141 280.7,136.6 272.9,138 272.1,133.3 281.3,131.7 	"/>
	<polygon id="XMLID_78_" class="st1" points="298.1,124 296.1,139.1 296.1,139.1 288.8,125.7 282.3,126.8 286.4,150.1 291.7,149.2 
		289.9,139 290,139 295.2,148.6 299.9,147.7 301.5,137 301.6,137 303.4,147.1 308.7,146.2 304.6,122.9 	"/>
	<polygon id="XMLID_79_" class="st1" points="248.2,156.9 244,133.7 238.7,134.6 242.9,157.9 	"/>
	<path id="XMLID_80_" class="st1" d="M385,146.8c-2.6-0.8-4-1.2-4.2-2.7c-0.2-1.3,0.8-2.2,2.3-2.5c1.7-0.3,4.1-0.3,6.1-0.1l-0.8-4.5
		c-1.8-0.3-4.4-0.2-6.2,0.1c-3.3,0.6-7.5,2.9-6.7,7.5c0.7,3.7,3,5.3,6.7,6.5c2.7,0.9,4.2,1.3,4.5,3c0.3,1.7-0.9,2.4-2.6,2.7
		c-1.8,0.3-4.4,0.5-6.7,0.2l0.8,4.5c1.8,0.3,5,0.1,6.8-0.2c4.7-0.8,8-3.5,7.1-8.5C391.4,150,389.4,148.1,385,146.8z"/>
	<path id="XMLID_83_" class="st1" d="M311.8,121.4l-2.3,24.6l5.8-1l0.3-4.9l5.7-1l1.9,4.5l5.8-1l-10.5-22.3L311.8,121.4z M316,135.4
		l0.5-7.6l0.1,0l3,7L316,135.4z"/>
	<polygon id="XMLID_84_" class="st1" points="250.2,156.6 255.5,155.6 253.2,142.8 253.3,142.8 262.3,154.4 268.1,153.4 264,130.1 
		258.7,131 260.9,143.9 260.9,143.9 251.8,132.3 246,133.3 	"/>
	<polygon id="XMLID_85_" class="st1" points="231.1,107.5 231.9,112 237.1,111.1 240.4,129.8 245.8,128.9 242.4,110.1 247.6,109.2 
		246.8,104.7 	"/>
	<path id="XMLID_88_" class="st1" d="M192.9,195.3c7.7-1.4,9.4-7.2,8.2-13.5c-1.1-6.3-4.7-11.2-12.4-9.8l-7.8,1.4l4.1,23.3
		L192.9,195.3z M189,176.6c3.3-0.6,5.7,0.9,6.6,6.2c0.9,5.3-0.7,7.5-4.1,8.1l-2,0.4l-2.5-14.3L189,176.6z"/>
	<polygon id="XMLID_89_" class="st1" points="219.5,190.5 218.7,186 209.2,187.7 208.3,182.6 216.1,181.2 215.3,176.7 207.5,178.1 
		206.7,173.4 215.8,171.8 215,167.3 200.6,169.9 204.7,193.2 	"/>
	<path id="XMLID_92_" class="st1" d="M183.8,144.4l-7.8,1.4l4.1,23.3l7.8-1.4c7.6-1.4,9.4-7.2,8.2-13.5
		C195.1,147.9,191.5,143,183.8,144.4z M186.7,163.3l-2,0.4l-2.5-14.3l2-0.4c3.3-0.6,5.6,0.9,6.6,6.2
		C191.7,160.5,190,162.7,186.7,163.3z"/>
	<polygon id="XMLID_93_" class="st1" points="240,162.9 224.3,165.6 225.1,170.1 230.3,169.2 233.6,188 239,187.1 235.6,168.3 
		240.8,167.4 	"/>
	<polygon id="XMLID_94_" class="st1" points="186.9,115.4 185,130.5 184.9,130.5 177.6,117 171.1,118.2 175.2,141.4 180.6,140.5 
		178.8,130.3 178.8,130.3 184.1,139.9 188.7,139 190.3,128.3 190.4,128.3 192.2,138.4 197.5,137.5 193.4,114.2 	"/>
	<path id="XMLID_95_" class="st1" d="M224.2,113c1.7-0.3,4.1-0.3,6.1,0l-0.8-4.5c-1.8-0.3-4.4-0.2-6.2,0.1c-3.3,0.6-7.5,2.9-6.7,7.5
		c0.7,3.7,3,5.3,6.7,6.5c2.7,0.9,4.2,1.3,4.5,3c0.3,1.7-0.9,2.4-2.6,2.7c-1.8,0.3-4.4,0.5-6.7,0.2l0.8,4.5c1.8,0.3,5,0.1,6.8-0.2
		c4.7-0.8,8-3.5,7.1-8.5c-0.5-3-2.5-4.8-6.9-6.1c-2.6-0.8-4-1.2-4.3-2.7C221.7,114.1,222.7,113.3,224.2,113z"/>
	<path id="XMLID_96_" class="st1" d="M231.6,140.2c1.9-0.3,3.9-0.3,5.8,0l-0.8-4.5c-1.8-0.3-4.3-0.3-6.3,0.1
		c-7.7,1.4-9.3,7.5-8.2,13.8c1.1,6.3,4.8,11.5,12.4,10.1c2-0.4,4.4-1.2,6-2.1l-0.8-4.5c-1.7,1-3.6,1.7-5.5,2
		c-3.3,0.6-5.7-1.2-6.6-6.5C226.7,143.3,228.3,140.7,231.6,140.2z"/>
	<path id="XMLID_99_" class="st1" d="M204.5,111.9c-7,1.2-8.7,7.2-7.5,13.7c1.2,6.7,4.8,11.5,11.8,10.3c7-1.2,8.7-7,7.5-13.7
		C215.1,115.6,211.5,110.6,204.5,111.9z M207.9,131.3c-3.3,0.6-4.5-1.5-5.5-6.7c-0.9-5.2-0.5-7.6,2.8-8.2c3.3-0.6,4.6,1.6,5.5,6.7
		C211.7,128.4,211.3,130.7,207.9,131.3z"/>
	<path id="XMLID_102_" class="st1" d="M297,176.7c7.7-1.4,9.4-7.2,8.2-13.5c-1.1-6.3-4.7-11.2-12.4-9.8l-7.8,1.4l4.1,23.3L297,176.7
		z M293.2,158c3.3-0.6,5.6,0.9,6.6,6.2c0.9,5.3-0.7,7.5-4.1,8.1l-2,0.3l-2.5-14.3L293.2,158z"/>
	<path id="XMLID_105_" class="st1" d="M264,182.6l6.4-1.1l4.2-0.7l0.3-4.9l5.7-1l1.9,4.5l5.8-1L277.8,156l-6.8,1.2l-2.1,22.5
		l-5.3-6.5c2.7-1.7,3.3-4.5,2.8-7.5c-0.7-3.7-3.1-7-8.5-6l-9.1,1.6l4.1,23.3l5.3-0.9l-1.5-8.6l1.6-0.3L264,182.6z M275.7,163.5
		L275.7,163.5l3.1,7l-3.6,0.6L275.7,163.5z M255.9,170.5l-1-5.7l2.5-0.4c1.5-0.3,3-0.5,3.5,2.3c0.5,2.9-1.3,3.1-2.7,3.4L255.9,170.5
		z"/>
	<path id="XMLID_109_" class="st1" d="M84.8,1.1l2.4,13c-49.4,10.7-82,58-74.4,108L0,124.4v0l1.1,5.9l12.7-2.3
		c10.7,49.4,58,82,108,74.4l2.2,11.9l5.9-1.1l-8.7-47.1l-5.9,1.1l2.9,16c-39.4,5.7-76.6-20-85.3-58.8l15.2-2.8l-1.1-5.9l-15.2,2.8
		c-5.7-39.4,20-76.6,58.8-85.3l2.7,14.9l5.9-1.1l-2.7-14.9c39.4-5.7,76.6,20,85.3,58.8l-15.7,2.9l1.1,5.9l47.1-8.6l-1.1-5.9
		L201,87.5C190.3,38.1,143,5.4,93,13L90.6,0h0L84.8,1.1z M119.2,188.4l0.9,5c-45,6.7-87.6-22.7-97.3-67.1l5-0.9
		C37,167.1,77,194.6,119.2,188.4z M26.7,119.5l-5,0.9c-6.7-45,22.7-87.6,67.1-97.3l0.9,5C48,37.3,20.5,77.3,26.7,119.5z M192,89.1
		l-5,0.9c-9.2-41.7-49.2-69.2-91.4-63l-0.9-5C139.7,15.3,182.3,44.7,192,89.1z"/>
	
		<rect id="XMLID_112_" x="144.8" y="81" transform="matrix(-0.9845 0.1755 -0.1755 -0.9845 314.2385 137.3246)" class="st1" width="12.5" height="3.2"/>
	<path id="XMLID_115_" class="st1" d="M148.4,62.9c-1.7,0.3-4.3,1.1-5.9,1.9l0.5,2.7c1.5-0.7,3.5-1.5,5-1.7c1.8-0.3,2.4,0.5,2.6,1.5
		l0.3,1.7l-4,1.4c-3.2,1.1-3.7,2.6-3.3,4.5c0.4,2.1,1.9,3.7,4.5,3.2c1.4-0.3,2.7-1,3.8-2.4l0,0l0.3,1.4l3.5-0.6l-1.7-10.3
		C153.5,63.5,151.1,62.4,148.4,62.9z M149,75.2c-1,0.2-1.8-0.1-2.1-1.1c-0.3-1,0.4-1.5,1.2-1.8l3-1.1l0.4,2.7
		C151,74.4,149.8,75,149,75.2z"/>
	<path id="XMLID_116_" class="st1" d="M89.9,113.4c-1.3,2.7-2.8,5.3-4.7,7.9c-1.8,2.6-3.8,5.2-5.8,7.7c-2,2.5-4,4.9-6,7.2
		c-2,2.3-3.9,4.5-5.5,6.4l1.8,8.8l47.3-9.4l-2.2-11.2l-29,5.7c3-3.2,5.9-6.6,8.6-10c2.8-3.4,5.2-6.9,7.2-10.5c2-3.6,3.5-7.3,4.4-11
		c0.9-3.8,1-7.6,0.2-11.5c-0.7-3.4-1.8-6.3-3.5-8.8c-1.6-2.5-3.6-4.4-6-5.9c-2.4-1.5-5-2.4-7.8-2.8c-2.9-0.4-5.9-0.3-9.1,0.3
		c-1.5,0.3-3.1,0.7-4.9,1.2c-1.7,0.5-3.5,1.1-5.2,1.7c-1.8,0.6-3.4,1.3-5.1,2.1c-1.6,0.7-3.1,1.5-4.3,2.2l2.2,11.3
		c5.6-3.3,10.8-5.5,15.7-6.4c3.4-0.7,6.5-0.3,9.2,1.1c2.7,1.4,4.5,4.3,5.3,8.5c0.5,2.4,0.4,4.9-0.1,7.5
		C92.1,108.2,91.2,110.8,89.9,113.4z"/>
	<polygon id="XMLID_117_" class="st1" points="136.6,137.8 149.7,135.2 135.7,64.9 126.6,66.7 109.7,79.6 115.9,88 125.3,81 	"/>
</g>
</svg>
