<?xml version="1.0" encoding="utf-8"?>
<!-- Generator: Adobe Illustrator 19.0.0, SVG Export Plug-In . SVG Version: 6.00 Build 0)  -->
<svg version="1.1" id="Layer_1" xmlns="http://www.w3.org/2000/svg" xmlns:xlink="http://www.w3.org/1999/xlink" x="0px" y="0px"
	 viewBox="0 0 240 107.6" style="enable-background:new 0 0 240 107.6;" xml:space="preserve">
<style type="text/css">
	.st0{fill:none;}
	.st1{fill:#FFFFFF;}
</style>
<path id="XMLID_4_" class="st0" d="M48.1,6.7c0-1.1-0.6-1.4-1.5-1.4h-0.8v2.9h0.8C47.5,8.2,48.1,7.8,48.1,6.7z"/>
<path id="XMLID_95_" class="st0" d="M174.3,59c0.1,0,0.6-0.1,0.8-0.1c0,0,0,0,0,0c0.1,0,0.1,0,0.2-0.1c0.9-0.2,1.5-0.7,1.8-1.5
	c0.2-0.4,0.3-0.9,0.4-1.5c0-0.2,0-0.5,0-0.7l-0.1-15c0-0.8-0.1-1.5-0.4-2c-0.5-1.2-1.5-1.8-3-1.8l-3.3,0l0,0l0.2,22.7L174.3,59
	C174.3,59,174.3,59,174.3,59z"/>
<path id="XMLID_96_" class="st0" d="M47.9,2.7c0-0.9-0.4-1.3-1.4-1.3h-0.7v2.5h0.6C47.4,3.9,47.9,3.6,47.9,2.7z"/>
<polygon id="XMLID_98_" class="st0" points="95.3,45 95.1,46.9 94,56.4 96.7,56.4 95.4,46.9 "/>
<path id="XMLID_99_" class="st0" d="M82.3,35c-0.1-0.1-0.2-0.2-0.3-0.2c-0.2-0.1-0.3-0.1-0.3-0.1c-0.2-0.1-0.6-0.1-0.9-0.1h0l-1.5,0
	l0,4.6l0,6.7l1.6,0c0.7,0,1.2-0.2,1.4-0.5c0.3-0.3,0.5-0.8,0.4-1.5l0-7.3C82.7,35.8,82.5,35.3,82.3,35z"/>
<path id="XMLID_100_" class="st0" d="M41.2,35.4C41.2,35.4,41.2,35.4,41.2,35.4c-0.1-0.1-0.1-0.2-0.1-0.2C41,35.1,40.9,35,40.8,35
	c-0.2-0.1-0.5-0.2-0.8-0.2c-0.3,0-0.5,0.1-0.7,0.1c-0.1,0.1-0.2,0.1-0.3,0.2c-0.2,0.2-0.3,0.6-0.3,1.3l0.2,24.3c0,0.5,0.1,0.8,0.2,1
	c0,0.1,0.1,0.2,0.1,0.2c0.2,0.2,0.5,0.4,1,0.4c0.5,0,0.8-0.1,1-0.4c0.1-0.1,0.1-0.1,0.1-0.2c0,0,0,0,0-0.1c0.1-0.2,0.1-0.3,0.2-0.6
	c0-0.1,0-0.3,0-0.4l-0.2-24.3C41.4,36,41.3,35.6,41.2,35.4z"/>
<path id="XMLID_101_" class="st0" d="M80.5,3.4c-0.7,0-1,0.8-1,1.4v0.3h1.9C81.4,4.1,81.3,3.4,80.5,3.4z"/>
<path id="XMLID_102_" class="st0" d="M174.8,3.4c-0.7,0-1,0.8-1,1.4v0.3h1.9C175.7,4.1,175.6,3.4,174.8,3.4z"/>
<path id="XMLID_103_" class="st0" d="M126.2,7.5c0,0.6,0.2,1,0.7,1c0.5,0,1.2-0.3,1.2-1.1V6c-0.3,0.2-0.6,0.3-0.8,0.4
	C126.5,6.5,126.2,6.9,126.2,7.5z"/>
<path id="XMLID_104_" class="st0" d="M97.8,7.5c0,0.6,0.2,1,0.7,1c0.5,0,1.1-0.3,1.1-1.1V6c-0.3,0.2-0.6,0.3-0.8,0.4
	C98.1,6.5,97.8,6.9,97.8,7.5z"/>
<path id="XMLID_105_" class="st0" d="M113.5,8.5c0.8,0,1-0.7,1-2.5c0-1.8-0.2-2.5-1-2.5c-0.9,0-1,1.1-1,2.5
	C112.5,7.5,112.6,8.5,113.5,8.5z"/>
<path id="XMLID_106_" class="st0" d="M238.2,44.1h-3.4l3.4,2.3c0.3,0,0.5-0.1,0.7-0.3c0.2-0.2,0.3-0.4,0.3-0.8v-0.3
	c0-0.3-0.1-0.6-0.3-0.8C238.6,44.2,238.4,44.1,238.2,44.1z"/>
<path id="XMLID_107_" class="st0" d="M234.2,30.7h-1c-0.3,0-0.5,0.1-0.7,0.2c-0.1,0.1-0.2,0.4-0.2,0.7V32c0,0.3,0.1,0.5,0.2,0.6
	c0.1,0.1,0.4,0.2,0.7,0.2h1c0.3,0,0.5-0.1,0.6-0.2c0.2-0.2,0.3-0.3,0.3-0.6v-0.4c0-0.3-0.1-0.5-0.2-0.6
	C234.7,30.8,234.4,30.7,234.2,30.7z"/>
<path id="XMLID_108_" class="st0" d="M232.5,44.3c-0.2,0.2-0.3,0.4-0.3,0.8v0.3c0,0.3,0.1,0.6,0.3,0.8c0.2,0.2,0.4,0.3,0.7,0.3h3.4
	l-3.4-2.3C232.9,44.1,232.7,44.2,232.5,44.3z"/>
<path id="XMLID_109_" class="st0" d="M177.3,67.6c-0.5-1.3-1.5-2-3.1-1.9l-1.9,0l-1.4,0l0.1,11.5l0.1,12.5l3.4,0c0,0,0.1,0,0.1,0
	c0.2,0,0.6-0.1,0.8-0.1c0.6-0.1,1.1-0.4,1.5-0.8c0.3-0.4,0.6-0.8,0.7-1.4c0.1-0.5,0.2-1,0.2-1.6l-0.1-16.3
	C177.6,68.8,177.5,68.2,177.3,67.6z"/>
<path id="XMLID_110_" class="st0" d="M200.5,7.5c0,0.6,0.2,1,0.7,1c0.5,0,1.1-0.3,1.1-1.1V6c-0.3,0.2-0.6,0.3-0.8,0.4
	C200.8,6.5,200.5,6.9,200.5,7.5z"/>
<path id="XMLID_111_" class="st0" d="M238.2,30.5h-1.3c-0.3,0-0.5,0.1-0.7,0.3c-0.2,0.2-0.2,0.4-0.2,0.7V32c0,0.3,0.1,0.5,0.2,0.7
	c0.2,0.2,0.4,0.3,0.7,0.3h1.3c0.3,0,0.5-0.1,0.7-0.2c0.1-0.1,0.2-0.3,0.2-0.6v-0.7c0-0.3-0.1-0.6-0.2-0.7
	C238.7,30.6,238.5,30.5,238.2,30.5z"/>
<rect id="XMLID_112_" x="221.9" y="-0.1" class="st1" width="1.3" height="107.7"/>
<rect id="XMLID_113_" x="43.9" y="18.9" class="st1" width="163.4" height="1"/>
<path id="XMLID_57_" class="st0" d="M126.2,7.5c0,0.6,0.2,1,0.7,1c0.5,0,1.2-0.3,1.2-1.1V6c-0.3,0.2-0.6,0.3-0.8,0.4
	C126.5,6.5,126.2,6.9,126.2,7.5z"/>
<path id="XMLID_65_" class="st1" d="M129.8,8.2V4.4c0-1.3-0.4-2.2-2.6-2.2c-1.4,0-2.5,0.6-2.5,2.2v0.2h1.7V4.4
	c0-0.6,0.3-0.9,0.9-0.9c0.6,0,0.9,0.3,0.9,0.9c0,0.5-0.2,0.7-0.7,0.9l-1.1,0.3c-1.3,0.4-1.8,0.9-1.8,2.3c0,1,0.5,2.1,1.7,2.1
	c0.9,0,1.4-0.2,1.8-0.9h0c0,0.2,0.1,0.5,0.2,0.8h1.8C129.8,9.2,129.8,8.9,129.8,8.2z M128,7.4c0,0.8-0.6,1.1-1.2,1.1
	c-0.5,0-0.7-0.5-0.7-1c0-0.6,0.3-1,1-1.2c0.2-0.1,0.5-0.2,0.8-0.4V7.4z"/>
<path id="XMLID_73_" class="st0" d="M47.9,2.7c0-0.9-0.4-1.3-1.4-1.3h-0.7v2.5h0.6C47.4,3.9,47.9,3.6,47.9,2.7z"/>
<path id="XMLID_74_" class="st0" d="M46.6,5.3h-0.8v2.9h0.8c0.9,0,1.6-0.3,1.6-1.4C48.1,5.6,47.5,5.3,46.6,5.3z"/>
<path id="XMLID_82_" class="st1" d="M48.4,4.6L48.4,4.6c1-0.3,1.5-1.1,1.5-2.1c0-1.8-1.1-2.4-2.7-2.4h-3.2v9.6h3.3
	c2.3,0,3-1.3,3-2.8C50.1,5.5,49.5,4.7,48.4,4.6z M45.8,1.4h0.7c1,0,1.4,0.3,1.4,1.3c0,0.9-0.5,1.3-1.5,1.3h-0.6V1.4z M46.6,8.2h-0.8
	V5.3h0.8c0.9,0,1.5,0.3,1.5,1.4C48.1,7.8,47.5,8.2,46.6,8.2z"/>
<rect id="XMLID_121_" x="131.5" class="st1" width="1.9" height="9.6"/>
<path id="XMLID_54_" class="st0" d="M113.5,3.4c-0.9,0-1,1.1-1,2.5c0,1.5,0.1,2.5,1,2.5c0.8,0,1-0.7,1-2.5
	C114.5,4.2,114.2,3.4,113.5,3.4z"/>
<path id="XMLID_59_" class="st0" d="M113.5,3.4c-0.9,0-1,1.1-1,2.5c0,1.5,0.1,2.5,1,2.5c0.8,0,1-0.7,1-2.5
	C114.5,4.2,114.2,3.4,113.5,3.4z"/>
<path id="XMLID_63_" class="st1" d="M113.5,2.2c-2.1,0-2.9,1.3-2.9,3.8c0,2.5,0.6,3.8,2.9,3.8c2.1,0,2.9-1.3,2.9-3.8
	C116.3,3.5,115.7,2.1,113.5,2.2z M113.5,8.5c-0.9,0-1-1.1-1-2.5c0-1.5,0.1-2.5,1-2.5c0.8,0,1,0.7,1,2.5
	C114.5,7.8,114.2,8.5,113.5,8.5z"/>
<path id="XMLID_125_" class="st1" d="M119.5,4.8c0-0.8,0.3-1.2,1-1.2c0.6,0,0.8,0.3,0.8,1v5h1.9V4.2c0-1.4-0.7-2.1-1.8-2.1
	c-0.8,0-1.5,0.3-1.8,1h0V2.4h-1.8v7.2h1.9V4.8z"/>
<rect id="XMLID_126_" x="148.6" class="st1" width="1.9" height="9.6"/>
<polygon id="XMLID_127_" class="st1" points="140.4,5.4 143.7,5.4 143.7,3.8 140.4,3.8 140.4,1.6 143.9,1.6 143.9,0 138.5,0 
	138.5,9.6 140.4,9.6 "/>
<rect id="XMLID_128_" x="107.4" y="2.4" class="st1" width="1.8" height="7.2"/>
<polygon id="XMLID_129_" class="st1" points="168,5.4 171.3,5.4 171.3,3.8 168,3.8 168,1.6 171.5,1.6 171.5,0 166.1,0 166.1,9.6 
	168,9.6 "/>
<path id="XMLID_130_" class="st1" d="M153.9,4.8c0-0.8,0.4-1.2,1-1.2c0.5,0,0.7,0.3,0.7,0.9v5.1h1.9V4.8c0-0.8,0.4-1.2,1-1.2
	c0.5,0,0.7,0.3,0.7,0.9v5.1h1.9V4.3c0-1.4-0.6-2.2-1.8-2.2c-0.9,0-1.5,0.4-1.8,1.2h0c-0.2-0.7-0.8-1.2-1.7-1.2
	c-0.8,0-1.4,0.3-1.8,0.9h0V2.4H152v7.2h1.9V4.8z"/>
<rect id="XMLID_131_" x="145" y="2.4" class="st1" width="1.8" height="7.2"/>
<rect id="XMLID_132_" x="63" class="st1" width="1.9" height="9.6"/>
<polygon id="XMLID_133_" class="st1" points="53.6,5.3 55.9,5.3 55.9,9.6 57.8,9.6 57.8,0 55.9,0 55.9,3.7 53.6,3.7 53.6,0 51.7,0 
	51.7,9.6 53.6,9.6 "/>
<path id="XMLID_134_" class="st1" d="M68.5,4.8c0-0.8,0.3-1.2,1-1.2c0.6,0,0.8,0.3,0.8,1v5h1.9V4.2c0-1.4-0.7-2.1-1.8-2.1
	c-0.8,0-1.5,0.3-1.8,1h0V2.4h-1.8v7.2h1.9V4.8z"/>
<path id="XMLID_135_" class="st1" d="M86.3,5.3c0-1,0.7-1.3,1.4-1.3c0.2,0,0.4,0,0.6,0V2.2c-0.1,0-0.2,0-0.3,0
	c-0.8,0-1.3,0.5-1.7,1.2h0v-1h-1.8v7.2h1.9V5.3z"/>
<path id="XMLID_136_" class="st1" d="M91.1,4.8c0-0.8,0.4-1.2,1-1.2c0.5,0,0.8,0.3,0.8,1v5h1.9V4.2c0-1.4-0.7-2.1-1.8-2.1
	c-0.8,0-1.4,0.3-1.8,1h0V2.4h-1.8v7.2h1.9V4.8z"/>
<path id="XMLID_68_" class="st0" d="M97.8,7.5c0,0.6,0.2,1,0.7,1c0.5,0,1.1-0.3,1.1-1.1V6c-0.3,0.2-0.6,0.3-0.8,0.4
	C98.1,6.5,97.8,6.9,97.8,7.5z"/>
<path id="XMLID_72_" class="st1" d="M101.4,8.2V4.4c0-1.3-0.4-2.2-2.6-2.2c-1.4,0-2.5,0.6-2.5,2.2v0.2h1.7V4.4
	c0-0.6,0.3-0.9,0.9-0.9c0.6,0,0.9,0.3,0.9,0.9c0,0.5-0.2,0.7-0.7,0.9l-1,0.3C96.6,5.8,96,6.4,96,7.7c0,1,0.5,2.1,1.7,2.1
	c0.9,0,1.4-0.2,1.8-0.9h0c0.1,0.2,0.1,0.5,0.2,0.8h1.8C101.5,9.2,101.4,8.9,101.4,8.2z M99.7,7.4c0,0.8-0.6,1.1-1.1,1.1
	c-0.5,0-0.7-0.5-0.7-1c0-0.6,0.3-1,1-1.2c0.2-0.1,0.5-0.2,0.8-0.4V7.4z"/>
<path id="XMLID_140_" class="st1" d="M103.5,7.8c0,1.5,0.3,1.9,1.7,1.9c0.4,0,0.8,0,1.2-0.1V8.3c-0.1,0-0.3,0-0.4,0
	c-0.5,0-0.7-0.2-0.7-0.8V3.6h1.1V2.4h-1.1V0.3h-1.9v2.1h-0.9v1.3h0.9V7.8z"/>
<path id="XMLID_31_" class="st0" d="M80.5,3.4c-0.7,0-1,0.8-1,1.4v0.3h1.9C81.4,4.1,81.3,3.4,80.5,3.4z"/>
<path id="XMLID_75_" class="st1" d="M83.2,6.3V5.9c0-2.2-0.5-3.7-2.7-3.7c-2.5,0-2.9,1.8-2.9,3.7c0,1.8,0.1,3.9,2.8,3.9
	c1.7,0,2.6-0.9,2.6-2.6h-1.7c-0.1,0.9-0.4,1.4-1,1.4c-0.7,0-0.9-0.8-0.9-1.7V6.3H83.2z M79.6,4.9c0-0.7,0.2-1.4,1-1.4
	c0.8,0,0.9,0.6,0.9,1.7h-1.9V4.9z"/>
<path id="XMLID_144_" class="st1" d="M74.1,7.8c0,1.5,0.3,1.9,1.7,1.9c0.4,0,0.8,0,1.2-0.1V8.3c-0.1,0-0.3,0-0.4,0
	c-0.5,0-0.7-0.2-0.7-0.8V3.6H77V2.4h-1.1V0.3h-1.9v2.1h-0.9v1.3h0.9V7.8z"/>
<path id="XMLID_41_" class="st0" d="M174.8,3.4c-0.7,0-1,0.8-1,1.4v0.3h1.9C175.7,4.1,175.6,3.4,174.8,3.4z"/>
<path id="XMLID_49_" class="st0" d="M174.8,3.4c-0.7,0-1,0.8-1,1.4v0.3h1.9C175.7,4.1,175.6,3.4,174.8,3.4z"/>
<path id="XMLID_56_" class="st1" d="M177.6,6.3V5.9c0-2.2-0.5-3.7-2.7-3.7c-2.5,0-2.9,1.8-2.9,3.7c0,1.8,0.1,3.9,2.8,3.9
	c1.7,0,2.6-0.9,2.6-2.6h-1.7c-0.1,0.9-0.4,1.4-1,1.4c-0.7,0-0.9-0.8-0.9-1.7V6.3H177.6z M173.9,4.9c0-0.7,0.2-1.4,1-1.4
	c0.8,0,0.9,0.6,0.9,1.7h-1.9V4.9z"/>
<polygon id="XMLID_148_" class="st1" points="196.4,9.6 198.2,2.4 196.3,2.4 195.3,7.5 195.3,7.5 194.3,2.4 192.3,2.4 194.2,9.6 "/>
<path id="XMLID_47_" class="st0" d="M200.5,7.5c0,0.6,0.2,1,0.7,1c0.5,0,1.1-0.3,1.1-1.1V6c-0.3,0.2-0.6,0.3-0.8,0.4
	C200.8,6.5,200.5,6.9,200.5,7.5z"/>
<path id="XMLID_67_" class="st1" d="M204.1,8.2V4.4c0-1.3-0.4-2.2-2.6-2.2c-1.4,0-2.5,0.6-2.5,2.2v0.2h1.7V4.4
	c0-0.6,0.3-0.9,0.9-0.9c0.6,0,0.9,0.3,0.9,0.9c0,0.5-0.2,0.7-0.7,0.9l-1,0.3c-1.3,0.4-1.8,0.9-1.8,2.3c0,1,0.5,2.1,1.8,2.1
	c0.9,0,1.4-0.2,1.8-0.9h0c0.1,0.2,0.1,0.5,0.2,0.8h1.8C204.1,9.2,204.1,8.9,204.1,8.2z M202.3,7.4c0,0.8-0.6,1.1-1.1,1.1
	c-0.5,0-0.7-0.5-0.7-1c0-0.6,0.3-1,1-1.2c0.2-0.1,0.5-0.2,0.8-0.4V7.4z"/>
<rect id="XMLID_152_" x="205.8" class="st1" width="1.9" height="9.6"/>
<rect id="XMLID_153_" x="189.4" y="2.4" class="st1" width="1.9" height="7.2"/>
<path id="XMLID_154_" class="st1" d="M181.2,9.8c1.6,0,2.7-0.8,2.7-2.3c0-1.1-0.4-1.7-1.6-2.1l-1.1-0.4c-0.6-0.2-0.8-0.5-0.8-0.8
	c0-0.5,0.4-0.8,0.9-0.8c0.6,0,0.8,0.4,0.8,1.1h1.7V4.2c0-1.3-0.8-2.1-2.5-2.1c-1.9,0-2.7,1-2.7,2.2c0,1,0.5,1.7,1.5,2l1.3,0.5
	c0.4,0.1,0.7,0.4,0.7,0.8c0,0.6-0.4,0.9-0.9,0.9c-0.6,0-1-0.4-1-1V7.2h-1.7v0.3C178.5,8.9,179.1,9.8,181.2,9.8z"/>
<path id="XMLID_155_" class="st1" d="M185.5,7.8c0,1.5,0.3,1.9,1.7,1.9c0.4,0,0.8,0,1.2-0.1V8.3c-0.1,0-0.3,0-0.4,0
	c-0.5,0-0.7-0.2-0.7-0.8V3.6h1.1V2.4h-1.1V0.3h-1.9v2.1h-0.9v1.3h0.9V7.8z"/>
<path id="XMLID_8_" class="st0" d="M82.3,35c-0.1-0.1-0.2-0.2-0.3-0.2c-0.2-0.1-0.3-0.1-0.3-0.1c-0.2-0.1-0.6-0.1-0.9-0.1h0l-1.5,0
	l0,4.6l0,6.7l1.6,0c0.7,0,1.2-0.2,1.4-0.5c0.3-0.3,0.5-0.8,0.4-1.5l0-7.3C82.7,35.8,82.5,35.3,82.3,35z"/>
<path id="XMLID_15_" class="st1" d="M84.4,49.1c0.8-0.7,1.4-1.5,1.8-2.5c0,0,0,0,0,0c0,0,0,0,0,0c0,0,0,0,0,0
	c0.1-0.3,0.2-0.6,0.2-0.6c0.4-1.2,0.6-2.6,0.6-4.1l0-3.9c0,0,0-0.1,0-0.1c0-2.5-0.5-4.4-1.6-5.7c-0.4-0.5-0.9-0.9-1.4-1.2
	c-0.9-0.5-2.1-0.8-3.4-0.8l-5.8,0l0.2,36.3h0l4.3,0l-0.1-16.2l0-0.2l1.1,0l0,0l2.4,16.3h4.4h0L84.4,49.1z M82.3,45.3
	c-0.3,0.3-0.7,0.5-1.4,0.5l-1.6,0l0-6.7l0-4.6l1.5,0h0c0.4,0,0.7,0.1,0.9,0.1c0,0,0.1,0,0.3,0.1c0.1,0.1,0.2,0.1,0.3,0.2
	c0.3,0.3,0.5,0.8,0.5,1.5l0,7.3C82.8,44.5,82.6,45,82.3,45.3z"/>
<polygon id="XMLID_159_" class="st1" points="143.5,29.8 143.6,49.9 139.9,29.8 134.9,29.8 135.1,66.1 139.1,66.1 139,45.8 
	140.1,52 142.7,66 142.7,66 147.7,66 147.5,29.7 "/>
<polygon id="XMLID_160_" class="st1" points="155.4,61.6 155.3,49.7 156.8,49.6 158.4,49.6 158.4,49.6 158.4,49.6 158.4,45.3 
	156.8,45.3 155.3,45.3 155.2,34 160.6,34 160.6,32 160.6,29.7 150.8,29.7 150.8,29.7 150.9,48.5 151,66 151,66 151,66 160.8,65.9 
	160.9,65.9 160.8,61.6 "/>
<path id="XMLID_2_" class="st0" d="M41.2,35.4C41.2,35.4,41.2,35.4,41.2,35.4c-0.1-0.1-0.1-0.2-0.1-0.2C41,35.1,40.9,35,40.8,35
	c-0.2-0.1-0.5-0.2-0.8-0.2c-0.3,0-0.5,0.1-0.7,0.1c-0.1,0.1-0.2,0.1-0.3,0.2c-0.2,0.2-0.3,0.6-0.3,1.3l0.2,24.3c0,0.5,0.1,0.8,0.2,1
	c0,0.1,0.1,0.2,0.1,0.2c0.2,0.2,0.5,0.4,1,0.4c0.5,0,0.8-0.1,1-0.4c0.1-0.1,0.1-0.1,0.1-0.2c0,0,0,0,0-0.1c0.1-0.2,0.1-0.3,0.2-0.6
	c0-0.1,0-0.3,0-0.4l-0.2-24.3C41.4,36,41.3,35.6,41.2,35.4z"/>
<path id="XMLID_10_" class="st1" d="M45.7,40.5c0-1.7,0-2.8,0-2.9c0,0,0,0,0,0c0-0.5-0.1-1-0.2-1.5c-0.1-0.7-0.2-1.3-0.4-1.9
	c-0.2-0.6-0.4-1.1-0.7-1.5c0,0,0,0,0,0l0,0c0,0,0,0,0,0c0,0,0,0,0,0c0,0,0,0,0,0c0,0,0,0-0.1-0.1c-0.1-0.1-0.2-0.3-0.3-0.4
	c-0.1-0.1-0.1-0.1-0.1-0.2v0c0,0,0,0,0,0v0c-0.1-0.1-0.2-0.2-0.3-0.3c0,0-0.1-0.1-0.1-0.1C43,31.2,42.5,31,42,30.8
	c-0.6-0.2-1.3-0.3-2-0.3h0h0c-0.3,0-0.5,0-0.8,0.1c-0.3,0-0.5,0.1-0.7,0.2c-0.2,0.1-0.4,0.1-0.6,0.2c-0.3,0.1-0.5,0.2-0.7,0.4
	L37,31.3c-0.1,0.1-0.3,0.2-0.4,0.3c-0.2,0.1-0.3,0.3-0.5,0.5c-0.1,0.2-0.3,0.3-0.4,0.5c-0.2,0.3-0.4,0.7-0.5,1
	c-0.6,1.3-0.8,3-0.8,5.1c0,0,0,0.1,0,0.2c0,1.7,0.1,12.8,0.2,18c0,1.5,0,2.5,0,2.6v0c0,0.2,0,0.3,0.1,0.5c0,0.3,0.1,0.7,0.1,1
	c0.2,1.1,0.5,2.1,0.9,2.9c0.1,0.2,0.2,0.4,0.3,0.5c0,0,0,0,0,0h0c0,0,0,0,0,0c0,0,0,0,0,0c0,0,0,0,0,0c0,0,0,0.1,0.1,0.1
	c0.1,0.1,0.2,0.3,0.3,0.4c0,0,0,0,0.1,0.1c0,0,0,0.1,0.1,0.1v0c0,0,0,0,0,0v0c0.2,0.2,0.3,0.3,0.3,0.3c0.9,0.8,2.1,1.1,3.4,1.1
	c0,0,0,0,0.1,0h0h0h0c0.2,0,0.3,0,0.5,0c0.1,0,0.2,0,0.3,0c0.8-0.1,1.5-0.3,2.1-0.7l0.1,0l0.1,0c0.2-0.1,0.4-0.3,0.6-0.5
	c0.3-0.3,0.5-0.5,0.7-0.9c0.9-1.4,1.4-3.4,1.4-6.1v0C45.9,58.5,45.7,46.3,45.7,40.5z M41.5,61.2c0,0.2-0.1,0.4-0.2,0.6
	c0,0,0,0,0,0.1c0,0.1-0.1,0.1-0.1,0.2c-0.2,0.2-0.5,0.4-1,0.4c-0.5,0-0.8-0.1-1-0.4c-0.1-0.1-0.1-0.1-0.1-0.2
	c-0.1-0.2-0.2-0.6-0.2-1l-0.2-24.3c0-0.6,0.1-1,0.3-1.3c0.1-0.1,0.2-0.2,0.3-0.2c0.2-0.1,0.4-0.1,0.7-0.1c0.4,0,0.6,0.1,0.8,0.2
	c0.1,0,0.1,0.1,0.2,0.2c0,0,0.1,0.1,0.1,0.2c0,0,0,0,0,0c0.1,0.2,0.2,0.6,0.2,1.1l0.2,24.3C41.5,60.9,41.5,61,41.5,61.2z"/>
<path id="XMLID_21_" class="st0" d="M174.3,59c0.1,0,0.6-0.1,0.8-0.1c0,0,0,0,0,0c0.1,0,0.1,0,0.2-0.1c0.9-0.2,1.5-0.7,1.8-1.5
	c0.2-0.4,0.3-0.9,0.4-1.5c0-0.2,0-0.5,0-0.7l-0.1-15c0-0.8-0.1-1.5-0.4-2c-0.5-1.2-1.5-1.8-3-1.8l-3.3,0l0,0l0.2,22.7L174.3,59
	C174.3,59,174.3,59,174.3,59z"/>
<path id="XMLID_27_" class="st0" d="M177.3,67.6c-0.5-1.3-1.5-2-3.1-1.9l-1.9,0l-1.4,0l0.1,11.5l0.1,12.5l3.4,0c0,0,0.1,0,0.1,0
	c0.2,0,0.6-0.1,0.8-0.1c0.6-0.1,1.1-0.4,1.5-0.8c0.3-0.4,0.6-0.8,0.7-1.4c0.1-0.5,0.2-1,0.2-1.6l-0.1-16.3
	C177.6,68.8,177.5,68.2,177.3,67.6z"/>
<path id="XMLID_17_" class="st0" d="M174.3,59c0.1,0,0.6-0.1,0.8-0.1c0,0,0,0,0,0c0.1,0,0.1,0,0.2-0.1c0.9-0.2,1.5-0.7,1.8-1.5
	c0.2-0.4,0.3-0.9,0.4-1.5c0-0.2,0-0.5,0-0.7l-0.1-15c0-0.8-0.1-1.5-0.4-2c-0.5-1.2-1.5-1.8-3-1.8l-3.3,0l0,0l0.2,22.7L174.3,59
	C174.3,59,174.3,59,174.3,59z"/>
<path id="XMLID_18_" class="st0" d="M177.3,67.6c-0.5-1.3-1.5-2-3.1-1.9l-1.9,0l-1.4,0l0.1,11.5l0.1,12.5l3.4,0c0,0,0.1,0,0.1,0
	c0.2,0,0.6-0.1,0.8-0.1c0.6-0.1,1.1-0.4,1.5-0.8c0.3-0.4,0.6-0.8,0.7-1.4c0.1-0.5,0.2-1,0.2-1.6l-0.1-16.3
	C177.6,68.8,177.5,68.2,177.3,67.6z"/>
<path id="XMLID_197_" class="st1" d="M184.3,79.2l0-4.6l0-1.1c0-5.9-1.7-9.7-4.8-11.3c0.2-0.1,0.5-0.3,0.7-0.4
	c0.2-0.1,0.4-0.3,0.6-0.5c0,0,0,0,0,0c-0.1,0.1-0.1,0.1,0,0c0,0,0.1-0.1,0.1-0.1c0,0,0,0,0,0c0,0,0,0,0,0c0,0,0,0,0,0
	c0.5-0.5,1-1,1.4-1.7c0.2-0.4,0.5-0.8,0.7-1.3c0,0,0,0,0,0c0,0,0,0,0,0c0,0,0,0,0,0c0,0,0,0,0,0c0,0,0,0,0,0c0.1-0.3,0.2-0.6,0.3-1
	c0.6-1.8,0.9-3.9,0.9-6.5l0-6.7c0-2.9-0.3-5.4-1-7.4c-1.4-4.8-4.5-7.2-9.2-7.2l-9.9,0.1l-0.1,0l0.4,64.7c0,0,0,0,0,0c0,0,0,0,0,0
	c0,0.1,0,0.1,0,0.2c0,0,0,0,0,0.1l0,0.9l0,0.9l10-0.1c1.3,0,2.4-0.2,3.5-0.6c1-0.3,1.8-0.9,2.6-1.5c0.6-0.5,1.2-1.3,1.2-1.3
	c0.6-0.8,1.1-1.8,1.5-3c0-0.1,0.1-0.2,0.1-0.4c0.1-0.3,0.2-0.5,0.2-0.8c0-0.2,0.1-0.3,0.1-0.5c0-0.2,0.1-0.3,0.1-0.5
	c0.4-1.8,0.6-3.8,0.5-6.2L184.3,79.2z M170.7,36.4L170.7,36.4l3.3,0c1.5,0,2.5,0.6,3,1.8c0.2,0.6,0.4,1.2,0.4,2l0.1,15
	c0,0.3,0,0.5,0,0.7c-0.1,0.6-0.2,1.1-0.4,1.5c-0.4,0.8-1,1.3-1.8,1.5c-0.1,0-0.1,0-0.2,0.1c0,0,0,0,0,0c-0.2,0-0.7,0.1-0.8,0.1
	c0,0,0,0,0,0l-3.4,0L170.7,36.4z M177.5,87.5c-0.2,0.6-0.4,1-0.7,1.4c-0.4,0.4-0.9,0.6-1.5,0.8c-0.2,0-0.6,0.1-0.8,0.1
	c0,0-0.1,0-0.1,0l-3.4,0L171,77.3l-0.1-11.5l1.4,0l1.9,0c1.6,0,2.6,0.6,3.1,1.9c0.2,0.5,0.3,1.1,0.3,1.9l0.1,16.3
	C177.7,86.5,177.7,87,177.5,87.5z"/>
<polygon id="XMLID_168_" class="st1" points="127.2,29.9 127.5,66.1 131.8,66.1 131.6,29.9 "/>
<path id="XMLID_169_" class="st1" d="M118.1,73.8l0.1,12.4c0,0.2,0,0.4,0,0.6c0,0,0,0.2,0,0.4c-0.1,0.7-0.3,1.3-0.6,1.8
	c-0.3,0.5-0.8,0.8-1.3,1c-0.1,0-0.3,0.1-0.4,0.1c-0.3,0.1-0.6,0.1-0.9,0.1c0,0,0,0,0,0c-1.4,0-2.3-0.5-2.8-1.5
	c-0.3-0.6-0.5-1.4-0.5-2.3l-0.3-45.7c0-2.6,1.1-3.9,3.3-3.9c1.8,0,2.8,0.8,3.2,2.4c0.1,0.4,0.2,0.9,0.2,1.4l0.1,10l0,0.3l3.2,0
	l3.2,0v0l0-0.1l0-6c0-1.6-0.1-3.1-0.3-4.5c-0.9-6.8-4.1-10.2-9.5-10.1c-6.7,0-10,5-9.9,14.7l0.3,37.4c0,2.4,0.2,4.6,0.7,6.4
	c1.2,5,3.9,7.8,8.2,8.1c0.4,0,0.8,0.1,1.2,0c3.7,0,6.3-1.7,7.9-4.9c0.1-0.1,0.1-0.2,0.2-0.3c0,0,0-0.1,0-0.1
	c0.5-1.1,0.9-2.4,1.1-3.9c0,0,0,0,0,0c0,0,0,0,0,0c0,0,0-0.1,0-0.1c0-0.1,0-0.2,0-0.2l0.2-1.2c0.1-1.3,0.2-2.6,0.2-4l-0.1-8.3
	L118.1,73.8z"/>
<path id="XMLID_170_" class="st1" d="M72.5,30.3L72.5,30.3L72.5,30.3l-5.5,0c0,0-0.1,0-0.2,0l-5.8,0l0,2.1l0,2.2l3.5,0l0,0l0.2,31.9
	h0l2.2,0l2.1,0L69,34.6l3.5,0L72.5,30.3z"/>
<polygon id="XMLID_171_" class="st1" points="20.7,0.1 15.6,47.9 9.8,0.1 0,0.2 0.4,66.9 6.4,66.9 6.1,14.8 12.9,66.8 18.4,66.8 
	24.8,14.5 25.1,66.8 31.1,66.7 30.7,0 "/>
<path id="XMLID_172_" class="st1" d="M59.6,56.1l0-0.4l0-0.4c0-0.8-0.2-1.7-0.5-2.7c-0.2-0.6-0.4-1.1-0.7-1.7c0,0,0,0,0,0
	c-0.5-1-1.2-2.1-2.1-3.3c-0.2-0.2-0.3-0.4-0.5-0.6c-0.7-0.9-1.2-1.7-1.6-2.5C53.4,43,53,41.7,53,40.4l0-4.1c0-0.3,0-0.5,0-0.7
	c0.1-0.3,0.1-0.5,0.2-0.6c0.1-0.1,0.2-0.2,0.4-0.3c0.1,0,0.2-0.1,0.4-0.1c0.2,0,0.3,0,0.5,0.1c0.1,0.1,0.2,0.1,0.3,0.3c0,0,0,0,0,0
	c0.2,0.2,0.3,0.7,0.3,1.3l0,2l0,3.8h0l4.3,0l0-1.8l0-1.8c0,0,0-0.1,0-0.1c0-0.6,0-1.1-0.1-1.6c0-0.3-0.1-0.6-0.1-0.9
	c0-0.2,0-0.4-0.1-0.5c-0.1-0.4-0.2-0.7-0.3-1.1c0,0,0-0.1,0-0.1c0,0,0,0,0,0c0-0.1-0.1-0.2-0.1-0.3c-0.1-0.2-0.2-0.5-0.3-0.7
	c0,0,0-0.1,0-0.1c0,0,0-0.1-0.1-0.2c0-0.1-0.1-0.2-0.2-0.3c0,0,0,0,0-0.1c0,0,0,0,0-0.1c-0.1-0.1-0.1-0.2-0.2-0.3c0,0,0,0-0.1-0.1
	c0,0-0.1-0.1-0.1-0.1c0,0,0,0,0,0c0,0,0,0,0,0c0,0,0,0,0,0c0,0,0,0,0,0c0,0-0.1-0.1-0.1-0.1c0,0,0,0-0.1-0.1
	c-0.1-0.2-0.3-0.3-0.5-0.4c0,0,0,0-0.1-0.1v0c-0.1,0-0.1-0.1-0.2-0.1l0,0c0,0,0,0-0.1,0c0,0,0,0-0.1,0c-0.1-0.1-0.2-0.1-0.3-0.2
	c-0.2-0.1-0.5-0.2-0.8-0.3c0,0,0,0-0.1,0l0,0c0,0,0,0,0,0c-0.2-0.1-0.4-0.1-0.7-0.1c0,0,0,0-0.1,0c0,0,0,0,0,0c-0.2,0-0.5,0-0.7,0
	c0,0,0,0,0,0h0h0c0,0,0,0,0,0c0,0,0,0,0,0c-0.3,0-0.5,0-0.8,0.1h0h0c-0.1,0-0.2,0-0.3,0l0,0c-0.1,0-0.1,0-0.2,0l0,0c0,0-0.1,0-0.2,0
	c0,0,0,0,0,0c0,0,0,0,0,0c0,0,0,0,0,0c0,0-0.1,0-0.1,0c0,0,0,0,0,0c0,0,0,0,0,0c0,0-0.1,0-0.1,0c0,0,0,0-0.1,0v0c0,0,0,0,0,0v0
	c-0.1,0-0.1,0-0.1,0.1c0,0-0.1,0-0.1,0c-0.1,0-0.1,0.1-0.2,0.1c-0.1,0-0.2,0.1-0.2,0.1v0c0,0,0,0-0.1,0c0,0,0,0-0.1,0c0,0,0,0,0,0
	c-0.3,0.2-0.5,0.3-0.7,0.5c0,0,0,0,0,0c0,0-0.1,0.1-0.1,0.1c0,0-0.1,0.1-0.1,0.1c0,0,0,0,0,0c-0.2,0.2-0.4,0.5-0.6,0.7c0,0,0,0,0,0
	c-0.8,1.3-1.2,3.1-1.3,5.4c0,0.2,0,0.4,0,0.6l0,2.3v0v0.8c0,1.3,0.4,2.8,1.3,4.4c0,0,0,0,0,0.1c0.3,0.5,0.6,1.1,1,1.6
	c0.3,0.5,0.7,1.1,1.2,1.6c0.4,0.5,0.8,1.1,1.1,1.6c0,0.1,0.1,0.1,0.1,0.2c0.3,0.5,0.6,0.9,0.8,1.3c0.8,1.5,1.2,2.8,1.2,4.1l0,2.7
	l0,1.4c0,0.6-0.1,1.1-0.3,1.3c-0.1,0.1-0.2,0.2-0.4,0.3c-0.1,0-0.2,0.1-0.4,0.1c-0.1,0-0.1,0-0.2,0c-0.1,0-0.2,0-0.3-0.1
	c-0.1-0.1-0.2-0.1-0.3-0.3c-0.2-0.2-0.3-0.7-0.3-1.3l0-5.8h0v-1.2h0l-2.6,0l-1.8,0l0,3.7l0,1c0,0,0,0.1,0,0.1c0,0.4,0,0.7,0.1,1.1
	c0,0.2,0,0.4,0,0.6c0,0.2,0.1,0.4,0.1,0.7c0,0.1,0,0.2,0,0.3c0,0.2,0.1,0.4,0.1,0.5c0.1,0.4,0.2,0.7,0.3,1.1c0,0,0,0.1,0,0.1
	c0,0,0,0,0,0.1c0,0.1,0.1,0.2,0.1,0.3c0.1,0.2,0.2,0.5,0.3,0.7c0,0,0,0,0,0c0,0,0,0,0,0c0,0,0.1,0.1,0.2,0.3c0,0.1,0.1,0.1,0.1,0.2
	c0,0,0,0,0,0.1c0,0,0,0,0,0.1c0.1,0.1,0.1,0.2,0.2,0.3c0.1,0.1,0.1,0.1,0.2,0.2c0,0,0,0,0,0c0,0,0,0,0,0c0,0,0.1,0.1,0.1,0.1
	c0,0,0,0,0.1,0.1c0.1,0.1,0.2,0.2,0.3,0.3c0.1,0,0.1,0.1,0.2,0.1c0,0,0,0,0.1,0.1h0c0.1,0,0.1,0.1,0.2,0.1l0,0c0,0,0.1,0,0.1,0.1
	c0.3,0.2,0.7,0.4,1.1,0.5c0,0,0,0,0.1,0c0,0,0,0,0,0c0.2,0.1,0.4,0.1,0.7,0.1c0,0,0.1,0,0.1,0c0.2,0,0.5,0.1,0.7,0.1c0,0,0,0,0,0h0
	c0,0,0,0,0,0c0.1,0,0.2,0,0.3,0c0.2,0,0.4,0,0.5-0.1h0h0c0.1,0,0.1,0,0.2,0c0,0,0.1,0,0.1,0l0,0l0,0c0,0,0.1,0,0.2,0l0,0
	c0,0,0.1,0,0.2,0c0,0,0,0,0,0l0,0c0,0,0.1,0,0.1,0c0,0,0,0,0,0c0,0,0,0,0,0c0.1,0,0.1,0,0.2-0.1c0,0,0,0,0,0c0.1,0,0.1,0,0.2-0.1
	c0.1,0,0.1,0,0.2-0.1c0,0,0.1,0,0.1,0c0.1,0,0.2-0.1,0.2-0.1c0,0,0,0,0,0c0,0,0.1,0,0.1-0.1c0,0,0,0,0,0c0,0,0,0,0,0
	c0.3-0.2,0.5-0.3,0.7-0.5c0,0,0,0,0,0c0,0,0,0,0,0c0,0,0,0,0,0c0,0,0,0,0,0c0,0,0.1-0.1,0.1-0.1c0,0,0.1-0.1,0.1-0.1
	c0.2-0.2,0.5-0.5,0.6-0.8c0.3-0.5,0.6-1.1,0.8-1.8c0.3-1.2,0.5-2.6,0.5-4.2L59.6,56.1L59.6,56.1z"/>
<polygon id="XMLID_173_" class="st1" points="200.5,29.5 200.7,58.9 200.7,58.9 194.1,58.9 193.9,29.5 187.2,29.6 187.2,29.6 
	187.2,29.6 187.6,96.3 194.3,96.3 194.2,88.8 194.1,65.6 200.8,65.5 201,96.2 207.6,96.2 207.2,29.5 "/>
<polygon id="XMLID_13_" class="st0" points="95.3,45 95.1,46.9 94,56.4 96.7,56.4 95.4,46.9 "/>
<path id="XMLID_20_" class="st1" d="M97.3,30.1l-4.3,0l-4.6,36.3l4.4,0l0.6-5.3l3.8,0l0.7,5.3l4.4,0L97.3,30.1z M94,56.4l1.1-9.6
	l0.1-1.8l0.2,1.8l1.2,9.5L94,56.4z"/>
<path id="XMLID_177_" class="st1" d="M239.1,52.9l-2.6-1.8c-0.2-0.2-0.4-0.3-0.6-0.4c-0.2-0.1-0.4-0.2-0.5-0.3
	c-0.2-0.1-0.4-0.1-0.6-0.2c-0.2,0-0.5-0.1-0.8-0.1h-0.5c-0.7,0-1.2,0.2-1.6,0.6c-0.3,0.4-0.5,0.9-0.5,1.7v1.4h0.9v-1.5
	c0-0.3,0.1-0.6,0.3-0.8c0.2-0.2,0.4-0.3,0.7-0.3h0.9c0.2,0,0.4,0,0.6,0c0.1,0,0.3,0.1,0.4,0.1c0.1,0.1,0.3,0.1,0.4,0.2
	c0.2,0.1,0.4,0.2,0.6,0.4l2.8,2h1.1v-4.1h-0.9V52.9z"/>
<path id="XMLID_24_" class="st0" d="M232.5,44.3c-0.2,0.2-0.3,0.4-0.3,0.8v0.3c0,0.3,0.1,0.6,0.3,0.8c0.2,0.2,0.4,0.3,0.7,0.3h3.4
	l-3.4-2.3C232.9,44.1,232.7,44.2,232.5,44.3z"/>
<path id="XMLID_25_" class="st0" d="M238.2,44.1h-3.4l3.4,2.3c0.3,0,0.5-0.1,0.7-0.3c0.2-0.2,0.3-0.4,0.3-0.8v-0.3
	c0-0.3-0.1-0.6-0.3-0.8C238.6,44.2,238.4,44.1,238.2,44.1z"/>
<path id="XMLID_34_" class="st1" d="M239.5,43.6c-0.3-0.4-0.9-0.6-1.6-0.6h-4.5c-0.7,0-1.3,0.2-1.6,0.6c-0.3,0.4-0.5,0.9-0.5,1.5
	v0.3c0,0.6,0.2,1.1,0.5,1.5c0.3,0.4,0.9,0.6,1.6,0.6h4.5c0.7,0,1.2-0.2,1.6-0.6c0.3-0.4,0.5-0.9,0.5-1.5v-0.3
	C240,44.5,239.9,44,239.5,43.6z M233.2,46.4c-0.3,0-0.5-0.1-0.7-0.3c-0.2-0.2-0.3-0.4-0.3-0.8v-0.3c0-0.3,0.1-0.6,0.3-0.8
	c0.2-0.2,0.4-0.3,0.7-0.3l3.4,2.3H233.2z M239.1,45.4c0,0.3-0.1,0.6-0.3,0.8c-0.2,0.2-0.4,0.3-0.7,0.3l-3.4-2.3h3.4
	c0.3,0,0.5,0.1,0.7,0.3c0.2,0.2,0.3,0.4,0.3,0.8V45.4z"/>
<polygon id="XMLID_182_" class="st1" points="239.1,37.8 231.3,37.8 231.3,38.9 231.9,40.6 232.9,40.6 232.3,38.8 239.1,38.8 
	239.1,40.5 240,40.5 240,36.4 239.1,36.4 "/>
<path id="XMLID_38_" class="st0" d="M234.2,30.7h-1c-0.3,0-0.5,0.1-0.7,0.2c-0.1,0.1-0.2,0.4-0.2,0.7V32c0,0.3,0.1,0.5,0.2,0.6
	c0.1,0.1,0.4,0.2,0.7,0.2h1c0.3,0,0.5-0.1,0.6-0.2c0.2-0.2,0.3-0.3,0.3-0.6v-0.4c0-0.3-0.1-0.5-0.2-0.6
	C234.7,30.8,234.4,30.7,234.2,30.7z"/>
<path id="XMLID_39_" class="st0" d="M238.2,30.5h-1.3c-0.3,0-0.5,0.1-0.7,0.3c-0.2,0.2-0.2,0.4-0.2,0.7V32c0,0.3,0.1,0.5,0.2,0.7
	c0.2,0.2,0.4,0.3,0.7,0.3h1.3c0.3,0,0.5-0.1,0.7-0.2c0.1-0.1,0.2-0.3,0.2-0.6v-0.7c0-0.3-0.1-0.6-0.2-0.7
	C238.7,30.6,238.5,30.5,238.2,30.5z"/>
<path id="XMLID_44_" class="st1" d="M239.6,29.9c-0.3-0.3-0.8-0.5-1.5-0.5h-1c-0.4,0-0.7,0.1-0.9,0.2c-0.3,0.1-0.5,0.3-0.6,0.6
	c-0.3-0.4-0.8-0.7-1.4-0.7h-0.8c-0.7,0-1.2,0.2-1.5,0.5c-0.3,0.4-0.5,0.9-0.5,1.5v0.3c0,0.6,0.2,1.1,0.5,1.5
	c0.3,0.4,0.8,0.5,1.5,0.5h0.8c0.7,0,1.1-0.2,1.4-0.7c0.1,0.3,0.3,0.5,0.6,0.6c0.3,0.1,0.6,0.2,0.9,0.2h1c0.7,0,1.2-0.2,1.5-0.5
	c0.3-0.3,0.5-0.9,0.5-1.6v-0.3C240,30.8,239.9,30.3,239.6,29.9z M235.1,32c0,0.2-0.1,0.4-0.3,0.6c-0.2,0.2-0.4,0.2-0.6,0.2h-1
	c-0.3,0-0.5-0.1-0.7-0.2c-0.1-0.1-0.2-0.3-0.2-0.6v-0.5c0-0.3,0.1-0.5,0.2-0.7c0.1-0.1,0.4-0.2,0.7-0.2h1c0.3,0,0.5,0.1,0.7,0.3
	c0.2,0.2,0.2,0.4,0.2,0.6V32z M239.1,32.1c0,0.3-0.1,0.5-0.2,0.6c-0.1,0.1-0.4,0.2-0.7,0.2h-1.3c-0.3,0-0.5-0.1-0.7-0.3
	c-0.2-0.2-0.2-0.4-0.2-0.7v-0.6c0-0.3,0.1-0.5,0.2-0.7c0.2-0.2,0.4-0.3,0.7-0.3h1.3c0.3,0,0.5,0.1,0.7,0.2c0.1,0.2,0.2,0.4,0.2,0.7
	V32.1z"/>
</svg>
