<?xml version="1.0" encoding="utf-8"?>
<!-- Generator: Adobe Illustrator 19.0.0, SVG Export Plug-In . SVG Version: 6.00 Build 0)  -->
<svg version="1.1" id="Layer_1" xmlns="http://www.w3.org/2000/svg" xmlns:xlink="http://www.w3.org/1999/xlink" x="0px" y="0px"
	 viewBox="-154 355.2 302.5 83.8" style="enable-background:new -154 355.2 302.5 83.8;" xml:space="preserve">
<style type="text/css">
	.st0{fill:none;}
	.st1{fill:#FFFFFF;}
	.st2{fill:#9BB764;}
	.st3{fill:#FFE850;}
	.st4{fill:#ECD723;}
	.st5{fill:#33608D;}
	.st6{fill:#1A5A78;}
	.st7{fill:#335D75;}
	.st8{fill:#D0BE4E;}
	.st9{fill:#CBBA47;}
	.st10{fill:#D0BD45;}
	.st11{fill:#C4B64E;}
	.st12{fill:#C5B64C;}
	.st13{fill:#9EB33C;}
	.st14{fill:#99B036;}
	.st15{fill:#699051;}
	.st16{fill:#6A925B;}
	.st17{fill:#6B9152;}
	.st18{fill:#5F8955;}
	.st19{fill:#93AB3B;}
	.st20{fill:#93AB3D;}
	.st21{fill:#91A93D;}
	.st22{fill:#91A93C;}
</style>
<g>
	<polygon class="st0" points="-21.4,393.4 -15.9,393.4 -18.7,384.2 	"/>
	<path class="st0" d="M-19.6,410.7c-0.6,0-1.2,0.3-1.2,2.1h2.5C-18.3,411-18.8,410.7-19.6,410.7z"/>
	<path class="st0" d="M120.3,410.7c-0.6,0-1.2,0.3-1.2,2.1h2.5C121.6,411,121.1,410.7,120.3,410.7z"/>
	<path class="st0" d="M-29.4,386.7c0-1.2-0.6-2.6-2.3-2.6H-35v5.5h3.3C-30.1,389.6-29.4,388.2-29.4,386.7z"/>
	<path class="st0" d="M-3.7,414.5c0,0.6,0.3,1.2,1,1.2c0.6,0,1.4-0.4,1.3-2.4C-2.4,413.3-3.7,413.2-3.7,414.5z"/>
	<path class="st0" d="M43.8,410.8c-0.8,0-1.3,0.4-1.3,2.1c0,2,0.3,2.8,1.3,2.8s1.3-0.7,1.3-2.8C45.1,411.2,44.6,410.8,43.8,410.8z"
		/>
	<path class="st0" d="M50.2,410.8c-1.3,0-1.1,1.7-1.1,2.7c0,0.8,0,2.2,1.2,2.2c1,0,1.2-0.9,1.2-2.6
		C51.5,412.2,51.5,410.8,50.2,410.8z"/>
	<path class="st0" d="M126.7,410.7c-0.6,0-1.2,0.3-1.2,2.1h2.5C128,411,127.5,410.7,126.7,410.7z"/>
	<path class="st0" d="M93.1,410.8c-0.8,0-1.3,0.4-1.3,2.1c0,2,0.3,2.8,1.3,2.8c1,0,1.3-0.7,1.3-2.8
		C94.4,411.2,93.9,410.8,93.1,410.8z"/>
	<path class="st0" d="M22,414.5c0,0.6,0.3,1.2,1,1.2c0.6,0,1.4-0.4,1.3-2.4C23.3,413.3,22,413.2,22,414.5z"/>
	<path class="st0" d="M10.5,410.8c-0.8,0-1.3,0.4-1.3,2.1c0,2,0.3,2.8,1.3,2.8c1.1,0,1.3-0.7,1.3-2.8
		C11.8,411.2,11.3,410.8,10.5,410.8z"/>
	<path class="st0" d="M60.9,410.8c-0.8,0-1.3,0.4-1.3,2.1c0,2,0.3,2.8,1.3,2.8s1.3-0.7,1.3-2.8C62.2,411.2,61.7,410.8,60.9,410.8z"
		/>
	<path class="st0" d="M-48.3,390H-51v7.2h3.6c2.7,0,3.7-2,3.7-3.4C-43.7,390.6-45.7,390-48.3,390z"/>
	<path class="st0" d="M136.6,384.1h-2.9v13.4h2.1c3,0,4.2-1.1,4.2-5.1v-3.5C140,385.4,138.9,384.1,136.6,384.1z"/>
	<path class="st0" d="M-51.3,412.3c-1.1,0-1.5,0.8-1.5,1.9s0.4,1.9,1.5,1.9s1.5-0.8,1.5-1.9S-50.2,412.3-51.3,412.3z"/>
	<path class="st0" d="M146.1,410.8c-1.2,0-1.2,1.4-1.2,2.2c0,2,0.5,2.5,1.2,2.5c1.2,0,1.2-1.5,1.2-2.3
		C147.3,412.3,147.4,410.8,146.1,410.8z"/>
	<path class="st0" d="M-44.3,384.5c0-1.7-0.9-3-3.1-3H-51v6.2h3.7C-45.3,387.7-44.3,386.4-44.3,384.5z"/>
	<path class="st0" d="M-51.3,408.4c-0.9,0-1.2,0.6-1.2,1.5c0,0.9,0.4,1.5,1.2,1.5c0.8,0,1.2-0.7,1.2-1.5
		C-50,409-50.4,408.4-51.3,408.4z"/>
	<path class="st0" d="M67.2,410.8c-1.1,0-1.2,0.9-1.2,2.6c0,0.9,0,2.3,1.3,2.3c1.1,0,1.1-1.4,1.1-2.7
		C68.4,412.2,68.3,410.8,67.2,410.8z"/>
	<path class="st1" d="M-48.9,409.9c0-1.5-0.9-2.4-2.4-2.4s-2.4,0.9-2.4,2.4c0,1,0.4,1.6,1.4,2c-1.1,0.4-1.6,1.1-1.6,2.4
		c0,1.2,0.6,2.7,2.7,2.7s2.7-1.5,2.7-2.7c0-1.3-0.5-2-1.6-2.4C-49.3,411.5-48.9,410.9-48.9,409.9z M-49.7,414.2
		c0,1.1-0.4,1.9-1.5,1.9s-1.5-0.8-1.5-1.9s0.4-1.9,1.5-1.9S-49.7,413.1-49.7,414.2z M-51.3,411.4c-0.9,0-1.2-0.7-1.2-1.5
		c0-0.9,0.4-1.5,1.2-1.5c0.8,0,1.2,0.6,1.2,1.5C-50,410.8-50.4,411.4-51.3,411.4z"/>
	<path class="st1" d="M-47.5,407.2v1.2h-0.6v0.5h0.6v2.8c0,0.5,0.2,0.8,0.8,0.8c0.3,0,0.4,0,0.5,0v-0.5c-0.1,0-0.1,0-0.3,0
		c-0.3,0-0.4-0.1-0.4-0.5v-2.6h0.7v-0.5h-0.7v-1.2H-47.5z"/>
	<path class="st1" d="M-44.1,408.2c-0.4,0-0.8,0.2-1,0.6h0V407h-0.6v5.5h0.6v-2.8c0-0.6,0.5-0.8,0.8-0.8c0.6,0,0.6,0.5,0.6,0.8v2.8
		h0.6v-2.9C-43,409.1-43,408.2-44.1,408.2z"/>
	<polygon class="st1" points="-136.3,364.5 -136.2,364.6 -131.8,361.9 	"/>
	<polygon class="st1" points="-150,380.2 -142,384.8 -149.9,380.2 	"/>
	<polygon class="st1" points="-106.5,405.3 -106.5,405.3 -48.1,439 -45.4,434.4 -45.4,434.3 -48.1,439 	"/>
	<polygon class="st1" points="-112.4,400.6 -112.3,400.6 -111.9,399.9 	"/>
	<polygon class="st1" points="-45.4,355.2 -106.5,390.5 -106.5,390.5 	"/>
	<polygon class="st1" points="-121.3,405.3 -121.3,405.3 -136.3,431.3 -131.6,434 -131.6,434 -136.3,431.3 	"/>
	<polygon class="st1" points="-96.2,361.8 -96.2,361.8 -111.2,387.8 -111.2,387.8 	"/>
	<polygon class="st1" points="-91.6,364.5 -93.6,363.3 -91.6,364.6 	"/>
	<polygon class="st1" points="-117.1,397.9 -116.7,398.7 -116.7,399.4 -116.6,399.5 -116.6,398.6 	"/>
	<polygon class="st2" points="-116.6,387.8 -131.6,361.8 -131.8,361.9 -136.2,364.6 -136.3,364.6 -121.3,390.5 -116.6,393.2 	"/>
	<polygon class="st2" points="-111.2,402.6 -111.2,408 -96.2,434 -91.5,431.3 -106.5,405.3 -106.5,405.3 	"/>
	<polygon class="st3" points="-111.2,387.8 -111.2,387.8 -111.2,357.8 -116.6,357.8 -116.6,387.8 -113.9,392.5 	"/>
	<polygon class="st3" points="-116.6,408.1 -116.6,438 -111.2,438 -111.2,408 -113.9,403.3 	"/>
	<polygon class="st4" points="-114.9,394.2 -113.9,392.5 -116.6,387.8 -116.6,393.2 	"/>
	<polygon class="st4" points="-112.9,401.6 -113.9,403.3 -111.2,408 -111.2,402.6 	"/>
	<polygon class="st5" points="-121.3,390.5 -147.3,375.5 -150,380.2 -149.9,380.2 -142,384.8 -124.1,395.2 -118.6,395.2 	"/>
	<polygon class="st6" points="-116.6,395.2 -116.6,393.2 -121.3,390.5 -118.6,395.2 	"/>
	<polygon class="st7" points="-114.9,394.2 -116.6,393.2 -116.6,395.2 -115.5,395.2 	"/>
	<polygon class="st5" points="-103.8,400.6 -109.2,400.6 -106.5,405.3 -48.1,439 -45.4,434.3 -45.4,434.3 	"/>
	<polygon class="st6" points="-111.2,402.6 -106.5,405.3 -109.2,400.6 -111.2,400.6 	"/>
	<polygon class="st7" points="-112.3,400.6 -112.9,401.6 -111.2,402.6 -111.2,400.6 	"/>
	<polygon class="st5" points="-109.2,395.2 -103.8,395.2 -42.7,359.9 -45.4,355.2 -106.5,390.5 	"/>
	<polygon class="st5" points="-118.6,400.6 -124.1,400.6 -150,415.6 -147.3,420.3 -121.3,405.3 -121.3,405.3 	"/>
	<polygon class="st3" points="-103.8,400.6 -73.8,400.6 -73.8,395.2 -103.8,395.2 -108.5,397.9 	"/>
	<polygon class="st8" points="-110.2,398.9 -109.2,400.6 -103.8,400.6 -108.5,397.9 	"/>
	<polygon class="st9" points="-111.2,399.5 -111.2,400.6 -109.2,400.6 -110.2,398.9 	"/>
	<polygon class="st10" points="-112.3,400.6 -111.2,400.6 -111.2,399.5 -111.9,399.9 	"/>
	<polygon class="st8" points="-110.2,396.9 -108.5,397.9 -103.8,395.2 -109.2,395.2 	"/>
	<polygon class="st11" points="-110.2,398.9 -108.5,397.9 -110.2,396.9 -110.8,397.9 	"/>
	<polygon class="st12" points="-111.2,398.6 -111.9,399.9 -111.2,399.5 -110.2,398.9 -110.8,397.9 	"/>
	<polygon class="st3" points="-124.1,395.2 -154,395.2 -154,400.6 -124.1,400.6 -119.4,397.9 	"/>
	<polygon class="st8" points="-117.6,396.9 -118.6,395.2 -124.1,395.2 -119.4,397.9 	"/>
	<polygon class="st9" points="-116.6,395.2 -118.6,395.2 -117.6,396.9 -116.6,396.3 	"/>
	<polygon class="st10" points="-115.9,395.9 -115.5,395.2 -116.6,395.2 -116.6,396.3 	"/>
	<polygon class="st8" points="-117.6,398.9 -117.7,398.9 -117.7,398.9 -119.4,397.9 -124.1,400.6 -118.6,400.6 	"/>
	<polygon class="st11" points="-117.6,396.9 -119.4,397.9 -117.7,398.9 -117.1,397.9 	"/>
	<polygon class="st12" points="-116.6,397.2 -115.9,395.9 -116.6,396.3 -117.6,396.9 -117.1,397.9 	"/>
	<polygon class="st2" points="-111.2,393.2 -106.5,390.5 -106.5,390.5 -91.5,364.6 -91.6,364.6 -93.6,363.3 -96.2,361.8 
		-96.2,361.8 -111.2,387.8 	"/>
	<polygon class="st13" points="-111.2,393.2 -111.2,387.8 -113.9,392.5 -112.9,394.2 	"/>
	<polygon class="st14" points="-112.9,394.2 -113.9,392.5 -114.9,394.2 -113.9,394.8 	"/>
	<polygon class="st15" points="-114.7,395.2 -113.9,394.8 -114.9,394.2 -115.5,395.2 	"/>
	<polygon class="st16" points="-109.2,395.2 -106.5,390.5 -111.2,393.2 -111.2,395.2 	"/>
	<polygon class="st17" points="-112.3,395.2 -111.2,395.2 -111.2,393.2 -112.9,394.2 	"/>
	<polygon class="st15" points="-112.3,395.2 -112.9,394.2 -113.9,394.8 -113.2,395.2 	"/>
	<polygon class="st18" points="-113.9,394.8 -114.7,395.2 -113.2,395.2 	"/>
	<polygon class="st2" points="-121.3,405.3 -136.3,431.3 -131.6,434 -131.6,434 -116.6,408.1 -116.6,402.6 	"/>
	<polygon class="st13" points="-114.9,401.6 -116.6,402.6 -116.6,408.1 -113.9,403.3 	"/>
	<polygon class="st14" points="-114.9,401.6 -113.9,403.3 -112.9,401.6 -113.9,401 	"/>
	<polygon class="st15" points="-112.4,400.6 -113.2,400.6 -113.9,401 -112.9,401.6 -112.3,400.6 	"/>
	<polygon class="st16" points="-118.6,400.6 -121.3,405.3 -116.6,402.6 -116.6,400.6 	"/>
	<polygon class="st17" points="-116.6,400.6 -116.6,402.6 -114.9,401.6 -115.5,400.6 	"/>
	<polygon class="st15" points="-114.6,400.6 -115.5,400.6 -114.9,401.6 -113.9,401 	"/>
	<polygon class="st18" points="-113.9,401 -113.2,400.6 -114.6,400.6 	"/>
	<polygon class="st19" points="-113.2,400.6 -112.4,400.6 -111.9,399.9 	"/>
	<polygon class="st19" points="-115.5,395.2 -115.9,395.9 -114.7,395.2 	"/>
	<polygon class="st20" points="-111.2,396.3 -110.2,396.9 -109.2,395.2 -111.2,395.2 	"/>
	<polygon class="st19" points="-111.9,395.9 -111.2,396.3 -111.2,395.2 -112.3,395.2 -113.2,395.2 	"/>
	<polygon class="st20" points="-116.6,399.5 -116.7,399.4 -116.7,399.5 -117.6,398.9 -118.6,400.6 -116.6,400.6 	"/>
	<polygon class="st19" points="-116.6,399.5 -116.6,400.6 -115.5,400.6 -114.6,400.6 -115.9,399.9 	"/>
	<polygon class="st21" points="-111.2,397.2 -110.8,397.9 -110.2,396.9 -111.2,396.3 	"/>
	<polygon class="st21" points="-116.7,399.4 -116.7,398.7 -117.1,397.9 -117.7,398.9 -117.7,398.9 -117.6,398.9 -116.7,399.5 	"/>
	<polygon class="st22" points="-111.2,398.6 -110.8,397.9 -111.2,397.2 -111.2,396.3 -111.9,395.9 -113.2,395.2 -114.7,395.2 
		-115.9,395.9 -116.6,397.2 -117.1,397.9 -116.6,398.6 -116.6,399.5 -115.9,399.9 -114.6,400.6 -113.2,400.6 -111.9,399.9 	"/>
	<path class="st1" d="M-45.2,388.9v-0.1c2.6-0.6,3.5-2.3,3.5-4.8c0-0.4-0.1-1.6-0.8-2.7c-0.8-1.2-1.7-2.1-4.5-2.1h-6.6v20.2h6.4
		c2.3,0,6.1-0.5,6.1-5.7C-41.1,391-42.3,389.2-45.2,388.9z M-51,381.5h3.6c2.2,0,3.1,1.3,3.1,3c0,1.9-1,3.2-3,3.2H-51V381.5z
		 M-47.4,397.2H-51V390h2.7c2.6,0,4.6,0.6,4.6,3.8C-43.7,395.2-44.7,397.2-47.4,397.2z"/>
	<path class="st1" d="M-30.3,390.4c2-0.3,3.1-1.9,3.1-3.9c0-2.2-1.1-4.3-4.1-4.3h-5.9v17.2h2.2v-7.9v-0.1h2.5c0.7,0,2.4,0.1,2.6,2.2
		c0.2,2.3,0.1,4.5,0.7,5.7h2.3c-0.3-1.1-0.6-3.8-0.6-4.5C-27.6,391.4-28.3,390.7-30.3,390.4z M-31.7,389.6H-35v-5.5h3.3
		c1.7,0,2.3,1.4,2.3,2.6C-29.4,388.2-30.1,389.6-31.7,389.6z"/>
	<path class="st1" d="M-20,382.2l-5.5,17.2h2.2l1.3-4.1h6.7l1.2,4.1h2.5l-5.6-17.2H-20z M-21.4,393.4l2.7-9.2l2.8,9.2H-21.4z"/>
	<path class="st1" d="M-7.1,386.3c0-1.8,1.3-2.5,2.6-2.5c2,0,2.6,1.2,2.6,3.1h2.3c0.1-3.5-1.7-5-4.8-5c-2.8,0-5,1.7-5,4.7
		c0,5.1,7.7,4.7,7.7,8.5c0,2.1-1.4,2.8-3.1,2.8c-1.4,0-2.9-0.8-2.9-3.1v-0.5h-2c-0.1,1.7-0.1,5.5,5,5.5c2.8,0,5.3-1.2,5.3-4.8
		C0.6,389.5-7.1,390.1-7.1,386.3z"/>
	<rect x="4.2" y="382.2" class="st1" width="2.2" height="17.2"/>
	<polygon class="st1" points="19,397.5 12.7,397.5 12.7,382.2 10.5,382.2 10.5,399.4 19,399.4 	"/>
	<path class="st1" d="M39.3,393.5h-2.6c0,3.9-2.4,4.2-3.2,4.2c-2,0-3.6-0.6-3.6-5.5v-5.4c0-3.5,0.5-4,0.6-4.2c0-0.3,0.9-1.6,3-1.6
		c0.6,0,1.8,0.3,2.3,0.9c0.5,0.6,0.6,1.8,0.6,2.9v0.1H39c0.2-3.9-1.3-6-5.3-6s-6.5,1.6-6.5,7.3v5.7c0,7.8,3.9,8,6.4,8
		C34.9,399.9,39.4,399.9,39.3,393.5z"/>
	<rect x="43" y="382.2" class="st1" width="2.2" height="17.2"/>
	<polygon class="st1" points="61.2,382.2 59.3,382.2 59.3,396.9 59.2,396.9 52.5,382.2 49.4,382.2 49.4,399.4 51.4,399.4 
		51.4,384.5 58.2,399.4 61.2,399.4 	"/>
	<polygon class="st1" points="74.2,397.5 67.4,397.5 67.4,391.5 73.6,391.5 73.6,389.6 67.4,389.6 67.4,384.1 74,384.1 74,382.2 
		65.2,382.2 65.2,399.4 74.2,399.4 	"/>
	<polygon class="st1" points="87.4,396.2 82.3,379.2 78.1,379.2 78.1,399.4 80.5,399.4 80.5,381.5 80.6,381.5 86.1,399.4 
		88.6,399.4 94.2,381.5 94.2,399.4 96.8,399.4 96.8,379.2 92.6,379.2 	"/>
	<path class="st1" d="M111.8,393.1v-10.9h-2.2v11c0,3.7-1.1,4.7-3.2,4.7c-2.1,0-3.2-0.9-3.2-4.7v-11H101v10.9c0,4.7,1.8,6.6,5.4,6.6
		C110,399.7,111.8,397.9,111.8,393.1z"/>
	<polygon class="st1" points="127.5,399.4 127.5,382.2 125.5,382.2 125.5,396.9 118.8,382.2 115.7,382.2 115.7,399.4 117.6,399.4 
		117.6,384.5 117.7,384.5 124.5,399.4 	"/>
	<path class="st1" d="M136.8,382.2h-5.3v17.1h4c3,0,4.8-0.7,5.7-2.2c0.7-1.1,1-3.2,1-6.9c0-0.5-0.1-3.9-0.8-5.4
		C140.6,383,139,382.2,136.8,382.2z M140,392.4c0,4-1.2,5.1-4.2,5.1h-2.1v-13.4h2.9c2.3,0,3.4,1.3,3.4,4.8V392.4z"/>
	<rect x="146.3" y="382.2" class="st1" width="2.2" height="17.2"/>
	<rect x="-35.2" y="407.4" class="st1" width="1.1" height="9"/>
	<path class="st1" d="M-29,410c-0.8,0-1.3,0.2-1.7,0.9h-0.1v-0.8h-1.1c0.1,0.4,0.1,0.9,0.1,1.3v5h1v-3.7c0-0.9,0.2-1.9,1.3-1.9
		c0.9,0,1.1,0.5,1.1,1.2v4.4v0.1h1.1v-4.4C-27.3,410.8-27.7,410-29,410z"/>
	<path class="st1" d="M-24.3,408.4l-1,0.5v1.2v0.1h-1v0.8h1v4.5c0,0.7,0.4,1.1,1.4,1.1c0.3,0,0.7-0.1,1-0.1v-0.8c-0.3,0-0.4,0-0.5,0
		c-0.9,0-0.9-0.5-0.9-0.9v-3.9h1.4v-0.8h-1.4V408.4z"/>
	<path class="st1" d="M-19.5,409.9c-2.2,0-2.4,1.6-2.4,3.4c0,2.8,1.1,3.2,2.4,3.2c1.3,0,2.2-0.6,2.2-2h-1.1c0,0.6-0.4,1.2-1.1,1.2
		c-0.8,0-1.3-0.3-1.3-2.1v-0.1h3.5V413C-17.3,410.9-17.7,409.9-19.5,409.9z M-20.8,412.8c0-1.8,0.6-2.1,1.2-2.1
		c0.8,0,1.3,0.3,1.3,2.1H-20.8z"/>
	<path class="st1" d="M-14.3,411v-0.9h-1v6.3h1v-3.7c0-0.8,0.3-1.7,1.4-1.7h0.3h0.3v-1.1C-13.3,409.9-13.9,410-14.3,411z"/>
	<path class="st1" d="M-8.2,410c-0.8,0-1.3,0.2-1.7,0.9H-10v-0.8h-1.1c0.1,0.4,0.1,0.9,0.1,1.3v5h1v-3.7c0-0.9,0.2-1.9,1.3-1.9
		c0.9,0,1.1,0.5,1.1,1.2v4.4v0.1h1.1v-4.4C-6.5,410.8-6.9,410-8.2,410z"/>
	<path class="st1" d="M-0.5,411.8c0-1.1-0.4-1.9-2-1.9c-1.3,0-2,0.5-2.1,1.9h1.1c0-0.6,0.3-1.1,1-1.1c1.1,0,1.1,0.9,1.1,1.7
		c-1.4,0-3.3,0.1-3.3,2c0,1.2,0.4,2.1,1.7,2.1c0.7,0,1.2-0.3,1.5-0.8v0.6h1.1c-0.1-0.5-0.1-1-0.1-1.5V411.8z M-2.7,415.7
		c-0.7,0-1-0.6-1-1.2c0-1.3,1.3-1.2,2.3-1.2C-1.3,415.3-2.1,415.7-2.7,415.7z"/>
	<path class="st1" d="M2.9,408.4l-1,0.5v1.2v0.1h-1v0.8h1v4.5c0,0.7,0.4,1.1,1.4,1.1c0.3,0,0.7-0.1,1-0.1v-0.8c-0.3,0-0.4,0-0.5,0
		c-0.9,0-0.9-0.5-0.9-0.9v-3.9h1.4v-0.8H2.9V408.4z"/>
	<rect x="5.3" y="407.4" class="st1" width="1.1" height="1.1"/>
	<rect x="5.4" y="410.1" class="st1" width="1" height="6.3"/>
	<path class="st1" d="M10.5,409.9c-2.2,0-2.4,1.6-2.4,3.4c0,2.8,1.1,3.2,2.4,3.2s2.4-0.4,2.4-3.2C12.9,411.4,12.7,409.9,10.5,409.9z
		 M10.5,415.7c-1,0-1.3-0.8-1.3-2.8c0-1.7,0.5-2.1,1.3-2.1s1.3,0.4,1.3,2.1C11.8,415,11.6,415.7,10.5,415.7z"/>
	<path class="st1" d="M17.5,410c-0.8,0-1.3,0.2-1.7,0.9h-0.1v-0.8h-1.1c0.1,0.4,0.1,0.9,0.1,1.3v5h1v-3.7c0-0.9,0.2-1.9,1.3-1.9
		c0.9,0,1.1,0.5,1.1,1.2v4.4v0.1h1.1v-4.4C19.2,410.8,18.8,410,17.5,410z"/>
	<path class="st1" d="M25.2,411.8c0-1.1-0.4-1.9-2-1.9c-1.3,0-2,0.5-2.1,1.9h1.1c0-0.6,0.3-1.1,1-1.1c1.1,0,1.1,0.9,1.1,1.7
		c-1.4,0-3.3,0.1-3.3,2c0,1.2,0.4,2.1,1.7,2.1c0.7,0,1.2-0.3,1.5-0.8v0.6h1.1c-0.1-0.5-0.1-1-0.1-1.5V411.8z M23,415.7
		c-0.7,0-1-0.6-1-1.2c0-1.3,1.3-1.2,2.3-1.2C24.4,415.3,23.6,415.7,23,415.7z"/>
	<rect x="27.5" y="407.4" class="st1" width="1" height="9"/>
	<path class="st1" d="M35.8,408.9c0.1-0.1,0.5-0.7,1.4-0.7c0.2,0,0.8,0.1,1,0.4c0.3,0.3,0.3,0.8,0.3,1.3h1.2
		c0.1-1.8-0.6-2.7-2.4-2.7s-2.9,0.8-2.9,3.3v2.5c0,3.5,1.7,3.6,2.8,3.6c0.5,0,2.5,0,2.5-2.8h-1.2c0,1.8-1.1,1.9-1.4,1.9
		c-0.9,0-1.6-0.3-1.6-2.5v-2.4C35.5,409.2,35.8,409,35.8,408.9z"/>
	<path class="st1" d="M43.8,409.9c-2.2,0-2.4,1.6-2.4,3.4c0,2.8,1,3.2,2.4,3.2c1.3,0,2.4-0.4,2.4-3.2
		C46.2,411.4,46,409.9,43.8,409.9z M43.8,415.7c-1,0-1.3-0.8-1.3-2.8c0-1.7,0.5-2.1,1.3-2.1c0.8,0,1.3,0.4,1.3,2.1
		C45.1,415,44.8,415.7,43.8,415.7z"/>
	<path class="st1" d="M50.5,409.9c-0.7,0-1.1,0.3-1.5,0.9V410h-1v8.7h1v-3c0.4,0.5,0.8,0.8,1.4,0.8c2.1,0,2.1-1.8,2.1-3.4
		C52.5,410.3,51.5,409.9,50.5,409.9z M50.3,415.7c-1.2,0-1.2-1.4-1.2-2.2c0-1-0.2-2.7,1.1-2.7s1.3,1.4,1.3,2.3
		C51.5,414.8,51.3,415.7,50.3,415.7z"/>
	<path class="st1" d="M55.4,411v-0.9h-1v6.3h1v-3.7c0-0.8,0.3-1.7,1.4-1.7h0.3h0.3v-1.1C56.4,409.9,55.8,410,55.4,411z"/>
	<path class="st1" d="M60.9,409.9c-2.2,0-2.4,1.6-2.4,3.4c0,2.8,1,3.2,2.4,3.2c1.3,0,2.4-0.4,2.4-3.2
		C63.3,411.4,63.1,409.9,60.9,409.9z M60.9,415.7c-1,0-1.3-0.8-1.3-2.8c0-1.7,0.5-2.1,1.3-2.1c0.8,0,1.3,0.4,1.3,2.1
		C62.2,415,61.9,415.7,60.9,415.7z"/>
	<path class="st1" d="M68.5,410.8c-0.4-0.5-0.8-0.8-1.4-0.8c-2.1,0-2.1,1.8-2.1,3.4c0,2.8,1,3.2,2,3.2c0.6,0,1-0.3,1.4-0.9v0.7h1v-9
		h-0.9V410.8z M67.3,415.7c-1.3,0-1.3-1.4-1.3-2.3c0-1.7,0.1-2.6,1.2-2.6c1.1,0,1.2,1.4,1.2,2.2C68.4,414.3,68.4,415.7,67.3,415.7z"
		/>
	<path class="st1" d="M75.8,410.1h-1v4.2c0,1.1-0.7,1.5-1.2,1.5c-0.8,0-1.1-0.5-1.1-1.3v-4.4h-1v4.8c0,1.1,0.6,1.6,1.7,1.6
		c0.7,0,1.3-0.3,1.6-0.9v0.8h1.1c-0.1-0.4-0.1-0.9-0.1-1.3V410.1z"/>
	<path class="st1" d="M80.2,415.7c-1,0-1.3-0.8-1.3-2.8c0-1.7,0.5-2.1,1.3-2.1c0.4,0,0.9,0.3,0.9,1.3V412h1c0.1-1.4-0.6-2.1-1.9-2.1
		c-2.2,0-2.4,1.6-2.4,3.4c0,2.8,1.1,3.2,2.4,3.2c0.7,0,2-0.4,2-2.2h-1.1C81.1,415.4,80.4,415.7,80.2,415.7z"/>
	<path class="st1" d="M85.4,408.4l-1,0.5v1.2v0.1h-1v0.8h1v4.5c0,0.7,0.4,1.1,1.4,1.1c0.3,0,0.7-0.1,1-0.1v-0.8c-0.3,0-0.4,0-0.5,0
		c-0.9,0-0.9-0.5-0.9-0.9v-3.9h1.4v-0.8h-1.4V408.4z"/>
	<rect x="87.8" y="407.4" class="st1" width="1.1" height="1.1"/>
	<rect x="87.9" y="410.1" class="st1" width="1" height="6.3"/>
	<path class="st1" d="M93,409.9c-2.2,0-2.4,1.6-2.4,3.4c0,2.8,1.1,3.2,2.4,3.2s2.4-0.4,2.4-3.2C95.4,411.4,95.2,409.9,93,409.9z
		 M93.1,415.7c-1,0-1.3-0.8-1.3-2.8c0-1.7,0.5-2.1,1.3-2.1c0.8,0,1.3,0.4,1.3,2.1C94.4,415,94.1,415.7,93.1,415.7z"/>
	<path class="st1" d="M99.9,410c-0.8,0-1.3,0.2-1.7,0.9v-0.8h-1.1c0.1,0.4,0.1,0.9,0.1,1.3v5h1v-3.7c0-0.9,0.2-1.9,1.3-1.9
		c0.9,0,1.1,0.5,1.1,1.2v4.4v0.1h1v-4.4C101.6,410.8,101.2,410,99.9,410z"/>
	<polygon class="st1" points="111.9,415 109.6,407.4 107.7,407.4 107.7,416.4 108.8,416.4 108.8,408.4 111.3,416.4 112.4,416.4 
		114.9,408.4 114.9,416.4 116.1,416.4 116.1,407.4 114.2,407.4 	"/>
	<path class="st1" d="M120.5,409.9c-2.2,0-2.4,1.6-2.4,3.4c0,2.8,1.1,3.2,2.4,3.2c1.3,0,2.2-0.6,2.2-2h-1.1c0,0.6-0.4,1.2-1.1,1.2
		c-0.8,0-1.3-0.3-1.3-2.1v-0.1h3.5V413C122.7,410.9,122.3,409.9,120.5,409.9z M119.1,412.8c0-1.8,0.6-2.1,1.2-2.1
		c0.8,0,1.3,0.3,1.3,2.1H119.1z"/>
	<path class="st1" d="M126.9,409.9c-2.2,0-2.4,1.6-2.4,3.4c0,2.8,1.1,3.2,2.4,3.2s2.2-0.6,2.2-2H128c0,0.6-0.4,1.2-1.1,1.2
		c-0.8,0-1.3-0.3-1.3-2.1v-0.1h3.5V413C129.1,410.9,128.7,409.9,126.9,409.9z M125.5,412.8c0-1.8,0.6-2.1,1.2-2.1
		c0.8,0,1.3,0.3,1.3,2.1H125.5z"/>
	<path class="st1" d="M132.1,408.4l-1,0.5v1.2v0.1h-1v0.8h1v4.5c0,0.7,0.4,1.1,1.4,1.1c0.3,0,0.7-0.1,1-0.1v-0.8c-0.3,0-0.4,0-0.5,0
		c-0.9,0-0.9-0.5-0.9-0.9v-3.9h1.4v-0.8h-1.4V408.4z"/>
	<rect x="134.5" y="407.4" class="st1" width="1.1" height="1.1"/>
	<rect x="134.6" y="410.1" class="st1" width="1" height="6.3"/>
	<path class="st1" d="M140.3,410c-0.8,0-1.3,0.2-1.7,0.9v-0.8h-1.1c0.1,0.4,0.1,0.9,0.1,1.3v5h1v-3.7c0-0.9,0.2-1.9,1.3-1.9
		c0.9,0,1.1,0.5,1.1,1.2v4.4v0.1h1v-4.4C142,410.8,141.6,410,140.3,410z"/>
	<path class="st1" d="M147.4,410.8c-0.3-0.6-0.8-0.9-1.5-0.9c-0.5,0-2,0.2-2,3.1c0,1.8,0.3,3.3,2,3.3c0.6,0,1.1-0.3,1.4-0.8v1.3
		c0,0.7-0.4,1.1-1.1,1.1c-0.6,0-1-0.3-1-0.9h-1.1c-0.1,1.2,0.9,1.7,1.9,1.7c1.4,0,2.3-0.3,2.3-1.7v-6.9h-0.9V410.8z M147.3,413.2
		c0,0.8,0,2.3-1.2,2.3c-0.7,0-1.2-0.5-1.2-2.5c0-0.8,0-2.2,1.2-2.2C147.4,410.8,147.3,412.3,147.3,413.2z"/>
</g>
</svg>
