<?xml version="1.0" encoding="utf-8"?>
<!-- Generator: Adobe Illustrator 19.0.0, SVG Export Plug-In . SVG Version: 6.00 Build 0)  -->
<svg version="1.1" id="Layer_1" xmlns="http://www.w3.org/2000/svg" xmlns:xlink="http://www.w3.org/1999/xlink" x="0px" y="0px"
	 viewBox="0 0 363 202.6" style="enable-background:new 0 0 363 202.6;" xml:space="preserve">
<style type="text/css">
	.st0{fill:none;}
	.st1{fill:#FFFFFF;}
</style>
<g id="XMLID_133_">
	<path id="XMLID_598_" class="st0" d="M93.2,44.2c0,1.7,0.3,2.4,1.3,2.4c1.1,0,1.3-0.7,1.3-2.4c0-1.6-0.3-2.4-1.3-2.4
		C93.4,41.8,93.2,42.6,93.2,44.2z"/>
	<path id="XMLID_597_" class="st0" d="M101.2,34.1c1.5,0,1.9-1,1.9-3.4c0-2.3-0.4-3.4-1.9-3.4s-1.9,1-1.9,3.4
		C99.3,33.1,99.7,34.1,101.2,34.1z"/>
	<polygon id="XMLID_596_" class="st0" points="76.1,42.7 76.1,42.7 75.5,45 76.7,45 	"/>
	<polygon id="XMLID_595_" class="st0" points="108.4,77.4 108.4,77.4 107.1,82.1 109.7,82.1 	"/>
	<path id="XMLID_594_" class="st0" d="M163.3,132.7c0-2.5-1.4-2.6-2.7-2.6h-2.3v5.1h2.1C161.6,135.3,163.3,135.3,163.3,132.7z"/>
	<path id="XMLID_593_" class="st0" d="M173.9,190.9c-1.9,0-2.6,1.7-2.6,3.6c0,1.9,0.7,3.6,2.6,3.6c1.9,0,2.6-1.6,2.6-3.6
		C176.5,192.6,175.8,190.9,173.9,190.9z"/>
	<path id="XMLID_592_" class="st0" d="M61.5,42.8c0-0.9-0.5-0.9-1-0.9h-0.8v1.8h0.7C60.9,43.7,61.5,43.8,61.5,42.8z"/>
	<polygon id="XMLID_591_" class="st0" points="66.4,42.7 66.4,42.7 65.8,45 66.9,45 	"/>
	<path id="XMLID_590_" class="st0" d="M153.5,190.9c-1.5,0-2.4,1-2.5,2.8h4.6C155.8,192.2,155.2,190.9,153.5,190.9z"/>
	<path id="XMLID_589_" class="st0" d="M100.6,41.9h-0.8v1.8h0.7c0.4,0,1,0,1-0.9C101.6,41.9,101.1,41.9,100.6,41.9z"/>
	<path id="XMLID_588_" class="st0" d="M86.7,162.3c0-1.4-0.6-2.4-2.2-2.4h-2.7v4.8h2.6C86,164.7,86.7,163.7,86.7,162.3z"/>
	<path id="XMLID_587_" class="st0" d="M42.9,44.2c0,1.7,0.3,2.4,1.3,2.4c1.1,0,1.3-0.7,1.3-2.4c0-1.6-0.3-2.4-1.3-2.4
		C43.1,41.8,42.9,42.6,42.9,44.2z"/>
	<path id="XMLID_586_" class="st0" d="M198.9,190c0-1.3-0.6-2.2-2.2-2.2h-2.5v4.6h2.5C197.8,192.3,198.9,191.7,198.9,190z"/>
	<path id="XMLID_585_" class="st0" d="M178.8,129.8c-3,0-3.8,2.1-3.8,6.8c0,4.8,0.8,6.8,3.8,6.8c3,0,3.8-2,3.8-6.8
		C182.6,131.9,181.8,129.8,178.8,129.8z"/>
	<polygon id="XMLID_584_" class="st0" points="107.3,60.4 107.3,60.4 105.9,65.1 108.6,65.1 	"/>
	<path id="XMLID_583_" class="st0" d="M102.3,78.7c0-1.2-0.6-1.9-1.7-1.9h-2v3.7h1.9C101.6,80.6,102.3,80,102.3,78.7z"/>
	<path id="XMLID_582_" class="st0" d="M101.2,61.7c0-1.2-0.6-1.9-1.7-1.9h-2v3.7h1.9C100.4,63.6,101.2,63,101.2,61.7z"/>
	<polygon id="XMLID_581_" class="st0" points="106.5,42.7 106.5,42.7 105.9,45 107,45 	"/>
	<path id="XMLID_580_" class="st0" d="M45.6,159.7c-2.7,0-3.2,2.7-3.2,5.2c0,2.6,0.6,5.2,3.2,5.2c2.7,0,3.2-2.6,3.2-5.2
		C48.8,162.3,48.2,159.7,45.6,159.7z"/>
	<path id="XMLID_579_" class="st0" d="M39.3,196.6c0.1,0.6,0.6,1,1.3,1c0.7,0,1.5-0.3,2-0.7l0-1.8l-2.3,0.5
		C39.7,195.7,39.3,196,39.3,196.6z"/>
	<path id="XMLID_578_" class="st0" d="M197,193.1h-2.8v4.8h2.3c1.5,0,2.7-0.5,2.7-2.4C199.2,194.2,198.5,193.1,197,193.1z"/>
	<polygon id="XMLID_577_" class="st0" points="35.8,160.2 34,166.2 37.6,166.2 35.8,160.2 	"/>
	<path id="XMLID_576_" class="st0" d="M108.8,170.2c2.7,0,3.2-2.6,3.2-5.2c0-2.6-0.6-5.2-3.2-5.2s-3.2,2.7-3.2,5.2
		C105.6,167.6,106.1,170.2,108.8,170.2z"/>
	<path id="XMLID_575_" class="st0" d="M63,191.4c-1.1,0-1.9,0.7-2.1,2.2h3.8C64.9,192.4,64.5,191.4,63,191.4z"/>
	<path id="XMLID_574_" class="st0" d="M96.4,191.4c-1.1,0-1.9,0.7-2.1,2.2h3.8C98.3,192.4,97.9,191.4,96.4,191.4z"/>
	<path id="XMLID_573_" class="st0" d="M64.4,159.8h-2.2V170h2.2c2.5,0,3.5-2.4,3.5-5.1S66.9,159.8,64.4,159.8z"/>
	<path id="XMLID_572_" class="st0" d="M114.9,191.4c-1.5,0-2.2,1.2-2.2,3.1c0,1.9,0.6,3.2,2.2,3.2c1.5,0,2.1-1.2,2.1-3.2
		C117.1,192.6,116.4,191.4,114.9,191.4z"/>
	<path id="XMLID_571_" class="st0" d="M50,191.4c-1.5,0-2.2,1.2-2.2,3.1c0,1.9,0.6,3.2,2.2,3.2c1.5,0,2.1-1.2,2.1-3.2
		C52.1,192.6,51.5,191.4,50,191.4z"/>
	<path id="XMLID_570_" class="st0" d="M139.5,162.5c0-1.3-0.9-2-2.3-2c-1.5,0-2.3,0.7-2.3,2c0,1.2,1.1,1.9,2.6,2.2
		C138.5,164.4,139.5,163.6,139.5,162.5z"/>
	<path id="XMLID_569_" class="st0" d="M147.3,160.5c-2.5,0-2.7,2.2-2.7,4.8c0,2.6,0.2,4.8,2.7,4.8c2.5,0,2.7-2.2,2.7-4.8
		C150,162.7,149.8,160.5,147.3,160.5z"/>
	<path id="XMLID_568_" class="st0" d="M10.9,132.1c0-1.7-1.4-2-2.3-2H6.1v4.2h2.6C10.5,134.3,10.9,133.3,10.9,132.1z"/>
	<path id="XMLID_567_" class="st0" d="M24.9,191.4c-1.1,0-1.9,0.7-2.1,2.2h3.8C26.8,192.4,26.4,191.4,24.9,191.4z"/>
	<path id="XMLID_566_" class="st0" d="M81.5,191.4c-1.5,0-2.2,1.2-2.2,3.1c0,1.9,0.6,3.2,2.2,3.2c1.5,0,2.1-1.2,2.1-3.2
		C83.6,192.6,83,191.4,81.5,191.4z"/>
	<path id="XMLID_565_" class="st0" d="M137,165.3c-1.3,0.4-2.4,1.2-2.4,2.5c0,1.3,0.9,2.3,2.6,2.3c1.5,0,2.7-0.8,2.7-2.2
		C139.9,166.5,138.6,165.7,137,165.3z"/>
	<path id="XMLID_564_" class="st0" d="M11.5,140.8c0-1.8-1.1-2.4-2.3-2.4H6.1v4.7h2.6C10.8,143.1,11.5,142.2,11.5,140.8z"/>
	<path id="XMLID_563_" class="st0" d="M121.5,162.3c0-1.4-0.6-2.4-2.2-2.4h-2.7v4.8h2.6C120.8,164.7,121.5,163.7,121.5,162.3z"/>
	<path id="XMLID_562_" class="st0" d="M4.6,188.3H2.7v9.1h1.8c2.2,0,3.2-1.9,3.2-4.6S6.8,188.3,4.6,188.3z"/>
	<polygon id="XMLID_561_" class="st0" points="26.2,132.2 24.5,138.9 27.8,138.9 26.2,132.2 	"/>
	<polygon id="XMLID_560_" class="st0" points="177.8,60.4 177.8,60.4 176.5,65.1 179.1,65.1 	"/>
	<path id="XMLID_559_" class="st0" d="M261.6,196.8c0.1,0.7,0.6,1.2,1.5,1.2c0.8,0,1.8-0.4,2.5-0.9l0-2.1l-2.8,0.6
		C262,195.9,261.5,196.1,261.6,196.8z"/>
	<polygon id="XMLID_558_" class="st0" points="187.2,42.7 187.2,42.7 186.6,45 187.7,45 	"/>
	<path id="XMLID_557_" class="st0" d="M166.7,42.8c0-0.9-0.5-0.9-1-0.9H165v1.8h0.7C166.1,43.7,166.7,43.8,166.7,42.8z"/>
	<path id="XMLID_556_" class="st0" d="M230.3,190.9c-1.9,0-2.6,1.7-2.6,3.6c0,1.9,0.7,3.6,2.6,3.6c1.9,0,2.6-1.6,2.6-3.6
		C232.9,192.6,232.2,190.9,230.3,190.9z"/>
	<path id="XMLID_555_" class="st0" d="M118.8,59.9h-1.6V68h1.6c2,0,2.9-1.7,2.9-4.1C121.7,61.6,120.8,59.9,118.8,59.9z"/>
	<path id="XMLID_554_" class="st0" d="M243.3,190.9c-1.5,0-2.4,1-2.5,2.8h4.6C245.6,192.2,245.1,190.9,243.3,190.9z"/>
	<polygon id="XMLID_553_" class="st0" points="157.3,28.6 157.3,28.6 156.4,31.9 158.1,31.9 	"/>
	<path id="XMLID_552_" class="st0" d="M68.5,143.4c3,0,3.8-2,3.8-6.8c0-4.7-0.8-6.8-3.8-6.8c-3,0-3.8,2.1-3.8,6.8
		C64.7,141.4,65.5,143.4,68.5,143.4z"/>
	<path id="XMLID_551_" class="st0" d="M358.1,196.8c0.1,0.7,0.6,1.2,1.5,1.2c0.8,0,1.8-0.4,2.5-0.9l0-2.1l-2.8,0.6
		C358.5,195.9,358,196.1,358.1,196.8z"/>
	<path id="XMLID_550_" class="st0" d="M296.3,190.9c-1.5,0-2.4,1-2.5,2.8h4.6C298.6,192.2,298,190.9,296.3,190.9z"/>
	<path id="XMLID_549_" class="st0" d="M322.7,196.8c0.1,0.7,0.6,1.2,1.5,1.2c0.8,0,1.8-0.4,2.5-0.9l0-2.1l-2.8,0.6
		C323.1,195.9,322.7,196.1,322.7,196.8z"/>
	<path id="XMLID_548_" class="st0" d="M339.8,190.9c-1.9,0-2.6,1.7-2.6,3.6c0,1.9,0.7,3.6,2.6,3.6c1.9,0,2.6-1.6,2.6-3.6
		C342.4,192.6,341.7,190.9,339.8,190.9z"/>
	<path id="XMLID_547_" class="st0" d="M111.2,28.8c0-1.2-0.7-1.3-1.3-1.3h-1.1v2.5h1C110.4,30.1,111.2,30.1,111.2,28.8z"/>
	<path id="XMLID_546_" class="st0" d="M76.1,59.7c-2.1,0-2.6,1.9-2.6,4.2c0,2.4,0.5,4.3,2.6,4.3c2.1,0,2.6-1.9,2.6-4.3
		C78.7,61.6,78.2,59.7,76.1,59.7z"/>
	<path id="XMLID_545_" class="st0" d="M88.3,41.9h-0.8v1.8h0.7c0.4,0,1,0,1-0.9C89.3,41.9,88.8,41.9,88.3,41.9z"/>
	<path id="XMLID_544_" class="st0" d="M206.3,160.5c-2.5,0-2.7,2.2-2.7,4.8c0,2.6,0.2,4.8,2.7,4.8c2.5,0,2.7-2.2,2.7-4.8
		C209,162.7,208.8,160.5,206.3,160.5z"/>
	<path id="XMLID_543_" class="st0" d="M68.3,76.9v8.2h1.6c2,0,2.9-1.7,2.9-4.1s-0.9-4.1-2.9-4.1H68.3z"/>
	<path id="XMLID_542_" class="st0" d="M205.7,190.9c-1.5,0-2.4,1-2.5,2.8h4.6C208.1,192.2,207.5,190.9,205.7,190.9z"/>
	<path id="XMLID_541_" class="st0" d="M114.8,76.9v8.2h1.6c2,0,2.9-1.7,2.9-4.1s-0.9-4.1-2.9-4.1H114.8z"/>
	<polygon id="XMLID_540_" class="st0" points="151.3,42.7 150.7,45 151.9,45 151.3,42.7 	"/>
	<path id="XMLID_539_" class="st0" d="M130.9,34.1c1.5,0,1.9-1,1.9-3.4c0-2.3-0.4-3.4-1.9-3.4c-1.5,0-1.9,1-1.9,3.4
		C129.1,33.1,129.5,34.1,130.9,34.1z"/>
	<path id="XMLID_538_" class="st0" d="M222,165.3c-1.3,0.4-2.4,1.2-2.4,2.5c0,1.3,0.9,2.3,2.6,2.3c1.5,0,2.7-0.8,2.7-2.2
		C224.9,166.5,223.6,165.7,222,165.3z"/>
	<path id="XMLID_537_" class="st0" d="M146.4,44.2c0-1.7-0.6-2.3-1.7-2.3H144v4.6h0.6C145.7,46.5,146.4,45.9,146.4,44.2z"/>
	<path id="XMLID_536_" class="st0" d="M224.6,162.5c0-1.3-0.9-2-2.3-2c-1.5,0-2.3,0.7-2.3,2c0,1.2,1.1,1.9,2.6,2.2
		C223.6,164.4,224.6,163.6,224.6,162.5z"/>
	<path id="XMLID_535_" class="st0" d="M132.4,41.9v1.8h0.7c0.4,0,1,0,1-0.9c0-0.9-0.5-0.9-1-0.9H132.4z"/>
	<path id="XMLID_532_" class="st1" d="M4.6,187H1.3v11.7h3.3c3.4,0,4.7-2.7,4.7-5.8C9.3,189.7,8,187,4.6,187z M4.6,197.4H2.7v-9.1
		h1.8c2.2,0,3.2,1.9,3.2,4.6S6.8,197.4,4.6,197.4z"/>
	<polygon id="XMLID_531_" class="st1" points="11.6,190.3 11.6,198.7 13,198.7 13,190.2 12.9,190.2 	"/>
	<rect id="XMLID_530_" x="11.6" y="186.3" class="st1" width="1.4" height="1.8"/>
	<path id="XMLID_529_" class="st1" d="M17,191.3v-1.2h-0.2l-1.3,0.2v8.3H17v-6.4c0.9-0.6,1.8-0.8,2.8-0.8v-1.3
		C18.7,190.2,18,190.6,17,191.3L17,191.3z"/>
	<path id="XMLID_526_" class="st1" d="M25,190.2c-2.5,0-3.8,1.6-3.8,4.4c0,2.6,1.1,4.2,3.7,4.2c1,0,2-0.2,2.8-0.5v-1.2
		c-0.8,0.3-1.8,0.5-2.6,0.5c-1.6,0-2.3-1.1-2.4-3h5.1C28.3,192.3,27.7,190.2,25,190.2z M26.5,193.6h-3.8c0.2-1.5,1-2.2,2.1-2.2
		C26.4,191.4,26.8,192.4,26.5,193.6z"/>
	<path id="XMLID_525_" class="st1" d="M29.7,194.5c0,2.7,1.2,4.1,3.3,4.3v0.6c0,1,1,0.8,1,1.4c0,0.7-0.7,0.8-1.5,1v0.7
		c1.7-0.1,2.6-0.8,2.6-1.7c0-1.1-1.3-0.9-1.3-1.6v-0.4c0.8,0,1.7-0.2,2.4-0.4v-1.2c-0.7,0.2-1.6,0.4-2.5,0.4c-1.5,0-2.6-1-2.6-3.2
		c0-2,0.8-3.1,2.6-3.1c0.8,0,1.8,0.2,2.5,0.4v-1.2c-0.8-0.3-1.9-0.4-2.6-0.4C31.1,190.2,29.7,191.7,29.7,194.5z"/>
	<path id="XMLID_524_" class="st1" d="M38.8,188.7l0.5,0.2c0.4-0.5,0.6-0.6,0.8-0.6c0.5,0,1.5,0.8,2.2,0.8c0.6,0,0.9-0.6,1.3-1.5
		l-0.5-0.3c-0.4,0.5-0.6,0.6-0.8,0.6c-0.6,0-1.4-0.8-2.2-0.8C39.5,187.2,39.2,187.8,38.8,188.7z"/>
	<path id="XMLID_521_" class="st1" d="M41.6,190.2c-0.8,0-2.3,0.2-3.3,0.4v1.2c0.9-0.2,2.1-0.4,3-0.4c1.1,0,1.5,0.5,1.5,1.3l0,1.5
		l-2.6,0.5c-1.7,0.3-2.3,0.9-2.3,2c0,1.3,0.8,2.2,2.2,2.2c0.8,0,1.7-0.3,2.5-1h0v0.8h1.4l0.1-6.1C44.2,191.2,43.4,190.2,41.6,190.2z
		 M42.7,197c-0.5,0.4-1.4,0.7-2,0.7c-0.7,0-1.2-0.4-1.3-1c-0.1-0.6,0.4-0.9,1.1-1l2.3-0.5L42.7,197z"/>
	<path id="XMLID_518_" class="st1" d="M50,190.2c-2.6,0-3.6,1.8-3.6,4.3c0,2.5,1.1,4.3,3.6,4.3c2.6,0,3.6-1.8,3.6-4.3
		C53.6,192,52.5,190.2,50,190.2z M50,197.7c-1.5,0-2.2-1.2-2.2-3.2c0-1.9,0.6-3.1,2.2-3.1c1.5,0,2.1,1.2,2.1,3.1
		C52.1,196.4,51.5,197.7,50,197.7z"/>
	<path id="XMLID_515_" class="st1" d="M63.1,190.2c-2.5,0-3.8,1.6-3.8,4.4c0,2.6,1.1,4.2,3.7,4.2c1,0,2-0.2,2.8-0.5v-1.2
		c-0.8,0.3-1.8,0.5-2.6,0.5c-1.6,0-2.3-1.1-2.4-3h5.1C66.4,192.3,65.8,190.2,63.1,190.2z M64.6,193.6h-3.8c0.2-1.5,1-2.2,2.1-2.2
		C64.5,191.4,64.9,192.4,64.6,193.6z"/>
	<path id="XMLID_514_" class="st1" d="M73.6,191.3v-1.2h-0.2l-1.3,0.2v8.3h1.4v-6.4c0.9-0.6,1.8-0.8,2.8-0.8v-1.3
		C75.4,190.2,74.6,190.6,73.6,191.3L73.6,191.3z"/>
	<path id="XMLID_511_" class="st1" d="M81.5,190.2c-2.6,0-3.6,1.8-3.6,4.3c0,2.5,1.1,4.3,3.6,4.3c2.6,0,3.6-1.8,3.6-4.3
		C85.1,192,84,190.2,81.5,190.2z M81.5,197.7c-1.5,0-2.2-1.2-2.2-3.2c0-1.9,0.6-3.1,2.2-3.1c1.5,0,2.1,1.2,2.1,3.1
		C83.6,196.4,83,197.7,81.5,197.7z"/>
	<path id="XMLID_510_" class="st1" d="M89.1,196.4v-5h2v-1.1h-2v-2.5H88l-0.4,2.5l-1.1,0.2v0.9h1.1v5.4c0,1.7,0.9,2,1.9,2
		c0.5,0,1.3-0.2,1.8-0.3v-1.2c-0.5,0.2-0.9,0.3-1.3,0.3C89.4,197.6,89.1,197.4,89.1,196.4z"/>
	<path id="XMLID_507_" class="st1" d="M96.5,190.2c-2.5,0-3.8,1.6-3.8,4.4c0,2.6,1.1,4.2,3.7,4.2c1,0,2-0.2,2.8-0.5v-1.2
		c-0.8,0.3-1.8,0.5-2.6,0.5c-1.6,0-2.3-1.1-2.4-3h5.1C99.9,192.3,99.3,190.2,96.5,190.2z M98.1,193.6h-3.8c0.2-1.5,1-2.2,2.1-2.2
		C97.9,191.4,98.3,192.4,98.1,193.6z"/>
	<rect id="XMLID_506_" x="101.6" y="186.3" class="st1" width="1.4" height="1.8"/>
	<polygon id="XMLID_505_" class="st1" points="101.6,190.3 101.6,198.7 103.1,198.7 103.1,190.2 102.9,190.2 	"/>
	<path id="XMLID_504_" class="st1" d="M107.1,191.3v-1.2h-0.2l-1.3,0.2v8.3h1.4v-6.4c0.9-0.6,1.8-0.8,2.8-0.8v-1.3
		C108.8,190.2,108,190.6,107.1,191.3L107.1,191.3z"/>
	<path id="XMLID_501_" class="st1" d="M114.9,190.2c-2.6,0-3.6,1.8-3.6,4.3c0,2.5,1.1,4.3,3.6,4.3c2.6,0,3.6-1.8,3.6-4.3
		C118.6,192,117.5,190.2,114.9,190.2z M114.9,197.7c-1.5,0-2.2-1.2-2.2-3.2c0-1.9,0.6-3.1,2.2-3.1c1.5,0,2.1,1.2,2.1,3.1
		C117.1,196.4,116.4,197.7,114.9,197.7z"/>
	<rect id="XMLID_500_" x="120.9" y="191.3" class="st1" width="1.7" height="1.8"/>
	<rect id="XMLID_499_" x="120.9" y="195.9" class="st1" width="1.7" height="1.8"/>
	<polygon id="XMLID_498_" class="st1" points="130.7,193.1 134.9,193.1 134.9,192.3 130.7,192.3 130.7,187.8 135.6,187.8 135.6,187 
		129.9,187 129.9,198.7 135.7,198.7 135.7,197.9 130.7,197.9 	"/>
	<polygon id="XMLID_497_" class="st1" points="145.7,197.8 145.7,197.8 143.5,190.3 142.6,190.3 140.5,197.8 140.5,197.8 
		138.4,190.3 137.5,190.3 140,198.8 140.9,198.8 143,191.4 143.1,191.4 145.2,198.8 146.1,198.8 148.5,190.3 147.7,190.3 	"/>
	<path id="XMLID_494_" class="st1" d="M153.5,190.2c-2.2,0-3.5,1.6-3.5,4.4c0,2.5,1,4.3,3.5,4.3c1,0,1.8-0.2,2.7-0.5v-0.7
		c-0.8,0.3-1.9,0.5-2.7,0.5c-1.9,0-2.7-1.6-2.7-3.6h5.3C156.7,192.3,156.2,190.2,153.5,190.2z M155.5,193.8h-4.6
		c0.2-1.8,1.1-2.8,2.5-2.8C155.2,190.9,155.8,192.2,155.5,193.8z"/>
	<path id="XMLID_493_" class="st1" d="M159.9,191.3v-1.2h-0.2l-0.7,0.2v8.3h0.8V192c1-0.7,1.8-0.9,2.9-0.9v-0.9
		C161.8,190.2,160.9,190.7,159.9,191.3L159.9,191.3z"/>
	<path id="XMLID_492_" class="st1" d="M166.3,196.8V191h2.1v-0.7h-2.1v-2.5h-0.5l-0.3,2.5l-1.2,0.2v0.5h1.2v5.8c0,1.8,0.9,2,1.7,2
		c0.4,0,1-0.1,1.5-0.3v-0.7c-0.4,0.2-1,0.3-1.4,0.3C167,198.1,166.3,198.2,166.3,196.8z"/>
	<path id="XMLID_489_" class="st1" d="M173.9,190.2c-2.4,0-3.4,1.8-3.4,4.3c0,2.5,1,4.3,3.4,4.3c2.4,0,3.4-1.8,3.4-4.3
		C177.4,192,176.3,190.2,173.9,190.2z M173.9,198.1c-1.9,0-2.6-1.6-2.6-3.6c0-1.9,0.7-3.6,2.6-3.6c1.9,0,2.6,1.7,2.6,3.6
		C176.5,196.4,175.8,198.1,173.9,198.1z"/>
	<path id="XMLID_488_" class="st1" d="M183.8,190.2c-1,0-1.9,0.5-2.9,1.2h0v-1.2h-0.2l-0.7,0.2v8.3h0.8V192c1-0.7,2-1.1,2.7-1.1
		c1.4,0,1.7,1,1.7,2.5v5.2h0.8v-5.5C186.2,191.3,185.6,190.2,183.8,190.2z"/>
	<path id="XMLID_484_" class="st1" d="M198.2,192.7c1.1-0.4,1.7-1.4,1.7-2.6c0-1.7-1-3-3.2-3h-3.3v11.7h3.2c2,0,3.7-0.8,3.7-3.2
		C200.2,194.1,199.3,193,198.2,192.7z M194.2,187.8h2.5c1.7,0,2.2,1,2.2,2.2c0,1.7-1.1,2.3-2.2,2.3h-2.5V187.8z M196.5,197.9h-2.3
		v-4.8h2.8c1.6,0,2.3,1.1,2.3,2.4C199.2,197.4,198,197.9,196.5,197.9z"/>
	<path id="XMLID_481_" class="st1" d="M205.8,190.2c-2.2,0-3.5,1.6-3.5,4.4c0,2.5,1,4.3,3.5,4.3c1,0,1.8-0.2,2.7-0.5v-0.7
		c-0.8,0.3-1.9,0.5-2.7,0.5c-1.9,0-2.7-1.6-2.7-3.6h5.3C209,192.3,208.4,190.2,205.8,190.2z M207.7,193.8h-4.6
		c0.2-1.8,1.1-2.8,2.5-2.8C207.5,190.9,208.1,192.2,207.7,193.8z"/>
	<polygon id="XMLID_480_" class="st1" points="211.3,186 211.3,198.7 212.1,198.7 212.1,185.8 212,185.8 	"/>
	<rect id="XMLID_479_" x="215.3" y="186.5" class="st1" width="0.8" height="1.3"/>
	<polygon id="XMLID_478_" class="st1" points="215.3,190.3 215.3,198.7 216.1,198.7 216.1,190.2 216,190.2 	"/>
	<path id="XMLID_477_" class="st1" d="M218.8,194.5c0,2.8,1.3,4.3,3.7,4.3c0.7,0,1.7-0.1,2.5-0.4v-0.8c-0.7,0.2-1.6,0.4-2.4,0.4
		c-1.8,0-2.9-1.3-2.9-3.6s1.1-3.6,2.9-3.6c0.8,0,1.7,0.2,2.4,0.4v-0.7c-0.8-0.3-1.7-0.4-2.5-0.4
		C220.1,190.2,218.8,191.7,218.8,194.5z"/>
	<path id="XMLID_474_" class="st1" d="M230.3,190.2c-2.4,0-3.4,1.8-3.4,4.3c0,2.5,1,4.3,3.4,4.3c2.4,0,3.4-1.8,3.4-4.3
		C233.8,192,232.7,190.2,230.3,190.2z M230.3,198.1c-1.9,0-2.6-1.6-2.6-3.6c0-1.9,0.7-3.6,2.6-3.6c1.9,0,2.6,1.7,2.6,3.6
		C232.9,196.4,232.2,198.1,230.3,198.1z"/>
	<path id="XMLID_471_" class="st1" d="M243.4,190.2c-2.2,0-3.5,1.6-3.5,4.4c0,2.5,1,4.3,3.5,4.3c1,0,1.8-0.2,2.7-0.5v-0.7
		c-0.8,0.3-1.9,0.5-2.7,0.5c-1.9,0-2.7-1.6-2.7-3.6h5.3C246.6,192.3,246,190.2,243.4,190.2z M245.3,193.8h-4.6
		c0.2-1.8,1.1-2.8,2.5-2.8C245.1,190.9,245.6,192.2,245.3,193.8z"/>
	<path id="XMLID_470_" class="st1" d="M255.6,192.2c-1.4-0.6-2.2-1.3-2.2-2.6c0-1.3,1.1-2,2.1-2c1,0,1.9,0.2,2.8,0.5v-0.7
		c-0.8-0.3-1.7-0.5-2.7-0.5c-1.5,0-3.1,0.9-3.1,2.8c0,1.6,1,2.7,2.7,3.4c1.3,0.5,2.4,1.4,2.4,2.9c0,1.5-1.1,2.2-2.4,2.2
		c-1,0-2-0.2-2.9-0.5v0.7c0.8,0.3,1.8,0.5,2.8,0.5c1.8,0,3.3-1,3.3-3C258.5,194.3,257.8,193.1,255.6,192.2z"/>
	<path id="XMLID_467_" class="st1" d="M264.2,190.2c-0.7,0-2,0.1-3.1,0.4v0.7c0.9-0.2,2-0.4,2.9-0.4c1.1,0,1.6,0.6,1.6,1.4l0,2.1
		l-2.7,0.5c-1.5,0.3-2.2,0.7-2.2,1.8c0,1.4,1,2.1,2.2,2.1c0.8,0,1.7-0.3,2.6-1h0v0.8h0.8l0.1-6.2
		C266.5,191.3,266.1,190.2,264.2,190.2z M265.6,197.2c-0.7,0.5-1.6,0.9-2.5,0.9c-0.9,0-1.4-0.5-1.5-1.2c-0.1-0.7,0.4-1,1.2-1.2
		l2.8-0.6L265.6,197.2z"/>
	<path id="XMLID_466_" class="st1" d="M278.4,190.2c-1,0-2,0.5-3,1.2c-0.3-0.8-0.9-1.2-2.1-1.2c-1,0-1.8,0.5-2.8,1.2h-0.1v-1.2h-0.2
		l-0.7,0.2v8.3h0.8V192c1-0.7,1.9-1.1,2.7-1.1c1.4,0,1.7,1,1.7,2.5v5.2h0.9v-5.5c0-0.4,0-0.8-0.1-1.2c1-0.7,1.9-1.1,2.7-1.1
		c1.4,0,1.7,1,1.7,2.5v5.2h0.8v-5.5C280.8,191.3,280.2,190.2,278.4,190.2z"/>
	<path id="XMLID_465_" class="st1" d="M289.3,197c-1,0.7-2,1.1-2.7,1.1c-1.4,0-1.7-1-1.7-2.5v-5.2H284v5.5c0,1.9,0.6,3,2.4,3
		c1,0,1.9-0.5,2.9-1.2h0v1h0.8v-8.3h-0.8V197z"/>
	<path id="XMLID_462_" class="st1" d="M296.3,190.2c-2.2,0-3.5,1.6-3.5,4.4c0,2.5,1,4.3,3.5,4.3c1,0,1.8-0.2,2.7-0.5v-0.7
		c-0.8,0.3-1.9,0.5-2.7,0.5c-1.9,0-2.7-1.6-2.7-3.6h5.3C299.5,192.3,299,190.2,296.3,190.2z M298.3,193.8h-4.6
		c0.2-1.8,1.1-2.8,2.5-2.8C298,190.9,298.6,192.2,298.3,193.8z"/>
	<polygon id="XMLID_461_" class="st1" points="301.8,186 301.8,198.7 302.7,198.7 302.7,185.8 302.5,185.8 	"/>
	<polygon id="XMLID_460_" class="st1" points="314.5,197.4 314.5,197.4 311.1,187 309.8,187 309.8,198.7 310.6,198.7 310.6,188.4 
		310.7,188.4 314.1,198.7 314.9,198.7 318.3,188.4 318.3,188.4 318.3,198.7 319.1,198.7 319.1,187 317.9,187 	"/>
	<path id="XMLID_457_" class="st1" d="M325.3,190.2c-0.7,0-2,0.1-3.1,0.4v0.7c0.9-0.2,2-0.4,2.9-0.4c1.1,0,1.6,0.6,1.6,1.4l0,2.1
		l-2.7,0.5c-1.5,0.3-2.2,0.7-2.2,1.8c0,1.4,1,2.1,2.2,2.1c0.8,0,1.7-0.3,2.6-1h0v0.8h0.8l0.1-6.2
		C327.6,191.3,327.2,190.2,325.3,190.2z M326.7,197.2c-0.7,0.5-1.6,0.9-2.5,0.9c-0.9,0-1.4-0.5-1.5-1.2c-0.1-0.7,0.4-1,1.2-1.2
		l2.8-0.6L326.7,197.2z"/>
	<path id="XMLID_456_" class="st1" d="M331.6,191.3v-1.2h-0.2l-0.7,0.2v8.3h0.8V192c1-0.7,1.8-0.9,2.9-0.9v-0.9
		C333.5,190.2,332.6,190.7,331.6,191.3L331.6,191.3z"/>
	<path id="XMLID_453_" class="st1" d="M339.8,190.2c-2.4,0-3.4,1.8-3.4,4.3c0,2.5,1,4.3,3.4,4.3c2.4,0,3.4-1.8,3.4-4.3
		C343.2,192,342.2,190.2,339.8,190.2z M339.8,198.1c-1.9,0-2.6-1.6-2.6-3.6c0-1.9,0.7-3.6,2.6-3.6c1.9,0,2.6,1.7,2.6,3.6
		C342.4,196.4,341.7,198.1,339.8,198.1z"/>
	<path id="XMLID_452_" class="st1" d="M347,196.8V191h2.1v-0.7H347v-2.5h-0.5l-0.3,2.5l-1.2,0.2v0.5h1.2v5.8c0,1.8,0.9,2,1.7,2
		c0.4,0,1-0.1,1.5-0.3v-0.7c-0.4,0.2-1,0.3-1.4,0.3C347.8,198.1,347,198.2,347,196.8z"/>
	<path id="XMLID_451_" class="st1" d="M352.9,196.8V191h2.1v-0.7h-2.1v-2.5h-0.5l-0.3,2.5l-1.2,0.2v0.5h1.2v5.8c0,1.8,0.9,2,1.7,2
		c0.4,0,1-0.1,1.5-0.3v-0.7c-0.4,0.2-1,0.3-1.4,0.3C353.7,198.1,352.9,198.2,352.9,196.8z"/>
	<path id="XMLID_448_" class="st1" d="M360.7,190.2c-0.7,0-2,0.1-3.1,0.4v0.7c0.9-0.2,2-0.4,2.9-0.4c1.1,0,1.6,0.6,1.6,1.4l0,2.1
		l-2.7,0.5c-1.5,0.3-2.2,0.7-2.2,1.8c0,1.4,1,2.1,2.2,2.1c0.8,0,1.7-0.3,2.6-1h0v0.8h0.8l0.1-6.2C363,191.3,362.6,190.2,360.7,190.2
		z M362.1,197.2c-0.7,0.5-1.6,0.9-2.5,0.9c-0.9,0-1.4-0.5-1.5-1.2c-0.1-0.7,0.4-1,1.2-1.2l2.8-0.6L362.1,197.2z"/>
	<polygon id="XMLID_447_" class="st1" points="7.3,159.8 7.3,159.1 1.6,159.1 1.6,170.7 2.4,170.7 2.4,165.3 6.6,165.3 6.6,164.6 
		2.4,164.6 2.4,159.8 	"/>
	<rect id="XMLID_446_" x="9.8" y="159.1" class="st1" width="0.8" height="11.7"/>
	<path id="XMLID_445_" class="st1" d="M13.6,164.9c0,3.2,1.3,6,4.5,6c1,0,1.9-0.2,2.7-0.5v-0.7c-0.9,0.3-1.9,0.5-2.8,0.5
		c-2.5,0-3.5-2.6-3.5-5.2s1-5.2,3.5-5.2c0.9,0,1.9,0.2,2.8,0.5v-0.7c-0.8-0.3-1.7-0.5-2.7-0.5C14.9,158.9,13.6,161.7,13.6,164.9z"/>
	<path id="XMLID_444_" class="st1" d="M27.5,171.4v-0.5c0.9,0,1.8-0.2,2.6-0.5v-0.7c-0.9,0.3-1.9,0.5-2.8,0.5
		c-2.5,0-3.5-2.6-3.5-5.2s1-5.2,3.5-5.2c0.9,0,1.9,0.2,2.8,0.5v-0.7c-0.8-0.3-1.7-0.5-2.7-0.5c-3.2,0-4.5,2.8-4.5,6c0,3,1.2,5.7,4,6
		v0.7c0,1.1,1.1,0.8,1.1,1.5c0,0.8-0.9,0.9-1.6,1v0.6c1.4-0.1,2.3-0.8,2.3-1.6C28.7,172,27.5,172.2,27.5,171.4z"/>
	<path id="XMLID_443_" class="st1" d="M34.7,156.9c0.5,0,1.5,0.9,2.1,0.9c0.6,0,0.8-0.5,1.2-1.2l-0.4-0.3c-0.3,0.5-0.5,0.7-0.8,0.7
		c-0.6,0-1.4-0.9-2.1-0.9c-0.6,0-0.8,0.5-1.2,1.3l0.4,0.2C34.3,157.1,34.5,156.9,34.7,156.9z"/>
	<path id="XMLID_440_" class="st1" d="M39.9,170.7L36.3,159h-0.9l-3.6,11.7h0.9l1.2-3.8h4l1.1,3.8H39.9z M34,166.2l1.8-6h0l1.8,6H34
		z"/>
	<path id="XMLID_437_" class="st1" d="M49.7,164.9c0-3.3-1.2-6-4.2-6c-3,0-4.2,2.7-4.2,6c0,3.3,1.2,6,4.2,6
		C48.6,170.9,49.7,168.2,49.7,164.9z M45.6,170.2c-2.7,0-3.2-2.6-3.2-5.2c0-2.6,0.6-5.2,3.2-5.2c2.7,0,3.2,2.7,3.2,5.2
		C48.8,167.6,48.2,170.2,45.6,170.2z"/>
	<path id="XMLID_436_" class="st1" d="M52.7,170.7h0.5c0,0.7,0,1.3-0.7,2.7H53c0.5-0.8,0.8-2,0.8-3v-1.2h-1.2V170.7z"/>
	<path id="XMLID_433_" class="st1" d="M64.3,159.1h-3v11.7h3c3.2,0,4.5-2.7,4.5-5.8C68.8,161.7,67.5,159.1,64.3,159.1z M64.4,170
		h-2.2v-10.2h2.2c2.5,0,3.5,2.4,3.5,5.1S66.9,170,64.4,170z"/>
	<path id="XMLID_432_" class="st1" d="M75.7,170.9c1,0,1.9-0.2,2.7-0.5v-0.7c-0.9,0.3-1.9,0.5-2.8,0.5c-2.5,0-3.5-2.6-3.5-5.2
		s1-5.2,3.5-5.2c0.9,0,1.9,0.2,2.8,0.5v-0.7c-0.8-0.3-1.7-0.5-2.7-0.5c-3.2,0-4.5,2.8-4.5,6C71.2,168.1,72.5,170.9,75.7,170.9z"/>
	<path id="XMLID_429_" class="st1" d="M81.9,165.4h2.6c2.1,0,3.2-1.2,3.2-3.2c0-1.9-1.1-3.2-3.1-3.2H81v11.7h0.8V165.4z M81.9,159.8
		h2.7c1.6,0,2.2,1,2.2,2.4c0,1.5-0.7,2.4-2.2,2.4h-2.6V159.8z"/>
	<path id="XMLID_428_" class="st1" d="M87.6,173.4c0.5-0.8,0.8-2,0.8-3v-1.2h-1.2v1.5h0.5c0,0.7,0,1.3-0.7,2.7H87.6z"/>
	<path id="XMLID_427_" class="st1" d="M102.6,169.7c-0.9,0.3-1.9,0.5-2.8,0.5c-2.5,0-3.5-2.6-3.5-5.2s1-5.2,3.5-5.2
		c0.9,0,1.9,0.2,2.8,0.5v-0.7c-0.8-0.3-1.7-0.5-2.7-0.5c-3.2,0-4.5,2.8-4.5,6c0,3.2,1.3,6,4.5,6c1,0,1.9-0.2,2.7-0.5V169.7z"/>
	<path id="XMLID_424_" class="st1" d="M108.8,170.9c3,0,4.2-2.7,4.2-6c0-3.3-1.2-6-4.2-6c-3,0-4.2,2.7-4.2,6
		C104.6,168.2,105.8,170.9,108.8,170.9z M108.8,159.7c2.7,0,3.2,2.7,3.2,5.2c0,2.6-0.6,5.2-3.2,5.2s-3.2-2.6-3.2-5.2
		C105.6,162.3,106.1,159.7,108.8,159.7z"/>
	<path id="XMLID_421_" class="st1" d="M122.4,162.3c0-1.9-1.1-3.2-3.1-3.2h-3.5v11.7h0.8v-5.3h2.1l2.9,5.3h1l-3-5.3
		C121.5,165.2,122.4,164,122.4,162.3z M116.7,164.7v-4.8h2.7c1.6,0,2.2,1,2.2,2.4c0,1.5-0.7,2.4-2.2,2.4H116.7z"/>
	<path id="XMLID_420_" class="st1" d="M125.3,170.7h0.5c0,0.7,0,1.3-0.7,2.7h0.5c0.5-0.8,0.8-2,0.8-3v-1.2h-1.2V170.7z"/>
	<path id="XMLID_416_" class="st1" d="M140.8,167.8c0-1.4-1.1-2.2-2.4-2.8v0c1.3-0.6,2-1.4,2-2.6c0-1.6-1.4-2.7-3.2-2.7
		c-1.8,0-3.3,0.9-3.3,2.8c0,1,0.6,1.9,2,2.4v0c-1.4,0.6-2.3,1.5-2.3,3c0,1.8,1.4,2.9,3.5,2.9C139.1,170.9,140.8,169.8,140.8,167.8z
		 M134.9,162.5c0-1.2,0.9-2,2.3-2c1.4,0,2.3,0.7,2.3,2c0,1.1-1,1.9-2,2.1C136,164.4,134.9,163.7,134.9,162.5z M137.2,170.2
		c-1.7,0-2.6-0.9-2.6-2.3c0-1.3,1.1-2.1,2.4-2.5c1.6,0.3,2.9,1.1,2.9,2.6C139.9,169.3,138.7,170.2,137.2,170.2z"/>
	<path id="XMLID_413_" class="st1" d="M147.3,159.8c-2.8,0-3.7,2.3-3.7,5.6c0,3.3,0.8,5.6,3.7,5.6c2.8,0,3.7-2.2,3.7-5.6
		C150.9,162.1,150.1,159.8,147.3,159.8z M147.3,170.2c-2.5,0-2.7-2.2-2.7-4.8c0-2.6,0.2-4.8,2.7-4.8c2.5,0,2.7,2.2,2.7,4.8
		C150,168,149.8,170.2,147.3,170.2z"/>
	<path id="XMLID_412_" class="st1" d="M154.4,173.4c0.5-0.8,0.8-2,0.8-3v-1.2h-1.2v1.5h0.5c0,0.7,0,1.3-0.7,2.7H154.4z"/>
	<polygon id="XMLID_411_" class="st1" points="167.8,170.7 171.2,160.5 171.2,160.5 171.2,170.7 172,170.7 172,159.1 170.8,159.1 
		167.4,169.5 167.4,169.5 164,159.1 162.7,159.1 162.7,170.7 163.5,170.7 163.5,160.5 163.6,160.5 167,170.7 	"/>
	<path id="XMLID_410_" class="st1" d="M182.4,165.6h-3.1v0.7h2.2v3.6c-0.7,0.2-1.2,0.2-2.1,0.2c-2.5,0-3.6-2.6-3.6-5.2
		s1-5.2,3.5-5.2c0.9,0,1.9,0.2,2.8,0.5v-0.7c-0.8-0.3-1.7-0.5-2.7-0.5c-3.2,0-4.5,2.8-4.5,6c0,3.2,1.3,6,4.5,6
		c1.2,0,2.1-0.2,2.9-0.5V165.6z"/>
	<path id="XMLID_409_" class="st1" d="M185.3,170.7h0.5c0,0.7,0,1.3-0.7,2.7h0.5c0.5-0.8,0.8-2,0.8-3v-1.2h-1.2V170.7z"/>
	<path id="XMLID_408_" class="st1" d="M193.3,169.9v0.8h6.8V170h-5.9c2.2-1.6,5.6-4.1,5.6-7.1c0-1.9-1.2-3.1-3.1-3.1
		c-1,0-1.9,0.2-2.7,0.5v0.7c0.9-0.3,1.7-0.5,2.7-0.5c1.4,0,2.3,0.9,2.3,2.4C198.9,165.7,195.2,168.4,193.3,169.9z"/>
	<path id="XMLID_405_" class="st1" d="M206.3,159.8c-2.8,0-3.7,2.3-3.7,5.6c0,3.3,0.8,5.6,3.7,5.6c2.8,0,3.7-2.2,3.7-5.6
		C209.9,162.1,209.1,159.8,206.3,159.8z M206.3,170.2c-2.5,0-2.7-2.2-2.7-4.8c0-2.6,0.2-4.8,2.7-4.8c2.5,0,2.7,2.2,2.7,4.8
		C209,168,208.8,170.2,206.3,170.2z"/>
	<polygon id="XMLID_404_" class="st1" points="215.5,170.7 215.5,159.8 214.7,159.8 212.1,161 212.4,161.7 214.7,160.6 214.7,170.7 
			"/>
	<path id="XMLID_400_" class="st1" d="M223.5,165L223.5,165c1.3-0.6,2-1.5,2-2.6c0-1.6-1.4-2.7-3.2-2.7c-1.8,0-3.3,0.9-3.3,2.8
		c0,1,0.6,1.9,2,2.4v0c-1.4,0.6-2.3,1.5-2.3,3c0,1.8,1.4,2.9,3.5,2.9c2,0,3.7-1.1,3.7-3.1C225.9,166.4,224.8,165.5,223.5,165z
		 M219.9,162.5c0-1.2,0.9-2,2.3-2c1.4,0,2.3,0.7,2.3,2c0,1.1-1,1.9-2,2.1C221.1,164.4,219.9,163.7,219.9,162.5z M222.3,170.2
		c-1.7,0-2.6-0.9-2.6-2.3c0-1.3,1.1-2.1,2.4-2.5c1.6,0.3,2.9,1.1,2.9,2.6C224.9,169.3,223.8,170.2,222.3,170.2z"/>
	<path id="XMLID_396_" class="st1" d="M16.5,141.4c0-2.6-1.5-4.5-3.6-5.2c2-0.7,3-2.6,3-4.8c0-3.2-1.8-5.4-5.7-5.4H1.3v21.1h8.6
		C13.5,147.2,16.5,145.7,16.5,141.4z M6.1,130.1h2.6c0.9,0,2.3,0.2,2.3,2c0,1.2-0.5,2.3-2.3,2.3H6.1V130.1z M6.1,143.1v-4.7h3.1
		c1.3,0,2.3,0.6,2.3,2.4c0,1.4-0.8,2.3-2.9,2.3H6.1z"/>
	<path id="XMLID_393_" class="st1" d="M29.2,125.9H23l-5.9,21.3h5.3l1.1-4.2h5.2l1,4.2H35L29.2,125.9z M24.5,138.9l1.7-6.6h0.1
		l1.5,6.6H24.5z"/>
	<rect id="XMLID_392_" x="36.2" y="126" class="st1" width="4.8" height="21.1"/>
	<polygon id="XMLID_391_" class="st1" points="58.8,126 53.1,126 51,132.4 50.9,132.4 48.7,126 43.1,126 47.6,136.3 42.8,147.2 
		48.3,147.2 50.9,140.5 50.9,140.5 53.4,147.2 59.1,147.2 54.2,136.3 	"/>
	<path id="XMLID_388_" class="st1" d="M68.5,147.5c6.3,0,8.8-4.8,8.8-10.9c0-5.9-2.4-10.9-8.8-10.9c-6.3,0-8.8,5-8.8,10.9
		C59.7,142.6,62.2,147.5,68.5,147.5z M68.5,129.8c3,0,3.8,2.1,3.8,6.8c0,4.8-0.8,6.8-3.8,6.8c-3,0-3.8-2-3.8-6.8
		C64.7,131.9,65.5,129.8,68.5,129.8z"/>
	<path id="XMLID_387_" class="st1" d="M96.2,129.8c1.7,0,3.5,0.3,5.1,0.9v-4.1c-1.5-0.6-3.8-0.9-5.6-0.9c-6.9,0-9.4,5.1-9.4,10.9
		c0,5.7,2.4,10.9,9.4,10.9c1.8,0,4-0.3,5.6-0.9v-4.1c-1.7,0.6-3.4,0.9-5.1,0.9c-3,0-4.8-2-4.8-6.8C91.4,131.8,93.2,129.8,96.2,129.8
		z"/>
	<polygon id="XMLID_386_" class="st1" points="117.1,143.1 108.5,143.1 108.5,138.4 115.6,138.4 115.6,134.3 108.5,134.3 
		108.5,130.1 116.8,130.1 116.8,126 103.7,126 103.7,147.2 117.1,147.2 	"/>
	<polygon id="XMLID_385_" class="st1" points="135.8,147.2 135.8,126 131,126 131,137.7 130.9,137.7 124.8,126 119.5,126 
		119.5,147.2 124.3,147.2 124.3,135.6 124.4,135.6 130.5,147.2 	"/>
	<polygon id="XMLID_384_" class="st1" points="147.1,147.2 147.1,130.1 151.7,130.1 151.7,126 137.5,126 137.5,130.1 142.2,130.1 
		142.2,147.2 	"/>
	<path id="XMLID_381_" class="st1" d="M163.6,147.2h5.8l-4.7-8.3c2.7-1,3.6-3.5,3.6-6.2c0-3.4-1.7-6.6-6.5-6.6h-8.3v21.1h4.8v-7.8
		h1.4L163.6,147.2z M158.3,130.1h2.3c1.4,0,2.7,0.1,2.7,2.6c0,2.7-1.7,2.6-2.9,2.6h-2.1V130.1z"/>
	<path id="XMLID_378_" class="st1" d="M178.8,125.7c-6.3,0-8.8,5-8.8,10.9c0,6,2.4,10.9,8.8,10.9c6.3,0,8.8-4.8,8.8-10.9
		C187.5,130.7,185.1,125.7,178.8,125.7z M178.8,143.4c-3,0-3.8-2-3.8-6.8c0-4.7,0.8-6.8,3.8-6.8c3,0,3.8,2.1,3.8,6.8
		C182.6,141.4,181.8,143.4,178.8,143.4z"/>
	<path id="XMLID_377_" class="st1" d="M7.2,62.3C3.1,60.1,0.1,62,0,62c0,0,2.1,4.2,6,6.2c4.6,2.4,7.5,1.3,8.2,1
		c0.6,2.3,1.5,4.5,2.7,6.6c-1.1-1-3.6-3.3-6.7-4.3c-5.5-1.8-8.1,1.7-8.1,1.8c0,0,2.2,3,6.9,4.4c5.4,1.5,7.8-0.6,8.3-1.2
		c1.6,3,3.6,5.8,5.9,8.4c-1.2-1-3.8-3-6.4-3.7c-6-1.6-8,2.1-8,2.1s2.2,2.9,7.1,4.2c5.1,1.3,7.6-1.4,7.9-1.9c1.8,2,3.6,3.9,5.5,5.7
		c-0.9-0.4-4.1-1.8-7.1-1.8c-6.2,0.1-6.6,3.6-6.6,3.6s2.2,1.7,7.2,1.7c5.2-0.1,6.5-2.8,6.7-3.3c0.1,0.1,0.2,0.2,0.4,0.4
		c2,1.9,4.2,3.5,6.6,5c-1.4-0.4-4.6-1.2-7.3-0.9c-5.6,0.7-6.2,4.5-6.2,4.5s2.3,1.5,7.1,0.9c5-0.6,6.7-3.5,7-4.2
		c3.9,2.3,8,4.1,11.8,5.6l0.7-1.9c-4.1-1.6-8.3-3.5-12.1-6c0.7-0.6,2.2-2.2,2.5-5.8c0.3-3.8-1.2-7.2-1.2-7.2s-3.5,0.1-3.4,6.4
		c0,2.8,0.8,4.9,1.2,6c-1.8-1.2-3.6-2.5-5.2-4c-0.2-0.2-0.4-0.4-0.7-0.6c0.5-0.2,2.7-1.5,3.3-6.2c0.5-3.8-1.1-7.1-1.1-7.1
		s-3.6,0.6-3.7,5.9c-0.1,3.9,0.8,6.3,1.2,7.1c-2.1-2-4.1-4.2-5.9-6.4c1.5-1.2,3.4-2.6,4.4-4.5c1.4-3,1.1-4.7,1.3-7.5
		c-1.8,0.6-3.8,1.2-5.2,5.3c-0.8,2.4-0.1,3.5-0.7,6.5c-1.5-1.8-2.8-3.8-4-5.8c1.7-0.8,3.7-1.3,5.2-3.9c1.7-2.8,1.3-2.9,2.8-7.5
		c-1.9,0.2-3.9,0.4-6,4.1c-1.2,2.1-1.1,4.1-2.2,7c-1.3-2.2-2.4-4.5-3.3-6.9c1.9-0.5,4.3-0.4,6.7-3.1c2.5-2.8,3.3-5.6,3.9-7.6
		c-1.9,0.2-4.8,0.1-7.1,3.4c-2,2.8-1.9,3.8-3.7,6.9c-0.2-0.7-0.5-1.3-0.7-2c-0.4-1.5-0.8-3.1-1-4.7c1.3,0,4.3-0.1,7-2.7
		c2.6-2.6,3.9-5.6,4.6-7.6c-1.9,0-4.7-0.6-7.6,2.9c-2.1,2.5-2.9,4.4-4.1,6.6c-0.4-2.8-0.5-5.6-0.4-8.5c1.1,0,4.6,0.2,7.7-2.3
		c2.9-2.3,4.3-5.2,5.2-7.1c-1.9-0.2-4.7-1.2-7.9,1.9c-2.5,2.4-3.4,4.7-5,7c0.1-1.1,0.1-2.1,0.3-3.2c0.3-2.1,0.8-4.2,1.4-6.3
		c1.1,0.2,3.8,0.7,7.2-0.6c3.7-1.4,5.8-5.4,6.3-6.4c-1.8-0.6-4-1.3-8,0.9c-2.4,1.3-4,3.3-5,4.6c0.7-2.4,1.6-4.7,2.4-6.9
		c1.1,0.3,3.7,1,7.3-0.1c3.8-1.2,6.1-5,6.7-5.9c-1.8-0.7-3.9-1.6-8.1,0.3c-2.5,1.1-4.3,3-5.4,4.3c1.2-3,2.7-5.6,4.3-8.1
		c0.7,0.4,2.3,1.3,6.2,0.9c4.9-0.5,6.9-3.8,6.9-3.8c-1.6-1-3.2-1.7-6.6-1c-2.8,0.5-4.8,2-5.8,3c1.4-2.2,3-4.3,4.5-6.3
		c0.8,0.4,2.9,1.3,6.8,0.9c4.9-0.5,7.4-4,7.4-4c-1.6-1-4.2-1.6-7.5-1c-2.5,0.5-4.3,1.7-5.5,2.7c1-1.3,2-2.6,3-3.8
		c0.5-0.6,1.1-1.2,1.7-1.8c1.1,0,5.3,0,7.6-1.4c2.9-1.8,5.8-5.8,6-7c0,0-4.6-2.2-8.9,1.8c-2.6,2.5-4.1,4.8-4.7,6
		c-0.6,0.5-1.1,1.1-1.6,1.7c-0.6,0.7-1.2,1.4-1.8,2.1c0.8-1.3,1.8-3.3,2.2-5.6C34.3,4.9,33.7,1,33,0c0,0-3.6,2.4-3.9,8.5
		c-0.2,4.2,0.6,6.4,0.9,7.3c-1.8,2.2-3.6,4.6-5.3,6.9c0.7-1.5,1.8-3.9,2.2-6.4c0.6-3.8-0.8-8-1.2-8.4c0,0-3.8,1.8-3.6,8.6
		c0.1,3.9,1.4,6.8,1.7,7.5c-0.1,0.2-0.3,0.4-0.4,0.6c-1.3,1.9-2.8,4.4-4.1,6.9c0.4-1.5,1.1-4.1,0.9-6.8c-0.3-5.8-3.9-8.2-4-8.2
		c0,0-3.5,3.4-1.5,10.7c1,3.7,3.2,5.1,3.9,5.5c-0.5,0.9-0.9,1.8-1.2,2.6c-0.8,2-1.5,3.7-2.1,5.4c0.2-1.6,0.3-3.8,0.1-5.9
		c-0.7-6.2-5.2-7.5-5.3-7.5c0,0-1.5,5.7,0.6,10.7c1.7,3.8,3.2,4.9,3.8,5.2c-0.4,1.4-0.8,2.8-1.1,4.5c-0.3,1.2-0.4,2.4-0.6,3.6
		c-0.1-1.8-0.3-4.9-1.1-7.4c-1.8-5.5-6.6-6.5-6.7-6.5c0,0-0.8,5.8,2,10.4c2.5,4,4.8,4.9,5.5,5.1c-0.3,3.1-0.2,6.2,0.1,9.2
		c-1-1.9-1.4-5.4-3.2-8.3c-3-4.8-8.1-4.4-8.1-4.4c0,0,0.5,5.9,4.3,9.5c3.1,3,6,3.7,7.1,3.9c0.2,1.7,0.5,3.4,0.9,5
		c0.1,0.3,0.2,0.6,0.3,1C13.3,67.5,10.7,64.1,7.2,62.3z"/>
	<path id="XMLID_376_" class="st1" d="M195.1,91.7c0.2,0.5,1.4,3.2,6.7,3.3c5,0.1,7.2-1.7,7.2-1.7s-0.4-3.6-6.6-3.6
		c-3,0-6.2,1.4-7.1,1.8c1.9-1.8,3.7-3.7,5.5-5.7c0.4,0.5,2.8,3.2,7.9,1.9c4.8-1.3,7.1-4.2,7.1-4.2s-2-3.8-8-2.1
		c-2.6,0.7-5.2,2.7-6.4,3.7c2.2-2.6,4.2-5.4,5.9-8.4c0.6,0.6,2.9,2.7,8.3,1.2c4.7-1.3,6.9-4.4,6.9-4.4c-0.1-0.1-2.7-3.7-8.1-1.8
		c-3.2,1-5.7,3.3-6.7,4.3c1.1-2.1,2-4.3,2.7-6.6c0.7,0.3,3.5,1.4,8.2-1c3.9-2,6-6.2,6-6.2c-0.1-0.1-3.1-1.9-7.2,0.2
		c-3.5,1.8-6,5.3-6.8,6.5c0.1-0.3,0.2-0.6,0.3-1c0.4-1.7,0.7-3.3,0.9-5c1.1-0.2,4-1,7.1-3.9c3.8-3.6,4.3-9.5,4.3-9.5
		c-0.1,0-5.1-0.4-8.1,4.4c-1.9,2.9-2.2,6.4-3.2,8.3c0.3-3.1,0.4-6.1,0.1-9.2c0.7-0.2,3-1.1,5.5-5.1c2.8-4.6,2-10.4,2-10.4
		c-0.1,0-4.9,1-6.6,6.5c-0.8,2.5-1,5.5-1.1,7.4c-0.2-1.2-0.3-2.4-0.6-3.6c-0.4-1.7-0.7-3.1-1.1-4.5c0.6-0.3,2.1-1.3,3.8-5.2
		c2.2-4.9,0.7-10.7,0.7-10.7c-0.1,0-4.6,1.3-5.3,7.5c-0.3,2.1-0.1,4.3,0.1,5.9c-0.6-1.7-1.3-3.4-2.1-5.4c-0.3-0.8-0.8-1.7-1.2-2.6
		c0.7-0.3,2.9-1.7,3.9-5.5c2-7.3-1.5-10.7-1.5-10.7c-0.1,0-3.7,2.4-4,8.2c-0.1,2.7,0.5,5.3,0.9,6.8c-1.3-2.4-2.8-5-4.1-6.9
		c-0.1-0.2-0.3-0.4-0.4-0.6c0.4-0.7,1.6-3.6,1.7-7.5c0.1-6.9-3.6-8.6-3.6-8.6c-0.3,0.4-1.8,4.6-1.2,8.4c0.4,2.5,1.4,4.9,2.2,6.4
		c-1.7-2.4-3.4-4.7-5.3-6.9c0.3-0.8,1.1-3,0.9-7.3C195,2.4,191.4,0,191.4,0c-0.6,1-1.2,4.9-0.6,8.5c0.4,2.3,1.3,4.3,2.2,5.6
		c-0.6-0.7-1.2-1.4-1.8-2.1c-0.5-0.6-1.1-1.1-1.6-1.7c-0.6-1.2-2.1-3.5-4.7-6c-4.3-4-8.9-1.8-8.9-1.8c0.2,1.2,3.1,5.1,6,7
		c2.3,1.4,6.5,1.5,7.6,1.4c0.6,0.6,1.2,1.2,1.7,1.8c1.1,1.2,2,2.5,3,3.8c-1.2-1-3-2.2-5.5-2.7c-3.3-0.6-5.9-0.1-7.5,1
		c0,0,2.5,3.5,7.4,4c3.9,0.4,6-0.5,6.8-0.9c1.6,2.1,3.1,4.2,4.5,6.3c-1.1-1-3-2.4-5.8-3c-3.3-0.6-4.9,0-6.6,1.1c0,0,2,3.3,6.9,3.8
		c3.8,0.4,5.5-0.5,6.2-0.9c1.7,2.6,3.1,5.1,4.3,8.1c-1-1.3-2.8-3.1-5.4-4.3c-4.1-1.9-6.3-1-8.1-0.3c0.6,0.9,2.9,4.8,6.7,5.9
		c3.6,1.1,6.3,0.4,7.3,0.1c0.9,2.2,1.7,4.5,2.4,6.9c-0.9-1.3-2.6-3.3-5-4.6c-4-2.2-6.2-1.5-8-0.9c0.5,1,2.6,5,6.3,6.4
		c3.4,1.3,6.1,0.9,7.2,0.6c0.6,2.1,1.1,4.2,1.4,6.3c0.1,1,0.2,2.1,0.3,3.1c-1.5-2.2-2.5-4.6-5-7c-3.3-3.1-6.1-2.1-7.9-1.9
		c0.9,1.9,2.3,4.9,5.2,7.1c3.1,2.4,6.6,2.3,7.7,2.3c0.2,2.8,0,5.7-0.4,8.5c-1.2-2.2-2-4.1-4.1-6.6c-2.9-3.5-5.7-2.9-7.6-2.9
		c0.7,2,2,5,4.6,7.6c2.7,2.6,5.7,2.7,7,2.7c-0.3,1.6-0.6,3.2-1,4.7c-0.2,0.7-0.5,1.4-0.7,2c-1.8-3.1-1.7-4-3.7-6.9
		c-2.3-3.3-5.2-3.2-7.1-3.4c0.6,2,1.5,4.8,3.9,7.6c2.4,2.7,4.9,2.6,6.7,3.1c-0.9,2.4-2,4.7-3.3,6.9c-1.1-2.9-1-4.8-2.2-7
		c-2.1-3.7-4.1-3.9-6-4.1c1.5,4.7,1.2,4.7,2.8,7.5c1.5,2.6,3.5,3.1,5.2,3.9c-1.2,2-2.6,4-4,5.8c-0.6-3,0.1-4.1-0.7-6.5
		c-1.4-4.1-3.3-4.7-5.2-5.3c0.2,2.8-0.1,4.5,1.3,7.5c1,2,2.8,3.3,4.4,4.5c-1.8,2.3-3.8,4.4-5.9,6.4c0.4-0.8,1.3-3.2,1.2-7.1
		c-0.2-5.3-3.7-5.9-3.7-5.9s-1.6,3.3-1.1,7.1c0.6,4.7,2.8,5.9,3.3,6.2c-0.2,0.2-0.4,0.4-0.7,0.6c-1.6,1.5-3.4,2.8-5.2,4
		c0.5-1.1,1.2-3.2,1.2-6c0.1-6.3-3.4-6.4-3.4-6.4s-1.6,3.3-1.2,7.2c0.3,3.6,1.7,5.2,2.5,5.8c-3.9,2.5-8.1,4.4-12.1,6l0.7,1.9
		c3.8-1.5,8-3.3,11.8-5.6c0.3,0.7,2,3.6,7,4.2c4.9,0.6,7.1-0.9,7.1-0.9s-0.5-3.8-6.2-4.5c-2.7-0.3-5.9,0.4-7.3,0.9
		c2.3-1.4,4.6-3.1,6.6-5C194.8,91.9,194.9,91.8,195.1,91.7z"/>
	<path id="XMLID_375_" class="st1" d="M160.5,41.8c0.6,0,1.2,0.1,1.8,0.3v-1.4c-0.5-0.2-1.3-0.3-2-0.3c-2.4,0-3.3,1.8-3.3,3.8
		c0,2,0.9,3.8,3.3,3.8c0.6,0,1.4-0.1,2-0.3v-1.4c-0.6,0.2-1.2,0.3-1.8,0.3c-1.1,0-1.7-0.7-1.7-2.4S159.5,41.8,160.5,41.8z"/>
	<polygon id="XMLID_374_" class="st1" points="64.9,31.4 64.9,31.4 66.5,36 68.6,36 70.1,31.4 70.1,31.4 70.1,36 72.5,36 72.5,25.5 
		69.6,25.5 67.6,31.9 67.6,31.9 65.4,25.5 62.5,25.5 62.5,36 64.9,36 	"/>
	<polygon id="XMLID_373_" class="st1" points="80.2,34 76,34 76,31.6 79.5,31.6 79.5,29.6 76,29.6 76,27.5 80.1,27.5 80.1,25.5 
		73.6,25.5 73.6,36 80.2,36 	"/>
	<polygon id="XMLID_372_" class="st1" points="87.7,34 83.4,34 83.4,25.5 81,25.5 81,36 87.7,36 	"/>
	<polygon id="XMLID_371_" class="st1" points="90.4,31.6 93.6,31.6 93.6,36 96,36 96,25.5 93.6,25.5 93.6,29.6 90.4,29.6 90.4,25.5 
		88,25.5 88,36 90.4,36 	"/>
	<path id="XMLID_368_" class="st1" d="M101.2,36.1c3.1,0,4.3-2.4,4.3-5.4c0-2.9-1.2-5.4-4.3-5.4c-3.1,0-4.3,2.4-4.3,5.4
		C96.9,33.7,98,36.1,101.2,36.1z M101.2,27.4c1.5,0,1.9,1,1.9,3.4c0,2.4-0.4,3.4-1.9,3.4s-1.9-1-1.9-3.4
		C99.3,28.4,99.7,27.4,101.2,27.4z"/>
	<path id="XMLID_365_" class="st1" d="M108.7,32.1h0.7l1.9,3.9h2.9l-2.3-4.1c1.3-0.5,1.8-1.7,1.8-3c0-1.7-0.8-3.3-3.2-3.3h-4.1V36
		h2.4V32.1z M108.7,27.5h1.1c0.7,0,1.3,0,1.3,1.3c0,1.3-0.8,1.3-1.4,1.3h-1V27.5z"/>
	<polygon id="XMLID_364_" class="st1" points="124.5,34 120.2,34 120.2,25.5 117.8,25.5 117.8,36 124.5,36 	"/>
	<path id="XMLID_361_" class="st1" d="M130.9,36.1c3.1,0,4.3-2.4,4.3-5.4c0-2.9-1.2-5.4-4.3-5.4c-3.1,0-4.3,2.4-4.3,5.4
		C126.6,33.7,127.8,36.1,130.9,36.1z M130.9,27.4c1.5,0,1.9,1,1.9,3.4c0,2.4-0.4,3.4-1.9,3.4c-1.5,0-1.9-1-1.9-3.4
		C129.1,28.4,129.5,27.4,130.9,27.4z"/>
	<polygon id="XMLID_360_" class="st1" points="138.5,30.2 138.5,30.2 141.5,36 144.2,36 144.2,25.5 141.8,25.5 141.8,31.3 
		141.7,31.3 138.7,25.5 136.1,25.5 136.1,36 138.5,36 	"/>
	<path id="XMLID_359_" class="st1" d="M149.6,36.1c0.9,0,2.1-0.2,2.9-0.4v-5.4h-3.4v2h1v1.8h-0.3c-1.5,0-2.4-1-2.4-3.4
		s0.9-3.4,2.4-3.4c0.9,0,1.7,0.1,2.5,0.4v-2c-0.8-0.3-1.9-0.4-2.8-0.4c-3.4,0-4.6,2.5-4.6,5.4S146.2,36.1,149.6,36.1z"/>
	<path id="XMLID_356_" class="st1" d="M155.9,33.9h2.6L159,36h2.6l-2.8-10.5h-3.1L152.8,36h2.6L155.9,33.9z M157.3,28.6L157.3,28.6
		l0.8,3.3h-1.6L157.3,28.6z"/>
	<polygon id="XMLID_355_" class="st1" points="40.5,47.9 40.5,40.5 38.5,40.5 37,45.1 37,45.1 35.5,40.5 33.4,40.5 33.4,47.9 
		35.1,47.9 35.1,44.7 35.1,44.7 36.2,47.9 37.7,47.9 38.8,44.7 38.8,44.7 38.8,47.9 	"/>
	<path id="XMLID_352_" class="st1" d="M41.1,44.2c0,2.1,0.9,3.8,3.1,3.8c2.2,0,3.1-1.7,3.1-3.8c0-2.1-0.9-3.8-3.1-3.8
		C42,40.4,41.1,42.1,41.1,44.2z M45.5,44.2c0,1.7-0.3,2.4-1.3,2.4c-1.1,0-1.3-0.7-1.3-2.4c0-1.6,0.3-2.4,1.3-2.4
		C45.3,41.8,45.5,42.6,45.5,44.2z"/>
	<path id="XMLID_351_" class="st1" d="M47.8,42.3c0,1.2,0.6,1.8,1.7,2.4c0.8,0.4,1.2,0.6,1.2,1.2c0,0.5-0.4,0.7-1,0.7
		c-0.6,0-1.4-0.1-2.1-0.3v1.4c0.5,0.2,1.5,0.3,2.1,0.3c1.5,0,2.7-0.6,2.7-2.2c0-1-0.5-1.6-1.8-2.3c-0.8-0.4-1.2-0.6-1.2-1.1
		c0-0.4,0.4-0.6,0.9-0.6c0.5,0,1.3,0.1,1.9,0.3v-1.4c-0.5-0.2-1.4-0.3-1.9-0.3C49.2,40.4,47.8,40.8,47.8,42.3z"/>
	<polygon id="XMLID_350_" class="st1" points="54.3,47.9 56,47.9 56,41.9 57.7,41.9 57.7,40.5 52.7,40.5 52.7,41.9 54.3,41.9 	"/>
	<path id="XMLID_346_" class="st1" d="M59.8,45.2h0.5l1.3,2.8h1.6h0.4h1.4l0.4-1.5h1.8l0.4,1.5h1.9l-2-7.5h-2.2l-1.9,7L62,45
		c0.9-0.4,1.3-1.2,1.3-2.2c0-1.2-0.6-2.3-2.3-2.3h-2.9v7.4h1.7V45.2z M66.4,42.7L66.4,42.7l0.6,2.3h-1.1L66.4,42.7z M59.8,41.9h0.8
		c0.5,0,1,0,1,0.9c0,0.9-0.6,0.9-1,0.9h-0.7V41.9z"/>
	<path id="XMLID_343_" class="st1" d="M75.2,46.4H77l0.4,1.5h1.9l-2-7.5H75l-2.1,7.5h1.9L75.2,46.4z M76.1,42.7L76.1,42.7l0.6,2.3
		h-1.1L76.1,42.7z"/>
	<path id="XMLID_342_" class="st1" d="M79.4,40.5v4.9c0,1.6,1,2.7,2.9,2.7c1.9,0,2.9-1,2.9-2.7v-4.9h-1.7v4.9c0,0.7-0.4,1.2-1.2,1.2
		c-0.8,0-1.2-0.6-1.2-1.2v-4.9H79.4z"/>
	<path id="XMLID_339_" class="st1" d="M91,42.8c0-1.2-0.6-2.3-2.3-2.3h-2.9v7.4h1.7v-2.8H88l1.3,2.8h2L89.8,45
		C90.7,44.6,91,43.8,91,42.8z M88.3,43.7h-0.7v-1.8h0.8c0.5,0,1,0,1,0.9C89.3,43.8,88.7,43.7,88.3,43.7z"/>
	<path id="XMLID_336_" class="st1" d="M91.4,44.2c0,2.1,0.9,3.8,3.1,3.8c2.2,0,3.1-1.7,3.1-3.8c0-2.1-0.9-3.8-3.1-3.8
		C92.3,40.4,91.4,42.1,91.4,44.2z M95.8,44.2c0,1.7-0.3,2.4-1.3,2.4c-1.1,0-1.3-0.7-1.3-2.4c0-1.6,0.3-2.4,1.3-2.4
		C95.6,41.8,95.8,42.6,95.8,44.2z"/>
	<path id="XMLID_332_" class="st1" d="M103.4,42.8c0-1.2-0.6-2.3-2.3-2.3h-2.9v7.4h1.7v-2.8h0.5l1.3,2.8h1.6h0.4h1.4l0.4-1.5h1.8
		l0.4,1.5h1.9l-2-7.5h-2.2l-1.9,7l-1.4-2.4C103,44.6,103.4,43.8,103.4,42.8z M100.6,43.7h-0.7v-1.8h0.8c0.5,0,1,0,1,0.9
		C101.6,43.8,101,43.7,100.6,43.7z M106.5,42.7L106.5,42.7L107,45h-1.1L106.5,42.7z"/>
	<polygon id="XMLID_331_" class="st1" points="114.6,47.9 117.6,40.5 116.2,40.5 113.2,47.9 	"/>
	<path id="XMLID_330_" class="st1" d="M123.6,45.9v-5.4h-1.7v5.4c0,0.6-0.4,0.7-0.6,0.7c-0.3,0-0.6-0.1-0.9-0.2v1.4
		c0.3,0.2,0.9,0.3,1.3,0.3C122.7,48,123.6,47.8,123.6,45.9z"/>
	<path id="XMLID_329_" class="st1" d="M124.3,40.5v4.9c0,1.6,1,2.7,2.9,2.7c1.9,0,2.9-1,2.9-2.7v-4.9h-1.7v4.9
		c0,0.7-0.4,1.2-1.2,1.2c-0.8,0-1.2-0.6-1.2-1.2v-4.9H124.3z"/>
	<polygon id="XMLID_328_" class="st1" points="126.8,39.9 127.7,39.9 128.9,38.2 127.3,38.2 	"/>
	<path id="XMLID_195_" class="st1" d="M130.7,40.5v7.4h1.7v-2.8h0.5l1.3,2.8h2l-1.6-2.9c0.9-0.4,1.3-1.2,1.3-2.2
		c0-1.2-0.6-2.3-2.3-2.3H130.7z M134.1,42.8c0,0.9-0.6,0.9-1,0.9h-0.7v-1.8h0.8C133.7,41.9,134.1,41.9,134.1,42.8z"/>
	<rect id="XMLID_194_" x="136.4" y="40.5" class="st1" width="1.7" height="7.4"/>
	<path id="XMLID_191_" class="st1" d="M142.3,47.9h2.5c2.4,0,3.3-1.7,3.3-3.7c0-2-0.9-3.7-3.3-3.7h-2.5V47.9z M144,41.9h0.6
		c1.1,0,1.7,0.6,1.7,2.3s-0.6,2.3-1.7,2.3H144V41.9z"/>
	<path id="XMLID_188_" class="st1" d="M152.4,40.4h-2.2l-2.1,7.5h1.9l0.4-1.5h1.8l0.4,1.5h1.9L152.4,40.4z M150.7,45l0.6-2.3h0
		l0.5,2.3H150.7z"/>
	<path id="XMLID_185_" class="st1" d="M165,45.2h0.5l1.3,2.8h2l-1.6-2.9c0.9-0.4,1.3-1.2,1.3-2.2c0-1.2-0.6-2.3-2.3-2.3h-2.9v7.4
		h1.7V45.2z M165,41.9h0.8c0.5,0,1,0,1,0.9c0,0.9-0.6,0.9-1,0.9H165V41.9z"/>
	<polygon id="XMLID_184_" class="st1" points="171.6,38.2 169.9,38.2 169.5,39.9 170.4,39.9 	"/>
	<rect id="XMLID_183_" x="169" y="40.5" class="st1" width="1.7" height="7.4"/>
	<polygon id="XMLID_182_" class="st1" points="171.1,41.9 172.7,41.9 172.7,47.9 174.4,47.9 174.4,41.9 176.1,41.9 176.1,40.5 
		171.1,40.5 	"/>
	<rect id="XMLID_181_" x="176.4" y="40.5" class="st1" width="1.7" height="7.4"/>
	<path id="XMLID_180_" class="st1" d="M178.7,44.2c0,2,0.9,3.8,3.3,3.8c0.6,0,1.4-0.1,2-0.3v-1.4c-0.6,0.2-1.2,0.3-1.8,0.3
		c-1.1,0-1.7-0.7-1.7-2.4s0.6-2.4,1.7-2.4c0.6,0,1.2,0.1,1.8,0.3v-1.4c-0.5-0.2-1.3-0.3-2-0.3C179.6,40.4,178.7,42.2,178.7,44.2z"/>
	<path id="XMLID_177_" class="st1" d="M185.8,47.9l0.4-1.5h1.8l0.4,1.5h1.9l-2-7.5H186l-2.1,7.5H185.8z M187.2,42.7L187.2,42.7
		l0.6,2.3h-1.1L187.2,42.7z"/>
	<polygon id="XMLID_176_" class="st1" points="66,67.1 66,67.1 63.3,58.7 61.5,58.7 61.5,69.2 62.8,69.2 62.8,61.6 62.9,61.6 
		65.4,69.2 66.6,69.2 69.1,61.6 69.1,61.6 69.1,69.2 70.4,69.2 70.4,58.7 68.7,58.7 	"/>
	<path id="XMLID_173_" class="st1" d="M76.1,58.6c-2.8,0-3.9,2.4-3.9,5.4c0,3,1.1,5.4,3.9,5.4c2.8,0,3.9-2.4,3.9-5.4
		C80.1,61,79,58.6,76.1,58.6z M76.1,68.2c-2.1,0-2.6-1.9-2.6-4.3c0-2.3,0.5-4.2,2.6-4.2c2.1,0,2.6,1.9,2.6,4.2
		C78.7,66.3,78.2,68.2,76.1,68.2z"/>
	<path id="XMLID_172_" class="st1" d="M81.6,61.2c0,1.5,0.9,2.4,2.4,3.1c1,0.5,2,1.1,2,2.2c0,1-0.7,1.7-1.8,1.7
		c-0.9,0-1.8-0.1-2.7-0.4v1.1c0.8,0.3,1.8,0.4,2.7,0.4c1.8,0,3.2-0.9,3.2-2.8c0-1.4-0.7-2.4-2.6-3.2c-1.2-0.6-1.8-1.1-1.8-2
		c0-0.9,0.7-1.5,1.6-1.5c0.9,0,1.7,0.1,2.6,0.4V59c-0.8-0.3-1.7-0.4-2.6-0.4C83.2,58.6,81.6,59.3,81.6,61.2z"/>
	<polygon id="XMLID_171_" class="st1" points="88.4,59.9 90.9,59.9 90.9,69.2 92.2,69.2 92.2,59.9 94.8,59.9 94.8,58.7 88.4,58.7 	
		"/>
	<path id="XMLID_168_" class="st1" d="M96.2,69.2h1.3v-4.5h1.5l2.3,4.5h1.6l-2.6-4.6c1.5-0.3,2.2-1.4,2.2-2.9c0-1.7-0.9-3-2.9-3
		h-3.5V69.2z M97.5,59.9h2c1.2,0,1.7,0.6,1.7,1.9c0,1.3-0.7,1.8-1.8,1.8h-1.9V59.9z"/>
	<path id="XMLID_165_" class="st1" d="M105.6,66.2h3.3l0.8,3h1.4l-3.1-10.5h-1.6l-3.1,10.5h1.4L105.6,66.2z M107.3,60.4L107.3,60.4
		l1.3,4.7h-2.7L107.3,60.4z"/>
	<path id="XMLID_162_" class="st1" d="M123.1,63.9c0-2.8-1.2-5.2-4.2-5.2h-3v10.4h3C121.9,69.2,123.1,66.8,123.1,63.9z M118.8,68
		h-1.6v-8.2h1.6c2,0,2.9,1.7,2.9,4.1C121.7,66.3,120.8,68,118.8,68z"/>
	<polygon id="XMLID_161_" class="st1" points="130.5,68 126.1,68 126.1,64.4 129.8,64.4 129.8,63.3 126.1,63.3 126.1,59.9 
		130.4,59.9 130.4,58.7 124.8,58.7 124.8,69.2 130.5,69.2 	"/>
	<path id="XMLID_160_" class="st1" d="M142.1,68.9v-1.1c-0.8,0.3-1.7,0.4-2.5,0.4c-2,0-2.9-1.9-2.9-4.3c0-2.4,0.9-4.2,2.9-4.2
		c0.9,0,1.7,0.1,2.5,0.4V59c-0.8-0.3-1.7-0.4-2.6-0.4c-3,0-4.2,2.5-4.2,5.4c0,2.8,1.2,5.4,4.2,5.4C140.5,69.3,141.4,69.2,142.1,68.9
		z"/>
	<rect id="XMLID_159_" x="143.7" y="58.7" class="st1" width="1.3" height="10.4"/>
	<polygon id="XMLID_158_" class="st1" points="154.1,69.2 154.1,58.7 152.8,58.7 152.8,66.7 152.8,66.7 148.7,58.7 147.1,58.7 
		147.1,69.2 148.4,69.2 148.4,61.2 148.5,61.2 152.6,69.2 	"/>
	<polygon id="XMLID_157_" class="st1" points="161.8,59.9 161.8,58.7 156.2,58.7 156.2,69.2 161.9,69.2 161.9,68 157.5,68 
		157.5,64.4 161.2,64.4 161.2,63.3 157.5,63.3 157.5,59.9 	"/>
	<polygon id="XMLID_156_" class="st1" points="172.6,69.2 172.6,58.7 170.9,58.7 168.2,67.1 168.2,67.1 165.4,58.7 163.7,58.7 
		163.7,69.2 165,69.2 165,61.6 165,61.6 167.6,69.2 168.8,69.2 171.3,61.6 171.3,61.6 171.3,69.2 	"/>
	<path id="XMLID_153_" class="st1" d="M175.3,69.2l0.9-3h3.3l0.8,3h1.4l-3.1-10.5H177l-3.1,10.5H175.3z M177.8,60.4L177.8,60.4
		l1.3,4.7h-2.7L177.8,60.4z"/>
	<path id="XMLID_150_" class="st1" d="M67,75.7v10.4h3c3,0,4.2-2.4,4.2-5.2s-1.2-5.2-4.2-5.2H67z M72.8,80.9c0,2.4-0.9,4.1-2.9,4.1
		h-1.6v-8.2h1.6C71.9,76.9,72.8,78.6,72.8,80.9z"/>
	<polygon id="XMLID_149_" class="st1" points="81.6,85.1 77.2,85.1 77.2,81.4 80.9,81.4 80.9,80.3 77.2,80.3 77.2,76.9 81.5,76.9 
		81.5,75.7 75.9,75.7 75.9,86.2 81.6,86.2 	"/>
	<polygon id="XMLID_148_" class="st1" points="89.9,86.2 89.9,76.9 92.5,76.9 92.5,75.7 86.1,75.7 86.1,76.9 88.6,76.9 88.6,86.2 	
		"/>
	<rect id="XMLID_147_" x="93.8" y="75.7" class="st1" width="1.3" height="10.4"/>
	<path id="XMLID_144_" class="st1" d="M104,86.2l-2.6-4.6c1.5-0.3,2.2-1.4,2.2-2.9c0-1.7-0.9-3-2.9-3h-3.5v10.4h1.3v-4.5h1.5
		l2.3,4.5H104z M98.6,80.6v-3.7h2c1.2,0,1.7,0.6,1.7,1.9c0,1.3-0.7,1.8-1.8,1.8H98.6z"/>
	<path id="XMLID_141_" class="st1" d="M106.8,83.2h3.3l0.8,3h1.4l-3.1-10.5h-1.6l-3.1,10.5h1.4L106.8,83.2z M108.4,77.4L108.4,77.4
		l1.3,4.7h-2.7L108.4,77.4z"/>
	<path id="XMLID_138_" class="st1" d="M113.5,75.7v10.4h3c3,0,4.2-2.4,4.2-5.2s-1.2-5.2-4.2-5.2H113.5z M119.4,80.9
		c0,2.4-0.9,4.1-2.9,4.1h-1.6v-8.2h1.6C118.5,76.9,119.4,78.6,119.4,80.9z"/>
	<polygon id="XMLID_137_" class="st1" points="128.2,85.1 123.8,85.1 123.8,81.4 127.5,81.4 127.5,80.3 123.8,80.3 123.8,76.9 
		128.1,76.9 128.1,75.7 122.5,75.7 122.5,86.2 128.2,86.2 	"/>
	<polygon id="XMLID_136_" class="st1" points="131.3,78.2 131.3,78.2 135.4,86.2 136.9,86.2 136.9,75.7 135.6,75.7 135.6,83.7 
		135.6,83.7 131.5,75.7 130,75.7 130,86.2 131.3,86.2 	"/>
	<polygon id="XMLID_135_" class="st1" points="138.3,76.9 140.9,76.9 140.9,86.2 142.2,86.2 142.2,76.9 144.7,76.9 144.7,75.7 
		138.3,75.7 	"/>
	<polygon id="XMLID_134_" class="st1" points="151.8,85.1 147.4,85.1 147.4,81.4 151,81.4 151,80.3 147.4,80.3 147.4,76.9 
		151.6,76.9 151.6,75.7 146.1,75.7 146.1,86.2 151.8,86.2 	"/>
</g>
</svg>
