<?xml version="1.0" encoding="utf-8"?>
<!-- Generator: Adobe Illustrator 19.0.0, SVG Export Plug-In . SVG Version: 6.00 Build 0)  -->
<svg version="1.1" id="Layer_1" xmlns="http://www.w3.org/2000/svg" xmlns:xlink="http://www.w3.org/1999/xlink" x="0px" y="0px"
	 viewBox="0 0 277.6 69.2" style="enable-background:new 0 0 277.6 69.2;" xml:space="preserve">
<style type="text/css">
	.st0{fill:none;}
	.st1{fill:#FFFFFF;}
</style>
<g id="XMLID_2_">
	<path id="XMLID_73_" class="st0" d="M187.7,26.7c0-2.5,0.1-5,0-7.5c0-0.5-0.5-1.1-1-1.5c-0.2-0.1-1.1,0.4-1.3,0.8
		c-2,4-4,8.1-5.8,12.2c-0.5,1.2,0,2.1,1.3,2.4c1.5,0.4,3.1,0.6,4.6,1c1.6,0.4,2.3-0.2,2.3-1.8C187.7,30.5,187.7,28.6,187.7,26.7
		L187.7,26.7z"/>
	<path id="XMLID_71_" class="st0" d="M235.4,19c-4.5-2.4-8.9-4.9-13.5-7.2c-1.5-0.7-3.3-1-5-1.1c-0.8,0-1.8,0.7-2.3,1.4
		c-0.6,0.9-0.8,2-0.9,3.1c-0.3,8.6-0.7,17.3-0.9,25.9c-0.1,6.6-0.3,13.2-1.5,19.8c-0.2,0.8,0.2,1.7,0.3,2.6c0.8-0.4,1.8-0.5,2.3-1.1
		c8.4-9.3,17-18.4,22.6-29.8c1.1-2.3,1.8-4.8,2.7-7.2C239,22.4,237.9,20.3,235.4,19z"/>
	<path id="XMLID_70_" class="st0" d="M103.2,26.7l0-7.5c0-0.5-0.6-1-1-1.5c-0.5,0.4-1.2,0.6-1.4,1.1c-1.9,3.9-3.8,7.8-5.6,11.8
		c-0.6,1.2-0.2,2.3,1.3,2.6c1.5,0.4,3.1,0.6,4.6,1c1.6,0.4,2.3-0.2,2.3-1.8C103.3,30.5,103.3,28.6,103.2,26.7L103.2,26.7z"/>
	<path id="XMLID_59_" class="st1" d="M271.7,10.9c-0.6,0.5-0.5,2.2-0.3,3.2c0.7,3,2.2,5.8,2.5,8.8c1,12.1-3,23-9.2,33.1
		c-1.4,2.3-3.1,4.5-4.8,6.6c-1.2,1.4-2.1,1.1-2.8-0.7c-0.2-0.5-0.2-1.1-0.3-1.7c-0.5-6.4-0.2-12.8,1.4-19.1
		c2.1-8.5,3.9-17.1,9.3-24.4c0.5-0.6,0.1-1.9,0.1-2.9c-0.7,0.5-1.7,0.8-2.2,1.4c-4.3,6.1-7.1,12.7-8.8,20c-1.6,7-3,14.1-3.2,21.7
		c0.1,1.5,0.1,3.4,0.3,5.2c0.1,0.8,0.3,1.7,0.7,2.5c0.3,0.6,0.7,1.4,1.2,1.7c2.1,1.1,6.6,0.2,7.9-1.8c3-4.9,6.1-9.9,8.7-15.1
		c2.9-6.1,4.3-12.8,5.2-19.5c0.8-6.2-0.1-12.1-2.9-17.8C273.9,11.1,272.9,9.9,271.7,10.9z"/>
	<path id="XMLID_56_" class="st1" d="M239.6,16.6c-8.1-5.4-16.9-9.2-26.4-11.3c-2.1-0.5-3.3,0.8-3,2.9c0.2,1.5,0.4,3,0.3,4.5
		c-0.2,5.1-0.6,10.2-0.8,15.3c-0.3,7.3-0.4,14.7-0.9,22c-0.2,3.5-0.9,7-1.7,10.4c-0.5,2.1-1,3.9,1.1,5.4c0.4,0.3,0.4,1,0.7,1.5
		c0.4,0.7,0.9,1.7,1.5,1.8c0.8,0.1,2.2-0.3,2.4-0.8c0.9-2.5,3.2-3.4,4.8-5.1c2.7-3,5.4-5.9,8.1-8.9c4.9-5.4,9.5-11,13.1-17.3
		c2.3-4,4.5-8.1,4.6-13.5C243.8,20.8,242.2,18.4,239.6,16.6z M236.6,32.6C231,44,222.3,53.1,213.9,62.4c-0.5,0.6-1.5,0.8-2.3,1.1
		c-0.1-0.9-0.4-1.8-0.3-2.6c1.2-6.5,1.4-13.1,1.5-19.8c0.1-8.6,0.5-17.3,0.9-25.9c0-1.1,0.3-2.2,0.9-3.1c0.5-0.7,1.5-1.5,2.3-1.4
		c1.7,0.1,3.5,0.3,5,1.1c4.6,2.2,9,4.7,13.5,7.2c2.5,1.3,3.6,3.4,3.9,6.4C238.4,27.8,237.7,30.3,236.6,32.6z"/>
	<path id="XMLID_55_" class="st1" d="M63.5,29.9c0.4-4.6,1.1-9.3,1.4-13.9c0.1-0.7-0.6-1.9-1.2-2.2c-0.7-0.4-1.9-0.3-2.6,0.1
		c-0.4,0.3-0.5,1.4-0.5,2.2c0,1.8,0.5,3.6,0.3,5.3c-0.3,3.8-1,7.6-1.2,11.4c-0.2,2.5-1.5,3.5-3.7,4c-2.9,0.6-5.7,1.4-8.6,2.1
		c-2.7,0.7-3.6-0.1-3.7-2.8c-0.3-7.1,0.8-14,2.1-21c0.3-1.6-0.4-2.6-1.7-3c-1.5-0.4-2.3,0.6-2.6,2c-0.2,1.3-0.2,2.6-0.3,3.9
		c-0.5,6.2-1,12.5-1.4,18.7c-0.2,3.7-0.8,4.4-4.3,5.8c-1,0.4-1.9,1.4-2.8,2.1c0.1,0.3,0.3,0.6,0.4,0.9c1.2-0.1,2.4-0.2,3.7-0.4
		c1.2-0.2,1.9,0,1.7,1.4c-0.3,2.1-0.5,4.3-0.8,6.4c-0.4,3.3-0.8,6.6-1.1,9.9c-0.1,0.9-0.4,2.4,1.4,2.3c1.6-0.1,2.5-0.7,2.6-2.5
		c0-2,0.3-4,0.5-6c0.4-3.4,0.7-6.9,1.2-10.3c0.2-1.8,1-3,3.1-3.4c3.9-0.7,7.8-1.7,11.7-2.5c1.2-0.3,2.1,0.2,2,1.5
		c-0.2,2.6-0.6,5.1-0.9,7.7c-0.4,3.4-0.9,6.7-1.2,10.1c-0.1,1.1-0.1,2.8,1.4,2.6c0.9-0.1,2.1-1.4,2.3-2.4c0.4-1.9,0-3.9,0.2-5.8
		c0.3-4,0.6-8,1-12c0.2-2.2,1.3-3.8,3.9-3.7c0.6,0,1.4-0.2,1.8-0.6c0.7-0.7,1.2-1.7,1.8-2.6c-0.9-0.4-1.7-1.2-2.6-1.3
		C63.9,33.6,63.2,33,63.5,29.9z"/>
	<path id="XMLID_54_" class="st1" d="M19.4,44.8c-2.4,1.1-4.9,1-7.4,0.7c-3.9-0.5-6.4-2.8-8.3-5.9C2.3,37,4.1,30.8,6.9,29.1
		c2.4-1.5,5.1-2.5,7.8-3.5c1.9-0.7,3.3-2,2.5-3.2c-0.6-0.9-2.5-1.9-3.5-1.7C4.9,23.3-0.4,27.6,0,37.4c-0.3,4.4,1.8,8.2,6.2,9.9
		c3.4,1.3,7.1,1.9,10.7,2.3c1.4,0.2,3.1-0.6,4.3-1.5c0.8-0.5,0.8-2.1,1.2-3.1C21.4,44.9,20.2,44.4,19.4,44.8z"/>
	<path id="XMLID_51_" class="st1" d="M106.9,33.2c-0.2-3.1-0.1-6.2-0.1-9.3c0.2,0,0.4,0,0.6,0c-0.4-4.2-0.7-8.5-1.3-12.6
		c-0.2-1.3-1.6-2.4-2.4-3.5c-0.8,0.8-1.8,1.5-2.2,2.5c-3.4,6.7-6.7,13.4-10,20.1C90.7,32,89.8,32.6,88,32c-1.7-0.6-3.4-1.1-5.2-1.4
		c-0.8-0.1-1.8,0.6-2.6,0.9c0.4,0.9,0.7,1.9,1.3,2.5c0.4,0.4,1.3,0.5,2,0.6c1,0.2,2,0.4,3,0.5c2.1,0.3,2.4,1.5,1.8,3.2
		c-1,2.5-2,5.1-3,7.6c-1.8,4.7-3.6,9.4-5.4,14.1c-0.6,1.5,0.1,3,1.6,3.4c1.5,0.3,2-0.8,2.3-1.9c0.7-2.3,1.2-4.6,2.1-6.8
		c2.1-5.6,4.4-11.2,6.7-16.8c0.3-0.7,1.6-1.5,2.3-1.4c2,0.3,3.9,1.1,5.9,1.6c1.5,0.3,1.9,1.3,1.7,2.6c-0.3,2-0.7,4-1,6
		c-0.9,4.8-1.9,9.6-2.7,14.4c-0.2,1.3-0.3,3.2,1.5,3.2c0.7,0,1.5-1.9,2.2-3c0.2-0.4,0-1,0.1-1.5c0.1-0.9,0.1-1.7,0.3-2.5
		c1.1-5,2.4-10.1,3.5-15.1c0.3-1.3,0.7-2,2-2.5c0.8-0.3,1.8-1.2,2-2c0.1-0.6-1-1.4-1.6-2.1C108,34.7,107,34,106.9,33.2z M101,34.2
		c-1.5-0.4-3.1-0.6-4.6-1c-1.4-0.3-1.8-1.4-1.3-2.6c1.8-4,3.7-7.9,5.6-11.8c0.2-0.5,0.9-0.7,1.4-1.1c0.3,0.5,1,1,1,1.5l0,7.5h0.1
		c0,1.9,0,3.7,0,5.6C103.3,33.9,102.6,34.6,101,34.2z"/>
	<path id="XMLID_50_" class="st1" d="M149.6,0c-0.7,0.7-1.8,1.3-2.1,2.1c-2.6,6.1-4.9,12.3-7.4,18.4c-1.2,2.9-2.6,5.8-4.2,9.2
		c-2.3-2.6-4.4-4-5.6-6.8c-1.3-3.1-3.3-5.9-5.3-8.7c-0.7-1.1-2.1-1.7-3.2-2.4c-0.4-0.2-1.2-0.2-1.6,0c-0.3,0.3-0.4,1-0.4,1.5
		c0.7,8.4,1.5,16.7,2.1,25.1c0.3,3.5,0.2,7.1,0.2,10.6c0,2.4-0.1,4.9-0.1,7.3c0,1.5,0.7,2.6,2.2,2.6c1.4,0,1.6-1.2,1.6-2.4
		c0-2.8,0-5.6-0.1-8.4c-0.5-8.4-1.1-16.8-1.6-25.2c0-0.4,0.3-0.8,0.5-1.3c0.4,0.2,1,0.3,1.2,0.7c2.2,3.1,4.5,6.2,6.6,9.3
		c2.1,3.1,3.3,3.2,5.4,0.2c3.3-4.8,5.7-10.1,7.5-15.7c0.4-1.1,1.1-2.1,1.7-3.2c0.2,0.1,0.5,0.2,0.7,0.3c0.1,0.5,0.4,0.9,0.4,1.4
		c-0.1,5.3-0.2,10.7-0.3,16c-0.1,3.5-0.1,7-0.1,10.5c-0.1,4,0,8.1-0.2,12.1c-0.2,4.2-0.7,8.5-0.9,12.7c0,0.7,0.4,1.8,1,2.2
		c0.4,0.3,1.7,0,2.1-0.5c0.5-0.6,0.6-1.7,0.7-2.5c0.2-7.3,0.2-14.7,0.5-22c0.3-10.5,0.8-21,1-31.5c0.1-3-0.3-6-0.7-9
		C150.9,1.7,150.1,0.9,149.6,0z"/>
	<path id="XMLID_47_" class="st1" d="M191.4,33.2c-0.2-3.1-0.1-6.2-0.1-9.3c0.2,0,0.4,0,0.6,0c-0.4-4.3-0.7-8.6-1.3-12.8
		c-0.2-1.2-1.6-2.2-2.4-3.3c-0.7,0.8-1.7,1.4-2.1,2.3c-3.4,6.7-6.8,13.4-10,20.1c-0.9,1.9-2,2.4-3.9,1.7c-1.4-0.5-2.9-0.8-4.4-1.2
		c-1.4-0.4-2.9-0.5-3.2,1.1c-0.3,1.5,0.9,2.5,2.4,2.8c1.1,0.2,2.3,0.3,3.4,0.5c2.7,0.6,3,1.1,2,3.8c-0.9,2.4-1.8,4.7-2.7,7
		c-1.8,4.7-3.6,9.4-5.5,14.1c-0.7,1.7,0,2.8,1.5,3.4c1.6,0.7,2.1-0.6,2.5-1.9c0.7-2.3,1.2-4.6,2.1-6.8c2.1-5.6,4.4-11.2,6.7-16.8
		c0.3-0.7,1.3-1.3,2.1-1.5c2.8-0.6,5.2,0.9,7.1,2.3c0.8,0.6,0.2,3.3,0.1,5c-0.1,1-0.4,2-0.6,3c-0.9,4.7-1.8,9.3-2.6,14
		c-0.2,1.3-0.5,3.3,1.5,3.4c0.7,0,1.5-2,2.1-3.2c0.3-0.5,0-1.3,0.1-1.9c0.1-0.6,0.1-1.3,0.3-1.9c1.2-5,2.4-10.1,3.5-15.1
		c0.3-1.3,0.8-1.9,2-2.4c0.8-0.3,1.8-1.3,2-2.1c0.1-0.6-1-1.4-1.6-2.1C192.5,34.7,191.5,34,191.4,33.2z M185.4,34.2
		c-1.5-0.4-3.1-0.6-4.6-1c-1.3-0.3-1.9-1.3-1.3-2.4c1.9-4.1,3.8-8.1,5.8-12.2c0.2-0.4,1.1-0.9,1.3-0.8c0.5,0.3,1,0.9,1,1.5
		c0.1,2.5,0,5,0,7.5h0.1c0,1.9,0,3.7,0,5.6C187.8,34,187,34.6,185.4,34.2z"/>
</g>
</svg>
