<?xml version="1.0" encoding="utf-8"?>
<!-- Generator: Adobe Illustrator 19.0.0, SVG Export Plug-In . SVG Version: 6.00 Build 0)  -->
<svg version="1.1" id="Layer_1" xmlns="http://www.w3.org/2000/svg" xmlns:xlink="http://www.w3.org/1999/xlink" x="0px" y="0px"
	 viewBox="0 0 202.2 54.4" style="enable-background:new 0 0 202.2 54.4;" xml:space="preserve">
<style type="text/css">
	.st0{fill:none;}
	.st1{fill:#FFFFFF;}
</style>
<g id="XMLID_4_">
	<path id="XMLID_5_" class="st0" d="M18.6,8.3c-2.2,0.1-4.4,0.4-6.5,0.7C11.6,9,11,9.6,10.8,10.1C9.5,14.8,8.2,19.5,7,24.2
		c-0.2,0.6,0.1,1.3,0.1,1.9C7.7,26,8.5,26,8.9,25.7c1.4-0.9,2.7-2.3,4.2-3c3.3-1.5,5.5-4.3,7.9-6.9c0.6-0.6,0.9-1.6,1.2-2.2
		c-0.3-1.2-0.4-2.1-0.6-2.9C21.2,8.9,20.5,8.2,18.6,8.3z"/>
	<path id="XMLID_23_" class="st0" d="M77.2,15.9c0-0.3-0.2-0.6-0.4-0.9c-0.1-0.2-0.3-0.3-0.4-0.5l-0.1,0.1c-0.4,0.3-0.8,0.5-0.9,0.9
		c-0.7,1.4-1.4,2.9-2.1,4.4c-0.7,1.4-1.4,2.7-2,4.1c-0.4,0.9-0.1,1.7,1,1.9c1.1,0.3,2.2,0.5,3.4,0.7c1.1,0.2,1.6-0.1,1.6-1.2
		c0-1.4,0-2.8,0-4.3h0C77.3,19.4,77.3,17.6,77.2,15.9z"/>
	<path id="XMLID_24_" class="st0" d="M197.1,15.9c0-0.5-0.5-0.9-0.8-1.4c-0.4,0.3-0.9,0.6-1.1,1c-0.7,1.4-1.4,2.9-2.1,4.4
		c-0.7,1.4-1.4,2.7-2,4.1c-0.4,0.9-0.1,1.7,1,1.9c1.1,0.3,2.2,0.5,3.4,0.7c1.1,0.3,1.6-0.1,1.6-1.2c0-1.4,0-2.8,0-4.3h0
		C197.2,19.4,197.2,17.6,197.1,15.9z"/>
	<path id="XMLID_25_" class="st1" d="M143.5,19.3c-2.4,0.1-4.8,0.4-7.2,0.5c-0.5,0-1,0.1-1.4,0c-1.1-0.1-1.6-0.6-1.1-1.8
		c0.7-1.6,1.3-3.3,2.3-4.7c1.5-2.1,3.3-4,4.9-6.1c0.4-0.5,0.7-1.6,0.5-1.9c-0.5-0.5-1.3-0.8-2.1-0.9c-0.4,0-1,0.5-1.4,0.9
		c-1,1.2-2,2.4-3,3.6c-2.4,2.9-4,6.3-5.1,9.9c-0.7,2.3,0,3.3,2.4,3.8c0.6,0.1,1.1,0.1,1.7,0.1c1.5-0.1,2.9-0.2,4.8-0.4
		c2.5-0.1,3.4,1.2,2.3,3.9c-0.2,0.6-0.3,1.2-0.6,1.8c-1.4,2.6-2.7,5.3-4.5,7.7c-1.4,1.9-3.4,3.5-5.1,5.2c-0.4,0.4-0.8,0.8-1.2,1.2
		c-1.1,1.1-1.2,2.5-0.4,3.2c0.8,0.7,2.6,0.4,3.4-0.6c1.1-1.2,2-2.6,3.2-3.7c2.6-2.5,4.8-5.2,6.4-8.3c1.8-3.3,3.3-6.7,3.6-10.5
		C146.2,20.7,145,19.3,143.5,19.3z"/>
	<path id="XMLID_26_" class="st1" d="M102.6,45.2c-0.5-0.3-1.3-0.3-2-0.2c-2.3,0.4-4.5,0.9-6.8,1.3c-0.3,0.1-1-0.4-1.1-0.8
		c-0.1-0.7,0-1.5,0.2-2.2c0.5-2.6,1.1-5.1,1.5-7.7c0.3-1.8,0.4-3.6,0.6-5.5c0.5-3.5,1.2-7,1.5-10.6c0.5-5.8,1.1-11.5,2.8-17.1
		c0.1-0.3,0.2-0.8,0.1-1.1c-0.3-0.5-0.8-1-1.3-1.4c-0.4,0.4-0.9,0.7-1.1,1.1c-0.3,0.4-0.4,1-0.4,1.5c-0.8,5-2.4,9.8-2.2,14.9
		c0,0.5-0.1,1-0.2,1.6c-0.7,5.2-1.6,10.4-1.9,15.6c-0.2,3.4-0.8,6.6-2.1,9.8c-0.3,0.6-0.4,1.3-0.6,2c-0.5,2.6-0.3,2.9,2.6,2.9
		c3.2-0.5,6.7-1,10.3-1.6c0.4-0.1,1.1-0.7,1-1C103.4,46.2,103.1,45.4,102.6,45.2z"/>
	<path id="XMLID_27_" class="st1" d="M119.7,5.3c-0.6,0.6-1.4,1-1.6,1.7c-0.4,1.1-0.6,2.4-0.8,3.6c-0.6,4.7-1,9.4-1.7,14.1
		c-0.4,3-1.2,5.9-1.6,8.8c-0.6,4.3-1.1,8.6-1.4,13c-0.2,2.6,0,5.2,0.2,7.9c0,0.4,0.7,0.8,1,1.2c0.4-0.5,1-0.9,1.1-1.4
		c0.2-0.9,0-1.9,0.1-2.8c0.3-4.8,0.4-9.7,1-14.5c0.6-4.7,1.6-9.3,2.4-13.9c0.2-1.4,0.5-2.8,0.7-4.2c0.5-3.5,1-7.1,1.4-10.6
		c0.1-0.9-0.1-1.8-0.2-2.7C120,5.5,119.9,5.4,119.7,5.3z"/>
	<path id="XMLID_40_" class="st1" d="M22.2,6.3c-3-1.4-6.2-0.9-9.3-0.5c-1.7,0.2-3.4,0.5-5.1-0.3C6.7,4.8,5.8,5.4,5.7,6.7
		C5.6,9,5.6,11.2,5.4,13.5c-0.3,3.1-0.6,6.3-1.1,9.3c-1.4,8.5-2.8,17-4.2,25.5c-0.2,1.4,0.5,2.3,1.6,2.4c1.4,0.1,2.2-0.6,2.1-2.1
		c-0.2-4.7,0.8-9.2,1.6-13.7c0.1-0.4,0.3-0.8,0.5-1.2c0.4,0.2,0.9,0.4,1.3,0.7c0.3,0.2,0.4,0.6,0.7,0.9c3.3,4.1,6.6,8.3,10,12.4
		c0.4,0.5,1.5,0.7,2.1,0.5c0.5-0.2,1-1.2,0.9-1.7c-0.1-0.9-0.5-1.8-1.1-2.5c-1.4-1.6-3.1-2.9-4.5-4.4c-2.1-2.4-4.1-5-6.1-7.4
		c-1.3-1.6-1.1-2,0.5-3.2c4-2.8,8-5.7,11.9-8.7c1.9-1.5,3-3.7,3.6-5.8c-0.1-1.5-0.2-2.6-0.3-3.8C24.9,8.4,24,7.1,22.2,6.3z
		 M21.1,15.8c-2.4,2.5-4.6,5.3-7.9,6.9c-1.5,0.7-2.8,2.1-4.2,3C8.5,26,7.7,26,7.1,26.1c0-0.6-0.3-1.3-0.1-1.9
		c1.2-4.7,2.5-9.4,3.8-14.1C11,9.6,11.6,9,12.1,9c2.2-0.3,4.4-0.6,6.5-0.7c1.9-0.1,2.6,0.6,3,2.4c0.2,0.9,0.4,1.7,0.6,2.9
		C22,14.2,21.7,15.2,21.1,15.8z"/>
	<path id="XMLID_41_" class="st1" d="M56.9,4.2c-1,0-2,0.3-3,0.2c-3.2-0.3-6.4-0.8-9.7-1.2l0,0.3c-1.1,0-2.2,0-3.3,0
		c-2.7,0-4,1.3-4.1,3.9c-0.2,4.9-0.3,9.9-0.6,14.8c-0.3,4-0.8,7.9-1.4,11.9c-0.7,4.6-1.5,9.1-2.2,13.7c-0.3,2.3,0.5,3.2,2.8,3.1
		c1.8,0,3.6-0.2,5.3-0.7c2.1-0.5,4.2-1.4,6.2-2.2c0.5-0.2,0.7-1.1,1-1.6c-0.6-0.1-1.2-0.5-1.8-0.4c-1.2,0.2-2.3,0.8-3.5,1
		c-1.8,0.3-3.6,0.6-5.4,0.6c-0.5,0-1.5-0.9-1.5-1.4c-0.1-1.7-0.1-3.4,0.1-5c0.4-2.9,0.9-5.7,1.5-8.5c0.1-0.6,0.7-1.3,1.3-1.5
		c3-1,6-1.8,9-2.7c0.4-0.1,0.9-0.6,0.9-0.9c-0.1-0.4-0.5-1.1-0.8-1.1c-0.9-0.1-1.8,0-2.6,0.2c-1.7,0.5-3.4,1.2-5.1,1.7
		c-1.8,0.5-2.2,0.1-2-1.7c0.4-3.7,0.8-7.4,1.1-11.1c0.2-2.2,0.5-4.5,0.3-6.7c-0.1-1.8,0.1-2.4,1.9-2.5C46.1,6,50.8,5.7,55.4,7
		c1.2,0.3,2-0.2,2.6-1.3c0.2-0.4,0.3-1,0.2-1.3C58,4.2,57.4,4.2,56.9,4.2z"/>
	<path id="XMLID_44_" class="st1" d="M81.2,27.4c-0.5-0.3-1.1-1-1.2-1.6c-0.1-2.3-0.1-4.5-0.1-6.8c0.1,0,0.3,0,0.4,0
		c-0.3-3.1-0.5-6.3-1-9.4c-0.1-0.9-1.2-1.6-1.8-2.4c-0.5,0.5-1.2,1-1.5,1.6c-2.5,5-5,10.1-7.5,15.1c-0.5,1-1,1.5-2.2,1.1
		c-1.1-0.4-2.3-0.6-3.5-1c-1-0.3-2.2-0.5-2.5,0.8c-0.2,1.2,0.8,1.8,1.9,2.1c0.9,0.2,1.8,0.3,2.6,0.4c1.4,0.2,1.8,1,1.3,2.3
		c-0.7,1.9-1.5,3.8-2.2,5.7c-1.3,3.5-2.7,7-4,10.4c-0.5,1.2,0.3,1.8,1.2,2.2c1,0.4,1.4-0.3,1.7-1.1c0.1-0.3,0.2-0.7,0.3-1
		c2-5.5,4-11,6.2-16.5c0.2-0.5,1.2-1.1,1.7-1c1.4,0.2,2.8,0.8,4.2,1.1c1.2,0.3,1.5,1.1,1.3,2.1c-0.2,1.5-0.5,2.9-0.8,4.3
		c-0.6,3.4-1.3,6.8-1.9,10.2c-0.2,1-0.3,2.4,1.1,2.5c0.5,0,1.2-1.4,1.5-2.2c0.3-0.9,0.1-1.9,0.3-2.8c0.8-3.7,1.8-7.4,2.6-11.2
		c0.2-1,0.6-1.4,1.5-1.8c0.6-0.2,1.2-0.8,1.4-1.4C82.7,28.2,81.9,27.8,81.2,27.4z M77.3,25.4c0,1.1-0.6,1.5-1.6,1.2
		c-1.1-0.3-2.2-0.5-3.4-0.7c-1.1-0.2-1.4-1-1-1.9c0.6-1.4,1.3-2.7,2-4.1c0.7-1.5,1.3-3,2.1-4.4c0.2-0.4,0.6-0.6,0.9-0.9l0.1-0.1
		c0.1,0.2,0.2,0.3,0.4,0.5c0.2,0.3,0.4,0.6,0.4,0.9c0.1,1.7,0,3.5,0,5.2h0C77.3,22.5,77.3,23.9,77.3,25.4z"/>
	<path id="XMLID_45_" class="st1" d="M174.2,10.2l-0.2,0c-2.8,0.1-5.7,0.1-8.5,0.2c-1,0-1.5-0.3-1.9-1.2c-0.2-0.5-0.8-0.8-1.3-1.1
		c-0.3,0.4-0.6,0.8-0.9,1.3c-0.5,0.6-0.9,1.5-1.5,1.7c-1.5,0.5-3.1,0.5-4.6,0.9c-0.7,0.2-1.7,0.4-2,0.9c-0.3,0.5,0,1.7,0.4,2.1
		c0.4,0.4,1.4,0.4,2.1,0.2c1.4-0.3,2.7-1,4-1.3c0.7-0.2,1.5-0.3,1.5,1c-0.2,3.4-0.4,6.8-0.3,10.2c0.2,7.1-0.5,14.2-1.4,21.2
		c-0.1,0.7,0.5,1.5,0.7,2.2c0.6-0.4,1.3-0.8,1.8-1.3c0.2-0.3,0.1-0.9,0.1-1.3c0-0.9-0.2-1.9-0.1-2.8c0.4-4.9,0.9-9.8,1.4-14.7
		c-0.2,0-0.4,0-0.6-0.1c0.3-4.6,0.6-9.2,0.9-13.8c0.1-1.1,0.6-1.7,1.6-1.7c2.8,0,5.7,0.2,8.5,0.2c0.9,0,1.8-0.1,2.6-0.4
		c0.2,0,0.3-1.1,0.1-1.2C176,10.7,175.1,10.5,174.2,10.2z"/>
	<path id="XMLID_61_" class="st1" d="M201.1,27.5c-0.4-0.5-1.2-1-1.3-1.6c-0.1-2.3-0.1-4.6-0.1-6.9c0.2,0,0.3,0,0.5,0
		c-0.3-3.1-0.5-6.3-1-9.4c-0.1-0.9-1.2-1.6-1.8-2.3c-0.5,0.5-1,1.1-1.5,1.6l-0.1,0.3c-2.4,4.8-4.8,9.5-7,14.3
		c-0.7,1.5-1.6,2-3.2,1.4c-0.9-0.4-1.9-0.5-2.9-0.8c-1-0.3-1.9-0.4-2.4,0.7c-0.4,0.7,0.7,1.9,1.9,2.1c0.8,0.1,1.6,0.2,2.3,0.4
		c2,0.4,2.2,0.9,1.5,2.8c-0.6,1.7-1.4,3.4-2,5.1c-1.3,3.5-2.7,7-4,10.4c-0.5,1.3,0.3,1.9,1.2,2.3c1,0.4,1.4-0.4,1.7-1.2
		c0.1-0.4,0.2-0.8,0.4-1.2c2-5.4,4-10.9,6.2-16.3c0.2-0.5,1-0.9,1.6-1c2-0.4,3.8,0.6,5.2,1.8c0.6,0.5,0.1,2.4,0,3.7
		c0,0.7-0.2,1.3-0.4,2c-0.7,3.5-1.4,6.9-1.9,10.4c-0.2,0.9-0.3,2.3,1,2.4c1.3,0.1,1.5-1.3,1.6-2.3c0.2-0.9,0-1.9,0.2-2.8
		c0.8-3.7,1.8-7.3,2.5-11c0.2-1,0.6-1.5,1.6-1.9c0.6-0.2,1.3-0.9,1.3-1.4C202.3,28.6,201.5,28,201.1,27.5z M197.2,25.3
		c0,1.1-0.6,1.5-1.6,1.2c-1.1-0.3-2.2-0.5-3.4-0.7c-1.1-0.2-1.4-1-1-1.9c0.6-1.4,1.3-2.7,2-4.1c0.7-1.5,1.3-3,2.1-4.4
		c0.2-0.4,0.7-0.7,1.1-1c0.3,0.5,0.8,0.9,0.8,1.4c0.1,1.7,0,3.5,0,5.2h0C197.2,22.5,197.2,23.9,197.2,25.3z"/>
</g>
</svg>
