<?xml version="1.0" encoding="utf-8"?>
<!-- Generator: Adobe Illustrator 19.0.0, SVG Export Plug-In . SVG Version: 6.00 Build 0)  -->
<svg version="1.1" id="Layer_1" xmlns="http://www.w3.org/2000/svg" xmlns:xlink="http://www.w3.org/1999/xlink" x="0px" y="0px"
	 viewBox="-204 370 186.5 101.9" style="enable-background:new -204 370 186.5 101.9;" xml:space="preserve">
<style type="text/css">
	.st0{fill:none;}
	.st1{fill:#FFFFFF;}
</style>
<g id="XMLID_132_">
	<path id="XMLID_196_" class="st0" d="M-79.9,449.3c-0.2-1.3-1-1.2-1.7-1.1l-1.2,0.2l0.5,2.7l1.1-0.2
		C-80.5,450.8-79.6,450.7-79.9,449.3z"/>
	<polygon id="XMLID_195_" class="st0" points="-53.4,430.8 -53.7,434.4 -52,434.1 	"/>
	<polygon id="XMLID_194_" class="st0" points="-72.8,447.8 -72.8,447.8 -73.1,451.4 -71.4,451.1 	"/>
	<path id="XMLID_193_" class="st0" d="M-112.9,460.8c1.6-0.3,2.4-1.3,1.9-3.9c-0.5-2.5-1.6-3.2-3.1-2.9l-0.9,0.2l1.2,6.8
		L-112.9,460.8z"/>
	<path id="XMLID_192_" class="st0" d="M-63.3,452c1.6-0.3,2.4-1.3,1.9-3.9c-0.5-2.5-1.6-3.2-3.1-3l-1,0.2l1.2,6.8L-63.3,452z"/>
	<path id="XMLID_191_" class="st0" d="M-133.5,404.4c-0.4,0.1-0.7,0.4-0.6,0.8c0.1,0.5,0.5,0.6,1,0.5c0.4-0.1,0.9-0.4,1.2-0.7
		l-0.2-1.3L-133.5,404.4z"/>
	<polygon id="XMLID_190_" class="st0" points="-72.7,420.7 -72.8,420.7 -73,424.3 -71.3,424 	"/>
	<path id="XMLID_189_" class="st0" d="M-81.8,421.2l-1.2,0.2l0.5,2.7l1.1-0.2c0.6-0.1,1.5-0.2,1.3-1.6
		C-80.4,420.9-81.1,421-81.8,421.2z"/>
	<path id="XMLID_188_" class="st0" d="M-116.4,440.9l-1,0.1l1.2,6.8l0.9-0.2c1.6-0.3,2.4-1.3,1.9-3.9
		C-113.7,441.3-114.8,440.6-116.4,440.9z"/>
	<path id="XMLID_187_" class="st0" d="M-115,412.8l2.4-0.4c-4.7-21.1-25-35.1-46.4-31.9l0.4,2.4C-138.4,379.9-119.4,393-115,412.8z"
		/>
	<path id="XMLID_186_" class="st0" d="M-193.7,427.3l2.4-0.4c-3-20.1,10.2-39.1,30-43.5l-0.5-2.4
		C-182.9,385.6-196.9,405.9-193.7,427.3z"/>
	<path id="XMLID_185_" class="st0" d="M-193.2,430.1c4.7,21.1,24.9,35.1,46.3,31.9l-0.4-2.4c-20.1,3-39.1-10.1-43.5-30L-193.2,430.1
		z"/>
	<path id="XMLID_184_" class="st0" d="M-106.4,425.4c-1.6,0.3-1.8,1.5-1.3,3.9c0.4,2.5,1,3.5,2.6,3.2c1.6-0.3,1.8-1.4,1.3-3.9
		C-104.2,426.1-104.8,425.1-106.4,425.4z"/>
	<polygon id="XMLID_183_" class="st1" points="-48.6,440.1 -51.3,440.6 -49.4,451.7 -46.8,451.2 -47.9,445.1 -47.9,445.1 
		-43.6,450.7 -40.8,450.2 -42.8,439.1 -45.3,439.5 -44.2,445.6 -44.3,445.6 	"/>
	<polygon id="XMLID_182_" class="st1" points="-34.6,437.6 -42.1,439 -41.7,441.1 -39.2,440.7 -37.6,449.6 -35.1,449.2 -36.7,440.2 
		-34.3,439.8 	"/>
	<path id="XMLID_178_" class="st1" d="M-77.5,421.8c-0.3-1.8-1.5-3.3-4-2.9l-4.4,0.8l2,11.1l2.5-0.5l-0.7-4.1l0.8-0.1l2.7,3.8l3-0.5
		l2.3-0.4l0.2-2.3l2.7-0.5l0.9,2.1l2.8-0.5l-5-10.6l-3.2,0.6l-1,11.1l-2.8-3.4C-77.6,424.6-77.3,423.2-77.5,421.8z M-72.8,420.7
		L-72.8,420.7l1.5,3.3l-1.7,0.3L-72.8,420.7z M-81.4,423.9l-1.1,0.2l-0.5-2.7l1.2-0.2c0.7-0.1,1.4-0.2,1.7,1.1
		C-79.9,423.6-80.8,423.7-81.4,423.9z"/>
	
		<rect id="XMLID_177_" x="-92.6" y="451.4" transform="matrix(-0.1752 -0.9845 0.9845 -0.1752 -547.8248 446.4289)" class="st1" width="11.3" height="2.6"/>
	<polygon id="XMLID_176_" class="st1" points="-57.1,453.1 -50.1,451.8 -50.4,449.7 -55,450.5 -55.4,448 -51.7,447.4 -52,445.2 
		-55.8,445.9 -56.2,443.7 -51.8,442.9 -52.2,440.8 -59.1,442 	"/>
	<polygon id="XMLID_175_" class="st1" points="-104.1,436.5 -110.9,437.7 -109,448.8 -101.9,447.5 -102.3,445.4 -106.8,446.2 
		-107.2,443.7 -103.5,443.1 -103.9,440.9 -107.6,441.6 -108,439.4 -103.7,438.6 	"/>
	<polygon id="XMLID_174_" class="st1" points="-27,436.3 -33.9,437.5 -31.9,448.6 -24.9,447.3 -25.3,445.2 -29.8,446 -30.2,443.6 
		-26.5,442.9 -26.9,440.8 -30.6,441.4 -31,439.2 -26.7,438.4 	"/>
	<polygon id="XMLID_173_" class="st1" points="-70.6,430.5 -77.5,431.7 -75.5,442.8 -68.5,441.5 -68.8,439.4 -73.3,440.2 
		-73.8,437.8 -70.1,437.1 -70.4,435 -74.2,435.6 -74.6,433.4 -70.2,432.6 	"/>
	<polygon id="XMLID_172_" class="st1" points="-62.2,429 -63.1,436.2 -63.2,436.2 -66.6,429.8 -69.7,430.3 -67.7,441.4 -65.2,441 
		-66.1,436.1 -66,436.1 -63.6,440.7 -61.3,440.3 -60.6,435.2 -60.5,435.2 -59.7,440 -57.1,439.5 -59.1,428.5 	"/>
	
		<rect id="XMLID_171_" x="-93.9" y="438" transform="matrix(-0.1755 -0.9845 0.9845 -0.1755 -536.2578 429.5607)" class="st1" width="11.2" height="2.6"/>
	<path id="XMLID_170_" class="st1" d="M-20.9,439.8c-1.3-0.4-1.9-0.6-2-1.3c-0.1-0.6,0.4-1,1.1-1.2c0.8-0.1,1.9-0.2,2.9,0l-0.4-2.1
		c-0.9-0.2-2.1-0.1-3,0c-1.6,0.3-3.6,1.4-3.2,3.6c0.3,1.7,1.4,2.5,3.2,3.1c1.3,0.4,2,0.6,2.1,1.4c0.1,0.8-0.5,1.1-1.2,1.3
		c-0.8,0.1-2.1,0.2-3.2,0.1l0.4,2.1c0.9,0.2,2.4,0.1,3.2-0.1c2.2-0.4,3.8-1.7,3.4-4C-17.8,441.3-18.8,440.5-20.9,439.8z"/>
	<path id="XMLID_167_" class="st1" d="M-55.7,427.8l-1.1,11.7l2.8-0.5l0.2-2.3l2.7-0.5l0.9,2.1l2.8-0.5l-5-10.6L-55.7,427.8z
		 M-53.7,434.4l0.3-3.6l0,0l1.4,3.3L-53.7,434.4z"/>
	<polygon id="XMLID_166_" class="st1" points="-85,444.5 -82.5,444 -83.5,437.9 -83.5,437.9 -79.2,443.5 -76.4,443 -78.4,431.9 
		-80.9,432.3 -79.9,438.4 -79.9,438.4 -84.2,432.9 -87,433.4 	"/>
	<polygon id="XMLID_165_" class="st1" points="-94,421.1 -93.7,423.3 -91.2,422.8 -89.6,431.8 -87.1,431.3 -88.7,422.4 -86.2,421.9 
		-86.6,419.8 	"/>
	<path id="XMLID_162_" class="st1" d="M-112.2,462.9c3.6-0.6,4.5-3.4,3.9-6.4c-0.5-3-2.3-5.3-5.9-4.7l-3.7,0.7l2,11.1L-112.2,462.9z
		 M-114.1,454c1.6-0.3,2.7,0.4,3.1,2.9s-0.3,3.6-1.9,3.9l-0.9,0.2l-1.2-6.8L-114.1,454z"/>
	<polygon id="XMLID_161_" class="st1" points="-99.6,460.6 -100,458.5 -104.5,459.3 -104.9,456.9 -101.2,456.2 -101.6,454.1 
		-105.3,454.7 -105.7,452.5 -101.3,451.7 -101.7,449.6 -108.6,450.8 -106.6,461.9 	"/>
	<path id="XMLID_158_" class="st1" d="M-116.5,438.7l-3.7,0.7l2,11.1l3.7-0.7c3.6-0.6,4.5-3.4,3.9-6.4
		C-111.2,440.3-112.9,438-116.5,438.7z M-115.2,447.7l-0.9,0.2l-1.3-6.9l0.9-0.2c1.6-0.3,2.7,0.4,3.1,3
		C-112.8,446.3-113.6,447.4-115.2,447.7z"/>
	<polygon id="XMLID_157_" class="st1" points="-89.8,447.5 -97.3,448.8 -96.9,450.9 -94.4,450.5 -92.9,459.4 -90.3,459 -91.9,450 
		-89.5,449.6 	"/>
	<polygon id="XMLID_156_" class="st1" points="-115.1,424.9 -116,432.1 -116,432.1 -119.5,425.7 -122.6,426.2 -120.6,437.3 
		-118.1,436.8 -119,432 -118.9,432 -116.4,436.5 -114.2,436.1 -113.5,431 -113.4,431 -112.6,435.9 -110,435.4 -112,424.3 	"/>
	<path id="XMLID_155_" class="st1" d="M-97.3,423.8c0.8-0.1,1.9-0.2,2.9,0l-0.4-2.1c-0.9-0.2-2.1-0.1-3,0c-1.6,0.3-3.6,1.4-3.2,3.6
		c0.3,1.7,1.4,2.5,3.2,3.1c1.3,0.4,2,0.6,2.1,1.4c0.1,0.8-0.5,1.1-1.2,1.3c-0.8,0.1-2.1,0.2-3.2,0.1l0.4,2.1
		c0.9,0.2,2.4,0.1,3.2-0.1c2.2-0.4,3.8-1.7,3.4-4c-0.3-1.4-1.2-2.3-3.3-2.9c-1.3-0.4-1.9-0.6-2-1.3C-98.5,424.3-98,423.9-97.3,423.8
		z"/>
	<path id="XMLID_154_" class="st1" d="M-93.8,436.7c0.9-0.2,1.8-0.2,2.8,0l-0.4-2.1c-0.9-0.2-2.1-0.1-3,0c-3.6,0.7-4.4,3.6-3.9,6.6
		s2.3,5.5,5.9,4.8c0.9-0.2,2.1-0.5,2.8-1l-0.4-2.1c-0.8,0.5-1.7,0.8-2.6,1c-1.6,0.3-2.7-0.6-3.2-3.1
		C-96.2,438.2-95.4,437-93.8,436.7z"/>
	<path id="XMLID_151_" class="st1" d="M-106.7,423.2c-3.3,0.6-4.1,3.4-3.6,6.5c0.6,3.2,2.3,5.5,5.6,4.9c3.3-0.6,4.1-3.3,3.6-6.5
		C-101.7,425-103.4,422.6-106.7,423.2z M-105.1,432.5c-1.6,0.3-2.2-0.7-2.6-3.2s-0.2-3.6,1.3-3.9c1.6-0.3,2.2,0.8,2.6,3.2
		C-103.3,431.1-103.5,432.2-105.1,432.5z"/>
	<path id="XMLID_148_" class="st1" d="M-62.7,454.1c3.6-0.6,4.5-3.4,3.9-6.4c-0.5-3-2.3-5.3-5.9-4.7l-3.7,0.7l2,11.1L-62.7,454.1z
		 M-64.5,445.2c1.6-0.3,2.7,0.4,3.1,3c0.4,2.5-0.3,3.6-1.9,3.9l-0.9,0.2l-1.2-6.8L-64.5,445.2z"/>
	<path id="XMLID_144_" class="st1" d="M-78.4,456.9l3-0.5l2-0.4l0.2-2.3l2.7-0.5l0.9,2.1l2.8-0.5l-5-10.6l-3.2,0.6l-1,10.7l-2.5-3.1
		c1.3-0.8,1.6-2.2,1.3-3.6c-0.3-1.8-1.5-3.3-4-2.9l-4.4,0.8l2,11.1l2.5-0.4l-0.7-4.1l0.8-0.1L-78.4,456.9z M-72.8,447.8L-72.8,447.8
		l1.5,3.3l-1.7,0.3L-72.8,447.8z M-82.3,451.1l-0.5-2.7l1.2-0.2c0.7-0.1,1.4-0.2,1.7,1.1c0.2,1.4-0.6,1.5-1.3,1.6L-82.3,451.1z"/>
	<path id="XMLID_139_" class="st1" d="M-163.7,370.5l1.1,6.2c-23.4,5.1-39,27.6-35.3,51.4l-6.1,1.1l0.5,2.8l6.1-1.1
		c5.1,23.5,27.6,39,51.4,35.4l1,5.7l2.8-0.5l-4.2-22.5l-2.8,0.5l1.4,7.6c-18.7,2.7-36.4-9.5-40.6-28l7.2-1.3l-0.5-2.8l-7.2,1.3
		c-2.7-18.7,9.5-36.4,28-40.6l1.3,7.1l2.8-0.5l-1.3-7.1c18.7-2.7,36.4,9.5,40.6,28l-7.5,1.5l0.5,2.8l22.4-4.1l-0.5-2.8l-5.8,1.1
		c-5.1-23.6-27.6-39.1-51.3-35.5l-1.2-6.2l0,0L-163.7,370.5z M-147.3,459.6l0.4,2.4c-21.4,3.2-41.7-10.8-46.3-31.9l2.4-0.4
		C-186.4,449.5-167.4,462.6-147.3,459.6z M-191.3,426.8l-2.4,0.4c-3.2-21.3,10.8-41.6,31.9-46.2l0.4,2.4
		C-181.1,387.8-194.2,406.8-191.3,426.8z M-112.7,412.4l-2.3,0.4c-4.4-19.8-23.4-32.9-43.5-29.9l-0.5-2.4
		C-137.6,377.3-117.3,391.3-112.7,412.4z"/>
	
		<rect id="XMLID_138_" x="-135.1" y="408.5" transform="matrix(0.9845 -0.1756 0.1756 0.9845 -73.9202 -16.8437)" class="st1" width="5.9" height="1.5"/>
	<path id="XMLID_135_" class="st1" d="M-133.4,399.9c-0.8,0.1-2,0.5-2.8,0.9l0.2,1.3c0.7-0.3,1.7-0.7,2.4-0.8
		c0.8-0.2,1.1,0.2,1.2,0.7l0.1,0.8l-1.9,0.7c-1.5,0.5-1.7,1.3-1.6,2.1c0.2,1,0.9,1.8,2.1,1.5c0.7-0.1,1.3-0.5,1.8-1.2l0,0l0.1,0.7
		l1.7-0.3l-0.8-4.9C-131,400.2-132.1,399.7-133.4,399.9z M-133.1,405.8c-0.5,0.1-0.9-0.1-1-0.5c-0.2-0.5,0.2-0.7,0.6-0.8l1.4-0.5
		l0.2,1.3C-132.2,405.4-132.7,405.7-133.1,405.8z"/>
	<path id="XMLID_134_" class="st1" d="M-161.2,424c-0.6,1.3-1.4,2.5-2.2,3.8c-0.9,1.2-1.8,2.5-2.7,3.6c-1,1.2-1.9,2.3-2.9,3.4
		s-1.8,2.1-2.6,3l0.8,4.2l22.5-4.5l-1.1-5.3l-13.8,2.8c1.4-1.5,2.8-3.1,4.1-4.7c1.3-1.6,2.5-3.3,3.4-5c1-1.7,1.7-3.5,2.1-5.3
		c0.4-1.8,0.5-3.6,0.1-5.5c-0.3-1.6-0.9-3-1.6-4.2c-0.8-1.2-1.7-2.1-2.8-2.8c-1.1-0.7-2.4-1.1-3.7-1.3c-1.4-0.2-2.8-0.2-4.3,0.1
		c-0.7,0.1-1.5,0.3-2.3,0.6c-0.8,0.2-1.7,0.5-2.5,0.8s-1.6,0.6-2.4,1c-0.8,0.3-1.5,0.7-2,1.1l1.1,5.4c2.7-1.6,5.1-2.6,7.4-3.1
		c1.6-0.3,3.1-0.1,4.4,0.5c1.3,0.7,2.1,2,2.5,4c0.2,1.1,0.2,2.3-0.1,3.6C-160.2,421.5-160.6,422.7-161.2,424z"/>
	<polygon id="XMLID_133_" class="st1" points="-139,435.5 -132.8,434.3 -139.4,400.9 -143.8,401.7 -151.8,407.9 -148.9,411.9 
		-144.4,408.5 	"/>
</g>
</svg>
