<?xml version="1.0" encoding="utf-8"?>
<!-- Generator: Adobe Illustrator 19.0.0, SVG Export Plug-In . SVG Version: 6.00 Build 0)  -->
<svg version="1.1" id="Layer_1" xmlns="http://www.w3.org/2000/svg" xmlns:xlink="http://www.w3.org/1999/xlink" x="0px" y="0px"
	 viewBox="0 0 213.7 95.2" style="enable-background:new 0 0 213.7 95.2;" xml:space="preserve">
<style type="text/css">
	.st0{fill:none;}
	.st1{fill:#FFFFFF;}
</style>
<polygon id="XMLID_75_" class="st0" points="123.3,46 123.2,46 122.9,50.8 125.2,50.4 "/>
<path id="XMLID_74_" class="st0" d="M104.4,69.7l-1.3,0.2l1.6,9l1.3-0.2c2.1-0.4,3.1-1.7,2.5-5.1C107.9,70.2,106.4,69.3,104.4,69.7z
	"/>
<path id="XMLID_72_" class="st0" d="M82.6,40l2.2-0.4C80.5,19.9,61.6,6.8,41.6,9.8L42,12C60.8,9.2,78.5,21.5,82.6,40z"/>
<path id="XMLID_69_" class="st0" d="M39.4,12.5L39,10.3C19.2,14.6,6.2,33.5,9.2,53.5l2.2-0.4C8.6,34.3,20.9,16.6,39.4,12.5z"/>
<path id="XMLID_68_" class="st0" d="M11.9,55.7l-2.2,0.4C14,75.9,32.9,88.9,52.9,85.9l-0.4-2.2C33.7,86.5,16,74.2,11.9,55.7z"/>
<polygon id="XMLID_67_" class="st0" points="93.4,73.1 93.1,77.9 95.4,77.5 93.5,73.1 "/>
<path id="XMLID_66_" class="st0" d="M202.8,55.5c1-0.2,1.7-0.5,2-1c0.3-0.5,0.4-1.2,0.2-2.2c-0.2-0.9-0.5-1.4-1-1.7
	c-0.5-0.3-1.3-0.3-2.4-0.1l-2.2,0.5l1,5.1L202.8,55.5z"/>
<path id="XMLID_65_" class="st0" d="M82,73.7L80.4,74l0.6,3.5l1.5-0.3c0.8-0.2,2-0.3,1.7-2.1C83.9,73.4,82.9,73.5,82,73.7z"/>
<path id="XMLID_64_" class="st0" d="M111.9,50.2c0.8-0.1,2-0.3,1.7-2.1c-0.3-1.7-1.3-1.6-2.2-1.4l-1.6,0.3l0.6,3.5L111.9,50.2z"/>
<path id="XMLID_63_" class="st0" d="M210.9,70.6c0.1-0.1,0.2-0.2,0.3-0.3c0.1-0.1,0.1-0.2,0.2-0.4c0-0.1,0-0.3,0-0.4
	c-0.1-0.3-0.2-0.5-0.4-0.6s-0.5-0.2-0.9-0.1c-0.4,0.1-0.6,0.2-0.8,0.4c-0.1,0.2-0.2,0.5-0.1,0.7c0.1,0.3,0.2,0.5,0.5,0.6
	c0.3,0.1,0.6,0.2,0.9,0.2C210.7,70.7,210.8,70.7,210.9,70.6z"/>
<path id="XMLID_62_" class="st0" d="M212,72.5c-0.1-0.1-0.2-0.2-0.4-0.3c-0.1-0.1-0.3-0.1-0.5-0.2c-0.2,0-0.4-0.1-0.5-0.1
	c-0.1,0.1-0.3,0.2-0.4,0.3c-0.1,0.1-0.2,0.2-0.3,0.3c-0.1,0.1-0.1,0.3-0.2,0.4c0,0.1,0,0.3,0,0.4c0,0.1,0.1,0.2,0.1,0.4
	c0.1,0.1,0.2,0.2,0.3,0.3c0.1,0.1,0.3,0.1,0.4,0.2c0.2,0,0.4,0,0.6,0c0.2,0,0.4-0.1,0.6-0.2c0.2-0.1,0.3-0.2,0.3-0.3
	c0.1-0.1,0.1-0.2,0.1-0.4c0-0.1,0-0.3,0-0.4C212.2,72.7,212.1,72.6,212,72.5z"/>
<path id="XMLID_61_" class="st0" d="M201.5,73.3c-0.1-0.4-0.2-0.8-0.3-1.1c-0.1-0.3-0.2-0.6-0.3-0.8c-0.1-0.2-0.3-0.3-0.5-0.4
	c-0.2-0.1-0.4-0.1-0.7,0c-0.3,0.1-0.5,0.2-0.7,0.3c-0.2,0.1-0.3,0.3-0.3,0.6c0,0.2-0.1,0.5,0,0.9s0.1,0.7,0.2,1.1
	c0.1,0.4,0.2,0.8,0.3,1.1c0.1,0.3,0.2,0.6,0.3,0.8c0.1,0.2,0.3,0.3,0.5,0.4c0.2,0.1,0.4,0.1,0.7,0c0.3-0.1,0.5-0.2,0.7-0.3
	c0.1-0.1,0.2-0.3,0.3-0.6c0-0.2,0.1-0.5,0-0.9C201.7,74.2,201.6,73.8,201.5,73.3z"/>
<path id="XMLID_60_" class="st0" d="M79.1,52.2c-2.1,0.4-2.3,1.9-1.8,5.1c0.6,3.3,1.4,4.6,3.4,4.2c2.1-0.4,2.4-1.8,1.8-5.2
	C81.9,53.2,81.1,51.8,79.1,52.2z"/>
<path id="XMLID_46_" class="st1" d="M196.6,58.7c-0.2-0.4-0.5-0.7-0.9-1c-0.4-0.3-0.7-0.5-1-0.6c-0.3-0.2-0.7-0.3-1.2-0.4
	c-0.5-0.1-0.9-0.1-1.2-0.2c-0.3,0-0.7-0.1-1.3-0.2c-1.1-0.1-1.9-0.2-2.4-0.4c-0.6-0.2-0.9-0.5-1-1c-0.1-0.5,0.1-1,0.6-1.3
	c0.5-0.3,1.1-0.6,1.8-0.7c1.3-0.3,2.8-0.1,4.6,0.4l-0.3-2.8c-0.5-0.2-1.2-0.3-2.1-0.4c-0.9-0.1-1.9,0-2.8,0.2
	c-1.8,0.4-3,1.1-3.7,2.2c-0.7,1.1-0.9,2.2-0.7,3.3c0.1,0.4,0.2,0.7,0.4,1c0.2,0.3,0.3,0.5,0.5,0.7c0.2,0.2,0.4,0.4,0.7,0.5
	c0.3,0.2,0.6,0.3,0.8,0.4c0.2,0.1,0.5,0.2,0.9,0.2l0.9,0.1c0.2,0,0.5,0.1,1,0.1c0.5,0.1,0.9,0.1,1.1,0.2c0.2,0,0.5,0.1,1,0.2
	c0.4,0.1,0.7,0.2,0.9,0.3c0.2,0.1,0.4,0.3,0.6,0.5c0.2,0.2,0.3,0.5,0.4,0.8c0.2,1.1-0.6,1.8-2.3,2.1c-1,0.2-2,0.2-2.8,0.1
	c-0.9-0.1-1.6-0.4-2.1-0.7l0.3,3.1c0.5,0.2,1.2,0.3,2.1,0.4c0.9,0,1.9-0.1,2.9-0.3c1-0.2,1.8-0.5,2.4-0.8c0.7-0.3,1.2-0.7,1.5-1.1
	c0.3-0.4,0.6-0.8,0.8-1.2c0.2-0.5,0.2-0.9,0.2-1.2c0-0.4,0-0.7-0.1-1.1C197,59.6,196.9,59.1,196.6,58.7z"/>
<path id="XMLID_43_" class="st1" d="M202,63.3l-1-4.8l2.6-0.5c0.6-0.1,1.1-0.3,1.6-0.6c0.5-0.3,1-0.6,1.5-1.1c0.5-0.5,0.8-1.1,1-1.9
	c0.2-0.8,0.2-1.7,0-2.7c-0.2-1-0.5-1.8-0.9-2.3c-0.4-0.6-0.9-1-1.5-1.2c-0.6-0.2-1.3-0.3-2.1-0.3c-0.7,0-1.6,0.2-2.7,0.4l-4.1,0.8
	l3,14.7L202,63.3z M201.7,50.4c1.1-0.2,1.9-0.2,2.4,0.1c0.5,0.3,0.8,0.9,1,1.7c0.2,1,0.1,1.7-0.2,2.2c-0.3,0.5-1,0.8-2,1l-2.3,0.5
	l-1-5.1L201.7,50.4z"/>
<polygon id="XMLID_42_" class="st1" points="129.7,62.3 131.1,70.3 131,70.3 125.4,63 121.8,63.7 124.3,78.3 127.7,77.7 126.2,69.7 
	126.3,69.6 131.9,76.9 135.6,76.3 133,61.7 "/>
<polygon id="XMLID_41_" class="st1" points="143.7,59.8 133.9,61.5 134.4,64.3 137.7,63.8 139.7,75.5 143.1,74.9 141,63.2 
	144.2,62.6 "/>
<path id="XMLID_37_" class="st1" d="M111.9,58.7l-1-5.4l1-0.2l3.6,4.9l4-0.7l3-0.5l0.2-3l3.6-0.6l1.2,2.8l3.6-0.7l-6.6-14l-4.3,0.8
	l-1.4,14.6l-3.7-4.5c1.7-1,2.1-2.8,1.7-4.7c-0.4-2.3-2-4.4-5.3-3.8l-5.7,1l2.6,14.6L111.9,58.7z M123.2,46L123.2,46l1.9,4.4
	l-2.3,0.4L123.2,46z M111.4,46.7c0.9-0.2,1.9-0.3,2.2,1.4c0.3,1.8-0.8,2-1.7,2.1l-1.5,0.3l-0.6-3.5L111.4,46.7z"/>
<rect id="XMLID_36_" x="67.6" y="77.8" transform="matrix(-0.1753 -0.9845 0.9845 -0.1753 9.7957 167.2841)" class="st1" width="14.8" height="3.4"/>
<polygon id="XMLID_35_" class="st1" points="117,76.7 116.4,73.4 121.3,72.6 120.8,69.8 115.9,70.6 115.4,67.7 121.1,66.7 
	120.6,63.9 111.6,65.5 114.1,80.1 123.4,78.4 122.9,75.6 "/>
<polygon id="XMLID_34_" class="st1" points="150.1,70.8 149.5,67.6 154.4,66.7 153.9,63.9 149,64.7 148.5,61.8 154.2,60.8 153.7,58 
	144.6,59.6 147.2,74.2 156.5,72.5 156,69.7 "/>
<path id="XMLID_33_" class="st1" d="M161.8,62.7c-1.7-0.5-2.5-0.7-2.7-1.7c-0.2-0.8,0.5-1.4,1.4-1.5c1-0.2,2.5-0.2,3.8,0l-0.5-2.8
	c-1.1-0.2-2.8-0.2-3.9,0.1c-2.1,0.4-4.7,1.8-4.2,4.7c0.4,2.3,1.9,3.3,4.2,4.1c1.7,0.6,2.6,0.8,2.8,1.9c0.2,1-0.6,1.5-1.6,1.7
	c-1.1,0.2-2.8,0.3-4.2,0.1l0.5,2.8c1.1,0.2,3.1,0.1,4.3-0.1c2.9-0.5,5-2.2,4.4-5.3C165.8,64.6,164.6,63.5,161.8,62.7z"/>
<polygon id="XMLID_32_" class="st1" points="99,48.9 101.1,60.6 104.4,60 102.3,48.3 105.5,47.7 105,44.9 95.3,46.6 95.8,49.4 "/>
<polygon id="XMLID_31_" class="st1" points="71.1,72.7 61.3,74.5 61.8,77.3 65,76.7 67.1,88.5 70.4,87.9 68.3,76.1 71.6,75.5 "/>
<polygon id="XMLID_30_" class="st1" points="62.5,60.9 62.5,60.9 65.8,66.9 68.7,66.4 69.7,59.6 69.8,59.6 70.9,66 74.2,65.4 
	71.6,50.8 67.6,51.6 66.4,61 66.3,61 61.7,52.6 57.7,53.3 60.3,67.9 63.6,67.3 "/>
<path id="XMLID_29_" class="st1" d="M89.5,51.6c-0.2-0.8,0.5-1.4,1.4-1.5c1-0.2,2.5-0.2,3.8,0l-0.5-2.8c-1.1-0.2-2.8-0.2-3.9,0.1
	c-2.1,0.4-4.7,1.8-4.2,4.7c0.4,2.3,1.9,3.3,4.2,4.1c1.7,0.6,2.6,0.8,2.8,1.9c0.2,1-0.6,1.5-1.6,1.7c-1.1,0.2-2.8,0.3-4.2,0.1
	l0.5,2.8c1.1,0.2,3.1,0.1,4.3-0.1c2.9-0.5,5-2.2,4.4-5.3c-0.3-1.9-1.6-3-4.3-3.8C90.5,52.8,89.7,52.6,89.5,51.6z"/>
<path id="XMLID_26_" class="st1" d="M78.6,49.4c-4.4,0.8-5.4,4.5-4.7,8.6c0.7,4.2,3,7.2,7.4,6.4c4.4-0.8,5.4-4.4,4.7-8.6
	C85.2,51.7,82.9,48.6,78.6,49.4z M80.7,61.6c-2.1,0.4-2.8-0.9-3.4-4.2c-0.6-3.2-0.3-4.8,1.8-5.1c2.1-0.4,2.9,1,3.4,4.2
	C83.1,59.7,82.8,61.2,80.7,61.6z"/>
<path id="XMLID_23_" class="st1" d="M104.2,66.8l-4.9,0.9l2.6,14.6l4.9-0.9c4.8-0.9,5.9-4.5,5.2-8.4C111.2,69,108.9,66,104.2,66.8z
	 M105.9,78.6l-1.3,0.2l-1.6-9l1.3-0.2c2.1-0.4,3.5,0.6,4.1,3.9C109.1,76.9,108,78.3,105.9,78.6z"/>
<path id="XMLID_19_" class="st1" d="M90.5,69.1l-1.3,14.1l-3.3-4.1c1.7-1,2.1-2.8,1.7-4.7c-0.4-2.3-2-4.4-5.3-3.8l-5.7,1l2.6,14.6
	l3.3-0.6l-1-5.4l1-0.2l3.6,5l4-0.7l2.6-0.5l0.2-3l3.6-0.6l1.2,2.8l3.6-0.7l-6.6-14L90.5,69.1z M82.5,77.2L81,77.5L80.4,74l1.6-0.3
	c0.9-0.2,1.9-0.3,2.2,1.4C84.5,76.9,83.3,77.1,82.5,77.2z M93.1,77.9l0.3-4.8l0,0l1.9,4.4L93.1,77.9z"/>
<path id="XMLID_14_" class="st1" d="M47.1,55.1l4.9,26.3c-17.5,2.5-34-8.9-37.9-26.1l25.2-4.7L38.9,48l-25.2,4.7
	c-2.5-17.5,8.9-34,26.1-37.9l4.7,25.1l2.6-0.5l-4.7-25.1c17.5-2.5,34,8.9,37.9,26.1l-25.3,4.2l0.5,2.6l39.2-6.7l-0.5-2.6l-5.4,1
	c-4.7-21.9-25.8-36.5-48-33.1L39.8,0l-2.6,0.5l1.1,5.8C16.3,11,1.8,32,5.2,54.2l-5.7,1L0,57.9l5.7-1c4.7,22,25.8,36.5,48,33.1l1,5.3
	l2.6-0.5l-7.5-40.1L47.1,55.1z M84.8,39.6L82.6,40C78.5,21.5,60.8,9.2,42,12l-0.4-2.2C61.6,6.8,80.5,19.9,84.8,39.6z M39,10.3
	l0.4,2.2c-18.5,4.1-30.8,21.8-28,40.6l-2.2,0.4C6.2,33.5,19.2,14.6,39,10.3z M52.9,85.9c-20,3-38.9-10.1-43.2-29.8l2.2-0.4
	c4.1,18.5,21.8,30.8,40.6,28L52.9,85.9z"/>
<rect id="XMLID_13_" x="168" y="59.9" transform="matrix(-0.1862 -0.9825 0.9825 -0.1862 148.1634 244.4066)" class="st1" width="14.6" height="1.8"/>
<path id="XMLID_12_" class="st1" d="M193.9,77.4c0.3-0.3,0.6-0.7,0.9-1c0.3-0.4,0.5-0.7,0.7-1.1c0.2-0.4,0.4-0.8,0.5-1.2
	c0.1-0.4,0.1-0.8,0-1.2c-0.1-0.4-0.2-0.7-0.4-0.9c-0.2-0.3-0.4-0.5-0.6-0.6s-0.5-0.2-0.8-0.3c-0.3,0-0.6,0-0.9,0
	c-0.2,0-0.3,0.1-0.5,0.1c-0.2,0.1-0.4,0.1-0.5,0.2c-0.2,0.1-0.4,0.1-0.5,0.2c-0.2,0.1-0.3,0.2-0.4,0.2l0.2,1.2
	c0.6-0.3,1.1-0.6,1.6-0.7c0.4-0.1,0.7,0,1,0.1c0.3,0.1,0.5,0.4,0.6,0.9c0.1,0.3,0,0.5,0,0.8c-0.1,0.3-0.2,0.5-0.3,0.8
	c-0.1,0.3-0.3,0.6-0.5,0.8c-0.2,0.3-0.4,0.5-0.6,0.8c-0.2,0.3-0.4,0.5-0.6,0.8c-0.2,0.2-0.4,0.5-0.6,0.7l0.2,0.9l4.9-1l-0.2-1.2
	L193.9,77.4z"/>
<path id="XMLID_9_" class="st1" d="M202.5,71.6c-0.2-0.4-0.4-0.8-0.7-1.1c-0.3-0.3-0.6-0.5-1-0.6c-0.4-0.1-0.8-0.1-1.3,0
	c-0.5,0.1-0.9,0.3-1.2,0.5c-0.3,0.3-0.5,0.6-0.7,0.9c-0.2,0.4-0.2,0.8-0.3,1.3c0,0.5,0,1,0.1,1.5c0.1,0.6,0.3,1,0.5,1.5
	c0.2,0.4,0.4,0.8,0.7,1.1c0.3,0.3,0.6,0.5,1,0.6c0.4,0.1,0.8,0.1,1.3,0c0.5-0.1,0.9-0.3,1.2-0.5c0.3-0.2,0.5-0.6,0.7-0.9
	c0.2-0.4,0.2-0.8,0.3-1.3c0-0.5,0-1-0.1-1.5C202.8,72.5,202.7,72,202.5,71.6z M201.7,75.4c0,0.2-0.1,0.4-0.3,0.6
	c-0.1,0.1-0.4,0.2-0.7,0.3c-0.3,0.1-0.5,0.1-0.7,0c-0.2-0.1-0.4-0.2-0.5-0.4c-0.1-0.2-0.3-0.5-0.3-0.8c-0.1-0.3-0.2-0.7-0.3-1.1
	c-0.1-0.4-0.1-0.8-0.2-1.1s0-0.6,0-0.9c0-0.2,0.1-0.4,0.3-0.6c0.2-0.1,0.4-0.2,0.7-0.3c0.3-0.1,0.5,0,0.7,0c0.2,0.1,0.4,0.2,0.5,0.4
	c0.1,0.2,0.3,0.5,0.3,0.8c0.1,0.3,0.2,0.7,0.3,1.1c0.1,0.4,0.2,0.8,0.2,1.2C201.7,74.8,201.7,75.1,201.7,75.4z"/>
<polygon id="XMLID_8_" class="st1" points="204.9,68.8 203.2,70.1 203.8,71 204.8,70.3 206,76.2 207.4,75.9 205.9,68.6 "/>
<path id="XMLID_4_" class="st1" d="M213.6,72.7c-0.1-0.4-0.3-0.7-0.6-0.9s-0.7-0.4-1.2-0.6l0,0c0.3-0.3,0.6-0.5,0.8-0.9
	c0.2-0.3,0.2-0.7,0.1-1.1c-0.1-0.3-0.2-0.5-0.4-0.7c-0.2-0.2-0.4-0.4-0.7-0.5c-0.3-0.1-0.5-0.2-0.9-0.2c-0.3,0-0.6,0-0.9,0.1
	c-0.3,0.1-0.6,0.2-0.9,0.3c-0.3,0.1-0.5,0.3-0.7,0.5c-0.2,0.2-0.4,0.4-0.5,0.7c-0.1,0.3-0.1,0.6,0,0.9c0.1,0.4,0.3,0.7,0.5,0.9
	c0.3,0.2,0.6,0.4,1.1,0.6l0,0c-0.5,0.3-0.8,0.7-1,1c-0.2,0.4-0.2,0.7-0.1,1.1c0.1,0.3,0.2,0.6,0.4,0.8c0.2,0.2,0.4,0.4,0.7,0.5
	c0.3,0.1,0.6,0.2,0.9,0.2c0.3,0,0.7,0,1.1-0.1c0.4-0.1,0.7-0.2,1.1-0.4c0.3-0.2,0.6-0.3,0.8-0.6c0.2-0.2,0.3-0.5,0.4-0.7
	C213.7,73.3,213.7,73,213.6,72.7z M209.2,70c0-0.2,0-0.5,0.1-0.7c0.1-0.2,0.4-0.4,0.8-0.4c0.4-0.1,0.6,0,0.9,0.1s0.3,0.3,0.4,0.6
	c0,0.1,0,0.3,0,0.4c0,0.1-0.1,0.2-0.2,0.4c-0.1,0.1-0.2,0.2-0.3,0.3c-0.1,0.1-0.2,0.2-0.3,0.2c-0.4,0-0.7-0.1-0.9-0.2
	C209.4,70.4,209.2,70.2,209.2,70z M212.1,73.7c-0.1,0.1-0.2,0.2-0.3,0.3c-0.1,0.1-0.3,0.2-0.6,0.2c-0.2,0-0.4,0.1-0.6,0
	c-0.2,0-0.3-0.1-0.4-0.2c-0.1-0.1-0.2-0.2-0.3-0.3c-0.1-0.1-0.1-0.2-0.1-0.4c0-0.2,0-0.3,0-0.4c0-0.1,0.1-0.3,0.2-0.4
	c0.1-0.1,0.2-0.2,0.3-0.3c0.1-0.1,0.2-0.2,0.4-0.3c0.2,0,0.4,0,0.5,0.1c0.2,0,0.3,0.1,0.5,0.2c0.1,0.1,0.3,0.2,0.4,0.3
	c0.1,0.1,0.2,0.3,0.2,0.4c0,0.1,0,0.3,0,0.4C212.2,73.4,212.1,73.6,212.1,73.7z"/>
</svg>
