<?xml version="1.0" encoding="utf-8"?>
<!-- Generator: Adobe Illustrator 19.0.0, SVG Export Plug-In . SVG Version: 6.00 Build 0)  -->
<svg version="1.1" id="Isolation_Mode" xmlns="http://www.w3.org/2000/svg" xmlns:xlink="http://www.w3.org/1999/xlink" x="0px"
	 y="0px" viewBox="-257 374 96.4 45" style="enable-background:new -257 374 96.4 45;" xml:space="preserve">
<style type="text/css">
	.st0{fill:none;}
	.st1{fill:#FCEE21;}
	.st2{fill:#FFFFFF;}
</style>
<g>
	<path class="st0" d="M-219.1,390.2c-0.1-0.1-0.2-0.1-0.4-0.1h-0.7v5.1h0.7c0.4,0,0.6-0.1,0.7-0.2c0.1,0,0.1-0.1,0.2-0.2
		c0,0,0,0,0-0.1c0,0,0,0,0,0c0-0.1,0-0.1,0-0.2c0,0,0-0.1,0-0.1v-3.3c0-0.3-0.1-0.6-0.2-0.7C-219,390.2-219.1,390.2-219.1,390.2z"/>
	<path class="st0" d="M-235.4,376.5h-0.4v1.3h0.4c0.5,0,0.8-0.2,0.7-0.6C-234.7,376.6-235,376.5-235.4,376.5z"/>
	<path class="st0" d="M-234.7,375.3c0-0.4-0.3-0.6-0.7-0.6h-0.3v1.2h0.3C-234.9,375.9-234.7,375.7-234.7,375.3z"/>
	<path class="st0" d="M-163.9,377.5c0,0.3,0.1,0.5,0.3,0.5c0.3,0,0.6-0.2,0.6-0.6v-0.6c-0.2,0.1-0.3,0.2-0.4,0.2
		C-163.8,377-163.9,377.2-163.9,377.5z"/>
	<path class="st0" d="M-197.4,377.4v-0.7c-0.1,0.1-0.3,0.2-0.4,0.2c-0.4,0-0.5,0.2-0.5,0.5c0,0.3,0.1,0.5,0.3,0.5
		S-197.5,377.8-197.4,377.4L-197.4,377.4z"/>
	<path class="st0" d="M-175.8,375.6c-0.3,0-0.4,0.4-0.4,0.7h-0.1v0.1h0.9C-175.4,375.9-175.4,375.6-175.8,375.6z"/>
	<path class="st0" d="M-237.9,390.3c-0.1-0.1-0.3-0.2-0.5-0.2c-0.3,0-0.4,0.1-0.5,0.2c-0.1,0.1-0.2,0.3-0.2,0.6l0.1,11.3
		c0,0.3,0.1,0.5,0.2,0.6c0.1,0.1,0.3,0.2,0.5,0.2s0.3-0.1,0.4-0.2c0.1-0.1,0.2-0.3,0.3-0.6l-0.1-11.3
		C-237.7,390.6-237.8,390.4-237.9,390.3z"/>
	<path class="st0" d="M-204.3,378c0.3,0,0.5-0.4,0.5-1.2c0-0.9-0.1-1.2-0.5-1.2c-0.5,0-0.5,0.5-0.5,1.2S-204.7,378-204.3,378z"/>
	<path class="st0" d="M-219.7,375.6c-0.3,0-0.4,0.4-0.4,0.7h-0.1v0.1h0.9C-219.3,375.9-219.3,375.6-219.7,375.6z"/>
	<polygon class="st0" points="-212.7,395 -212.8,395.8 -213.3,400.2 -212,400.3 -212.6,395.9 	"/>
	<path class="st0" d="M-211.5,377.5c0,0.3,0.1,0.5,0.3,0.5s0.5-0.2,0.5-0.6h0.1v-0.6c-0.2,0.1-0.3,0.2-0.4,0.2
		C-211.4,377-211.5,377.2-211.5,377.5z"/>
	<path class="st0" d="M-176.2,404.4h-1.5l0.1,11.2h1.6c0,0,0.3,0,0.4,0c0.8-0.1,1.1-0.7,1-1.8v-7.6
		C-174.6,405-175.2,404.4-176.2,404.4z"/>
	<path class="st0" d="M-176.1,390.9h-1.6l0.1,10.6h1.6c0,0,0.3,0,0.4,0c0.7-0.2,1.1-0.8,1.1-1.8v-7
		C-174.5,391.5-175.1,390.9-176.1,390.9z"/>
	<path class="st1" d="M-197.5,378.2c0,0.1,0,0.2,0.1,0.3h0.8c-0.1-0.2-0.1-0.3-0.1-0.6V376c0-0.6-0.2-1-1.2-1c-0.6,0-1.2,0.3-1.2,1
		v0.1h0.8V376c0-0.3,0.1-0.4,0.4-0.4c0.3,0,0.4,0.2,0.4,0.4s-0.1,0.3-0.4,0.4l-0.5,0.1c-0.6,0.2-0.8,0.5-0.8,1.1c0,0.4,0.2,1,0.8,1
		C-198,378.6-197.7,378.5-197.5,378.2z M-198,377.9c-0.2,0-0.3-0.2-0.3-0.5c0-0.3,0.1-0.5,0.5-0.5c0.1,0,0.3-0.1,0.4-0.2v0.7h-0.1
		C-197.5,377.8-197.8,377.9-198,377.9z"/>
	<path class="st1" d="M-233.7,377.2c0-0.6-0.3-1-0.8-1c0.4-0.2,0.7-0.6,0.7-1.1c0-0.9-0.5-1.1-1.3-1.1h-1.5v4.5h1.5
		C-234.1,378.5-233.7,377.9-233.7,377.2z M-235.7,374.7h0.3c0.4,0,0.7,0.2,0.7,0.6c0,0.4-0.2,0.6-0.7,0.6h-0.3V374.7z M-235.4,377.8
		h-0.4v-1.3h0.4c0.4,0,0.7,0.1,0.7,0.7C-234.6,377.6-234.9,377.8-235.4,377.8z"/>
	<rect x="-195.9" y="374" class="st1" width="0.9" height="4.5"/>
	<path class="st1" d="M-204.3,378.6c1-0.1,1.3-0.7,1.3-1.8c0-1.2-0.3-1.8-1.3-1.8s-1.3,0.6-1.3,1.8S-205.3,378.6-204.3,378.6z
		 M-204.3,375.6c0.4,0,0.5,0.3,0.5,1.2c0,0.8-0.2,1.2-0.5,1.2c-0.4,0-0.5-0.5-0.5-1.2S-204.8,375.6-204.3,375.6z"/>
	<path class="st1" d="M-201.5,376.2c0-0.4,0.2-0.6,0.5-0.6s0.4,0.1,0.4,0.5v2.3h0.9V376c0-0.7-0.3-1-0.9-1c-0.4,0-0.7,0.1-0.9,0.5
		v-0.4h-0.9v3.4h0.9V376.2z"/>
	<rect x="-188" y="374" class="st1" width="0.9" height="4.5"/>
	<polygon class="st1" points="-191.8,376.5 -190.3,376.5 -190.3,375.8 -191.8,375.8 -191.8,374.7 -190.2,374.7 -190.2,374 
		-192.7,374 -192.7,378.5 -191.8,378.5 	"/>
	<rect x="-207.1" y="375.1" class="st1" width="0.9" height="3.4"/>
	<polygon class="st1" points="-179,376.5 -177.5,376.5 -177.5,375.8 -179,375.8 -179,374.7 -177.4,374.7 -177.4,374 -179.9,374 
		-179.9,378.5 -179,378.5 	"/>
	<path class="st1" d="M-183,375c-0.4,0-0.7,0.2-0.8,0.5c-0.2-0.3-0.5-0.5-0.9-0.5c-0.4,0-0.6,0.1-0.8,0.4v-0.3h-0.9v3.4h0.9v-2.2
		c0-0.4,0.2-0.6,0.5-0.6c0.2,0,0.3,0.2,0.3,0.4v2.4h0.9v-2.2c0-0.4,0.2-0.6,0.4-0.6c0.2,0,0.3,0.2,0.3,0.4v2.4h0.9V376
		C-182.2,375.4-182.5,375-183,375z"/>
	<rect x="-189.6" y="375.1" class="st1" width="0.9" height="3.4"/>
	<rect x="-227.7" y="374" class="st1" width="0.9" height="4.5"/>
	<polygon class="st1" points="-232.1,376.5 -231.1,376.5 -231.1,378.5 -230.2,378.5 -230.2,374 -231.1,374 -231.1,375.7 
		-232.1,375.7 -232.1,374 -233,374 -233,378.5 -232.1,378.5 	"/>
	<path class="st1" d="M-224.2,375c-0.4,0-0.7,0.1-0.9,0.5v-0.4h-0.9v3.4h0.9v-2.3c0-0.4,0.2-0.6,0.5-0.6c0.3,0,0.4,0.1,0.4,0.5v2.3
		h0.9V376C-223.3,375.3-223.6,375-224.2,375z"/>
	<path class="st1" d="M-217,375.5v-0.4h-0.8v3.4h0.9v-2c0-0.5,0.3-0.6,0.6-0.6h0.3V375h-0.2C-216.6,375-216.8,375.2-217,375.5z"/>
	<path class="st1" d="M-214.6,376.2c0-0.4,0.2-0.6,0.5-0.6c0.3,0,0.4,0.1,0.4,0.5v2.3h0.7V376c0-0.7-0.3-1-0.9-1
		c-0.4,0-0.7,0.1-0.9,0.5v-0.4h-0.7v3.4h0.9V376.2z"/>
	<path class="st1" d="M-211.1,376.4l-0.5,0.1c-0.6,0.2-0.8,0.4-0.8,1.1c0,0.4,0.2,1,0.8,1c0.4,0,0.7-0.1,0.9-0.4
		c0,0.1,0,0.2,0.1,0.3h0.8c-0.1-0.2-0.1-0.3-0.1-0.6V376c0-0.6-0.2-1-1.2-1c-0.6,0-1.2,0.3-1.2,1v0.1h0.8V376c0-0.3,0.1-0.4,0.4-0.4
		c0.3,0,0.4,0.2,0.4,0.4S-210.8,376.3-211.1,376.4z M-210.6,376.8v0.6h-0.1c0,0.4-0.3,0.6-0.5,0.6s-0.3-0.2-0.3-0.5s0.1-0.5,0.5-0.5
		C-210.9,377-210.8,376.9-210.6,376.8z"/>
	<path class="st1" d="M-207.5,378.5v-0.6h-0.2c-0.3,0-0.3-0.1-0.3-0.4v-1.8h0.5v-0.6h-0.5v-1h-0.9v1h-0.4v0.6h0.4v1.9
		c0,0.7,0.1,0.9,0.8,0.9C-207.9,378.5-207.7,378.5-207.5,378.5z"/>
	<path class="st1" d="M-219.5,378.5c0.8,0,1.2-0.4,1.2-1.2h-0.8c-0.1,0.4-0.2,0.7-0.5,0.7c-0.3,0-0.4-0.4-0.4-0.8v-0.3h1.7v-0.2
		c0-1-0.2-1.7-1.2-1.7c-1.2,0-1.3,0.8-1.3,1.7C-220.8,377.5-220.7,378.5-219.5,378.5z M-220.2,376.3h0.1c0-0.3,0.1-0.7,0.4-0.7
		c0.4,0,0.4,0.3,0.4,0.8h-0.9V376.3z"/>
	<path class="st1" d="M-221.2,378.5v-0.6h-0.2c-0.3,0-0.3-0.1-0.3-0.4v-1.8h0.5v-0.6h-0.5v-1h-0.9v1h-0.4v0.6h0.4v1.9
		c0,0.7,0.1,0.9,0.8,0.9C-221.6,378.5-221.4,378.5-221.2,378.5z"/>
	<path class="st1" d="M-175.7,378.5c0.8,0,1.2-0.4,1.2-1.2h-0.8c-0.1,0.4-0.2,0.7-0.5,0.7s-0.4-0.4-0.4-0.8v-0.3h1.7v-0.2
		c0-1-0.2-1.7-1.2-1.7c-1.2,0-1.3,0.8-1.3,1.7C-177,377.5-177,378.5-175.7,378.5z M-176.3,376.3L-176.3,376.3
		c0.1-0.3,0.2-0.7,0.5-0.7c0.4,0,0.4,0.3,0.4,0.8h-0.9V376.3z"/>
	<polygon class="st1" points="-165.8,378.5 -165,375.1 -165.8,375.1 -166.3,377.5 -166.8,375.1 -167.7,375.1 -166.8,378.5 	"/>
	<path class="st1" d="M-163.4,376.4l-0.5,0.1c-0.6,0.2-0.9,0.4-0.9,1.1c0,0.4,0.2,1,0.8,1c0.4,0,0.7-0.1,0.9-0.4
		c0,0.1,0,0.2,0.1,0.3h0.8c-0.1-0.2-0.1-0.3-0.1-0.6V376c0-0.6-0.2-1-1.2-1c-0.6,0-1.2,0.3-1.2,1v0.1h0.8V376c0-0.3,0.1-0.4,0.4-0.4
		c0.4,0,0.5,0.2,0.5,0.4S-163.1,376.3-163.4,376.4z M-163,377.4c0,0.4-0.3,0.6-0.6,0.6c-0.2,0-0.3-0.2-0.3-0.5s0.1-0.5,0.5-0.5
		c0.1,0,0.2-0.1,0.4-0.2V377.4z"/>
	<rect x="-161.4" y="374" class="st1" width="0.9" height="4.5"/>
	<rect x="-169" y="375.1" class="st1" width="0.9" height="3.4"/>
	<path class="st1" d="M-172.9,378.6c0.7,0,1.2-0.3,1.2-1.1c0-0.5-0.2-0.8-0.7-1l-0.5-0.2c-0.3-0.1-0.4-0.2-0.4-0.4
		c0-0.2,0.2-0.4,0.4-0.4c0.3,0,0.4,0.2,0.4,0.5h0.8c0-0.6-0.4-1-1.1-1c-0.9,0-1.2,0.5-1.2,1s0.2,0.8,0.7,0.9l0.6,0.2
		c0.2,0.1,0.3,0.2,0.3,0.4c0,0.3-0.2,0.4-0.4,0.4c-0.3,0-0.4-0.2-0.4-0.5h-0.9v0.1C-174.1,378.1-173.8,378.6-172.9,378.6z"/>
	<path class="st1" d="M-169.4,378.5v-0.6h-0.2c-0.3,0-0.3-0.1-0.3-0.4v-1.8h0.5v-0.6h-0.6v-1h-0.8v1h-0.4v0.6h0.4v1.9
		c0,0.7,0.1,0.9,0.8,0.9C-169.8,378.5-169.6,378.5-169.4,378.5z"/>
	<path class="st2" d="M-229.3,399.7c0-0.6-0.2-1.3-0.6-2c-0.3-0.5-0.6-1-1-1.5c-0.4-0.5-0.7-1-1-1.4c-0.4-0.7-0.5-1.3-0.5-1.9V391
		c0-0.3,0.1-0.5,0.1-0.6c0.1-0.1,0.2-0.2,0.4-0.2l0.1,0.1c0,0.1,0.1,0.3,0.1,0.6v2.7h0.2h1.8h0.2v-1.7c0-0.3,0-0.5,0-0.8
		c0-0.2,0-0.3-0.1-0.4v-0.2c0-0.2-0.1-0.3-0.1-0.5v-0.1c-0.1-0.2-0.1-0.3-0.2-0.5c0,0,0-0.1-0.1-0.2l-0.1-0.1l-0.1-0.1l-0.1-0.1
		l-0.2-0.2l-0.1-0.1c-0.2-0.1-0.3-0.2-0.5-0.2c-0.1,0-0.2,0-0.3-0.1c-0.1,0-0.1,0-0.2,0c0,0-0.1,0-0.1,0c-0.1,0-0.1,0-0.2,0
		c-0.1,0-0.1,0-0.2,0h-0.1h-0.1h-0.1h-0.1h-0.1h-0.1h-0.1h-0.1l-0.1,0.1h-0.1h-0.1c-0.1,0.1-0.2,0.2-0.3,0.3
		c-0.1,0.1-0.2,0.3-0.3,0.4c-0.4,0.6-0.6,1.6-0.6,2.8v1.1v0.5c0,0.6,0.2,1.3,0.6,2c0.3,0.5,0.6,1,1,1.5c0.4,0.5,0.8,1,1,1.4
		c0.3,0.7,0.5,1.3,0.5,1.9v1.9c0,0.3,0,0.5-0.1,0.6c0,0-0.1,0.1-0.1,0.1c-0.1,0-0.2,0-0.2,0l-0.1-0.1c-0.1-0.1-0.1-0.3-0.1-0.6v-2.7
		V399h-2v0.1h-0.3v1.7v0.5c0,0.3,0,0.6,0,0.8c0.1,0.1,0.1,0.3,0.1,0.4v0.2c0,0.2,0,0.3,0.1,0.5v0.1c0.1,0.2,0.1,0.4,0.2,0.5
		c0,0,0,0.1,0.1,0.2l0.1-0.1l0.1,0.1l0.1,0.1l0.2,0.2l0.1,0.1h0.1c0.1,0,0.1,0,0.2,0.1l0,0h0c0,0,0.1,0,0.1,0.1
		c0.1,0,0.1,0.1,0.2,0.1c0.1,0,0.1,0,0.2,0c0.1,0,0.2,0.1,0.3,0.1c0.1,0,0.2,0,0.3,0c0.1,0,0.2,0,0.4,0h0.1h0.1h0.1h0.1h0.1h0.1
		l0.1-0.1h0.1h0.1c0.1-0.1,0.2-0.2,0.3-0.2c0.1-0.1,0.2-0.2,0.3-0.4c0.4-0.7,0.6-1.6,0.6-2.8l-0.2-1.2V399.7z"/>
	<path class="st2" d="M-201.7,388.5c-0.6-0.3-1.3-0.5-2.1-0.5c-3.1,0-4.7,2.3-4.7,6.7l0.1,17.4c0,2.9,0.7,4.9,1.9,5.9
		c0.7,0.6,1.7,1,2.9,1c2.4,0,3.8-1.4,4.3-4.3v-0.1l0.1-0.6c0.1-0.6,0.1-1.2,0.1-1.9v-3.8h-0.1v-0.1h-2.9v5.8c0,0.1,0,0.2,0,0.3v0.2
		c-0.1,0.7-0.4,1.1-0.9,1.3h-0.2c-0.1,0-0.3,0-0.4,0c-0.5,0-0.8-0.1-1.1-0.4c-0.3-0.3-0.4-0.7-0.4-1.3l-0.1-21.2
		c0-1.2,0.5-1.8,1.5-1.8c0.7,0,1.2,0.3,1.4,0.9c0.1,0.2,0.1,0.5,0.1,0.8v4.8h0.1v0.1h3v-2.8C-199.1,391.5-200,389.3-201.7,388.5z"/>
	<polygon class="st2" points="-197.9,387.9 -197.8,404.7 -195.8,404.7 -195.9,387.9 	"/>
	<polygon class="st2" points="-226,388.1 -228.6,388.1 -228.6,390.1 -227,390.1 -226.9,404.9 -224.9,404.9 -225,390.1 -223.3,390.1 
		-223.3,388.1 -225.9,388.1 	"/>
	<polygon class="st2" points="-247.4,374 -249.8,396.2 -252.5,374.1 -257,374.1 -256.8,405.1 -254,405.1 -254.2,380.9 -251,405 
		-248.4,405 -245.5,380.8 -245.3,405 -242.6,405 -242.8,374 	"/>
	<polygon class="st2" points="-190.4,387.8 -190.3,397.2 -192,387.8 -194.3,387.9 -194.2,404.7 -192.4,404.7 -192.5,395.3 
		-190.7,404.7 -188.4,404.7 -188.5,387.8 	"/>
	<polygon class="st2" points="-184.9,397.1 -183.4,397 -183.5,395 -184.9,395 -184.9,389.8 -182.4,389.8 -182.4,387.8 -187,387.8 
		-186.9,404.7 -182.3,404.6 -182.3,402.6 -184.8,402.6 	"/>
	<polygon class="st2" points="-163.9,387.7 -163.8,401.3 -166.9,401.4 -167,387.7 -170.1,387.7 -169.9,418.7 -166.8,418.7 
		-166.9,404.5 -163.8,404.4 -163.7,418.7 -160.6,418.7 -160.8,387.7 	"/>
	<path class="st2" d="M-217,395.6c0.1-0.2,0.1-0.3,0.1-0.3c0.2-0.5,0.3-1.2,0.3-1.9v-1.8c0-1.2-0.2-2.1-0.7-2.7
		c-0.5-0.6-1.3-0.9-2.2-0.9h-2.7l0.1,16.8h2v-7.6h0.5l1.1,7.6h2l-1.3-8C-217.4,396.5-217.2,396.1-217,395.6z M-218.6,394.4
		c0,0,0,0.1,0,0.1c0,0.1,0,0.1,0,0.2c0,0,0,0,0,0c0,0,0,0,0,0.1c0,0.1-0.1,0.2-0.2,0.2c-0.1,0.1-0.3,0.2-0.7,0.2h-0.7v-5.1h0.7
		c0.2,0,0.3,0,0.4,0.1c0,0,0.1,0,0.3,0.2c0.1,0.1,0.2,0.4,0.2,0.7V394.4z"/>
	<path class="st2" d="M-173,402.5C-173.1,402.6-172.9,402.5-173,402.5L-173,402.5z"/>
	<path class="st2" d="M-171.4,408.7v-0.2v-0.3c0-2.8-0.8-4.5-2.2-5.3c0.2-0.1,0.4-0.2,0.6-0.4c0.4-0.3,0.7-0.8,1-1.4
		c0.4-0.9,0.6-2.1,0.6-3.5v-3.1c0-4.5-1.6-6.8-4.7-6.8h-4.6l0.2,30v0.1v0.8h4.6c1.2,0,2.1-0.3,2.8-1c0.3-0.2,0.5-0.6,0.5-0.6
		c0.8-1.1,1.3-2.9,1.2-5.3V408.7z M-174.6,413.8c0.1,1.1-0.2,1.7-1,1.8c-0.1,0-0.4,0-0.4,0h-1.6l-0.1-11.2h1.5c1,0,1.6,0.6,1.6,1.8
		V413.8z M-174.5,399.7c0,1-0.4,1.6-1.1,1.8c-0.1,0-0.4,0-0.4,0h-1.6l-0.1-10.6h1.6c1,0,1.6,0.6,1.6,1.8V399.7z"/>
	<path class="st2" d="M-235.9,390.8c-0.1-0.6-0.3-1.2-0.5-1.6l-0.2-0.2l-0.1-0.1c-0.1-0.1-0.2-0.2-0.2-0.2c-0.4-0.4-1-0.5-1.6-0.5
		c-0.1,0-0.2,0-0.4,0c-0.4,0-0.7,0.2-1,0.3h-0.1c-0.2,0.2-0.4,0.4-0.6,0.6c-0.4,0.7-0.6,1.6-0.6,2.8c0,0,0.1,9.4,0.1,9.7
		c0,0.2,0,0.5,0.1,0.7c0.1,0.6,0.3,1.2,0.5,1.6l0.1,0.2l0.1,0.1l0.2,0.2c0.4,0.4,1,0.5,1.6,0.5c0,0,0.1,0,0.1,0c0.1,0,0.2,0,0.3,0
		c0,0,0.1,0,0.1,0c0.4,0,0.7-0.2,1-0.3h0.1c0.2-0.2,0.4-0.4,0.6-0.6c0.4-0.7,0.6-1.6,0.6-2.8c0,0-0.1-9.5-0.1-9.7
		C-235.8,391.2-235.8,391-235.9,390.8z M-237.9,402.8c-0.1,0.1-0.2,0.2-0.4,0.2s-0.4-0.1-0.5-0.2c-0.1-0.1-0.2-0.3-0.2-0.6
		l-0.1-11.3c0-0.3,0.1-0.5,0.2-0.6c0.1-0.1,0.2-0.2,0.5-0.2c0.2,0,0.4,0.1,0.5,0.2c0.1,0.1,0.2,0.3,0.2,0.6l0.1,11.3
		C-237.7,402.5-237.8,402.7-237.9,402.8z"/>
	<path class="st2" d="M-213.8,388l-2.1,16.9h2l0.3-2.5h1.8l0.3,2.5h2l-2.3-16.9H-213.8z M-213.3,400.2l0.5-4.4l0.1-0.8l0.1,0.9
		l0.6,4.4L-213.3,400.2z"/>
</g>
</svg>
