<?xml version="1.0" encoding="utf-8"?>
<!-- Generator: Adobe Illustrator 19.0.0, SVG Export Plug-In . SVG Version: 6.00 Build 0)  -->
<svg version="1.1" id="Layer_1" xmlns="http://www.w3.org/2000/svg" xmlns:xlink="http://www.w3.org/1999/xlink" x="0px" y="0px"
	 width="42.4px" height="21.2px" viewBox="0 0 42.4 21.2" style="enable-background:new 0 0 42.4 21.2;" xml:space="preserve">
<style type="text/css">
	.st0{fill:#0058A2;}
	.st1{fill:none;}
	.st2{fill:#FFFFFF;}
</style>
<g>
	<path id="XMLID_17_" class="st0" d="M39.6,21.2H2.8c-1.6,0-2.8-1.3-2.8-2.8v-12h42.4v12C42.4,19.9,41.1,21.2,39.6,21.2"/>
	<g>
		<polygon id="XMLID_16_" class="st1" points="23.6,11.3 23.5,11.3 22.7,13.7 24.4,13.7 		"/>
		<path id="XMLID_15_" class="st1" d="M18.1,11.2h-0.5v1.7h0.5c0.6,0,1.1-0.2,1.1-0.8C19.2,11.4,18.7,11.2,18.1,11.2z"/>
		<polygon id="XMLID_14_" class="st1" points="35.8,11.3 35.8,11.3 34.9,13.7 36.6,13.7 		"/>
		<path id="XMLID_13_" class="st1" d="M12.1,15.1c1.1,0,1.5-1,1.5-2c0-1.1-0.4-2-1.5-2c-1.1,0-1.5,0.9-1.5,2
			C10.6,14.1,11,15.1,12.1,15.1z"/>
		<rect id="XMLID_12_" class="st0" width="42.4" height="1.4"/>
		<rect id="XMLID_11_" y="2.1" class="st0" width="42.4" height="2.8"/>
		<path id="XMLID_10_" class="st2" d="M2.8,13.1c0,2.3,2.1,3.2,3.9,3.2c0.9,0,1.5-0.1,2-0.2l-0.1-1.3c-0.5,0.2-1.1,0.3-1.7,0.3
			c-1.3,0-2.3-0.7-2.3-1.9c0-1.1,0.8-2,2.1-2c0.6,0,1.2,0.1,1.8,0.4l0.1-1.3c-0.7-0.2-1.3-0.3-2-0.3C4.5,9.9,2.8,11,2.8,13.1z"/>
		<path class="st2" d="M12.1,16.3c2.2,0,3.4-1.2,3.4-3.2c0-2-1.2-3.2-3.4-3.2c-2.2,0-3.4,1.2-3.4,3.2C8.7,15,9.9,16.3,12.1,16.3z
			 M12.1,11.1c1.1,0,1.5,0.9,1.5,2c0,1-0.4,2-1.5,2c-1.1,0-1.5-1-1.5-2C10.6,12,11,11.1,12.1,11.1z"/>
		<path class="st2" d="M18,10h-2.2v6.2h1.8V14h0.7c1.7,0,2.7-0.7,2.7-2C21,10.6,20.1,10,18,10z M18.1,12.8h-0.5v-1.7h0.5
			c0.6,0,1.1,0.2,1.1,0.8C19.2,12.6,18.7,12.8,18.1,12.8z"/>
		<path class="st2" d="M21.7,16.2l0.5-1.3h2.5l0.5,1.3h2L24.7,10h-2.2l-2.6,6.2H21.7z M23.5,11.3L23.5,11.3l0.8,2.4h-1.7L23.5,11.3z
			"/>
		<path id="XMLID_3_" class="st2" d="M30.5,11.1c0.5,0,1,0.1,1.5,0.3l0.1-1.3C31.6,10,31,9.9,30.3,9.9c-1.4,0-3,0.4-3,1.9
			c0,2.2,3.2,1.5,3.2,2.7c0,0.5-0.5,0.6-1.1,0.6c-0.7,0-1.4-0.2-1.9-0.4L27.5,16c0.6,0.2,1.4,0.3,2,0.3c1.5,0,3-0.4,3-2
			c0-2.2-3.2-1.6-3.2-2.6C29.3,11.2,30,11.1,30.5,11.1z"/>
		<path class="st2" d="M34.5,14.9h2.5l0.5,1.3h2L36.9,10h-2.2l-2.6,6.2H34L34.5,14.9z M35.8,11.3L35.8,11.3l0.8,2.4h-1.7L35.8,11.3z
			"/>
	</g>
</g>
</svg>
