<?xml version="1.0" encoding="utf-8"?>
<!-- Generator: Adobe Illustrator 19.0.0, SVG Export Plug-In . SVG Version: 6.00 Build 0)  -->
<svg version="1.1" id="Layer_1" xmlns="http://www.w3.org/2000/svg" xmlns:xlink="http://www.w3.org/1999/xlink" x="0px" y="0px"
	 width="112.4px" height="125px" viewBox="0 0 112.4 125" style="enable-background:new 0 0 112.4 125;" xml:space="preserve">
<style type="text/css">
	.st0{fill:#FFFFFF;stroke:#000000;stroke-width:0.15;stroke-miterlimit:10;}
	.st1{fill-rule:evenodd;clip-rule:evenodd;fill:url(#XMLID_143_);}
	.st2{fill-rule:evenodd;clip-rule:evenodd;fill:url(#XMLID_144_);}
	.st3{fill-rule:evenodd;clip-rule:evenodd;fill:#004388;}
</style>
<g id="XMLID_2_">
	<rect id="XMLID_38_" x="0" y="0" class="st0" width="112.4" height="125"/>
	<g id="XMLID_35_">
		<linearGradient id="XMLID_143_" gradientUnits="userSpaceOnUse" x1="13.9746" y1="69.6252" x2="98.916" y2="69.6252">
			<stop  offset="0" style="stop-color:#004519"/>
			<stop  offset="7.972604e-002" style="stop-color:#005C25"/>
			<stop  offset="0.1799" style="stop-color:#007230"/>
			<stop  offset="0.2753" style="stop-color:#008237"/>
			<stop  offset="0.3631" style="stop-color:#008D3C"/>
			<stop  offset="0.4407" style="stop-color:#00943F"/>
			<stop  offset="0.5" style="stop-color:#009640"/>
			<stop  offset="0.5593" style="stop-color:#00943F"/>
			<stop  offset="0.6369" style="stop-color:#008D3C"/>
			<stop  offset="0.7247" style="stop-color:#008237"/>
			<stop  offset="0.8201" style="stop-color:#007230"/>
			<stop  offset="0.9203" style="stop-color:#005C25"/>
			<stop  offset="1" style="stop-color:#004519"/>
		</linearGradient>
		<path id="XMLID_37_" class="st1" d="M14,85.5V60.8c35.4-21.2,49.5,14.2,84.9-7v24.6C63.5,99.7,49.4,64.3,14,85.5z"/>
		<linearGradient id="XMLID_144_" gradientUnits="userSpaceOnUse" x1="13.9746" y1="94.3486" x2="98.916" y2="94.3486">
			<stop  offset="0" style="stop-color:#6D6100"/>
			<stop  offset="7.972604e-002" style="stop-color:#948200"/>
			<stop  offset="0.1799" style="stop-color:#BDA400"/>
			<stop  offset="0.2753" style="stop-color:#DCBE00"/>
			<stop  offset="0.3631" style="stop-color:#F1CF00"/>
			<stop  offset="0.4407" style="stop-color:#FFDA00"/>
			<stop  offset="0.5" style="stop-color:#FFDD00"/>
			<stop  offset="0.5593" style="stop-color:#FFDA00"/>
			<stop  offset="0.6369" style="stop-color:#F1CF00"/>
			<stop  offset="0.7247" style="stop-color:#DCBE00"/>
			<stop  offset="0.8201" style="stop-color:#BDA400"/>
			<stop  offset="0.9203" style="stop-color:#948200"/>
			<stop  offset="1" style="stop-color:#6D6100"/>
		</linearGradient>
		<path id="XMLID_36_" class="st2" d="M14,110.3V85.5c35.4-21.2,49.5,14.2,84.9-7.1v24.8C63.5,124.4,49.4,89,14,110.3z"/>
	</g>
	<g id="XMLID_3_">
		<path id="XMLID_24_" class="st3" d="M88.1,24c-0.8,0-1.5,0.3-2,0.9c-0.6,0.7-0.9,1.8-0.9,3.1c0,1.2,0.2,2.2,0.7,3
			c0.6,1,1.4,1.6,2.5,1.6c0.8,0,1.5-0.3,2-1c0.6-0.7,0.8-1.7,0.8-3.1c0-1.2-0.3-2.2-0.8-3.1C89.9,24.5,89.1,24,88.1,24 M88.3,23.4
			c1.5,0,2.8,0.5,3.7,1.5c0.8,0.9,1.2,2,1.2,3.4c0,1.4-0.5,2.5-1.4,3.4c-0.9,0.9-2.1,1.4-3.5,1.4c-1.5,0-2.8-0.5-3.7-1.4
			c-0.9-0.9-1.3-2-1.3-3.3c0-1.4,0.5-2.6,1.4-3.6C85.6,23.9,86.8,23.4,88.3,23.4z M81.3,27.7l-0.8,1.7C79.9,30.8,79.4,32,79,33
			c0,0-0.1,0.1-0.2,0.1c-0.1,0-0.2,0-0.3-0.1c-0.2-0.7-0.4-1.3-0.6-1.8l-2.5-5.9c-0.2-0.5-0.4-0.8-0.5-0.9c-0.1-0.1-0.3-0.2-0.6-0.3
			L74,24c-0.1-0.1-0.1-0.1-0.1-0.2c0-0.1,0-0.1,0.1-0.2c0.6,0,1.1,0,1.7,0c0.5,0,1.1,0,1.8,0c0.1,0,0.1,0.1,0.1,0.2
			c0,0.1,0,0.2-0.1,0.2l-0.4,0.1c-0.3,0.1-0.4,0.1-0.4,0.3c0,0.1,0.2,0.7,0.7,1.9l1,2.5c0,0.1,0.3,0.7,0.8,1.8
			c0.5-1.2,1.3-3.1,2.3-5.6c0.1-0.2,0.1-0.4,0.1-0.5c0-0.1-0.1-0.2-0.4-0.3L81,24c0-0.1-0.1-0.1-0.1-0.2c0-0.1,0-0.1,0.1-0.2
			c0.6,0,1.1,0,1.5,0c0.5,0,1,0,1.4,0c0.1,0.1,0.1,0.2,0,0.4l-0.4,0.1c-0.4,0.1-0.7,0.3-0.9,0.6C82.5,25,82,26,81.3,27.7z
			 M73.1,25.6v5.2c0,0.7,0,1.2,0.1,1.3c0.1,0.1,0.3,0.2,0.6,0.3l0.3,0c0,0,0.1,0.1,0.1,0.2c0,0.1,0,0.2-0.1,0.2c-0.6,0-1.2,0-1.9,0
			c-0.6,0-1.3,0-1.9,0c-0.1,0-0.1-0.1-0.1-0.2c0-0.1,0-0.2,0.1-0.2l0.3,0c0.3,0,0.6-0.1,0.6-0.3c0.1-0.2,0.1-0.6,0.1-1.3v-5.2
			c0-0.7,0-1.2-0.1-1.3c-0.1-0.1-0.3-0.2-0.6-0.3l-0.3,0c0,0-0.1-0.1-0.1-0.2c0-0.1,0-0.2,0.1-0.2c0.6,0,1.2,0,1.9,0
			c0.6,0,1.2,0,1.9,0c0.1,0,0.1,0.1,0.1,0.2c0,0.1,0,0.2-0.1,0.2l-0.3,0c-0.3,0-0.6,0.1-0.6,0.3C73.2,24.5,73.1,24.9,73.1,25.6z
			 M64.9,30.8v-6.1c0-0.3,0-0.5-0.1-0.5c0-0.1-0.1-0.1-0.3-0.1h-0.8c-0.7,0-1.1,0.1-1.4,0.2c-0.3,0.2-0.5,0.5-0.8,1.1
			c0,0-0.1,0.1-0.2,0c-0.1,0-0.2-0.1-0.2-0.1c0.2-0.7,0.4-1.4,0.5-2.1c0,0,0.1-0.1,0.2-0.1c0.1,0,0.1,0,0.1,0.1
			c0,0.2,0.1,0.3,0.3,0.3c0.1,0,0.4,0.1,0.9,0.1h5.7c0.4,0,0.6,0,0.7-0.1c0.1,0,0.2-0.1,0.3-0.3c0.1,0,0.1-0.1,0.2-0.1
			c0.1,0,0.2,0,0.2,0.1c-0.1,0.3-0.1,0.7-0.2,1.2c0,0.5-0.1,0.8,0,1.1c0,0.1-0.1,0.1-0.2,0.1c-0.1,0-0.2,0-0.2-0.1
			c-0.1-0.6-0.3-0.9-0.5-1.1c-0.2-0.2-0.7-0.3-1.5-0.3h-0.8c-0.2,0-0.3,0-0.3,0.1c0,0.1-0.1,0.2-0.1,0.5v6.1c0,0.7,0,1.2,0.1,1.3
			c0.1,0.1,0.3,0.2,0.6,0.3l0.5,0.1c0,0,0.1,0.1,0.1,0.2c0,0.1,0,0.2-0.1,0.2c-0.8,0-1.5,0-2.1,0c-0.6,0-1.3,0-2.2,0
			c-0.1,0-0.1-0.1-0.1-0.2c0-0.1,0-0.2,0.1-0.2l0.6-0.1c0.3,0,0.6-0.1,0.7-0.3C64.8,32,64.9,31.6,64.9,30.8z M59.9,27.1v3.3
			c0,1.4,0,2.2,0,2.5c-0.1,0.1-0.3,0.2-0.5,0.2c-0.2-0.3-0.7-0.9-1.6-1.9l-3.3-3.7c-0.4-0.5-1-1.1-1.6-1.8c0,0,0,0.3,0,0.9v2.7
			c0,1.5,0.1,2.5,0.3,2.8c0.1,0.2,0.3,0.3,0.7,0.4l0.3,0c0.1,0,0.1,0.1,0.1,0.2c0,0.1,0,0.2-0.1,0.2c-0.5,0-1,0-1.6,0
			c-0.5,0-1,0-1.5,0c-0.1,0-0.1-0.1-0.1-0.2c0-0.1,0-0.2,0.1-0.2l0.3-0.1c0.2,0,0.3-0.1,0.4-0.1c0.1,0,0.2-0.1,0.3-0.2
			c0.1-0.3,0.2-1.2,0.2-2.8V26c0-0.6,0-1-0.1-1.1c0-0.2-0.2-0.4-0.4-0.6c-0.1-0.1-0.4-0.2-0.7-0.3l-0.2,0c0,0-0.1-0.1-0.1-0.2
			c0-0.1,0-0.2,0.1-0.2c0.3,0,0.8,0,1.7,0c0.3,0,0.6,0,1,0c0.2,0.5,1,1.5,2.3,2.9l1.4,1.5c0.6,0.7,1.3,1.4,2,2.2c0,0,0-0.1,0-0.3
			v-2.7c0-1.5-0.1-2.5-0.3-2.8c-0.1-0.2-0.3-0.3-0.7-0.4l-0.3,0c-0.1,0-0.1-0.1-0.1-0.2c0-0.1,0-0.2,0.1-0.2c0.6,0,1.1,0,1.6,0
			c0.5,0,1,0,1.5,0c0.1,0,0.1,0.1,0.1,0.2c0,0.1,0,0.2-0.1,0.2l-0.3,0.1c-0.2,0-0.3,0.1-0.4,0.1c-0.1,0-0.2,0.1-0.2,0.2
			C60,24.7,59.9,25.6,59.9,27.1z M44.7,30.8v-5.2c0-0.7,0-1.2-0.1-1.3c-0.1-0.1-0.3-0.2-0.6-0.3l-0.2,0c0,0-0.1-0.1-0.1-0.2
			c0-0.1,0-0.2,0.1-0.2c0.5,0,1.1,0,1.8,0h2.7c1.1,0,1.7,0,1.9,0c0,0.4,0.1,1.1,0.2,1.9c0,0.1-0.1,0.1-0.2,0.1c-0.1,0-0.2,0-0.3,0
			c-0.2-0.7-0.5-1.2-0.9-1.3c-0.3-0.1-0.7-0.1-1.1-0.1h-0.9c-0.3,0-0.5,0-0.5,0.1c-0.1,0.1-0.1,0.3-0.1,0.7v2.4c0,0.2,0,0.3,0,0.3
			c0,0,0.1,0.1,0.3,0.1h0.7c0.6,0,1,0,1.2-0.1c0.2-0.1,0.3-0.2,0.3-0.5l0.1-0.5c0.1,0,0.1-0.1,0.2-0.1c0.1,0,0.2,0,0.2,0.1
			c0,0.8,0,1.2,0,1.4c0,0.1,0,0.6,0,1.5c0,0-0.1,0.1-0.2,0.1c-0.1,0-0.2,0-0.2-0.1L48.9,29c0-0.3-0.2-0.5-0.4-0.5
			c-0.2-0.1-0.6-0.1-1.2-0.1h-0.7c-0.2,0-0.3,0-0.3,0.1c0,0,0,0.1,0,0.3v1.8c0,0.8,0.1,1.3,0.2,1.5c0.2,0.2,0.7,0.3,1.6,0.3
			c0.8,0,1.4-0.1,1.8-0.3c0.3-0.2,0.5-0.6,0.8-1.2c0.1,0,0.1-0.1,0.2,0c0.1,0,0.2,0.1,0.2,0.1c-0.1,0.8-0.3,1.5-0.6,2
			c-0.6,0-1.8,0-3.5,0h-1.6c-0.8,0-1.5,0-2.1,0c-0.1,0-0.1-0.1-0.1-0.2c0-0.1,0-0.2,0.1-0.2l0.5-0.1c0.3,0,0.6-0.1,0.6-0.3
			C44.6,32,44.7,31.6,44.7,30.8z M42.9,23.8c0,0.4,0.1,1.1,0.2,2.2c0,0.1-0.1,0.1-0.2,0.1c-0.1,0-0.2,0-0.2-0.1
			c-0.4-1.4-1.3-2-2.7-2c-1,0-1.8,0.3-2.5,1c-0.7,0.7-1.1,1.8-1.1,3.1c0,1.4,0.4,2.5,1.2,3.3c0.7,0.7,1.5,1.1,2.5,1.1
			c1.4,0,2.3-0.7,2.9-2.1c0.1-0.1,0.1-0.1,0.2-0.1c0.1,0,0.1,0.1,0.2,0.1c0,0.4-0.1,0.9-0.3,1.3c-0.1,0.4-0.3,0.7-0.4,0.8
			c-0.1,0-0.3,0.1-0.5,0.1c-0.7,0.2-1.5,0.3-2.2,0.3c-1.4,0-2.6-0.3-3.6-0.9c-1.3-0.9-2-2.2-2-3.9c0-1.6,0.6-2.8,1.8-3.7
			c1-0.8,2.3-1.2,3.9-1.2c0.8,0,1.6,0.1,2.4,0.3C42.6,23.7,42.8,23.8,42.9,23.8z M33,27.1v3.3c0,1.4,0,2.2,0,2.5
			c-0.1,0.1-0.3,0.2-0.5,0.2c-0.2-0.3-0.7-0.9-1.6-1.9l-3.3-3.7c-0.4-0.5-1-1.1-1.6-1.8c0,0,0,0.3,0,0.9v2.7c0,1.5,0.1,2.5,0.3,2.8
			c0.1,0.2,0.3,0.3,0.7,0.4l0.3,0c0.1,0,0.1,0.1,0.1,0.2c0,0.1,0,0.2-0.1,0.2c-0.5,0-1,0-1.6,0c-0.5,0-1,0-1.5,0
			c-0.1,0-0.1-0.1-0.1-0.2c0-0.1,0-0.2,0.1-0.2l0.3-0.1c0.2,0,0.3-0.1,0.4-0.1c0.1,0,0.2-0.1,0.3-0.2c0.1-0.3,0.2-1.2,0.2-2.8V26
			c0-0.6,0-1-0.1-1.1c0-0.2-0.2-0.4-0.4-0.6c-0.1-0.1-0.4-0.2-0.7-0.3l-0.2,0c0,0-0.1-0.1-0.1-0.2c0-0.1,0-0.2,0.1-0.2
			c0.3,0,0.8,0,1.7,0c0.3,0,0.6,0,1,0c0.2,0.5,1,1.5,2.3,2.9l1.4,1.5c0.6,0.7,1.3,1.4,2,2.2c0,0,0-0.1,0-0.3v-2.7
			c0-1.5-0.1-2.5-0.3-2.8c-0.1-0.2-0.3-0.3-0.7-0.4l-0.3,0c-0.1,0-0.1-0.1-0.1-0.2c0-0.1,0-0.2,0.1-0.2c0.6,0,1.1,0,1.6,0
			c0.5,0,1,0,1.5,0c0.1,0,0.1,0.1,0.1,0.2c0,0.1,0,0.2-0.1,0.2l-0.3,0.1c-0.2,0-0.3,0.1-0.4,0.1c-0.1,0-0.2,0.1-0.2,0.2
			C33,24.7,33,25.6,33,27.1z M22.5,25.6v5.2c0,0.7,0,1.2,0.1,1.3c0.1,0.1,0.3,0.2,0.6,0.3l0.3,0c0,0,0.1,0.1,0.1,0.2
			c0,0.1,0,0.2-0.1,0.2c-0.6,0-1.2,0-1.9,0c-0.6,0-1.3,0-1.9,0c-0.1,0-0.1-0.1-0.1-0.2c0-0.1,0-0.2,0.1-0.2l0.3,0
			c0.3,0,0.6-0.1,0.6-0.3c0.1-0.2,0.1-0.6,0.1-1.3v-5.2c0-0.7,0-1.2-0.1-1.3c-0.1-0.1-0.3-0.2-0.6-0.3l-0.3,0c0,0-0.1-0.1-0.1-0.2
			c0-0.1,0-0.2,0.1-0.2c0.6,0,1.2,0,1.9,0c0.6,0,1.2,0,1.9,0c0.1,0,0.1,0.1,0.1,0.2c0,0.1,0,0.2-0.1,0.2l-0.3,0
			c-0.3,0-0.6,0.1-0.6,0.3C22.6,24.5,22.5,24.9,22.5,25.6z"/>
		<path id="XMLID_11_" class="st3" d="M88,41h1.5c0.3,0,0.4,0,0.4-0.1c0,0,0-0.1-0.1-0.2L89.2,39c-0.1-0.3-0.2-0.7-0.4-1.1h0
			c0,0.1-0.1,0.4-0.3,0.9l-0.7,1.9c-0.1,0.1-0.1,0.3-0.1,0.3C87.7,41,87.8,41,88,41 M89.7,41.7h-1.9c-0.2,0-0.3,0-0.3,0
			c0,0-0.1,0.1-0.2,0.3l-0.6,1.7c-0.1,0.3-0.2,0.5-0.2,0.6c0,0.1,0.2,0.2,0.5,0.3l0.4,0.1c0,0,0.1,0.1,0.1,0.2c0,0.1,0,0.2-0.1,0.2
			c-0.3,0-0.8,0-1.5,0c-0.4,0-0.8,0-1.4,0c0,0-0.1-0.1-0.1-0.2c0-0.1,0-0.2,0.1-0.2l0.4-0.1c0.3-0.1,0.6-0.3,0.8-0.6
			c0.1-0.3,0.3-0.8,0.7-1.7l1.9-5c0.2-0.5,0.3-0.9,0.3-1c0.2,0,0.4-0.2,0.7-0.4c0.2-0.2,0.3-0.3,0.3-0.3c0.1,0,0.2,0,0.2,0.1
			c0.1,0.4,0.3,1.1,0.6,1.9l2,5.9c0.2,0.5,0.3,0.8,0.4,0.9c0.1,0.1,0.3,0.2,0.7,0.3l0.2,0c0.1,0,0.1,0.1,0.1,0.2
			c0,0.1,0,0.2-0.1,0.2c-0.6,0-1.2,0-1.8,0c-0.2,0-0.7,0-1.7,0c-0.1,0-0.1-0.1-0.1-0.2c0-0.1,0-0.1,0.1-0.2l0.3,0
			c0.3,0,0.5-0.1,0.5-0.3c0-0.1,0-0.2-0.1-0.4L90.2,42c-0.1-0.2-0.1-0.3-0.2-0.3C90,41.7,89.9,41.7,89.7,41.7z M79.6,37.1V40
			c0,0.2,0,0.4,0.1,0.4c0.1,0,0.3,0.1,0.6,0.1c1.3,0,2-0.7,2-2c0-0.6-0.2-1.1-0.5-1.5c-0.4-0.4-0.8-0.6-1.4-0.6
			c-0.4,0-0.6,0-0.6,0.1C79.6,36.5,79.6,36.7,79.6,37.1z M78,43.1v-5.1c0-0.7,0-1.1-0.1-1.3c-0.1-0.2-0.3-0.3-0.6-0.3l-0.4,0
			c0,0-0.1-0.1-0.1-0.2c0-0.1,0-0.1,0.1-0.2c0.9-0.1,2-0.1,3.2-0.1c1.2,0,2.1,0.2,2.7,0.5c0.8,0.4,1.2,1.1,1.2,2
			c0,1-0.6,1.7-1.7,2.2c-0.1,0-0.1,0.1,0,0.2c0.7,1.2,1.2,1.9,1.4,2.3c0.4,0.6,0.8,1.1,1.1,1.3c0.3,0.3,0.6,0.4,1,0.4
			c0.1,0.1,0.1,0.2,0,0.3c-0.2,0.1-0.5,0.1-0.9,0.1c-0.7,0-1.2-0.1-1.7-0.4c-0.4-0.3-0.8-0.7-1.3-1.4c-0.3-0.4-0.6-1.1-1.1-1.9
			c-0.1-0.2-0.2-0.3-0.3-0.4C80.4,41,80.2,41,80,41c-0.2,0-0.3,0-0.4,0c0,0-0.1,0.1-0.1,0.3v1.8c0,0.7,0,1.2,0.1,1.3
			c0.1,0.1,0.3,0.2,0.6,0.3l0.3,0c0,0,0.1,0.1,0.1,0.2c0,0.1,0,0.2-0.1,0.2c-0.6,0-1.2,0-1.9,0c-0.6,0-1.2,0-1.9,0
			c-0.1,0-0.1-0.1-0.1-0.2c0-0.1,0-0.2,0.1-0.2l0.3,0c0.3,0,0.6-0.1,0.6-0.3C77.9,44.2,78,43.8,78,43.1z M68.1,41.4v-3.6
			c0-0.7,0-1.2-0.1-1.3c-0.1-0.1-0.3-0.2-0.6-0.3l-0.2,0c0,0-0.1-0.1-0.1-0.2c0-0.1,0-0.2,0.1-0.2c0.6,0,1.2,0,1.8,0
			c0.6,0,1.3,0,1.9,0c0.1,0,0.1,0.1,0.1,0.2c0,0.1,0,0.2-0.1,0.2l-0.3,0c-0.3,0-0.6,0.1-0.6,0.3c-0.1,0.2-0.1,0.6-0.1,1.3v3.2
			c0,2.4,0.8,3.6,2.5,3.6c1.7,0,2.6-1.2,2.6-3.5v-1.8c0-1.5-0.1-2.5-0.3-2.8c-0.1-0.2-0.4-0.3-0.7-0.4l-0.3,0
			c-0.1,0-0.1-0.1-0.1-0.2c0-0.1,0-0.1,0.1-0.2c0.5,0,1,0,1.6,0c0.5,0,1,0,1.5,0c0.1,0,0.1,0.1,0.1,0.2c0,0.1,0,0.2-0.1,0.2
			l-0.3,0.1c-0.2,0-0.3,0.1-0.4,0.1c-0.1,0-0.2,0.1-0.3,0.2c-0.1,0.3-0.2,1.2-0.2,2.8V41c0,1.5-0.3,2.6-0.9,3.2
			C74,45,73,45.3,71.9,45.3c-1.3,0-2.3-0.3-2.9-0.9C68.4,43.8,68.1,42.8,68.1,41.4z M61.5,43.1V37c0-0.3,0-0.5-0.1-0.5
			c0-0.1-0.1-0.1-0.3-0.1h-0.8c-0.7,0-1.1,0.1-1.4,0.2c-0.3,0.2-0.5,0.5-0.8,1.1c0,0-0.1,0.1-0.2,0c-0.1,0-0.2-0.1-0.2-0.1
			c0.2-0.7,0.4-1.4,0.5-2.1c0,0,0.1-0.1,0.2-0.1c0.1,0,0.1,0,0.1,0.1c0,0.2,0.1,0.3,0.3,0.3c0.1,0,0.4,0.1,0.9,0.1h5.7
			c0.4,0,0.6,0,0.7-0.1c0.1,0,0.2-0.1,0.3-0.3c0.1,0,0.1-0.1,0.2-0.1c0.1,0,0.2,0,0.2,0.1c-0.1,0.3-0.1,0.7-0.2,1.2
			c0,0.5-0.1,0.8,0,1.1c0,0.1-0.1,0.1-0.2,0.1c-0.1,0-0.2,0-0.2-0.1c-0.1-0.6-0.3-0.9-0.5-1.1c-0.2-0.2-0.7-0.3-1.5-0.3h-0.8
			c-0.2,0-0.3,0-0.3,0.1c0,0.1-0.1,0.2-0.1,0.5v6.1c0,0.7,0,1.2,0.1,1.3c0.1,0.1,0.3,0.2,0.6,0.3l0.5,0.1c0,0,0.1,0.1,0.1,0.2
			c0,0.1,0,0.2-0.1,0.2c-0.8,0-1.5,0-2.1,0c-0.6,0-1.3,0-2.2,0c-0.1,0-0.1-0.1-0.1-0.2c0-0.1,0-0.2,0.1-0.2l0.6-0.1
			c0.3,0,0.6-0.1,0.7-0.3C61.5,44.2,61.5,43.8,61.5,43.1z M53.6,37.9v4.9c0,0.8,0.1,1.3,0.3,1.5c0.2,0.2,0.7,0.3,1.5,0.3
			c0.8,0,1.3-0.1,1.6-0.2c0.3-0.1,0.5-0.6,0.9-1.3c0.2-0.1,0.3-0.1,0.4,0.1c-0.2,0.8-0.4,1.5-0.6,2c-0.6,0-1.7,0-3.4,0h-1.5
			c-0.7,0-1.4,0-2,0c-0.1,0-0.1-0.1-0.1-0.2c0-0.1,0-0.2,0.1-0.2l0.4-0.1c0.3-0.1,0.6-0.1,0.6-0.3c0.1-0.2,0.1-0.6,0.1-1.3v-5.2
			c0-0.7,0-1.1-0.1-1.3c-0.1-0.2-0.3-0.3-0.7-0.3l-0.4-0.1c0,0-0.1-0.1-0.1-0.2c0-0.1,0-0.2,0.1-0.2c0.7,0,1.4,0,2,0
			c0.6,0,1.2,0,1.9,0c0.1,0,0.1,0.1,0.1,0.2c0,0.1,0,0.2-0.1,0.2l-0.3,0.1c-0.3,0.1-0.6,0.2-0.6,0.3C53.6,36.7,53.6,37.2,53.6,37.9z
			 M42,41.4v-3.6c0-0.7,0-1.2-0.1-1.3c-0.1-0.1-0.3-0.2-0.6-0.3l-0.2,0c0,0-0.1-0.1-0.1-0.2c0-0.1,0-0.2,0.1-0.2c0.6,0,1.2,0,1.8,0
			c0.6,0,1.3,0,1.9,0c0.1,0,0.1,0.1,0.1,0.2c0,0.1,0,0.2-0.1,0.2l-0.3,0c-0.3,0-0.6,0.1-0.6,0.3c-0.1,0.2-0.1,0.6-0.1,1.3v3.2
			c0,2.4,0.8,3.6,2.5,3.6c1.7,0,2.6-1.2,2.6-3.5v-1.8c0-1.5-0.1-2.5-0.3-2.8c-0.1-0.2-0.4-0.3-0.7-0.4l-0.3,0
			c-0.1,0-0.1-0.1-0.1-0.2c0-0.1,0-0.1,0.1-0.2c0.5,0,1,0,1.6,0c0.5,0,1,0,1.5,0c0.1,0,0.1,0.1,0.1,0.2c0,0.1,0,0.2-0.1,0.2
			l-0.3,0.1c-0.2,0-0.3,0.1-0.4,0.1c-0.1,0-0.2,0.1-0.3,0.2c-0.1,0.3-0.2,1.2-0.2,2.8V41c0,1.5-0.3,2.6-0.9,3.2
			c-0.7,0.7-1.6,1.1-2.7,1.1c-1.3,0-2.3-0.3-2.9-0.9C42.3,43.8,42,42.8,42,41.4z M40.4,36c0,0.4,0.1,1.1,0.2,2.2
			c0,0.1-0.1,0.1-0.2,0.1c-0.1,0-0.2,0-0.2-0.1c-0.4-1.4-1.3-2-2.7-2c-1,0-1.8,0.3-2.5,1c-0.7,0.7-1.1,1.8-1.1,3.1
			c0,1.4,0.4,2.5,1.2,3.3c0.7,0.7,1.5,1.1,2.5,1.1c1.4,0,2.3-0.7,2.9-2.1c0.1-0.1,0.1-0.1,0.2-0.1c0.1,0,0.1,0.1,0.2,0.1
			c0,0.4-0.1,0.9-0.3,1.3c-0.1,0.4-0.3,0.7-0.4,0.8c-0.1,0-0.3,0.1-0.5,0.1c-0.7,0.2-1.5,0.3-2.2,0.3c-1.4,0-2.6-0.3-3.6-0.9
			c-1.3-0.9-2-2.2-2-3.9c0-1.6,0.6-2.8,1.8-3.7c1-0.8,2.3-1.2,3.9-1.2c0.8,0,1.6,0.1,2.4,0.3C40.1,36,40.2,36,40.4,36z M24.6,35.4
			l-2.9-1c-0.2-0.1-0.4-0.2-0.4-0.3c0-0.1,0-0.4,0.2-0.7c0.1-0.1,0.2-0.2,0.3-0.2c0.1,0,0.2,0.1,0.4,0.2l2.5,1.7
			C24.8,35.3,24.7,35.4,24.6,35.4z M22.1,41h1.5c0.3,0,0.4,0,0.4-0.1c0,0,0-0.1-0.1-0.2L23.3,39c-0.1-0.3-0.2-0.7-0.4-1.1h0
			c0,0.1-0.1,0.4-0.3,0.9l-0.7,1.9c-0.1,0.1-0.1,0.3-0.1,0.3C21.8,41,21.9,41,22.1,41z M23.8,41.7h-1.9c-0.2,0-0.3,0-0.3,0
			c0,0-0.1,0.1-0.2,0.3l-0.6,1.7c-0.1,0.3-0.2,0.5-0.2,0.6c0,0.1,0.2,0.2,0.5,0.3l0.4,0.1c0,0,0.1,0.1,0.1,0.2c0,0.1,0,0.2-0.1,0.2
			c-0.3,0-0.8,0-1.5,0c-0.4,0-0.8,0-1.4,0c0,0-0.1-0.1-0.1-0.2c0-0.1,0-0.2,0.1-0.2l0.4-0.1c0.3-0.1,0.6-0.3,0.8-0.6
			c0.1-0.3,0.4-0.8,0.7-1.7l1.9-5c0.2-0.5,0.3-0.9,0.3-1c0.2,0,0.4-0.2,0.7-0.4c0.2-0.2,0.3-0.3,0.3-0.3c0.1,0,0.2,0,0.2,0.1
			c0.1,0.4,0.3,1.1,0.6,1.9l2,5.9c0.2,0.5,0.3,0.8,0.4,0.9c0.1,0.1,0.3,0.2,0.7,0.3l0.2,0c0.1,0,0.1,0.1,0.1,0.2
			c0,0.1,0,0.2-0.1,0.2c-0.6,0-1.2,0-1.8,0c-0.2,0-0.7,0-1.7,0c-0.1,0-0.1-0.1-0.1-0.2c0-0.1,0-0.1,0.1-0.2l0.3,0
			c0.3,0,0.5-0.1,0.5-0.3c0-0.1,0-0.2-0.1-0.4L24.3,42c-0.1-0.2-0.1-0.3-0.2-0.3C24.1,41.7,24,41.7,23.8,41.7z"/>
		<path id="XMLID_4_" class="st3" d="M71.9,18.9v-5.2c0-0.7,0-1.2-0.1-1.3c-0.1-0.1-0.3-0.2-0.6-0.3l-0.2,0c0,0-0.1-0.1-0.1-0.2
			c0-0.1,0-0.2,0.1-0.2c0.5,0,1.1,0,1.8,0h2.7c1.1,0,1.7,0,1.9,0c0,0.4,0.1,1.1,0.2,1.9c0,0.1-0.1,0.1-0.2,0.1c-0.1,0-0.2,0-0.3,0
			c-0.2-0.7-0.5-1.2-0.9-1.3c-0.3-0.1-0.7-0.1-1.1-0.1h-0.9c-0.3,0-0.5,0-0.5,0.1c-0.1,0.1-0.1,0.3-0.1,0.7v2.4c0,0.2,0,0.3,0,0.3
			c0,0,0.1,0.1,0.3,0.1h0.7c0.6,0,1,0,1.2-0.1c0.2-0.1,0.3-0.2,0.3-0.5l0.1-0.5c0.1,0,0.1-0.1,0.2-0.1c0.1,0,0.2,0,0.2,0.1
			c0,0.8,0,1.2,0,1.4c0,0.1,0,0.6,0,1.5c0,0-0.1,0.1-0.2,0.1c-0.1,0-0.2,0-0.2-0.1l-0.1-0.6c0-0.3-0.2-0.5-0.4-0.5
			c-0.2-0.1-0.6-0.1-1.2-0.1h-0.7c-0.2,0-0.3,0-0.3,0.1c0,0,0,0.1,0,0.3v1.8c0,0.8,0.1,1.3,0.2,1.5c0.2,0.2,0.7,0.3,1.6,0.3
			c0.8,0,1.4-0.1,1.8-0.3c0.3-0.2,0.5-0.6,0.8-1.2c0.1,0,0.1-0.1,0.2,0c0.1,0,0.2,0.1,0.2,0.1c-0.1,0.8-0.3,1.5-0.6,2
			c-0.6,0-1.8,0-3.5,0h-1.6c-0.8,0-1.5,0-2.1,0c-0.1,0-0.1-0.1-0.1-0.2c0-0.1,0-0.2,0.1-0.2l0.5-0.1c0.3,0,0.6-0.1,0.6-0.3
			C71.8,20.1,71.9,19.6,71.9,18.9 M62.3,13.4v4.9c0,0.8,0.1,1.3,0.2,1.6c0.2,0.4,0.7,0.5,1.3,0.5c1.2,0,2.1-0.4,2.7-1.2
			c0.6-0.7,0.9-1.7,0.9-3c0-1.3-0.4-2.4-1.1-3.1c-0.7-0.7-1.6-1-2.9-1c-0.6,0-1,0.1-1.1,0.2C62.3,12.5,62.3,12.8,62.3,13.4z
			 M60.7,18.9v-5.1c0-0.7,0-1.1-0.1-1.3c-0.1-0.2-0.3-0.3-0.6-0.3l-0.3,0c0,0-0.1-0.1-0.1-0.2c0-0.1,0-0.2,0.1-0.2
			c1-0.1,2.2-0.1,3.5-0.1c1.3,0,2.4,0.2,3.3,0.5c0.9,0.3,1.6,0.8,2.1,1.5c0.5,0.7,0.8,1.6,0.8,2.6c0,0.8-0.2,1.6-0.6,2.3
			c-0.4,0.8-1.1,1.3-1.9,1.8c-0.9,0.4-2,0.7-3.5,0.7c-0.3,0-0.7,0-1.1,0c-0.4,0-0.7,0-0.9,0c-0.6,0-1.2,0-1.8,0
			c-0.1,0-0.1-0.1-0.1-0.2c0-0.1,0-0.2,0.1-0.2l0.3,0c0.3,0,0.6-0.1,0.6-0.3C60.6,20.1,60.7,19.6,60.7,18.9z M53.8,13.7v5.2
			c0,0.7,0,1.2,0.1,1.3c0.1,0.1,0.3,0.2,0.6,0.3l0.3,0c0,0,0.1,0.1,0.1,0.2c0,0.1,0,0.2-0.1,0.2c-0.6,0-1.2,0-1.9,0
			c-0.6,0-1.3,0-1.9,0c-0.1,0-0.1-0.1-0.1-0.2c0-0.1,0-0.2,0.1-0.2l0.3,0c0.3,0,0.6-0.1,0.6-0.3c0.1-0.2,0.1-0.6,0.1-1.3v-5.2
			c0-0.7,0-1.2-0.1-1.3c-0.1-0.1-0.3-0.2-0.6-0.3l-0.3,0c0,0-0.1-0.1-0.1-0.2c0-0.1,0-0.2,0.1-0.2c0.6,0,1.2,0,1.9,0
			c0.6,0,1.2,0,1.9,0c0.1,0,0.1,0.1,0.1,0.2c0,0.1,0,0.2-0.1,0.2l-0.3,0c-0.3,0-0.6,0.1-0.6,0.3C53.8,12.5,53.8,13,53.8,13.7z
			 M43.8,18.9v-5.2c0-0.7,0-1.2-0.1-1.3c-0.1-0.1-0.3-0.2-0.6-0.3l-0.2,0c0,0-0.1-0.1-0.1-0.2c0-0.1,0-0.2,0.1-0.2
			c0.5,0,1.1,0,1.8,0h2.7c1.1,0,1.7,0,1.9,0c0,0.4,0.1,1.1,0.2,1.9c0,0.1-0.1,0.1-0.2,0.1c-0.1,0-0.2,0-0.3,0
			c-0.2-0.7-0.5-1.2-0.9-1.3c-0.3-0.1-0.7-0.1-1.1-0.1H46c-0.3,0-0.5,0-0.5,0.1c-0.1,0.1-0.1,0.3-0.1,0.7v2.4c0,0.2,0,0.3,0,0.3
			c0,0,0.1,0.1,0.3,0.1h0.7c0.6,0,1,0,1.2-0.1c0.2-0.1,0.3-0.2,0.3-0.5l0.1-0.5c0.1,0,0.1-0.1,0.2-0.1c0.1,0,0.2,0,0.2,0.1
			c0,0.8,0,1.2,0,1.4c0,0.1,0,0.6,0,1.5c0,0-0.1,0.1-0.2,0.1c-0.1,0-0.2,0-0.2-0.1L48,17.1c0-0.3-0.2-0.5-0.4-0.5
			c-0.2-0.1-0.6-0.1-1.2-0.1h-0.7c-0.2,0-0.3,0-0.3,0.1c0,0,0,0.1,0,0.3v1.8c0,0.8,0.1,1.3,0.2,1.5c0.2,0.2,0.7,0.3,1.6,0.3
			c0.8,0,1.4-0.1,1.8-0.3c0.3-0.2,0.5-0.6,0.8-1.2c0.1,0,0.1-0.1,0.2,0c0.1,0,0.2,0.1,0.2,0.1c-0.1,0.8-0.3,1.5-0.6,2
			c-0.6,0-1.8,0-3.5,0h-1.6c-0.8,0-1.5,0-2.1,0c-0.1,0-0.1-0.1-0.1-0.2c0-0.1,0-0.2,0.1-0.2l0.5-0.1c0.3,0,0.6-0.1,0.6-0.3
			C43.8,20.1,43.8,19.6,43.8,18.9z M37.4,13.7v4.9c0,0.8,0.1,1.3,0.3,1.5c0.2,0.2,0.7,0.3,1.5,0.3c0.8,0,1.3-0.1,1.6-0.2
			c0.3-0.1,0.5-0.6,0.9-1.3c0.2-0.1,0.3-0.1,0.4,0.1c-0.2,0.8-0.4,1.5-0.6,2c-0.6,0-1.7,0-3.4,0h-1.5c-0.7,0-1.4,0-2,0
			c-0.1,0-0.1-0.1-0.1-0.2c0-0.1,0-0.2,0.1-0.2l0.4-0.1c0.3-0.1,0.6-0.1,0.6-0.3c0.1-0.2,0.1-0.6,0.1-1.3v-5.2c0-0.7,0-1.1-0.1-1.3
			c-0.1-0.2-0.3-0.3-0.7-0.3L34.5,12c0,0-0.1-0.1-0.1-0.2c0-0.1,0-0.2,0.1-0.2c0.7,0,1.4,0,2,0c0.6,0,1.2,0,1.9,0
			c0.1,0,0.1,0.1,0.1,0.2c0,0.1,0,0.2-0.1,0.2l-0.3,0.1c-0.3,0.1-0.6,0.2-0.6,0.3C37.4,12.6,37.4,13,37.4,13.7z"/>
	</g>
</g>
</svg>
