<?xml version="1.0" encoding="utf-8"?>
<!-- Generator: Adobe Illustrator 19.0.0, SVG Export Plug-In . SVG Version: 6.00 Build 0)  -->
<svg version="1.1" id="Layer_1" xmlns="http://www.w3.org/2000/svg" xmlns:xlink="http://www.w3.org/1999/xlink" x="0px" y="0px"
	 width="61.3px" height="9px" viewBox="267.6 417.2 61.3 9" style="enable-background:new 267.6 417.2 61.3 9;"
	 xml:space="preserve">
<style type="text/css">
	.st0{fill:#E30613;}
	.st1{fill:#FFFFFF;}
</style>
<g id="XMLID_1_">
	<path id="XMLID_31_" class="st0" d="M327.3,418.5v-0.1h1.6v-1.2h-61.3v1.2h1.6v0.1h-1.6v1.2h1.6v0.1h-1.6v1.2h1.6v0.1h-1.6v1.2h1.6
		v0.1h-1.6v1.2h1.6v0.1h-1.6v1.2h1.6v0.1h-1.6v1.2h61.3V425h-1.6v-0.1h1.6v-1.2h-1.6v-0.1h1.6v-1.2h-1.6v-0.1h1.6v-1.2h-1.6V421h1.6
		v-1.2h-1.6v-0.1h1.6v-1.2L327.3,418.5L327.3,418.5z M276,420.4h-1.8c0.1-0.3,0-0.4-0.1-0.6c-0.1-0.1-0.3-0.2-0.7-0.2
		c-0.4,0-0.8,0.3-0.9,0.6c-0.1,0.5,0.4,0.6,0.9,0.8c1,0.3,2.6,0.4,2.2,2.2c-0.3,1.4-1.8,2-3.3,2s-2.8-0.4-2.4-2.2h1.8
		c-0.1,0.6,0.2,1,0.9,1c0.4,0,1-0.2,1.1-0.7c0.2-0.9-1.2-0.7-2.5-1.3c-0.6-0.3-0.8-0.9-0.7-1.6c0.4-1.6,1.9-2,3.2-2
		C275.2,418.4,276.4,418.9,276,420.4z M281.8,421.1l-0.3,1.3h-2.9l-0.3,1.4h3.2l-0.3,1.3h-5l1.4-6.6h5l-0.3,1.3h-3.2l-0.3,1.4
		L281.8,421.1L281.8,421.1z M288.6,420.4h-1.8c0.1-0.3,0-0.4-0.1-0.6c-0.1-0.1-0.3-0.2-0.7-0.2c-0.4,0-0.8,0.3-0.9,0.6
		c-0.1,0.5,0.4,0.6,0.9,0.8c1,0.3,2.6,0.4,2.2,2.2c-0.3,1.4-1.8,2-3.3,2s-2.8-0.4-2.4-2.2h1.8c-0.1,0.6,0.2,1,0.9,1
		c0.4,0,1-0.2,1.1-0.7c0.2-0.9-1.2-0.7-2.5-1.3c-0.6-0.3-0.8-0.9-0.7-1.6c0.4-1.6,1.9-2,3.2-2C287.8,418.4,289.1,418.9,288.6,420.4z
		 M290.7,425.1h-1.8l1.4-6.6h1.8L290.7,425.1z M294.8,425.2h-1.6v-0.1h1.6V425.2z M294.8,423.9h-1.6v-0.1h1.6V423.9z M294.8,422.5
		h-1.6v-0.1h1.6V422.5z M294.8,421.2h-1.6V421h1.6V421.2z M294.8,419.9h-1.6v-0.1h1.6V419.9z M294.8,418.5h-1.6v-0.1h1.6V418.5z
		 M300.6,422.6H298l-0.5,2.5h-1.8l1.4-6.6h4.6l-0.3,1.3h-2.8l-0.3,1.5h2.6L300.6,422.6z M301.1,425.1l1.4-6.6h1.8l-1.4,6.6H301.1z
		 M309.5,422.4h-2.9l-0.3,1.4h3.2l-0.3,1.3h-5l1.4-6.6h5l-0.3,1.3h-3.2l-0.3,1.4h2.9L309.5,422.4z M318,425.1h-1.6l1.2-5.5l0,0
		l-2.7,5.5h-1.6l-0.3-5.6l0,0l-1.2,5.5h-1.6l1.4-6.6h2.9l0.1,4.4l0,0l2-4.4h2.8L318,425.1z M326.6,420.5h-1.8c0-0.6-0.4-0.8-1-0.8
		c-1.2,0-1.9,1.1-2.1,2.1c-0.3,1.3,0.2,2.1,1.5,2.1c0.3,0,0.7-0.1,1-0.1l0.3-1.2H323l0.3-1.3h3.2l-0.7,3.5c-1.5,0.2-1.8,0.4-3.4,0.4
		c-2-0.1-3-1.4-2.6-3.4c0.4-2.1,2-3.4,4-3.4C325.4,418.3,327,418.6,326.6,420.5z"/>
	<path id="XMLID_63_" class="st1" d="M273.8,418.4c-1.4,0-2.8,0.4-3.2,2c-0.2,0.7,0,1.3,0.7,1.6c1.3,0.6,2.7,0.4,2.5,1.3
		c-0.1,0.4-0.7,0.7-1.1,0.7c-0.7,0-1-0.3-0.9-1H270c-0.4,1.8,0.9,2.2,2.4,2.2s3-0.7,3.3-2c0.4-1.8-1.2-1.9-2.2-2.2
		c-0.5-0.1-1-0.3-0.9-0.8c0.1-0.3,0.5-0.6,0.9-0.6c0.3,0,0.5,0.1,0.7,0.2c0.1,0.1,0.2,0.3,0.1,0.6h1.8
		C276.4,418.9,275.2,418.4,273.8,418.4z"/>
	<polygon id="XMLID_64_" class="st1" points="282.4,419.8 282.6,418.5 277.6,418.5 276.3,425.1 281.3,425.1 281.5,423.8 
		278.3,423.8 278.6,422.4 281.6,422.4 281.8,421.1 278.9,421.1 279.2,419.8 	"/>
	<path id="XMLID_65_" class="st1" d="M286.4,418.4c-1.4,0-2.8,0.4-3.2,2c-0.2,0.7,0,1.3,0.7,1.6c1.3,0.6,2.7,0.4,2.5,1.3
		c-0.1,0.4-0.7,0.7-1.1,0.7c-0.7,0-1-0.3-0.9-1h-1.8c-0.4,1.8,0.9,2.2,2.4,2.2s3-0.7,3.3-2c0.4-1.8-1.2-1.9-2.2-2.2
		c-0.5-0.1-1-0.3-0.9-0.8c0.1-0.3,0.5-0.6,0.9-0.6c0.3,0,0.5,0.1,0.7,0.2c0.1,0.1,0.2,0.3,0.1,0.6h1.8
		C289.1,418.9,287.8,418.4,286.4,418.4z"/>
	<polygon id="XMLID_66_" class="st1" points="288.9,425.1 290.7,425.1 292.1,418.5 290.3,418.5 	"/>
	<polygon id="XMLID_67_" class="st1" points="298.6,419.8 301.4,419.8 301.7,418.5 297,418.5 295.6,425.1 297.4,425.1 298,422.6 
		300.6,422.6 300.9,421.3 298.2,421.3 	"/>
	<polygon id="XMLID_68_" class="st1" points="302.5,418.5 301.1,425.1 303,425.1 304.3,418.5 	"/>
	<polygon id="XMLID_69_" class="st1" points="307.1,419.8 310.3,419.8 310.6,418.5 305.6,418.5 304.2,425.1 309.2,425.1 
		309.4,423.8 306.3,423.8 306.6,422.4 309.5,422.4 309.8,421.1 306.8,421.1 	"/>
	<polygon id="XMLID_70_" class="st1" points="314.6,423 314.6,423 314.5,418.5 311.6,418.5 310.2,425.1 311.8,425.1 313,419.5 
		313,419.5 313.2,425.1 314.9,425.1 317.6,419.6 317.6,419.6 316.4,425.1 318,425.1 319.4,418.5 316.6,418.5 	"/>
	<path id="XMLID_71_" class="st1" d="M323.8,418.4c-2.1,0.1-3.6,1.4-4,3.4c-0.4,2.1,0.5,3.4,2.6,3.4c1.6,0,1.9-0.1,3.4-0.4l0.7-3.5
		h-3.2l-0.3,1.3h1.3l-0.3,1.2c-0.3,0.1-0.6,0.1-1,0.1c-1.3,0-1.8-0.9-1.5-2.1c0.2-1.1,0.9-2.1,2.1-2.1c0.6,0,1.1,0.2,1,0.8h1.8
		C327,418.6,325.4,418.3,323.8,418.4z"/>
	<polygon id="XMLID_72_" class="st1" points="269.2,418.4 267.6,418.4 267.6,418.4 267.6,418.5 267.6,418.5 269.2,418.5 	"/>
	<polygon id="XMLID_73_" class="st1" points="269.2,419.7 267.6,419.7 267.6,419.7 267.6,419.9 267.6,419.9 269.2,419.9 	"/>
	<polygon id="XMLID_74_" class="st1" points="269.2,421 267.6,421 267.6,421 267.6,421.2 267.6,421.2 269.2,421.2 	"/>
	<polygon id="XMLID_75_" class="st1" points="269.2,422.4 267.6,422.4 267.6,422.4 267.6,422.5 267.6,422.5 269.2,422.5 	"/>
	<polygon id="XMLID_76_" class="st1" points="269.2,423.7 267.6,423.7 267.6,423.7 267.6,423.9 267.6,423.9 269.2,423.9 	"/>
	<polygon id="XMLID_77_" class="st1" points="269.2,425.1 267.6,425.1 267.6,425.1 267.6,425.2 267.6,425.2 269.2,425.2 	"/>
	<polygon id="XMLID_78_" class="st1" points="327.3,418.5 328.9,418.5 328.9,418.5 328.9,418.4 328.9,418.4 327.3,418.4 	"/>
	<polygon id="XMLID_79_" class="st1" points="327.3,419.9 328.9,419.9 328.9,419.9 328.9,419.7 328.9,419.7 327.3,419.7 	"/>
	<polygon id="XMLID_80_" class="st1" points="327.3,421.2 328.9,421.2 328.9,421.2 328.9,421 328.9,421 327.3,421 	"/>
	<polygon id="XMLID_81_" class="st1" points="327.3,422.5 328.9,422.5 328.9,422.5 328.9,422.4 328.9,422.4 327.3,422.4 	"/>
	<polygon id="XMLID_82_" class="st1" points="327.3,423.9 328.9,423.9 328.9,423.9 328.9,423.7 328.9,423.7 327.3,423.7 	"/>
	<polygon id="XMLID_83_" class="st1" points="327.3,425.2 328.9,425.2 328.9,425.2 328.9,425.1 328.9,425.1 327.3,425.1 	"/>
	<rect id="XMLID_84_" x="293.2" y="418.4" class="st1" width="1.6" height="0.1"/>
	<rect id="XMLID_85_" x="293.2" y="419.7" class="st1" width="1.6" height="0.1"/>
	<rect id="XMLID_86_" x="293.2" y="421" class="st1" width="1.6" height="0.1"/>
	<rect id="XMLID_87_" x="293.2" y="422.4" class="st1" width="1.6" height="0.1"/>
	<rect id="XMLID_88_" x="293.2" y="423.7" class="st1" width="1.6" height="0.1"/>
	<rect id="XMLID_89_" x="293.2" y="425.1" class="st1" width="1.6" height="0.1"/>
</g>
</svg>
