<?xml version="1.0" encoding="utf-8"?>
<!-- Generator: Adobe Illustrator 19.0.0, SVG Export Plug-In . SVG Version: 6.00 Build 0)  -->
<svg version="1.1" id="Layer_1" xmlns="http://www.w3.org/2000/svg" xmlns:xlink="http://www.w3.org/1999/xlink" x="0px" y="0px"
	 width="40.8px" height="26.5px" viewBox="0 0 40.8 26.5" style="enable-background:new 0 0 40.8 26.5;" xml:space="preserve">
<path d="M21.1,24.9L21.1,24.9c0.3,0,0.6-0.1,0.6-0.4c0-0.3-0.3-0.4-0.6-0.4h-0.1L21.1,24.9z M21.1,26h-0.3l0-2h0.3
	c0.6,0,0.8,0.2,0.8,0.6c0,0.4-0.3,0.6-0.7,0.6h-0.1L21.1,26z"/>
<path d="M23.2,24.9L23.2,24.9c0.3,0,0.6,0,0.6-0.4c0-0.3-0.3-0.4-0.6-0.4h-0.1V24.9z M24.2,26l-0.3,0l-0.6-0.9h-0.1l0,0.9H23l0-2
	h0.3c0.2,0,0.4,0,0.5,0.1c0.2,0.1,0.3,0.3,0.3,0.5c0,0.3-0.2,0.5-0.5,0.6L24.2,26z"/>
<path d="M27,25c0-0.4-0.3-0.8-0.8-0.8c-0.5,0-0.8,0.4-0.8,0.8c0,0.5,0.4,0.8,0.8,0.8C26.6,25.8,27,25.4,27,25 M27.2,25
	c0,0.6-0.5,1.1-1.1,1.1c-0.6,0-1.1-0.5-1.1-1.1c0-0.6,0.5-1.1,1.1-1.1C26.7,23.9,27.2,24.4,27.2,25"/>
<path d="M28.5,25.8L28.5,25.8c0.6,0,1.1-0.2,1.1-0.8c0-0.6-0.4-0.8-1-0.8h-0.1L28.5,25.8z M28.3,23.9h0.4c0.6,0,1.1,0.3,1.1,1
	c0,0.7-0.5,1-1.1,1l-0.4,0L28.3,23.9z"/>
<path d="M31.1,23.9l0,1.2c0,0.3,0.1,0.6,0.5,0.6c0.4,0,0.5-0.3,0.5-0.6l0-1.2h0.3l0,1.3c0,0.4-0.3,0.8-0.7,0.8
	c-0.5,0-0.7-0.3-0.7-0.8v-1.3H31.1z"/>
<path d="M34.1,26.5L34,26.4l0.2-0.4l0.2,0.1L34.1,26.5z M35,24.3c-0.1-0.1-0.3-0.2-0.5-0.2c-0.5,0-0.8,0.4-0.8,0.8
	c0,0.4,0.3,0.8,0.8,0.8c0.2,0,0.4-0.1,0.5-0.2v0.3C34.8,26,34.6,26,34.5,26c-0.6,0-1.1-0.5-1.1-1c0-0.6,0.5-1.1,1.1-1.1
	c0.2,0,0.4,0,0.5,0.1V24.3z"/>
<path d="M36.9,24.4l-0.4,0.8h0.7L36.9,24.4z M36.3,23.6L36.3,23.6c0.1-0.1,0.2-0.2,0.3-0.2c0.1,0,0.2,0,0.2,0.1l0.2,0.1l0.2-0.1
	l0.1,0.1c-0.1,0.1-0.2,0.2-0.3,0.2l-0.2-0.1l-0.2-0.1l-0.2,0.1L36.3,23.6z M36.4,25.5L36.2,26h-0.3l1-2.1l1,2.1h-0.3l-0.2-0.5
	L36.4,25.5z"/>
<path d="M40.5,25c0-0.4-0.3-0.8-0.8-0.8c-0.5,0-0.8,0.4-0.8,0.8c0,0.5,0.4,0.8,0.8,0.8C40.2,25.8,40.5,25.4,40.5,25 M40.8,25
	c0,0.6-0.5,1.1-1.1,1.1c-0.6,0-1.1-0.5-1.1-1.1c0-0.6,0.5-1.1,1.1-1.1C40.3,23.9,40.8,24.4,40.8,25"/>
<polygon points="12.3,14 6.9,14 15.5,8 15,7.4 4.3,14.9 12.3,14.9 "/>
<polygon points="18.6,16.4 16.9,21.1 14.2,11 13.4,11.2 16.8,23.8 19.4,16.4 "/>
<polygon points="23.4,10.9 27.9,14 17.4,14.1 17.4,14.9 30.4,14.9 23.8,10.2 "/>
<polygon points="19.6,5.2 23.9,2.1 20.2,11.9 20.9,12.2 25.6,0 19.1,4.5 "/>
<polygon points="13.1,7.3 11.4,2.3 19.8,8.5 20.3,7.9 9.8,0.1 12.4,7.6 "/>
<path d="M0.6,19.7c0,0.4,0,0.9,0.2,1.2c0.2,0.3,0.7,0.5,1.1,0.5c0.4,0,0.8-0.2,1.1-0.5c0.3-0.3,0.3-0.8,0.3-1.3l0-3.2l0.6,0l0,3.4
	c0,0.6,0,1.1-0.5,1.5C3,21.8,2.5,22,1.9,22c-0.5,0-1-0.2-1.4-0.6C0.1,21,0,20.5,0,19.9l0-3.4l0.6,0L0.6,19.7z"/>
<polygon points="5.9,16.2 10.2,20.7 10.2,16.4 10.8,16.4 10.8,22.1 6.5,17.7 6.5,21.9 5.9,21.9 "/>
<rect x="12.8" y="16.4" width="0.6" height="5.4"/>
<polygon points="20.8,16.4 23.7,16.4 23.7,17 21.4,17 21.4,18.6 23.6,18.6 23.6,19.2 21.4,19.2 21.4,21.3 23.7,21.3 23.7,21.9 
	20.8,21.9 "/>
<path d="M26.2,18.9h0.2c0.7,0,1.4-0.1,1.4-1c0-0.9-0.7-1-1.4-1h-0.2L26.2,18.9z M26.2,21.9l-0.6,0l0-5.4l0.8,0c1,0,2,0.3,2,1.5
	c0,0.8-0.5,1.4-1.4,1.5l1.7,2.4l-0.7,0l-1.6-2.4h-0.2L26.2,21.9z"/>
<path d="M32.9,17.5c-0.2-0.4-0.5-0.6-0.9-0.6c-0.5,0-0.9,0.3-0.9,0.8c0,0.5,0.5,0.7,0.9,0.9l0.4,0.2c0.7,0.3,1.3,0.7,1.3,1.5
	c0,1-0.8,1.7-1.7,1.7c-0.9,0-1.5-0.6-1.7-1.4l0.6-0.2c0.1,0.6,0.5,1,1.1,1c0.6,0,1.1-0.4,1.1-1.1c0-0.6-0.5-0.9-1-1.1l-0.3-0.1
	c-0.6-0.3-1.2-0.6-1.2-1.4c0-0.8,0.7-1.4,1.5-1.4c0.6,0,1.1,0.3,1.4,0.8L32.9,17.5z"/>
<path d="M35.7,19.1c0,1.2,1,2.3,2.2,2.3c1.2,0,2.2-1,2.2-2.3c0-1.2-1-2.3-2.2-2.3C36.7,16.9,35.7,17.9,35.7,19.1 M40.8,19.1
	c0,1.6-1.3,2.8-2.8,2.8c-1.6,0-2.8-1.2-2.8-2.8c0-1.6,1.3-2.8,2.8-2.8C39.5,16.3,40.8,17.6,40.8,19.1"/>
</svg>
