<?xml version="1.0" encoding="utf-8"?>
<!-- Generator: Adobe Illustrator 19.0.0, SVG Export Plug-In . SVG Version: 6.00 Build 0)  -->
<svg version="1.1" id="Layer_1" xmlns="http://www.w3.org/2000/svg" xmlns:xlink="http://www.w3.org/1999/xlink" x="0px" y="0px"
	 viewBox="0 0 212.4 141.2" style="enable-background:new 0 0 212.4 141.2;" xml:space="preserve">
<style type="text/css">
	.st0{fill:none;}
	.st1{fill:#FEF0D5;}
</style>
<g>
	<path class="st0" d="M120.9,72.4c-0.3-0.3-0.8-0.4-1.4-0.4h-3.2l0,4l3.1,0c0.7,0,1.1-0.1,1.5-0.3c0.6-0.2,0.9-0.8,0.9-1.5
		C121.7,73.3,121.4,72.7,120.9,72.4z"/>
	<polygon class="st0" points="66.2,134.5 68.4,134.5 67.3,131.3 	"/>
	<path class="st0" d="M205.7,81.9c1.2,0,2.1-0.4,2.8-1.3c0.7-0.9,1-2.2,1-3.8c0-1.7-0.3-3-1-3.9c-0.7-0.9-1.6-1.3-2.8-1.3
		c-1.2,0-2.1,0.4-2.8,1.3c-0.7,0.9-1,2.2-1,3.9c0,1.5,0.3,2.9,1,3.8C203.5,81.5,204.5,81.9,205.7,81.9z"/>
	<path class="st0" d="M159.9,11.9c-0.9-1.3-2-2.3-3.5-3.1c-1.4-0.8-3.2-1.3-5.2-1.3c-2,0-3.8,0.5-5.2,1.3c-1.5,0.8-2.6,1.8-3.5,3.1
		c-0.9,1.4-1.6,2.9-2,4.6c-0.4,1.7-0.6,3.4-0.6,5.2c0,1.7,0.2,3.4,0.6,5.1c0.4,1.6,1.1,3,2,4.4c0.9,1.4,2,2.4,3.5,3.2
		c1.4,0.8,3.2,1.1,5.2,1.1c2.1,0,3.8-0.3,5.2-1.1c1.5-0.8,2.6-1.8,3.5-3.2c0.9-1.4,1.6-2.7,2-4.4c0.4-1.7,0.6-3.4,0.6-5.1
		c0-1.8-0.2-3.5-0.6-5.2C161.5,14.8,160.8,13.3,159.9,11.9z"/>
	<path class="st0" d="M59.7,133.2c0.2-0.2,0.3-0.5,0.3-0.9c0-0.2,0-0.3-0.1-0.5s-0.1-0.3-0.2-0.4s-0.3-0.2-0.4-0.2s-0.4-0.1-0.7-0.1
		h-1.3v2.3h1.5C59.1,133.5,59.5,133.4,59.7,133.2z"/>
	<path class="st0" d="M70.5,115.7c-0.3-0.2-0.6-0.4-1-0.5s-0.8-0.2-1.2-0.2c-0.5,0-1,0.1-1.4,0.4s-0.7,0.6-1,1.1
		c-0.1,0.2-0.1,0.4-0.2,0.7s-0.1,0.5-0.1,0.8c0,0.4,0.1,0.8,0.2,1.2s0.3,0.6,0.6,0.9s0.6,0.4,0.9,0.6s0.7,0.2,1.2,0.2
		c0.4,0,0.8-0.1,1.1-0.2s0.7-0.3,0.9-0.6s0.5-0.5,0.6-0.9s0.2-0.7,0.2-1.2c0-0.5-0.1-0.9-0.2-1.2S70.7,115.9,70.5,115.7z"/>
	<polygon class="st0" points="207.1,55.5 205.7,59.9 208.6,59.9 	"/>
	<path class="st0" d="M58.1,72l-2.7,0v9.6h2.7c1.5,0,2.4-0.7,2.9-2.2c0.4-0.6,0.5-1.6,0.5-2.8c0-1.4-0.2-2.5-0.7-3.3
		C60.4,72.5,59.5,72,58.1,72z"/>
	<path class="st0" d="M154.3,75.8c0.4-0.3,0.6-0.9,0.6-1.5c0-0.8-0.2-1.4-0.6-1.6c-0.3-0.4-0.9-0.6-1.6-0.6H150l0,4.3h2.7
		C153.3,76.4,153.9,76.2,154.3,75.8z"/>
	<path class="st0" d="M90.1,81.9c1.1,0,2.1-0.4,2.8-1.3c0.7-0.9,1-2.2,1-3.8c0-1.7-0.3-3-1-3.9c-0.7-0.9-1.7-1.3-2.8-1.3
		c-1.1,0-2.1,0.4-2.8,1.3c-0.7,0.9-1,2.2-1,3.9c0,1.5,0.3,2.9,1,3.8C88,81.5,88.9,81.9,90.1,81.9z"/>
	<path class="st0" d="M104.9,55.1c-0.3-0.3-0.6-0.3-1.1-0.3l-2.6,0v3.1l2.5,0c0.5,0,0.8,0,1.1-0.2c0.4-0.3,0.6-0.7,0.6-1.3
		C105.5,55.7,105.3,55.3,104.9,55.1z"/>
	<path class="st0" d="M142,133.2c0.2-0.2,0.3-0.5,0.3-0.9c0-0.2,0-0.3-0.1-0.5s-0.1-0.3-0.2-0.4s-0.3-0.2-0.4-0.2s-0.4-0.1-0.7-0.1
		h-1.3v2.3h1.5C141.4,133.5,141.8,133.4,142,133.2z"/>
	<polygon class="st0" points="88.2,134.5 90.4,134.5 89.3,131.3 	"/>
	<path class="st0" d="M172.7,119.1c0.2-0.5,0.4-1,0.5-1.7s0.1-1.4,0.1-2.2c0-0.8,0-1.5-0.1-2.1s-0.2-1.2-0.5-1.7s-0.5-0.9-1-1.2
		s-0.9-0.4-1.6-0.4c-0.7,0-1.2,0.1-1.6,0.4s-0.7,0.7-0.9,1.2s-0.4,1.1-0.5,1.7s-0.1,1.4-0.1,2.1c0,0.8,0,1.5,0.1,2.2
		s0.2,1.2,0.4,1.7s0.5,0.8,0.9,1.1s0.9,0.4,1.6,0.4c0.7,0,1.2-0.1,1.6-0.4S172.5,119.6,172.7,119.1z"/>
	<path class="st0" d="M146.3,115.3c0-0.7-0.1-1.4-0.3-2.1s-0.6-1.2-1-1.7s-0.9-0.9-1.5-1.2s-1.2-0.4-1.9-0.4c-0.7,0-1.3,0.1-1.9,0.4
		s-1.1,0.7-1.5,1.2s-0.7,1.1-1,1.7s-0.3,1.3-0.3,2.1s0.1,1.4,0.3,2.1s0.6,1.2,1,1.7s0.9,0.9,1.5,1.2s1.2,0.4,1.9,0.4
		c0.7,0,1.3-0.1,1.9-0.4s1.1-0.7,1.5-1.2s0.7-1.1,1-1.7S146.3,116,146.3,115.3z"/>
	<path class="st0" d="M114.8,136.5c0.2,0.3,0.5,0.5,0.9,0.7s0.7,0.3,1.1,0.3c0.4,0,0.8-0.1,1.1-0.3s0.6-0.4,0.9-0.7s0.4-0.6,0.6-1
		s0.2-0.8,0.2-1.2c0-0.4-0.1-0.8-0.2-1.2s-0.3-0.7-0.6-1s-0.5-0.5-0.9-0.7s-0.7-0.3-1.1-0.3c-0.4,0-0.8,0.1-1.1,0.3
		s-0.6,0.4-0.9,0.7s-0.4,0.6-0.6,1s-0.2,0.8-0.2,1.2s0.1,0.9,0.2,1.2S114.6,136.2,114.8,136.5z"/>
	<polygon class="st0" points="188.6,134.5 190.8,134.5 189.7,131.3 	"/>
	<path class="st0" d="M167.3,75.7c0.6-0.2,0.8-0.8,0.8-1.5c0-0.9-0.3-1.5-0.8-1.8c-0.3-0.3-0.8-0.4-1.4-0.4h-3.3l0,4l3.2,0
		C166.5,76.1,166.9,76,167.3,75.7z"/>
	<polygon class="st0" points="148.5,134.5 150.7,134.5 149.6,131.3 	"/>
	<polygon class="st0" points="114.7,55.5 113.3,59.9 116.1,59.9 	"/>
	<path class="st0" d="M43.6,57.1L43,57.1c-0.6,0.1-1,0.2-1.2,0.4c-0.2,0.2-0.3,0.4-0.3,0.7c0,0.3,0.1,0.5,0.3,0.7
		c0.2,0.2,0.5,0.2,0.8,0.2c0.3,0,0.6-0.1,0.9-0.2c0.2-0.1,0.4-0.2,0.5-0.3c0.1-0.1,0.3-0.2,0.3-0.4c0.1-0.1,0.1-0.4,0.2-0.8v-0.7
		c-0.1,0.1-0.3,0.2-0.4,0.2C44,57,43.8,57,43.6,57.1z"/>
	<path class="st0" d="M23.8,133.2c0.2-0.2,0.3-0.5,0.3-0.9c0-0.2,0-0.3-0.1-0.5s-0.1-0.3-0.2-0.4s-0.3-0.2-0.4-0.2
		c-0.2-0.1-0.4-0.1-0.7-0.1h-1.2v2.3h1.4C23.3,133.5,23.6,133.4,23.8,133.2z"/>
	<path class="st0" d="M31.6,133.2c0.2-0.2,0.3-0.5,0.3-0.9c0-0.2,0-0.3-0.1-0.5s-0.1-0.3-0.2-0.4s-0.3-0.2-0.4-0.2s-0.4-0.1-0.7-0.1
		h-1.3v2.3h1.5C31,133.5,31.3,133.4,31.6,133.2z"/>
	<path class="st0" d="M133.9,60.6c0.3-0.6,0.4-1.4,0.4-2.2c0-1.1-0.2-2-0.5-2.7c-0.3-0.5-1-0.9-2.1-0.9l-2.2,0v7.4h2.3
		C132.7,62.2,133.5,61.7,133.9,60.6z"/>
	<path class="st0" d="M36.8,133c-0.1,0.4-0.2,0.8-0.2,1.2s0.1,0.9,0.2,1.2s0.3,0.7,0.6,1s0.5,0.5,0.9,0.7s0.7,0.3,1.1,0.3
		c0.4,0,0.8-0.1,1.1-0.3s0.6-0.4,0.9-0.7s0.4-0.6,0.6-1s0.2-0.8,0.2-1.2c0-0.4-0.1-0.8-0.2-1.2s-0.3-0.7-0.6-1s-0.5-0.5-0.9-0.7
		s-0.7-0.3-1.1-0.3c-0.4,0-0.8,0.1-1.1,0.3s-0.6,0.4-0.9,0.7S37,132.6,36.8,133z"/>
	<path class="st0" d="M201.5,9.1c-0.8-0.4-1.6-0.8-2.6-0.9c-1-0.1-2-0.2-3-0.2l-7.1,0v12.3l7.1,0c1.1,0,2.1-0.1,3-0.2
		c1-0.1,1.8-0.5,2.6-0.9c0.7-0.5,1.4-1.1,1.7-1.9c0.5-0.8,0.7-1.8,0.7-3.2c0-1.4-0.2-2.4-0.7-3.2C202.8,10.1,202.2,9.6,201.5,9.1z"
		/>
	<polygon class="st0" points="106.3,134.5 108.5,134.5 107.4,131.3 	"/>
	<path class="st0" d="M70.8,54.6c-0.9,0-1.7,0.3-2.2,1c-0.6,0.7-0.8,1.7-0.8,2.9c0,1.4,0.2,2.3,0.8,3c0.5,0.6,1.3,1,2.2,1
		c0.9,0,1.7-0.4,2.3-1c0.5-0.7,0.8-1.7,0.8-3c0-1.2-0.3-2.2-0.8-2.9C72.5,54.9,71.7,54.6,70.8,54.6z"/>
	<path class="st0" d="M133.3,81.9c1.2,0,2.1-0.4,2.8-1.3c0.6-0.9,1-2.2,1-3.8c0-1.7-0.4-3-1-3.9c-0.7-0.9-1.6-1.3-2.8-1.3
		c-1.2,0-2.2,0.4-2.8,1.3c-0.7,0.9-1.1,2.2-1.1,3.9c0,1.5,0.4,2.9,1.1,3.8C131.2,81.5,132.1,81.9,133.3,81.9z"/>
	<path class="st1" d="M166.3,6.3c-1.8-2.1-3.9-3.5-6.4-4.7c-2.5-1.1-5.4-1.6-8.6-1.6c-3.2,0-6,0.5-8.6,1.6c-2.5,1.1-4.7,2.6-6.5,4.7
		c-1.8,1.9-3.1,4.3-4,6.9c-0.9,2.6-1.4,5.4-1.4,8.5c0,2.9,0.5,5.8,1.4,8.4c0.9,2.6,2.2,4.7,4,6.8c1.7,1.9,3.9,3.4,6.4,4.5
		c2.5,1,5.4,1.6,8.6,1.6c3.3,0,6.1-0.6,8.6-1.6c2.5-1.1,4.7-2.6,6.4-4.5c1.7-2,3-4.2,4-6.8c0.9-2.6,1.4-5.5,1.4-8.4
		c0-3.1-0.5-5.9-1.4-8.5C169.3,10.6,168,8.2,166.3,6.3z M161.9,26.8c-0.4,1.6-1.1,3-2,4.4c-0.9,1.4-2,2.4-3.5,3.2
		c-1.4,0.8-3.2,1.1-5.2,1.1c-2,0-3.8-0.3-5.2-1.1c-1.5-0.8-2.6-1.8-3.5-3.2c-0.9-1.4-1.6-2.7-2-4.4c-0.4-1.7-0.6-3.4-0.6-5.1
		c0-1.8,0.2-3.5,0.6-5.2c0.4-1.7,1.1-3.2,2-4.6c0.9-1.3,2-2.3,3.5-3.1c1.4-0.8,3.2-1.3,5.2-1.3c2.1,0,3.8,0.5,5.2,1.3
		c1.5,0.8,2.6,1.8,3.5,3.1c0.9,1.4,1.6,2.9,2,4.6c0.4,1.7,0.6,3.4,0.6,5.2C162.5,23.4,162.3,25.1,161.9,26.8z"/>
	<rect x="43.6" y="1.9" class="st1" width="3.8" height="39.7"/>
	<polygon class="st1" points="84.1,35.5 84,35.5 60.7,1.9 56.4,1.9 56.4,41.6 60.2,41.6 60.2,8 60.3,8 83.7,41.6 88,41.6 88,1.9 
		84.1,1.9 	"/>
	<polygon class="st1" points="124,5 124,1.9 96.3,1.9 96.3,41.6 124.3,41.6 124.3,38.3 100.2,38.3 100.2,22.7 122.5,22.7 
		122.5,19.4 100.2,19.4 100.2,5 	"/>
	<path class="st1" d="M52.5,52.9v11.4h2.2l0-7.7c0-0.2,0-0.4,0-0.9c0-0.3,0-0.7,0-0.9l2.2,9.6H59l2.2-9.6c0,0.2,0,0.6,0,0.9
		c0,0.5,0,0.7,0,0.9v7.7l2.2,0V52.9H60l-2,8.9l-2-8.9H52.5z"/>
	<path class="st1" d="M74.5,53.8c-0.9-0.9-2-1.3-3.7-1.3c-1.6,0-2.8,0.4-3.7,1.3c-1.1,1-1.7,2.6-1.7,4.6c0,2.1,0.6,3.6,1.7,4.8
		c0.8,0.9,2.1,1.2,3.7,1.2c1.6,0,2.8-0.4,3.7-1.2c1.2-1.2,1.7-2.6,1.7-4.8C76.2,56.4,75.6,54.9,74.5,53.8z M73.1,61.5
		c-0.6,0.6-1.3,1-2.3,1c-0.9,0-1.7-0.4-2.2-1c-0.6-0.7-0.8-1.7-0.8-3c0-1.2,0.2-2.2,0.8-2.9c0.5-0.7,1.3-1,2.2-1
		c0.9,0,1.7,0.3,2.3,1c0.5,0.7,0.8,1.7,0.8,2.9C73.9,59.8,73.5,60.8,73.1,61.5z"/>
	<path class="st1" d="M83.9,62.4c-0.4,0.1-0.8,0.2-1.4,0.2c-0.9,0-1.7-0.2-2-0.7c-0.2-0.2-0.4-0.7-0.4-1.1h-2.2
		c0,1.1,0.4,2.1,1.2,2.8c0.9,0.7,2.1,1,3.5,1c1.5,0,2.6-0.3,3.4-1c0.8-0.7,1.1-1.6,1.1-2.6c0-1-0.3-1.8-1-2.4
		c-0.4-0.3-1.1-0.5-1.9-0.7l-1.9-0.5c-0.8-0.1-1.4-0.3-1.6-0.4c-0.3-0.3-0.5-0.6-0.5-0.9c0-0.5,0.2-0.8,0.5-1.2
		c0.4-0.2,0.9-0.3,1.6-0.3c0.5,0,1,0.1,1.4,0.2c0.6,0.4,0.8,0.8,0.9,1.5l2.3,0c-0.1-1.1-0.5-2.1-1.4-2.7c-0.9-0.7-1.9-0.9-3.1-0.9
		c-1.5,0-2.5,0.3-3.3,1c-0.7,0.7-1.1,1.6-1.1,2.6c0,1.1,0.4,1.9,1.1,2.3c0.5,0.4,1.3,0.6,2.5,0.9l1.2,0.4c0.7,0.1,1.3,0.3,1.6,0.4
		c0.4,0.2,0.5,0.6,0.5,0.9C84.9,61.7,84.5,62.1,83.9,62.4z"/>
	<path class="st1" d="M107.5,57.6c0.3-0.4,0.4-1,0.4-1.5c0-0.5,0-0.8-0.2-1.3c-0.1-0.3-0.4-0.6-0.6-0.9c-0.3-0.3-0.7-0.5-1-0.7
		c-0.4-0.3-1-0.4-1.8-0.4h-5.4l0,11.4h2.3v-4.5h2.3c0.7,0,1.1,0.1,1.4,0.3c0.2,0.2,0.3,0.7,0.3,1.5l0,1c0,0.3,0,0.7,0.1,1
		c0,0.1,0.1,0.3,0.2,0.7l2.6,0v-0.4c-0.2-0.1-0.3-0.3-0.4-0.5c0-0.3-0.1-0.6-0.1-1.2v-0.6c0-0.8-0.1-1.5-0.4-1.8
		c-0.2-0.5-0.5-0.7-1.1-0.9C106.8,58.5,107.2,58.2,107.5,57.6z M104.9,57.8c-0.3,0.1-0.6,0.2-1.1,0.2l-2.5,0v-3.1l2.6,0
		c0.5,0,0.8,0.1,1.1,0.3c0.4,0.2,0.6,0.6,0.6,1.3C105.5,57.1,105.3,57.5,104.9,57.8z"/>
	<path class="st1" d="M127.1,64.3h4.8c1.7,0,2.9-0.7,3.8-2.2c0.6-1,0.9-2.3,0.9-3.8c0-0.6,0-1.2-0.2-1.9c-0.1-0.7-0.4-1.2-0.8-1.8
		c-0.5-0.7-1.1-1.1-1.9-1.4c-0.5-0.2-1-0.3-1.8-0.3l-4.8,0V64.3z M129.4,54.8l2.2,0c1.1,0,1.8,0.4,2.1,0.9c0.4,0.7,0.5,1.6,0.5,2.7
		c0,0.8-0.1,1.6-0.4,2.2c-0.4,1.1-1.2,1.5-2.3,1.5h-2.3V54.8z"/>
	<path class="st1" d="M157.2,54.7c0.8,0,1.4,0.4,1.9,0.8c0.3,0.2,0.4,0.7,0.5,1.2h2.4c0-0.6-0.3-1.3-0.8-2.1
		c-0.9-1.2-2.2-1.9-4.1-1.9c-1.4,0-2.5,0.5-3.4,1.5c-1.1,1-1.6,2.5-1.6,4.6c0,1.8,0.4,3.2,1.3,4.2c0.9,1,2.2,1.6,3.8,1.6
		c1.3,0,2.3-0.3,3.2-1.1c0.8-0.8,1.3-1.8,1.6-3.1l-2.4,0c-0.1,0.6-0.3,1.1-0.5,1.4c-0.4,0.5-1.1,0.8-1.9,0.8c-0.8,0-1.4-0.4-2-0.9
		c-0.5-0.7-0.8-1.6-0.8-2.8c0-1.4,0.3-2.3,0.7-3.1C155.7,55.1,156.4,54.7,157.2,54.7z"/>
	<path class="st1" d="M197.1,52.9l-2,8.9l-2-8.9h-3.4v11.4h2.2l0-7.7c0-0.2,0-0.4,0-0.9l0-0.9l2.2,9.6h2.2l2.2-9.6
		c0,0.2,0,0.6,0,0.9c0,0.5,0,0.7,0,0.9v7.7l2.2,0l0-11.4L197.1,52.9z"/>
	<path class="st1" d="M63.3,81.5c0.8-1.4,1.1-3.1,1.1-5c0-0.8-0.1-1.6-0.2-2.3c-0.2-0.8-0.5-1.6-1-2.4c-0.7-0.9-1.5-1.6-2.4-1.8
		c-0.6-0.2-1.3-0.3-2.1-0.3h-6.1v14.6h6.1C60.7,84.2,62.3,83.3,63.3,81.5z M61,79.4c-0.5,1.5-1.5,2.2-2.9,2.2h-2.7V72l2.7,0
		c1.4,0,2.3,0.5,2.7,1.3c0.5,0.8,0.7,1.9,0.7,3.3C61.5,77.8,61.3,78.8,61,79.4z"/>
	<path class="st1" d="M83.3,76.9c0,2.5,0.7,4.6,2.2,5.9c1,1.1,2.6,1.7,4.6,1.7c2,0,3.6-0.6,4.6-1.7c1.5-1.3,2.1-3.4,2.1-5.9
		c0-2.7-0.7-4.8-2.1-6.1c-1.1-1.1-2.6-1.7-4.6-1.7c-2,0-3.6,0.6-4.6,1.7C83.9,72.1,83.3,74.2,83.3,76.9z M87.3,73
		c0.7-0.9,1.6-1.3,2.8-1.3c1.1,0,2.1,0.4,2.8,1.3c0.7,0.9,1,2.2,1,3.9c0,1.5-0.3,2.9-1,3.8c-0.7,0.9-1.7,1.3-2.8,1.3
		c-1.1,0-2.1-0.4-2.8-1.3c-0.7-0.9-1-2.2-1-3.8C86.2,75.2,86.5,73.9,87.3,73z"/>
	<path class="st1" d="M107.5,78.5c0,1.1-0.1,1.7-0.3,2.3c-0.4,0.8-1.1,1.2-2.3,1.2c-1.2,0-2-0.3-2.3-1.2c-0.3-0.5-0.4-1.1-0.4-2.3
		l0-8.8h-3l0,8.8c0,1.6,0.2,2.9,0.7,3.6c0.9,1.6,2.5,2.4,4.9,2.4c2.4,0,4.1-0.8,5-2.4c0.4-0.7,0.7-2,0.7-3.6l0-8.8h-3V78.5z"/>
	<path class="st1" d="M124.1,75.7c0.4-0.6,0.5-1.3,0.5-2c0-0.6-0.1-1.1-0.3-1.6c-0.2-0.4-0.5-0.8-0.7-1.2c-0.4-0.4-0.8-0.8-1.3-1
		c-0.5-0.2-1.3-0.3-2.2-0.3h-6.8v14.6l2.9,0v-5.8h2.9c0.8,0,1.3,0.1,1.7,0.5c0.3,0.3,0.4,0.9,0.4,1.8V82c0,0.5,0.1,0.9,0.2,1.3
		c0.1,0.2,0.1,0.4,0.2,0.8h3.2v-0.5c-0.3-0.2-0.4-0.4-0.5-0.8c0-0.2-0.1-0.7-0.1-1.3v-1c0-1-0.2-1.8-0.5-2.4
		c-0.2-0.4-0.7-0.9-1.3-1.1C123.2,77,123.8,76.4,124.1,75.7z M120.9,75.7c-0.3,0.3-0.8,0.3-1.5,0.3l-3.1,0l0-4h3.2
		c0.6,0,1.1,0.1,1.4,0.4c0.5,0.3,0.8,0.9,0.8,1.8C121.7,74.9,121.4,75.5,120.9,75.7z"/>
	<path class="st1" d="M128.7,82.8c1.1,1.1,2.6,1.7,4.7,1.7c2,0,3.5-0.6,4.7-1.7c1.4-1.3,2.1-3.4,2.1-5.9c0-2.7-0.7-4.8-2.1-6.1
		c-1.1-1.1-2.6-1.7-4.7-1.7c-2.1,0-3.6,0.6-4.7,1.7c-1.4,1.3-2.2,3.4-2.2,6.1C126.5,79.4,127.2,81.5,128.7,82.8z M130.5,73
		c0.7-0.9,1.6-1.3,2.8-1.3c1.2,0,2.1,0.4,2.8,1.3c0.6,0.9,1,2.2,1,3.9c0,1.5-0.4,2.9-1,3.8c-0.7,0.9-1.6,1.3-2.8,1.3
		c-1.2,0-2.2-0.4-2.8-1.3c-0.7-0.9-1.1-2.2-1.1-3.8C129.4,75.2,129.8,73.9,130.5,73z"/>
	<path class="st1" d="M147.1,84.2h3v-5.3h3c1.5,0,2.7-0.4,3.6-1c0.8-0.8,1.2-1.9,1.2-3.6c0-1.6-0.4-2.7-1.2-3.5
		c-0.8-0.8-2-1.1-3.4-1.1h-6.1V84.2z M150,72h2.7c0.6,0,1.2,0.2,1.6,0.6c0.4,0.3,0.6,0.9,0.6,1.6c0,0.6-0.2,1.2-0.6,1.5
		c-0.3,0.4-0.9,0.6-1.6,0.6H150L150,72z"/>
	<path class="st1" d="M167.2,78.9c0.3,0.3,0.5,0.9,0.5,1.8l0,1.3c0,0.5,0,0.9,0.1,1.3c0,0.2,0.1,0.4,0.2,0.8h3.3v-0.5
		c-0.3-0.2-0.5-0.4-0.6-0.8c0-0.2-0.1-0.7-0.1-1.3v-1c0-1-0.1-1.8-0.3-2.4c-0.3-0.4-0.8-0.9-1.4-1.1c0.8-0.2,1.4-0.8,1.7-1.5
		c0.4-0.6,0.6-1.3,0.6-2c0-0.6-0.1-1.1-0.3-1.6c-0.2-0.4-0.4-0.8-0.7-1.2c-0.4-0.4-0.8-0.8-1.3-1c-0.5-0.2-1.2-0.3-2.2-0.3l-6.8,0
		l0,14.6h2.9l0-5.8l2.9,0C166.4,78.4,166.9,78.5,167.2,78.9z M162.7,72h3.3c0.6,0,1,0.1,1.4,0.4c0.5,0.3,0.8,0.9,0.8,1.8
		c0,0.7-0.3,1.3-0.8,1.5c-0.3,0.3-0.8,0.3-1.4,0.3l-3.2,0L162.7,72z"/>
	<path class="st1" d="M198.9,76.9c0,2.5,0.7,4.6,2.2,5.9c1.1,1.1,2.6,1.7,4.6,1.7c2,0,3.6-0.6,4.6-1.7c1.4-1.3,2.1-3.4,2.1-5.9
		c0-2.7-0.7-4.8-2.1-6.1c-1.1-1.1-2.6-1.7-4.6-1.7c-2,0-3.6,0.6-4.6,1.7C199.6,72.1,198.9,74.2,198.9,76.9z M202.9,73
		c0.7-0.9,1.6-1.3,2.8-1.3c1.2,0,2.1,0.4,2.8,1.3c0.7,0.9,1,2.2,1,3.9c0,1.5-0.3,2.9-1,3.8c-0.7,0.9-1.6,1.3-2.8,1.3
		c-1.2,0-2.1-0.4-2.8-1.3c-0.7-0.9-1-2.2-1-3.8C201.8,75.2,202.2,73.9,202.9,73z"/>
	<polygon class="st1" points="88.1,54.8 91.5,54.8 91.5,64.3 93.9,64.3 93.9,54.8 97.2,54.8 97.2,52.9 88.1,52.9 	"/>
	<path class="st1" d="M112.6,61.9h4.2l0.7,2.4l2.5,0l-4-11.4l-2.7,0l-4,11.4h2.4L112.6,61.9z M114.7,55.5l1.4,4.5h-2.9L114.7,55.5z"
		/>
	<polygon class="st1" points="146.9,52.9 138.6,52.9 138.6,64.3 147.2,64.3 147.2,62.1 140.9,62.1 140.9,59.2 146.4,59.2 
		146.4,57.3 141,57.3 140.9,54.8 146.9,54.8 	"/>
	<rect x="163.7" y="52.9" class="st1" width="2.3" height="11.4"/>
	<polygon class="st1" points="175,60.8 170.5,52.9 168.1,52.9 168.1,64.3 170.3,64.3 170.3,56.2 174.9,64.3 177.2,64.3 177.2,52.9 
		175,52.9 	"/>
	<polygon class="st1" points="187.5,52.9 179.3,52.9 179.3,64.3 187.8,64.3 187.8,62.1 181.5,62.1 181.5,59.2 187,59.2 187,57.3 
		181.5,57.3 181.5,54.8 187.5,54.8 	"/>
	<path class="st1" d="M209.2,61.9l0.7,2.4h2.5l-3.9-11.4h-2.7l-4,11.4l2.5,0l0.8-2.4H209.2z M207.1,55.5l1.5,4.5h-2.9L207.1,55.5z"
		/>
	<polygon class="st1" points="77.2,72.1 77.2,69.6 66.9,69.6 66.9,84.2 77.6,84.2 77.6,81.5 69.7,81.5 69.7,77.8 76.6,77.8 
		76.6,75.3 69.7,75.3 69.7,72.1 	"/>
	<polygon class="st1" points="173.7,84.2 184.4,84.2 184.4,81.5 176.6,81.5 176.6,77.8 183.4,77.8 183.4,75.3 176.6,75.3 
		176.6,72.1 184.1,72.1 184.1,69.6 173.7,69.6 	"/>
	<polygon class="st1" points="186.1,72.1 190.4,72.1 190.4,84.2 193.3,84.2 193.3,72.1 197.6,72.1 197.6,69.6 186.1,69.6 	"/>
	<path class="st1" d="M7.5,9.8c1.2-1.7,2.8-3.1,4.7-4.1c1.9-1,4.2-1.5,6.9-1.5c1.4,0,2.8,0.3,4.1,0.7c1.3,0.5,2.6,1,3.7,1.8
		c1.1,0.8,2,1.8,2.8,3.1c0.8,1.1,1.4,2.5,1.7,4.1h3.9c-0.3-2.2-0.9-4-2-5.6c-1-1.6-2.2-2.9-3.7-4c-1.5-1.1-3.1-1.9-5-2.4
		C22.8,1.3,21,1,19.1,1c-3.2,0-5.9,0.5-8.3,1.7C8.4,3.9,6.4,5.4,4.8,7.3c-1.6,1.9-2.7,4.1-3.5,6.6c-0.8,2.5-1.3,5.1-1.3,7.8
		c0,2.7,0.5,5.3,1.3,7.8c0.8,2.5,1.9,4.8,3.5,6.6c1.6,1.9,3.5,3.4,5.9,4.5c2.4,1.2,5.2,1.7,8.3,1.7c2.3,0,4.5-0.3,6.4-1.1
		c1.9-0.8,3.6-1.8,5.1-3.2c1.5-1.3,2.6-3,3.5-5c0.9-1.9,1.5-4.2,1.7-6.7H32c-0.2,1.9-0.6,3.6-1.4,5C30,33,29,34.4,28,35.5
		c-1,1.1-2.4,2-3.8,2.7c-1.5,0.7-3.2,1-5.1,1c-2.7,0-4.9-0.4-6.9-1.4c-2-1-3.5-2.4-4.7-4c-1.2-1.7-2.1-3.5-2.7-5.7
		C4.2,26,4,23.8,4,21.7c0-2.2,0.2-4.3,0.9-6.5C5.4,13.3,6.3,11.4,7.5,9.8z"/>
	<path class="st1" d="M209.5,5c-1.2-1.2-2.6-2.1-4.5-2.9c-1.8-0.8-4-1.2-6.6-1.2h-18.7v41.2h9.1V27.3h9.6c2.6,0,4.8-0.3,6.6-1.1
		c1.8-0.8,3.3-1.8,4.5-2.9c1.1-1.3,2-2.6,2.5-4.2c0.5-1.6,0.8-3.3,0.8-4.9c0-1.7-0.3-3.3-0.8-4.9C211.5,7.6,210.6,6.3,209.5,5z
		 M203.2,17.4c-0.4,0.8-1,1.3-1.7,1.9c-0.8,0.4-1.6,0.7-2.6,0.9c-1,0.1-1.9,0.2-3,0.2l-7.1,0V8l7.1,0c1.1,0,2.1,0.1,3,0.2
		c1,0.1,1.8,0.5,2.6,0.9c0.7,0.5,1.4,1,1.7,1.8c0.5,0.8,0.7,1.8,0.7,3.2C203.9,15.5,203.7,16.6,203.2,17.4z"/>
	<polygon class="st1" points="46.4,61.3 40,61.3 40,62.7 46.4,62.7 	"/>
	<path class="st1" d="M43.7,55.8L42.3,56c-0.9,0.1-1.5,0.3-1.9,0.6c-0.6,0.4-0.9,1-0.9,1.8c0,0.5,0.1,0.9,0.4,1.3
		c0.4,0.6,1.2,0.9,2.2,0.9c0.6,0,1.1-0.1,1.6-0.4c0.3-0.1,0.6-0.4,1-0.7c0,0.2,0,0.3,0.1,0.5c0,0.1,0.1,0.3,0.1,0.4h2.2V60
		c-0.2-0.1-0.3-0.2-0.4-0.4c-0.1-0.2-0.1-0.4-0.1-0.7v-3.6c0-1.1-0.5-1.8-1.4-2.1c-0.5-0.2-1.2-0.3-2.1-0.3c-1.3,0-2.2,0.3-2.7,0.9
		c-0.3,0.4-0.5,0.9-0.6,1.6h2c0.1-0.3,0.2-0.6,0.4-0.7c0.2-0.2,0.5-0.2,0.9-0.2c0.4,0,0.7,0,0.9,0.1c0.4,0.1,0.6,0.4,0.6,0.7
		c0,0.2-0.1,0.3-0.2,0.4C44.1,55.7,44,55.8,43.7,55.8z M44.5,57.5c0,0.4-0.1,0.7-0.2,0.8c-0.1,0.1-0.2,0.3-0.3,0.4
		c-0.1,0.1-0.3,0.2-0.5,0.3c-0.3,0.1-0.6,0.2-0.9,0.2c-0.3,0-0.6-0.1-0.8-0.2c-0.2-0.2-0.3-0.4-0.3-0.7c0-0.3,0.1-0.5,0.3-0.7
		c0.2-0.2,0.6-0.3,1.2-0.4l0.6-0.1c0.3,0,0.4-0.1,0.5-0.1c0.1,0,0.2-0.1,0.4-0.2V57.5z"/>
	<path class="st1" d="M0,62.5h7.2v21.3h6.2V52.9H8.4c0,0.3-0.1,0.7-0.2,1.2c-0.3,0.9-0.7,1.7-1.2,2.2c-0.8,0.8-1.8,1.3-3,1.6
		c-0.8,0.2-2.1,0.3-4,0.4V62.5z"/>
	<path class="st1" d="M28.8,74.4l2.4-1.7c2-1.4,3.5-2.8,4.4-3.9c1.4-1.8,2-3.8,2-6.1c0-3-1-5.4-2.9-7.2c-1.9-1.8-4.5-2.7-7.8-2.7
		c-4.1,0-7,1.5-8.6,4.6c-0.9,1.6-1.3,3.7-1.4,6.4h5.9c0.1-1.7,0.3-3,0.7-3.8c0.7-1.4,1.9-2.1,3.8-2.1c1.3,0,2.4,0.4,3.1,1.3
		c0.7,0.9,1.1,1.9,1.1,3.3c0,1.6-0.6,3.1-1.9,4.4c-0.8,0.9-2.6,2.3-5.4,4.3c-3.2,2.3-5.3,4.5-6.1,6.5c-0.9,1.8-1.4,3.8-1.4,6.1h21.1
		v-5.3H24.2c0.4-0.6,0.9-1.2,1.4-1.7C26.2,76.3,27.2,75.5,28.8,74.4z"/>
	<path class="st1" d="M27.7,120.5h-5.6l3.9-4.8c0.3-0.4,0.6-0.7,0.8-1.1s0.4-0.7,0.5-1s0.2-0.6,0.3-0.9s0.1-0.5,0.1-0.8
		c0-0.6-0.1-1.2-0.3-1.7s-0.5-1-0.9-1.4s-0.9-0.7-1.4-0.9s-1.1-0.3-1.8-0.3c-0.6,0-1.1,0.1-1.6,0.3s-1,0.5-1.4,0.9s-0.7,0.9-0.9,1.5
		s-0.4,1.2-0.4,1.9h2.2c0-0.4,0.1-0.8,0.2-1.1s0.3-0.5,0.5-0.7s0.4-0.3,0.7-0.4s0.5-0.1,0.8-0.1c0.3,0,0.6,0.1,0.9,0.2
		s0.5,0.3,0.7,0.4s0.3,0.4,0.4,0.6s0.2,0.5,0.2,0.8c0,0.3,0,0.5-0.1,0.8s-0.2,0.5-0.4,0.7s-0.3,0.5-0.5,0.7s-0.3,0.4-0.5,0.6
		l-4.9,6.1v1.8h8.7V120.5z"/>
	<polygon class="st1" points="36.1,120.5 34.7,120.5 34.7,107.5 33.7,107.5 29.7,109.8 29.7,112.4 32.4,110.9 32.4,120.5 
		31.1,120.5 31.1,122.7 36.1,122.7 	"/>
	<rect x="41.8" y="116.2" class="st1" width="5.4" height="1.7"/>
	<path class="st1" d="M58.5,113.5c-0.1,0.2-0.3,0.5-0.5,0.7s-0.3,0.4-0.5,0.6l-4.9,6.1v1.8h8.7v-2.2h-5.6l3.9-4.8
		c0.3-0.4,0.6-0.7,0.8-1.1s0.4-0.7,0.5-1s0.2-0.6,0.3-0.9s0.1-0.5,0.1-0.8c0-0.6-0.1-1.2-0.3-1.7s-0.5-1-0.9-1.4s-0.9-0.7-1.4-0.9
		s-1.1-0.3-1.8-0.3c-0.6,0-1.1,0.1-1.6,0.3s-1,0.5-1.4,0.9s-0.7,0.9-0.9,1.5s-0.4,1.2-0.4,1.9h2.2c0-0.4,0.1-0.8,0.2-1.1
		s0.3-0.5,0.5-0.7s0.4-0.3,0.7-0.4s0.5-0.1,0.8-0.1c0.3,0,0.6,0.1,0.9,0.2s0.5,0.3,0.7,0.4s0.3,0.4,0.4,0.6s0.2,0.5,0.2,0.8
		c0,0.3,0,0.5-0.1,0.8S58.6,113.2,58.5,113.5z"/>
	<path class="st1" d="M73.2,119.8c0.3-0.7,0.4-1.4,0.4-2.2c0-0.7-0.1-1.3-0.4-1.9s-0.6-1.1-1-1.5s-0.9-0.7-1.5-1s-1.1-0.3-1.8-0.3
		c-0.1,0-0.3,0-0.4,0s-0.3,0-0.5,0c-0.1,0-0.1,0-0.2,0s-0.1,0-0.2,0l3-5.1h-2.8l-3.5,6.4c-0.3,0.6-0.6,1.2-0.8,1.7s-0.3,1.1-0.3,1.7
		c0,0.8,0.1,1.4,0.4,2.1s0.7,1.2,1.1,1.6s1,0.8,1.6,1s1.3,0.4,1.9,0.4c0.7,0,1.4-0.1,2-0.4s1.2-0.6,1.7-1S73,120.4,73.2,119.8z
		 M71.1,118.9c-0.2,0.3-0.4,0.6-0.6,0.9s-0.6,0.4-0.9,0.6s-0.7,0.2-1.1,0.2c-0.4,0-0.8-0.1-1.2-0.2s-0.7-0.3-0.9-0.6
		s-0.5-0.5-0.6-0.9s-0.2-0.8-0.2-1.2c0-0.3,0-0.5,0.1-0.8s0.1-0.5,0.2-0.7c0.3-0.5,0.6-0.8,1-1.1s0.9-0.4,1.4-0.4
		c0.4,0,0.8,0.1,1.2,0.2s0.7,0.3,1,0.5s0.5,0.5,0.7,0.9s0.2,0.8,0.2,1.2C71.4,118.2,71.3,118.6,71.1,118.9z"/>
	<path class="st1" d="M84.5,107.9h-4.8v2.2h1.4v9.4v1.5c0,0.7-0.1,1.3-0.3,1.6s-0.6,0.6-1.2,0.7c0,0.2,0,0.3,0.1,0.5
		s0.1,0.3,0.1,0.4s0.1,0.3,0.1,0.4s0,0.3,0.1,0.5c0.6,0,1.1-0.1,1.5-0.3s0.8-0.5,1.1-0.8s0.5-0.8,0.7-1.2s0.2-1,0.2-1.6V119v-8.9
		h1.1V107.9z"/>
	<path class="st1" d="M97,121.1c0.5-0.6,0.9-1.3,1.2-2.1s0.4-1.8,0.4-2.8v-6.2h1.3v-2.2h-5.2v2.2h1.3v6.3c0,0.8-0.1,1.4-0.2,1.9
		s-0.4,0.9-0.6,1.2s-0.6,0.5-1,0.6s-0.8,0.2-1.3,0.2c-0.4,0-0.9-0.1-1.2-0.2s-0.7-0.4-1-0.7s-0.5-0.7-0.7-1.2s-0.2-1.1-0.2-1.8v-6.3
		h1.3v-2.2H86v2.2h1.3v6.3c0,1,0.1,1.9,0.4,2.7s0.7,1.5,1.2,2s1.1,1,1.8,1.3s1.4,0.4,2.2,0.4c0.8,0,1.6-0.1,2.3-0.4
		S96.5,121.7,97,121.1z"/>
	<polygon class="st1" points="114.2,110.1 115.4,110.1 115.4,107.9 110.2,107.9 110.2,110.1 111.8,110.1 111.8,118.8 105.7,107.9 
		101.5,107.9 101.5,110.1 102.8,110.1 102.8,120.5 101.5,120.5 101.5,122.7 106.7,122.7 106.7,120.5 105.2,120.5 105.2,111.7 
		111.4,122.7 114.2,122.7 	"/>
	<polygon class="st1" points="120.9,113.8 120.9,110.1 122.4,110.1 122.4,107.9 117.2,107.9 117.2,110.1 118.5,110.1 118.5,120.5 
		117.2,120.5 117.2,122.7 122.4,122.7 122.4,120.5 120.9,120.5 120.9,116 128.6,116 128.6,120.5 127.2,120.5 127.2,122.7 
		132.4,122.7 132.4,120.5 131,120.5 131,110.1 132.4,110.1 132.4,107.9 127.2,107.9 127.2,110.1 128.6,110.1 128.6,113.8 	"/>
	<path class="st1" d="M146.8,120.7c0.4-0.5,0.8-1,1.1-1.6s0.5-1.2,0.7-1.8s0.2-1.3,0.2-2c0-1.1-0.2-2.1-0.5-3s-0.9-1.7-1.5-2.4
		s-1.4-1.2-2.3-1.7s-1.8-0.6-2.9-0.6c-0.7,0-1.4,0.1-2,0.3s-1.2,0.4-1.7,0.8s-1,0.7-1.4,1.2s-0.8,1-1.1,1.6s-0.5,1.2-0.7,1.8
		s-0.2,1.3-0.2,2.1c0,0.7,0.1,1.4,0.2,2s0.4,1.3,0.7,1.8s0.7,1.1,1.1,1.6s0.9,0.9,1.4,1.2s1.1,0.6,1.7,0.8s1.3,0.3,2,0.3
		c0.7,0,1.4-0.1,2-0.3s1.2-0.4,1.7-0.8S146.4,121.2,146.8,120.7z M143.5,120.2c-0.6,0.3-1.2,0.4-1.9,0.4c-0.7,0-1.3-0.1-1.9-0.4
		s-1.1-0.7-1.5-1.2s-0.7-1.1-1-1.7s-0.3-1.3-0.3-2.1s0.1-1.4,0.3-2.1s0.5-1.2,1-1.7s0.9-0.9,1.5-1.2s1.2-0.4,1.9-0.4
		c0.7,0,1.3,0.1,1.9,0.4s1.1,0.7,1.5,1.2s0.7,1.1,1,1.7s0.3,1.3,0.3,2.1c0,0.7-0.1,1.4-0.3,2.1s-0.5,1.2-1,1.7
		S144.1,120,143.5,120.2z"/>
	<path class="st1" d="M161.7,114.6c0.2-0.3,0.4-0.7,0.5-1s0.2-0.6,0.3-0.9s0.1-0.5,0.1-0.8c0-0.6-0.1-1.2-0.3-1.7s-0.5-1-0.9-1.4
		s-0.9-0.7-1.4-0.9s-1.1-0.3-1.8-0.3c-0.6,0-1.1,0.1-1.6,0.3s-1,0.5-1.4,0.9s-0.7,0.9-0.9,1.5s-0.4,1.2-0.4,1.9h2.2
		c0-0.4,0.1-0.8,0.2-1.1s0.3-0.5,0.5-0.7s0.4-0.3,0.7-0.4s0.5-0.1,0.8-0.1c0.3,0,0.6,0.1,0.9,0.2s0.5,0.3,0.7,0.4s0.3,0.4,0.4,0.6
		s0.2,0.5,0.2,0.8c0,0.3,0,0.5-0.1,0.8s-0.2,0.5-0.4,0.7s-0.3,0.5-0.5,0.7s-0.3,0.4-0.5,0.6l-4.9,6.1v1.8h8.7v-2.2H157l3.9-4.8
		C161.2,115.3,161.5,114.9,161.7,114.6z"/>
	<path class="st1" d="M173.5,121.8c0.4-0.3,0.8-0.7,1-1.2s0.5-1,0.7-1.5s0.3-1.2,0.4-1.8s0.1-1.3,0.1-2c0-0.6,0-1.3-0.1-1.9
		s-0.2-1.2-0.4-1.8s-0.4-1.1-0.7-1.6s-0.6-0.9-1-1.2s-0.9-0.6-1.5-0.8s-1.2-0.3-1.9-0.3s-1.4,0.1-1.9,0.3s-1,0.5-1.5,0.8
		s-0.8,0.8-1,1.2s-0.5,1-0.7,1.6s-0.3,1.2-0.4,1.8s-0.1,1.3-0.1,1.9c0,0.7,0,1.3,0.1,2s0.2,1.2,0.4,1.8s0.4,1.1,0.7,1.5
		s0.6,0.9,1,1.2s0.9,0.6,1.4,0.8s1.2,0.3,1.9,0.3c0.7,0,1.4-0.1,1.9-0.3S173.1,122.2,173.5,121.8z M170.2,120.6
		c-0.7,0-1.2-0.1-1.6-0.4s-0.7-0.6-0.9-1.1s-0.4-1-0.4-1.7s-0.1-1.4-0.1-2.2c0-0.8,0-1.5,0.1-2.1s0.2-1.2,0.5-1.7s0.5-0.9,0.9-1.2
		s0.9-0.4,1.6-0.4c0.6,0,1.2,0.1,1.6,0.4s0.7,0.7,1,1.2s0.4,1.1,0.5,1.7s0.1,1.4,0.1,2.1c0,0.8,0,1.5-0.1,2.2s-0.2,1.2-0.5,1.7
		s-0.5,0.8-1,1.1S170.8,120.6,170.2,120.6z"/>
	<polygon class="st1" points="180.5,107.5 176.5,109.8 176.5,112.4 179.2,110.9 179.2,120.5 177.9,120.5 177.9,122.7 182.9,122.7 
		182.9,120.5 181.5,120.5 181.5,107.5 	"/>
	<path class="st1" d="M186.8,110.3h4.5c-0.3,0.7-0.7,1.4-1.1,2.2s-0.8,1.7-1.1,2.5s-0.8,1.8-1.1,2.7s-0.7,1.8-1,2.8h-1.2v2.2h4.6
		v-2.2h-1c0.3-0.9,0.7-1.9,1.1-2.8s0.8-1.9,1.2-2.8s0.8-1.8,1.3-2.7s0.8-1.7,1.2-2.5v-1.8h-9.7v3.5h2.3V110.3z"/>
	<path class="st1" d="M22.9,134.8c0.4,0,0.8-0.1,1.1-0.2c0.3-0.1,0.6-0.3,0.9-0.5c0.2-0.2,0.4-0.5,0.6-0.8s0.2-0.6,0.2-1
		c0-0.4-0.1-0.8-0.2-1.1s-0.3-0.6-0.6-0.8s-0.5-0.4-0.9-0.5s-0.7-0.2-1.1-0.2l-3.7,0v1.3h0.9v6.3h-0.9v1.3h3.5v-1.3h-1.1v-2.6H22.9z
		 M21.5,131.1h1.2c0.3,0,0.5,0,0.7,0.1c0.2,0.1,0.3,0.1,0.4,0.2s0.2,0.2,0.2,0.4s0.1,0.3,0.1,0.5c0,0.4-0.1,0.7-0.3,0.9
		c-0.2,0.2-0.5,0.3-0.9,0.3h-1.4V131.1z"/>
	<path class="st1" d="M30.1,134.8c0.4,0,0.6,0.1,0.9,0.3s0.4,0.5,0.5,0.9l0.7,2.7H34v-1.4h-0.8l-0.4-1.7c-0.1-0.3-0.2-0.5-0.3-0.7
		s-0.3-0.4-0.4-0.5c0.2-0.1,0.4-0.2,0.5-0.4s0.3-0.3,0.4-0.5s0.2-0.4,0.3-0.6s0.1-0.4,0.1-0.6c0-0.4-0.1-0.8-0.2-1.1
		s-0.3-0.6-0.6-0.8s-0.5-0.4-0.9-0.5s-0.7-0.2-1.1-0.2l-3.7,0v1.3h0.8v6.3h-0.8v1.3H30v-1.3h-0.9v-2.6H30.1z M29.2,131.1h1.3
		c0.3,0,0.5,0,0.7,0.1s0.3,0.1,0.4,0.2s0.2,0.2,0.2,0.4s0.1,0.3,0.1,0.5c0,0.4-0.1,0.7-0.3,0.9s-0.5,0.3-0.9,0.3h-1.5V131.1z"/>
	<path class="st1" d="M37.2,130.3c-0.3,0.2-0.6,0.4-0.9,0.7s-0.5,0.6-0.7,0.9s-0.3,0.7-0.4,1.1s-0.1,0.8-0.1,1.2
		c0,0.4,0,0.8,0.1,1.2s0.2,0.8,0.4,1.1s0.4,0.7,0.7,0.9s0.5,0.5,0.9,0.7s0.7,0.4,1,0.5s0.8,0.2,1.2,0.2c0.4,0,0.8-0.1,1.2-0.2
		s0.7-0.3,1-0.5s0.6-0.4,0.9-0.7s0.5-0.6,0.7-0.9s0.3-0.7,0.4-1.1s0.1-0.8,0.1-1.2c0-0.6-0.1-1.2-0.3-1.8s-0.5-1-0.9-1.5
		s-0.8-0.7-1.4-1s-1.1-0.4-1.7-0.4c-0.4,0-0.8,0.1-1.2,0.2S37.5,130.1,37.2,130.3z M39.5,131c0.4,0,0.8,0.1,1.1,0.3s0.6,0.4,0.9,0.7
		s0.4,0.6,0.6,1s0.2,0.8,0.2,1.2c0,0.4-0.1,0.9-0.2,1.2s-0.3,0.7-0.6,1s-0.5,0.5-0.9,0.7s-0.7,0.3-1.1,0.3c-0.4,0-0.8-0.1-1.1-0.3
		s-0.6-0.4-0.9-0.7s-0.4-0.6-0.6-1s-0.2-0.8-0.2-1.2s0.1-0.9,0.2-1.2s0.3-0.7,0.6-1s0.5-0.5,0.9-0.7S39,131,39.5,131z"/>
	<path class="st1" d="M51.5,130.5c-0.2-0.2-0.5-0.3-0.7-0.5s-0.6-0.2-0.9-0.3s-0.7-0.1-1-0.1c-0.4,0-0.8,0.1-1.2,0.2s-0.7,0.3-1,0.5
		s-0.6,0.4-0.9,0.7s-0.5,0.6-0.7,0.9s-0.3,0.7-0.4,1.1s-0.1,0.8-0.1,1.2c0,0.4,0,0.8,0.1,1.2s0.2,0.8,0.4,1.1s0.4,0.7,0.6,0.9
		s0.5,0.5,0.9,0.7s0.7,0.4,1,0.5s0.8,0.2,1.2,0.2c0.6,0,1.1-0.1,1.5-0.3s0.9-0.4,1.2-0.8v0.9H53l0-3.8v-0.6h-3.3v1.4h1.8
		c-0.1,0.3-0.2,0.5-0.4,0.7s-0.4,0.4-0.6,0.5s-0.5,0.3-0.8,0.3s-0.6,0.1-0.9,0.1c-0.4,0-0.8-0.1-1.1-0.3s-0.6-0.4-0.9-0.7
		s-0.4-0.6-0.6-1s-0.2-0.8-0.2-1.2s0.1-0.8,0.2-1.2s0.3-0.7,0.6-1s0.5-0.5,0.9-0.7s0.7-0.3,1.1-0.3c0.6,0,1,0.1,1.4,0.3
		s0.7,0.6,0.9,1h1.5v-1.3H52C51.9,130.9,51.7,130.7,51.5,130.5z"/>
	<path class="st1" d="M58.2,134.8c0.4,0,0.6,0.1,0.9,0.3s0.4,0.5,0.5,0.9l0.7,2.7h1.9v-1.4h-0.8l-0.4-1.7c-0.1-0.3-0.2-0.5-0.3-0.7
		s-0.3-0.4-0.4-0.5c0.2-0.1,0.4-0.2,0.5-0.4s0.3-0.3,0.4-0.5s0.2-0.4,0.3-0.6s0.1-0.4,0.1-0.6c0-0.4-0.1-0.8-0.2-1.1
		s-0.3-0.6-0.6-0.8s-0.5-0.4-0.9-0.5s-0.7-0.2-1.1-0.2l-3.7,0v1.3h0.8v6.3h-0.8v1.3h3.1v-1.3h-0.9v-2.6H58.2z M57.3,131.1h1.3
		c0.3,0,0.5,0,0.7,0.1s0.3,0.1,0.4,0.2s0.2,0.2,0.2,0.4s0.1,0.3,0.1,0.5c0,0.4-0.1,0.7-0.3,0.9s-0.5,0.3-0.9,0.3h-1.5V131.1z"/>
	<path class="st1" d="M68.8,138.7h3.1v-1.3H71l-2.7-7.6h-1.9l-2.7,7.6h-0.8v1.3h3.1v-1.3h-0.8l0.5-1.6h3l0.6,1.6h-0.6V138.7z
		 M66.2,134.5l1.1-3.2l1.1,3.2H66.2z"/>
	<polygon class="st1" points="84.2,131.2 84.2,129.8 81.2,129.8 78.6,136.9 76,129.8 72.9,129.8 72.9,131.2 73.8,131.2 73.8,137.4 
		73,137.4 73,138.7 76.1,138.7 76.1,137.4 75.2,137.4 75.2,131.9 78,138.7 79.2,138.7 81.9,131.9 81.9,137.4 81,137.4 81,138.7 
		84.2,138.7 84.2,137.4 83.3,137.4 83.3,131.2 	"/>
	<path class="st1" d="M90.8,138.7h3.1v-1.3H93l-2.7-7.6h-1.9l-2.7,7.6H85v1.3h3.1v-1.3h-0.8l0.5-1.6h3l0.6,1.6h-0.6V138.7z
		 M88.2,134.5l1.1-3.2l1.1,3.2H88.2z"/>
	<path class="st1" d="M98,140c-0.2,0.2-0.5,0.3-1,0.3l0.1,0.9c0.3,0,0.6,0,0.8-0.1s0.5-0.2,0.7-0.3s0.4-0.3,0.5-0.6s0.3-0.5,0.3-0.8
		l-1.1-0.3C98.3,139.5,98.2,139.8,98,140z"/>
	<path class="st1" d="M101,138.1c0.3-0.2,0.6-0.5,0.9-0.9s0.5-0.7,0.7-1.2l-1.6,0c-0.3,0.5-0.6,0.8-1,1.1s-0.8,0.3-1.4,0.3
		c-0.4,0-0.8-0.1-1.1-0.3s-0.6-0.4-0.9-0.7s-0.4-0.6-0.6-1s-0.2-0.8-0.2-1.2s0.1-0.8,0.2-1.2s0.3-0.7,0.6-1s0.5-0.5,0.9-0.7
		s0.7-0.3,1.1-0.3c0.6,0,1,0.1,1.4,0.3s0.7,0.6,0.9,1h1.5v-1.3h-0.7c-0.2-0.2-0.3-0.4-0.6-0.5s-0.5-0.3-0.7-0.5s-0.6-0.2-0.9-0.3
		s-0.7-0.1-1-0.1c-0.4,0-0.8,0.1-1.2,0.2s-0.7,0.3-1,0.5s-0.6,0.4-0.9,0.7s-0.5,0.6-0.7,0.9s-0.3,0.7-0.4,1.1s-0.1,0.8-0.1,1.2
		c0,0.4,0,0.8,0.1,1.2s0.2,0.8,0.4,1.1s0.4,0.7,0.6,0.9s0.5,0.5,0.9,0.7s0.7,0.4,1,0.5s0.8,0.2,1.2,0.2c0.5,0,0.9-0.1,1.3-0.2
		S100.6,138.4,101,138.1z"/>
	<path class="st1" d="M106.5,128.5c0,0,0.1,0,0.1,0s0.1,0,0.1,0c0.1,0,0.2,0,0.3,0.1c0.1,0,0.1,0,0.2,0.1s0.1,0.1,0.2,0.1
		c0.1,0.1,0.3,0.1,0.4,0.2s0.3,0.1,0.6,0.1c0.3,0,0.6-0.1,0.9-0.3s0.4-0.4,0.5-0.8l-1-0.2c0,0.1,0,0.2-0.1,0.2s-0.1,0.1-0.1,0.1
		s-0.1,0-0.1,0.1s-0.1,0-0.1,0c-0.1,0-0.2,0-0.3-0.1s-0.2-0.1-0.3-0.2c-0.1-0.1-0.2-0.1-0.4-0.2s-0.3-0.1-0.5-0.1
		c-0.1,0-0.3,0-0.4,0s-0.3,0.1-0.4,0.2s-0.2,0.2-0.3,0.3s-0.2,0.3-0.2,0.5l0.9,0.4c0-0.1,0.1-0.2,0.1-0.2S106.5,128.6,106.5,128.5z"
		/>
	<path class="st1" d="M108.8,138.7h3.1v-1.3H111l-2.7-7.6h-1.9l-2.7,7.6H103v1.3h3.1v-1.3h-0.8l0.5-1.6h3l0.6,1.6h-0.6V138.7z
		 M106.3,134.5l1.1-3.2l1.1,3.2H106.3z"/>
	<path class="st1" d="M113.1,136.6c0.2,0.3,0.4,0.7,0.7,0.9s0.5,0.5,0.9,0.7s0.7,0.4,1,0.5s0.8,0.2,1.2,0.2c0.4,0,0.8-0.1,1.2-0.2
		s0.7-0.3,1-0.5s0.6-0.4,0.9-0.7s0.5-0.6,0.7-0.9s0.3-0.7,0.4-1.1s0.1-0.8,0.1-1.2c0-0.6-0.1-1.2-0.3-1.8s-0.5-1-0.9-1.5
		s-0.8-0.7-1.4-1s-1.1-0.4-1.7-0.4c-0.4,0-0.8,0.1-1.2,0.2s-0.7,0.3-1,0.5s-0.6,0.4-0.9,0.7s-0.5,0.6-0.7,0.9s-0.3,0.7-0.4,1.1
		s-0.1,0.8-0.1,1.2c0,0.4,0,0.8,0.1,1.2S112.9,136.3,113.1,136.6z M114.2,133c0.1-0.4,0.3-0.7,0.6-1s0.5-0.5,0.9-0.7
		s0.7-0.3,1.1-0.3c0.4,0,0.8,0.1,1.1,0.3s0.6,0.4,0.9,0.7s0.4,0.6,0.6,1s0.2,0.8,0.2,1.2c0,0.4-0.1,0.9-0.2,1.2s-0.3,0.7-0.6,1
		s-0.5,0.5-0.9,0.7s-0.7,0.3-1.1,0.3c-0.4,0-0.8-0.1-1.1-0.3s-0.6-0.4-0.9-0.7s-0.4-0.6-0.6-1s-0.2-0.8-0.2-1.2
		S114.1,133.4,114.2,133z"/>
	<path class="st1" d="M135.3,138.7l0-3.8v-0.6H132v1.4h1.8c-0.1,0.3-0.2,0.5-0.4,0.7s-0.4,0.4-0.6,0.5s-0.5,0.3-0.8,0.3
		s-0.6,0.1-0.9,0.1c-0.4,0-0.8-0.1-1.1-0.3s-0.6-0.4-0.9-0.7s-0.4-0.6-0.6-1s-0.2-0.8-0.2-1.2s0.1-0.8,0.2-1.2s0.3-0.7,0.6-1
		s0.5-0.5,0.9-0.7s0.7-0.3,1.1-0.3c0.6,0,1,0.1,1.4,0.3s0.7,0.6,0.9,1h1.5v-1.3h-0.7c-0.2-0.2-0.3-0.4-0.6-0.5s-0.5-0.3-0.7-0.5
		s-0.6-0.2-0.9-0.3s-0.7-0.1-1-0.1c-0.4,0-0.8,0.1-1.2,0.2s-0.7,0.3-1,0.5s-0.6,0.4-0.9,0.7s-0.5,0.6-0.7,0.9s-0.3,0.7-0.4,1.1
		s-0.1,0.8-0.1,1.2c0,0.4,0,0.8,0.1,1.2s0.2,0.8,0.4,1.1s0.4,0.7,0.6,0.9s0.5,0.5,0.9,0.7s0.7,0.4,1,0.5s0.8,0.2,1.2,0.2
		c0.6,0,1.1-0.1,1.5-0.3s0.9-0.4,1.2-0.8v0.9H135.3z"/>
	<path class="st1" d="M140.5,134.8c0.4,0,0.6,0.1,0.9,0.3s0.4,0.5,0.5,0.9l0.7,2.7h1.9v-1.4h-0.8l-0.4-1.7c-0.1-0.3-0.2-0.5-0.3-0.7
		s-0.3-0.4-0.4-0.5c0.2-0.1,0.4-0.2,0.5-0.4s0.3-0.3,0.4-0.5s0.2-0.4,0.3-0.6s0.1-0.4,0.1-0.6c0-0.4-0.1-0.8-0.2-1.1
		s-0.3-0.6-0.6-0.8s-0.5-0.4-0.9-0.5s-0.7-0.2-1.1-0.2l-3.7,0v1.3h0.8v6.3h-0.8v1.3h3.1v-1.3h-0.9v-2.6H140.5z M139.6,131.1h1.3
		c0.3,0,0.5,0,0.7,0.1s0.3,0.1,0.4,0.2s0.2,0.2,0.2,0.4s0.1,0.3,0.1,0.5c0,0.4-0.1,0.7-0.3,0.9s-0.5,0.3-0.9,0.3h-1.5V131.1z"/>
	<path class="st1" d="M151,138.7h3.1v-1.3h-0.9l-2.7-7.6h-1.9l-2.7,7.6h-0.8v1.3h3.1v-1.3h-0.8l0.5-1.6h3l0.6,1.6H151V138.7z
		 M148.5,134.5l1.1-3.2l1.1,3.2H148.5z"/>
	<polygon class="st1" points="162.5,132.4 162.5,129.8 154.6,129.8 154.6,132.4 156.1,132.4 156.1,131.1 157.7,131.1 157.7,137.4 
		156.9,137.4 156.9,138.7 160,138.7 160,137.4 159.1,137.4 159.1,131.1 161,131.1 161,132.4 	"/>
	<path class="st1" d="M164.6,136.6c0.2,0.5,0.4,0.9,0.7,1.2s0.7,0.6,1.1,0.8s0.9,0.3,1.3,0.3c0.5,0,0.9-0.1,1.4-0.3s0.8-0.4,1.1-0.8
		s0.6-0.8,0.7-1.3s0.3-1.1,0.3-1.7v-3.7h0.8v-1.3h-3.1v1.3h0.8v3.8c0,0.5,0,0.8-0.1,1.1s-0.2,0.5-0.4,0.7s-0.4,0.3-0.6,0.4
		s-0.5,0.1-0.8,0.1c-0.3,0-0.5,0-0.7-0.1s-0.4-0.2-0.6-0.4s-0.3-0.4-0.4-0.7s-0.1-0.7-0.1-1.1v-3.8h0.8v-1.3h-3.1v1.3h0.8v3.8
		C164.3,135.5,164.4,136.1,164.6,136.6z"/>
	<polygon class="st1" points="175.8,131.1 175.8,129.8 172.9,129.8 172.9,131.1 173.7,131.1 173.7,137.4 172.9,137.4 172.9,138.7 
		175.8,138.7 175.8,137.4 175,137.4 175,131.1 	"/>
	<polygon class="st1" points="184.9,132.4 184.9,129.8 177,129.8 177,132.4 178.5,132.4 178.5,131.1 180.1,131.1 180.1,137.4 
		179.3,137.4 179.3,138.7 182.4,138.7 182.4,137.4 181.6,137.4 181.6,131.1 183.5,131.1 183.5,132.4 	"/>
	<path class="st1" d="M191.2,138.7h3.1v-1.3h-0.9l-2.7-7.6h-1.9l-2.7,7.6h-0.8v1.3h3.1v-1.3h-0.8l0.5-1.6h3l0.6,1.6h-0.6V138.7z
		 M188.6,134.5l1.1-3.2l1.1,3.2H188.6z"/>
</g>
</svg>
