<svg xmlns="http://www.w3.org/2000/svg" viewBox="0 0 239.01 231.09"><defs><style>.cls-1{fill:none;}.cls-2{fill:#fff;}.cls-3{fill:#1dbece;}</style></defs><title>Ativo 1</title><g id="Camada_2" data-name="Camada 2"><g id="Camada_1-2" data-name="Camada 1"><path class="cls-1" d="M96.44,218.61a.94.94,0,0,0-.46-.16,4.58,4.58,0,0,0-.53,0H94.26v2.71h1.61a1.25,1.25,0,0,0,.5-.14.85.85,0,0,0,.37-.4,1.71,1.71,0,0,0,.14-.8,2,2,0,0,0-.12-.77A.87.87,0,0,0,96.44,218.61Z"/><path class="cls-1" d="M86,42.25c-.47.17-.84.44-.67,1a.87.87,0,0,0,1.13.61,3.11,3.11,0,0,0,1.36-.73l-.2-1.44Z"/><path class="cls-1" d="M146.51,167a1.48,1.48,0,0,0-.61-.21c-.23,0-.46,0-.7,0h-1.57v3.57h1.47c.21,0,.43,0,.66,0a1.47,1.47,0,0,0,.65-.18,1.2,1.2,0,0,0,.5-.52,2.5,2.5,0,0,0,.18-1.06,2.68,2.68,0,0,0-.15-1A1.25,1.25,0,0,0,146.51,167Z"/><path class="cls-1" d="M50.14,15.7l-.52-2.79A48.41,48.41,0,0,0,12.13,67.29l2.79-.52A45.57,45.57,0,0,1,50.14,15.7Z"/><polygon class="cls-1" points="189.3 168.25 189.26 168.25 188.11 172.87 190.38 172.87 189.3 168.25"/><path class="cls-1" d="M66.6,105.26A45.55,45.55,0,0,1,15.53,70.05l-2.79.51a48.39,48.39,0,0,0,54.37,37.5Z"/><path class="cls-1" d="M72.9,167.72a1.83,1.83,0,0,0-.81-.86,3,3,0,0,0-2.59,0,1.92,1.92,0,0,0-.8.86,4.7,4.7,0,0,0-.41,1.47,18.2,18.2,0,0,0-.11,2.11,18.56,18.56,0,0,0,.11,2.15,4.71,4.71,0,0,0,.41,1.46,1.92,1.92,0,0,0,.8.84,3.24,3.24,0,0,0,2.59,0,1.83,1.83,0,0,0,.81-.84,4.45,4.45,0,0,0,.41-1.46,16.37,16.37,0,0,0,.12-2.15,16,16,0,0,0-.12-2.11A4.44,4.44,0,0,0,72.9,167.72Z"/><polygon class="cls-1" points="67.6 198.66 67.56 198.66 65.12 202.16 67.6 202.16 67.6 198.66"/><path class="cls-1" d="M55.6,218.61a.94.94,0,0,0-.46-.16,4.58,4.58,0,0,0-.53,0H53.42v2.71H55a1.2,1.2,0,0,0,.49-.14.85.85,0,0,0,.37-.4,1.7,1.7,0,0,0,.15-.8,2,2,0,0,0-.12-.77A.88.88,0,0,0,55.6,218.61Z"/><path class="cls-1" d="M65.44,218.61a.91.91,0,0,0-.46-.16,4.41,4.41,0,0,0-.52,0h-1.2v2.71h1.62a1.2,1.2,0,0,0,.49-.14.87.87,0,0,0,.38-.4,1.85,1.85,0,0,0,.14-.8,2,2,0,0,0-.12-.77A.88.88,0,0,0,65.44,218.61Z"/><path class="cls-1" d="M76.47,219.13a1.5,1.5,0,0,0-.62-.65,2,2,0,0,0-1-.21,2,2,0,0,0-1,.21,1.48,1.48,0,0,0-.61.65,3.55,3.55,0,0,0-.31,1.12,12.26,12.26,0,0,0-.09,1.6,12.54,12.54,0,0,0,.09,1.63,3.41,3.41,0,0,0,.31,1.11,1.46,1.46,0,0,0,.61.64,2.13,2.13,0,0,0,1,.2,2.16,2.16,0,0,0,1-.2,1.48,1.48,0,0,0,.62-.64,3.68,3.68,0,0,0,.31-1.11,14.88,14.88,0,0,0,.08-1.63,14.56,14.56,0,0,0-.08-1.6A3.84,3.84,0,0,0,76.47,219.13Z"/><polygon class="cls-1" points="92.22 197.75 91.12 202.16 93.28 202.16 92.26 197.75 92.22 197.75"/><path class="cls-1" d="M230.13,155.15a1.86,1.86,0,0,0,.8.84,2.7,2.7,0,0,0,1.3.27,2.77,2.77,0,0,0,1.29-.27,1.94,1.94,0,0,0,.81-.84,4.71,4.71,0,0,0,.41-1.46,18.69,18.69,0,0,0,.11-2.15,18.38,18.38,0,0,0-.11-2.12,4.71,4.71,0,0,0-.41-1.46,2,2,0,0,0-.81-.87,2.77,2.77,0,0,0-1.29-.28,2.7,2.7,0,0,0-1.3.28,1.94,1.94,0,0,0-.8.87,4.22,4.22,0,0,0-.41,1.46,16.21,16.21,0,0,0-.12,2.12,16.48,16.48,0,0,0,.12,2.15A4.22,4.22,0,0,0,230.13,155.15Z"/><path class="cls-1" d="M219.47,150.57a1.47,1.47,0,0,0,.65-.18,1.13,1.13,0,0,0,.49-.52,2.34,2.34,0,0,0,.19-1.06,2.68,2.68,0,0,0-.15-1,1.25,1.25,0,0,0-.43-.54,1.35,1.35,0,0,0-.61-.21c-.23,0-.46,0-.7,0h-1.57v3.57h1.47Z"/><path class="cls-1" d="M104.49,50.31l2.79-.51A48.41,48.41,0,0,0,52.9,12.3l.52,2.79A45.57,45.57,0,0,1,104.49,50.31Z"/><path class="cls-1" d="M145.54,197.18a.59.59,0,0,0-.24-.29.69.69,0,0,0-.38-.09.75.75,0,0,0-.39.09.53.53,0,0,0-.23.29,1.6,1.6,0,0,0-.12.52c0,.21,0,.47,0,.78s0,.59,0,.8a1.6,1.6,0,0,0,.12.52.54.54,0,0,0,.23.28.87.87,0,0,0,.39.08.8.8,0,0,0,.38-.08.61.61,0,0,0,.24-.28,2,2,0,0,0,.11-.52c0-.21,0-.48,0-.8s0-.57,0-.78A2,2,0,0,0,145.54,197.18Z"/><polygon class="cls-1" points="116.81 148.49 116.77 148.49 115.61 153.11 117.88 153.11 116.81 148.49"/><polygon class="cls-1" points="122.94 197.75 122.9 197.75 121.8 202.16 123.96 202.16 122.94 197.75"/><polygon class="cls-1" points="154.05 91.38 153.75 95.65 155.76 95.29 154.09 91.37 154.05 91.38"/><polygon class="cls-1" points="160.49 148.49 160.45 148.49 159.29 153.11 161.56 153.11 160.49 148.49"/><path class="cls-1" d="M143.82,91.86l-1.39.24.56,3.16,1.3-.23c.75-.13,1.78-.26,1.49-1.89S144.66,91.71,143.82,91.86Z"/><path class="cls-1" d="M149.13,147.26a1.27,1.27,0,0,0-.61-.21q-.33,0-.69,0h-1.58v3.57h1.47l.67,0a1.51,1.51,0,0,0,.65-.18,1.18,1.18,0,0,0,.49-.52,2.34,2.34,0,0,0,.19-1.06,2.47,2.47,0,0,0-.16-1A1.18,1.18,0,0,0,149.13,147.26Z"/><path class="cls-1" d="M136.41,149.5a1.93,1.93,0,0,0,.31-1.11,1.37,1.37,0,0,0-.16-.72,1.16,1.16,0,0,0-.4-.42,1.37,1.37,0,0,0-.51-.19,4.77,4.77,0,0,0-.5,0h-1.79V150h1.79A1.43,1.43,0,0,0,136.41,149.5Z"/><path class="cls-1" d="M137.14,154.48a1.61,1.61,0,0,0-.47-1.32,1.86,1.86,0,0,0-1.15-.36h-2.16v3.25h1.79a2.18,2.18,0,0,0,1.55-.43A1.54,1.54,0,0,0,137.14,154.48Z"/><path class="cls-1" d="M175.62,170.33a1.47,1.47,0,0,0,.65-.18,1.15,1.15,0,0,0,.5-.52,2.48,2.48,0,0,0,.19-1.06,2.66,2.66,0,0,0-.16-1,1.25,1.25,0,0,0-.43-.54,1.43,1.43,0,0,0-.61-.21q-.34,0-.69,0h-1.58v3.57H175C175.17,170.35,175.39,170.35,175.62,170.33Z"/><polygon class="cls-1" points="176.9 71.4 176.86 71.4 176.56 75.67 178.57 75.32 176.9 71.4"/><polygon class="cls-1" points="154.17 59.53 154.13 59.53 153.84 63.8 155.85 63.45 154.17 59.53"/><path class="cls-1" d="M144,63.25c.75-.12,1.78-.25,1.49-1.89s-1.12-1.43-2-1.28l-1.39.25.56,3.16Z"/><path class="cls-1" d="M163.8,88.3l-1.12.2,1.43,8,1.11-.2c1.86-.33,2.79-1.55,2.26-4.52S165.66,88,163.8,88.3Z"/><path class="cls-1" d="M107.05,106.65c1.86-.34,2.8-1.55,2.27-4.53s-1.83-3.8-3.69-3.47l-1.11.2,1.42,8Z"/><path class="cls-1" d="M102.89,83.23l-1.12.2,1.43,8,1.11-.2c1.86-.33,2.79-1.55,2.26-4.53S104.74,82.9,102.89,83.23Z"/><path class="cls-1" d="M114.7,65c-1.86.33-2.1,1.72-1.58,4.6s1.21,4.1,3.06,3.77,2.11-1.64,1.58-4.6S116.55,64.69,114.7,65Z"/><path class="cls-1" d="M235,167.72a1.94,1.94,0,0,0-.81-.86,3,3,0,0,0-2.59,0,1.92,1.92,0,0,0-.8.86,4.44,4.44,0,0,0-.41,1.47,16.21,16.21,0,0,0-.11,2.11,16.57,16.57,0,0,0,.11,2.15,4.45,4.45,0,0,0,.41,1.46,1.92,1.92,0,0,0,.8.84,3.24,3.24,0,0,0,2.59,0,1.94,1.94,0,0,0,.81-.84,4.45,4.45,0,0,0,.41-1.46,16.37,16.37,0,0,0,.12-2.15,16,16,0,0,0-.12-2.11A4.44,4.44,0,0,0,235,167.72Z"/><path class="cls-1" d="M162.28,167.72a1.94,1.94,0,0,0-.81-.86,2.62,2.62,0,0,0-1.29-.29,2.58,2.58,0,0,0-1.3.29,1.86,1.86,0,0,0-.8.86,4.21,4.21,0,0,0-.41,1.47,16,16,0,0,0-.12,2.11,16.37,16.37,0,0,0,.12,2.15,4.22,4.22,0,0,0,.41,1.46,1.86,1.86,0,0,0,.8.84,2.7,2.7,0,0,0,1.3.27,2.74,2.74,0,0,0,1.29-.27,1.94,1.94,0,0,0,.81-.84,4.71,4.71,0,0,0,.41-1.46,18.56,18.56,0,0,0,.11-2.15,18.2,18.2,0,0,0-.11-2.11A4.7,4.7,0,0,0,162.28,167.72Z"/><path class="cls-1" d="M183.86,218.61a.94.94,0,0,0-.46-.16,4.58,4.58,0,0,0-.53,0h-1.19v2.71h1.62a1.2,1.2,0,0,0,.49-.14.85.85,0,0,0,.37-.4,1.7,1.7,0,0,0,.15-.8,2,2,0,0,0-.12-.77A.88.88,0,0,0,183.86,218.61Z"/><path class="cls-1" d="M159.27,219.13a1.48,1.48,0,0,0-.61-.65,2.06,2.06,0,0,0-1-.21,2,2,0,0,0-1,.21,1.48,1.48,0,0,0-.61.65,3.84,3.84,0,0,0-.31,1.12,14.56,14.56,0,0,0-.08,1.6,14.88,14.88,0,0,0,.08,1.63,3.68,3.68,0,0,0,.31,1.11,1.46,1.46,0,0,0,.61.64,2.15,2.15,0,0,0,1,.2,2.19,2.19,0,0,0,1-.2,1.46,1.46,0,0,0,.61-.64,3.41,3.41,0,0,0,.31-1.11,12.54,12.54,0,0,0,.09-1.63,12.26,12.26,0,0,0-.09-1.6A3.55,3.55,0,0,0,159.27,219.13Z"/><polygon class="cls-1" points="147.55 219.54 146.67 223.04 148.39 223.04 147.58 219.54 147.55 219.54"/><polygon class="cls-1" points="192.76 219.54 191.89 223.04 193.61 223.04 192.8 219.54 192.76 219.54"/><path class="cls-1" d="M235.05,197.9a1.45,1.45,0,0,0-.58-.73,2.35,2.35,0,0,0-1.94,0,1.45,1.45,0,0,0-.58.73,4.44,4.44,0,0,0-.28,1.3c0,.53-.07,1.18-.07,2s0,1.46.07,2a4.44,4.44,0,0,0,.28,1.29,1.46,1.46,0,0,0,.58.7,2.35,2.35,0,0,0,1.94,0,1.46,1.46,0,0,0,.58-.7,4.44,4.44,0,0,0,.28-1.29c0-.54.07-1.2.07-2s0-1.43-.07-2A4.44,4.44,0,0,0,235.05,197.9Z"/><path class="cls-1" d="M207.77,204.45a1.46,1.46,0,0,0,.58.7,2.35,2.35,0,0,0,1.94,0,1.46,1.46,0,0,0,.58-.7,4.44,4.44,0,0,0,.28-1.29c0-.54.07-1.2.07-2s0-1.43-.07-2a4.44,4.44,0,0,0-.28-1.3,1.45,1.45,0,0,0-.58-.73,2.35,2.35,0,0,0-1.94,0,1.45,1.45,0,0,0-.58.73,4.44,4.44,0,0,0-.28,1.3c-.05.53-.07,1.18-.07,2s0,1.46.07,2A4.44,4.44,0,0,0,207.77,204.45Z"/><polygon class="cls-1" points="128.24 219.54 127.37 223.04 129.09 223.04 128.28 219.54 128.24 219.54"/><polygon class="cls-1" points="233.6 219.54 232.72 223.04 234.44 223.04 233.63 219.54 233.6 219.54"/><polygon class="cls-1" points="105.34 219.54 104.47 223.04 106.19 223.04 105.37 219.54 105.34 219.54"/><polygon class="cls-2" points="187.63 88.85 182.59 82.36 179.34 82.94 181.65 95.95 184.63 95.43 183.35 88.27 183.39 88.26 188.43 94.75 191.69 94.17 189.37 81.16 186.4 81.69 187.67 88.84 187.63 88.85"/><polygon class="cls-2" points="193.53 83 195.4 93.5 198.38 92.97 196.51 82.47 199.38 81.97 198.94 79.45 190.21 81.01 190.65 83.52 193.53 83"/><path class="cls-2" d="M213.46,84.54c1.51.52,2.33.73,2.5,1.66s-.53,1.34-1.46,1.51a12.3,12.3,0,0,1-3.72.09l.44,2.51A13.24,13.24,0,0,0,215,90.2c2.6-.46,4.45-1.94,4-4.73-.3-1.67-1.4-2.7-3.87-3.43-1.48-.44-2.22-.66-2.37-1.49s.45-1.23,1.29-1.39a11.88,11.88,0,0,1,3.38,0L217,76.62a11.35,11.35,0,0,0-3.49,0c-1.85.33-4.21,1.61-3.75,4.22C210.1,82.93,211.42,83.85,213.46,84.54Z"/><path class="cls-2" d="M144,70.83,143.15,66l.89-.16,3.19,4.42,3.56-.64,2.7-.48.18-2.72,3.2-.57,1.07,2.5,3.26-.58L155.31,55.3l-3.8.68L150.3,69,147,65a3.76,3.76,0,0,0,1.55-4.19c-.36-2.05-1.75-3.9-4.72-3.38l-5.11.92,2.32,13Zm10.13-11.3h0l1.68,3.92-2,.35Zm-10.61.55c.84-.15,1.68-.26,2,1.28s-.74,1.77-1.49,1.89l-1.3.24-.56-3.16Z"/><rect class="cls-2" x="136.05" y="90.48" width="3.02" height="13.22" transform="translate(-14.89 25.62) rotate(-10.1)"/><polygon class="cls-2" points="178.31 83.12 170.23 84.56 172.54 97.58 180.81 96.1 180.37 93.59 175.07 94.54 174.56 91.66 178.93 90.88 178.48 88.37 174.11 89.15 173.65 86.54 178.76 85.64 178.31 83.12"/><polygon class="cls-2" points="117.4 78.06 109.31 79.5 111.63 92.5 119.9 91.03 119.46 88.53 114.16 89.46 113.64 86.59 118.01 85.81 117.57 83.3 113.2 84.08 112.74 81.48 117.85 80.56 117.4 78.06"/><polygon class="cls-2" points="210.36 90.84 209.91 88.33 204.62 89.28 204.1 86.4 208.47 85.62 208.02 83.11 203.66 83.88 203.19 81.28 208.31 80.38 207.86 77.87 199.78 79.31 202.09 92.31 210.36 90.84"/><polygon class="cls-2" points="156.71 71.06 148.62 72.5 150.93 85.51 159.2 84.03 158.76 81.53 153.46 82.47 152.95 79.59 157.32 78.81 156.87 76.3 152.5 77.08 152.04 74.48 157.15 73.56 156.71 71.06"/><polygon class="cls-2" points="160.04 83.89 163.01 83.36 162.01 77.69 162.04 77.68 164.97 83.01 167.57 82.55 168.47 76.54 168.51 76.53 169.52 82.2 172.49 81.67 170.18 68.66 166.55 69.31 165.47 77.75 165.43 77.75 161.35 70.23 157.73 70.88 160.04 83.89"/><rect class="cls-2" x="134.52" y="74.85" width="3.02" height="13.21" transform="translate(-12.18 25.12) rotate(-10.1)"/><path class="cls-2" d="M176.4,78.29l3.19-.57,1.08,2.49,3.25-.58L178,67.17l-3.81.67L173,81.59l3.25-.58Zm.46-6.89h0l1.67,3.92-2,.35Z"/><polygon class="cls-2" points="140.72 73.9 137.47 74.48 139.79 87.5 142.76 86.96 141.49 79.81 141.52 79.8 146.57 86.29 149.82 85.71 147.5 72.7 144.53 73.22 145.81 80.38 145.77 80.39 140.72 73.9"/><polygon class="cls-2" points="132.48 62.05 134.34 72.55 137.32 72.02 135.45 61.52 138.33 61.01 137.88 58.49 129.15 60.05 129.59 62.56 132.48 62.05"/><path class="cls-2" d="M107.78,109.1c4.28-.76,5.23-4,4.6-7.53s-2.64-6.23-6.91-5.47l-4.37.77,2.31,13Zm-2.15-10.45c1.86-.33,3.16.5,3.69,3.47s-.41,4.19-2.27,4.53l-1.11.19-1.42-8Z"/><polygon class="cls-2" points="120.14 93.48 112.06 94.92 114.38 107.93 122.65 106.46 122.2 103.95 116.9 104.89 116.39 102.01 120.76 101.23 120.31 98.72 115.94 99.5 115.48 96.9 120.59 95.99 120.14 93.48"/><path class="cls-2" d="M109.64,86.15c-.63-3.53-2.65-6.24-6.92-5.48l-4.37.78,2.31,13,4.37-.78C109.31,92.92,110.27,89.68,109.64,86.15Zm-5.33,5.07-1.11.2-1.43-8,1.12-.2c1.85-.33,3.15.49,3.68,3.46S106.17,90.89,104.31,91.22Z"/><polygon class="cls-2" points="134.08 91 125.35 92.56 125.8 95.06 128.68 94.55 130.55 105.05 133.52 104.52 131.65 94.02 134.53 93.51 134.08 91"/><polygon class="cls-2" points="104.43 64.45 103.35 72.89 103.31 72.9 99.23 65.38 95.6 66.02 97.92 79.03 100.89 78.5 99.89 72.83 99.92 72.83 102.84 78.16 105.45 77.69 106.35 71.68 106.39 71.68 107.4 77.35 110.37 76.81 108.06 63.81 104.43 64.45"/><path class="cls-2" d="M124.71,68.51c1.51.52,2.34.74,2.5,1.66s-.53,1.35-1.46,1.51a12,12,0,0,1-3.72.09l.45,2.51a13.91,13.91,0,0,0,3.81-.1c2.61-.47,4.45-2,4-4.74-.3-1.67-1.41-2.7-3.88-3.43-1.48-.44-2.22-.66-2.37-1.49s.45-1.24,1.29-1.38a11.25,11.25,0,0,1,3.39,0l-.45-2.51a10.7,10.7,0,0,0-3.48,0c-1.86.32-4.22,1.61-3.76,4.21C121.36,66.91,122.67,67.82,124.71,68.51Z"/><path class="cls-2" d="M129.43,78.31a9.39,9.39,0,0,1,3.26,0l-.45-2.51a10.82,10.82,0,0,0-3.54,0c-4.28.77-5.2,4.19-4.57,7.72s2.68,6.42,7,5.66a10.53,10.53,0,0,0,3.33-1.17L134,85.55a9.59,9.59,0,0,1-3.06,1.13c-1.86.32-3.19-.68-3.72-3.66S127.57,78.64,129.43,78.31Z"/><path class="cls-2" d="M114.25,62.51c-3.91.7-4.85,4-4.2,7.65s2.68,6.43,6.58,5.73,4.86-3.93,4.2-7.64S118.15,61.82,114.25,62.51Zm1.93,10.88c-1.85.33-2.54-.82-3.06-3.77s-.28-4.27,1.58-4.6,2.55.89,3.06,3.77S118,73.06,116.18,73.39Z"/><path class="cls-2" d="M170.55,91.22c-.63-3.53-2.65-6.24-6.92-5.48l-4.37.78,2.32,13,4.37-.78C170.22,98,171.18,94.75,170.55,91.22Zm-5.33,5.07-1.11.2-1.43-8,1.12-.2c1.86-.33,3.15.5,3.68,3.47S167.08,96,165.22,96.29Z"/><path class="cls-2" d="M157.86,100.19l3.26-.58-5.89-12.47-3.81.68-1.16,12.58-3-3.62a3.76,3.76,0,0,0,1.55-4.19c-.36-2.06-1.75-3.91-4.72-3.38l-5.11.91,2.31,13,3-.52-.86-4.84.89-.16,3.18,4.42,3.57-.63,2.32-.42.19-2.72,3.2-.56ZM144.29,95l-1.3.23-.56-3.16,1.39-.24c.84-.15,1.68-.26,2,1.28S145,94.9,144.29,95Zm9.47.62.29-4.27h0l1.67,3.92Z"/><path class="cls-2" d="M68,113.08l1.23,6.64,3.28-.59L67.7,92.81l-3.28.61,1.65,9A42.62,42.62,0,0,1,18.42,69.52L26.91,68l-.6-3.28-8.49,1.56A42.62,42.62,0,0,1,50.67,18.59l1.53,8.32,3.28-.6L54,18A42.64,42.64,0,0,1,101.6,50.84l-8.79,1.62.61,3.27,26.31-4.83-.61-3.28-6.82,1.25A53.49,53.49,0,0,0,52,7.29L50.64,0,47.36.6,48.7,7.89A53.5,53.5,0,0,0,7.11,68.21L0,69.51l.6,3.28,7.11-1.3A53.51,53.51,0,0,0,68,113.08ZM107.28,49.8l-2.79.51A45.57,45.57,0,0,0,53.42,15.09L52.9,12.3A48.41,48.41,0,0,1,107.28,49.8ZM49.62,12.91l.52,2.79A45.57,45.57,0,0,0,14.92,66.77l-2.79.52A48.41,48.41,0,0,1,49.62,12.91ZM12.74,70.56l2.79-.51A45.55,45.55,0,0,0,66.6,105.26l.51,2.8A48.39,48.39,0,0,1,12.74,70.56Z"/><rect class="cls-2" x="84.17" y="46.94" width="6.72" height="1.7" transform="translate(-7.03 16.12) rotate(-10.12)"/><path class="cls-2" d="M86.08,37.22a14.14,14.14,0,0,0-3.17,1l.26,1.44a12.22,12.22,0,0,1,2.71-.92c1-.17,1.31.26,1.38.82l.14.92-2.15.75c-1.7.59-2,1.42-1.79,2.41a2,2,0,0,0,2.43,1.74A3.35,3.35,0,0,0,88,44.1h0l.14.76L90,44.52,89.09,39C88.86,37.53,87.57,37,86.08,37.22Zm.36,6.6a.87.87,0,0,1-1.13-.61c-.17-.52.2-.79.67-1l1.62-.6.2,1.44A3.11,3.11,0,0,1,86.44,43.82Z"/><path class="cls-2" d="M33.34,79.66l-.33.4,1.08,5.26,25.57-5.24-1.27-6.24L43.45,76.9c6.15-7,11.74-15,10-23.27a11.82,11.82,0,0,0-5.09-8,12.19,12.19,0,0,0-9.2-1.39,30.87,30.87,0,0,0-9.74,3.78l-.64.4,1.31,6.41,1.32-.79a24.33,24.33,0,0,1,7.89-3.27,6,6,0,0,1,4.53.64,6.26,6.26,0,0,1,2.5,4.2c1.44,7-6.25,16-11.33,22C34.44,78.36,33.87,79,33.34,79.66Z"/><path class="cls-2" d="M72.76,71.47a28,28,0,0,1-9.4.38l-1.51-.2,1.27,6.24.75.12a26.75,26.75,0,0,0,4.15.31,29.78,29.78,0,0,0,6-.61c4.34-.89,7.59-2.56,9.65-5a10.69,10.69,0,0,0,2.13-9.43A9.94,9.94,0,0,0,78,55.47a9.64,9.64,0,0,0,3.41-9.72c-1.2-5.88-6.58-8.74-13.7-7.29a29.29,29.29,0,0,0-9.46,3.73l-.64.4,1.28,6.28,1.31-.76a25.1,25.1,0,0,1,8.14-3.21c2.59-.53,5.46.22,6,3.09a4.38,4.38,0,0,1-1.09,4.1,9.43,9.43,0,0,1-4.94,2.38l-5.41,1.1,1.28,6.25,5-1c1.39-.28,8.38-1.44,9.43,3.72a5.13,5.13,0,0,1-.75,4.3C76.87,70.08,75.17,71,72.76,71.47Z"/><path class="cls-3" d="M57.59,146.81a10.41,10.41,0,0,1,3.57.63v-2.83a10,10,0,0,0-1.87-.47,13.12,13.12,0,0,0-2-.16,6.76,6.76,0,0,0-3.06.62,5.45,5.45,0,0,0-2,1.65,6.89,6.89,0,0,0-1.11,2.42,12.6,12.6,0,0,0,0,5.73,6.89,6.89,0,0,0,1.11,2.42,5.57,5.57,0,0,0,2,1.66,6.89,6.89,0,0,0,3.06.62,13.19,13.19,0,0,0,2-.17,10,10,0,0,0,1.87-.46v-2.84a10.41,10.41,0,0,1-3.57.63,3,3,0,0,1-2.46-1.1,7.75,7.75,0,0,1,0-7.25A3,3,0,0,1,57.59,146.81Z"/><rect class="cls-3" x="63.45" y="144.19" width="3.36" height="14.7"/><polygon class="cls-3" points="80.76 158.89 80.76 144.19 77.4 144.19 77.4 152.27 77.35 152.27 73.09 144.19 69.42 144.19 69.42 158.89 72.78 158.89 72.78 150.8 72.82 150.8 77.08 158.89 80.76 158.89"/><polygon class="cls-3" points="92.7 156.05 86.72 156.05 86.72 152.8 91.66 152.8 91.66 149.96 86.72 149.96 86.72 147.02 92.5 147.02 92.5 144.19 83.36 144.19 83.36 158.89 92.7 158.89 92.7 156.05"/><polygon class="cls-3" points="109.06 158.89 109.06 144.19 104.97 144.19 102.13 153.22 102.09 153.22 99.09 144.19 94.99 144.19 94.99 158.89 98.35 158.89 98.35 152.48 98.4 152.48 100.56 158.89 103.5 158.89 105.66 152.48 105.7 152.48 105.7 158.89 109.06 158.89"/><path class="cls-3" d="M114.92,156h3.61l.7,2.94h3.67l-4-14.81h-4.3l-4.08,14.81h3.68Zm1.85-7.46h0l1.07,4.62h-2.26Z"/><path class="cls-3" d="M137.77,158.68a4,4,0,0,0,1.47-.69,3.29,3.29,0,0,0,1-1.23,4.28,4.28,0,0,0,.37-1.86,3.75,3.75,0,0,0-.71-2.3,3.47,3.47,0,0,0-1.81-1.3,2.93,2.93,0,0,0,1.56-1.29,3.94,3.94,0,0,0,.54-2,4.66,4.66,0,0,0-.25-1.52,3.09,3.09,0,0,0-.73-1.19,3.35,3.35,0,0,0-1.24-.79,5,5,0,0,0-1.77-.28H130v14.7h6A7.3,7.3,0,0,0,137.77,158.68ZM133.36,147h1.79a4.77,4.77,0,0,1,.5,0,1.37,1.37,0,0,1,.51.19,1.16,1.16,0,0,1,.4.42,1.37,1.37,0,0,1,.16.72,1.93,1.93,0,0,1-.31,1.11,1.43,1.43,0,0,1-1.26.46h-1.79Zm0,9V152.8h2.16a1.86,1.86,0,0,1,1.15.36,1.61,1.61,0,0,1,.47,1.32,1.54,1.54,0,0,1-.44,1.14,2.18,2.18,0,0,1-1.55.43Z"/><path class="cls-3" d="M150.66,153.09a3.45,3.45,0,0,0,2-1.71,5.93,5.93,0,0,0,.56-2.57,6.2,6.2,0,0,0-.23-1.72,4,4,0,0,0-.76-1.47,4.17,4.17,0,0,0-1.4-1,5.11,5.11,0,0,0-2.12-.39h-5.78v14.7h3.36v-5.46h1l2.63,5.46h4Zm-1.13-3.22a1.18,1.18,0,0,1-.49.52,1.51,1.51,0,0,1-.65.18l-.67,0h-1.47V147h1.58q.36,0,.69,0a1.27,1.27,0,0,1,.61.21,1.18,1.18,0,0,1,.43.54,2.47,2.47,0,0,1,.16,1A2.34,2.34,0,0,1,149.53,149.87Z"/><path class="cls-3" d="M158.6,156h3.61l.7,2.94h3.67l-4-14.81h-4.3l-4.08,14.81h3.68Zm1.85-7.46h0l1.07,4.62H159.3Z"/><path class="cls-3" d="M169.78,158.93c.39,0,.77.1,1.14.12s.7,0,1,0a8.46,8.46,0,0,0,2.05-.25,4.59,4.59,0,0,0,1.67-.77,3.9,3.9,0,0,0,1.12-1.38,4.59,4.59,0,0,0,.41-2,4,4,0,0,0-.83-2.48,8,8,0,0,0-2.74-2l-1-.52a4.2,4.2,0,0,1-.73-.47,1.63,1.63,0,0,1-.43-.49,1.21,1.21,0,0,1-.14-.62,1,1,0,0,1,.48-.94,2.14,2.14,0,0,1,1.2-.32,11.28,11.28,0,0,1,1.8.17,13.68,13.68,0,0,1,1.91.46v-2.83a7.68,7.68,0,0,0-.88-.27l-1-.2-1-.12c-.33,0-.65,0-.94,0a7.55,7.55,0,0,0-1.66.19,4.81,4.81,0,0,0-1.59.65,3.75,3.75,0,0,0-1.21,1.2,3.33,3.33,0,0,0-.47,1.84,4.62,4.62,0,0,0,.23,1.54,4,4,0,0,0,.66,1.25,4.67,4.67,0,0,0,1.05,1,12.06,12.06,0,0,0,1.42.91l1,.57a5.23,5.23,0,0,1,.76.52,1.86,1.86,0,0,1,.46.53,1.35,1.35,0,0,1,.16.69,1.1,1.1,0,0,1-.56,1.08,2.87,2.87,0,0,1-1.33.28,14.86,14.86,0,0,1-2-.14,9.73,9.73,0,0,1-2.13-.49v2.84a8.7,8.7,0,0,0,.94.26C169,158.81,169.4,158.87,169.78,158.93Z"/><rect class="cls-3" x="179.45" y="144.19" width="3.36" height="14.7"/><polygon class="cls-3" points="185.4 144.19 185.4 158.89 194.74 158.89 194.74 156.05 188.76 156.05 188.76 144.19 185.4 144.19"/><polygon class="cls-3" points="205.54 147.02 205.54 144.19 196.4 144.19 196.4 158.89 205.75 158.89 205.75 156.05 199.76 156.05 199.76 152.8 204.7 152.8 204.7 149.96 199.76 149.96 199.76 147.02 205.54 147.02"/><rect class="cls-3" x="208.03" y="144.19" width="3.36" height="14.7"/><path class="cls-3" d="M214,158.89h3.36v-5.46h1l2.62,5.46h4l-3.25-5.8a3.46,3.46,0,0,0,1.95-1.71,5.8,5.8,0,0,0,.57-2.57,6.6,6.6,0,0,0-.23-1.72,4,4,0,0,0-.77-1.47,4.07,4.07,0,0,0-1.4-1,5.11,5.11,0,0,0-2.12-.39H214ZM217.34,147h1.57c.24,0,.47,0,.7,0a1.35,1.35,0,0,1,.61.21,1.25,1.25,0,0,1,.43.54,2.68,2.68,0,0,1,.15,1,2.34,2.34,0,0,1-.19,1.06,1.13,1.13,0,0,1-.49.52,1.47,1.47,0,0,1-.65.18l-.66,0h-1.47Z"/><path class="cls-3" d="M227.53,156.89a5.08,5.08,0,0,0,1.88,1.62,7,7,0,0,0,5.63,0,5,5,0,0,0,1.88-1.62,7,7,0,0,0,1.06-2.4,12.63,12.63,0,0,0,.34-3,12.35,12.35,0,0,0-.34-2.91,7.18,7.18,0,0,0-1.06-2.42,5.15,5.15,0,0,0-1.88-1.64,7,7,0,0,0-5.63,0,5.23,5.23,0,0,0-1.88,1.64,7.39,7.39,0,0,0-1.06,2.42,12.35,12.35,0,0,0-.33,2.91,12.64,12.64,0,0,0,.33,3A7.19,7.19,0,0,0,227.53,156.89Zm2.19-7.47a4.22,4.22,0,0,1,.41-1.46,1.94,1.94,0,0,1,.8-.87,2.7,2.7,0,0,1,1.3-.28,2.77,2.77,0,0,1,1.29.28,2,2,0,0,1,.81.87,4.71,4.71,0,0,1,.41,1.46,18.38,18.38,0,0,1,.11,2.12,18.69,18.69,0,0,1-.11,2.15,4.71,4.71,0,0,1-.41,1.46,1.94,1.94,0,0,1-.81.84,2.77,2.77,0,0,1-1.29.27,2.7,2.7,0,0,1-1.3-.27,1.86,1.86,0,0,1-.8-.84,4.22,4.22,0,0,1-.41-1.46,16.48,16.48,0,0,1-.12-2.15A16.21,16.21,0,0,1,229.72,149.42Z"/><path class="cls-3" d="M52.21,176.58a5.47,5.47,0,0,0,2,1.66,6.89,6.89,0,0,0,3.06.62,13.19,13.19,0,0,0,2-.17,10,10,0,0,0,1.87-.46v-2.84a10.41,10.41,0,0,1-3.57.63,3,3,0,0,1-2.46-1.1,7.75,7.75,0,0,1,0-7.25,3,3,0,0,1,2.46-1.1,10.41,10.41,0,0,1,3.57.63v-2.83a9.3,9.3,0,0,0-1.87-.46,12,12,0,0,0-2-.17,6.76,6.76,0,0,0-3.06.62,5.38,5.38,0,0,0-2,1.66,6.76,6.76,0,0,0-1.11,2.41,12.6,12.6,0,0,0,0,5.73A6.8,6.8,0,0,0,52.21,176.58Z"/><path class="cls-3" d="M75.5,176.65a7.1,7.1,0,0,0,1.06-2.4,12.64,12.64,0,0,0,.33-2.95,12.48,12.48,0,0,0-.33-2.91A7.39,7.39,0,0,0,75.5,166a5.2,5.2,0,0,0-1.88-1.63,6.9,6.9,0,0,0-5.63,0A5.12,5.12,0,0,0,66.11,166a7.18,7.18,0,0,0-1.06,2.42,12,12,0,0,0-.34,2.91,12.12,12.12,0,0,0,.34,2.95,6.91,6.91,0,0,0,1.06,2.4A5,5,0,0,0,68,178.27a7,7,0,0,0,5.63,0A5.08,5.08,0,0,0,75.5,176.65Zm-2.19-3.2a4.45,4.45,0,0,1-.41,1.46,1.83,1.83,0,0,1-.81.84,3.24,3.24,0,0,1-2.59,0,1.92,1.92,0,0,1-.8-.84,4.71,4.71,0,0,1-.41-1.46,18.56,18.56,0,0,1-.11-2.15,18.2,18.2,0,0,1,.11-2.11,4.7,4.7,0,0,1,.41-1.47,1.92,1.92,0,0,1,.8-.86,3,3,0,0,1,2.59,0,1.83,1.83,0,0,1,.81.86,4.44,4.44,0,0,1,.41,1.47,16,16,0,0,1,.12,2.11A16.37,16.37,0,0,1,73.31,173.45Z"/><polygon class="cls-3" points="84.09 170.56 84.14 170.56 88.4 178.65 92.08 178.65 92.08 163.95 88.72 163.95 88.72 172.03 88.67 172.03 84.41 163.95 80.73 163.95 80.73 178.65 84.09 178.65 84.09 170.56"/><polygon class="cls-3" points="102.13 178.65 102.13 166.78 105.39 166.78 105.39 163.95 95.52 163.95 95.52 166.78 98.77 166.78 98.77 178.65 102.13 178.65"/><polygon class="cls-3" points="118.18 175.81 112.19 175.81 112.19 172.56 117.13 172.56 117.13 169.72 112.19 169.72 112.19 166.78 117.97 166.78 117.97 163.95 108.83 163.95 108.83 178.65 118.18 178.65 118.18 175.81"/><polygon class="cls-3" points="136.09 178.65 136.09 163.95 132 163.95 129.16 172.98 129.12 172.98 126.11 163.95 122.02 163.95 122.02 178.65 125.38 178.65 125.38 172.24 125.42 172.24 127.58 178.65 130.53 178.65 132.69 172.24 132.73 172.24 132.73 178.65 136.09 178.65"/><path class="cls-3" d="M150.56,168.57a6.47,6.47,0,0,0-.23-1.71,3.84,3.84,0,0,0-.77-1.47,3.88,3.88,0,0,0-1.39-1A5,5,0,0,0,146,164h-5.77v14.7h3.36v-5.46h2.31a5.53,5.53,0,0,0,2.18-.38,3.72,3.72,0,0,0,1.43-1,3.86,3.86,0,0,0,.78-1.47A6.66,6.66,0,0,0,150.56,168.57Zm-3.65,1.06a1.2,1.2,0,0,1-.5.52,1.47,1.47,0,0,1-.65.18c-.23,0-.45,0-.66,0h-1.47v-3.57h1.57c.24,0,.47,0,.7,0a1.48,1.48,0,0,1,.61.21,1.25,1.25,0,0,1,.43.54,2.68,2.68,0,0,1,.15,1A2.5,2.5,0,0,1,146.91,169.63Z"/><path class="cls-3" d="M165.93,174.25a12.12,12.12,0,0,0,.34-2.95,12,12,0,0,0-.34-2.91,7.18,7.18,0,0,0-1.06-2.42,5.12,5.12,0,0,0-1.88-1.63,6.9,6.9,0,0,0-5.63,0,5.2,5.2,0,0,0-1.88,1.63,7.39,7.39,0,0,0-1.06,2.42,12.48,12.48,0,0,0-.33,2.91,12.64,12.64,0,0,0,.33,2.95,7.1,7.1,0,0,0,1.06,2.4,5.08,5.08,0,0,0,1.88,1.62,7,7,0,0,0,5.63,0,5,5,0,0,0,1.88-1.62A6.91,6.91,0,0,0,165.93,174.25Zm-3.24-.8a4.71,4.71,0,0,1-.41,1.46,1.94,1.94,0,0,1-.81.84,2.74,2.74,0,0,1-1.29.27,2.7,2.7,0,0,1-1.3-.27,1.86,1.86,0,0,1-.8-.84,4.22,4.22,0,0,1-.41-1.46,16.37,16.37,0,0,1-.12-2.15,16,16,0,0,1,.12-2.11,4.21,4.21,0,0,1,.41-1.47,1.86,1.86,0,0,1,.8-.86,2.58,2.58,0,0,1,1.3-.29,2.62,2.62,0,0,1,1.29.29,1.94,1.94,0,0,1,.81.86,4.7,4.7,0,0,1,.41,1.47,18.2,18.2,0,0,1,.11,2.11A18.56,18.56,0,0,1,162.69,173.45Z"/><path class="cls-3" d="M173.49,173.19h1l2.62,5.46h4l-3.26-5.8a3.4,3.4,0,0,0,1.95-1.71,5.77,5.77,0,0,0,.57-2.57,6.47,6.47,0,0,0-.23-1.71,3.7,3.7,0,0,0-.77-1.47,3.8,3.8,0,0,0-1.39-1,5,5,0,0,0-2.12-.4h-5.78v14.7h3.36Zm0-6.41h1.58q.35,0,.69,0a1.43,1.43,0,0,1,.61.21,1.25,1.25,0,0,1,.43.54,2.66,2.66,0,0,1,.16,1,2.48,2.48,0,0,1-.19,1.06,1.15,1.15,0,0,1-.5.52,1.47,1.47,0,0,1-.65.18c-.23,0-.45,0-.66,0h-1.47Z"/><path class="cls-3" d="M186.68,178.65l.73-2.94H191l.69,2.94h3.67l-4-14.81h-4.3L183,178.65Zm2.58-10.4h0l1.08,4.62h-2.27Z"/><polygon class="cls-3" points="185.97 162.9 187.33 162.9 189.22 161.53 191.11 162.9 192.47 162.9 189.85 159.33 188.59 159.33 185.97 162.9"/><polygon class="cls-3" points="201.78 170.56 201.82 170.56 206.08 178.65 209.76 178.65 209.76 163.95 206.4 163.95 206.4 172.03 206.36 172.03 202.09 163.95 198.42 163.95 198.42 178.65 201.78 178.65 201.78 170.56"/><polygon class="cls-3" points="223.07 166.78 223.07 163.95 213.94 163.95 213.94 178.65 223.28 178.65 223.28 175.81 217.3 175.81 217.3 172.56 222.23 172.56 222.23 169.72 217.3 169.72 217.3 166.78 223.07 166.78"/><path class="cls-3" d="M235.73,164.34a6.88,6.88,0,0,0-5.62,0,5.12,5.12,0,0,0-1.88,1.63,7,7,0,0,0-1.06,2.42,12,12,0,0,0-.34,2.91,12.12,12.12,0,0,0,.34,2.95,6.73,6.73,0,0,0,1.06,2.4,5,5,0,0,0,1.88,1.62,7,7,0,0,0,5.62,0,5,5,0,0,0,1.88-1.62,6.73,6.73,0,0,0,1.06-2.4,12.12,12.12,0,0,0,.34-2.95,12,12,0,0,0-.34-2.91,7,7,0,0,0-1.06-2.42A5.12,5.12,0,0,0,235.73,164.34Zm-.3,9.11a4.45,4.45,0,0,1-.41,1.46,1.94,1.94,0,0,1-.81.84,3.24,3.24,0,0,1-2.59,0,1.92,1.92,0,0,1-.8-.84,4.45,4.45,0,0,1-.41-1.46,16.57,16.57,0,0,1-.11-2.15,16.21,16.21,0,0,1,.11-2.11,4.44,4.44,0,0,1,.41-1.47,1.92,1.92,0,0,1,.8-.86,3,3,0,0,1,2.59,0,1.94,1.94,0,0,1,.81.86,4.44,4.44,0,0,1,.41,1.47,16,16,0,0,1,.12,2.11A16.37,16.37,0,0,1,235.43,173.45Z"/><path class="cls-2" d="M57.16,203.54a10.78,10.78,0,0,0,1.42-1.46,6.39,6.39,0,0,0,.94-1.6,4.75,4.75,0,0,0,.34-1.82,4.41,4.41,0,0,0-.34-1.8,3.69,3.69,0,0,0-.92-1.32,3.56,3.56,0,0,0-1.37-.81,5,5,0,0,0-1.71-.27c-.28,0-.59,0-1,0a10.49,10.49,0,0,0-1.08.12c-.36,0-.72.11-1.07.19a5.48,5.48,0,0,0-.9.25v2.69a15.76,15.76,0,0,1,1.62-.43,6.47,6.47,0,0,1,1.36-.16,3.19,3.19,0,0,1,.77.09,1.57,1.57,0,0,1,.66.32,1.46,1.46,0,0,1,.46.6,2.24,2.24,0,0,1,.17,1A3.21,3.21,0,0,1,56,200.9a10.63,10.63,0,0,1-1.45,1.71c-.58.55-1.21,1.08-1.88,1.6s-1.29,1-1.85,1.45v2H60V205H55.36C56,204.48,56.61,204,57.16,203.54Z"/><path class="cls-2" d="M70.8,207.66v-2.8H72v-2.7H70.8v-7.7H67.14l-5.34,7.79v2.61h5.8v2.8Zm-5.68-5.5,2.44-3.5h0v3.5Z"/><path class="cls-2" d="M83.75,207.21a2.91,2.91,0,0,0,.82-1.21,5.91,5.91,0,0,0,.31-2.14v-10.2h-3.2v10.2a1.71,1.71,0,0,1-.12.71,1.19,1.19,0,0,1-.3.39.85.85,0,0,1-.39.17l-.39,0a3.17,3.17,0,0,1-.88-.12,3.48,3.48,0,0,1-.72-.29v2.61a2.33,2.33,0,0,0,.47.21,5.16,5.16,0,0,0,.62.14l.67.11c.23,0,.44,0,.64,0a7.2,7.2,0,0,0,1.32-.12A2.58,2.58,0,0,0,83.75,207.21Z"/><path class="cls-2" d="M94.56,207.66h3.5l-3.82-14.1h-4.1l-3.88,14.1h3.5l.7-2.8H93.9Zm-3.44-5.5,1.1-4.41h0l1,4.41Z"/><polygon class="cls-2" points="107.02 201.35 106.98 201.35 102.92 193.66 99.42 193.66 99.42 207.66 102.62 207.66 102.62 199.96 102.66 199.96 106.72 207.66 110.22 207.66 110.22 193.66 107.02 193.66 107.02 201.35"/><path class="cls-2" d="M121.14,204.86h3.44l.66,2.8h3.5l-3.82-14.1h-4.1l-3.88,14.1h3.5Zm1.76-7.11h0l1,4.41H121.8Z"/><polygon class="cls-2" points="140.62 207.66 140.62 194.46 138.52 194.46 134.82 196.25 135.82 198.46 137.42 197.74 137.42 207.66 140.62 207.66"/><polygon class="cls-2" points="153.82 207.66 157.02 207.66 157.02 202.06 161.72 202.06 161.72 199.35 157.02 199.35 157.02 196.35 162.52 196.35 162.52 193.66 153.82 193.66 153.82 207.66"/><polygon class="cls-2" points="173.2 204.96 167.5 204.96 167.5 201.85 172.2 201.85 172.2 199.16 167.5 199.16 167.5 196.35 173 196.35 173 193.66 164.3 193.66 164.3 207.66 173.2 207.66 173.2 204.96"/><polygon class="cls-2" points="186.08 193.66 182.58 193.66 180.28 203.66 180.24 203.66 177.78 193.66 174.28 193.66 178.16 207.75 182.26 207.75 186.08 193.66"/><path class="cls-2" d="M201.74,205H197.1c.65-.48,1.25-1,1.8-1.42a10.78,10.78,0,0,0,1.42-1.46,6.71,6.71,0,0,0,.94-1.6,4.75,4.75,0,0,0,.34-1.82,4.41,4.41,0,0,0-.34-1.8,3.82,3.82,0,0,0-.92-1.32,3.64,3.64,0,0,0-1.37-.81,5,5,0,0,0-1.71-.27c-.28,0-.6,0-.95,0a10.49,10.49,0,0,0-1.08.12c-.37,0-.72.11-1.07.19a5.21,5.21,0,0,0-.9.25v2.69a15.11,15.11,0,0,1,1.62-.43,6.47,6.47,0,0,1,1.36-.16,3.25,3.25,0,0,1,.77.09,1.62,1.62,0,0,1,1.12.92,2.41,2.41,0,0,1,.17,1,3.21,3.21,0,0,1-.58,1.78,10.63,10.63,0,0,1-1.45,1.71c-.58.55-1.21,1.08-1.88,1.6s-1.29,1-1.85,1.45v2h9.2Z"/><path class="cls-2" d="M209.32,207.86a5,5,0,0,0,2.25-.48A4.42,4.42,0,0,0,213.2,206a6.15,6.15,0,0,0,1-2.11,10.53,10.53,0,0,0,.33-2.73,10.4,10.4,0,0,0-.33-2.7,6.16,6.16,0,0,0-1-2.13,4.69,4.69,0,0,0-1.63-1.37,5.31,5.31,0,0,0-4.5,0,4.69,4.69,0,0,0-1.63,1.37,6.16,6.16,0,0,0-1,2.13,10.4,10.4,0,0,0-.33,2.7,10.53,10.53,0,0,0,.33,2.73,6.15,6.15,0,0,0,1,2.11,4.42,4.42,0,0,0,1.63,1.38A5,5,0,0,0,209.32,207.86Zm-1.83-8.66a4.44,4.44,0,0,1,.28-1.3,1.45,1.45,0,0,1,.58-.73,2.35,2.35,0,0,1,1.94,0,1.45,1.45,0,0,1,.58.73,4.44,4.44,0,0,1,.28,1.3c0,.53.07,1.18.07,2s0,1.46-.07,2a4.44,4.44,0,0,1-.28,1.29,1.46,1.46,0,0,1-.58.7,2.35,2.35,0,0,1-1.94,0,1.46,1.46,0,0,1-.58-.7,4.44,4.44,0,0,1-.28-1.29c-.05-.54-.07-1.2-.07-2S207.44,199.73,207.49,199.2Z"/><path class="cls-2" d="M225.92,205h-4.64c.65-.48,1.25-1,1.8-1.42a10.78,10.78,0,0,0,1.42-1.46,6.71,6.71,0,0,0,.94-1.6,4.75,4.75,0,0,0,.34-1.82,4.41,4.41,0,0,0-.34-1.8,3.82,3.82,0,0,0-.92-1.32,3.64,3.64,0,0,0-1.37-.81,5,5,0,0,0-1.71-.27c-.28,0-.6,0-.95,0a10.49,10.49,0,0,0-1.08.12c-.37,0-.72.11-1.07.19a5.21,5.21,0,0,0-.9.25v2.69a15.11,15.11,0,0,1,1.62-.43,6.47,6.47,0,0,1,1.36-.16,3.25,3.25,0,0,1,.77.09,1.62,1.62,0,0,1,1.12.92,2.41,2.41,0,0,1,.17,1,3.21,3.21,0,0,1-.58,1.78,10.63,10.63,0,0,1-1.45,1.71c-.58.55-1.21,1.08-1.88,1.6s-1.29,1-1.85,1.45v2h9.2Z"/><path class="cls-2" d="M237.38,196.33a4.69,4.69,0,0,0-1.63-1.37,5.31,5.31,0,0,0-4.5,0,4.69,4.69,0,0,0-1.63,1.37,6.16,6.16,0,0,0-1,2.13,10.4,10.4,0,0,0-.33,2.7,10.53,10.53,0,0,0,.33,2.73,6.15,6.15,0,0,0,1,2.11,4.42,4.42,0,0,0,1.63,1.38,5.51,5.51,0,0,0,4.5,0,4.42,4.42,0,0,0,1.63-1.38,6.15,6.15,0,0,0,1-2.11,10.53,10.53,0,0,0,.33-2.73,10.4,10.4,0,0,0-.33-2.7A6.16,6.16,0,0,0,237.38,196.33Zm-2,6.83a4.44,4.44,0,0,1-.28,1.29,1.46,1.46,0,0,1-.58.7,2.35,2.35,0,0,1-1.94,0,1.46,1.46,0,0,1-.58-.7,4.44,4.44,0,0,1-.28-1.29c0-.54-.07-1.2-.07-2s0-1.43.07-2a4.44,4.44,0,0,1,.28-1.3,1.45,1.45,0,0,1,.58-.73,2.35,2.35,0,0,1,1.94,0,1.45,1.45,0,0,1,.58.73,4.44,4.44,0,0,1,.28,1.3c0,.53.07,1.18.07,2S235.38,202.62,235.33,203.16Z"/><path class="cls-2" d="M57.92,217.37a3,3,0,0,0-1.06-.79,3.85,3.85,0,0,0-1.61-.31H50.87v11.15h2.55v-4.14h1.75a4.27,4.27,0,0,0,1.66-.28,3,3,0,0,0,1.08-.78,2.83,2.83,0,0,0,.59-1.11,4.8,4.8,0,0,0,.18-1.33,4.69,4.69,0,0,0-.18-1.3A3,3,0,0,0,57.92,217.37Zm-2,3.21a.85.85,0,0,1-.37.4,1.2,1.2,0,0,1-.49.14H53.42v-2.71h1.19a4.58,4.58,0,0,1,.53,0,.94.94,0,0,1,.46.16.88.88,0,0,1,.33.4,2,2,0,0,1,.12.77A1.7,1.7,0,0,1,55.9,220.58Z"/><path class="cls-2" d="M68.09,221.73a4.5,4.5,0,0,0,.43-1.95,4.69,4.69,0,0,0-.18-1.3,2.81,2.81,0,0,0-.58-1.11,2.87,2.87,0,0,0-1.06-.79,3.82,3.82,0,0,0-1.61-.31H60.71v11.15h2.55v-4.14H64l2,4.14h3.06L66.61,223A2.66,2.66,0,0,0,68.09,221.73Zm-2.34-1.15a.87.87,0,0,1-.38.4,1.2,1.2,0,0,1-.49.14H63.26v-2.71h1.2a4.41,4.41,0,0,1,.52,0,.91.91,0,0,1,.46.16.88.88,0,0,1,.33.4,2,2,0,0,1,.12.77A1.85,1.85,0,0,1,65.75,220.58Z"/><path class="cls-2" d="M78.43,217.81A3.87,3.87,0,0,0,77,216.57a4.67,4.67,0,0,0-2.14-.45,4.59,4.59,0,0,0-2.13.45,3.91,3.91,0,0,0-1.43,1.24,5.62,5.62,0,0,0-.8,1.83,9.29,9.29,0,0,0-.26,2.21,9.42,9.42,0,0,0,.26,2.24,5.48,5.48,0,0,0,.8,1.82,3.88,3.88,0,0,0,1.43,1.23,4.73,4.73,0,0,0,2.13.44,4.8,4.8,0,0,0,2.14-.44,3.85,3.85,0,0,0,1.42-1.23,5.3,5.3,0,0,0,.81-1.82,9.43,9.43,0,0,0,.25-2.24,9.3,9.3,0,0,0-.25-2.21A5.43,5.43,0,0,0,78.43,217.81Zm-1.65,5.67a3.68,3.68,0,0,1-.31,1.11,1.48,1.48,0,0,1-.62.64,2.16,2.16,0,0,1-1,.2,2.13,2.13,0,0,1-1-.2,1.46,1.46,0,0,1-.61-.64,3.41,3.41,0,0,1-.31-1.11,12.54,12.54,0,0,1-.09-1.63,12.26,12.26,0,0,1,.09-1.6,3.55,3.55,0,0,1,.31-1.12,1.48,1.48,0,0,1,.61-.65,2,2,0,0,1,1-.21,2,2,0,0,1,1,.21,1.5,1.5,0,0,1,.62.65,3.84,3.84,0,0,1,.31,1.12,14.56,14.56,0,0,1,.08,1.6A14.88,14.88,0,0,1,76.78,223.48Z"/><path class="cls-2" d="M85.75,223.52h1v1.91h-.32a2.28,2.28,0,0,1-1.87-.83,5.9,5.9,0,0,1,0-5.5,2.25,2.25,0,0,1,1.87-.83,7.93,7.93,0,0,1,2.71.47v-2.15a8,8,0,0,0-1.42-.35,10.46,10.46,0,0,0-1.53-.12,5.24,5.24,0,0,0-2.32.46,4.32,4.32,0,0,0-1.53,1.26,5.1,5.1,0,0,0-.83,1.83,9.23,9.23,0,0,0-.26,2.18,9.08,9.08,0,0,0,.26,2.17,5.07,5.07,0,0,0,.83,1.84,4.19,4.19,0,0,0,1.53,1.25,5.11,5.11,0,0,0,2.32.47l.77,0,.84-.09.8-.16a4.84,4.84,0,0,0,.69-.19v-5.74H85.75Z"/><path class="cls-2" d="M99.08,221.73a4.36,4.36,0,0,0,.43-1.95,5.09,5.09,0,0,0-.17-1.3,3,3,0,0,0-.58-1.11,3,3,0,0,0-1.06-.79,3.88,3.88,0,0,0-1.61-.31H91.71v11.15h2.55v-4.14H95l2,4.14h3.06L97.6,223A2.63,2.63,0,0,0,99.08,221.73Zm-2.34-1.15a.85.85,0,0,1-.37.4,1.25,1.25,0,0,1-.5.14H94.26v-2.71h1.19a4.58,4.58,0,0,1,.53,0,.94.94,0,0,1,.46.16.87.87,0,0,1,.32.4,2,2,0,0,1,.12.77A1.71,1.71,0,0,1,96.74,220.58Z"/><path class="cls-2" d="M103.68,216.2l-3.09,11.22h2.79l.56-2.23h2.74l.52,2.23H110l-3-11.22Zm.79,6.84.87-3.5h0l.82,3.5Z"/><polygon class="cls-2" points="116.82 223.12 116.79 223.12 114.52 216.27 111.41 216.27 111.41 227.42 113.96 227.42 113.96 222.57 113.99 222.57 115.63 227.42 117.86 227.42 119.5 222.57 119.53 222.57 119.53 227.42 122.08 227.42 122.08 216.27 118.97 216.27 116.82 223.12"/><path class="cls-2" d="M126.59,216.2l-3.09,11.22h2.78l.56-2.23h2.74l.53,2.23h2.78l-3-11.22Zm.78,6.84.87-3.5h0l.81,3.5Z"/><path class="cls-2" d="M138.68,216.12a5.21,5.21,0,0,0-2.32.46,4.32,4.32,0,0,0-1.53,1.26,5.12,5.12,0,0,0-.84,1.83,9.22,9.22,0,0,0-.25,2.18,9.55,9.55,0,0,0,.21,2,5.4,5.4,0,0,0,.71,1.74,4.31,4.31,0,0,0,1.28,1.27,4.69,4.69,0,0,0,1.94.66v.52a.89.89,0,0,0,.11.49,1.31,1.31,0,0,0,.25.27l.25.2a.43.43,0,0,1,.11.31.65.65,0,0,1-.31.58,2.44,2.44,0,0,1-1,.3v.88a6,6,0,0,0,1.44-.2,3,3,0,0,0,.94-.42,1.49,1.49,0,0,0,.5-.54,1.27,1.27,0,0,0,.15-.6.67.67,0,0,0-.22-.55,1.89,1.89,0,0,0-.5-.28,4.49,4.49,0,0,1-.49-.22.38.38,0,0,1-.22-.38v-.32a10.69,10.69,0,0,0,1.45-.13,7,7,0,0,0,1.33-.34V225a8.08,8.08,0,0,1-2.7.47,2.3,2.3,0,0,1-1.88-.83,6,6,0,0,1,0-5.5,2.27,2.27,0,0,1,1.88-.83,7.83,7.83,0,0,1,2.7.47v-2.15a7.64,7.64,0,0,0-1.41-.35A10.68,10.68,0,0,0,138.68,216.12Z"/><path class="cls-2" d="M146,214.71a1.36,1.36,0,0,1,.38-.06,1.23,1.23,0,0,1,.45.1l.57.23c.21.09.43.17.65.24a2.22,2.22,0,0,0,.67.1,1.09,1.09,0,0,0,.8-.47,4.5,4.5,0,0,0,.7-1.36l-.56-.4a1.94,1.94,0,0,1-.31.29l-.24.16a.49.49,0,0,1-.19.05h-.19a1.47,1.47,0,0,1-.47-.1l-.55-.24-.62-.23a2.28,2.28,0,0,0-.7-.1,1.06,1.06,0,0,0-.8.49,4.58,4.58,0,0,0-.69,1.5l.55.24A1.9,1.9,0,0,1,146,214.71Z"/><path class="cls-2" d="M145.89,216.2l-3.09,11.22h2.79l.56-2.23h2.74l.52,2.23h2.79l-3-11.22Zm.78,6.84.88-3.5h0l.81,3.5Z"/><path class="cls-2" d="M161.24,217.81a4,4,0,0,0-1.43-1.24,4.59,4.59,0,0,0-2.13-.45,4.67,4.67,0,0,0-2.14.45,3.87,3.87,0,0,0-1.42,1.24,5.43,5.43,0,0,0-.81,1.83,9.3,9.3,0,0,0-.25,2.21,9.43,9.43,0,0,0,.25,2.24,5.3,5.3,0,0,0,.81,1.82,3.85,3.85,0,0,0,1.42,1.23,4.8,4.8,0,0,0,2.14.44,4.73,4.73,0,0,0,2.13-.44,4,4,0,0,0,1.43-1.23,5.48,5.48,0,0,0,.8-1.82,9.42,9.42,0,0,0,.26-2.24,9.29,9.29,0,0,0-.26-2.21A5.62,5.62,0,0,0,161.24,217.81Zm-1.66,5.67a3.41,3.41,0,0,1-.31,1.11,1.46,1.46,0,0,1-.61.64,2.19,2.19,0,0,1-1,.2,2.15,2.15,0,0,1-1-.2,1.46,1.46,0,0,1-.61-.64,3.68,3.68,0,0,1-.31-1.11,14.88,14.88,0,0,1-.08-1.63,14.56,14.56,0,0,1,.08-1.6,3.84,3.84,0,0,1,.31-1.12,1.48,1.48,0,0,1,.61-.65,2,2,0,0,1,1-.21,2.06,2.06,0,0,1,1,.21,1.48,1.48,0,0,1,.61.65,3.55,3.55,0,0,1,.31,1.12,12.26,12.26,0,0,1,.09,1.6A12.54,12.54,0,0,1,159.58,223.48Z"/><path class="cls-2" d="M173.17,223.52h1v1.91h-.32a2.28,2.28,0,0,1-1.87-.83,5.9,5.9,0,0,1,0-5.5,2.25,2.25,0,0,1,1.87-.83,7.89,7.89,0,0,1,2.71.47v-2.15a8,8,0,0,0-1.42-.35,10.46,10.46,0,0,0-1.53-.12,5.27,5.27,0,0,0-2.32.46,4.2,4.2,0,0,0-1.52,1.26,5.12,5.12,0,0,0-.84,1.83,9.23,9.23,0,0,0-.26,2.18A9.08,9.08,0,0,0,169,224a5.09,5.09,0,0,0,.84,1.84,4.08,4.08,0,0,0,1.52,1.25,5.13,5.13,0,0,0,2.32.47l.77,0c.29,0,.56-.05.84-.09l.8-.16a5,5,0,0,0,.7-.19v-5.74h-3.59Z"/><path class="cls-2" d="M186.5,221.73a4.36,4.36,0,0,0,.43-1.95,4.69,4.69,0,0,0-.17-1.3,2.89,2.89,0,0,0-1.64-1.9,3.85,3.85,0,0,0-1.61-.31h-4.38v11.15h2.55v-4.14h.76l2,4.14h3.06L185,223A2.63,2.63,0,0,0,186.5,221.73Zm-2.34-1.15a.85.85,0,0,1-.37.4,1.2,1.2,0,0,1-.49.14h-1.62v-2.71h1.19a4.58,4.58,0,0,1,.53,0,.94.94,0,0,1,.46.16.88.88,0,0,1,.33.4,2,2,0,0,1,.12.77A1.7,1.7,0,0,1,184.16,220.58Z"/><path class="cls-2" d="M191.11,216.2,188,227.42h2.78l.56-2.23h2.74l.53,2.23h2.78l-3-11.22Zm.78,6.84.87-3.5h0l.81,3.5Z"/><polygon class="cls-2" points="197.32 218.43 199.79 218.43 199.79 227.42 202.34 227.42 202.34 218.43 204.81 218.43 204.81 216.27 197.32 216.27 197.32 218.43"/><path class="cls-2" d="M212.51,223.6a2,2,0,0,1-.43,1.34,1.71,1.71,0,0,1-1.37.49,1.92,1.92,0,0,1-.79-.15,1.54,1.54,0,0,1-.56-.4,1.63,1.63,0,0,1-.33-.59,2.17,2.17,0,0,1-.1-.69v-7.33h-2.55v7.33a3.94,3.94,0,0,0,1.08,2.92,4.43,4.43,0,0,0,3.25,1.06,4.48,4.48,0,0,0,3.27-1.06,3.94,3.94,0,0,0,1.08-2.92v-7.33h-2.55Z"/><rect class="cls-2" x="217.2" y="216.27" width="2.55" height="11.15"/><polygon class="cls-2" points="228.95 216.27 221.46 216.27 221.46 218.43 223.93 218.43 223.93 227.42 226.48 227.42 226.48 218.43 228.95 218.43 228.95 216.27"/><path class="cls-2" d="M231.94,216.2l-3.09,11.22h2.79l.56-2.23h2.74l.52,2.23h2.79l-3-11.22Zm.78,6.84.88-3.5h0l.81,3.5Z"/><path class="cls-2" d="M146.47,200.42a2.46,2.46,0,0,0,.39-.85,4.27,4.27,0,0,0,0-2.17,2.46,2.46,0,0,0-.39-.85,2.14,2.14,0,0,0-.65-.55,2,2,0,0,0-.9-.2,2,2,0,0,0-.9.2,2.07,2.07,0,0,0-.66.55,2.66,2.66,0,0,0-.39.85,4.59,4.59,0,0,0,0,2.17,2.66,2.66,0,0,0,.39.85,1.84,1.84,0,0,0,.66.55,2,2,0,0,0,.9.19,2,2,0,0,0,.9-.19A1.89,1.89,0,0,0,146.47,200.42Zm-.82-1.14a2,2,0,0,1-.11.52.61.61,0,0,1-.24.28.8.8,0,0,1-.38.08.87.87,0,0,1-.39-.08.54.54,0,0,1-.23-.28,1.6,1.6,0,0,1-.12-.52c0-.21,0-.48,0-.8s0-.57,0-.78a1.6,1.6,0,0,1,.12-.52.53.53,0,0,1,.23-.29.75.75,0,0,1,.39-.09.69.69,0,0,1,.38.09.59.59,0,0,1,.24.29,2,2,0,0,1,.11.52q0,.31,0,.78C145.68,198.8,145.67,199.07,145.65,199.28Z"/></g></g></svg>