<svg xmlns="http://www.w3.org/2000/svg" viewBox="0 0 273.3 57.01"><defs><style>.cls-1{fill:#f37942;}.cls-2{fill:#fff;}</style></defs><title>Ativo 2</title><g id="Camada_2" data-name="Camada 2"><g id="Camada_1-2" data-name="Camada 1"><path class="cls-1" d="M4.62,24.46H.32V5.64h4.3Z"/><path class="cls-1" d="M17.77,24.46,12.31,14.11h-.05V24.46H8V5.64h4.7L18.11,16h.06V5.64h4.3V24.46Z"/><path class="cls-1" d="M30.64,21.1a3.78,3.78,0,0,0,1.71-.36,1.43,1.43,0,0,0,.71-1.39,1.8,1.8,0,0,0-.2-.87,2.7,2.7,0,0,0-.6-.69,8.75,8.75,0,0,0-1-.66L30,16.39a15.91,15.91,0,0,1-1.82-1.15,6.46,6.46,0,0,1-1.34-1.32,5.46,5.46,0,0,1-.85-1.6,6,6,0,0,1-.29-2A4.32,4.32,0,0,1,26.27,8a4.78,4.78,0,0,1,1.55-1.55,6.31,6.31,0,0,1,2-.83A9.92,9.92,0,0,1,32,5.38c.38,0,.78,0,1.2,0s.85.09,1.29.16.86.16,1.28.26a9.35,9.35,0,0,1,1.12.33V9.81a16.42,16.42,0,0,0-2.44-.59A14.64,14.64,0,0,0,32.12,9a2.78,2.78,0,0,0-1.54.41A1.35,1.35,0,0,0,30,10.62a1.54,1.54,0,0,0,.19.79,2.11,2.11,0,0,0,.55.63,5.06,5.06,0,0,0,.92.59l1.29.67a10.37,10.37,0,0,1,3.51,2.61,5,5,0,0,1,1.06,3.17A5.79,5.79,0,0,1,37,21.66a4.77,4.77,0,0,1-1.43,1.76,5.83,5.83,0,0,1-2.13,1,11.17,11.17,0,0,1-2.64.31c-.37,0-.8,0-1.27-.06s-1-.09-1.46-.16-1-.15-1.43-.25a8.19,8.19,0,0,1-1.21-.34V20.29a12.08,12.08,0,0,0,2.73.63A20.36,20.36,0,0,0,30.64,21.1Z"/><path class="cls-1" d="M44.45,15.05c0,2.15.38,3.7,1.15,4.64a3.83,3.83,0,0,0,3.15,1.41,13.26,13.26,0,0,0,4.57-.81v3.63a12.46,12.46,0,0,1-2.39.59,15.86,15.86,0,0,1-2.58.22,8.73,8.73,0,0,1-3.91-.8,6.83,6.83,0,0,1-2.58-2.12,8.74,8.74,0,0,1-1.41-3.09,15.88,15.88,0,0,1,0-7.34,8.74,8.74,0,0,1,1.41-3.09,6.92,6.92,0,0,1,2.58-2.12,8.74,8.74,0,0,1,3.91-.79,17,17,0,0,1,2.58.21,12.46,12.46,0,0,1,2.39.59V9.81A13.26,13.26,0,0,0,48.75,9a3.81,3.81,0,0,0-3.15,1.42C44.83,11.36,44.45,12.9,44.45,15.05Z"/><path class="cls-1" d="M69.42,11.56a7.45,7.45,0,0,1-.72,3.29A4.51,4.51,0,0,1,66.2,17l4.16,7.42H65.2l-3.36-7H60.55v7h-4.3V5.64h7.39a6.32,6.32,0,0,1,2.72.52,4.86,4.86,0,0,1,2.77,3.21A8.38,8.38,0,0,1,69.42,11.56Zm-8.87,2.28h1.88l.85,0a2,2,0,0,0,.83-.22,1.57,1.57,0,0,0,.64-.68A3,3,0,0,0,65,11.56a3.35,3.35,0,0,0-.2-1.29,1.5,1.5,0,0,0-.56-.69,1.73,1.73,0,0,0-.77-.27c-.29,0-.59,0-.89,0h-2Z"/><path class="cls-1" d="M76.52,24.46h-4.3V5.64h4.3Z"/><path class="cls-1" d="M83.88,15.05c0,2.15.38,3.7,1.14,4.64a3.85,3.85,0,0,0,3.16,1.41,13.3,13.3,0,0,0,4.57-.81v3.63a11.39,11.39,0,0,1-2.24.58,19.94,19.94,0,0,1-2.46.23v.53a.67.67,0,0,0,.37.65,8.47,8.47,0,0,0,.84.36,3.24,3.24,0,0,1,.83.47,1.13,1.13,0,0,1,.37.94,2.19,2.19,0,0,1-.25,1,2.5,2.5,0,0,1-.85.91,5,5,0,0,1-1.57.7,10.36,10.36,0,0,1-2.43.34V29.16a4.36,4.36,0,0,0,1.77-.51,1.11,1.11,0,0,0,.51-1,.7.7,0,0,0-.18-.52c-.13-.12-.27-.23-.42-.35a2.52,2.52,0,0,1-.42-.44,1.53,1.53,0,0,1-.19-.84v-.88a7.54,7.54,0,0,1-3.26-1.11A7.18,7.18,0,0,1,81,21.39a8.9,8.9,0,0,1-1.19-2.93,15.84,15.84,0,0,1-.36-3.41,15.3,15.3,0,0,1,.43-3.67,8.41,8.41,0,0,1,1.41-3.09,6.92,6.92,0,0,1,2.58-2.12,8.71,8.71,0,0,1,3.91-.79,17.21,17.21,0,0,1,2.58.21,12.46,12.46,0,0,1,2.39.59V9.81A13.3,13.3,0,0,0,88.18,9,3.83,3.83,0,0,0,85,10.42C84.26,11.36,83.88,12.9,83.88,15.05Z"/><path class="cls-1" d="M103.07,5.38a7.73,7.73,0,0,1,3.6.76,6.53,6.53,0,0,1,2.41,2.1,9,9,0,0,1,1.35,3.09,15.42,15.42,0,0,1,.43,3.72,15.8,15.8,0,0,1-.43,3.78,8.75,8.75,0,0,1-1.35,3.07A6.45,6.45,0,0,1,106.67,24a8.91,8.91,0,0,1-7.2,0,6.45,6.45,0,0,1-2.41-2.07,8.94,8.94,0,0,1-1.35-3.07,15.8,15.8,0,0,1-.43-3.78,15.42,15.42,0,0,1,.43-3.72,9.21,9.21,0,0,1,1.35-3.09,6.53,6.53,0,0,1,2.41-2.1A7.73,7.73,0,0,1,103.07,5.38Zm-2-2.48a2.09,2.09,0,0,0-.63.11,2.56,2.56,0,0,0-.93.75l-.94-.4A7.78,7.78,0,0,1,99.78.83,1.81,1.81,0,0,1,101.13,0a4,4,0,0,1,1.17.17q.56.18,1,.39t.93.39a2.09,2.09,0,0,0,.81.18h.3a1,1,0,0,0,.33-.1,2.48,2.48,0,0,0,.4-.25,4.63,4.63,0,0,0,.52-.5l.94.67a7.11,7.11,0,0,1-1.16,2.3,1.83,1.83,0,0,1-1.36.79,4,4,0,0,1-1.13-.17c-.38-.12-.74-.25-1.09-.39s-.67-.28-1-.39A2.07,2.07,0,0,0,101.11,2.9Zm2,6.1a3.41,3.41,0,0,0-1.67.37,2.54,2.54,0,0,0-1,1.1,5.86,5.86,0,0,0-.52,1.88,21,21,0,0,0-.15,2.7,21.7,21.7,0,0,0,.15,2.76,5.65,5.65,0,0,0,.52,1.86,2.43,2.43,0,0,0,1,1.08,4.11,4.11,0,0,0,3.32,0,2.42,2.42,0,0,0,1-1.08,5.65,5.65,0,0,0,.52-1.86,21.7,21.7,0,0,0,.15-2.76,21,21,0,0,0-.15-2.7,5.86,5.86,0,0,0-.52-1.88,2.52,2.52,0,0,0-1-1.1A3.41,3.41,0,0,0,103.07,9Z"/><path class="cls-1" d="M125.46,9.27h-7.39V13h6.31v3.62h-6.31v4.17h7.66v3.63h-12V5.64h11.69Z"/><path class="cls-1" d="M133.49,21.1a3.72,3.72,0,0,0,1.71-.36,1.41,1.41,0,0,0,.71-1.39,1.7,1.7,0,0,0-.2-.87,2.47,2.47,0,0,0-.59-.69,8.07,8.07,0,0,0-1-.66l-1.33-.74A15.74,15.74,0,0,1,131,15.24a6.51,6.51,0,0,1-1.35-1.32,5.44,5.44,0,0,1-.84-1.6,6,6,0,0,1-.3-2A4.24,4.24,0,0,1,129.13,8a4.75,4.75,0,0,1,1.54-1.55,6.5,6.5,0,0,1,2-.83,10.08,10.08,0,0,1,2.13-.24c.37,0,.77,0,1.19,0s.85.09,1.29.16.87.16,1.28.26a9.54,9.54,0,0,1,1.13.33V9.81a16.55,16.55,0,0,0-2.45-.59A14.64,14.64,0,0,0,135,9a2.73,2.73,0,0,0-1.53.41,1.35,1.35,0,0,0-.62,1.21,1.54,1.54,0,0,0,.19.79,2.44,2.44,0,0,0,.55.63,4.83,4.83,0,0,0,.93.59l1.29.67a10.37,10.37,0,0,1,3.51,2.61,5.09,5.09,0,0,1,1.06,3.17,5.79,5.79,0,0,1-.53,2.58,4.75,4.75,0,0,1-1.42,1.76,5.8,5.8,0,0,1-2.14,1,11.09,11.09,0,0,1-2.63.31c-.38,0-.8,0-1.28-.06s-1-.09-1.45-.16-1-.15-1.44-.25a8.56,8.56,0,0,1-1.21-.34V20.29a12.08,12.08,0,0,0,2.73.63A20.63,20.63,0,0,0,133.49,21.1Z"/><path class="cls-1" d="M156.53,5.64a9.18,9.18,0,0,1,3.91.76,6.89,6.89,0,0,1,2.58,2,8.31,8.31,0,0,1,1.41,3,14.52,14.52,0,0,1,.43,3.61,14.66,14.66,0,0,1-.43,3.62,8.34,8.34,0,0,1-1.41,3,7,7,0,0,1-2.58,2.05,9.18,9.18,0,0,1-3.91.75h-6.32V5.64Zm-2,3.63V20.83h1.61a5.07,5.07,0,0,0,1.8-.3,3,3,0,0,0,1.36-1,4.76,4.76,0,0,0,.85-1.78,10.58,10.58,0,0,0,.29-2.72,10.5,10.5,0,0,0-.29-2.71,4.81,4.81,0,0,0-.85-1.79,3,3,0,0,0-1.36-1,5.07,5.07,0,0,0-1.8-.3Z"/><path class="cls-1" d="M179.48,9.27h-7.39V13h6.31v3.62h-6.31v4.17h7.66v3.63h-12V5.64h11.69Z"/><path class="cls-1" d="M201.28,9.27h-7.39v4h6.31v3.63h-6.31v7.53h-4.31V5.64h11.7Z"/><path class="cls-1" d="M208,24.46h-4.3V5.64H208Z"/><path class="cls-1" d="M215.6,5.64V20.83h7.66v3.63h-12V5.64Z"/><path class="cls-1" d="M238.15,5.64h5.24V24.46h-4.3v-8.2H239l-2.77,8.2h-3.76l-2.77-8.2h-.06v8.2h-4.3V5.64h5.25l3.84,11.56h.05Z"/><path class="cls-1" d="M258.42,9.27H251V13h6.32v3.62H251v4.17h7.66v3.63h-12V5.64h11.7Z"/><path class="cls-1" d="M266.45,21.1a3.78,3.78,0,0,0,1.71-.36,1.43,1.43,0,0,0,.71-1.39,1.8,1.8,0,0,0-.2-.87,2.65,2.65,0,0,0-.59-.69,8.07,8.07,0,0,0-1-.66l-1.33-.74A15.91,15.91,0,0,1,264,15.24a6.71,6.71,0,0,1-1.34-1.32,5.46,5.46,0,0,1-.85-1.6,6.33,6.33,0,0,1-.29-2,4.32,4.32,0,0,1,.6-2.35,4.88,4.88,0,0,1,1.55-1.55,6.5,6.5,0,0,1,2-.83,10,10,0,0,1,2.12-.24c.38,0,.78,0,1.2,0s.85.09,1.29.16.87.16,1.28.26a9.54,9.54,0,0,1,1.13.33V9.81a16.55,16.55,0,0,0-2.45-.59A14.64,14.64,0,0,0,267.93,9a2.73,2.73,0,0,0-1.53.41,1.35,1.35,0,0,0-.62,1.21,1.54,1.54,0,0,0,.19.79,2.26,2.26,0,0,0,.55.63,4.83,4.83,0,0,0,.93.59l1.29.67a10.22,10.22,0,0,1,3.5,2.61,5,5,0,0,1,1.06,3.17,5.79,5.79,0,0,1-.52,2.58,4.75,4.75,0,0,1-1.42,1.76,5.87,5.87,0,0,1-2.14,1,11.09,11.09,0,0,1-2.63.31c-.38,0-.81,0-1.28-.06s-1-.09-1.45-.16-1-.15-1.44-.25a8.19,8.19,0,0,1-1.21-.34V20.29a12.08,12.08,0,0,0,2.73.63A20.5,20.5,0,0,0,266.45,21.1Z"/><path class="cls-2" d="M7.74,45a3.12,3.12,0,0,0-.23-1.26,2.15,2.15,0,0,0-.62-.82A2.2,2.2,0,0,0,6,42.48a4.48,4.48,0,0,0-1-.12,9.25,9.25,0,0,0-1.83.21,20.58,20.58,0,0,0-2.17.6V39.54a8.19,8.19,0,0,1,1.21-.34c.46-.1.94-.18,1.43-.25s1-.13,1.46-.17.9-.05,1.27-.05a7.11,7.11,0,0,1,2.3.36,5.08,5.08,0,0,1,1.84,1.09A5.42,5.42,0,0,1,11.72,42a6,6,0,0,1,.45,2.41,6.55,6.55,0,0,1-.45,2.45A9.23,9.23,0,0,1,10.46,49a14.62,14.62,0,0,1-1.91,2c-.74.63-1.55,1.27-2.42,1.91h6.23v3.63H0V53.78q1.13-.91,2.49-2A29.63,29.63,0,0,0,5,49.68a13.17,13.17,0,0,0,2-2.3A4.27,4.27,0,0,0,7.74,45Z"/><path class="cls-2" d="M20.4,45.45a7.49,7.49,0,0,1,3.4.15A5.6,5.6,0,0,1,26,46.87a4.93,4.93,0,0,1,1.24,1.88,5.83,5.83,0,0,1,.38,1.94,6.19,6.19,0,0,1-.57,2.77,5.16,5.16,0,0,1-1.53,1.88A6.46,6.46,0,0,1,23.3,56.4a10.67,10.67,0,0,1-2.77.34A16.05,16.05,0,0,1,18,56.52a12.46,12.46,0,0,1-2.39-.59V52.3a14.17,14.17,0,0,0,2.49.61,17.09,17.09,0,0,0,2.48.2,3.58,3.58,0,0,0,1.39-.22,2.28,2.28,0,0,0,.82-.53,1.81,1.81,0,0,0,.39-.7,3.05,3.05,0,0,0,.09-.7,1.79,1.79,0,0,0-.31-1.1,2.25,2.25,0,0,0-.82-.7,3.74,3.74,0,0,0-1.17-.38,8.42,8.42,0,0,0-1.33-.11H16.26L16.53,39h9.94v3.63H20.61Z"/><path class="cls-2" d="M45.9,53.11a3.72,3.72,0,0,0,1.71-.36,1.41,1.41,0,0,0,.71-1.39,1.7,1.7,0,0,0-.2-.87,2.47,2.47,0,0,0-.59-.69,8.07,8.07,0,0,0-1-.66c-.38-.22-.83-.47-1.33-.73a17.23,17.23,0,0,1-1.81-1.16,6.51,6.51,0,0,1-1.35-1.32,5.44,5.44,0,0,1-.84-1.6,6,6,0,0,1-.3-2A4.24,4.24,0,0,1,41.54,40a5,5,0,0,1,1.54-1.55,6.45,6.45,0,0,1,2.05-.83,9.92,9.92,0,0,1,2.12-.24c.38,0,.77,0,1.19,0s.85.09,1.29.16.87.16,1.28.26.79.21,1.13.33v3.63a16.55,16.55,0,0,0-2.45-.59A14.64,14.64,0,0,0,47.38,41a2.73,2.73,0,0,0-1.53.41,1.35,1.35,0,0,0-.62,1.21,1.54,1.54,0,0,0,.19.79,2.44,2.44,0,0,0,.55.63,4.83,4.83,0,0,0,.93.59l1.29.67a10.37,10.37,0,0,1,3.51,2.61,5.09,5.09,0,0,1,1.06,3.17,5.79,5.79,0,0,1-.53,2.58,4.75,4.75,0,0,1-1.42,1.76,5.8,5.8,0,0,1-2.14,1,11.09,11.09,0,0,1-2.63.31c-.38,0-.8,0-1.28-.06s-1-.09-1.45-.16-1-.15-1.44-.25a8.56,8.56,0,0,1-1.21-.34V52.3a12.08,12.08,0,0,0,2.73.63A20.63,20.63,0,0,0,45.9,53.11Z"/><path class="cls-2" d="M67.38,41.28H60v3.77H66.3v3.62H60v4.17h7.66v3.63h-12V37.66H67.38Z"/><path class="cls-2" d="M69.61,41.28V37.66H82.24v3.62H78.08V56.47h-4.3V41.28Z"/><path class="cls-2" d="M104,37.52l5.13,18.95h-4.7l-.89-3.76H98.91l-1,3.76h-4.7l5.22-18.95Zm-4.2,11.56h2.91l-1.38-5.91h0Z"/><path class="cls-2" d="M126,53.11a4.18,4.18,0,0,0,1.4-.19,2.06,2.06,0,0,0,.82-.47,1.52,1.52,0,0,0,.38-.6,2.38,2.38,0,0,0,.09-.62,1.84,1.84,0,0,0-.64-1.47,3.42,3.42,0,0,0-2.18-.55h-3V45.58h2.82a3.25,3.25,0,0,0,2-.45,1.64,1.64,0,0,0,.53-1.29,1.33,1.33,0,0,0-.53-1,2.45,2.45,0,0,0-1.65-.46,13.36,13.36,0,0,0-2.16.16,16.05,16.05,0,0,0-2.14.51V39.54a12.46,12.46,0,0,1,2.39-.59,16.05,16.05,0,0,1,2.58-.22,10.31,10.31,0,0,1,2.14.23,6.41,6.41,0,0,1,1.91.72A4.22,4.22,0,0,1,132.22,41a3.69,3.69,0,0,1,.52,2,4.06,4.06,0,0,1-.91,2.65,4.92,4.92,0,0,1-2.93,1.52v0A6.12,6.12,0,0,1,132,48.74a3.81,3.81,0,0,1,1.19,2.89,4.51,4.51,0,0,1-.54,2.27,4.62,4.62,0,0,1-1.49,1.59,7.12,7.12,0,0,1-2.26.94,12.67,12.67,0,0,1-2.84.31,16.05,16.05,0,0,1-2.58-.22,12.46,12.46,0,0,1-2.39-.59V52.44a10.28,10.28,0,0,0,2.49.53A24.57,24.57,0,0,0,126,53.11Z"/><path class="cls-2" d="M136.91,44.11l-1.35-3,5-2.42h2.82V56.47h-4.3V43.14Z"/><path class="cls-2" d="M164.29,37.39a7.8,7.8,0,0,1,3.61.76,6.58,6.58,0,0,1,2.4,2.1,9.23,9.23,0,0,1,1.36,3.09,15.42,15.42,0,0,1,.43,3.72,15.68,15.68,0,0,1-.43,3.78,9.09,9.09,0,0,1-1.36,3.08A6.69,6.69,0,0,1,167.9,56a9,9,0,0,1-7.21,0,6.69,6.69,0,0,1-2.4-2.07,9.09,9.09,0,0,1-1.36-3.08,15.68,15.68,0,0,1-.43-3.78,15.42,15.42,0,0,1,.43-3.72,9.23,9.23,0,0,1,1.36-3.09,6.58,6.58,0,0,1,2.4-2.1A7.78,7.78,0,0,1,164.29,37.39Zm0,3.62a3.37,3.37,0,0,0-1.66.37,2.54,2.54,0,0,0-1,1.1,5.84,5.84,0,0,0-.53,1.88,21.2,21.2,0,0,0-.14,2.7,21.79,21.79,0,0,0,.14,2.76,5.64,5.64,0,0,0,.53,1.86,2.43,2.43,0,0,0,1,1.08,3.49,3.49,0,0,0,1.66.35,3.55,3.55,0,0,0,1.66-.35,2.4,2.4,0,0,0,1-1.08,5.64,5.64,0,0,0,.53-1.86,23.84,23.84,0,0,0,.14-2.76,23.23,23.23,0,0,0-.14-2.7,5.84,5.84,0,0,0-.53-1.88,2.5,2.5,0,0,0-1-1.1A3.43,3.43,0,0,0,164.29,41Z"/><path class="cls-2" d="M174.72,37.66H179V50a3.77,3.77,0,0,0,.18,1.17,2.72,2.72,0,0,0,.55,1,2.62,2.62,0,0,0,.94.68,3.23,3.23,0,0,0,1.34.26,2.92,2.92,0,0,0,2.31-.83,3.3,3.3,0,0,0,.73-2.26V37.66h4.3V50a6.59,6.59,0,0,1-1.83,4.92c-1.22,1.2-3,1.8-5.51,1.8s-4.28-.6-5.49-1.8A6.62,6.62,0,0,1,174.72,50Z"/><path class="cls-2" d="M191.49,41.28V37.66h12.64v3.62H200V56.47h-4.3V41.28Z"/><path class="cls-2" d="M224.07,45a3.12,3.12,0,0,0-.23-1.26,2.15,2.15,0,0,0-.62-.82,2.17,2.17,0,0,0-.89-.43,4.34,4.34,0,0,0-1-.12,9.17,9.17,0,0,0-1.83.21,20.72,20.72,0,0,0-2.18.6V39.54a8.56,8.56,0,0,1,1.21-.34c.47-.1.95-.18,1.44-.25s1-.13,1.45-.17.9-.05,1.28-.05a7.15,7.15,0,0,1,2.3.36,5.17,5.17,0,0,1,1.84,1.09A5.25,5.25,0,0,1,228,42a5.86,5.86,0,0,1,.46,2.41,6.36,6.36,0,0,1-.46,2.45A8.58,8.58,0,0,1,226.78,49a14,14,0,0,1-1.91,2c-.73.63-1.54,1.27-2.41,1.91h6.23v3.63H216.33V53.78c.75-.61,1.58-1.26,2.48-2a28.31,28.31,0,0,0,2.53-2.15,13.17,13.17,0,0,0,1.95-2.3A4.27,4.27,0,0,0,224.07,45Z"/><path class="cls-2" d="M238.9,38.73a6.5,6.5,0,0,1,3,.67,6.33,6.33,0,0,1,2.19,1.86,8.26,8.26,0,0,1,1.33,2.85,15.32,15.32,0,0,1,0,7.29,8.52,8.52,0,0,1-1.33,2.85,6,6,0,0,1-2.19,1.84,7.36,7.36,0,0,1-6.05,0,6,6,0,0,1-2.19-1.84,8.52,8.52,0,0,1-1.33-2.85,15.32,15.32,0,0,1,0-7.29,8.26,8.26,0,0,1,1.33-2.85,6.33,6.33,0,0,1,2.19-1.86A6.49,6.49,0,0,1,238.9,38.73Zm0,3.36a2.5,2.5,0,0,0-1.3.3,2,2,0,0,0-.78,1,6.1,6.1,0,0,0-.38,1.75c-.06.72-.09,1.6-.09,2.63s0,2,.09,2.69a5.94,5.94,0,0,0,.38,1.74,2,2,0,0,0,.78.94,3.18,3.18,0,0,0,2.61,0,2,2,0,0,0,.78-.94,6,6,0,0,0,.37-1.74c.07-.71.1-1.61.1-2.69s0-1.91-.1-2.63a6.13,6.13,0,0,0-.37-1.75,2,2,0,0,0-.78-1A2.52,2.52,0,0,0,238.9,42.09Z"/><path class="cls-2" d="M249.65,44.11l-1.34-3,5-2.42h2.82V56.47h-4.3V43.14Z"/><path class="cls-2" d="M265.11,50.69a6.1,6.1,0,0,1-2.48-.46A4.85,4.85,0,0,1,260.88,49a5.34,5.34,0,0,1-1.07-1.89,7.78,7.78,0,0,1-.35-2.36,6.8,6.8,0,0,1,.43-2.42,5.14,5.14,0,0,1,1.29-1.89,6.2,6.2,0,0,1,2.11-1.24,8.92,8.92,0,0,1,2.92-.44,6.72,6.72,0,0,1,2.77.56,6.23,6.23,0,0,1,2.11,1.58,7.11,7.11,0,0,1,1.34,2.36,8.89,8.89,0,0,1,.47,3,14.35,14.35,0,0,1-.59,4.22,8.73,8.73,0,0,1-1.92,3.43A9.07,9.07,0,0,1,267,56.16a13.94,13.94,0,0,1-5.15.85v-3.5a14.54,14.54,0,0,0,2.56-.2,6.36,6.36,0,0,0,2-.67,4.12,4.12,0,0,0,1.38-1.24,4.77,4.77,0,0,0,.75-1.92h-.05a3,3,0,0,1-.63.47,5.73,5.73,0,0,1-.83.39,6.82,6.82,0,0,1-.94.26A5.39,5.39,0,0,1,265.11,50.69Zm3.49-4.22a7.79,7.79,0,0,0-.13-2.27,3.17,3.17,0,0,0-.62-1.33,2,2,0,0,0-.9-.62,3,3,0,0,0-.95-.16,2.24,2.24,0,0,0-1.56.6,2.49,2.49,0,0,0-.68,1.93,4.82,4.82,0,0,0,.08.74,2.85,2.85,0,0,0,.34.87,2,2,0,0,0,.74.72,2.41,2.41,0,0,0,1.29.3,4,4,0,0,0,1.33-.2A4.41,4.41,0,0,0,268.6,46.47Z"/></g></g></svg>